<?xml version="1.0" encoding="UTF-8" standalone="no"?><!DOCTYPE svg PUBLIC "-//W3C//DTD SVG 1.1//EN" "http://www.w3.org/Graphics/SVG/1.1/DTD/svg11.dtd"><svg width="100%" height="100%" viewBox="0 0 97 97" version="1.1" xmlns="http://www.w3.org/2000/svg" xmlns:xlink="http://www.w3.org/1999/xlink" xml:space="preserve" xmlns:serif="http://www.serif.com/" style="fill-rule:evenodd;clip-rule:evenodd;stroke-linejoin:round;stroke-miterlimit:2;"><path d="M95.344,84.937c-11.408,-13.134 -22.817,-26.267 -34.225,-39.405c9.537,-11.425 19.075,-22.854 28.612,-34.283c3.521,-4.221 -3.066,-5.35 -6.05,-5.254c-5.112,0.162 -12.583,1.929 -16.07,6.108c-5.805,6.954 -11.605,13.909 -17.409,20.863l-26.741,-30.792c-5.463,-6.287 -28.588,2.363 -22.425,9.454c11.383,13.109 22.77,26.217 34.154,39.325c-11.046,13.238 -22.096,26.475 -33.142,39.717c-3.521,4.217 3.063,5.346 6.05,5.25c5.113,-0.158 12.579,-1.925 16.067,-6.104c7.316,-8.767 14.629,-17.529 21.946,-26.296c8.933,10.292 17.87,20.579 26.808,30.867c5.462,6.287 28.587,-2.359 22.425,-9.45" style="fill:#f9eed2;fill-rule:nonzero;"/></svg>