<?xml version="1.0" encoding="UTF-8" standalone="no"?><!DOCTYPE svg PUBLIC "-//W3C//DTD SVG 1.1//EN" "http://www.w3.org/Graphics/SVG/1.1/DTD/svg11.dtd"><svg width="100%" height="100%" viewBox="0 0 102 95" version="1.1" xmlns="http://www.w3.org/2000/svg" xmlns:xlink="http://www.w3.org/1999/xlink" xml:space="preserve" xmlns:serif="http://www.serif.com/" style="fill-rule:evenodd;clip-rule:evenodd;stroke-linejoin:round;stroke-miterlimit:2;"><g><path d="M27.463,85.659c-4.133,0 -7.483,-3.35 -7.483,-7.479c-0,-4.133 3.35,-7.483 7.483,-7.483c4.133,-0 7.479,3.35 7.479,7.483c0,4.129 -3.346,7.479 -7.479,7.479m-0,-23.7c-8.958,0 -16.221,7.263 -16.221,16.221c0,8.954 7.263,16.217 16.221,16.217c8.958,-0 16.217,-7.263 16.217,-16.217c-0,-8.958 -7.259,-16.221 -16.217,-16.221" style="fill:#f9eed2;fill-rule:nonzero;"/><path d="M70.556,85.659c-4.133,0 -7.483,-3.35 -7.483,-7.479c-0,-4.133 3.35,-7.483 7.483,-7.483c4.133,-0 7.483,3.35 7.483,7.483c0,4.129 -3.35,7.479 -7.483,7.479m-0,-23.7c-8.958,0 -16.217,7.263 -16.217,16.221c0,8.954 7.259,16.217 16.217,16.217c8.958,-0 16.221,-7.263 16.221,-16.217c-0,-8.958 -7.263,-16.221 -16.221,-16.221" style="fill:#f9eed2;fill-rule:nonzero;"/><path d="M70.556,73.262c-2.717,-0 -4.917,2.2 -4.917,4.916c0,2.717 2.2,4.917 4.917,4.917c2.717,0 4.917,-2.2 4.917,-4.917c-0,-2.716 -2.2,-4.916 -4.917,-4.916" style="fill:#f9eed2;fill-rule:nonzero;"/><path d="M27.463,73.262c-2.717,-0 -4.917,2.2 -4.917,4.916c0,2.717 2.2,4.917 4.917,4.917c2.717,0 4.917,-2.2 4.917,-4.917c-0,-2.716 -2.2,-4.916 -4.917,-4.916" style="fill:#f9eed2;fill-rule:nonzero;"/><path d="M88.15,50.625l-4.025,-0c-6.504,-0 -11.779,-5.275 -11.779,-11.779l-0,-11.438c-0,-0.304 0.246,-0.55 0.55,-0.55l11.517,0c0.27,0 0.5,0.196 0.545,0.459l3.734,22.666c0.058,0.338 -0.2,0.642 -0.542,0.642m-42.1,-21.042c-2.321,2.871 -6.325,3.567 -9.437,1.825l-0,-0.004c0.279,-0.2 0.562,-0.45 0.87,-0.708c0.134,-0.117 0.263,-0.242 0.4,-0.363c0.134,-0.125 0.275,-0.25 0.409,-0.387c0.271,-0.271 0.554,-0.542 0.816,-0.846c0.134,-0.146 0.275,-0.292 0.405,-0.446c0.129,-0.158 0.258,-0.312 0.387,-0.467c0.167,-0.2 0.321,-0.404 0.471,-0.612c0.092,-0.113 0.179,-0.229 0.262,-0.346c0,0 -0.004,0 -0.008,-0.004c0.058,-0.079 0.117,-0.158 0.175,-0.238c0.004,-0.004 0.004,-0.008 0.004,-0.008c0.159,-0.246 0.317,-0.487 0.467,-0.721c0.05,-0.079 0.1,-0.158 0.15,-0.237c0.046,-0.079 0.092,-0.159 0.133,-0.238c0.092,-0.158 0.175,-0.312 0.259,-0.462c0.083,-0.154 0.17,-0.296 0.237,-0.442c0.071,-0.146 0.138,-0.287 0.2,-0.425c0.063,-0.133 0.125,-0.262 0.183,-0.383c0.059,-0.125 0.117,-0.238 0.155,-0.354c0.087,-0.225 0.166,-0.425 0.229,-0.584c0.125,-0.325 0.196,-0.508 0.196,-0.508c-0,-0 -0.096,0.171 -0.263,0.475c-0.083,0.15 -0.183,0.337 -0.3,0.546c-0.054,0.108 -0.129,0.212 -0.2,0.325c-0.075,0.112 -0.15,0.233 -0.229,0.354c-0.083,0.125 -0.167,0.254 -0.25,0.387c-0.088,0.134 -0.192,0.263 -0.292,0.396c-0.1,0.134 -0.204,0.275 -0.308,0.417c-0.054,0.067 -0.104,0.142 -0.158,0.212c-0.059,0.067 -0.121,0.138 -0.18,0.205c-0.116,0.141 -0.237,0.283 -0.362,0.425c-0.058,0.07 -0.117,0.141 -0.179,0.212c-0.034,0.038 -0.067,0.075 -0.1,0.108c-0.304,0.305 -0.592,0.634 -0.917,0.921c-0.142,0.134 -0.283,0.263 -0.425,0.396c-0.142,0.125 -0.292,0.246 -0.437,0.371c-0.288,0.25 -0.588,0.471 -0.871,0.687c-0.142,0.113 -0.292,0.209 -0.434,0.309c-0.141,0.096 -0.279,0.196 -0.416,0.287c-0.279,0.175 -0.538,0.346 -0.788,0.484c-0.241,0.145 -0.471,0.27 -0.675,0.379c-0.021,0.008 -0.041,0.021 -0.062,0.033l-0,-0.004c-0.496,0.208 -1.029,0.471 -1.579,0.796c-0.334,0.196 -0.709,0.458 -1.105,0.766c-2.279,1.759 -3.72,4.363 -4.162,7.205c-0.317,2.033 -1.429,4.308 -2.513,5.445c-0.05,0.055 -0.104,0.105 -0.154,0.155c-0.233,0.22 -0.454,0.45 -0.658,0.695c-1.517,1.842 -4.142,4.771 -2.558,2.246c0.2,-0.321 0.375,-0.616 0.52,-0.887c0.184,-0.338 -0.066,-0.742 -0.45,-0.729c-0.133,-0 -0.258,0.058 -0.354,0.15c-1.791,1.808 -4.483,4.312 -2.641,1.916c0.525,-0.683 0.895,-1.25 1.162,-1.725c0.154,-0.275 0.038,-0.621 -0.25,-0.746l-0.008,-0.004c-0.117,-0.054 -0.25,-0.058 -0.371,-0.016c-0.658,0.229 -1.633,0.695 -3.354,2.5c-2.284,2.404 0.254,-1.25 1.825,-3.342c0.15,-0.2 0.15,-0.471 0.004,-0.671l-0.008,-0.008c-0.2,-0.267 -0.584,-0.317 -0.842,-0.104c-0.417,0.341 -0.896,0.787 -1.454,1.375c-2.088,2.195 -0.15,-0.671 1.4,-2.775c0.075,-0.1 0.1,-0.221 0.075,-0.342l-0,-0.004c-0.059,-0.284 -0.379,-0.421 -0.625,-0.271c-0.346,0.212 -0.734,0.483 -1.175,0.837c-1.621,1.296 -0.613,-0.016 0.612,-1.408c0.654,-0.746 1.204,-1.575 1.688,-2.442c0.191,-0.345 0.429,-0.67 0.712,-0.966c1.038,-1.096 3.129,-2.271 5.079,-2.734c1.905,-0.45 3.655,-1.412 5.071,-2.762c1.446,-1.375 2.842,-2.504 3.7,-3c0.442,-0.254 0.871,-0.471 1.279,-0.663c-1.662,-2.462 -1.72,-5.712 0.005,-8.287c1.104,-1.65 2.729,-2.704 4.483,-3.121c1.292,-0.308 2.508,-0.904 3.442,-1.854c1.37,-1.396 2.208,-3.138 2.608,-4.138c0.125,-0.312 0.558,-0.333 0.721,-0.041c6.508,11.729 0.758,17.987 0.758,17.987m51.7,30.813c0,-0.021 0.008,-0.038 0.004,-0.059l-0.316,-2.216l-4.325,-30.054c-0.005,-0.021 -0.005,-0.046 -0.005,-0.067c-0.02,-6.521 -5.358,-11.85 -11.883,-11.85l-11.842,-0c-2.116,-0 -3.829,-1.713 -3.829,-3.825l0,0.108c0,-6.841 -5.596,-12.433 -12.433,-12.433l-40.688,-0c-6.837,-0 -12.433,5.592 -12.433,12.433l0,51.904c0,5.534 3.838,10.217 8.979,11.521c0.313,0.079 0.625,-0.133 0.675,-0.45c1.334,-8.637 8.8,-15.25 17.809,-15.25c9.129,0 16.67,6.788 17.858,15.588c0.037,0.271 0.271,0.475 0.542,0.475l6.291,-0c0.275,-0 0.509,-0.204 0.546,-0.475c1.188,-8.8 8.729,-15.588 17.854,-15.588c9.038,0 16.517,6.65 17.821,15.317c0.046,0.317 0.35,0.525 0.658,0.458c3.075,-0.691 5.705,-2.579 7.38,-5.146c2.841,-0.112 5.12,-2.437 5.12,-5.312c0,-2.4 -1.6,-4.408 -3.783,-5.079" style="fill:#f9eed2;fill-rule:nonzero;"/></g></svg>