<svg xmlns="http://www.w3.org/2000/svg" width="45" height="45.002" viewBox="0 0 45 45.002">
  <path id="Path_188" data-name="Path 188" d="M29.063,24.893l-.508.5,1.091,1.1L30.169,26l-1.106-1.1m0,0-.508.5,1.091,1.1L30.169,26l-1.106-1.1m0,0-.508.5,1.091,1.1L30.169,26l-1.106-1.1m0,0-.508.5,1.091,1.1L30.169,26l-1.106-1.1m0,0-.508.5,1.091,1.1L30.169,26l-1.106-1.1m0,0-.508.5,1.091,1.1L30.169,26l-1.106-1.1m0,0-.508.5,1.091,1.1L30.169,26l-1.106-1.1m0,0-.508.5,1.091,1.1L30.169,26l-1.106-1.1m0,0-.508.5,1.091,1.1L30.169,26l-1.106-1.1m0,0-.508.5,1.091,1.1L30.169,26l-1.106-1.1m0,0-.508.5,1.091,1.1L30.169,26l-1.106-1.1m0,0-.508.5,1.091,1.1L30.169,26l-1.106-1.1m15.186-4.577c-1.292-1.275-2.616-2.515-3.927-3.772Q31.969,8.539,23.615.534a1.419,1.419,0,0,0-2.227.009Q11.131,10.371.877,20.2a2.33,2.33,0,0,0-.7,2.694,2.362,2.362,0,0,0,2.392,1.5c.645,0,1.288-.006,1.933,0,.363.005.83-.154,1.062.061s.07.691.07,1.05q.008,7.8,0,15.589A3.726,3.726,0,0,0,9.557,45H22.51q6.5,0,13,0a4.035,4.035,0,0,0,1.418-.23,3.719,3.719,0,0,0,2.444-3.509q.007-8.234-.006-16.467c0-.33.078-.419.408-.41.877.025,1.756.01,2.634.008a3.172,3.172,0,0,0,.869-.09,2.346,2.346,0,0,0,.973-3.987m-12.527-.687,1.155.463-2.668,3.47-.245-.121,1.758-3.813m-5.366-.6a3.6,3.6,0,0,1,3.575-2.29,2.677,2.677,0,0,1-.641,1.779,3.481,3.481,0,0,1-1.609,1.018l1.882.383c-.464.334-.854.656-1.282.915a1.941,1.941,0,0,1-1.829.114c-.394-.166-.773-.372-1.151-.574a.268.268,0,0,1-.119-.206,5.125,5.125,0,0,0-.289-1.713,8.732,8.732,0,0,1-.158-1.729,2.471,2.471,0,0,1,1.62,2.3M26.2,25.468l1.047,1.055.531-.563L26.72,24.952a2.23,2.23,0,0,1,2.313-1.02,2.1,2.1,0,0,1,1.67,1.747,1.868,1.868,0,0,1-.39,1.586c-.423.49-.914.922-1.413,1.416l-1.053-1.086-.558.6.5.364-.06.073H23.9a20.378,20.378,0,0,1,2.3-3.164M22.007,16.35a.792.792,0,1,1-.8.8.785.785,0,0,1,.8-.8m-5.532,2.382c.417.057.821.114,1.226.164.064.008.165.009.2-.03a1.619,1.619,0,0,1,1.828-.442,3.305,3.305,0,0,1,1.985,1.457,5.956,5.956,0,0,1,1.084,3.435v1.714c-.065-.089-.1-.134-.133-.184-.266-.475-.523-.955-.8-1.425A5.017,5.017,0,0,0,18.744,21a1.407,1.407,0,0,1-1.117-1.294l-1.258-.192c.036-.268.07-.511.107-.783m3.543,7.549a.792.792,0,1,1-.792-.806.785.785,0,0,1,.792.806m-5.935-1.933,1.508,1.507a2.486,2.486,0,0,1-1.508.749Zm-.8-5.617a.792.792,0,1,1-.8.768.785.785,0,0,1,.8-.768m-1.6,3.191c.513.514,1.018,1.019,1.547,1.548h-2.3a2.608,2.608,0,0,1,.754-1.548m-.759,2.351H12.6l-1.194,1.2a2.525,2.525,0,0,1-.481-1.2m2.336.619v1.717a2.606,2.606,0,0,1-1.226-.495l1.226-1.222m19.028,8.193a10.175,10.175,0,0,1-5.475,5.453.62.62,0,0,0-.457.709,4.74,4.74,0,0,1,0,.49H19.226c0-.181-.012-.369,0-.555a.555.555,0,0,0-.4-.622,10.182,10.182,0,0,1-5.544-5.54.312.312,0,0,1,.036-.274c.5-.518,1.01-1.022,1.545-1.559l1.506,1.507c.425.426.53.425.963-.008l1.491-1.493c.078.074.149.138.217.205l1.384,1.385c.3.3.472.306.77.007.526-.525,1.05-1.051,1.594-1.6.074.069.14.127.2.188q.712.709,1.42,1.419c.28.278.458.281.734,0,.532-.53,1.061-1.064,1.609-1.615.078.072.143.13.205.192.48.479.957.96,1.438,1.437.257.255.443.257.7,0,.538-.536,1.072-1.076,1.623-1.629.074.066.135.117.191.173.433.431.859.87,1.3,1.292a.319.319,0,0,1,.085.424m.367-1.032c-.138-.157-.234-.277-.342-.386q-.61-.617-1.226-1.227c-.277-.275-.454-.272-.734.008-.53.531-1.059,1.063-1.631,1.637-.205-.221-.391-.43-.585-.629-.335-.343-.675-.68-1.016-1.017-.277-.274-.453-.271-.734.008q-.7.7-1.4,1.4c-.063.063-.129.123-.216.205-.505-.507-.99-.991-1.475-1.476-.457-.457-.548-.459-1-.008l-1.511,1.519c-.229-.247-.437-.481-.653-.7-.288-.3-.583-.585-.875-.878-.363-.362-.5-.363-.858-.007l-1.35,1.349c-.063.063-.129.124-.242.231-.231-.25-.45-.495-.678-.73-.306-.314-.616-.622-.929-.929-.257-.252-.44-.248-.7.009-.457.455-.913.909-1.365,1.369a1.451,1.451,0,0,0-.159.261,7.338,7.338,0,0,1-.472-2.6H33.1a10.1,10.1,0,0,1-.44,2.6m-1.6-7.587c-.02-.036-.04-.073-.059-.109.8-.629,1.609-1.256,2.43-1.9l.64.854L31.06,24.465M30.169,26l-1.106-1.1-.508.5,1.091,1.1L30.169,26m-1.106-1.1-.508.5,1.091,1.1L30.169,26l-1.106-1.1m0,0-.508.5,1.091,1.1L30.169,26l-1.106-1.1m0,0-.508.5,1.091,1.1L30.169,26l-1.106-1.1m0,0-.508.5,1.091,1.1L30.169,26l-1.106-1.1m0,0-.508.5,1.091,1.1L30.169,26l-1.106-1.1m0,0-.508.5,1.091,1.1L30.169,26l-1.106-1.1m0,0-.508.5,1.091,1.1L30.169,26l-1.106-1.1m0,0-.508.5,1.091,1.1L30.169,26l-1.106-1.1m0,0-.508.5,1.091,1.1L30.169,26l-1.106-1.1m0,0-.508.5,1.091,1.1L30.169,26l-1.106-1.1m0,0-.508.5,1.091,1.1L30.169,26l-1.106-1.1m0,0-.508.5,1.091,1.1L30.169,26l-1.106-1.1" transform="translate(0 0.001)" fill="#4E6B5F"/>
</svg>
