<svg id="Group_573" data-name="Group 573" xmlns="http://www.w3.org/2000/svg" xmlns:xlink="http://www.w3.org/1999/xlink" width="45" height="42.822" viewBox="0 0 45 42.822">
  <defs>
    <clipPath id="clip-path">
      <rect id="Rectangle_168" data-name="Rectangle 168" width="45" height="42.822" fill="#303230"/>
    </clipPath>
  </defs>
  <g id="Group_573-2" data-name="Group 573" clip-path="url(#clip-path)">
    <path id="Path_178" data-name="Path 178" d="M28.171,115.076a7.2,7.2,0,0,0,11.867-.022,7.157,7.157,0,0,0,11.841,0,7.265,7.265,0,0,0,7.927,2.885v.554q0,11.475,0,22.95c0,.783-.126.912-.9.914-.891,0-1.783-.021-2.673.01-.424.015-.535-.125-.534-.541q.019-8.113.007-16.226a4.379,4.379,0,0,0-.031-.706,1.126,1.126,0,0,0-1.156-.924c-1.093-.014-2.186-.006-3.279-.007q-3.808,0-7.617,0c-1.131,0-1.517.382-1.518,1.513q0,8.088,0,16.176v.706H21.226c-.852,0-.962-.11-.962-.95q0-11.45,0-22.9v-.569a7.238,7.238,0,0,0,7.907-2.865M30.9,133.527c1.682,0,3.363,0,5.045,0,.986,0,1.428-.431,1.432-1.409q.014-3.362,0-6.724c0-.989-.44-1.426-1.411-1.427q-5.1-.005-10.191,0c-1,0-1.414.405-1.416,1.405q-.008,3.362,0,6.724c0,1.031.4,1.428,1.445,1.431,1.7,0,3.4,0,5.1,0" transform="translate(-17.533 -99.547)" fill="#4E6B5F"/>
    <rect id="Rectangle_167" data-name="Rectangle 167" width="8.764" height="15.945" transform="translate(26.99 26.834)" fill="#4E6B5F"/>
    <path id="Path_179" data-name="Path 179" d="M97.72.084v8.48H88.36c.51-1.43,1.011-2.834,1.512-4.238C90.34,3.014,90.8,1.7,91.291.4a.615.615,0,0,1,.438-.342c1.932-.022,3.865-.013,5.8-.011a1.227,1.227,0,0,1,.194.04" transform="translate(-76.451 -0.034)" fill="#4E6B5F"/>
    <path id="Path_180" data-name="Path 180" d="M176.236,0h3.751c.739,0,1.479-.016,2.217.014a.574.574,0,0,1,.427.291c.975,2.682,1.929,5.372,2.886,8.06a.937.937,0,0,1,.024.168h-9.3Z" transform="translate(-152.483 0)" fill="#4E6B5F"/>
    <path id="Path_181" data-name="Path 181" d="M7.232,8.549,7.874,7.5Q10.017,4,12.155.491A.859.859,0,0,1,12.96.007c1.78.009,3.56,0,5.341.006.081,0,.162.019.335.041l-3.029,8.5Z" transform="translate(-6.257 -0.006)" fill="#4E6B5F"/>
    <path id="Path_182" data-name="Path 182" d="M242.287.057c1.985,0,3.9-.008,5.811.014a.744.744,0,0,1,.528.312q2.492,4.029,4.948,8.08c.014.023,0,.062,0,.145h-.327c-2.519,0-5.038-.005-7.558.007a.476.476,0,0,1-.539-.372c-.907-2.58-1.83-5.154-2.745-7.73-.047-.132-.072-.272-.12-.456" transform="translate(-209.632 -0.048)" fill="#4E6B5F"/>
    <path id="Path_183" data-name="Path 183" d="M263.806,81.629h9.424a4.584,4.584,0,0,1-1.921,4.306,4.433,4.433,0,0,1-5.236.214,4.715,4.715,0,0,1-2.267-4.52" transform="translate(-228.247 -70.627)" fill="#4E6B5F"/>
    <path id="Path_184" data-name="Path 184" d="M9.444,81.756a4.729,4.729,0,0,1-2.1,4.4,4.41,4.41,0,0,1-4.9.216A4.657,4.657,0,0,1,.008,81.756Z" transform="translate(0 -70.737)" fill="#4E6B5F"/>
    <path id="Path_185" data-name="Path 185" d="M87.953,81.64h9.394a4.576,4.576,0,0,1-1.823,4.231,4.477,4.477,0,0,1-5.146.4,4.7,4.7,0,0,1-2.425-4.635" transform="translate(-76.076 -70.637)" fill="#4E6B5F"/>
    <path id="Path_186" data-name="Path 186" d="M175.939,81.632h9.426a4.782,4.782,0,0,1-1.756,4.179,4.6,4.6,0,0,1-5.143.506,4.714,4.714,0,0,1-2.527-4.685" transform="translate(-152.22 -70.63)" fill="#4E6B5F"/>
    <path id="Path_187" data-name="Path 187" d="M68.249,199.048h8.2v4.742c-.151.008-.313.025-.474.025-2.4,0-4.8-.008-7.2.01-.418,0-.544-.114-.536-.535.025-1.393.009-2.788.009-4.242" transform="translate(-59.042 -172.22)" fill="#4E6B5F"/>
  </g>
</svg>
