<svg xmlns="http://www.w3.org/2000/svg" xmlns:xlink="http://www.w3.org/1999/xlink" width="45" height="44.999" viewBox="0 0 45 44.999">
  <defs>
    <clipPath id="clip-path">
      <rect id="Rectangle_166" data-name="Rectangle 166" width="45" height="44.999" fill="#4E6B5F"/>
    </clipPath>
  </defs>
  <g id="Group_571" data-name="Group 571" clip-path="url(#clip-path)">
    <path id="Path_170" data-name="Path 170" d="M19.366,77.113c0,.284-.012.485,0,.683a.748.748,0,0,0,.756.751.723.723,0,0,0,.795-.707c.034-.847.034-1.7,0-2.546a.745.745,0,0,0-.825-.732c-.761-.011-1.523-.009-2.285,0a.8.8,0,1,0-.051,1.588c.043,0,.086.012.2.028a16.9,16.9,0,0,0,.016,24.066c-.183.015-.293.033-.4.033q-7.448,0-14.9,0A2.415,2.415,0,0,1,.064,97.819q0-14.63,0-29.26v-.41H41.82v8.216c-.119-.1-.218-.163-.3-.245a16.676,16.676,0,0,0-9.412-4.607,20.956,20.956,0,0,0-2.232-.153.8.8,0,0,0-.883.776.789.789,0,0,0,.826.791,15.02,15.02,0,0,1,5.2.938c5.541,2.193,8.931,6.211,9.857,12.106A15.244,15.244,0,0,1,14.83,91.145a14.972,14.972,0,0,1,3.99-13.552c.109-.118.228-.228.344-.339a2.46,2.46,0,0,1,.2-.141m11.208,5.838h0c0-.937.009-1.873,0-2.81a.75.75,0,0,0-.669-.747.759.759,0,0,0-.86.58,2.075,2.075,0,0,0-.051.52q-.005,2.546,0,5.093a.471.471,0,0,1-.29.506,2.373,2.373,0,0,0-1.288,2.476,2.414,2.414,0,0,0,1.906,1.993,2.348,2.348,0,0,0,2.6-1.274.476.476,0,0,1,.506-.3c1,.01,1.991,0,2.986,0a.654.654,0,0,0,.713-.467,1.063,1.063,0,0,0-.122-.8,1.133,1.133,0,0,0-.768-.3c-.95-.035-1.9,0-2.853-.025a.786.786,0,0,1-.433-.246q-.567-.528-1.1-1.091a.785.785,0,0,1-.253-.431c-.024-.892-.012-1.785-.012-2.678M24.949,98.04a.781.781,0,0,0-.574-.856.716.716,0,0,0-.868.335c-.287.455-.557.923-.815,1.4a.791.791,0,0,0,.291,1.128.782.782,0,0,0,1.084-.341c.268-.434.519-.877.766-1.323a1.677,1.677,0,0,0,.117-.339M39.674,83.371A5.869,5.869,0,0,0,41.6,82.163a.6.6,0,0,0-.084-.871,1.017,1.017,0,0,0-.8-.242A10.175,10.175,0,0,0,39.011,82a.67.67,0,0,0-.222.861.816.816,0,0,0,.885.505M35.588,97.148a.823.823,0,0,0-.864,1.186c.24.467.511.92.786,1.369a.781.781,0,0,0,1.09.33.8.8,0,0,0,.271-1.143,12.845,12.845,0,0,0-.755-1.284,2.417,2.417,0,0,0-.529-.458m-.042-17.884a1.39,1.39,0,0,0,.493-.328,14.181,14.181,0,0,0,.885-1.511A.784.784,0,0,0,35.6,76.6a14.376,14.376,0,0,0-.912,1.6c-.241.507.163,1.066.859,1.069M41.719,94.5a1.647,1.647,0,0,0-.372-.507,13.819,13.819,0,0,0-1.472-.865.772.772,0,0,0-1.03.3.747.747,0,0,0,.228,1.045,13.855,13.855,0,0,0,1.518.875c.529.256,1.123-.139,1.129-.85m-11.152,5.761h0c0-.277.012-.555,0-.831a.774.774,0,0,0-.706-.759.71.71,0,0,0-.811.574,12.216,12.216,0,0,0,0,2.041.7.7,0,0,0,.814.565.752.752,0,0,0,.7-.716c.019-.29,0-.583,0-.874M17.714,88.986c.306,0,.614.02.918-.005a.7.7,0,0,0,.682-.673.68.68,0,0,0-.537-.828,12.078,12.078,0,0,0-2.085,0c-.387.035-.563.39-.548.783a.746.746,0,0,0,.7.717c.29.022.583,0,.875,0M30.57,76.164h0c0-.292.015-.584,0-.875a.778.778,0,0,0-.7-.724.714.714,0,0,0-.814.57,11.972,11.972,0,0,0,0,2.042.7.7,0,0,0,.854.561A.737.737,0,0,0,30.567,77c.014-.276,0-.554,0-.831m-5.527,2.391-.1-.086a.451.451,0,0,0-.017-.173,19.536,19.536,0,0,0-1.061-1.8.774.774,0,0,0-1.256.811,16.539,16.539,0,0,0,.955,1.668.662.662,0,0,0,.9.207,2.637,2.637,0,0,0,.573-.627M17.863,81.89c.062.1.141.386.329.516a13.035,13.035,0,0,0,1.549.9.752.752,0,0,0,.986-.32.762.762,0,0,0-.2-1.017,14.6,14.6,0,0,0-1.592-.913c-.487-.235-1.034.14-1.068.834m2.314,11.1a2.015,2.015,0,0,0-.375.1c-.559.314-1.129.613-1.664.964a.758.758,0,0,0-.165.99.744.744,0,0,0,.951.328,14.6,14.6,0,0,0,1.662-.97.649.649,0,0,0,.18-.872,2.4,2.4,0,0,0-.588-.538m21.641-4c.291,0,.584.014.874,0a.746.746,0,0,0,.735-.72.716.716,0,0,0-.627-.813,12.91,12.91,0,0,0-1.917,0,.743.743,0,0,0-.64.811.777.777,0,0,0,.744.722c.276.017.554,0,.831,0" transform="translate(-0.053 -58.487)" fill="#4E6B5F"/>
    <path id="Path_171" data-name="Path 171" d="M15.294,22.584H18.46c.023.374.026.736.069,1.093a2.376,2.376,0,0,0,2.539,2.1A2.415,2.415,0,0,0,23.3,23.427c.006-.263,0-.525,0-.828H26.54c0,.289,0,.563,0,.837a2.389,2.389,0,0,0,4.773.1c.016-.3,0-.609,0-.945h3.237a2.9,2.9,0,0,0,.92,2.661,2.331,2.331,0,0,0,1.589.521,2.361,2.361,0,0,0,1.886-1.043,3.235,3.235,0,0,0,.43-2.1,2.2,2.2,0,0,1,2.34,1.828,26.37,26.37,0,0,1,.022,2.916H.031a26.354,26.354,0,0,1,.02-2.806,2.257,2.257,0,0,1,2.384-1.949c0,.222,0,.45,0,.678a2.4,2.4,0,1,0,4.788-.025c0-.218,0-.436,0-.665a1.788,1.788,0,0,1,.281-.05c.964,0,1.928,0,2.956,0,0,.293,0,.55,0,.807a2.4,2.4,0,0,0,2.257,2.409,2.377,2.377,0,0,0,2.522-2.168c.035-.331.036-.666.053-1.023" transform="translate(-0.001 -19.361)" fill="#4E6B5F"/>
    <path id="Path_172" data-name="Path 172" d="M256.555,2.417c0,.5.008,1,0,1.493a.827.827,0,0,1-.8.912.818.818,0,0,1-.831-.883q-.021-1.537,0-3.074a.818.818,0,1,1,1.633.015c.012.512,0,1.024,0,1.537" transform="translate(-218.769 0.001)" fill="#4E6B5F"/>
    <path id="Path_173" data-name="Path 173" d="M143.211,2.44c0,.5.006.995,0,1.492a.817.817,0,0,1-.772.892.8.8,0,0,1-.85-.86q-.03-1.558,0-3.116A.8.8,0,0,1,142.406,0a.814.814,0,0,1,.8.9c.007.512,0,1.024,0,1.536" transform="translate(-121.502 -0.001)" fill="#4E6B5F"/>
    <path id="Path_174" data-name="Path 174" d="M86.626,2.438c0,.483.01.966,0,1.448-.015.588-.333.942-.821.939s-.8-.364-.8-.946q-.006-1.47,0-2.941C85,.359,85.317,0,85.81,0a.817.817,0,0,1,.812.9c.016.512,0,1.024,0,1.536" transform="translate(-72.945 -0.002)" fill="#4E6B5F"/>
    <path id="Path_175" data-name="Path 175" d="M29.96,2.409c0,.526.007,1.053,0,1.579a.8.8,0,0,1-.775.835.773.773,0,0,1-.819-.788q-.03-1.622,0-3.246A.769.769,0,0,1,29.179,0a.79.79,0,0,1,.779.829c.01.526,0,1.053,0,1.579" transform="translate(-24.33 -0.001)" fill="#4E6B5F"/>
    <path id="Path_176" data-name="Path 176" d="M198.409,2.405c0-.526-.008-1.053,0-1.579A.788.788,0,0,1,199.194,0,.769.769,0,0,1,200,.8q.027,1.622,0,3.245a.772.772,0,0,1-.822.783.8.8,0,0,1-.769-.84c-.009-.526,0-1.053,0-1.579" transform="translate(-170.277 -0.002)" fill="#4E6B5F"/>
    <path id="Path_177" data-name="Path 177" d="M204.855,203.94a.81.81,0,1,1-.812.8.82.82,0,0,1,.813-.8" transform="translate(-175.115 -175.027)" fill="#4E6B5F"/>
  </g>
</svg>
