<?xml version="1.0" encoding="UTF-8" standalone="no"?><!DOCTYPE svg PUBLIC "-//W3C//DTD SVG 1.1//EN" "http://www.w3.org/Graphics/SVG/1.1/DTD/svg11.dtd"><svg width="100%" height="100%" viewBox="0 0 487 586" version="1.1" xmlns="http://www.w3.org/2000/svg" xmlns:xlink="http://www.w3.org/1999/xlink" xml:space="preserve" xmlns:serif="http://www.serif.com/" style="fill-rule:evenodd;clip-rule:evenodd;stroke-linejoin:round;stroke-miterlimit:2;"><g><g transform="matrix(4.16667,0,0,4.16667,-2374.79,-4471.7)"><text x="588.672px" y="1200.2px" style="font-family:'LucidaGrande', 'Lucida Grande', sans-serif;font-weight:500;font-size:11.09px;fill:#a09b7e;">Pr<tspan x="599.501px 605.76px 611.494px 617.753px 622.371px 628.192px 634.396px 638.625px 641.911px 647.732px 653.991px " y="1200.2px 1200.2px 1200.2px 1200.2px 1200.2px 1200.2px 1200.2px 1200.2px 1200.2px 1200.2px 1200.2px ">eservative </tspan>&amp;</text><text x="591.744px" y="1213.51px" style="font-family:'LucidaGrande', 'Lucida Grande', sans-serif;font-weight:500;font-size:11.09px;fill:#a09b7e;">Ad<tspan x="606.204px 613.097px 616.217px 620.279px 623.399px " y="1213.51px 1213.51px 1213.51px 1213.51px 1213.51px ">ditiv</tspan>e</text><text x="637.831px" y="1213.51px" style="font-family:'LucidaGrande', 'Lucida Grande', sans-serif;font-weight:500;font-size:11.09px;fill:#a09b7e;">Fr<tspan x="648.143px " y="1213.51px ">e</tspan>e</text></g><path d="M54.221,78.861c87.388,-93.125 190.03,-104.775 293.275,-29.612c103.246,75.162 155.771,198.554 80.609,301.8c-75.163,103.246 -222.742,80.958 -325.988,5.796c-103.246,-75.163 -143.571,-176.025 -47.896,-277.984" style="fill:#fff;fill-rule:nonzero;"/><path d="M15.88,188.11c-0.146,4.158 -0.887,8.467 -1.45,13.004c-0.325,2.254 -0.716,4.542 -1.141,6.859c-0.334,2.329 -0.675,4.687 -1.013,7.054c-1.454,9.454 -2.158,19.308 -0.967,28.137c0.225,2.067 -1.762,-0.491 -1.137,4.204c1.621,8.559 3.083,19.471 5.833,30.667c2.625,11.204 6.471,22.679 10.875,32.383l-1.062,-0.883c0.85,1.846 2.208,3.671 3.65,5.454c1.537,1.729 3.087,3.446 4.166,5.292c-0.25,0.217 -1.137,-0.883 -0.962,0.2c1.292,0.425 4.908,6.004 6.583,7c0.725,1.567 -0.046,1.967 1.071,3.892l2.463,1.141c6.225,3.475 11.095,12.171 19.05,17.159c-0.513,-0.08 -1.35,-0.496 -0.946,0.158c12.316,8.304 27.604,18.558 42.741,25.075c-0.762,0.079 -1.637,0.467 -0.954,1.279c1.267,-0.742 5.959,1.208 10.071,2.754c1.383,1.829 7.329,2.013 11.921,4.363l-0.508,0.1c4.016,0.125 5.037,2.704 8.466,2.275l1.979,1.658c2.134,-1.108 4.946,2.621 8.234,2.713l0.008,-0.367c2.967,0.437 4.204,1.696 6.929,2.196l0.196,0.266c6.321,1.342 9.75,3.084 9.917,1.792c1.929,1.6 -6.175,-1.096 -3.125,1.296c20.937,4.087 42.483,8.042 63.821,9.804c2.375,0.775 3.916,0.963 4.425,1.521c2.154,-0.154 8.07,0.283 10.045,-0.354c-0.72,0.004 1.355,0.716 2.484,0.816c3.896,0.605 4.296,-1.345 8.554,-0.65c-1.704,0.325 -2.288,0.734 -1.729,1.246c3.675,-0.962 8.546,-0.908 12.854,-1.25c-0.667,0.234 -1.708,0.371 -1.538,0.788c4.692,-1.229 8.621,-0.063 12.725,-0.946l-1.508,0.833c6.717,0.625 1.871,-1.704 7.646,-1.546c-1.363,0.35 -0.854,0.613 -1.083,0.942c5.266,-1.7 13.912,-2.171 19.175,-3.275c-0.305,0.142 -0.196,0.338 -0.196,0.338c5.733,-1.021 11.854,-1.367 18.021,-3.242c2.354,-0.092 -0.4,1.987 5.629,0.567c-0.529,-1.446 10.083,-2.946 6.146,-3.842c5.195,-0.796 13.341,-2.571 16.57,-3.992c-2.095,1.259 3,1.079 -1.17,2.446c1.162,0.029 2.295,-0.033 3.45,-0.062c-0.288,0.766 -3.338,0.812 -2.1,1.266c2.108,-0.716 8.062,-3.246 10.02,-3.6c3.559,-2.275 6.505,-5.125 12.513,-7.721c-2.629,1.746 2.258,0.905 0.412,1.963l7.317,-6.25c1.933,-0.992 0.929,0.912 3.613,-0.8c-0.321,-0.3 0.812,-1.113 1.533,-1.821c0.408,-0.096 2.404,-1.146 4.492,-2.046c2.045,-0.987 4.166,-1.862 4.945,-1.408c1.13,0.079 -2.991,1.958 -0.604,1.3c3.55,-1.938 3.496,-2.408 6.988,-4.417l0.166,0.138c2.405,-1.184 6.392,-4.592 3.475,-3.825c-1.604,0.904 1.071,0.425 -1.491,1.45c1.129,-1.759 5.058,-4.221 8.296,-6.554c-0.992,0.966 -0.634,1.212 -0.855,1.883c1.905,-2.008 3.971,-3.879 6.146,-5.713c2.109,-1.912 4.267,-3.866 6.484,-5.875c-0.367,-0.629 -0.959,2.384 -1.9,2.613c3.416,-1.854 6.241,-4.683 8.895,-7.4c2.755,-2.621 5.121,-5.354 7.934,-7.029c-0.663,0.816 -1.121,-0.346 -0.929,-0.25c2.683,-2.5 3.395,-1.575 4.72,-3.634c0.605,0.25 1.9,-2.362 3.421,-4.3c0.525,-1.229 0.659,-0.27 -0.746,1.359c2.192,-2.725 9.938,-13.992 15.034,-20.075c-0.346,-0.059 1.279,-4.942 2.262,-6.434l0.45,1.096c1.346,-1.125 3.117,-5.216 3.888,-5.133c1.087,-3.875 -6.859,13.362 -4.909,8.392c1.392,-0.755 2.509,-7.038 3.038,-5.405c1.933,-3.129 2.408,-6.862 4.871,-9.512c-0.6,0.825 -0.196,3.237 1.116,0.567c2.213,-4.734 0.263,-1.525 1.725,-5.505l0.7,-2.587c-0.779,-0.525 1.971,-4.2 0.242,-2.829c1.104,-0.246 2.2,-7.2 3.479,-6.167l0.896,1.096c0.679,-2.167 0.042,-3.913 0.129,-5.738c0.204,-0.237 0.638,-0.72 0.784,-0.554c-1.617,-0.883 1.625,-5.121 0.987,-8.071c2.067,-4.312 2.667,-11.608 4.375,-13.541c0.096,-3.684 -0.154,-7.063 0.883,-11.092c0.05,0.838 -0.066,1.967 0.296,2.25c0.917,-2.504 0.592,-3.204 0.475,-5.604c0.225,0.567 1.554,-5.067 2.479,-7.933c-0.308,-3.667 -1.437,-2.471 -2.012,-2.867c1.917,-3.242 -0.746,-10.158 0.642,-14.267c0.287,1.234 1.045,5.254 1.42,2.242c1.646,-3.379 -1.333,-6.654 -1.05,-11.983l-1.4,1.416c0.725,-2.433 -1.566,-7.658 0.021,-7.287c-0.733,-1.692 -0.425,-6.254 -1.783,-5.459c0.096,-4.404 -1.271,-9.533 -2.313,-14.27c-1.241,-4.696 -2.283,-8.996 -1.829,-11.967c-0.65,-1.104 -1.437,-4.142 -1.95,-3.288c-0.1,2.221 1.517,2.55 1.238,3.459c-0.413,-1.046 -0.879,-1.15 -1.113,-1.196c-0.566,-2.65 -1.171,-4.717 0.838,-2.692c-1.092,-6.087 -4.471,-4.991 -6.859,-12.229c0.671,0.083 0.742,-0.583 -0.325,-2.567l-2.812,-3.362c-1.946,-4.538 0.004,-3.154 0.883,-3.733c-1.291,-2.338 -2.983,-5.15 -4.212,-5.838l-0.459,-3.479c0.342,2.542 -1.587,-1.613 -2.55,-2.496l0.896,0.925c0.104,-0.646 -1.791,-3.108 -2.741,-4.35c-0.342,0.658 1.129,3.442 1.895,4.979c-1.125,-0.904 -2.17,-2.737 -3.587,-3.95c1.154,-0.037 -1.654,-4.083 -2.883,-5.8c-1.238,-2.096 -2.338,-1.683 -2.721,-2.275c0.391,-0.362 -2.234,-3.25 -0.538,-2.162c0.621,0.571 0.688,1.833 1.863,2.666c-0.613,-1.52 0.233,-1.92 -2.246,-4.216c-1.913,-1.688 -1.183,1.704 -3.621,-2.375c0.979,0.812 1.442,0.737 2.333,1.262l-2.375,-3.787l-0.837,0.433c-0.196,-0.612 0.125,-0.342 0.05,-0.637c-0.792,-0.205 -1.913,-1.475 -3.017,-2.7c-1.166,-1.18 -2.325,-2.309 -3.066,-2.317c-1.563,-1.592 -2.638,-3.942 -4.017,-5.583l0.346,0.237c-1.442,-2.233 -4.154,-4.467 -6.134,-5.575l0.225,-0.062c-0.908,-1.109 -3.516,-3.267 -5.2,-4.067c-2.179,-2.95 1.459,-3.417 -2.279,-5.263c-2.821,-2.391 -5.521,-2.416 -4.758,-1.025c-4.604,-4.775 -11.442,-8.091 -15.575,-12.775c-0.996,-0.233 -0.642,0.3 -2.367,-0.633c-7.679,-5.929 -17.687,-10.062 -23.525,-15.392c2.667,0.988 0.621,-0.733 0.813,-1.216c-2.459,-0.354 -2.075,-2.063 -3.488,-1.196c-0.187,0.85 -0.579,1.104 1.671,2.667c-2.667,-1.134 -5.917,-2.75 -8.85,-4.284c-2.975,-1.462 -5.592,-2.925 -6.879,-3.971c1.287,1.046 0.054,0.742 -1.188,0.43c0.963,-1.071 -2.862,-3.009 -6.029,-3.825l-0.741,0.57l-1.596,-1.6c-1.254,-0.233 -1.896,0.988 -4.571,-0.908c-0.033,-0.35 -0.088,-0.712 -0.55,-1.142c-3.392,-0.55 -8.096,-1.316 -11.3,-3.087l-2.408,-2.092c-1.513,-0.383 -4.196,-0.554 -1.738,0.659c-5.575,-2.775 -9.437,-3.83 -11,-5.455c-10.942,-0.712 -25.854,-4.27 -38.012,-6.616l0.466,-0.529c-3.179,-1.084 -1.887,0.795 -4.104,0.037c1.167,-0.421 -2.3,-1.604 0.408,-1.937c-4.62,-1.313 -6.245,0.17 -9.337,0.004c-0.575,0.725 2.529,-0.154 1.792,0.766c-0.559,0.209 -6.413,-1.554 -7.292,-0.454c-1.117,-0.641 -0.1,-1.396 0.6,-1.791l-2.95,0.17c-3.379,-1.92 8.35,-1.354 4.867,-3.62l-2.713,-0.196c-2.421,-1.629 7.3,-0.4 0.588,-1.8c-3.017,0.166 -5.696,1.558 -3.155,2.462c-6.116,-0.304 -3.112,2.625 -9.595,2.034c-1.725,-0.834 5.216,0.183 4.058,-0.896c-2.996,-1.184 -6.217,0.125 -8.913,-0.404c3,0.662 0.355,1.712 -1.6,1.8c-3.27,-0.8 2.205,-1 -2.466,-1.446c-0.813,0.646 -5.117,0.875 -1.429,1.616c-0.875,0.734 -2.075,0.542 -3.388,0.296c-1.308,-0.179 -2.729,-0.325 -4,0.296c-1.517,-1.092 4.858,-2.646 -0.287,-3.133c0.795,1.066 -6.346,1.546 -3.63,3.108c-2,-0.283 -2.225,-1.129 -0.762,-1.808c-2.904,-0.621 -6.913,2.054 -7.929,-0.067l-0.942,1.108c-0.929,-0.287 -2.187,-0.675 -3.712,-1.15c-2.534,0.242 -7.971,2.309 -7.896,0.634c-0.792,0.254 -6.542,0.754 -4.196,1.675c3.625,0.337 4.008,-1.25 6.125,0.1c-2.617,-1.009 -5.1,0.679 -7.088,1.304l-0.408,-0.604c-1.187,0.371 -4.017,0.516 -4.675,1.275c0.875,-0.454 0.333,-0.842 -0.662,-0.896c-0.384,0.346 -0.75,0.762 -1.121,1.167c-4.771,1.445 -1.413,-1.467 -6.117,-0.246l3.488,-1.463c-0.763,0.317 -2.546,-0.258 -4.784,0.492c-0.729,1.054 -2.175,2.425 -2.787,3.254c-2.575,0.9 -1.409,-0.75 -3.829,0.658l3.212,-1.725c0.463,-0.387 -2.637,-0.979 -6.242,-0.25c-2.25,0.713 -5.308,3.2 -1.704,2.546c-1.733,0.542 -4.316,0.759 -3.1,-0.287c-3.875,1.491 0.763,0.766 -2.483,2.329c-1.546,-0.15 -6.129,0.35 -9.054,0.329l3.133,-2.5l-2.408,0.713c2.75,-2.08 -1.871,-0.388 -0.509,-2.113c-1.704,0.358 -3.637,1.221 -5.041,2.221c5.316,-0.004 -4.234,4.737 -2.188,5.904c-6,3.058 -5.671,-2.475 -11.058,2.9c1.271,-0.012 -1.204,2.538 2.5,0.417c-3.967,1.437 -1.892,2.654 -6.521,4.366c2.875,-2.45 -4.312,0.246 -0.142,-3.304c-0.025,0.754 2.775,-1.104 3.513,-1.471c-1.904,0.08 -0.525,-1.945 -4.367,0.163c-2.262,1.446 -5.454,3.237 -4.529,3.825c0.6,0.871 3.496,-2.054 2.508,-0.292c-4.425,2.85 -6.004,1.888 -6.97,4.546c2.837,-1.717 4.091,-1.171 4.391,-0.512l-3.121,2.212l0.292,-0.958c-5.583,2.583 -1.058,1.741 -6.012,4.937l-3.038,0.434c0.479,-1.859 7.408,-4.455 5.575,-5.417c-3.412,1.896 -3.804,3.658 -7.125,5.275c0.575,-0.608 1.463,-1.283 2.033,-1.892c-1.166,0.734 -3.783,-0.571 -7.516,3.859c-2.021,2.12 -0.213,0.991 0.158,1.616c-1.25,0.934 -2.254,1.738 -3.108,2.454c-0.813,0.771 -1.429,1.513 -2.025,2.163c-1.179,1.321 -2.15,2.446 -3.629,3.8c-0.292,-1.621 -5.459,4.537 -3.055,0.542c1.055,-0.359 3.271,-2.03 5.325,-3.921c1.03,-0.95 2.021,-1.959 2.809,-2.884c0.862,-0.833 1.516,-1.595 1.771,-2.183c-2.888,-0.037 4.191,-2.629 4.325,-4.796c-4.192,2.875 -4.98,1.404 -6.305,1.013c-1.22,0.766 -2.1,1.9 -2.67,2.554c0.145,1.162 1.625,0.033 2.362,0.829c-4.617,3.313 -8.3,7.488 -10.017,10.204c-1.766,0.859 -2.008,-0.275 -0.366,-1.821c-5.154,4.409 -9.859,9.934 -14.6,14.321c4.083,-1.904 -4.629,5.467 -1.642,4.317c2.642,-2.25 5.517,-3.571 4.792,-1.713c-1.538,1.467 -0.496,-0.537 -1.371,-0.129c-1.171,2.554 -4.05,2.067 -4.533,5.154c3.358,-5.175 -0.8,-2.25 -1.117,-3.991c-2.188,4.016 -0.592,-0.75 -3.317,2.762c-2.196,4.013 -5.104,8.679 -7.904,12.759c-4.337,4.583 -8.621,13.254 -11.396,18.045c-1.929,2.259 -2.291,-0.225 -4,2.48c-1.716,3.32 2.684,-1.688 -0.487,2.883l-0.009,-0.608c-0.47,1.625 -5.629,8.537 -4.491,10.912l-0.638,-2.212c-0.612,0.85 -0.729,1.862 -0.975,2.691c-0.487,-0.191 -1.479,0.675 -0.996,-0.966c-2.525,2.604 -2.745,6.683 -4.216,10.095l1.812,-1.816c-1.783,6.162 -4.516,9.637 -6.391,15.516l-0.809,-0.504l-0.687,3.659c-0.546,-1.159 -2.2,1.833 -2.134,3.925l1.034,-9.846c1.454,-2.296 0.046,3.137 1.487,1.9c1.1,-1.092 3.271,-6.367 2.775,-7.579c-0.966,1.975 -0.821,2.154 -1.183,3.837c-1.483,0.188 -0.117,-2.854 -0.254,-4.704c-0.409,1.079 -1.421,2.446 -1.142,2.821c0.313,-2.313 1.133,-4.463 2.608,-7.959c-0.558,2.559 1.28,-0.962 1.234,0.08c-0.921,-0.73 0.196,-4.2 2.337,-8.367c2.554,-2.471 3.296,-8.179 6.121,-12.863c-0.017,2.496 -0.508,5.396 -1.621,8.505c2.092,-2.73 1.729,-3.35 3.821,-6.075c0.004,-1.846 -0.6,-3.513 1.021,-7.705l0.85,0.209c1.471,-3.788 0.629,-4.3 3.537,-8.563c2.555,-3.608 5.05,-7.316 7.375,-10.825c2.53,-3.362 5.05,-6.416 7.134,-9.058l0.816,0.321c0.434,-2.034 2.225,-4.609 4.209,-7.229c2.121,-2.513 4.625,-4.9 6.041,-7.03c3.317,-2.787 6.163,-6.533 9.225,-9.341c3.055,-2.809 5.784,-5.221 7.921,-6.109c11.05,-10.4 22.234,-17.979 36.35,-25.058l-1.771,2.375c2.084,-2.121 1.867,-0.35 4.292,-1.629c-3.346,0.337 2.975,-2.629 4.492,-4.083c3.437,-0.921 7.116,-2.488 10.646,-4.23c3.6,-1.537 7.15,-2.979 10.016,-4.333l0.475,0.738c2.8,-1.634 6.1,-2.813 9.692,-3.517c3.637,-0.538 7.496,-0.879 11.362,-1.508c0.955,0.17 2.48,0.683 4.742,0.137c3.929,-2.304 6.208,-2.092 12.317,-3.671c4.55,-0.425 11.954,-1.041 16.596,-0.329c8.516,-1.067 17.237,-1.571 25.945,-0.762c4.367,0.258 8.755,0.52 13.159,0.783c4.371,0.546 8.766,1.037 13.216,1.383l1.125,1.167c17.475,0.129 37.721,7.175 52.03,10.571l-1.863,1.208c4.254,1.771 10.104,2.829 9.392,1.308c2.104,1.009 4.908,1.746 7.471,2.546c2.533,0.879 4.837,1.788 5.954,2.967c4.308,1.971 5.687,1.383 9.404,2.746c4.267,2.121 7.183,3.571 10.037,4.991c2.867,1.409 5.788,2.53 9.809,4.53l-1.921,-1.125c-1.046,-0.13 -1.442,0.479 0.483,1.608c3.184,1.104 10.621,6.146 8.675,2.787c7.771,5.68 19.821,10.617 26.513,17.438c-0.338,-0.892 1.687,0.329 2.691,0.654c6.834,5.042 13.021,11.483 18.642,15.333c0.808,1.117 -2.208,-0.75 0.288,1.621c1.645,1.221 0.52,-0.5 2.583,0.967c10.858,8.629 18.737,20.683 26.275,30.579c14.179,17.267 24.071,39.042 29.725,59.717l-0.458,-0.129c3.516,6.587 2.2,16.695 5.258,21.987c-0.046,1.729 0.629,6.471 -0.296,5.3c1.717,5.608 0.283,15.954 1.383,24.158c0.063,-0.754 -0.008,-1.191 -0.158,-2.066c-1.046,8.266 -0.312,15.666 -2.25,24.254c-0.05,-0.9 0.083,-2.504 -0.312,-2.808c-1.234,3.204 0.525,8.137 -1.684,9.658c-0.266,1.904 0.767,1.525 0.888,0.337c-3.675,18.75 -9.234,38.717 -18.509,56.688c-8.362,11.804 -3.25,-0.913 -7.854,9.525c-0.825,0.554 0.25,0.962 -0.175,0.871c-2.075,3.9 -5.696,4.283 -6.596,7.346c1.717,-0.275 -0.65,2.02 -0.166,2.508c-3.059,3.171 -5.063,4.908 -6.75,6.592c-1.8,1.6 -3.279,3.141 -5.267,5.983l-0.112,-0.813c-4.15,7.192 -11.792,12.717 -15.738,18.663c-17.308,14.258 -36.408,25.396 -56.392,33.821c-19.979,8.454 -40.841,14.283 -62.183,17.825c-21.162,3.125 -42.292,4.625 -63.475,4.062c-21.167,-0.441 -42.429,-2.929 -63.475,-7.725c-4.8,-1.733 -7.333,-2.841 -10.079,-3.541c-2.742,-0.713 -5.663,-1.188 -11.113,-2.288c0.5,-0.15 1.192,-0.033 0.538,-0.467c-0.888,1.196 -7.596,-1.825 -8.954,-0.933c-15.292,-4.675 -29.384,-9.3 -44.463,-16.308c2.446,0.979 4.096,0.516 1.242,-0.717l-3.325,-0.592l-0.317,-0.566c-2.025,-0.688 -4.383,-1.213 -2.616,0.212c-9.505,-4.437 -18.642,-9.666 -27.292,-15.633c-8.592,-6.058 -16.621,-12.929 -23.963,-20.458c-14.633,-15.13 -26.104,-33.242 -33.55,-52.775c-3.066,-9.446 -6.975,-22.984 -8.525,-33.646c-1.05,-15.917 0.155,-30.871 2.388,-45.529c2.262,-14.671 5.571,-29.096 9.567,-44.263c-0,0 0.558,1.25 0.779,4.054c0.296,2.829 -0.071,7.1 -1.088,13.421" style="fill:#aca88e;fill-rule:nonzero;"/><path d="M286.364,174.294c4.958,-0.029 8.954,-4.075 8.925,-9.034c-0.033,-4.958 -4.075,-8.954 -9.033,-8.925c-4.963,0.03 -8.955,4.075 -8.925,9.034c0.033,4.958 4.075,8.954 9.033,8.925" style="fill:#4e6b5f;fill-rule:nonzero;"/><path d="M296.134,145.1c2.321,-0.012 4.192,-1.908 4.18,-4.229c-0.017,-2.321 -1.909,-4.191 -4.23,-4.179c-2.325,0.013 -4.195,1.908 -4.183,4.229c0.017,2.321 1.913,4.192 4.233,4.179" style="fill:#4e6b5f;fill-rule:nonzero;"/><path d="M191.593,143.969c-4.434,0.029 -8.004,3.642 -7.975,8.075c0.025,4.434 3.641,8.004 8.075,7.979c4.433,-0.029 8,-3.641 7.975,-8.079c-0.029,-4.429 -3.642,-8 -8.075,-7.975" style="fill:#4e6b5f;fill-rule:nonzero;"/><path d="M168.95,170.162c-2.654,0.016 -4.796,2.183 -4.779,4.841c0.016,2.655 2.183,4.796 4.837,4.775c2.654,-0.016 4.796,-2.179 4.779,-4.837c-0.016,-2.654 -2.183,-4.792 -4.837,-4.779" style="fill:#4e6b5f;fill-rule:nonzero;"/><path d="M208.543,252.217c-0.184,1.275 -0.284,2.575 -0.284,3.9c0,11.558 7.171,21.471 17.292,25.538c0.446,-1.005 0.821,-2.05 1.113,-3.134c0.254,-0.954 0.437,-1.916 0.558,-2.879c-7.508,-3.304 -12.767,-10.808 -12.767,-19.525c0,-0.792 0.046,-1.571 0.134,-2.337c-1.909,-0.813 -3.946,-1.342 -6.046,-1.563" style="fill:#4e6b5f;fill-rule:nonzero;"/><path d="M223.163,238.94c3.537,-2.604 7.9,-4.146 12.616,-4.146c4.721,0 9.084,1.542 12.617,4.146c1.671,-1.258 3.142,-2.762 4.371,-4.45c-4.683,-3.683 -10.579,-5.892 -16.988,-5.892c-6.404,0 -12.304,2.209 -16.983,5.892c1.229,1.688 2.7,3.192 4.367,4.45" style="fill:#4e6b5f;fill-rule:nonzero;"/><path d="M244.348,275.638c0.258,2.075 0.825,4.1 1.675,6.013c10.112,-4.071 17.275,-13.979 17.275,-25.533c-0,-1.325 -0.1,-2.625 -0.279,-3.9c-2.1,0.22 -4.138,0.75 -6.046,1.562c0.083,0.767 0.129,1.546 0.129,2.338c-0,8.712 -5.25,16.212 -12.754,19.52" style="fill:#4e6b5f;fill-rule:nonzero;"/><path d="M307.228,310.015l-142.896,0c-6.354,-11.775 -9.688,-24.941 -9.688,-38.466c0,-21.675 8.442,-42.046 23.767,-57.371c15.325,-15.325 35.7,-23.763 57.371,-23.763c21.671,0 42.046,8.438 57.367,23.763c15.325,15.325 23.766,35.696 23.766,57.371c0,13.525 -3.333,26.691 -9.687,38.466m-46.234,-129.104l0,-35.241c-0.212,0.008 -0.42,0.016 -0.633,0.016l-49.162,0c-0.213,0 -0.421,-0.008 -0.63,-0.016l0,35.241c-39.704,11.021 -68.85,47.421 -68.85,90.638c0,18.966 5.621,36.621 15.28,51.396l157.566,-0c9.659,-14.775 15.275,-32.43 15.275,-51.396c0,-43.217 -29.141,-79.617 -68.846,-90.638" style="fill:#4e6b5f;fill-rule:nonzero;"/><path d="M215.755,140.983l40.05,-0c8.221,-0 14.884,-6.667 14.884,-14.883l-0,-6.259c-0,-8.221 -6.663,-14.883 -14.884,-14.883l-40.05,-0c-8.221,-0 -14.883,6.662 -14.883,14.883l-0,6.259c-0,8.216 6.662,14.883 14.883,14.883" style="fill:#4e6b5f;fill-rule:nonzero;"/></g></svg>