<?xml version="1.0" encoding="UTF-8" standalone="no"?><!DOCTYPE svg PUBLIC "-//W3C//DTD SVG 1.1//EN" "http://www.w3.org/Graphics/SVG/1.1/DTD/svg11.dtd"><svg width="100%" height="100%" viewBox="0 0 488 581" version="1.1" xmlns="http://www.w3.org/2000/svg" xmlns:xlink="http://www.w3.org/1999/xlink" xml:space="preserve" xmlns:serif="http://www.serif.com/" style="fill-rule:evenodd;clip-rule:evenodd;stroke-linejoin:round;stroke-miterlimit:2;"><g><g transform="matrix(4.16667,0,0,4.16667,-3021.87,-4476.43)"><text x="760.557px" y="1200.2px" style="font-family:'LucidaGrande', 'Lucida Grande', sans-serif;font-weight:500;font-size:11.09px;fill:#a09b7e;">A<tspan x="767.959px 774.592px 779.995px 783.894px 788.182px 794.057px 797.013px 799.969px " y="1200.2px 1200.2px 1200.2px 1200.2px 1200.2px 1200.2px 1200.2px 1200.2px ">ustralia</tspan></text><text x="768.664px" y="1213.51px" style="font-family:'LucidaGrande', 'Lucida Grande', sans-serif;font-weight:500;font-size:11.09px;fill:#a09b7e;">M<tspan x="778.33px 784.569px 791.663px " y="1213.51px 1213.51px 1213.51px ">ade</tspan></text></g><path d="M450.633,307.76c-72.292,105.275 -171.988,132.321 -285.417,73.646c-113.429,-58.675 -184.021,-172.696 -125.35,-286.125c58.675,-113.429 207.929,-113.733 321.362,-55.054c113.43,58.675 168.55,152.271 89.405,267.533" style="fill:#fff;fill-rule:nonzero;"/><path d="M472,193.966c-0.487,-4.133 -0.404,-8.504 -0.533,-13.071c-0.021,-2.283 0.021,-4.604 0.092,-6.954c-0.025,-2.354 -0.046,-4.733 -0.067,-7.129c0.008,-9.567 -0.792,-19.413 -3.304,-27.958c-0.538,-2.009 1.817,0.22 0.487,-4.33c-2.895,-8.216 -5.991,-18.779 -10.404,-29.429c-4.291,-10.679 -9.829,-21.437 -15.65,-30.362l1.184,0.712c-1.121,-1.7 -2.742,-3.3 -4.434,-4.841c-1.779,-1.475 -3.575,-2.942 -4.916,-4.6c0.212,-0.25 1.254,0.7 0.916,-0.342c-1.341,-0.225 -5.758,-5.196 -7.562,-5.921c-0.959,-1.442 -0.259,-1.958 -1.654,-3.692l-2.605,-0.75c-6.675,-2.495 -12.808,-10.354 -21.425,-14.083c0.517,0 1.409,0.288 0.909,-0.296c-13.429,-6.346 -30.092,-14.171 -46.042,-18.316c0.746,-0.196 1.546,-0.717 0.75,-1.413c-1.142,0.921 -6.071,-0.296 -10.371,-1.2c-1.641,-1.596 -7.55,-0.879 -12.446,-2.508l0.488,-0.175c-3.988,0.483 -5.388,-1.909 -8.713,-0.967l-2.208,-1.342c-1.942,1.421 -5.283,-1.841 -8.55,-1.433l0.05,0.363c-3,0.016 -4.412,-1.038 -7.183,-1.125l-0.234,-0.23c-6.454,-0.37 -10.104,-1.575 -10.075,-0.27c-2.15,-1.292 6.271,0.145 2.896,-1.759c-21.316,-0.871 -43.212,-1.516 -64.571,-0.029c-2.462,-0.408 -4.016,-0.362 -4.604,-0.837c-2.104,0.483 -8.021,0.945 -9.875,1.875c0.709,-0.117 -1.446,-0.505 -2.579,-0.434c-3.942,-0.008 -4.042,1.979 -8.358,1.934c1.637,-0.58 2.154,-1.067 1.521,-1.492c-3.484,1.508 -8.309,2.192 -12.517,3.179c0.625,-0.325 1.633,-0.621 1.4,-1.008c-4.45,1.925 -8.508,1.366 -12.433,2.862l1.366,-1.054c-6.737,0.4 -1.591,1.967 -7.325,2.683c1.292,-0.55 0.75,-0.733 0.925,-1.095c-4.946,2.479 -13.421,4.254 -18.454,6.141c0.279,-0.187 0.142,-0.366 0.142,-0.366c-5.517,1.879 -11.513,3.145 -17.325,5.937c-2.313,0.446 0.096,-2.029 -5.65,0.288c0.741,1.35 -9.521,4.437 -5.496,4.725c-5.013,1.575 -12.796,4.562 -15.775,6.454c1.883,-1.559 -3.129,-0.613 0.787,-2.592c-1.15,0.146 -2.266,0.383 -3.4,0.583c0.167,-0.8 3.18,-1.304 1.884,-1.57c-1.975,1.029 -7.475,4.429 -9.363,5.075c-3.171,2.787 -5.65,6.05 -11.2,9.529c2.338,-2.125 -2.371,-0.554 -0.704,-1.879l-6.287,7.283c-1.759,1.275 -1.055,-0.763 -3.446,1.337c0.362,0.25 -0.634,1.225 -1.246,2.034c-0.383,0.154 -2.2,1.491 -4.125,2.7c-1.871,1.283 -3.838,2.471 -4.675,2.141c-1.129,0.092 2.658,-2.391 0.4,-1.375c-3.217,2.45 -3.092,2.905 -6.242,5.421l-0.183,-0.112c-2.2,1.533 -5.621,5.508 -2.858,4.308c1.45,-1.137 -1.125,-0.254 1.258,-1.658c-0.854,1.908 -4.363,4.937 -7.213,7.733c0.834,-1.104 0.446,-1.296 0.563,-1.992c-1.583,2.275 -3.342,4.438 -5.213,6.58c-1.795,2.208 -3.633,4.466 -5.52,6.787c0.462,0.563 0.587,-2.5 1.483,-2.871c-3.096,2.35 -5.458,5.575 -7.671,8.663c-2.329,3.004 -4.254,6.066 -6.779,8.146c0.529,-0.905 1.162,0.175 0.954,0.108c-2.271,2.875 -3.117,2.071 -4.112,4.304c-0.638,-0.158 -1.521,2.625 -2.734,4.767c-0.333,1.3 -0.612,0.371 0.529,-1.454c-1.75,3.025 -7.704,15.333 -11.82,22.116c0.35,0.009 -0.517,5.079 -1.263,6.704l-0.612,-1.016c-1.159,1.316 -2.292,5.629 -3.063,5.666c-0.492,3.992 4.758,-14.245 3.579,-9.041c-1.262,0.958 -1.416,7.337 -2.183,5.804c-1.438,3.383 -1.342,7.146 -3.379,10.142c0.471,-0.909 -0.292,-3.23 -1.188,-0.396c-1.471,5.016 -0.029,1.55 -0.871,5.704l-0.304,2.658c0.854,0.404 -1.312,4.454 0.192,2.842c-1.054,0.408 -1.083,7.45 -2.504,6.617l-1.05,-0.946c-0.346,2.246 0.546,3.875 0.741,5.691c-0.17,0.267 -0.52,0.809 -0.695,0.667c1.733,0.629 -0.83,5.308 0.245,8.125c-1.387,4.575 -0.875,11.883 -2.27,14.05c0.458,3.654 1.216,6.954 0.8,11.096c-0.171,-0.821 -0.23,-1.954 -0.63,-2.179c-0.529,2.616 -0.1,3.258 0.375,5.612c-0.308,-0.525 -0.766,5.246 -1.245,8.221c0.854,3.571 1.791,2.221 2.416,2.525c-1.404,3.492 2.275,9.929 1.529,14.2c-0.47,-1.175 -1.829,-5.037 -1.745,-2c-1.117,3.588 2.329,6.375 2.854,11.683l1.166,-1.608c-0.35,2.513 2.709,7.329 1.084,7.204c0.983,1.563 1.366,6.121 2.587,5.125c0.571,4.367 2.7,9.234 4.446,13.759c1.938,4.454 3.621,8.55 3.621,11.55c0.808,0.995 2.046,3.879 2.421,2.954c-0.238,-2.209 -1.884,-2.288 -1.742,-3.229c0.567,0.97 1.042,1.004 1.275,1.012c0.963,2.538 1.871,4.488 -0.417,2.792c2,5.846 5.175,4.254 8.63,11.05c-0.675,0.016 -0.646,0.687 0.708,2.483l3.292,2.9c2.612,4.192 0.47,3.121 -0.309,3.821c1.629,2.121 3.729,4.642 5.046,5.137l0.979,3.367c-0.725,-2.458 1.813,1.358 2.9,2.083l-1.025,-0.779c-0.008,0.654 2.242,2.8 3.367,3.884c0.237,-0.7 -1.638,-3.23 -2.625,-4.634c1.246,0.725 2.558,2.379 4.142,3.363c-1.134,0.212 2.254,3.787 3.729,5.3c1.541,1.883 2.562,1.308 3.033,1.833c-0.337,0.417 2.696,2.875 0.854,2.054c-0.696,-0.466 -0.954,-1.704 -2.241,-2.354c0.837,1.413 0.062,1.938 2.858,3.829c2.146,1.379 0.912,-1.862 3.942,1.8c-1.092,-0.654 -1.538,-0.512 -2.5,-0.896l2.92,3.388l0.763,-0.558c0.283,0.579 -0.075,0.358 0.046,0.637c0.816,0.088 2.112,1.171 3.387,2.217c1.334,0.987 2.65,1.929 3.388,1.825c1.783,1.337 3.2,3.5 4.812,4.912l-0.379,-0.183c1.767,1.992 4.788,3.783 6.908,4.583l-0.212,0.092c1.062,0.958 3.971,2.7 5.754,3.237c2.6,2.588 -0.925,3.596 3.046,4.855c3.154,1.941 5.825,1.554 4.862,0.295c5.275,4.021 12.538,6.267 17.33,10.271c1.016,0.079 0.587,-0.391 2.433,0.263c8.492,4.704 19.004,7.271 25.583,11.658c-2.787,-0.571 -0.5,0.817 -0.616,1.329c2.479,-0.025 2.362,1.725 3.625,0.65c0.058,-0.866 0.408,-1.175 -2.055,-2.383c2.809,0.717 6.267,1.825 9.4,2.896c3.159,0.996 5.971,2.046 7.396,2.883c-1.425,-0.833 -0.166,-0.725 1.113,-0.6c-0.792,1.2 3.283,2.542 6.537,2.867l0.646,-0.675l1.821,1.337c1.275,0.042 1.721,-1.262 4.654,0.209c0.088,0.337 0.196,0.691 0.721,1.045c3.433,0.03 8.2,0.075 11.633,1.338l2.7,1.704c1.55,0.154 4.229,-0.083 1.617,-0.912c5.929,1.9 9.908,2.358 11.7,3.729c10.921,-0.954 26.2,0.312 38.571,0.787l-0.379,0.592c3.308,0.592 1.745,-1.067 4.05,-0.654c-1.088,0.587 2.516,1.237 -0.109,1.975c4.767,0.6 6.15,-1.113 9.229,-1.421c0.459,-0.8 -2.475,0.537 -1.887,-0.483c0.521,-0.292 6.575,0.566 7.279,-0.655c1.2,0.463 0.308,1.367 -0.325,1.863l2.888,-0.613c3.633,1.384 -8.046,2.6 -4.259,4.313l2.709,-0.217c2.641,1.246 -7.155,1.5 -0.309,1.867c2.959,-0.621 5.396,-2.4 2.746,-2.913c6.092,-0.62 2.679,-3.062 9.179,-3.458c1.829,0.558 -5.187,0.608 -3.875,1.5c3.138,0.713 6.125,-1.062 8.871,-0.95c-3.067,-0.204 -0.612,-1.637 1.308,-2.021c3.355,0.292 -2.029,1.321 2.659,1.054c0.704,-0.762 4.921,-1.637 1.166,-1.812c0.755,-0.858 1.971,-0.85 3.305,-0.804c1.32,-0.025 2.745,-0.092 3.908,-0.9c1.667,0.85 -4.4,3.35 0.754,3.054c-0.942,-0.938 6.042,-2.492 3.121,-3.621c2.021,-0.021 2.371,0.779 1.025,1.671c2.967,0.175 6.525,-3.075 7.85,-1.133l0.762,-1.242c0.963,0.146 2.267,0.342 3.842,0.575c2.471,-0.621 7.533,-3.488 7.708,-1.817c0.75,-0.371 6.355,-1.737 3.9,-2.291c-3.633,0.212 -3.779,1.841 -6.07,0.829c2.737,0.6 4.937,-1.446 6.808,-2.363l0.496,0.534c1.116,-0.546 3.891,-1.113 4.429,-1.967c-0.8,0.583 -0.208,0.883 0.787,0.787c0.325,-0.404 0.63,-0.87 0.93,-1.325c4.5,-2.15 1.62,1.238 6.087,-0.679l-3.229,1.971c0.708,-0.429 2.558,-0.129 4.658,-1.208c0.559,-1.154 1.784,-2.729 2.263,-3.638c2.408,-1.283 1.504,0.525 3.683,-1.233l-2.912,2.192c-0.4,0.454 2.754,0.57 6.208,-0.696c2.112,-1.046 4.762,-3.967 1.296,-2.775c1.633,-0.8 4.154,-1.404 3.108,-0.184c3.604,-2.066 -0.871,-0.645 2.1,-2.679c1.554,-0.087 6.008,-1.275 8.904,-1.696l-2.721,2.946l2.275,-1.071c-2.404,2.471 1.909,0.105 0.821,2.013c1.634,-0.613 3.409,-1.758 4.65,-2.958c-5.258,0.804 3.463,-5.325 1.267,-6.167c5.467,-3.933 5.979,1.587 10.492,-4.538c-1.255,0.205 0.808,-2.691 -2.534,-0.037c3.704,-2.021 1.467,-2.913 5.784,-5.3c-2.471,2.854 4.225,-0.896 0.641,3.242c-0.091,-0.746 -2.575,1.512 -3.25,1.983c1.867,-0.367 0.813,1.846 4.292,-0.817c2.017,-1.771 4.9,-4.029 3.9,-4.466c-0.729,-0.771 -3.146,2.558 -2.438,0.666c3.942,-3.487 5.65,-2.775 6.205,-5.55c-2.546,2.129 -3.871,1.779 -4.267,1.171l2.754,-2.658l-0.146,0.991c5.125,-3.4 0.784,-1.883 5.196,-5.791l2.938,-0.888c-0.192,1.913 -6.65,5.525 -4.692,6.2c3.087,-2.391 3.208,-4.191 6.246,-6.291c-0.479,0.683 -1.254,1.487 -1.721,2.175c1.042,-0.905 3.821,-0.009 6.842,-4.95c1.679,-2.4 0.062,-1.013 -0.4,-1.575c1.095,-1.113 1.966,-2.059 2.7,-2.896c0.687,-0.884 1.183,-1.709 1.675,-2.442c0.966,-1.487 1.754,-2.746 3.012,-4.308c0.533,1.558 4.708,-5.313 2.938,-1c-0.988,0.516 -2.925,2.5 -4.671,4.687c-0.875,1.092 -1.7,2.238 -2.342,3.275c-0.725,0.95 -1.254,1.804 -1.417,2.425c2.859,-0.404 -3.745,3.229 -3.55,5.392c3.709,-3.475 4.709,-2.142 6.08,-1.954c1.087,-0.942 1.787,-2.196 2.25,-2.929c-0.317,-1.125 -1.609,0.212 -2.463,-0.459c4.067,-3.975 7.075,-8.658 8.363,-11.608c1.612,-1.117 2.025,-0.029 0.637,1.75c4.425,-5.142 8.242,-11.313 12.263,-16.363c-3.75,2.496 3.75,-6.108 0.97,-4.516c-2.27,2.621 -4.912,4.362 -4.475,2.412c1.296,-1.679 0.571,0.459 1.371,-0.075c0.775,-2.704 3.692,-2.658 3.704,-5.783c-2.537,5.625 1.13,2.1 1.709,3.779c1.554,-4.304 0.696,0.65 2.858,-3.237c1.563,-4.296 3.729,-9.35 5.883,-13.809c3.596,-5.183 6.517,-14.404 8.534,-19.558c1.566,-2.521 2.3,-0.129 3.579,-3.054c1.196,-3.546 -2.4,2.071 0.046,-2.925l0.1,0.6c0.216,-1.679 4.271,-9.292 2.787,-11.467l0.967,2.088c0.475,-0.934 0.442,-1.95 0.558,-2.805c0.509,0.113 1.359,-0.891 1.129,0.805c2.1,-2.955 1.705,-7.025 2.638,-10.621l-1.513,2.071c0.83,-6.363 3.005,-10.209 3.971,-16.305l0.871,0.375l0.129,-3.72c0.713,1.062 1.896,-2.146 1.517,-4.2l0.462,9.887c-1.087,2.488 -0.516,-3.096 -1.754,-1.65c-0.921,1.246 -2.271,6.783 -1.596,7.908c0.655,-2.1 0.484,-2.254 0.588,-3.966c1.437,-0.417 0.546,2.796 0.962,4.604c0.238,-1.129 1.034,-2.629 0.7,-2.958c0.042,2.333 -0.441,4.583 -1.37,8.258c0.162,-2.608 -1.121,1.146 -1.23,0.108c1.017,0.579 0.438,4.184 -1.05,8.625c-2.15,2.829 -2.016,8.588 -4.1,13.646c-0.362,-2.471 -0.316,-5.412 0.313,-8.654c-1.65,3.012 -1.2,3.571 -2.854,6.579c0.271,1.829 1.125,3.383 0.154,7.775l-0.871,-0.079c-0.883,3.967 0.029,4.346 -2.2,9c-1.979,3.954 -3.887,7.996 -5.654,11.812c-1.992,3.709 -4.021,7.113 -5.679,10.034l-0.859,-0.188c-0.12,2.071 -1.5,4.888 -3.062,7.779c-1.717,2.805 -3.833,5.542 -4.908,7.863c-2.859,3.258 -5.105,7.392 -7.709,10.629c-2.596,3.238 -4.929,6.038 -6.904,7.238c-9.35,11.954 -19.258,21.133 -32.142,30.27l1.396,-2.612c-1.741,2.404 -1.796,0.625 -4,2.254c3.259,-0.837 -2.541,3.054 -3.821,4.717c-3.258,1.433 -6.658,3.537 -9.883,5.796c-3.329,2.058 -6.621,4.02 -9.246,5.795l-0.579,-0.658c-2.525,2.038 -5.608,3.704 -9.05,4.946c-3.512,1.079 -7.275,2 -11.004,3.208c-0.967,-0.025 -2.554,-0.3 -4.708,0.579c-3.534,2.871 -5.817,3.009 -11.617,5.496c-4.433,1.109 -11.658,2.838 -16.354,2.834c-8.259,2.345 -16.804,4.162 -25.534,4.683c-4.354,0.404 -8.729,0.808 -13.129,1.212c-4.4,0.121 -8.821,0.305 -13.271,0.634l-1.287,-0.984c-17.296,2.517 -38.375,-1.383 -53.033,-2.575l1.662,-1.475c-4.475,-1.108 -10.417,-1.27 -9.483,0.125c-2.234,-0.675 -5.113,-0.983 -7.767,-1.387c-2.642,-0.483 -5.054,-1.029 -6.337,-2.025c-4.555,-1.3 -5.834,-0.508 -9.709,-1.296c-4.537,-1.45 -7.641,-2.442 -10.683,-3.417c-3.042,-0.954 -6.1,-1.62 -10.375,-2.987l2.067,0.821c1.05,-0.034 1.35,-0.696 -0.721,-1.517c-3.313,-0.608 -11.429,-4.471 -8.996,-1.446c-8.542,-4.437 -21.2,-7.491 -28.85,-13.225c0.471,0.834 -1.717,-0.071 -2.758,-0.237c-7.513,-3.95 -14.609,-9.384 -20.746,-12.338c-0.967,-0.983 2.296,0.409 -0.529,-1.558c-1.809,-0.958 -0.442,0.575 -2.7,-0.567c-12.038,-6.887 -21.65,-17.604 -30.6,-26.25c-16.625,-14.925 -29.705,-34.95 -38.417,-54.529l0.475,0.058c-4.475,-5.979 -4.704,-16.17 -8.529,-20.941c-0.217,-1.713 -1.604,-6.296 -0.509,-5.279c-2.55,-5.288 -2.695,-15.734 -5.02,-23.675c0.05,0.758 0.183,1.175 0.466,2.02c-0.216,-8.333 -2.062,-15.533 -1.446,-24.316c0.184,0.883 0.296,2.487 0.734,2.729c0.737,-3.35 -1.75,-7.963 0.204,-9.8c-0.025,-1.925 -0.988,-1.392 -0.929,-0.2c0.791,-19.092 3.266,-39.667 9.716,-58.838c6.48,-12.933 3.35,0.413 6.321,-10.6c0.734,-0.675 -0.391,-0.912 0.046,-0.887c1.458,-4.171 4.979,-5.1 5.404,-8.258c-1.654,0.525 0.338,-2.1 -0.212,-2.509c2.541,-3.596 4.258,-5.616 5.675,-7.537c1.533,-1.85 2.766,-3.6 4.3,-6.713l0.233,0.788c3.017,-7.734 9.733,-14.354 12.733,-20.829c14.955,-16.717 32.146,-30.613 50.625,-41.963c18.467,-11.379 38.209,-20.3 58.771,-27.029c20.442,-6.292 41.104,-10.971 62.129,-13.621c20.992,-2.767 42.384,-3.525 63.913,-1.971c5.008,0.988 7.679,1.7 10.5,1.975c2.817,0.296 5.775,0.317 11.329,0.584c-0.471,0.225 -1.171,0.212 -0.458,0.537c0.696,-1.312 7.779,0.658 8.987,-0.425c15.825,2.304 30.454,4.742 46.421,9.392c-2.567,-0.6 -4.125,0.108 -1.121,0.896l3.379,0.083l0.396,0.512c2.109,0.367 4.521,0.53 2.559,-0.612c10.062,2.95 19.887,6.737 29.337,11.325c9.413,4.687 18.388,10.267 26.783,16.6c16.755,12.742 30.834,28.908 41.15,47.092c4.463,8.87 10.375,21.662 13.521,31.962c3.446,15.579 4.517,30.542 4.529,45.371c-0.02,14.846 -1.108,29.604 -2.762,45.2c-0,-0 -0.742,-1.15 -1.379,-3.892c-0.721,-2.75 -1.004,-7.029 -0.959,-13.429" style="fill:#aca88e;fill-rule:nonzero;"/><path d="M281.58,263.945c-0.546,-6.771 -1.246,-7.717 -5.404,-7.633c0.654,-2.3 1.317,-4.534 1.921,-6.784c0.204,-0.758 0.529,-1.629 0.333,-2.312c-0.337,-1.163 -1.037,-2.221 -1.587,-3.321c-0.875,0.696 -1.834,1.317 -2.609,2.117c-1.262,1.304 -2.162,3.137 -3.65,4.02c-3.554,2.1 -6.346,4.588 -6.712,9.292c-2.267,-3.304 -4.284,-6.167 -6.217,-9.092c-1.558,-2.354 -2.808,-4.945 -4.592,-7.108c-1.191,-1.45 -3.012,-3.179 -4.666,-3.308c-4.471,-0.346 -8.446,-1.896 -12.546,-3.438c-5.704,-2.141 -11.567,-1.371 -17.254,0.267c-6.525,1.879 -13.038,3.842 -19.417,6.15c-6.187,2.242 -12.171,4.971 -15.421,11.371c-0.329,0.65 -1.521,1.083 -2.375,1.212c-4.75,0.738 -9.512,1.429 -14.287,1.971c-4.492,0.513 -8.334,2.367 -11.884,5.054c-3.241,2.454 -6.066,5.779 -10.512,6.029c-5.654,0.317 -11.188,-0.104 -15.725,-4.137c-0.242,-0.213 -0.375,-0.554 -0.629,-0.946c6.221,-5.517 4.179,-11.721 1.112,-17.617c-5.104,-9.812 -10.608,-19.416 -15.962,-29.095c-0.421,-0.763 -0.934,-1.484 -1.475,-2.167c-1.067,-1.342 -1.329,-2.617 -0.521,-4.3c1.625,-3.379 1.158,-4.863 -1.604,-7.333c-5.134,-4.592 -7.225,-10.538 -5.559,-17.013c0.792,-3.083 3.588,-5.925 6.067,-8.25c7.9,-7.396 17.513,-12 27.579,-15.629c7.867,-2.838 14.934,-6.617 20.167,-13.442c2.387,-3.112 3.621,-6.25 3.087,-10.15c-0.462,-3.404 2.48,-5.554 5.65,-4.266c2.217,0.9 3.63,0.004 4.48,-2.505c0.575,-1.687 1.15,-3.612 2.341,-4.82c5.338,-5.413 10.884,-10.617 16.375,-15.871c2.088,-1.992 4.492,-2.129 7.021,-0.938c1.971,0.925 3.954,1.842 5.875,2.875c7.192,3.875 11.913,2.034 14.763,-5.541c1.025,-2.73 2.179,-5.688 4.133,-7.709c1.858,-1.916 4.817,-2.796 7.342,-4.033c2.17,-1.067 4.762,-1.575 6.55,-3.071c3.658,-3.054 7.679,-2.917 11.675,-1.825c5.666,1.55 11.279,3.029 17.225,2.958c1.658,-0.02 3.329,0.575 5.833,1.046c-1.704,1.575 -2.621,2.792 -3.842,3.475c-2.591,1.45 -3.725,3.767 -4.629,6.396c-0.846,2.463 -1.792,4.904 -2.892,7.258c-0.97,2.075 -0.483,3.663 1.338,4.725c9.933,5.8 19.821,11.688 29.896,17.23c7.521,4.141 12.675,0.741 15.479,-6.088c2.296,-5.587 3.45,-11.533 3.346,-17.629c-0.134,-7.475 2.1,-14.442 4.479,-21.379c0.167,-0.488 0.404,-1.021 0.771,-1.354c0.521,-0.471 1.287,-1.167 1.775,-1.046c0.554,0.129 1.083,0.987 1.337,1.641c0.754,1.934 1.463,3.896 2.013,5.896c0.808,2.929 1.508,5.892 2.158,8.863c0.3,1.358 0.3,2.787 0.579,4.158c1.117,5.504 1.138,5.5 6.696,5.75c3.442,0.154 6.654,3.642 6.396,7.146c-0.329,4.412 0.667,8.35 2.846,12.275c1.375,2.487 1.737,5.608 2.229,8.5c0.933,5.492 3.296,9.654 8.546,12.321c5.125,2.608 8.171,7.291 10.95,12.333c3.4,6.163 7.687,11.829 11.508,17.763c3.917,6.087 8.117,12.041 11.483,18.425c3.263,6.191 2.813,13.154 1.492,19.8c-1.879,9.479 -6.246,17.929 -12.071,25.616c-0.896,1.184 -1.716,2.513 -2.858,3.409c-7.2,5.666 -10.392,13.887 -14.038,21.812c-1.491,3.242 -2.912,6.542 -4.033,9.929c-0.746,2.25 -2.092,3.059 -4.25,3.054c-1.225,-0.004 -2.462,0.125 -3.679,0.025c-4.125,-0.35 -7.667,0.834 -10.971,3.384c-4.258,3.291 -7.05,2.579 -9.683,-2.054c-1,-1.763 -2.371,-1.88 -3.984,-0.913c-1.42,0.85 -2.791,1.792 -4.245,2.579c-4.025,2.175 -7.675,0.2 -11.271,-1.266c-2.742,-1.113 -5.371,-2.53 -7.959,-3.98c-3.42,-1.92 -5.045,-5.229 -6.108,-8.8c-0.846,-2.829 -1.375,-5.754 -2.146,-8.608c-0.45,-1.65 -1.479,-2.546 -3.341,-1.904c-0.713,0.246 -1.471,0.367 -2.238,0.55" style="fill:#4e6b5f;fill-rule:nonzero;"/><path d="M318.596,306.755c1.229,0.575 1.834,0.729 2.279,1.088c4.325,3.471 9.155,3.354 14.121,1.946c2.25,-0.642 2.934,0.229 2.663,2.32c-0.534,4.105 -1.238,8.038 -5.517,10.225c-1.142,0.58 -1.967,1.971 -2.683,3.146c-0.984,1.613 -2.009,1.638 -3.45,0.667c-2.779,-1.867 -4.242,-4.508 -4.971,-7.708c-0.579,-2.534 -1.421,-5.005 -2.025,-7.534c-0.271,-1.141 -0.25,-2.358 -0.417,-4.15" style="fill:#4e6b5f;fill-rule:nonzero;"/></g></svg>