<?xml version="1.0" encoding="UTF-8" standalone="no"?><!DOCTYPE svg PUBLIC "-//W3C//DTD SVG 1.1//EN" "http://www.w3.org/Graphics/SVG/1.1/DTD/svg11.dtd"><svg width="100%" height="100%" viewBox="0 0 487 594" version="1.1" xmlns="http://www.w3.org/2000/svg" xmlns:xlink="http://www.w3.org/1999/xlink" xml:space="preserve" xmlns:serif="http://www.serif.com/" style="fill-rule:evenodd;clip-rule:evenodd;stroke-linejoin:round;stroke-miterlimit:2;"><g><g transform="matrix(4.16667,0,0,4.16667,-3655.16,-4471.7)"><text x="904.651px" y="1200.2px" style="font-family:'LucidaGrande', 'Lucida Grande', sans-serif;font-weight:500;font-size:11.09px;fill:#a09b7e;">Sus<tspan x="923.048px " y="1200.2px ">t</tspan>ai<tspan x="936.414px " y="1200.2px ">n</tspan>ab<tspan x="956.289px " y="1200.2px ">l</tspan>e <tspan x="969.071px " y="1200.2px ">&amp;</tspan></text><text x="908.033px" y="1213.51px" style="font-family:'LucidaGrande', 'Lucida Grande', sans-serif;font-weight:500;font-size:11.09px;fill:#a09b7e;">Eco</text><text x="930.589px" y="1213.51px" style="font-family:'LucidaGrande', 'Lucida Grande', sans-serif;font-weight:500;font-size:11.09px;fill:#a09b7e;">Fri<tspan x="944.175px " y="1213.51px ">e</tspan>nd<tspan x="964.112px " y="1213.51px ">l</tspan>y</text></g><path d="M54.221,78.861c87.388,-93.125 190.03,-104.775 293.275,-29.612c103.246,75.162 155.771,198.554 80.609,301.8c-75.163,103.246 -222.742,80.958 -325.988,5.796c-103.246,-75.163 -143.571,-176.025 -47.896,-277.984" style="fill:#fff;fill-rule:nonzero;"/><path d="M15.881,188.11c-0.146,4.158 -0.888,8.467 -1.45,13.004c-0.325,2.254 -0.717,4.542 -1.142,6.859c-0.333,2.329 -0.675,4.687 -1.013,7.054c-1.454,9.454 -2.158,19.308 -0.966,28.137c0.225,2.067 -1.763,-0.491 -1.138,4.204c1.621,8.559 3.084,19.471 5.834,30.667c2.625,11.204 6.47,22.679 10.875,32.383l-1.063,-0.883c0.85,1.846 2.208,3.671 3.65,5.454c1.538,1.729 3.088,3.446 4.167,5.292c-0.25,0.217 -1.138,-0.883 -0.959,0.2c1.288,0.425 4.905,6.004 6.58,7c0.729,1.567 -0.046,1.967 1.07,3.892l2.463,1.141c6.225,3.475 11.096,12.171 19.05,17.159c-0.513,-0.08 -1.35,-0.496 -0.946,0.158c12.317,8.304 27.604,18.558 42.742,25.075c-0.763,0.079 -1.638,0.467 -0.954,1.279c1.266,-0.742 5.958,1.208 10.07,2.754c1.384,1.829 7.33,2.013 11.921,4.363l-0.508,0.1c4.017,0.125 5.037,2.704 8.467,2.275l1.979,1.658c2.133,-1.108 4.946,2.621 8.233,2.713l0.008,-0.367c2.967,0.437 4.205,1.696 6.93,2.196l0.195,0.266c6.321,1.342 9.75,3.084 9.917,1.792c1.929,1.6 -6.175,-1.096 -3.125,1.296c20.938,4.087 42.483,8.042 63.821,9.804c2.375,0.775 3.917,0.963 4.425,1.521c2.154,-0.154 8.071,0.283 10.046,-0.354c-0.717,0.004 1.354,0.716 2.483,0.816c3.896,0.605 4.296,-1.345 8.554,-0.65c-1.704,0.325 -2.287,0.734 -1.729,1.246c3.675,-0.962 8.546,-0.908 12.854,-1.25c-0.666,0.234 -1.708,0.371 -1.537,0.788c4.691,-1.229 8.621,-0.063 12.725,-0.946l-1.509,0.833c6.717,0.625 1.871,-1.704 7.646,-1.546c-1.362,0.35 -0.854,0.613 -1.083,0.942c5.267,-1.7 13.912,-2.171 19.175,-3.275c-0.304,0.142 -0.196,0.338 -0.196,0.338c5.733,-1.021 11.854,-1.367 18.021,-3.242c2.354,-0.092 -0.4,1.987 5.629,0.567c-0.529,-1.446 10.083,-2.946 6.146,-3.842c5.196,-0.796 13.342,-2.571 16.571,-3.992c-2.096,1.259 3,1.079 -1.171,2.446c1.162,0.029 2.296,-0.033 3.45,-0.062c-0.288,0.766 -3.338,0.812 -2.1,1.266c2.108,-0.716 8.062,-3.246 10.021,-3.6c3.558,-2.275 6.504,-5.125 12.512,-7.721c-2.629,1.746 2.263,0.905 0.413,1.963l7.316,-6.25c1.934,-0.992 0.93,0.912 3.613,-0.8c-0.321,-0.3 0.812,-1.113 1.537,-1.821c0.405,-0.096 2.4,-1.146 4.488,-2.046c2.046,-0.987 4.167,-1.862 4.946,-1.408c1.129,0.079 -2.992,1.958 -0.604,1.3c3.55,-1.938 3.495,-2.408 6.987,-4.417l0.167,0.138c2.404,-1.184 6.391,-4.592 3.475,-3.825c-1.604,0.904 1.075,0.425 -1.492,1.45c1.129,-1.759 5.058,-4.221 8.296,-6.554c-0.992,0.966 -0.633,1.212 -0.854,1.883c1.904,-2.008 3.971,-3.879 6.146,-5.713c2.108,-1.912 4.266,-3.866 6.483,-5.875c-0.367,-0.629 -0.958,2.384 -1.9,2.613c3.417,-1.854 6.242,-4.683 8.896,-7.4c2.754,-2.621 5.121,-5.354 7.933,-7.029c-0.662,0.816 -1.121,-0.346 -0.929,-0.25c2.683,-2.5 3.396,-1.575 4.721,-3.634c0.604,0.25 1.9,-2.362 3.421,-4.3c0.525,-1.229 0.658,-0.27 -0.746,1.359c2.191,-2.725 9.937,-13.992 15.033,-20.075c-0.346,-0.059 1.279,-4.942 2.263,-6.434l0.45,1.096c1.345,-1.125 3.116,-5.216 3.887,-5.133c1.088,-3.875 -6.858,13.362 -4.908,8.392c1.391,-0.755 2.508,-7.038 3.037,-5.405c1.934,-3.129 2.409,-6.862 4.871,-9.512c-0.6,0.825 -0.196,3.237 1.121,0.567c2.208,-4.734 0.258,-1.525 1.721,-5.505l0.7,-2.587c-0.779,-0.525 1.971,-4.2 0.241,-2.829c1.105,-0.246 2.2,-7.2 3.48,-6.167l0.895,1.096c0.68,-2.167 0.042,-3.913 0.13,-5.738c0.204,-0.237 0.637,-0.72 0.783,-0.554c-1.617,-0.883 1.625,-5.121 0.987,-8.071c2.067,-4.312 2.667,-11.608 4.375,-13.541c0.096,-3.684 -0.154,-7.063 0.884,-11.092c0.05,0.838 -0.067,1.967 0.296,2.25c0.916,-2.504 0.591,-3.204 0.475,-5.604c0.225,0.567 1.554,-5.067 2.479,-7.933c-0.309,-3.667 -1.438,-2.471 -2.013,-2.867c1.917,-3.242 -0.746,-10.158 0.642,-14.267c0.287,1.234 1.046,5.254 1.421,2.242c1.646,-3.379 -1.334,-6.654 -1.05,-11.983l-1.4,1.416c0.725,-2.433 -1.567,-7.658 0.021,-7.287c-0.734,-1.692 -0.425,-6.254 -1.784,-5.459c0.096,-4.404 -1.271,-9.533 -2.312,-14.27c-1.238,-4.696 -2.284,-8.996 -1.829,-11.967c-0.65,-1.104 -1.438,-4.142 -1.95,-3.288c-0.1,2.221 1.516,2.55 1.237,3.459c-0.412,-1.046 -0.879,-1.15 -1.112,-1.196c-0.567,-2.65 -1.171,-4.717 0.837,-2.692c-1.092,-6.087 -4.471,-4.991 -6.854,-12.229c0.667,0.083 0.737,-0.583 -0.329,-2.567l-2.813,-3.362c-1.946,-4.538 0.004,-3.154 0.884,-3.733c-1.292,-2.338 -2.984,-5.15 -4.213,-5.838l-0.458,-3.479c0.341,2.542 -1.588,-1.613 -2.55,-2.496l0.896,0.925c0.104,-0.646 -1.792,-3.108 -2.742,-4.35c-0.342,0.658 1.129,3.442 1.896,4.979c-1.125,-0.904 -2.171,-2.737 -3.588,-3.95c1.154,-0.037 -1.654,-4.083 -2.883,-5.8c-1.238,-2.096 -2.338,-1.683 -2.721,-2.275c0.396,-0.362 -2.233,-3.25 -0.537,-2.162c0.62,0.571 0.687,1.833 1.862,2.666c-0.612,-1.52 0.233,-1.92 -2.246,-4.216c-1.912,-1.688 -1.183,1.704 -3.621,-2.375c0.98,0.812 1.442,0.737 2.334,1.262l-2.375,-3.787l-0.838,0.433c-0.196,-0.612 0.125,-0.342 0.05,-0.637c-0.791,-0.205 -1.912,-1.475 -3.016,-2.7c-1.167,-1.18 -2.325,-2.309 -3.067,-2.317c-1.563,-1.592 -2.638,-3.942 -4.017,-5.583l0.346,0.237c-1.442,-2.233 -4.154,-4.467 -6.133,-5.575l0.225,-0.062c-0.909,-1.109 -3.517,-3.267 -5.2,-4.067c-2.179,-2.95 1.458,-3.417 -2.279,-5.263c-2.821,-2.391 -5.521,-2.416 -4.759,-1.025c-4.604,-4.775 -11.441,-8.091 -15.575,-12.775c-0.996,-0.233 -0.641,0.3 -2.366,-0.633c-7.68,-5.929 -17.688,-10.062 -23.525,-15.392c2.666,0.988 0.62,-0.733 0.812,-1.216c-2.454,-0.354 -2.075,-2.063 -3.487,-1.196c-0.188,0.85 -0.58,1.104 1.67,2.667c-2.666,-1.134 -5.916,-2.75 -8.85,-4.284c-2.975,-1.462 -5.591,-2.925 -6.879,-3.971c1.288,1.046 0.059,0.742 -1.187,0.43c0.962,-1.071 -2.863,-3.009 -6.029,-3.825l-0.742,0.57l-1.596,-1.6c-1.254,-0.233 -1.896,0.988 -4.571,-0.908c-0.033,-0.35 -0.087,-0.712 -0.55,-1.142c-3.391,-0.55 -8.096,-1.316 -11.3,-3.087l-2.408,-2.092c-1.513,-0.383 -4.196,-0.554 -1.738,0.659c-5.575,-2.775 -9.437,-3.83 -11,-5.455c-10.941,-0.712 -25.854,-4.27 -38.012,-6.616l0.467,-0.529c-3.18,-1.084 -1.888,0.795 -4.105,0.037c1.167,-0.421 -2.3,-1.604 0.409,-1.937c-4.621,-1.313 -6.246,0.17 -9.338,0.004c-0.575,0.725 2.529,-0.154 1.796,0.766c-0.562,0.209 -6.417,-1.554 -7.296,-0.454c-1.116,-0.641 -0.1,-1.396 0.6,-1.791l-2.95,0.17c-3.379,-1.92 8.35,-1.354 4.867,-3.62l-2.713,-0.196c-2.42,-1.629 7.3,-0.4 0.588,-1.8c-3.017,0.166 -5.696,1.558 -3.154,2.462c-6.117,-0.304 -3.113,2.625 -9.596,2.034c-1.725,-0.834 5.217,0.183 4.058,-0.896c-2.996,-1.184 -6.216,0.125 -8.912,-0.404c3,0.662 0.354,1.712 -1.6,1.8c-3.271,-0.8 2.204,-1 -2.467,-1.446c-0.812,0.646 -5.117,0.875 -1.429,1.616c-0.875,0.734 -2.075,0.542 -3.388,0.296c-1.308,-0.179 -2.729,-0.325 -4,0.296c-1.516,-1.092 4.859,-2.646 -0.287,-3.133c0.796,1.066 -6.346,1.546 -3.629,3.108c-2,-0.283 -2.225,-1.129 -0.763,-1.808c-2.904,-0.621 -6.912,2.054 -7.929,-0.067l-0.942,1.108c-0.929,-0.287 -2.187,-0.675 -3.712,-1.15c-2.533,0.242 -7.971,2.309 -7.892,0.634c-0.796,0.254 -6.546,0.754 -4.2,1.675c3.625,0.337 4.009,-1.25 6.125,0.1c-2.616,-1.009 -5.1,0.679 -7.087,1.304l-0.409,-0.604c-1.187,0.371 -4.016,0.516 -4.675,1.275c0.875,-0.454 0.334,-0.842 -0.662,-0.896c-0.383,0.346 -0.75,0.762 -1.121,1.167c-4.771,1.445 -1.412,-1.467 -6.117,-0.246l3.488,-1.463c-0.763,0.317 -2.546,-0.258 -4.783,0.492c-0.73,1.054 -2.175,2.425 -2.788,3.254c-2.575,0.9 -1.408,-0.75 -3.829,0.658l3.212,-1.725c0.463,-0.387 -2.637,-0.979 -6.241,-0.25c-2.25,0.713 -5.309,3.2 -1.704,2.546c-1.734,0.542 -4.317,0.759 -3.1,-0.287c-3.875,1.491 0.762,0.766 -2.484,2.329c-1.546,-0.15 -6.129,0.35 -9.054,0.329l3.133,-2.5l-2.408,0.713c2.75,-2.08 -1.871,-0.388 -0.508,-2.113c-1.704,0.358 -3.638,1.221 -5.042,2.221c5.317,-0.004 -4.233,4.737 -2.187,5.904c-6,3.058 -5.671,-2.475 -11.059,2.9c1.271,-0.012 -1.204,2.538 2.5,0.417c-3.966,1.437 -1.891,2.654 -6.521,4.366c2.875,-2.45 -4.312,0.246 -0.141,-3.304c-0.025,0.754 2.775,-1.104 3.512,-1.471c-1.904,0.08 -0.525,-1.945 -4.366,0.163c-2.263,1.446 -5.455,3.237 -4.53,3.825c0.6,0.871 3.496,-2.054 2.509,-0.292c-4.425,2.85 -6.004,1.888 -6.971,4.546c2.837,-1.717 4.092,-1.171 4.392,-0.512l-3.121,2.212l0.291,-0.958c-5.583,2.583 -1.058,1.741 -6.012,4.937l-3.038,0.434c0.48,-1.859 7.409,-4.455 5.575,-5.417c-3.412,1.896 -3.804,3.658 -7.125,5.275c0.575,-0.608 1.463,-1.283 2.034,-1.892c-1.167,0.734 -3.784,-0.571 -7.517,3.859c-2.021,2.12 -0.212,0.991 0.158,1.616c-1.25,0.934 -2.254,1.738 -3.108,2.454c-0.812,0.771 -1.429,1.513 -2.025,2.163c-1.179,1.321 -2.15,2.446 -3.629,3.8c-0.292,-1.621 -5.458,4.537 -3.054,0.542c1.054,-0.359 3.271,-2.03 5.325,-3.921c1.029,-0.95 2.021,-1.959 2.808,-2.884c0.863,-0.833 1.517,-1.595 1.771,-2.183c-2.888,-0.037 4.192,-2.629 4.325,-4.796c-4.192,2.875 -4.975,1.404 -6.304,1.013c-1.221,0.766 -2.1,1.9 -2.671,2.554c0.146,1.162 1.625,0.033 2.362,0.829c-4.616,3.313 -8.3,7.488 -10.016,10.204c-1.767,0.859 -2.009,-0.275 -0.367,-1.821c-5.154,4.409 -9.858,9.934 -14.6,14.321c4.083,-1.904 -4.629,5.467 -1.642,4.317c2.642,-2.25 5.517,-3.571 4.792,-1.713c-1.537,1.467 -0.496,-0.537 -1.371,-0.129c-1.171,2.554 -4.05,2.067 -4.533,5.154c3.358,-5.175 -0.8,-2.25 -1.117,-3.991c-2.187,4.016 -0.591,-0.75 -3.316,2.762c-2.196,4.013 -5.105,8.679 -7.905,12.759c-4.337,4.583 -8.62,13.254 -11.395,18.045c-1.93,2.259 -2.292,-0.225 -4,2.48c-1.717,3.32 2.683,-1.688 -0.488,2.883l-0.008,-0.608c-0.471,1.625 -5.629,8.537 -4.492,10.912l-0.637,-2.212c-0.613,0.85 -0.73,1.862 -0.975,2.691c-0.488,-0.191 -1.48,0.675 -0.996,-0.966c-2.525,2.604 -2.746,6.683 -4.217,10.095l1.813,-1.816c-1.784,6.162 -4.517,9.637 -6.392,15.516l-0.808,-0.504l-0.688,3.659c-0.546,-1.159 -2.2,1.833 -2.133,3.925l1.033,-9.846c1.454,-2.296 0.046,3.137 1.488,1.9c1.1,-1.092 3.27,-6.367 2.775,-7.579c-0.967,1.975 -0.821,2.154 -1.184,3.837c-1.483,0.188 -0.116,-2.854 -0.254,-4.704c-0.408,1.079 -1.421,2.446 -1.142,2.821c0.313,-2.313 1.134,-4.463 2.609,-7.959c-0.559,2.559 1.279,-0.962 1.233,0.08c-0.921,-0.73 0.196,-4.2 2.338,-8.367c2.554,-2.471 3.295,-8.179 6.12,-12.863c-0.016,2.496 -0.508,5.396 -1.62,8.505c2.091,-2.73 1.729,-3.35 3.82,-6.075c0.005,-1.846 -0.6,-3.513 1.021,-7.705l0.85,0.209c1.471,-3.788 0.629,-4.3 3.538,-8.563c2.554,-3.608 5.05,-7.316 7.375,-10.825c2.533,-3.362 5.05,-6.416 7.133,-9.058l0.817,0.321c0.433,-2.034 2.225,-4.609 4.208,-7.229c2.121,-2.513 4.625,-4.9 6.042,-7.03c3.316,-2.787 6.162,-6.533 9.225,-9.341c3.054,-2.809 5.783,-5.221 7.921,-6.109c11.05,-10.4 22.233,-17.979 36.35,-25.058l-1.771,2.375c2.083,-2.121 1.866,-0.35 4.291,-1.629c-3.345,0.337 2.975,-2.629 4.492,-4.083c3.438,-0.921 7.117,-2.488 10.646,-4.23c3.604,-1.537 7.15,-2.979 10.017,-4.333l0.475,0.738c2.8,-1.634 6.1,-2.813 9.691,-3.517c3.638,-0.538 7.496,-0.879 11.363,-1.508c0.954,0.17 2.479,0.683 4.741,0.137c3.93,-2.304 6.209,-2.092 12.317,-3.671c4.55,-0.425 11.954,-1.041 16.596,-0.329c8.517,-1.067 17.237,-1.571 25.946,-0.762c4.366,0.258 8.754,0.52 13.158,0.783c4.371,0.546 8.767,1.037 13.217,1.383l1.125,1.167c17.475,0.129 37.721,7.175 52.029,10.571l-1.863,1.208c4.255,1.771 10.105,2.829 9.392,1.308c2.104,1.009 4.908,1.746 7.471,2.546c2.533,0.879 4.837,1.788 5.954,2.967c4.308,1.971 5.688,1.383 9.404,2.746c4.267,2.121 7.184,3.571 10.038,4.991c2.866,1.409 5.787,2.53 9.808,4.53l-1.921,-1.125c-1.046,-0.13 -1.441,0.479 0.484,1.608c3.183,1.104 10.62,6.146 8.675,2.787c7.77,5.68 19.82,10.617 26.512,17.438c-0.337,-0.892 1.688,0.329 2.692,0.654c6.833,5.042 13.021,11.483 18.641,15.333c0.809,1.117 -2.208,-0.75 0.288,1.621c1.646,1.221 0.521,-0.5 2.583,0.967c10.859,8.629 18.738,20.683 26.275,30.579c14.179,17.267 24.075,39.042 29.725,59.717l-0.458,-0.129c3.517,6.587 2.2,16.695 5.258,21.987c-0.046,1.729 0.629,6.471 -0.296,5.3c1.717,5.608 0.284,15.954 1.384,24.158c0.062,-0.754 -0.009,-1.191 -0.159,-2.066c-1.045,8.266 -0.312,15.666 -2.25,24.254c-0.05,-0.9 0.084,-2.504 -0.312,-2.808c-1.233,3.204 0.525,8.137 -1.683,9.658c-0.267,1.904 0.766,1.525 0.887,0.337c-3.675,18.75 -9.233,38.717 -18.508,56.688c-8.363,11.804 -3.25,-0.913 -7.854,9.525c-0.825,0.554 0.25,0.962 -0.175,0.871c-2.075,3.9 -5.696,4.283 -6.596,7.346c1.716,-0.275 -0.65,2.02 -0.167,2.508c-3.058,3.171 -5.062,4.908 -6.75,6.592c-1.8,1.6 -3.279,3.141 -5.267,5.983l-0.112,-0.813c-4.15,7.192 -11.792,12.717 -15.738,18.663c-17.308,14.258 -36.408,25.396 -56.391,33.821c-19.979,8.454 -40.842,14.283 -62.184,17.825c-21.162,3.125 -42.291,4.625 -63.475,4.062c-21.166,-0.441 -42.429,-2.929 -63.475,-7.725c-4.8,-1.733 -7.333,-2.841 -10.079,-3.541c-2.741,-0.713 -5.662,-1.188 -11.112,-2.288c0.5,-0.15 1.191,-0.033 0.537,-0.467c-0.887,1.196 -7.596,-1.825 -8.954,-0.933c-15.292,-4.675 -29.383,-9.3 -44.462,-16.308c2.445,0.979 4.095,0.516 1.241,-0.717l-3.325,-0.592l-0.316,-0.566c-2.025,-0.688 -4.384,-1.213 -2.617,0.212c-9.504,-4.437 -18.642,-9.666 -27.292,-15.633c-8.591,-6.058 -16.621,-12.929 -23.962,-20.458c-14.634,-15.13 -26.104,-33.242 -33.55,-52.775c-3.067,-9.446 -6.975,-22.984 -8.525,-33.646c-1.05,-15.917 0.154,-30.871 2.387,-45.529c2.263,-14.671 5.571,-29.096 9.567,-44.263c-0,0 0.558,1.25 0.779,4.054c0.296,2.829 -0.071,7.1 -1.087,13.421" style="fill:#aca88e;fill-rule:nonzero;"/><path d="M216.026,223.476c-1.188,-0.425 -2.338,-0.55 -3.1,-1.154c-3.721,-2.954 -7.434,-5.804 -12.83,-5.079c-0.633,-2.15 -1.108,-3.967 -1.72,-5.742c-0.25,-0.729 -0.659,-1.763 -1.238,-1.967c-3.717,-1.312 -7.525,-2.366 -11.254,-3.641c-1.325,-0.455 -2.783,-1.025 -3.733,-1.988c-2.759,-2.796 -5.392,-3.617 -8.259,-1.129c-1.937,1.683 -2.983,4.483 -4.179,6.908c-0.95,1.921 -1.533,4.034 -2.275,6.063c-0.317,0.866 -0.767,1.712 -0.904,2.608c-0.638,4.121 2.35,12.204 6.029,14.267c5.542,3.104 6.95,7.679 6.617,13.521c-0.259,4.466 -0.425,8.995 0.058,13.42c0.571,5.217 1.533,10.455 2.983,15.492c1.359,4.733 6.3,7.533 10.763,6.938c0.412,-0.409 0.829,-0.821 1.246,-1.23c-2.396,-1.037 -4.788,-2.07 -7.184,-3.1c0.763,-0.466 1.525,-0.937 2.288,-1.404c0.304,-1.821 1.462,-4.158 0.737,-5.362c-1.85,-3.096 -0.479,-7.559 3.142,-8.234c3.017,-0.562 3.413,-1.654 1.475,-4.004c-0.271,-0.329 -0.433,-0.754 -0.967,-1.716c4.421,1.691 5.892,-1.25 7.325,-3.838c0.634,-1.146 0.113,-2.929 0.746,-4.079c1.096,-1.996 2.4,-4.892 4.125,-5.308c3.242,-0.78 4.796,-2.846 4.713,-5.275c-0.159,-4.817 1.754,-8.592 4.266,-12.325c0.5,-0.738 0.721,-1.663 1.13,-2.642" style="fill:#4e6b5f;fill-rule:nonzero;"/><path d="M222.706,140.348c0.912,-0.5 2.254,-0.663 2.733,-1.404c1.433,-2.238 3.554,-2.579 5.821,-2.596c3.958,-0.033 5.975,-3.375 7.137,-5.85c1.188,-2.538 5.042,-3.592 5.042,-4.917c-0,-1.329 -8.942,-3.833 -13.408,-3.833c-7.888,-0 -15.742,1.267 -23.017,4.712c-1.033,0.488 -2.804,1.192 -2.804,2.105c-0,0.92 2.125,1.07 3.229,1.17c2.829,0.259 4.342,2.621 3.387,5.405c-0.483,1.42 -1.216,3.041 -0.92,4.37c0.387,1.746 1.325,4.096 2.683,4.688c1.35,0.592 3.583,-0.488 5.292,-1.171c1.695,-0.679 3.208,-1.8 4.825,-2.679" style="fill:#4e6b5f;fill-rule:nonzero;"/><path d="M198.045,132.053c-3.367,-1.162 -9.259,-2.55 -10.575,-1.933c-1.317,0.617 -2.267,4.379 -1.617,5.675c0.646,1.292 5.392,3.467 7.988,4.863c0.933,0.504 2.616,0.808 3.329,0.308c1.721,-1.204 4.783,-2.817 4.75,-4.304c-0.034,-1.484 -2.338,-4.079 -3.875,-4.609" style="fill:#4e6b5f;fill-rule:nonzero;"/><path d="M251.191,148.659c-0.296,-1.192 -0.65,-2.363 -0.979,-3.542c-0.492,-0.017 -0.979,-0.033 -1.467,-0.046c-0.346,1.379 -1.012,2.775 -0.958,4.138c0.075,1.846 0.704,3.671 1.167,5.816c4.27,-0.866 4.412,-1.154 2.329,-5.095c-0.184,-0.346 0.008,-0.863 -0.092,-1.271" style="fill:#4e6b5f;fill-rule:nonzero;"/><path d="M165.491,188.639c3.429,0.159 5.654,4.425 9.791,2.7c-1.912,-3.046 -5.754,-4.166 -9.791,-2.7" style="fill:#4e6b5f;fill-rule:nonzero;"/><path d="M200.652,154.715c-0.971,1.071 -1.771,3.45 -1.229,4.405c0.858,-0.171 1.721,-0.342 2.579,-0.513c0.246,-0.05 0.4,-0.3 0.325,-0.542c-0.254,-0.862 -0.533,-1.795 -0.946,-3.183c-0.095,-0.321 -0.504,-0.412 -0.729,-0.167" style="fill:#4e6b5f;fill-rule:nonzero;"/><path d="M229.707,299.17c-51.379,-0 -93.029,-41.65 -93.029,-93.03c0,-6.312 0.633,-12.483 1.833,-18.445c0.346,0.212 0.713,0.416 1.109,0.608c1.546,0.737 2.929,1.779 4.129,3.004c1.817,1.858 3.946,3.496 6.208,4.4c4.421,1.775 9.3,2.596 11.659,7.267c1.587,3.146 3.82,3.537 6.775,2.65c0.366,-0.109 0.47,-0.584 0.183,-0.834c-0.554,-0.483 -1.213,-0.795 -1.713,-1.275c-0.825,-0.791 -1.787,-1.766 -1.987,-2.8c-0.179,-0.891 0.333,-1.916 0.721,-3.154c0.087,-0.275 -0.075,-0.562 -0.354,-0.633c-1.705,-0.417 -3.246,-0.792 -4.63,-1.129c-0.262,-0.067 -0.416,-0.338 -0.337,-0.596c0.425,-1.388 0.854,-2.779 1.279,-4.171c-1.008,-0.742 -1,-0.737 -2.008,-1.479c-1.025,0.704 -2.046,1.421 -3.179,1.842c-1.53,0.57 -3.305,0.816 -4.905,0.633c-0.441,-0.05 -0.933,-2.154 -0.9,-3.304c0.059,-1.984 0.305,-4.021 0.867,-5.917c0.308,-1.05 1.292,-2.483 2.192,-2.662c3.091,-0.625 6.271,-0.942 9.429,-1.038c2.033,-0.062 3.546,0.933 3.721,3.363c0.041,0.545 0.546,1.054 1,1.566c0.204,0.229 0.562,0.217 0.746,-0.029c0.425,-0.554 0.908,-1.121 0.887,-1.662c-0.171,-4.18 2.417,-6.321 5.533,-8.3c1.217,-0.775 2.43,-1.946 3.03,-3.221c2.054,-4.367 5.216,-7.246 10.004,-8.013c3,-0.475 3.75,-2.45 3.916,-4.975c0.05,-0.746 -0.029,-1.496 -0.083,-2.212c-0.021,-0.246 0.167,-0.479 0.408,-0.521c2.975,-0.496 5.78,-0.967 8.73,-1.458c0.32,-0.05 0.5,-0.4 0.358,-0.692c-1.588,-3.25 -2.883,-5.9 -4.483,-9.171c-0.08,-0.162 -0.238,-0.267 -0.417,-0.275c-1.246,-0.071 -3.829,0.988 -4.942,-2.158c-0.137,-0.384 -5.291,0.046 -5.504,0.821c-0.896,3.245 -2.592,5.616 -5.067,7.704c-0.479,0.404 -0.804,1 -1.12,1.596c-0.192,0.366 -0.725,0.333 -0.871,-0.05c-0.242,-0.646 -0.509,-1.359 -0.846,-2.259c-0.067,-0.183 -0.238,-0.308 -0.429,-0.316c-0.909,-0.034 -1.984,0.016 -2.954,-0.284c-1.096,-0.333 -2.655,-0.916 -2.909,-1.737c-0.246,-0.788 0.65,-2.363 1.496,-2.992c3.175,-2.371 6.521,-4.517 9.808,-6.733c0.184,-0.125 0.263,-0.35 0.196,-0.559c-1.312,-4.091 -2.871,-4.737 -7.054,-2.658c-2.437,1.208 -4.871,1.833 -7.367,1.913c0.684,-0.596 1.375,-1.175 2.075,-1.746c1.134,-0.192 2,-0.713 2.313,-1.829c4.954,-3.792 10.3,-7.096 15.967,-9.842c0.062,0.721 0.375,1.437 -0.021,1.746c-0.542,0.429 -2.979,3.65 -2.263,4.416c0.717,0.767 5.754,0.559 8.071,-0.12c4.013,-1.18 13.758,-4.555 13.808,-5.93c0.042,-1.079 -11.762,-1.583 -17.029,-1.308c11.588,-5.183 24.434,-8.067 37.95,-8.067c23.334,0 44.659,8.588 60.988,22.78c-3.263,0.383 -6.346,1.508 -8.996,4.466c-0.208,0.234 -1.275,-0.296 -2.604,-0.733c-0.142,-0.046 -0.163,-0.238 -0.038,-0.317l2.963,-1.85c-0.117,-0.612 -0.121,-0.641 -0.238,-1.254c-3.379,-0.629 -6.754,-1.267 -10.137,-1.883c-6.067,-1.113 -13.717,3.091 -15.729,8.791c-0.296,0.83 -0.025,1.859 0.1,2.975c0.029,0.271 0.283,0.463 0.525,0.421l3.32,-0.546c0.138,-0.02 0.246,0.109 0.192,0.238l-0.9,2.304c-0.046,0.117 0.042,0.246 0.167,0.242c1.121,-0.013 1.958,-0.096 2.766,0.021c3.392,0.487 3.913,0.037 3.109,-3.238c-0.838,-3.4 1.141,-4.733 3.721,-5.912c0.116,-0.055 0.254,0.041 0.25,0.175c-0.175,4.354 -0.08,4.337 4.333,4.495c0.558,0.017 1.108,0.275 1.946,0.555c0.154,0.054 0.166,0.262 0.021,0.333c-1.775,0.825 -3.609,1.212 -3.967,2.158c-1.733,4.579 -5.508,4.384 -9.096,4.167c-3.321,-0.204 -6.296,-0.363 -8.462,2.812c-0.525,0.767 -1.771,1.117 -2.75,1.484c-3.942,1.466 -4.08,1.616 -2.017,5.387c0.05,0.092 0.008,0.213 -0.088,0.25c-2.025,0.788 -3.995,1.55 -6.125,2.379c-0.108,1.259 -0.012,2.717 -0.387,4.034c-0.571,1.983 -0.121,3.637 1.904,3.612c1.892,-0.025 4.996,-0.654 5.429,-1.812c1.654,-4.425 4.517,-6.096 8.984,-6.067c2.9,0.021 6.275,3.708 5.833,6.658c-0.058,0.384 0.079,1.092 0.3,1.171c0.45,0.159 1.108,0.163 1.525,-0.062c1.996,-1.075 1.8,-3.888 -0.354,-5.954c-0.7,-0.68 -1.392,-1.363 -2.084,-2.05c-0.266,-0.263 -0.258,-0.7 0.025,-0.95l0.009,-0.009c0.271,-0.241 0.687,-0.212 0.925,0.063c2.712,3.108 5.437,6.233 8.437,9.679c0.113,0.129 0.321,0.046 0.313,-0.125c-0.075,-1.563 -0.134,-2.742 -0.188,-3.85c0,-0.075 0.046,-0.146 0.117,-0.171c4.458,-1.742 6.029,-1.592 7.975,1.263c0.196,0.291 0.025,0.691 -0.313,0.745l-3.158,0.509c-0.004,0.566 -0.004,0.425 -0.008,0.987c2.575,0.454 5.171,0.909 7.908,1.388c0.075,0.012 0.138,0.079 0.146,0.158c0.171,1.679 0.337,3.296 0.596,5.763c0.012,0.125 -0.109,0.229 -0.229,0.191c-5.13,-1.541 -9.567,-2.875 -13.471,-4.046c-0.092,-0.029 -0.192,0.025 -0.217,0.121c-0.583,1.879 -0.975,3.134 -1.354,4.359c-0.033,0.095 -0.138,0.145 -0.233,0.112c-0.95,-0.342 -2.367,-0.542 -2.538,-1.112c-0.954,-3.205 -3.667,-3.288 -6.146,-3.809c-0.091,-0.016 -0.15,-0.1 -0.141,-0.187c0.079,-0.867 0.15,-1.667 0.279,-3.084c0.008,-0.112 -0.088,-0.208 -0.2,-0.195c-5.667,0.762 -10.888,1.441 -16.1,2.204c-0.504,0.071 -1.075,0.575 -1.371,1.037c-2.188,3.434 -4.046,6.934 -7.55,9.542c-2.433,1.812 -1.358,5.717 -2.075,8.504c-1.25,4.842 -0.125,8.15 2.517,12.133c2.579,3.896 6.02,6.359 10.566,4.967c1.459,-0.446 2.813,-1.342 4.288,-1.596c1.416,-0.241 3.062,-0.254 4.362,0.25c0.792,0.304 1.525,0.771 2.317,1.338c5.487,-11.238 11.587,-17.154 12.579,-18.075c9.971,-10.05 23.254,-15.584 37.417,-15.584c4.525,0 8.958,0.571 13.229,1.671c-12.221,-39.825 -49.283,-68.787 -93.117,-68.787c-53.787,-0 -97.391,43.604 -97.391,97.391c-0,53.792 43.604,97.392 97.391,97.392c10.304,0 20.238,-1.604 29.559,-4.571c-0.484,-1.383 -0.946,-2.762 -1.388,-4.137c-8.887,2.816 -18.35,4.346 -28.171,4.346" style="fill:#4e6b5f;fill-rule:nonzero;"/><path d="M383.252,190.346c-1.583,-0.267 -3.512,-0.488 -5.741,-0.633c-2.225,-0.146 -4.742,-0.188 -7.492,-0.08c-2.742,0.138 -5.725,0.342 -8.842,0.855c-3.121,0.466 -6.387,1.175 -9.691,2.162c-2.375,0.696 -4.75,1.596 -7.121,2.592c-0.017,-0.017 -0.038,-0.038 -0.054,-0.054c-1.667,0.687 -3.346,1.4 -5.046,2.129c-3.104,1.404 -6.188,2.996 -9.175,4.754c-1.492,0.887 -2.975,1.792 -4.4,2.771c-1.459,0.937 -2.863,1.941 -4.234,2.966c-1.408,0.984 -2.712,2.071 -4.037,3.109c-1.346,1.016 -2.575,2.141 -3.817,3.208c-1.266,1.046 -2.408,2.183 -3.554,3.271c-0.042,0.037 -0.075,0.075 -0.117,0.112c-0.983,0.913 -1.925,1.85 -2.812,2.784c-0.663,0.658 -1.288,1.321 -1.896,1.983c-0.042,0.046 -0.079,0.088 -0.121,0.133c-0.4,0.434 -0.791,0.867 -1.175,1.3c-0.812,0.917 -1.591,1.817 -2.35,2.688c-0.108,0.125 -0.221,0.254 -0.329,0.375l-0.004,0.008c-0.063,0.071 -0.129,0.146 -0.188,0.217c-1.612,2.092 -3.22,3.929 -4.429,5.712c-1.233,1.763 -2.404,3.255 -3.221,4.571c-1.708,2.596 -2.683,4.084 -2.683,4.084l-0.629,-0.346c-0,-0 0.808,-1.596 2.225,-4.392c0.667,-1.425 1.683,-3.033 2.767,-4.937c1.05,-1.925 2.491,-3.934 3.933,-6.225c1.579,-2.188 3.225,-4.625 5.208,-7.021c0.954,-1.225 1.963,-2.467 3.075,-3.667c1.088,-1.221 2.175,-2.496 3.388,-3.687c2.358,-2.459 4.904,-4.909 7.658,-7.205c1.363,-1.166 2.758,-2.32 4.217,-3.4c1.429,-1.133 2.921,-2.187 4.421,-3.229c2.975,-2.133 6.1,-4.046 9.204,-5.896c0.775,-0.445 1.55,-0.879 2.329,-1.304c-18.971,-14.279 -46.042,-12.687 -63.188,4.671c0,0 -40.895,36.538 -6.595,116c0.858,1.992 3.658,2.113 4.662,0.192c3.208,-6.15 9.679,-16.821 19.392,-24.904c6.591,-5.488 14.775,-8.559 23.275,-9.705c11.541,-1.55 22.625,-7.283 30.796,-17.187c13.958,-16.921 14.637,-40.479 2.316,-58.033c1.484,-0.45 2.959,-0.888 4.417,-1.284c3.092,-0.929 6.108,-1.741 8.979,-2.508c1.442,-0.363 2.838,-0.742 4.208,-1.046c1.359,-0.367 2.688,-0.637 3.959,-0.937c10.2,-2.205 17.371,-3.155 17.371,-3.155l0.066,-0.712c0,-0 -1.762,-0.596 -4.925,-1.1" style="fill:#4e6b5f;fill-rule:nonzero;"/></g></svg>