<?xml version="1.0" encoding="UTF-8" standalone="no"?><!DOCTYPE svg PUBLIC "-//W3C//DTD SVG 1.1//EN" "http://www.w3.org/Graphics/SVG/1.1/DTD/svg11.dtd"><svg width="100%" height="100%" viewBox="0 0 487 586" version="1.1" xmlns="http://www.w3.org/2000/svg" xmlns:xlink="http://www.w3.org/1999/xlink" xml:space="preserve" xmlns:serif="http://www.serif.com/" style="fill-rule:evenodd;clip-rule:evenodd;stroke-linejoin:round;stroke-miterlimit:2;"><g><g transform="matrix(4.16667,0,0,4.16667,-1732.11,-4471.7)"><text x="450.943px" y="1200.2px" style="font-family:'LucidaGrande', 'Lucida Grande', sans-serif;font-weight:500;font-size:11.09px;fill:#a09b7e;">F<tspan x="456.647px 462.53px 466.825px 476.937px 480.204px 486.974px " y="1200.2px 1200.2px 1200.2px 1200.2px 1200.2px 1200.2px ">arm To</tspan></text><text x="446.119px" y="1213.51px" style="font-family:'LucidaGrande', 'Lucida Grande', sans-serif;font-weight:500;font-size:11.09px;fill:#a09b7e;">Y<tspan x="452.721px 459.226px 465.801px 470.031px 473.232px 481.231px 487.736px 494.24px " y="1213.51px 1213.51px 1213.51px 1213.51px 1213.51px 1213.51px 1213.51px 1213.51px ">our Door</tspan></text></g><path d="M54.221,78.861c87.388,-93.125 190.03,-104.775 293.275,-29.612c103.246,75.162 155.771,198.554 80.609,301.8c-75.163,103.246 -222.742,80.958 -325.988,5.796c-103.246,-75.163 -143.571,-176.025 -47.896,-277.984" style="fill:#fff;fill-rule:nonzero;"/><path d="M15.881,188.11c-0.146,4.158 -0.888,8.467 -1.45,13.004c-0.325,2.254 -0.717,4.542 -1.142,6.859c-0.333,2.329 -0.675,4.687 -1.013,7.054c-1.454,9.454 -2.158,19.308 -0.966,28.137c0.225,2.067 -1.763,-0.491 -1.138,4.204c1.621,8.559 3.084,19.471 5.834,30.667c2.625,11.204 6.47,22.679 10.875,32.383l-1.063,-0.883c0.85,1.846 2.208,3.671 3.65,5.454c1.538,1.729 3.088,3.446 4.167,5.292c-0.25,0.217 -1.138,-0.883 -0.963,0.2c1.292,0.425 4.909,6.004 6.584,7c0.729,1.567 -0.046,1.967 1.07,3.892l2.463,1.141c6.225,3.475 11.096,12.171 19.05,17.159c-0.513,-0.08 -1.35,-0.496 -0.946,0.158c12.317,8.304 27.604,18.558 42.742,25.075c-0.763,0.079 -1.638,0.467 -0.954,1.279c1.266,-0.742 5.958,1.208 10.07,2.754c1.384,1.829 7.33,2.013 11.921,4.363l-0.508,0.1c4.017,0.125 5.037,2.704 8.467,2.275l1.979,1.658c2.133,-1.108 4.946,2.621 8.233,2.713l0.008,-0.367c2.967,0.437 4.205,1.696 6.93,2.196l0.195,0.266c6.321,1.342 9.75,3.084 9.917,1.792c1.929,1.6 -6.175,-1.096 -3.125,1.296c20.938,4.087 42.483,8.042 63.821,9.804c2.375,0.775 3.917,0.963 4.425,1.521c2.154,-0.154 8.071,0.283 10.046,-0.354c-0.717,0.004 1.354,0.716 2.483,0.816c3.896,0.605 4.296,-1.345 8.554,-0.65c-1.704,0.325 -2.287,0.734 -1.729,1.246c3.675,-0.962 8.546,-0.908 12.854,-1.25c-0.666,0.234 -1.708,0.371 -1.537,0.788c4.691,-1.229 8.621,-0.063 12.725,-0.946l-1.509,0.833c6.717,0.625 1.871,-1.704 7.646,-1.546c-1.362,0.35 -0.854,0.613 -1.083,0.942c5.267,-1.7 13.912,-2.171 19.175,-3.275c-0.304,0.142 -0.196,0.338 -0.196,0.338c5.733,-1.021 11.854,-1.367 18.021,-3.242c2.354,-0.092 -0.4,1.987 5.629,0.567c-0.529,-1.446 10.083,-2.946 6.146,-3.842c5.196,-0.796 13.342,-2.571 16.571,-3.992c-2.096,1.259 3,1.079 -1.171,2.446c1.162,0.029 2.296,-0.033 3.45,-0.062c-0.288,0.766 -3.338,0.812 -2.1,1.266c2.108,-0.716 8.062,-3.246 10.021,-3.6c3.558,-2.275 6.504,-5.125 12.512,-7.721c-2.629,1.746 2.259,0.905 0.413,1.963l7.316,-6.25c1.934,-0.992 0.93,0.912 3.613,-0.8c-0.321,-0.3 0.812,-1.113 1.537,-1.821c0.405,-0.096 2.4,-1.146 4.488,-2.046c2.046,-0.987 4.167,-1.862 4.946,-1.408c1.129,0.079 -2.992,1.958 -0.604,1.3c3.55,-1.938 3.495,-2.408 6.987,-4.417l0.167,0.138c2.408,-1.184 6.391,-4.592 3.475,-3.825c-1.604,0.904 1.075,0.425 -1.492,1.45c1.129,-1.759 5.058,-4.221 8.296,-6.554c-0.992,0.966 -0.633,1.212 -0.854,1.883c1.904,-2.008 3.971,-3.879 6.146,-5.713c2.108,-1.912 4.266,-3.866 6.483,-5.875c-0.367,-0.629 -0.958,2.384 -1.9,2.613c3.417,-1.854 6.237,-4.683 8.896,-7.4c2.754,-2.621 5.121,-5.354 7.933,-7.029c-0.662,0.816 -1.121,-0.346 -0.929,-0.25c2.683,-2.5 3.396,-1.575 4.721,-3.634c0.604,0.25 1.9,-2.362 3.421,-4.3c0.525,-1.229 0.658,-0.27 -0.746,1.359c2.191,-2.725 9.937,-13.992 15.033,-20.075c-0.346,-0.059 1.279,-4.942 2.263,-6.434l0.45,1.096c1.345,-1.125 3.116,-5.216 3.887,-5.133c1.088,-3.875 -6.858,13.362 -4.908,8.392c1.391,-0.755 2.508,-7.038 3.033,-5.405c1.938,-3.129 2.413,-6.862 4.875,-9.512c-0.6,0.825 -0.196,3.237 1.117,0.567c2.212,-4.734 0.262,-1.525 1.725,-5.505l0.7,-2.587c-0.779,-0.525 1.971,-4.2 0.241,-2.829c1.105,-0.246 2.2,-7.2 3.48,-6.167l0.895,1.096c0.68,-2.167 0.042,-3.913 0.13,-5.738c0.204,-0.237 0.637,-0.72 0.783,-0.554c-1.617,-0.883 1.625,-5.121 0.987,-8.071c2.067,-4.312 2.667,-11.608 4.375,-13.541c0.096,-3.684 -0.154,-7.063 0.884,-11.092c0.05,0.838 -0.067,1.967 0.296,2.25c0.916,-2.504 0.591,-3.204 0.475,-5.604c0.225,0.567 1.554,-5.067 2.479,-7.933c-0.309,-3.667 -1.438,-2.471 -2.013,-2.867c1.917,-3.242 -0.746,-10.158 0.642,-14.267c0.287,1.234 1.046,5.254 1.421,2.242c1.646,-3.379 -1.334,-6.654 -1.05,-11.983l-1.4,1.416c0.725,-2.433 -1.567,-7.658 0.021,-7.287c-0.734,-1.692 -0.425,-6.254 -1.784,-5.459c0.096,-4.404 -1.271,-9.533 -2.312,-14.27c-1.242,-4.696 -2.284,-8.996 -1.829,-11.967c-0.65,-1.104 -1.438,-4.142 -1.95,-3.288c-0.1,2.221 1.516,2.55 1.233,3.459c-0.408,-1.046 -0.875,-1.15 -1.108,-1.196c-0.563,-2.65 -1.171,-4.717 0.837,-2.692c-1.092,-6.087 -4.471,-4.991 -6.858,-12.229c0.671,0.083 0.741,-0.583 -0.325,-2.567l-2.813,-3.362c-1.95,-4.538 0.004,-3.154 0.884,-3.733c-1.292,-2.338 -2.984,-5.15 -4.213,-5.838l-0.458,-3.479c0.341,2.542 -1.588,-1.613 -2.55,-2.496l0.896,0.925c0.104,-0.646 -1.792,-3.108 -2.742,-4.35c-0.342,0.658 1.129,3.442 1.896,4.979c-1.125,-0.904 -2.171,-2.737 -3.588,-3.95c1.154,-0.037 -1.654,-4.083 -2.883,-5.8c-1.238,-2.096 -2.338,-1.683 -2.721,-2.275c0.396,-0.362 -2.233,-3.25 -0.537,-2.162c0.62,0.571 0.687,1.833 1.862,2.666c-0.612,-1.52 0.233,-1.92 -2.246,-4.216c-1.912,-1.688 -1.183,1.704 -3.621,-2.375c0.98,0.812 1.442,0.737 2.334,1.262l-2.375,-3.787l-0.838,0.433c-0.196,-0.612 0.125,-0.342 0.05,-0.637c-0.796,-0.205 -1.912,-1.475 -3.016,-2.7c-1.167,-1.18 -2.325,-2.309 -3.067,-2.317c-1.563,-1.592 -2.638,-3.942 -4.017,-5.583l0.346,0.237c-1.442,-2.233 -4.154,-4.467 -6.133,-5.575l0.225,-0.062c-0.909,-1.109 -3.517,-3.267 -5.2,-4.067c-2.179,-2.95 1.458,-3.417 -2.279,-5.263c-2.821,-2.391 -5.521,-2.416 -4.759,-1.025c-4.604,-4.775 -11.441,-8.091 -15.575,-12.775c-0.996,-0.233 -0.641,0.3 -2.366,-0.633c-7.68,-5.929 -17.688,-10.062 -23.525,-15.392c2.666,0.988 0.62,-0.733 0.812,-1.216c-2.458,-0.354 -2.075,-2.063 -3.487,-1.196c-0.188,0.85 -0.58,1.104 1.67,2.667c-2.666,-1.134 -5.916,-2.75 -8.85,-4.284c-2.975,-1.462 -5.591,-2.925 -6.879,-3.971c1.288,1.046 0.059,0.742 -1.187,0.43c0.962,-1.071 -2.863,-3.009 -6.029,-3.825l-0.742,0.57l-1.596,-1.6c-1.254,-0.233 -1.896,0.988 -4.571,-0.908c-0.033,-0.35 -0.087,-0.712 -0.55,-1.142c-3.391,-0.55 -8.096,-1.316 -11.3,-3.087l-2.408,-2.092c-1.513,-0.383 -4.196,-0.554 -1.738,0.659c-5.575,-2.775 -9.437,-3.83 -11,-5.455c-10.941,-0.712 -25.854,-4.27 -38.012,-6.616l0.467,-0.529c-3.18,-1.084 -1.888,0.795 -4.105,0.037c1.167,-0.421 -2.3,-1.604 0.409,-1.937c-4.621,-1.313 -6.246,0.17 -9.338,0.004c-0.575,0.725 2.529,-0.154 1.796,0.766c-0.562,0.209 -6.417,-1.554 -7.296,-0.454c-1.116,-0.641 -0.1,-1.396 0.6,-1.791l-2.95,0.17c-3.379,-1.92 8.35,-1.354 4.867,-3.62l-2.713,-0.196c-2.42,-1.629 7.3,-0.4 0.588,-1.8c-3.017,0.166 -5.696,1.558 -3.154,2.462c-6.117,-0.304 -3.113,2.625 -9.596,2.034c-1.725,-0.834 5.217,0.183 4.058,-0.896c-2.996,-1.184 -6.216,0.125 -8.912,-0.404c3,0.662 0.354,1.712 -1.6,1.8c-3.271,-0.8 2.204,-1 -2.467,-1.446c-0.812,0.646 -5.117,0.875 -1.429,1.616c-0.875,0.734 -2.075,0.542 -3.388,0.296c-1.308,-0.179 -2.729,-0.325 -4,0.296c-1.516,-1.092 4.859,-2.646 -0.283,-3.133c0.792,1.066 -6.35,1.546 -3.633,3.108c-2,-0.283 -2.225,-1.129 -0.763,-1.808c-2.904,-0.621 -6.912,2.054 -7.929,-0.067l-0.942,1.108c-0.929,-0.287 -2.187,-0.675 -3.712,-1.15c-2.533,0.242 -7.971,2.309 -7.896,0.634c-0.792,0.254 -6.542,0.754 -4.196,1.675c3.625,0.337 4.009,-1.25 6.125,0.1c-2.616,-1.009 -5.1,0.679 -7.087,1.304l-0.409,-0.604c-1.187,0.371 -4.016,0.516 -4.675,1.275c0.875,-0.454 0.334,-0.842 -0.662,-0.896c-0.383,0.346 -0.75,0.762 -1.121,1.167c-4.771,1.445 -1.412,-1.467 -6.117,-0.246l3.488,-1.463c-0.763,0.317 -2.546,-0.258 -4.783,0.492c-0.73,1.054 -2.175,2.425 -2.788,3.254c-2.575,0.9 -1.408,-0.75 -3.829,0.658l3.212,-1.725c0.463,-0.387 -2.637,-0.979 -6.241,-0.25c-2.25,0.713 -5.309,3.2 -1.704,2.546c-1.734,0.542 -4.317,0.759 -3.1,-0.287c-3.875,1.491 0.762,0.766 -2.484,2.329c-1.546,-0.15 -6.129,0.35 -9.054,0.329l3.133,-2.5l-2.408,0.713c2.75,-2.08 -1.871,-0.388 -0.508,-2.113c-1.704,0.358 -3.638,1.221 -5.042,2.221c5.317,-0.004 -4.233,4.737 -2.187,5.904c-6,3.058 -5.671,-2.475 -11.059,2.9c1.271,-0.012 -1.204,2.538 2.5,0.417c-3.966,1.437 -1.891,2.654 -6.521,4.366c2.875,-2.45 -4.312,0.246 -0.141,-3.304c-0.025,0.754 2.775,-1.104 3.512,-1.471c-1.904,0.08 -0.525,-1.945 -4.366,0.163c-2.263,1.446 -5.455,3.237 -4.53,3.825c0.6,0.871 3.496,-2.054 2.509,-0.292c-4.425,2.85 -6.004,1.888 -6.971,4.546c2.837,-1.717 4.092,-1.171 4.392,-0.512l-3.121,2.212l0.291,-0.958c-5.583,2.583 -1.058,1.741 -6.012,4.937l-3.038,0.434c0.48,-1.859 7.409,-4.455 5.575,-5.417c-3.412,1.896 -3.804,3.658 -7.125,5.275c0.575,-0.608 1.463,-1.283 2.034,-1.892c-1.167,0.734 -3.784,-0.571 -7.517,3.859c-2.021,2.12 -0.212,0.991 0.158,1.616c-1.25,0.934 -2.254,1.738 -3.108,2.454c-0.812,0.771 -1.429,1.513 -2.025,2.163c-1.179,1.321 -2.15,2.446 -3.629,3.8c-0.292,-1.621 -5.458,4.537 -3.054,0.542c1.054,-0.359 3.271,-2.03 5.325,-3.921c1.029,-0.95 2.021,-1.959 2.808,-2.884c0.863,-0.833 1.517,-1.595 1.771,-2.183c-2.888,-0.037 4.192,-2.629 4.325,-4.796c-4.192,2.875 -4.979,1.404 -6.304,1.013c-1.221,0.766 -2.104,1.9 -2.671,2.554c0.146,1.162 1.625,0.033 2.362,0.829c-4.616,3.313 -8.3,7.488 -10.016,10.204c-1.767,0.859 -2.009,-0.275 -0.367,-1.821c-5.154,4.409 -9.858,9.934 -14.6,14.321c4.083,-1.904 -4.629,5.467 -1.642,4.317c2.642,-2.25 5.517,-3.571 4.792,-1.713c-1.537,1.467 -0.496,-0.537 -1.371,-0.129c-1.171,2.554 -4.05,2.067 -4.533,5.154c3.358,-5.175 -0.8,-2.25 -1.117,-3.991c-2.187,4.016 -0.591,-0.75 -3.316,2.762c-2.196,4.013 -5.105,8.679 -7.905,12.759c-4.337,4.583 -8.62,13.254 -11.395,18.045c-1.93,2.259 -2.292,-0.225 -4,2.48c-1.717,3.32 2.683,-1.688 -0.488,2.883l-0.008,-0.608c-0.471,1.625 -5.629,8.537 -4.492,10.912l-0.637,-2.212c-0.613,0.85 -0.73,1.862 -0.975,2.691c-0.488,-0.191 -1.48,0.675 -0.996,-0.966c-2.525,2.604 -2.746,6.683 -4.217,10.095l1.813,-1.816c-1.784,6.162 -4.517,9.637 -6.392,15.516l-0.808,-0.504l-0.688,3.659c-0.546,-1.159 -2.2,1.833 -2.133,3.925l1.033,-9.846c1.454,-2.296 0.046,3.137 1.488,1.9c1.1,-1.092 3.27,-6.367 2.775,-7.579c-0.967,1.975 -0.821,2.154 -1.184,3.837c-1.483,0.188 -0.116,-2.854 -0.254,-4.704c-0.408,1.079 -1.421,2.446 -1.142,2.821c0.313,-2.313 1.134,-4.463 2.609,-7.959c-0.559,2.559 1.279,-0.962 1.233,0.08c-0.921,-0.73 0.196,-4.2 2.338,-8.367c2.554,-2.471 3.295,-8.179 6.12,-12.863c-0.016,2.496 -0.508,5.396 -1.62,8.505c2.091,-2.73 1.725,-3.35 3.82,-6.075c0.005,-1.846 -0.6,-3.513 1.021,-7.705l0.85,0.209c1.471,-3.788 0.629,-4.3 3.538,-8.563c2.554,-3.608 5.05,-7.316 7.375,-10.825c2.533,-3.362 5.05,-6.416 7.133,-9.058l0.817,0.321c0.433,-2.034 2.225,-4.609 4.208,-7.229c2.121,-2.513 4.625,-4.9 6.042,-7.03c3.316,-2.787 6.162,-6.533 9.225,-9.341c3.054,-2.809 5.783,-5.221 7.921,-6.109c11.05,-10.4 22.233,-17.979 36.35,-25.058l-1.771,2.375c2.083,-2.121 1.866,-0.35 4.291,-1.629c-3.345,0.337 2.975,-2.629 4.492,-4.083c3.438,-0.921 7.117,-2.488 10.646,-4.23c3.6,-1.537 7.15,-2.979 10.017,-4.333l0.475,0.738c2.8,-1.634 6.1,-2.813 9.691,-3.517c3.638,-0.538 7.496,-0.879 11.363,-1.508c0.954,0.17 2.479,0.683 4.741,0.137c3.93,-2.304 6.209,-2.092 12.317,-3.671c4.55,-0.425 11.954,-1.041 16.596,-0.329c8.517,-1.067 17.237,-1.571 25.946,-0.762c4.366,0.258 8.754,0.52 13.158,0.783c4.371,0.546 8.767,1.037 13.217,1.383l1.125,1.167c17.475,0.129 37.721,7.175 52.029,10.571l-1.863,1.208c4.255,1.771 10.105,2.829 9.392,1.308c2.104,1.009 4.908,1.746 7.471,2.546c2.533,0.879 4.837,1.788 5.954,2.967c4.308,1.971 5.688,1.383 9.404,2.746c4.267,2.121 7.184,3.571 10.038,4.991c2.866,1.409 5.787,2.53 9.808,4.53l-1.921,-1.125c-1.046,-0.13 -1.441,0.479 0.484,1.608c3.183,1.104 10.62,6.146 8.675,2.787c7.77,5.68 19.82,10.617 26.512,17.438c-0.337,-0.892 1.688,0.329 2.692,0.654c6.833,5.042 13.021,11.483 18.641,15.333c0.809,1.117 -2.208,-0.75 0.288,1.621c1.646,1.221 0.521,-0.5 2.583,0.967c10.859,8.629 18.738,20.683 26.275,30.579c14.179,17.267 24.071,39.042 29.725,59.717l-0.458,-0.129c3.517,6.587 2.2,16.695 5.258,21.987c-0.046,1.729 0.629,6.471 -0.296,5.3c1.721,5.608 0.284,15.954 1.384,24.158c0.062,-0.754 -0.009,-1.191 -0.159,-2.066c-1.045,8.266 -0.312,15.666 -2.25,24.254c-0.05,-0.9 0.084,-2.504 -0.312,-2.808c-1.233,3.204 0.525,8.137 -1.683,9.658c-0.267,1.904 0.766,1.525 0.887,0.337c-3.675,18.75 -9.233,38.717 -18.508,56.688c-8.363,11.804 -3.25,-0.913 -7.854,9.525c-0.825,0.554 0.25,0.962 -0.175,0.871c-2.075,3.9 -5.696,4.283 -6.596,7.346c1.716,-0.275 -0.65,2.02 -0.167,2.508c-3.058,3.171 -5.062,4.908 -6.75,6.592c-1.8,1.6 -3.279,3.141 -5.267,5.983l-0.112,-0.813c-4.15,7.192 -11.792,12.717 -15.738,18.663c-17.312,14.258 -36.408,25.396 -56.391,33.821c-19.979,8.454 -40.842,14.283 -62.184,17.825c-21.162,3.125 -42.291,4.625 -63.475,4.062c-21.166,-0.441 -42.429,-2.929 -63.475,-7.725c-4.8,-1.733 -7.333,-2.841 -10.079,-3.541c-2.741,-0.713 -5.662,-1.188 -11.112,-2.288c0.5,-0.15 1.191,-0.033 0.537,-0.467c-0.887,1.196 -7.596,-1.825 -8.954,-0.933c-15.292,-4.675 -29.383,-9.3 -44.462,-16.308c2.445,0.979 4.095,0.516 1.241,-0.717l-3.325,-0.592l-0.316,-0.566c-2.025,-0.688 -4.384,-1.213 -2.617,0.212c-9.504,-4.437 -18.642,-9.666 -27.292,-15.633c-8.591,-6.058 -16.621,-12.929 -23.962,-20.458c-14.634,-15.13 -26.104,-33.242 -33.55,-52.775c-3.067,-9.446 -6.975,-22.984 -8.525,-33.646c-1.05,-15.917 0.154,-30.871 2.387,-45.529c2.263,-14.671 5.571,-29.096 9.567,-44.263c-0,0 0.558,1.25 0.779,4.054c0.296,2.829 -0.071,7.1 -1.087,13.421" style="fill:#aca88e;fill-rule:nonzero;"/><path d="M205.641,306.545c-9.329,-0 -16.891,-7.563 -16.891,-16.892c-0,-9.325 7.562,-16.888 16.891,-16.888c9.33,0 16.892,7.563 16.892,16.888c0,9.329 -7.562,16.892 -16.892,16.892m0,-53.509c-20.225,0 -36.616,16.396 -36.616,36.617c-0,20.225 16.391,36.617 36.616,36.617c20.221,-0 36.617,-16.392 36.617,-36.617c0,-20.221 -16.396,-36.617 -36.617,-36.617" style="fill:#4e6b5f;fill-rule:nonzero;"/><path d="M302.931,306.545c-9.329,-0 -16.891,-7.563 -16.891,-16.892c-0,-9.325 7.562,-16.888 16.891,-16.888c9.33,0 16.892,7.563 16.892,16.888c0,9.329 -7.562,16.892 -16.892,16.892m0,-53.509c-20.22,0 -36.616,16.396 -36.616,36.617c-0,20.225 16.396,36.617 36.616,36.617c20.225,-0 36.617,-16.392 36.617,-36.617c0,-20.221 -16.392,-36.617 -36.617,-36.617" style="fill:#4e6b5f;fill-rule:nonzero;"/><path d="M302.931,278.554c-6.129,-0 -11.1,4.971 -11.1,11.1c0,6.129 4.971,11.1 11.1,11.1c6.13,-0 11.1,-4.971 11.1,-11.1c0,-6.129 -4.97,-11.1 -11.1,-11.1" style="fill:#4e6b5f;fill-rule:nonzero;"/><path d="M205.641,278.554c-6.129,-0 -11.1,4.971 -11.1,11.1c0,6.129 4.971,11.1 11.1,11.1c6.13,-0 11.1,-4.971 11.1,-11.1c0,-6.129 -4.97,-11.1 -11.1,-11.1" style="fill:#4e6b5f;fill-rule:nonzero;"/><path d="M342.653,227.447l-9.087,0c-14.688,0 -26.596,-11.908 -26.596,-26.596l-0,-25.821c-0,-0.683 0.554,-1.241 1.241,-1.241l26.009,-0c0.608,-0 1.125,0.441 1.225,1.041l8.433,51.171c0.125,0.759 -0.458,1.446 -1.225,1.446m-95.046,-47.5c-5.237,6.471 -14.283,8.046 -21.312,4.113l-0,-0.009c0.633,-0.454 1.271,-1.021 1.966,-1.6c0.3,-0.254 0.596,-0.537 0.905,-0.816c0.304,-0.284 0.625,-0.559 0.925,-0.871c0.612,-0.613 1.25,-1.229 1.845,-1.909c0.3,-0.337 0.613,-0.666 0.913,-1.012c0.287,-0.35 0.579,-0.704 0.867,-1.058c0.383,-0.442 0.729,-0.909 1.07,-1.38c0.209,-0.254 0.4,-0.512 0.592,-0.775c-0.008,0 -0.012,-0.004 -0.021,-0.008l0.004,-0.004c0.134,-0.179 0.263,-0.363 0.392,-0.542c0.004,-0.004 0.008,-0.008 0.008,-0.008c0.363,-0.558 0.713,-1.104 1.055,-1.638c0.112,-0.179 0.225,-0.354 0.341,-0.529c0.1,-0.183 0.2,-0.362 0.3,-0.541c0.2,-0.355 0.392,-0.705 0.584,-1.042c0.183,-0.342 0.383,-0.663 0.533,-0.996c0.158,-0.329 0.308,-0.646 0.454,-0.954c0.142,-0.304 0.279,-0.596 0.413,-0.875c0.129,-0.279 0.258,-0.538 0.35,-0.796c0.2,-0.512 0.37,-0.954 0.512,-1.321c0.283,-0.729 0.446,-1.146 0.446,-1.146c-0,0 -0.217,0.392 -0.596,1.075c-0.187,0.342 -0.417,0.759 -0.679,1.234c-0.121,0.237 -0.288,0.479 -0.45,0.733c-0.167,0.254 -0.342,0.525 -0.521,0.8c-0.179,0.279 -0.367,0.571 -0.562,0.871c-0.192,0.304 -0.43,0.592 -0.655,0.896c-0.225,0.304 -0.458,0.616 -0.7,0.933c-0.116,0.163 -0.237,0.325 -0.358,0.483c-0.133,0.155 -0.267,0.313 -0.4,0.467c-0.267,0.317 -0.542,0.633 -0.817,0.958c-0.133,0.163 -0.27,0.321 -0.408,0.484c-0.075,0.079 -0.154,0.162 -0.229,0.241c-0.683,0.684 -1.329,1.425 -2.067,2.08c-0.321,0.295 -0.637,0.591 -0.958,0.887c-0.321,0.292 -0.663,0.563 -0.988,0.838c-0.645,0.566 -1.325,1.062 -1.97,1.558c-0.317,0.25 -0.655,0.471 -0.975,0.692c-0.321,0.225 -0.63,0.445 -0.942,0.65c-0.629,0.391 -1.208,0.783 -1.771,1.095c-0.554,0.33 -1.071,0.609 -1.529,0.85c-0.05,0.025 -0.096,0.05 -0.142,0.075l-0.004,-0.004c-1.117,0.471 -2.317,1.063 -3.562,1.796c-0.755,0.446 -1.596,1.033 -2.496,1.729c-5.138,3.975 -8.396,9.846 -9.396,16.267c-0.713,4.592 -3.225,9.725 -5.671,12.292c-0.112,0.12 -0.229,0.237 -0.346,0.35c-0.525,0.5 -1.029,1.008 -1.487,1.57c-3.429,4.163 -9.354,10.771 -5.779,5.075c0.458,-0.725 0.845,-1.395 1.179,-2.008c0.412,-0.758 -0.15,-1.679 -1.013,-1.65l-0.004,0c-0.3,0.008 -0.583,0.133 -0.796,0.35c-4.046,4.075 -10.129,9.729 -5.966,4.317c1.183,-1.538 2.025,-2.817 2.629,-3.892c0.346,-0.617 0.079,-1.4 -0.567,-1.687l-0.017,-0.009c-0.266,-0.116 -0.57,-0.129 -0.845,-0.033c-1.488,0.517 -3.684,1.567 -7.567,5.646c-5.158,5.425 0.571,-2.829 4.121,-7.55c0.337,-0.446 0.337,-1.059 0.004,-1.509l-0.013,-0.02c-0.45,-0.609 -1.316,-0.721 -1.904,-0.238c-0.937,0.771 -2.021,1.775 -3.283,3.104c-4.713,4.954 -0.333,-1.512 3.167,-6.266c0.162,-0.221 0.22,-0.496 0.166,-0.767l-0.004,-0.017c-0.133,-0.637 -0.858,-0.946 -1.412,-0.604c-0.775,0.475 -1.65,1.088 -2.65,1.888c-3.655,2.925 -1.384,-0.034 1.379,-3.175c1.483,-1.684 2.721,-3.559 3.812,-5.521c0.434,-0.771 0.967,-1.504 1.609,-2.179c2.35,-2.471 7.066,-5.13 11.475,-6.167c4.295,-1.017 8.241,-3.188 11.441,-6.233c3.263,-3.109 6.417,-5.655 8.359,-6.78c0.991,-0.575 1.958,-1.07 2.887,-1.495c-3.758,-5.559 -3.892,-12.9 0,-18.709c2.504,-3.733 6.163,-6.108 10.129,-7.05c2.917,-0.691 5.663,-2.046 7.767,-4.183c3.1,-3.15 4.987,-7.088 5.892,-9.342c0.283,-0.7 1.258,-0.758 1.629,-0.091c14.687,26.479 1.712,40.612 1.712,40.612m116.721,69.558c-0.004,-0.045 0.017,-0.087 0.013,-0.133l-0.721,-5l-9.763,-67.85c-0.008,-0.054 -0.012,-0.108 -0.012,-0.158c-0.042,-14.721 -12.096,-26.75 -26.825,-26.75l-26.738,-0c-4.775,-0 -8.641,-3.867 -8.641,-8.642l-0,0.25c-0,-15.442 -12.634,-28.075 -28.071,-28.075l-91.859,0c-15.441,0 -28.07,12.633 -28.07,28.075l-0,117.183c-0,12.496 8.658,23.067 20.275,26.009c0.704,0.179 1.408,-0.296 1.52,-1.017c3.009,-19.496 19.863,-34.425 40.205,-34.425c20.608,0 37.637,15.321 40.316,35.192c0.084,0.612 0.613,1.066 1.229,1.066l14.2,0c0.617,0 1.146,-0.454 1.23,-1.066c2.679,-19.871 19.708,-35.192 40.316,-35.192c20.396,0 37.284,15.008 40.229,34.583c0.105,0.709 0.788,1.184 1.484,1.03c6.941,-1.555 12.883,-5.821 16.658,-11.613c6.421,-0.262 11.563,-5.512 11.563,-12c-0,-5.421 -3.609,-9.954 -8.538,-11.467" style="fill:#4e6b5f;fill-rule:nonzero;"/></g></svg>