<?xml version="1.0" encoding="UTF-8" standalone="no"?><!DOCTYPE svg PUBLIC "-//W3C//DTD SVG 1.1//EN" "http://www.w3.org/Graphics/SVG/1.1/DTD/svg11.dtd"><svg width="100%" height="100%" viewBox="0 0 491 425" version="1.1" xmlns="http://www.w3.org/2000/svg" xmlns:xlink="http://www.w3.org/1999/xlink" xml:space="preserve" xmlns:serif="http://www.serif.com/" style="fill-rule:evenodd;clip-rule:evenodd;stroke-linejoin:round;stroke-miterlimit:2;"><g><path d="M54.658,79.492c88.088,-93.871 191.555,-105.612 295.625,-29.85c104.075,75.767 157.021,200.146 81.259,304.221c-75.767,104.071 -224.534,81.608 -328.604,5.842c-104.075,-75.767 -144.725,-177.434 -48.28,-280.213" style="fill:#fff;fill-rule:nonzero;"/><path d="M20.951,169.955c-1.412,4.896 1.921,-2.263 -0.641,3.291c-0.242,-0.8 -0.275,-1.841 0.641,-3.291" style="fill:#aca88e;fill-rule:nonzero;"/><path d="M16.022,189.622c-0.15,4.188 -0.904,8.534 -1.471,13.104c-0.329,2.275 -0.725,4.584 -1.154,6.913c-0.337,2.35 -0.679,4.725 -1.021,7.112c-1.462,9.534 -2.17,19.463 -0.975,28.363c0.225,2.083 -1.766,-0.496 -1.137,4.237c1.621,8.63 3.096,19.63 5.871,30.913c2.646,11.296 6.529,22.858 10.975,32.633l-1.067,-0.891c0.858,1.862 2.225,3.704 3.679,5.5c1.542,1.741 3.104,3.479 4.192,5.337c-0.25,0.217 -1.142,-0.892 -0.963,0.196c1.296,0.437 4.946,6.058 6.625,7.062c0.738,1.58 -0.033,1.98 1.092,3.917l2.475,1.154c6.258,3.517 11.188,12.263 19.196,17.304c-0.517,-0.083 -1.358,-0.504 -0.95,0.155c12.404,8.379 27.817,18.716 43.075,25.283c-0.767,0.079 -1.646,0.471 -0.954,1.283c1.271,-0.737 5.996,1.229 10.146,2.788c1.395,1.833 7.383,2.037 12.012,4.404l-0.508,0.096c4.046,0.133 5.079,2.716 8.529,2.3l2,1.666c2.146,-1.108 4.987,2.634 8.3,2.73l0.004,-0.363c2.992,0.446 4.242,1.704 6.988,2.213l0.2,0.266c6.37,1.354 9.829,3.104 9.995,1.813c1.946,1.604 -6.225,-1.109 -3.15,1.291c21.105,4.13 42.825,8.113 64.334,9.888c2.391,0.779 3.95,0.967 4.462,1.525c2.171,-0.154 8.134,0.287 10.125,-0.35c-0.725,0.004 1.363,0.717 2.504,0.817c3.925,0.608 4.325,-1.346 8.621,-0.646c-1.716,0.325 -2.308,0.729 -1.741,1.246c3.7,-0.963 8.612,-0.909 12.954,-1.25c-0.671,0.229 -1.721,0.37 -1.546,0.787c4.725,-1.229 8.687,-0.067 12.825,-0.95l-1.521,0.833c6.771,0.621 1.888,-1.704 7.704,-1.55c-1.371,0.35 -0.858,0.613 -1.087,0.946c5.308,-1.704 14.025,-2.183 19.329,-3.296c-0.308,0.142 -0.2,0.342 -0.2,0.342c5.783,-1.029 11.95,-1.383 18.171,-3.267c2.371,-0.095 -0.409,1.988 5.666,0.559c-0.529,-1.446 10.167,-2.967 6.205,-3.85c5.237,-0.809 13.445,-2.604 16.7,-4.029c-2.113,1.266 3.02,1.075 -1.184,2.445c1.171,0.03 2.317,-0.037 3.475,-0.066c-0.291,0.766 -3.362,0.816 -2.116,1.275c2.12,-0.725 8.125,-3.271 10.104,-3.629c3.587,-2.288 6.558,-5.146 12.621,-7.763c-2.655,1.754 2.27,0.9 0.408,1.963l7.383,-6.275c1.95,-1 0.934,0.912 3.638,-0.813c-0.321,-0.3 0.821,-1.117 1.554,-1.829c0.408,-0.096 2.421,-1.15 4.525,-2.063c2.058,-0.991 4.2,-1.879 4.979,-1.425c1.138,0.071 -3.017,1.971 -0.612,1.305c3.579,-1.955 3.529,-2.425 7.05,-4.45l0.162,0.137c2.429,-1.192 6.446,-4.625 3.513,-3.846c-1.617,0.913 1.079,0.421 -1.509,1.459c1.146,-1.767 5.104,-4.246 8.371,-6.6c-1,0.975 -0.642,1.22 -0.867,1.891c1.925,-2.025 4.009,-3.904 6.205,-5.754c2.125,-1.921 4.304,-3.892 6.541,-5.912c-0.371,-0.63 -0.975,2.391 -1.921,2.625c3.438,-1.871 6.288,-4.721 8.967,-7.459c2.779,-2.637 5.167,-5.396 7.996,-7.087c-0.667,0.821 -1.125,-0.342 -0.929,-0.246c2.7,-2.521 3.416,-1.596 4.75,-3.671c0.608,0.25 1.921,-2.379 3.454,-4.329c0.533,-1.242 0.662,-0.279 -0.754,1.367c2.212,-2.746 10.029,-14.1 15.162,-20.238c-0.346,-0.058 1.3,-4.975 2.292,-6.479l0.446,1.1c1.35,-1.138 3.141,-5.258 3.912,-5.179c1.109,-3.9 -6.921,13.466 -4.946,8.462c1.396,-0.766 2.538,-7.091 3.059,-5.45c1.954,-3.154 2.437,-6.912 4.916,-9.591c-0.604,0.833 -0.208,3.258 1.117,0.57c2.233,-4.775 0.271,-1.537 1.746,-5.55l0.708,-2.604c-0.783,-0.529 1.988,-4.237 0.25,-2.854c1.109,-0.25 2.221,-7.258 3.5,-6.217l0.892,1.1c0.683,-2.183 0.054,-3.941 0.142,-5.779c0.208,-0.241 0.641,-0.729 0.791,-0.558c-1.616,-0.892 1.634,-5.167 1.004,-8.133c2.075,-4.35 2.684,-11.709 4.4,-13.659c0.105,-3.708 -0.145,-7.116 0.896,-11.179c0.05,0.842 -0.066,1.979 0.292,2.267c0.921,-2.525 0.596,-3.229 0.483,-5.65c0.225,0.566 1.559,-5.113 2.484,-8.004c-0.305,-3.692 -1.438,-2.488 -2.009,-2.888c1.917,-3.267 -0.741,-10.242 0.642,-14.383c0.287,1.241 1.046,5.3 1.425,2.262c1.642,-3.404 -1.338,-6.708 -1.058,-12.083l-1.396,1.429c0.721,-2.45 -1.575,-7.721 0.012,-7.35c-0.737,-1.704 -0.433,-6.304 -1.787,-5.504c0.091,-4.438 -1.288,-9.608 -2.338,-14.388c-1.25,-4.733 -2.304,-9.07 -1.858,-12.058c-0.65,-1.117 -1.45,-4.179 -1.954,-3.321c-0.096,2.242 1.521,2.575 1.241,3.488c-0.412,-1.054 -0.879,-1.159 -1.112,-1.204c-0.575,-2.675 -1.183,-4.755 0.829,-2.713c-1.108,-6.133 -4.487,-5.037 -6.896,-12.337c0.667,0.087 0.742,-0.584 -0.337,-2.58l-2.829,-3.395c-1.963,-4.575 -0,-3.175 0.875,-3.755c-1.3,-2.358 -3.009,-5.191 -4.238,-5.891l-0.475,-3.5c0.354,2.558 -1.596,-1.629 -2.567,-2.521l0.905,0.933c0.104,-0.646 -1.809,-3.133 -2.767,-4.383c-0.338,0.658 1.15,3.467 1.921,5.012c-1.129,-0.912 -2.188,-2.758 -3.609,-3.987c1.155,-0.033 -1.675,-4.113 -2.912,-5.846c-1.254,-2.108 -2.354,-1.696 -2.738,-2.292c0.392,-0.362 -2.254,-3.279 -0.55,-2.179c0.625,0.579 0.696,1.846 1.88,2.692c-0.621,-1.538 0.225,-1.933 -2.271,-4.25c-1.925,-1.704 -1.179,1.708 -3.642,-2.404c0.988,0.821 1.45,0.75 2.346,1.279l-2.396,-3.817l-0.842,0.434c-0.195,-0.617 0.13,-0.342 0.05,-0.638c-0.795,-0.212 -1.92,-1.492 -3.033,-2.729c-1.179,-1.188 -2.346,-2.325 -3.092,-2.342c-1.575,-1.6 -2.662,-3.971 -4.054,-5.621l0.35,0.238c-1.458,-2.25 -4.191,-4.5 -6.179,-5.625l0.225,-0.058c-0.917,-1.113 -3.55,-3.292 -5.242,-4.105c-2.2,-2.97 1.45,-3.425 -2.308,-5.291c-2.846,-2.413 -5.558,-2.446 -4.787,-1.05c-4.646,-4.809 -11.534,-8.163 -15.705,-12.875c-1,-0.238 -0.641,0.3 -2.383,-0.638c-7.742,-5.979 -17.825,-10.154 -23.721,-15.516c2.692,0.995 0.621,-0.734 0.817,-1.217c-2.475,-0.363 -2.1,-2.075 -3.517,-1.213c-0.183,0.855 -0.579,1.105 1.692,2.68c-2.688,-1.142 -5.963,-2.775 -8.921,-4.321c-3,-1.471 -5.642,-2.946 -6.937,-3.996c1.295,1.046 0.058,0.742 -1.196,0.425c0.966,-1.067 -2.888,-3.025 -6.079,-3.85l-0.746,0.567l-1.613,-1.605c-1.262,-0.233 -1.904,0.984 -4.604,-0.92c-0.037,-0.35 -0.092,-0.717 -0.558,-1.146c-3.417,-0.559 -8.159,-1.342 -11.392,-3.117l-2.429,-2.1c-1.525,-0.392 -4.229,-0.571 -1.75,0.65c-5.621,-2.792 -9.517,-3.854 -11.096,-5.483c-11.021,-0.738 -26.058,-4.329 -38.312,-6.692l0.466,-0.525c-3.204,-1.087 -1.9,0.788 -4.133,0.029c1.171,-0.416 -2.321,-1.608 0.408,-1.937c-4.662,-1.317 -6.3,0.166 -9.416,-0.004c-0.575,0.725 2.55,-0.15 1.812,0.77c-0.562,0.209 -6.471,-1.562 -7.354,-0.466c-1.125,-0.642 -0.1,-1.396 0.604,-1.788l-2.971,0.163c-3.412,-1.921 8.413,-1.346 4.896,-3.613l-2.733,-0.2c-2.442,-1.633 7.358,-0.391 0.591,-1.8c-3.041,0.167 -5.737,1.554 -3.175,2.463c-6.166,-0.313 -3.137,2.621 -9.675,2.025c-1.737,-0.834 5.263,0.187 4.092,-0.896c-3.021,-1.183 -6.267,0.121 -8.987,-0.408c3.029,0.666 0.362,1.712 -1.609,1.8c-3.3,-0.8 2.225,-1 -2.487,-1.446c-0.817,0.646 -5.159,0.871 -1.442,1.616c-0.879,0.734 -2.092,0.538 -3.412,0.292c-1.321,-0.179 -2.755,-0.325 -4.038,0.296c-1.529,-1.092 4.9,-2.646 -0.283,-3.133c0.796,1.066 -6.4,1.55 -3.663,3.108c-2.016,-0.283 -2.241,-1.125 -0.766,-1.808c-2.93,-0.617 -6.971,2.054 -7.996,-0.067l-0.95,1.112c-0.938,-0.287 -2.204,-0.679 -3.742,-1.15c-2.554,0.242 -8.037,2.317 -7.958,0.638c-0.804,0.254 -6.6,0.762 -4.234,1.679c3.65,0.338 4.042,-1.254 6.175,0.092c-2.641,-1.004 -5.145,0.687 -7.15,1.312l-0.408,-0.6c-1.2,0.367 -4.05,0.517 -4.717,1.279c0.884,-0.458 0.342,-0.841 -0.666,-0.9c-0.388,0.35 -0.759,0.767 -1.129,1.171c-4.813,1.454 -1.425,-1.462 -6.167,-0.237l3.517,-1.471c-0.771,0.321 -2.567,-0.254 -4.825,0.504c-0.734,1.054 -2.196,2.429 -2.813,3.258c-2.6,0.905 -1.417,-0.745 -3.862,0.663l3.241,-1.729c0.471,-0.388 -2.658,-0.975 -6.291,-0.242c-2.267,0.717 -5.355,3.213 -1.721,2.55c-1.746,0.55 -4.35,0.771 -3.125,-0.279c-3.904,1.504 0.771,0.767 -2.504,2.337c-1.559,-0.145 -6.18,0.367 -9.125,0.35l3.162,-2.508l-2.429,0.717c2.775,-2.084 -1.883,-0.384 -0.504,-2.113c-1.721,0.363 -3.667,1.229 -5.088,2.234c5.359,-0.017 -4.271,4.758 -2.216,5.92c-6.05,3.08 -5.705,-2.462 -11.146,2.934c1.283,-0.017 -1.221,2.546 2.516,0.412c-4,1.45 -1.912,2.663 -6.579,4.392c2.9,-2.463 -4.341,0.262 -0.133,-3.308c-0.025,0.754 2.796,-1.117 3.542,-1.484c-1.917,0.084 -0.521,-1.95 -4.396,0.175c-2.279,1.454 -5.5,3.267 -4.571,3.85c0.6,0.871 3.525,-2.071 2.525,-0.304c-4.463,2.875 -6.05,1.913 -7.033,4.583c2.862,-1.733 4.125,-1.191 4.425,-0.529l-3.15,2.225l0.3,-0.958c-5.63,2.608 -1.075,1.75 -6.071,4.971l-3.054,0.446c0.487,-1.867 7.466,-4.496 5.625,-5.455c-3.438,1.913 -3.838,3.684 -7.188,5.317c0.583,-0.608 1.479,-1.292 2.054,-1.904c-1.179,0.746 -3.8,-0.558 -7.571,3.9c-2.041,2.133 -0.22,0.996 0.15,1.621c-1.262,0.941 -2.275,1.75 -3.133,2.471c-0.821,0.775 -1.446,1.525 -2.046,2.179c-1.187,1.329 -2.171,2.462 -3.658,3.829c-0.288,-1.625 -5.508,4.575 -3.075,0.558c1.062,-0.366 3.296,-2.05 5.367,-3.962c1.037,-0.954 2.037,-1.967 2.833,-2.904c0.871,-0.834 1.533,-1.605 1.792,-2.196c-2.905,-0.025 4.225,-2.65 4.366,-4.825c-4.225,2.9 -5.012,1.429 -6.346,1.037c-1.225,0.779 -2.116,1.917 -2.691,2.575c0.141,1.163 1.629,0.025 2.375,0.821c-4.659,3.342 -8.375,7.546 -10.113,10.283c-1.775,0.867 -2.012,-0.27 -0.358,-1.829c-5.196,4.442 -9.938,10.013 -14.717,14.438c4.109,-1.925 -4.671,5.512 -1.666,4.341c2.662,-2.266 5.554,-3.608 4.812,-1.737c-1.546,1.479 -0.492,-0.538 -1.371,-0.125c-1.187,2.571 -4.075,2.092 -4.571,5.196c3.388,-5.213 -0.795,-2.254 -1.108,-4.009c-2.208,4.05 -0.587,-0.75 -3.337,2.796c-2.213,4.042 -5.15,8.742 -7.975,12.854c-4.367,4.625 -8.692,13.359 -11.488,18.192c-1.946,2.275 -2.296,-0.217 -4.017,2.508c-1.733,3.346 2.692,-1.708 -0.495,2.9l-0.009,-0.612c-0.479,1.637 -5.666,8.612 -4.537,11l-0.629,-2.225c-0.617,0.858 -0.742,1.875 -0.988,2.708c-0.487,-0.191 -1.483,0.688 -0.996,-0.971c-2.533,2.634 -2.766,6.742 -4.25,10.184l1.821,-1.838c-1.804,6.213 -4.55,9.713 -6.446,15.642l-0.804,-0.504l-0.7,3.687c-0.542,-1.166 -2.208,1.85 -2.146,3.954l1.063,-9.916c1.458,-2.317 0.033,3.158 1.479,1.908c1.104,-1.104 3.296,-6.417 2.8,-7.637c-0.971,1.991 -0.825,2.17 -1.192,3.862c-1.487,0.196 -0.112,-2.871 -0.241,-4.729c-0.413,1.083 -1.43,2.462 -1.155,2.842c0.321,-2.33 1.15,-4.5 2.634,-8.021c-0.563,2.575 1.287,-0.971 1.237,0.079c-0.921,-0.733 0.209,-4.229 2.367,-8.429c2.562,-2.5 3.325,-8.246 6.171,-12.967c-0.025,2.508 -0.529,5.433 -1.654,8.563c2.104,-2.755 1.741,-3.375 3.845,-6.125c0.017,-1.863 -0.587,-3.53 1.055,-7.755l0.845,0.205c1.492,-3.813 0.65,-4.325 3.58,-8.625c2.57,-3.638 5.087,-7.375 7.429,-10.909c2.55,-3.391 5.091,-6.471 7.187,-9.133l0.821,0.317c0.442,-2.042 2.246,-4.638 4.246,-7.28c2.137,-2.529 4.662,-4.937 6.092,-7.083c3.341,-2.812 6.208,-6.583 9.3,-9.412c3.079,-2.83 5.829,-5.263 7.979,-6.163c11.141,-10.479 22.416,-18.108 36.641,-25.25l-1.791,2.383c2.104,-2.129 1.879,-0.354 4.325,-1.641c-3.367,0.346 3.004,-2.646 4.537,-4.1c3.463,-0.934 7.167,-2.513 10.725,-4.267c3.634,-1.546 7.209,-2.992 10.096,-4.358l0.479,0.741c2.825,-1.641 6.15,-2.833 9.771,-3.545c3.663,-0.538 7.55,-0.888 11.45,-1.521c0.958,0.166 2.496,0.675 4.775,0.129c3.967,-2.313 6.258,-2.1 12.417,-3.683c4.587,-0.43 12.046,-1.055 16.725,-0.338c8.587,-1.071 17.375,-1.575 26.15,-0.762c4.404,0.262 8.825,0.529 13.266,0.791c4.405,0.55 8.834,1.046 13.317,1.4l1.133,1.167c17.613,0.146 38.021,7.233 52.442,10.667l-1.875,1.2c4.288,1.783 10.183,2.858 9.463,1.333c2.12,1.012 4.945,1.762 7.529,2.567c2.554,0.883 4.875,1.8 6.004,2.983c4.337,1.987 5.729,1.4 9.471,2.775c4.3,2.142 7.241,3.6 10.121,5.029c2.887,1.417 5.833,2.55 9.883,4.567l-1.938,-1.134c-1.05,-0.133 -1.445,0.475 0.492,1.613c3.208,1.117 10.708,6.192 8.738,2.821c7.837,5.716 19.975,10.704 26.725,17.571c-0.346,-0.896 1.7,0.333 2.708,0.662c6.883,5.079 13.129,11.567 18.783,15.454c0.817,1.125 -2.216,-0.762 0.3,1.629c1.654,1.234 0.521,-0.504 2.596,0.98c10.933,8.7 18.888,20.833 26.483,30.812c14.28,17.404 24.255,39.342 29.95,60.179l-0.462,-0.133c3.533,6.642 2.233,16.825 5.296,22.162c-0.042,1.738 0.637,6.517 -0.292,5.338c1.725,5.654 0.296,16.079 1.392,24.346c0.062,-0.763 -0.009,-1.2 -0.154,-2.084c-1.05,8.334 -0.321,15.788 -2.267,24.442c-0.05,-0.908 0.087,-2.521 -0.308,-2.829c-1.238,3.229 0.516,8.2 -1.696,9.733c-0.271,1.917 0.762,1.538 0.887,0.342c-3.696,18.896 -9.308,39.012 -18.658,57.121c-8.417,11.9 -3.254,-0.909 -7.9,9.604c-0.829,0.562 0.246,0.967 -0.179,0.875c-2.096,3.929 -5.729,4.333 -6.638,7.408c1.721,-0.275 -0.662,2.038 -0.183,2.525c-3.075,3.196 -5.092,4.946 -6.796,6.65c-1.808,1.609 -3.3,3.167 -5.304,6.029l-0.113,-0.816c-4.191,7.233 -11.887,12.808 -15.875,18.787c-17.445,14.375 -36.691,25.592 -56.829,34.079c-20.137,8.517 -41.162,14.392 -62.671,17.959c-21.325,3.15 -42.625,4.662 -63.97,4.091c-21.334,-0.445 -42.759,-2.95 -63.975,-7.779c-4.838,-1.741 -7.392,-2.854 -10.159,-3.558c-2.766,-0.717 -5.708,-1.196 -11.2,-2.308c0.504,-0.15 1.2,-0.034 0.542,-0.467c-0.892,1.192 -7.654,-1.842 -9.021,-0.954c-15.417,-4.709 -29.617,-9.371 -44.808,-16.434c2.462,0.988 4.121,0.525 1.246,-0.716l-3.35,-0.6l-0.317,-0.571c-2.042,-0.692 -4.417,-1.225 -2.638,0.208c-9.57,-4.475 -18.779,-9.746 -27.495,-15.754c-8.659,-6.104 -16.75,-13.029 -24.146,-20.612c-14.75,-15.242 -26.313,-33.492 -33.813,-53.171c-3.091,-9.517 -7.029,-23.163 -8.587,-33.9c-1.067,-16.038 0.141,-31.109 2.387,-45.884c2.279,-14.783 5.613,-29.325 9.646,-44.612c0,-0 0.554,1.262 0.767,4.083c0.291,2.85 -0.088,7.154 -1.113,13.525" style="fill:#aca88e;fill-rule:nonzero;"/><path d="M22.843,164.114c1.009,-0.813 2.53,-4.046 2.459,-1.067c-0.721,0.117 -2.004,1.621 -2.459,1.067" style="fill:#aca88e;fill-rule:nonzero;"/><path d="M73.135,84.835c-0.084,-0.221 1.021,-0.866 1.287,-1.025c-0.658,0.938 -0.866,2.146 -1.696,2.634c0.663,-0.942 0.309,-1.009 0.409,-1.609" style="fill:#aca88e;fill-rule:nonzero;"/><path d="M89.381,67.719c0.095,0.617 -2.955,4.683 -4.95,6.862c1.645,-2.266 3.225,-4.633 4.95,-6.862" style="fill:#aca88e;fill-rule:nonzero;"/><path d="M107.726,55.713c1.837,-0.654 1.575,-0.125 -0.488,1.288c-0.342,-0.155 0.238,-0.759 0.488,-1.288" style="fill:#aca88e;fill-rule:nonzero;"/><path d="M108.171,53.717c1.479,-1.046 2.425,-1.266 3.341,-1.483c-0.358,-0.383 -3.237,2.654 -3.341,1.483" style="fill:#aca88e;fill-rule:nonzero;"/><path d="M150.269,33.022c0.987,-0.558 3.158,-1.771 4.396,-1.404c-0.634,-0.037 -1.909,0.488 -2.9,1.013c-0.979,0.566 -1.738,0.979 -1.496,0.391" style="fill:#aca88e;fill-rule:nonzero;"/><path d="M170.901,25.761c0.708,-0.096 1.016,-0.042 1.791,-0.367c1.338,0.021 0.088,0.717 -0.975,0.984l-0.816,-0.617Z" style="fill:#aca88e;fill-rule:nonzero;"/><path d="M479.192,212.004c-0.109,-0.796 -0.246,-1.588 -0.434,-2.375l0.634,0.317c-0.025,0.683 -0.117,1.37 -0.2,2.058" style="fill:#aca88e;fill-rule:nonzero;"/><path d="M405.11,363.707c-1.779,1.662 -1.704,0.462 -2.083,0.608c1.758,-1.262 -0.246,1.071 2.083,-0.608" style="fill:#aca88e;fill-rule:nonzero;"/><path d="M317.253,402.531l0.725,-0.154l0.004,1.267l-0.729,-1.113Z" style="fill:#aca88e;fill-rule:nonzero;"/><path d="M156.96,207.17c2.267,2.091 2.754,2.725 3.392,3.108c19.037,11.308 29.816,27.5 29.312,50.117c-0.112,5.012 3.088,5.491 6.404,5.466c32.009,-0.225 64.034,-0.083 96.017,-1.154c15.454,-0.521 27.825,-12.1 31.1,-27.408c1.475,-6.883 1.188,-14.188 1.333,-21.308c0.184,-9.075 -1.425,-10.646 -10.737,-10.659c-48.942,-0.05 -97.883,-0.05 -146.825,0.042c-2.833,0.008 -5.667,0.992 -9.996,1.796" style="fill:#4e6b5f;fill-rule:nonzero;"/><path d="M342.644,205.451l-0,28.758c21.229,-0 41.892,0.267 62.542,-0.138c7.387,-0.145 12.766,-6.675 12.937,-13.75c0.15,-6.15 -6.167,-14.604 -12.337,-14.72c-20.905,-0.396 -41.825,-0.15 -63.142,-0.15" style="fill:#4e6b5f;fill-rule:nonzero;"/><path d="M234.114,166.73c-0.371,8.183 2.792,14.929 9.059,19.475c2.375,1.725 6.733,0.733 10.191,0.975c0.017,-3.459 1.379,-7.763 -0.175,-10.238c-7.475,-11.896 -7.75,-11.796 2.663,-22.162c10.729,-10.688 11.187,-25.554 1.271,-36.359c-3.738,-4.066 -7.988,-6.045 -12.755,-2.558c-4.87,3.563 -1.233,7.188 0.875,10.608c6.667,10.817 6.463,12.834 -2.754,21.546c-5.466,5.167 -8.941,11.096 -8.375,18.713" style="fill:#4e6b5f;fill-rule:nonzero;"/><path d="M270.812,165.89c1.688,9.537 4.788,16.675 12.204,21.008c2.259,1.321 7.6,1.358 8.596,-0.067c1.596,-2.279 2.075,-7.033 0.704,-9.404c-7.375,-12.75 -7.62,-12.608 2.646,-23.258c10.779,-11.183 10.575,-28.05 -1.154,-37.121c-2.5,-1.933 -7.287,-0.917 -11.021,-1.258c0.125,3.379 -0.958,7.496 0.584,10.012c6.879,11.246 6.479,12.642 -2.738,22.846c-4.329,4.796 -6.612,11.438 -9.821,17.242" style="fill:#4e6b5f;fill-rule:nonzero;"/><path d="M193.614,165.257c0.654,0.387 1.312,0.779 1.967,1.167c-0.017,8.779 4.295,18.312 10.445,20.841c2.559,1.05 7.634,0.979 8.725,-0.571c1.575,-2.237 1.85,-7.066 0.421,-9.433c-7.829,-12.958 -8.066,-12.817 2.813,-23.392c10.429,-10.137 10.329,-27.233 -1.013,-36.558c-2.491,-2.046 -8.466,-2.45 -11.329,-0.875c-4.65,2.558 -1.208,6.621 0.992,9.729c6.812,9.617 5.941,12.729 -2.309,21.613c-4.562,4.908 -7.204,11.596 -10.712,17.479" style="fill:#4e6b5f;fill-rule:nonzero;"/><path d="M156.96,207.17c4.329,-0.804 7.163,-1.788 9.996,-1.796c48.942,-0.092 97.883,-0.092 146.825,-0.042c9.312,0.013 10.921,1.584 10.737,10.659c-0.145,7.12 0.142,14.425 -1.333,21.308c-3.275,15.308 -15.646,26.887 -31.1,27.408c-31.983,1.071 -64.008,0.929 -96.017,1.154c-3.316,0.025 -6.516,-0.454 -6.404,-5.466c0.504,-22.617 -10.275,-38.809 -29.312,-50.117c-0.638,-0.383 -1.125,-1.017 -3.392,-3.108" style="fill:#4e6b5f;fill-rule:nonzero;"/><path d="M342.644,205.451c21.317,-0 42.237,-0.246 63.142,0.15c6.17,0.116 12.487,8.57 12.337,14.72c-0.171,7.075 -5.55,13.605 -12.937,13.75c-20.65,0.405 -41.313,0.138 -62.542,0.138l-0,-28.758Z" style="fill:#4e6b5f;fill-rule:nonzero;"/><path d="M234.114,166.73c-0.566,-7.617 2.909,-13.546 8.375,-18.713c9.217,-8.712 9.421,-10.729 2.754,-21.546c-2.108,-3.42 -5.745,-7.045 -0.875,-10.608c4.767,-3.487 9.017,-1.508 12.755,2.558c9.916,10.805 9.458,25.671 -1.271,36.359c-10.413,10.366 -10.138,10.266 -2.663,22.162c1.554,2.475 0.192,6.779 0.175,10.238c-3.458,-0.242 -7.816,0.75 -10.191,-0.975c-6.267,-4.546 -9.43,-11.292 -9.059,-19.475" style="fill:#4e6b5f;fill-rule:nonzero;"/><path d="M270.812,165.89c3.209,-5.804 5.492,-12.446 9.821,-17.242c9.217,-10.204 9.617,-11.6 2.738,-22.846c-1.542,-2.516 -0.459,-6.633 -0.584,-10.012c3.734,0.341 8.521,-0.675 11.021,1.258c11.729,9.071 11.933,25.938 1.154,37.121c-10.266,10.65 -10.021,10.508 -2.646,23.258c1.371,2.371 0.892,7.125 -0.704,9.404c-0.996,1.425 -6.337,1.388 -8.596,0.067c-7.416,-4.333 -10.516,-11.471 -12.204,-21.008" style="fill:#4e6b5f;fill-rule:nonzero;"/><path d="M193.614,165.257c3.508,-5.883 6.15,-12.571 10.712,-17.479c8.25,-8.884 9.121,-11.996 2.309,-21.613c-2.2,-3.108 -5.642,-7.171 -0.992,-9.729c2.863,-1.575 8.838,-1.171 11.329,0.875c11.342,9.325 11.442,26.421 1.013,36.558c-10.879,10.575 -10.642,10.434 -2.813,23.392c1.429,2.367 1.154,7.196 -0.421,9.433c-1.091,1.55 -6.166,1.621 -8.725,0.571c-6.15,-2.529 -10.462,-12.062 -10.445,-20.841c-0.655,-0.388 -1.313,-0.78 -1.967,-1.167" style="fill:#4e6b5f;fill-rule:nonzero;"/><path d="M137.414,287.828c-9.937,-0 -17.991,-8.054 -17.991,-17.988c-0,-9.937 15.825,-37.933 17.991,-37.933c2.167,-0 17.992,27.996 17.992,37.933c-0,9.934 -8.054,17.988 -17.992,17.988m-29.862,-24.609c-0,-8.204 13.062,-31.312 14.854,-31.312c0.746,-0 3.471,4.054 6.383,9.362c-0.908,1.621 -1.829,3.334 -2.725,5.084c-2.521,4.912 -8.375,17.025 -8.375,23.487c0,2.813 0.596,5.488 1.663,7.913c-6.738,-1.409 -11.8,-7.379 -11.8,-14.534m26.05,-50.091c-25.338,0.179 -47.192,22.15 -46.484,46.721c0.742,25.495 21.63,45.791 46.625,45.304c25.7,-0.504 46.334,-21.029 46.088,-45.846c-0.246,-24.783 -21.833,-46.35 -46.229,-46.179" style="fill:#4e6b5f;fill-rule:nonzero;"/></g></svg>