<?xml version="1.0" encoding="UTF-8" standalone="no"?><!DOCTYPE svg PUBLIC "-//W3C//DTD SVG 1.1//EN" "http://www.w3.org/Graphics/SVG/1.1/DTD/svg11.dtd"><svg width="100%" height="100%" viewBox="0 0 486 436" version="1.1" xmlns="http://www.w3.org/2000/svg" xmlns:xlink="http://www.w3.org/1999/xlink" xml:space="preserve" xmlns:serif="http://www.serif.com/" style="fill-rule:evenodd;clip-rule:evenodd;stroke-linejoin:round;stroke-miterlimit:2;"><g><path d="M397.3,388.102c-105.238,72.35 -208,61.846 -292.846,-33.604c-84.842,-95.45 -109.85,-227.205 -14.4,-312.05c95.45,-84.842 234.883,-31.596 319.729,63.854c84.842,95.446 102.733,202.587 -12.483,281.8" style="fill:#fff;fill-rule:nonzero;"/><path d="M449.121,307.564c2.404,-4.45 -2.346,1.783 1.316,-3.054c0.067,0.825 -0.12,1.846 -1.316,3.054" style="fill:#aca88e;fill-rule:nonzero;"/><path d="M458.055,289.54c1.025,-4.029 2.67,-8.083 4.187,-12.396c0.8,-2.133 1.671,-4.287 2.579,-6.454c0.825,-2.204 1.659,-4.437 2.496,-6.679c3.438,-8.929 6.221,-18.404 6.942,-27.283c0.221,-2.067 1.616,0.858 2.008,-3.867c0.242,-8.708 1.142,-19.679 0.838,-31.204c-0.175,-11.509 -1.484,-23.538 -3.717,-33.954l0.85,1.087c-0.438,-1.987 -1.375,-4.062 -2.404,-6.108c-1.134,-2.017 -2.284,-4.029 -2.942,-6.059c0.292,-0.158 0.921,1.105 0.979,0.013c-1.171,-0.692 -3.512,-6.917 -4.933,-8.242c-0.379,-1.687 0.458,-1.916 -0.221,-4.037l-2.162,-1.634c-5.338,-4.725 -8.246,-14.258 -14.95,-20.829c0.483,0.184 1.212,0.771 0.954,0.046c-10.259,-10.737 -23.009,-24.017 -36.409,-33.608c0.763,0.083 1.696,-0.113 1.205,-1.05c-1.396,0.45 -5.563,-2.45 -9.25,-4.838c-0.963,-2.083 -6.734,-3.529 -10.717,-6.804l0.517,0.013c-3.9,-0.98 -4.346,-3.717 -7.788,-4.03l-1.579,-2.045c-2.325,0.633 -4.275,-3.613 -7.467,-4.405l-0.083,0.359c-2.808,-1.063 -3.75,-2.554 -6.304,-3.625l-0.134,-0.3c-5.891,-2.659 -8.87,-5.092 -9.308,-3.867c-1.546,-1.971 5.8,2.388 3.333,-0.6c-19.587,-8.458 -39.795,-16.912 -60.266,-23.183c-2.154,-1.267 -3.621,-1.779 -4,-2.434c-2.138,-0.308 -7.825,-1.995 -9.888,-1.791c0.704,0.146 -1.171,-0.992 -2.254,-1.329c-3.675,-1.421 -4.479,0.395 -8.492,-1.192c1.734,0.046 2.388,-0.225 1.95,-0.85c-3.791,0.158 -8.537,-0.933 -12.82,-1.517c0.7,-0.083 1.745,0.004 1.666,-0.441c-4.841,0.2 -8.433,-1.775 -12.633,-1.788l1.654,-0.496c-6.433,-2.041 -2.192,1.267 -7.8,-0.121c1.404,-0.05 0.967,-0.416 1.258,-0.687c-5.508,0.537 -14.058,-0.846 -19.433,-0.888c0.329,-0.07 0.263,-0.291 0.263,-0.291c-5.821,-0.221 -11.871,-1.192 -18.296,-0.671c-2.321,-0.413 0.816,-1.858 -5.379,-1.758c0.208,1.529 -10.48,0.733 -6.825,2.441c-5.246,-0.325 -13.584,-0.329 -17.038,0.371c2.317,-0.783 -2.704,-1.696 1.663,-2.142c-1.13,-0.275 -2.255,-0.454 -3.384,-0.67c0.442,-0.688 3.434,-0.084 2.321,-0.796c-2.212,0.254 -8.567,1.454 -10.558,1.383c-3.963,1.463 -7.446,3.621 -13.871,4.875c2.942,-1.146 -2.017,-1.367 0.017,-2.004l-8.484,4.546c-2.1,0.558 -0.708,-1.092 -3.696,0.012c0.25,0.363 -1.033,0.913 -1.891,1.45c-0.417,0.004 -2.592,0.604 -4.821,1.042c-2.208,0.529 -4.467,0.929 -5.133,0.321c-1.084,-0.317 3.341,-1.275 0.87,-1.142c-3.883,1.138 -3.929,1.608 -7.77,2.825l-0.134,-0.167c-2.604,0.638 -7.225,3.121 -4.212,2.992c1.758,-0.542 -0.959,-0.642 1.766,-1.096c-1.479,1.475 -5.841,3.046 -9.5,4.634c1.171,-0.734 0.875,-1.05 1.234,-1.659c-2.292,1.559 -4.709,2.946 -7.221,4.275c-2.467,1.413 -4.996,2.863 -7.592,4.35c0.229,0.696 1.446,-2.116 2.417,-2.146c-3.733,1.084 -7.096,3.25 -10.271,5.338c-3.25,1.971 -6.146,4.137 -9.25,5.175c0.821,-0.654 1.025,0.575 0.858,0.442c-3.154,1.866 -3.654,0.816 -5.387,2.545c-0.538,-0.379 -2.358,1.9 -4.263,3.467c-0.775,1.092 -0.7,0.129 1.021,-1.167c-2.721,2.196 -12.691,11.55 -18.966,16.409c0.32,0.133 -2.305,4.554 -3.584,5.8l-0.208,-1.167c-1.554,0.813 -4.158,4.433 -4.892,4.188c-1.887,3.554 9.55,-11.592 6.584,-7.155c-1.521,0.442 -3.95,6.342 -4.117,4.638c-2.558,2.642 -3.817,6.187 -6.792,8.254c0.767,-0.679 0.884,-3.121 -0.966,-0.796c-3.171,4.159 -0.584,1.438 -2.859,5.013l-1.237,2.375c0.65,0.683 -2.821,3.687 -0.842,2.716c-1.129,0.009 -3.683,6.567 -4.712,5.28l-0.638,-1.259c-1.129,1.971 -0.879,3.813 -1.35,5.579c-0.254,0.188 -0.779,0.567 -0.887,0.371c1.391,1.213 -2.68,4.663 -2.684,7.675c-2.937,3.775 -5.079,10.779 -7.162,12.3c-0.879,3.575 -1.354,6.929 -3.229,10.646c0.133,-0.829 0.487,-1.904 0.191,-2.258c-1.429,2.25 -1.258,3.004 -1.658,5.371c-0.1,-0.6 -2.596,4.62 -4.113,7.225c-0.483,3.645 0.875,2.72 1.35,3.229c-2.562,2.754 -1.437,10.083 -3.666,13.8c-0.017,-1.263 0.1,-5.354 -0.913,-2.492c-2.325,2.95 -0.112,6.788 -1.525,11.933l1.667,-1.087c-1.225,2.221 -0.1,7.817 -1.575,7.117c0.358,1.808 -0.917,6.204 0.579,5.712c-1.033,4.283 -0.787,9.588 -0.783,14.438c0.212,4.85 0.316,9.275 -0.763,12.079c0.4,1.221 0.521,4.354 1.2,3.629c0.575,-2.15 -0.937,-2.817 -0.466,-3.642c0.179,1.109 0.612,1.309 0.829,1.404c-0.013,2.709 0.137,4.859 -1.392,2.45c-0.229,6.18 3.304,5.83 4.092,13.413c-0.634,-0.225 -0.85,0.412 -0.229,2.575l2.033,3.887c0.933,4.846 -0.679,3.08 -1.658,3.459c0.762,2.558 1.816,5.662 2.866,6.6l-0.291,3.496c0.208,-2.555 1.208,1.916 1.958,2.983l-0.675,-1.092c-0.242,0.604 1.087,3.417 1.75,4.834c0.475,-0.575 -0.371,-3.609 -0.792,-5.271c0.904,1.125 1.538,3.133 2.663,4.625c-1.134,-0.209 0.746,4.341 1.579,6.283c0.767,2.308 1.925,2.142 2.175,2.8c-0.463,0.271 1.487,3.654 0.062,2.229c-0.483,-0.691 -0.279,-1.941 -1.25,-3.004c0.275,1.617 -0.637,1.829 1.296,4.6c1.509,2.054 1.517,-1.412 3.034,3.092c-0.784,-1 -1.255,-1.029 -2.013,-1.734l1.513,4.209l0.912,-0.246c0.058,0.642 -0.2,0.308 -0.187,0.612c0.733,0.371 1.554,1.85 2.37,3.284c0.888,1.396 1.78,2.75 2.505,2.916c1.187,1.888 1.733,4.417 2.733,6.313l-0.288,-0.304c0.934,2.487 3.109,5.246 4.8,6.754l-0.229,0.008c0.65,1.275 2.738,3.942 4.213,5.084c1.5,3.35 -2.154,3.025 1.104,5.625c2.246,2.941 4.879,3.541 4.433,2.02c3.479,5.646 9.45,10.346 12.492,15.8c0.921,0.442 0.687,-0.154 2.175,1.121c6.237,7.438 15.133,13.604 19.7,20.059c-2.396,-1.534 -0.758,0.579 -1.05,1.016c2.325,0.867 1.587,2.459 3.15,1.909c0.362,-0.788 0.804,-0.955 -1.063,-2.959c2.363,1.675 5.192,3.946 7.734,6.071c2.596,2.063 4.841,4.05 5.875,5.346c-1.034,-1.296 0.104,-0.738 1.25,-0.167c-1.167,0.838 2.154,3.55 5.075,5.025l0.846,-0.4l1.22,1.904c1.175,0.492 2.059,-0.562 4.271,1.859c-0.041,0.35 -0.066,0.716 0.296,1.233c3.192,1.263 7.629,3.013 10.379,5.425l1.909,2.558c1.395,0.696 3.979,1.438 1.837,-0.27c4.854,3.9 8.404,5.754 9.583,7.675c10.538,3.025 24.35,9.687 35.725,14.566l-0.566,0.421c2.875,1.733 2.012,-0.375 4.016,0.833c-1.225,0.167 1.905,2.063 -0.812,1.813c4.237,2.267 6.142,1.162 9.125,1.983c0.717,-0.587 -2.504,-0.391 -1.588,-1.133c0.592,-0.083 5.938,2.887 7.03,2.004c0.954,0.863 -0.2,1.383 -0.967,1.621l2.912,0.462c2.896,2.596 -8.445,-0.458 -5.52,2.496l2.604,0.771c2.021,2.113 -7.217,-1.167 -0.959,1.633c2.988,0.48 5.9,-0.308 3.609,-1.733c5.912,1.604 3.6,-1.9 9.812,0.063c1.504,1.179 -5.062,-1.296 -4.158,0.008c2.675,1.796 6.1,1.204 8.621,2.296c-2.792,-1.288 0.016,-1.746 1.946,-1.417c3.029,1.475 -2.367,0.508 2.104,1.938c0.929,-0.459 5.183,0.233 1.737,-1.275c1.013,-0.53 2.146,-0.084 3.375,0.433c1.242,0.454 2.6,0.9 3.971,0.562c1.25,1.392 -5.308,1.55 -0.392,3.121c-0.545,-1.212 6.534,-0.158 4.213,-2.258c1.892,0.704 1.933,1.575 0.358,1.925c2.704,1.229 7.192,-0.529 7.734,1.758l1.154,-0.883c0.85,0.479 1.996,1.129 3.383,1.912c2.529,0.309 8.279,-0.554 7.85,1.071c0.829,-0.079 6.554,0.654 4.458,-0.746c-3.47,-1.1 -4.187,0.367 -5.966,-1.4c2.346,1.542 5.133,0.425 7.204,0.238l0.271,0.675c1.241,-0.108 4.033,0.354 4.841,-0.25c-0.954,0.262 -0.508,0.75 0.455,1.021c0.45,-0.259 0.895,-0.588 1.341,-0.909c4.971,-0.391 1.071,1.738 5.925,1.55l-3.721,0.684c0.817,-0.146 2.434,0.8 4.784,0.541c0.933,-0.875 2.641,-1.908 3.416,-2.583c2.709,-0.333 1.213,1.029 3.88,0.171l-3.505,1c-0.537,0.283 2.367,1.521 6.042,1.579c2.35,-0.221 5.871,-1.996 2.208,-2.129c1.809,-0.158 4.38,0.179 2.967,0.946c4.104,-0.634 -0.583,-0.913 2.921,-1.75c1.483,0.479 6.067,0.966 8.921,1.612l-3.596,1.771l2.504,-0.183c-3.129,1.446 1.746,0.783 0.046,2.175c1.742,0.012 3.817,-0.417 5.4,-1.096c-5.196,-1.129 5.146,-3.725 3.4,-5.3c6.508,-1.708 5.008,3.625 11.417,-0.475c-1.242,-0.258 1.72,-2.221 -2.35,-0.942c4.183,-0.558 2.412,-2.191 7.3,-2.875c-3.33,1.779 4.266,0.684 -0.563,3.259c0.179,-0.734 -2.95,0.487 -3.75,0.687c1.875,0.325 0.1,2.013 4.304,0.775c2.517,-0.933 6.017,-2.004 5.242,-2.775c-0.404,-0.979 -3.858,1.263 -2.517,-0.246c4.929,-1.846 6.271,-0.566 7.784,-2.958c-3.142,1.075 -4.25,0.275 -4.405,-0.438l3.525,-1.495l-0.491,0.875c6.004,-1.334 1.404,-1.48 6.925,-3.542l3.062,0.221c-0.866,1.716 -8.187,2.779 -6.604,4.108c3.738,-1.125 4.5,-2.762 8.088,-3.633c-0.692,0.466 -1.705,0.937 -2.388,1.412c1.296,-0.471 3.571,1.367 8.163,-2.166c2.429,-1.638 0.42,-0.925 0.191,-1.613c1.421,-0.646 2.575,-1.221 3.559,-1.737c0.958,-0.58 1.72,-1.171 2.441,-1.68c1.434,-1.037 2.621,-1.929 4.354,-2.937c-0.058,1.646 6.305,-3.271 3.1,0.117c-1.104,0.129 -3.625,1.287 -6.037,2.7c-1.208,0.708 -2.392,1.479 -3.358,2.216c-1.021,0.629 -1.821,1.238 -2.196,1.759c2.812,0.65 -4.654,1.67 -5.25,3.758c4.708,-1.913 5.162,-0.308 6.379,0.358c1.354,-0.491 2.458,-1.408 3.15,-1.925c0.104,-1.166 -1.575,-0.383 -2.133,-1.316c5.22,-2.25 9.708,-5.542 11.966,-7.834c1.909,-0.462 1.904,0.696 -0.033,1.859c5.975,-3.209 11.75,-7.6 17.317,-10.88c-4.392,0.992 5.691,-4.354 2.529,-3.866c-3.063,1.637 -6.154,2.312 -5.046,0.65c1.812,-1.104 0.371,0.629 1.308,0.421c1.692,-2.246 4.396,-1.155 5.529,-4.071c-4.383,4.341 0.305,2.371 0.242,4.141c2.992,-3.458 0.417,0.859 3.829,-1.995c3,-3.455 6.838,-7.392 10.442,-10.78c5.217,-3.55 11.25,-11.108 14.983,-15.2c2.367,-1.791 2.188,0.709 4.438,-1.566c2.383,-2.879 -2.984,1.075 1.087,-2.717l-0.121,0.6c0.809,-1.492 7.321,-7.142 6.713,-9.708l0.154,2.3c0.779,-0.7 1.113,-1.663 1.529,-2.417c0.434,0.288 1.588,-0.35 0.767,1.154c3.017,-2.008 4.108,-5.946 6.271,-8.966l-2.159,1.391c3.059,-5.646 6.467,-8.454 9.555,-13.8l0.679,0.663l1.454,-3.429c0.283,1.25 2.542,-1.321 2.921,-3.375l-3.113,9.395c-1.904,1.934 0.629,-3.075 -1.041,-2.17c-1.313,0.833 -4.559,5.52 -4.33,6.812c1.363,-1.725 1.259,-1.929 1.971,-3.496c1.492,0.129 -0.491,2.813 -0.754,4.646c0.629,-0.967 1.913,-2.083 1.717,-2.512c-0.8,2.195 -2.059,4.125 -4.242,7.22c1.088,-2.375 -1.458,0.667 -1.187,-0.337c0.741,0.908 -1.092,4.058 -4.071,7.675c-3.021,1.867 -4.963,7.287 -8.725,11.262c0.554,-2.433 1.65,-5.166 3.4,-7.962c-2.625,2.217 -2.4,2.9 -5.025,5.121c-0.404,1.804 -0.163,3.554 -2.646,7.304l-0.783,-0.379c-2.246,3.383 -1.534,4.066 -5.284,7.608c-3.262,2.983 -6.496,6.071 -9.512,9c-3.192,2.75 -6.304,5.2 -8.9,7.333l-0.734,-0.487c-0.854,1.892 -3.154,4.029 -5.65,6.167c-2.608,2 -5.562,3.8 -7.404,5.579c-3.833,2.012 -7.412,5.066 -11,7.158c-3.587,2.092 -6.766,3.867 -9.041,4.279c-13.017,7.804 -25.559,12.821 -40.863,16.734l2.242,-1.942c-2.492,1.621 -1.9,-0.058 -4.542,0.671c3.338,0.383 -3.467,1.937 -5.262,3.029c-3.555,0.175 -7.48,0.917 -11.3,1.867c-3.846,0.733 -7.621,1.383 -10.709,2.095l-0.308,-0.825c-3.083,1 -6.563,1.45 -10.221,1.375c-3.667,-0.254 -7.508,-0.741 -11.425,-0.95c-0.892,-0.37 -2.275,-1.195 -4.6,-1.145c-4.329,1.408 -6.508,0.72 -12.812,0.958c-4.538,-0.554 -11.905,-1.529 -16.288,-3.217c-8.55,-0.771 -17.175,-2.141 -25.512,-4.783c-4.209,-1.188 -8.438,-2.379 -12.688,-3.575c-4.154,-1.467 -8.346,-2.883 -12.617,-4.171l-0.85,-1.379c-17.045,-3.854 -35.325,-15.054 -48.583,-21.425l2.079,-0.779c-3.775,-2.638 -9.266,-4.921 -8.896,-3.279c-1.841,-1.434 -4.42,-2.759 -6.754,-4.084c-2.287,-1.396 -4.346,-2.775 -5.187,-4.166c-3.784,-2.846 -5.263,-2.563 -8.6,-4.688c-3.717,-2.983 -6.254,-5.025 -8.746,-7.021c-2.496,-1.983 -5.113,-3.704 -8.613,-6.512l1.634,1.508c0.996,0.346 1.512,-0.162 -0.125,-1.675c-2.875,-1.754 -9.071,-8.267 -7.884,-4.575c-6.383,-7.204 -17.104,-14.596 -22.187,-22.692c0.142,0.95 -1.579,-0.679 -2.492,-1.208c-5.596,-6.383 -10.271,-13.996 -14.937,-18.954c-0.554,-1.267 1.996,1.2 0.062,-1.646c-1.346,-1.546 -0.616,0.375 -2.316,-1.5c-8.767,-10.742 -13.896,-24.196 -19.15,-35.475c-10.171,-19.896 -15.196,-43.279 -16.309,-64.683l0.421,0.225c-2.033,-7.188 1.408,-16.779 -0.45,-22.604c0.413,-1.68 0.763,-6.455 1.421,-5.113c-0.483,-5.85 3.125,-15.65 3.8,-23.9c-0.221,0.725 -0.246,1.163 -0.288,2.054c2.784,-7.854 3.646,-15.237 7.371,-23.216c-0.146,0.891 -0.616,2.429 -0.296,2.812c1.892,-2.867 1.225,-8.067 3.705,-9.079c0.666,-1.8 -0.421,-1.654 -0.792,-0.521c7.583,-17.533 17.275,-35.854 30.167,-51.437c10.687,-9.75 2.983,1.587 9.704,-7.63c0.925,-0.366 -0.038,-0.991 0.358,-0.812c2.858,-3.371 6.479,-2.975 8.008,-5.771c-1.733,-0.1 1.071,-1.837 0.7,-2.417c3.663,-2.445 5.992,-3.712 8.005,-5c2.095,-1.179 3.87,-2.37 6.416,-4.725l-0.062,0.821c5.587,-6.141 14.233,-9.908 19.354,-14.875c19.954,-10.246 40.987,-17.054 62.308,-21.021c21.321,-4 42.95,-5.25 64.554,-4.154c21.342,1.459 42.305,4.496 62.884,9.567c20.583,4.946 40.825,11.908 60.366,21.079c4.321,2.721 6.559,4.338 9.092,5.608c2.525,1.284 5.279,2.367 10.367,4.605c-0.521,0.041 -1.171,-0.221 -0.621,0.341c1.121,-0.975 7.029,3.4 8.546,2.825c13.946,7.825 26.725,15.35 39.962,25.413c-2.179,-1.479 -3.887,-1.379 -1.366,0.433l3.125,1.288l0.187,0.62c1.833,1.1 4.025,2.121 2.604,0.35c8.338,6.363 16.15,13.421 23.325,21.092c7.109,7.754 13.484,16.179 19.05,25.1c11.071,17.904 18.417,38.046 21.525,58.717c0.984,9.883 1.917,23.946 1.159,34.687c-2.371,15.775 -6.734,30.129 -12.042,43.975c-5.342,13.85 -11.65,27.238 -18.788,41.204c0,0 -0.279,-1.341 0.105,-4.129c0.316,-2.825 1.587,-6.921 3.925,-12.879" style="fill:#aca88e;fill-rule:nonzero;"/><path d="M446.052,311.325c-1.154,0.571 -3.312,3.383 -2.62,0.508c0.725,0.038 2.291,-1.141 2.62,-0.508" style="fill:#aca88e;fill-rule:nonzero;"/><path d="M380.5,378.987c0.033,0.234 -1.175,0.621 -1.467,0.717c0.837,-0.767 1.287,-1.896 2.2,-2.192c-0.842,0.775 -0.508,0.913 -0.733,1.475" style="fill:#aca88e;fill-rule:nonzero;"/><path d="M361.135,392.134c0.037,-0.621 3.845,-3.916 6.241,-5.612c-2.071,1.854 -4.1,3.812 -6.241,5.612" style="fill:#aca88e;fill-rule:nonzero;"/><path d="M340.81,399.869c-1.92,0.242 -1.558,-0.216 0.742,-1.15c0.3,0.225 -0.387,0.688 -0.742,1.15" style="fill:#aca88e;fill-rule:nonzero;"/><path d="M339.962,401.718c-1.654,0.7 -2.617,0.713 -3.554,0.725c0.267,0.455 3.696,-1.887 3.554,-0.725" style="fill:#aca88e;fill-rule:nonzero;"/><path d="M294.792,412.856c-1.075,0.333 -3.433,1.05 -4.554,0.429c0.604,0.175 1.95,-0.067 3.021,-0.367c1.066,-0.342 1.891,-0.583 1.533,-0.062" style="fill:#aca88e;fill-rule:nonzero;"/><path d="M273.267,415.535c-0.705,-0.054 -0.996,-0.175 -1.813,-0.021c-1.292,-0.304 0.063,-0.721 1.15,-0.758l0.663,0.779Z" style="fill:#aca88e;fill-rule:nonzero;"/><path d="M13.896,169.871c-0.063,0.791 -0.096,1.587 -0.079,2.391l-0.55,-0.437c0.166,-0.659 0.404,-1.309 0.629,-1.954" style="fill:#aca88e;fill-rule:nonzero;"/><path d="M211.119,19.468l-0.733,-0.005l0.262,-1.237l0.471,1.242Z" style="fill:#aca88e;fill-rule:nonzero;"/><path d="M216.629,165.693c3.4,-6.625 6.879,-13.1 10.321,-19.245c-11.025,-20.084 -21.329,-35.421 -24.163,-35.421c-6.77,-0 -56.187,87.433 -56.187,118.462c-0,27.071 19.15,49.659 44.637,54.988c-4.033,-9.171 -6.287,-19.296 -6.287,-29.942c-0,-24.437 22.154,-70.271 31.679,-88.842" style="fill:#4e6b5f;fill-rule:nonzero;"/><path d="M259.575,300.123c0,0 -30.704,-30.341 -30.704,-59.795c0,-21.196 11.288,-33.971 21.442,-39.4c3.517,-1.88 5.708,-5.542 5.525,-9.53l-1.346,-36.904l4.908,0l0.175,117.392l-0.12,-2.563l0.12,3.167l4.23,-73.558c11.045,2.7 26.475,15.483 26.475,41.396c-0,29.454 -30.705,59.795 -30.705,59.795m0,-189.095c-8.2,-0 -68.066,105.916 -68.066,143.508c-0,37.592 30.475,68.067 68.066,68.067c37.592,-0 68.063,-30.475 68.063,-68.067c-0,-37.592 -59.863,-143.508 -68.063,-143.508" style="fill:#4e6b5f;fill-rule:nonzero;"/><path d="M96.886,114.213c-1.354,-0.542 0.071,1.316 -1.046,-0.109c0.429,-0.308 0.867,-0.471 1.046,0.109" style="fill:#aca88e;fill-rule:nonzero;"/><path d="M420.034,323.466c-5.604,0.17 -8.971,-5.825 -14.321,-6.863c-0.571,-0.208 1.075,-1.379 -0.279,-1.75c-5.454,-0.587 -11.146,-6.008 -15.129,-10.842l0.566,-0.216c-0.762,-0.917 -2.812,-0.3 -3.7,-1.146c0.167,-0.279 0.575,-0.183 0.584,-0.708c-0.788,0.662 -2.075,-0.8 -2.905,-0.459c-0.191,-0.583 0.271,-1.212 -0.012,-1.908l-1.188,0.567c-3.054,1.2 -3.812,-2.684 -6.758,-2.942c0.246,-0.15 0.575,-0.179 0.538,-0.504c-4.409,-0.917 -8.659,-4.017 -12.93,-6.063c0.371,-0.233 0.909,-0.746 0.917,-1.271c-0.833,0.867 -2.212,0.334 -3.396,-0.154c0.184,-1.329 -2.412,-0.237 -3.291,-1.6l0.25,-0.162c-1.605,0.479 -0.963,-1.492 -2.534,-0.692l-0.062,-1.175c-1.329,1.175 -0.846,-1.6 -2.075,-1.358l-0.167,0.308c-0.942,-0.108 -0.846,-1.071 -1.667,-1.254l0.046,-0.208c-1.796,-0.621 -2.183,-2.005 -2.866,-0.863c0.033,-1.246 1.766,0.563 1.754,-1.292c-5.85,-2.141 -10.967,-5.758 -16.121,-9.054c-0.292,-0.825 -0.575,-1.204 -0.433,-1.712c-0.659,-0.104 -2.067,-1.042 -2.9,-0.771c0.183,0.092 0.037,-0.783 -0.2,-1.017c-0.663,-1.029 -1.817,0.575 -2.517,-0.591c0.6,-0.034 0.971,-0.309 1.104,-0.813c-1.442,0.308 -2.521,-0.583 -3.737,-0.967c0.279,-0.087 0.604,-0.037 0.791,-0.416c-1.771,0.262 -1.929,-1.542 -3.329,-1.554l0.792,-0.409c-1.092,-1.812 -1.346,1.054 -2.425,-0.304c0.462,0.008 0.508,-0.321 0.737,-0.542c-2.046,0.346 -3.879,-1.387 -5.421,-1.82c0.134,-0.042 0.225,-0.23 0.225,-0.23c-1.495,-0.754 -2.72,-2.066 -4.591,-2.545c-0.375,-0.65 1.2,-1.463 -0.434,-2.18c-0.783,1.334 -2.862,-1.091 -2.937,0.946c-1.129,-1.029 -2.817,-2.808 -3.946,-2.912c0.892,-0.129 0.408,-1.988 1.533,-1.421l-0.287,-1.296c0.458,-0.458 0.7,0.708 0.879,-0.125c-0.558,-0.292 -2.429,-0.767 -2.762,-1.279c-1.492,0.167 -3.346,1.071 -5.038,0.217c1.071,-0.025 0.5,-1.705 1.154,-1.6l-3.816,1.066c-0.563,-0.279 0.55,-1.104 -0.43,-1.254c-0.183,0.371 -0.65,0.367 -1.062,0.496c-0.104,-0.271 -2.396,-1.083 -1.804,-2.513c0.096,-0.65 1.033,0.284 0.746,-0.545c-0.984,-0.613 -1.309,-0.205 -2.292,-0.813l0.092,-0.183c-0.521,-0.604 -2.246,-0.675 -2,0.483c0.416,0.329 0.325,-0.879 0.745,-0.083c-0.933,0.454 -2.195,-0.067 -3.175,-0.679c0.463,0.004 0.642,-0.363 1.013,-0.638c-1.958,0.167 -3.546,-0.412 -5.275,-0.933c-0.417,0.596 1.258,-0.754 1.262,-0.292c-1.325,-2.054 -4.633,-1.296 -5.391,-3.533c0.325,0.054 -0.421,0.95 -0.325,0.771c-0.854,-0.659 -0.246,-1.513 -1.042,-1.563c0.275,-0.558 -0.846,-0.312 -1.55,-0.546c-0.554,0.175 0.004,-0.354 0.571,-0.071c-1.129,-0.1 -5.008,-1.479 -6.467,-3.487c-0.183,0.367 -2.008,0.483 -2.429,0.158l0.692,-0.687c-0.096,-0.742 -1.542,-0.9 -1.175,-1.634c-1.584,0.359 4.212,1.546 2.433,1.463c0.1,-0.883 -2.621,0.117 -1.637,-0.796c-0.917,-0.55 -2.371,-0.208 -2.742,-1.512c0.162,0.287 1.442,-0.638 0.679,-1.05c-1.367,-0.684 -0.608,0.145 -1.817,-0.255l-0.858,-0.091c-0.546,0.75 -1.075,-0.842 -1.162,0.337c0.258,-0.746 -2.113,-0.804 -1.146,-2.012l0.833,-0.9c-0.6,-0.284 -1.596,0.487 -2.321,0.662c-0.008,-0.146 -0.025,-0.441 0.113,-0.591c-1.096,1.504 -1.238,-0.975 -2.671,-0.196c-0.808,-1.288 -2.908,-1.946 -2.829,-3.271c-1.192,-0.1 -2.367,-0.063 -3.167,-1.054c0.296,-0.013 0.604,0.121 0.875,-0.179c-0.342,-0.871 -0.762,-0.563 -1.508,-0.684c0.283,-0.15 -0.688,-1.733 -1.038,-2.746c-1.183,-0.104 -1.421,0.93 -1.841,1.392c0.179,-2.062 -3.138,-0.621 -3.25,-2.667c0.441,-0.016 1.775,0.075 1.291,-0.787c0.179,-2.054 -2.362,0.087 -3.191,-1.496l-0.505,1.483c-0.07,-1.162 -2.395,-0.495 -1.42,-1.712c-0.734,0.179 -1.267,-1.413 -1.925,-0.075c-1.463,-2.433 -5.617,-2.725 -5.496,-5.8c-0.438,0.008 -1.067,-0.7 -1.325,0.042c0.062,1.025 1.033,-0.038 0.916,0.558c-0.3,-0.138 -0.579,0.167 -0.716,0.317c-0.484,-0.713 -0.95,-1.142 0.346,-1.771c-0.984,-1.725 -2.892,1.129 -4.463,-0.571c0.417,-0.458 0.4,-0.746 -0.204,-1.021l-1.613,0.208c-1.087,-0.991 0.063,-1.616 0.596,-2.512c-0.75,-0.267 -1.516,-0.825 -2.233,-0.367l-0.083,-1.604c0.062,1.163 -0.875,0.179 -1.321,0.2l0.446,-0.021c0.116,-0.446 -0.784,-0.704 -1.234,-0.841c-0.258,0.6 0.367,1.316 0.688,1.741c-0.579,0.167 -1.042,-0.254 -1.775,-0.087c0.7,-0.763 -0.667,-1.292 -1.129,-1.717c-0.475,-0.567 -1.163,0.338 -1.317,0.196c0.271,-0.454 -0.921,-0.7 -0.058,-1.021c0.295,-0.012 0.183,0.729 0.77,0.554c-0.179,-0.583 0.367,-1.325 -0.808,-1.287c-0.887,0.029 -0.933,1.791 -1.746,0.5c0.442,-0.013 0.721,-0.321 1.154,-0.475l-0.8,-1.146l-0.55,0.75c-0.02,-0.292 0.125,-0.292 0.125,-0.442c-0.854,0.609 -1.82,-0.821 -2.662,-0.054c-0.6,-0.275 -0.808,-1.287 -1.275,-1.712l0.146,-0.005c-0.346,-0.87 -1.392,-1.116 -2.267,-0.937l0.138,-0.154c-0.309,-0.284 -1.217,-0.696 -1.946,-0.521c-0.504,-1.154 1.6,-3.133 -0.009,-2.779c-0.916,-0.554 -2.329,0.521 -2.287,1.25c-1.271,-1.567 -3.921,-1.471 -4.633,-3.646c-0.434,0.167 -0.417,0.458 -1.013,0.333c-2.167,-1.833 -5.592,-2.291 -6.483,-5.041c0.896,0.116 0.546,-0.75 0.821,-1.205c-1.017,0.334 -0.213,-1.162 -1.188,-0.095c-0.4,0.741 -0.675,1.045 -0.196,1.762c-1.654,-0.533 -3.796,-1.917 -4.154,-3.079c0.179,0.579 -0.262,0.6 -0.708,0.608c0.825,-1.054 -0.104,-1.896 -1.146,-2.008l-0.554,0.617l-0.059,-1.038c-0.441,0.025 -1.258,1.221 -1.616,0.058c0.133,-0.291 0.258,-0.587 0.241,-0.875c-1.175,0.034 -2.933,0.242 -3.445,-0.908l-0.08,-1.467c-0.445,-0.129 -1.47,0.063 -0.991,0.775c-1.117,-1.575 -2.042,-2.275 -1.963,-3.445c-3.958,0.433 -7.779,-1.917 -10.704,-4.017l0.421,-0.454c-0.5,-1.004 -1,0.625 -1.338,-0.096c0.58,-0.321 0.067,-1.463 1.092,-1.65c-0.812,-1.288 -2.067,-0.075 -2.971,-0.329c-0.55,0.596 0.884,-0.042 0.188,0.721c-0.288,0.154 -1.267,-1.563 -2.104,-0.659c-0.034,-0.587 0.675,-1.191 1.1,-1.504l-1.03,0.038c-0.1,-1.75 3.346,-0.855 3.384,-2.905l-0.759,-0.262c0.067,-1.467 2.505,-0.088 1.1,-1.513c-1.033,0.046 -2.595,1.13 -2.25,1.988c-1.666,-0.675 -2.254,1.987 -3.791,0.875c-0.05,-0.879 1.366,0.679 1.6,-0.358c-0.221,-1.305 -1.8,-0.513 -2.284,-1.23c0.496,0.863 -0.795,1.488 -1.395,1.363c-0.5,-1.004 1.145,-0.625 0.066,-1.471c-0.566,0.467 -1.908,0.225 -1.258,1.225c-1.275,1.063 -0.958,-1.142 -2.246,-0.508c0.229,-1.179 2.579,-1.409 1.621,-2.688c-0.388,1.034 -2.35,0.225 -2.546,1.996c-0.329,-0.583 0.079,-1.325 0.796,-1.646c-0.346,-1.012 -2.775,0.542 -1.854,-1.4l-0.838,0.767c-0.025,-0.442 -0.196,-0.871 -0.237,-1.604c-0.613,-0.421 -2.809,-0.042 -1.854,-1.4c-0.292,0.012 -1.671,-0.963 -1.746,0.354c0.504,1.158 1.471,-0.05 1.121,1.571c0.062,-1.467 -1.363,-0.684 -2.105,-0.659l0.267,-0.591c-0.442,0.016 -1.067,-0.554 -1.629,-0.092c0.429,-0.158 0.546,-0.604 0.387,-0.892l-0.845,0.617c-1.5,-0.387 0.637,-1.629 -0.717,-2.171l1.325,-0.046c-0.288,0.009 -0.204,-1.025 -0.946,-1.137c-0.708,0.604 -1.704,1.229 -2.271,1.692c-0.891,-0.113 0.238,-1.042 -0.921,-0.705l1.455,-0.337c0.287,-0.163 0.208,-1.617 -0.709,-2.183c-0.746,-0.113 -2.341,0.391 -1.691,1.387c-0.463,-0.279 -0.805,-1.146 -0.092,-1.458c-1.196,-0.404 -0.383,0.891 -1.571,0.783c-0.042,-0.729 -0.712,-2.171 -0.925,-3.337l1.733,-0.655l-0.612,-0.408c1.45,-0.492 0.096,-1.029 1.225,-1.796c-0.313,-0.437 -1.054,-0.404 -1.638,-0.391c0.138,2.487 -2.875,1.429 -3.516,3.204c-1.954,-0.663 1.375,-4.442 -1.946,-3.154c0.029,0.591 -1.558,1.233 -0.208,1.47c-0.938,-0.845 -1.713,1.092 -2.538,-0.345c1.329,-0.046 0.029,-2.2 1.946,-2.267c-0.421,0.454 0.487,0.862 0.783,0.846c-0.05,-0.867 1.096,-1.496 0.021,-2.188c-0.75,-0.275 -1.667,-0.821 -2.054,0.067c-0.546,0.904 1.058,0.55 0.062,1.175c-1.504,-0.533 -0.85,-2.021 -2.404,-0.8c0.904,0.408 0.521,1.454 0.113,2.05l-1.196,-0.246l0.567,-0.467c-1.263,-1.416 -1.142,0.775 -2.53,-0.341l0.05,-1.617c1,-0.771 1.88,1.842 2.667,0.042c-0.925,-0.692 -1.779,-0.071 -2.421,-1.079c0.296,-0.009 0.596,0.129 0.892,0.112c-0.313,-0.275 0.737,-2.662 -1.458,-2.283c-1.03,0.033 -0.563,0.458 -0.975,1.058c-1.671,-0.817 -2.538,-0.496 -3.596,-1.046c0.971,-1.058 -1.696,-1.254 0.196,-1.762c0.058,1.025 2.345,2.408 3.629,1.625c0.346,-1.775 1.091,0.987 2.35,-0.225c-1.225,-0.838 -0.271,-2.188 0.116,-3.229c-0.304,-0.284 -0.887,-0.117 -1.187,-0.109c-0.7,0.767 -0.238,1.042 -0.779,1.942c-1.242,-1.129 -2.888,-1.513 -4.192,-1.175c-0.192,-0.725 0.508,-1.483 1.108,-1.213c-1.816,-0.812 -3.508,-2.066 -4.908,-3.341c0.113,2.054 -1.967,-0.8 -2.021,0.808c0.638,0.858 0.721,2.317 -0.15,2.646c-0.466,-0.429 0.413,-0.6 0.384,-1.042c-1.163,0.334 -0.25,-1.896 -1.684,-1.112c1.8,0.521 1.392,-1.517 2.375,-2.434c-1.487,-0.083 0.55,-0.75 -0.525,-1.441c-1.479,-0.092 -3.125,-0.471 -4.483,-1.013c-0.846,-2.016 -3.825,-2.496 -5.204,-3.329c-0.35,-1.008 0.925,-1.937 0.296,-2.65c-0.917,-0.554 -0.192,1.771 -1.163,0.342l0.288,-0.167c-0.588,0.029 -1.905,-2.417 -3.446,-0.892l1.275,-1.079c-0.171,-0.283 -0.6,-0.121 -0.896,-0.116c0.271,-0.442 0.237,-1.025 0.825,-1.046c-0.225,-1.459 -1.825,-0.971 -2.742,-1.513l0.063,1.163c-1.934,-0.363 -2.454,-1.813 -4.117,-2.492l0.546,-0.75l-1.179,-0.104c0.7,-0.613 0.204,-1.621 -0.671,-1.292l3.521,-0.421c0.341,0.871 -1.3,0.488 -1.392,1.513c-0.092,0.883 1.413,1.562 2.121,0.958c-0.471,-0.425 -0.608,-0.271 -1.196,-0.254c0.525,-1.192 1.296,-0.633 2.154,-1.1c-0.304,-0.137 -0.483,-0.717 -0.762,-0.412c0.879,-0.18 1.479,0.091 2.396,0.645c-0.88,0.025 -0.1,0.88 -0.53,1.042c0.688,-0.904 1.734,-0.642 2.675,0.342c0.088,1.612 2.546,0.641 3.642,1.775c-1.146,0.629 -2.312,0.966 -3.346,0.85c0.496,1.008 0.917,0.558 1.413,1.566c0.858,-0.466 1.85,-1.387 3.187,-1.141l-0.404,0.746c1.192,0.258 1.871,-0.796 2.963,0.187c1.862,1.696 4.012,3.079 5.545,4.196l-0.395,0.75c1.862,-0.95 3.312,1.346 4.941,1.437c1.592,1.996 4.85,2.167 5.1,4.063c3.934,1.767 7.413,3.25 10.959,5.904l-1.292,0.633c1.154,-0.329 0.05,0.875 0.796,1.142c-0.213,-1.308 1.596,-0.487 2.466,-0.825c1.134,1.871 3.821,2.363 5.755,2.583l-0.405,0.75c2.342,-0.379 3.359,1.93 5.063,3.338c0.021,0.429 -0.075,1.312 0.525,1.587c1.742,-0.5 2.212,-0.083 4.142,0.146c1.07,0.692 2.629,2.1 3.429,3.246c5.075,0.992 8.529,4.675 13.341,6.408l-0.233,1.03c5.213,0.837 9.167,5.679 13.225,7.004l-1.254,1.212c0.8,1.138 2.721,1.221 3.096,0.034c0.808,1.137 3.166,1.062 3.1,2.679c0.946,0.983 1.791,0.225 2.841,0.629c1.884,1.979 2.792,2.392 5.063,3.479l-0.463,-0.425c-0.433,0.167 -0.845,0.758 -0.379,1.188c1.038,0.108 2.638,2.241 2.954,0.037c1.613,2.433 5.755,2.579 7.084,5.317c0.116,-0.592 0.725,-0.321 1.158,-0.488c1.983,1.254 3.442,3.534 5.525,3.763c0.163,0.433 -1.008,0.466 -0.237,1.033c0.587,0.129 0.4,-0.6 1.154,-0.483c3.754,1.187 5.887,5.062 8.933,6.712c5.742,2.429 10.829,6.354 15.871,9.392l-0.275,0.304c2.496,-0.237 3.021,3.846 5.608,2.729c0.184,0.579 1.396,1.121 0.679,1.592c1.917,-0.075 3.134,3.25 5.792,3.308c-0.15,-0.15 -0.296,-0.141 -0.596,-0.125c1.438,1.996 3.804,2.059 5.396,4.05c-0.304,0.017 -0.746,-0.116 -1.025,0.184c0.358,1.162 2.788,-0.246 2.154,1.683c0.463,0.275 0.854,-0.621 0.55,-0.75c4.034,3.508 9.463,5.521 14.334,8.129c2.679,3.125 -1.588,2.904 1.82,3.367c0.009,0.454 0.563,-0.534 0.38,-0.167c1.308,0.192 0.387,2.854 1.65,2.446c0.362,-1.2 0.829,-0.263 1.25,-0.867c1.6,1.967 1.42,3.142 3.516,3.409l-0.462,0.45c2.846,-0.292 4.5,1.912 7.204,1.2c10.55,6.358 21.092,11.795 31.308,18.1c9.763,6.766 20.029,12.283 29.563,19.737c1.471,2.929 1.671,3.008 4.646,4.117c-0.255,0.162 -0.45,0.108 -0.413,0.433c0.871,-1.062 1.904,1.075 2.863,0.138c3.604,2.629 7.254,4.541 11.112,7.016c-0.687,-0.266 -1.6,0.471 -0.829,0.867l1.233,-0.246l-0.083,0.4c0.604,0.146 1.508,-0.071 1.233,-0.767c10.321,5.246 18.354,13.692 28.013,19.525c1.946,1.934 5.433,3.555 8.029,4.896c6.262,6.213 11.996,11.659 20.054,15.338c0,-0 -2.875,2.346 -6.358,1.071" style="fill:#aca88e;fill-rule:nonzero;"/><path d="M98.409,115.034c-0.113,0.742 0.529,1.596 -0.638,1.929c0.263,-0.591 0.217,-1.475 0.638,-1.929" style="fill:#aca88e;fill-rule:nonzero;"/><path d="M117.107,135.459c0.137,-0.154 0.17,0.437 0.179,0.583c-0.304,-0.141 -0.875,0.179 -0.904,-0.262c0.308,0.133 0.441,-0.163 0.725,-0.321" style="fill:#aca88e;fill-rule:nonzero;"/><path d="M122.64,139.512c-0.417,0.458 -1.908,0.066 -2.675,-0.342l2.675,0.342Z" style="fill:#aca88e;fill-rule:nonzero;"/><path d="M126.644,145.078c0.183,0.729 -0.096,0.883 -0.713,0.471c0.129,-0.3 0.425,-0.304 0.713,-0.471" style="fill:#aca88e;fill-rule:nonzero;"/><path d="M127.775,144.161c0.454,0.275 0.479,0.72 0.508,1.15c0.267,-0.45 -1.208,-0.388 -0.508,-1.15" style="fill:#aca88e;fill-rule:nonzero;"/><path d="M138.457,153.153c0.305,0.142 1.188,0.108 1.08,0.842c-0.034,-0.584 -1.78,-0.229 -1.08,-0.842" style="fill:#aca88e;fill-rule:nonzero;"/><path d="M144.366,155.871c0.154,0.146 0.163,0.287 0.459,0.275c0.17,0.437 -0.409,0.596 -0.713,0.471l0.254,-0.746Z" style="fill:#aca88e;fill-rule:nonzero;"/><path d="M244.172,217.34l-0.746,-0.129l0.412,-0.446l0.334,0.575Z" style="fill:#aca88e;fill-rule:nonzero;"/><path d="M287.344,245.145c0.791,0.054 0.096,0.742 0.146,0.879c-0.563,-0.287 0.6,-0.504 -0.146,-0.879" style="fill:#aca88e;fill-rule:nonzero;"/><path d="M312.259,257.603l-0.188,-0.1l0.738,-1.009l-0.55,1.109Z" style="fill:#aca88e;fill-rule:nonzero;"/></g></svg>