<?xml version="1.0" encoding="UTF-8" standalone="no"?><!DOCTYPE svg PUBLIC "-//W3C//DTD SVG 1.1//EN" "http://www.w3.org/Graphics/SVG/1.1/DTD/svg11.dtd"><svg width="100%" height="100%" viewBox="0 0 490 425" version="1.1" xmlns="http://www.w3.org/2000/svg" xmlns:xlink="http://www.w3.org/1999/xlink" xml:space="preserve" xmlns:serif="http://www.serif.com/" style="fill-rule:evenodd;clip-rule:evenodd;stroke-linejoin:round;stroke-miterlimit:2;"><g><path d="M54.658,79.492c88.088,-93.871 191.555,-105.612 295.625,-29.85c104.075,75.767 157.021,200.146 81.259,304.221c-75.767,104.071 -224.534,81.608 -328.604,5.842c-104.075,-75.767 -144.725,-177.434 -48.28,-280.213" style="fill:#fff;fill-rule:nonzero;"/><path d="M484.151,215.123c0.455,-5.075 -1.454,2.587 0.005,-3.35c0.387,0.737 0.62,1.754 -0.005,3.35" style="fill:#aca88e;fill-rule:nonzero;"/><path d="M485.248,194.875c-0.65,-4.141 -0.737,-8.546 -1.05,-13.141c-0.108,-2.296 -0.158,-4.638 -0.183,-7.009c-0.112,-2.371 -0.233,-4.766 -0.35,-7.179c-0.375,-9.633 -1.571,-19.517 -4.437,-28.029c-0.617,-2.004 1.829,0.154 0.312,-4.375c-3.237,-8.163 -6.775,-18.683 -11.646,-29.229c-4.75,-10.588 -10.758,-21.2 -16.983,-29.954l1.217,0.675c-1.196,-1.667 -2.892,-3.213 -4.659,-4.7c-1.846,-1.417 -3.712,-2.825 -5.129,-4.442c0.2,-0.258 1.288,0.658 0.904,-0.375c-1.354,-0.179 -6.004,-5.004 -7.846,-5.671c-1.025,-1.408 -0.341,-1.95 -1.82,-3.637l-2.646,-0.663c-6.813,-2.262 -13.317,-9.917 -22.138,-13.337c0.521,-0.017 1.429,0.237 0.904,-0.33c-13.775,-5.87 -30.87,-13.083 -47.1,-16.633c0.742,-0.221 1.525,-0.771 0.696,-1.437c-1.108,0.966 -6.125,-0.067 -10.491,-0.809c-1.721,-1.533 -7.638,-0.596 -12.634,-2.033l0.484,-0.196c-3.996,0.638 -5.505,-1.7 -8.813,-0.633l-2.279,-1.254c-1.9,1.495 -5.4,-1.638 -8.671,-1.105l0.067,0.363c-3.025,0.133 -4.492,-0.871 -7.284,-0.846l-0.245,-0.225c-6.513,-0.117 -10.238,-1.175 -10.155,0.125c-2.216,-1.204 6.321,-0.096 2.846,-1.871c-21.508,-0.037 -43.587,0.188 -65.041,2.534c-2.496,-0.309 -4.063,-0.196 -4.671,-0.646c-2.1,0.562 -8.042,1.262 -9.871,2.271c0.708,-0.146 -1.479,-0.446 -2.617,-0.325c-3.966,0.15 -3.991,2.141 -8.341,2.27c1.625,-0.645 2.129,-1.154 1.475,-1.55c-3.45,1.646 -8.284,2.525 -12.48,3.692c0.613,-0.354 1.617,-0.692 1.367,-1.067c-4.404,2.105 -8.517,1.717 -12.408,3.371l1.333,-1.108c-6.767,0.679 -1.529,2.033 -7.271,2.983c1.279,-0.6 0.729,-0.762 0.892,-1.133c-4.888,2.683 -13.354,4.812 -18.35,6.912c0.275,-0.195 0.129,-0.37 0.129,-0.37c-5.479,2.112 -11.471,3.629 -17.217,6.662c-2.308,0.546 0.025,-2.029 -5.67,0.529c0.795,1.321 -9.417,4.846 -5.359,4.963c-4.983,1.787 -12.704,5.112 -15.629,7.133c1.838,-1.646 -3.171,-0.479 0.696,-2.629c-1.154,0.196 -2.263,0.479 -3.396,0.729c0.138,-0.808 3.146,-1.446 1.838,-1.654c-1.95,1.117 -7.359,4.758 -9.23,5.483c-3.087,2.929 -5.462,6.3 -10.912,10.021c2.271,-2.229 -2.404,-0.454 -0.779,-1.85l-6.054,7.567c-1.725,1.354 -1.088,-0.717 -3.417,1.491c0.375,0.234 -0.592,1.255 -1.175,2.092c-0.383,0.171 -2.158,1.592 -4.05,2.883c-1.833,1.371 -3.767,2.642 -4.621,2.35c-1.129,0.142 2.588,-2.508 0.354,-1.395c-3.141,2.595 -3,3.05 -6.071,5.708l-0.191,-0.104c-2.154,1.629 -5.446,5.766 -2.717,4.441c1.417,-1.204 -1.133,-0.208 1.204,-1.716c-0.783,1.95 -4.204,5.141 -6.958,8.071c0.796,-1.146 0.396,-1.321 0.492,-2.021c-1.509,2.35 -3.196,4.596 -4.996,6.825c-1.725,2.291 -3.488,4.641 -5.3,7.05c0.483,0.55 0.504,-2.529 1.387,-2.942c-3.021,2.492 -5.275,5.833 -7.387,9.029c-2.225,3.117 -4.042,6.279 -6.5,8.484c0.5,-0.938 1.171,0.12 0.962,0.062c-2.175,2.988 -3.05,2.217 -3.971,4.504c-0.641,-0.129 -1.429,2.704 -2.566,4.909c-0.284,1.32 -0.596,0.4 0.483,-1.484c-1.65,3.117 -7.162,15.75 -11.033,22.75c0.35,-0.008 -0.329,5.134 -1.017,6.8l-0.65,-0.996c-1.108,1.371 -2.083,5.759 -2.854,5.83c-0.346,4.037 4.233,-14.538 3.246,-9.25c-1.225,1.016 -1.146,7.441 -1.967,5.933c-1.317,3.467 -1.079,7.25 -3.004,10.35c0.437,-0.933 -0.417,-3.238 -1.204,-0.346c-1.284,5.108 0.029,1.563 -0.654,5.779l-0.205,2.692c0.871,0.367 -1.141,4.537 0.3,2.85c-1.041,0.454 -0.8,7.546 -2.254,6.767l-1.083,-0.913c-0.258,2.279 0.696,3.883 0.958,5.704c-0.158,0.279 -0.491,0.838 -0.666,0.7c1.754,0.563 -0.625,5.384 0.558,8.175c-1.213,4.667 -0.408,12.004 -1.721,14.246c0.604,3.663 1.496,6.958 1.246,11.146c-0.208,-0.821 -0.308,-1.954 -0.717,-2.171c-0.425,2.654 0.029,3.288 0.6,5.638c-0.329,-0.513 -0.554,5.316 -0.916,8.333c1,3.562 1.883,2.167 2.52,2.45c-1.258,3.575 2.68,9.917 2.109,14.242c-0.521,-1.163 -2.038,-5 -1.825,-1.946c-0.967,3.654 2.587,6.329 3.333,11.658l1.1,-1.667c-0.242,2.546 3.013,7.28 1.383,7.217c1.05,1.533 1.625,6.108 2.805,5.063c0.754,4.375 3.091,9.191 5.033,13.683c2.125,4.408 3.987,8.462 4.117,11.483c0.85,0.971 2.216,3.825 2.55,2.884c-0.334,-2.213 -1.984,-2.234 -1.884,-3.184c0.609,0.954 1.088,0.971 1.321,0.971c1.075,2.517 2.067,4.446 -0.296,2.821c2.254,5.808 5.363,4.087 9.117,10.796c-0.671,0.046 -0.617,0.716 0.821,2.475l3.425,2.791c2.796,4.117 0.604,3.117 -0.142,3.855c1.725,2.066 3.938,4.525 5.279,4.975l1.129,3.345c-0.833,-2.441 1.88,1.3 3,1.988l-1.062,-0.742c0.021,0.654 2.371,2.729 3.546,3.775c0.208,-0.712 -1.784,-3.183 -2.838,-4.558c1.284,0.683 2.671,2.296 4.304,3.233c-1.129,0.25 2.425,3.717 3.971,5.179c1.629,1.838 2.634,1.221 3.125,1.734c-0.316,0.429 2.834,2.791 0.95,2.033c-0.721,-0.446 -1.033,-1.679 -2.354,-2.283c0.9,1.387 0.146,1.941 3.038,3.741c2.212,1.305 0.829,-1.9 4.029,1.663c-1.121,-0.617 -1.563,-0.458 -2.546,-0.808l3.079,3.291l0.742,-0.587c0.312,0.571 -0.059,0.362 0.075,0.637c0.821,0.059 2.171,1.1 3.5,2.104c1.379,0.938 2.741,1.838 3.479,1.709c1.85,1.275 3.367,3.391 5.05,4.75l-0.392,-0.167c1.859,1.925 4.971,3.621 7.138,4.342l-0.209,0.1c1.113,0.921 4.109,2.562 5.925,3.037c2.725,2.496 -0.775,3.634 3.275,4.754c3.25,1.825 5.921,1.342 4.9,0.117c5.471,3.838 12.871,5.821 17.867,9.65c1.025,0.046 0.571,-0.412 2.458,0.179c8.742,4.396 19.434,6.575 26.238,10.721c-2.825,-0.471 -0.467,0.833 -0.567,1.35c2.5,-0.121 2.454,1.633 3.684,0.517c0.016,-0.871 0.358,-1.196 -2.171,-2.304c2.854,0.608 6.383,1.583 9.583,2.541c3.221,0.875 6.096,1.817 7.567,2.604c-1.471,-0.783 -0.196,-0.716 1.091,-0.641c-0.741,1.229 3.413,2.416 6.705,2.621l0.625,-0.7l1.887,1.266c1.283,-0.008 1.683,-1.325 4.696,0.029c0.104,0.338 0.225,0.688 0.767,1.017c3.458,-0.1 8.262,-0.233 11.775,0.896l2.787,1.6c1.567,0.092 4.258,-0.246 1.588,-0.971c6.054,1.667 10.079,1.975 11.937,3.271c10.963,-1.371 26.408,-0.708 38.888,-0.721l-0.359,0.608c3.354,0.455 1.717,-1.141 4.054,-0.82c-1.07,0.633 2.584,1.137 -0.033,1.983c4.829,0.404 6.15,-1.363 9.242,-1.788c0.433,-0.825 -2.475,0.634 -1.921,-0.412c0.512,-0.313 6.646,0.304 7.308,-0.942c1.225,0.417 0.363,1.35 -0.254,1.871l2.888,-0.725c3.712,1.238 -8.005,2.917 -4.125,4.475l2.725,-0.321c2.704,1.138 -7.15,1.784 -0.242,1.879c2.958,-0.741 5.342,-2.616 2.654,-3.02c6.113,-0.867 2.579,-3.167 9.108,-3.83c1.867,0.488 -5.2,0.821 -3.845,1.659c3.191,0.587 6.129,-1.313 8.9,-1.309c-3.096,-0.079 -0.68,-1.612 1.241,-2.07c3.388,0.154 -1.996,1.4 2.717,0.941c0.679,-0.787 4.896,-1.837 1.104,-1.858c0.725,-0.888 1.954,-0.929 3.3,-0.938c1.329,-0.075 2.763,-0.204 3.9,-1.058c1.713,0.779 -4.304,3.529 0.879,3.021c-0.987,-0.896 5.988,-2.738 3.004,-3.746c2.034,-0.104 2.417,0.679 1.096,1.625c2.992,0.054 6.454,-3.337 7.863,-1.454l0.721,-1.271c0.975,0.104 2.295,0.246 3.891,0.417c2.463,-0.725 7.454,-3.8 7.692,-2.142c0.742,-0.4 6.333,-2.004 3.837,-2.454c-3.65,0.367 -3.729,2 -6.079,1.083c2.784,0.488 4.921,-1.65 6.767,-2.646l0.521,0.513c1.104,-0.592 3.875,-1.279 4.383,-2.154c-0.783,0.616 -0.175,0.891 0.825,0.754c0.313,-0.413 0.6,-0.896 0.888,-1.363c4.445,-2.341 1.675,1.167 6.1,-0.941l-3.175,2.112c0.695,-0.458 2.566,-0.237 4.641,-1.408c0.517,-1.175 1.692,-2.804 2.142,-3.733c2.379,-1.388 1.533,0.462 3.662,-1.388l-2.85,2.313c-0.387,0.47 2.796,0.454 6.221,-0.959c2.092,-1.133 4.646,-4.171 1.204,-2.833c1.613,-0.867 4.125,-1.579 3.121,-0.317c3.55,-2.221 -0.9,-0.608 2.013,-2.771c1.562,-0.154 6,-1.533 8.896,-2.079l-2.63,3.067l2.25,-1.171c-2.329,2.575 1.921,0.021 0.9,1.979c1.617,-0.683 3.363,-1.904 4.563,-3.162c-5.254,1.037 3.292,-5.479 1.054,-6.234c5.354,-4.17 6.067,1.334 10.383,-5c-1.254,0.259 0.713,-2.729 -2.55,0.075c3.65,-2.187 1.371,-2.979 5.625,-5.566c-2.383,2.971 4.209,-1.079 0.759,3.225c-0.121,-0.746 -2.534,1.629 -3.196,2.129c1.867,-0.446 0.883,1.817 4.283,-1.008c1.963,-1.863 4.775,-4.25 3.759,-4.646c-0.759,-0.742 -3.071,2.7 -2.425,0.775c3.833,-3.667 5.575,-3.029 6.033,-5.834c-2.483,2.246 -3.821,1.95 -4.242,1.359l2.671,-2.784l-0.112,1c5.029,-3.633 0.72,-1.92 5.012,-6.037l2.913,-1.021c-0.125,1.925 -6.475,5.838 -4.488,6.425c3.013,-2.533 3.071,-4.346 6.046,-6.583c-0.454,0.708 -1.204,1.546 -1.65,2.254c1.012,-0.95 3.837,-0.171 6.692,-5.263c1.595,-2.483 0.025,-1.02 -0.459,-1.562c1.059,-1.167 1.9,-2.154 2.609,-3.025c0.654,-0.917 1.125,-1.771 1.591,-2.525c0.913,-1.538 1.659,-2.833 2.863,-4.454c0.591,1.537 4.537,-5.546 2.912,-1.138c-0.971,0.563 -2.846,2.642 -4.516,4.913c-0.838,1.133 -1.625,2.321 -2.23,3.387c-0.695,0.988 -1.195,1.867 -1.337,2.5c2.854,-0.533 -3.646,3.4 -3.371,5.563c3.596,-3.646 4.646,-2.354 6.029,-2.225c1.059,-0.992 1.717,-2.279 2.154,-3.038c-0.358,-1.112 -1.604,0.284 -2.483,-0.354c3.933,-4.167 6.783,-9 7.967,-12.017c1.579,-1.191 2.029,-0.12 0.7,1.725c4.258,-5.35 7.854,-11.72 11.704,-16.975c-3.667,2.675 3.533,-6.295 0.808,-4.579c-2.179,2.734 -4.766,4.6 -4.396,2.621c1.238,-1.746 0.588,0.433 1.371,-0.137c0.679,-2.75 3.604,-2.83 3.5,-5.971c-2.333,5.762 1.209,2.062 1.85,3.721c1.396,-4.392 0.721,0.629 2.742,-3.375c1.408,-4.388 3.396,-9.563 5.387,-14.138c3.409,-5.371 5.992,-14.767 7.817,-20.046c1.475,-2.604 2.296,-0.221 3.467,-3.225c1.062,-3.616 -2.321,2.188 -0.063,-2.941l0.121,0.6c0.158,-1.7 3.925,-9.534 2.363,-11.659l1.041,2.063c0.442,-0.959 0.371,-1.984 0.454,-2.85c0.513,0.096 1.325,-0.954 1.163,0.762c1.987,-3.062 1.433,-7.141 2.233,-10.804l-1.433,2.154c0.587,-6.441 2.617,-10.408 3.35,-16.583l0.887,0.342l-0.016,-3.755c0.754,1.042 1.812,-2.237 1.354,-4.291l0.846,9.937c-0.992,2.55 -0.638,-3.096 -1.817,-1.591c-0.875,1.291 -2.017,6.925 -1.296,8.033c0.571,-2.142 0.396,-2.292 0.434,-4.021c1.42,-0.479 0.654,2.796 1.137,4.6c0.196,-1.146 0.938,-2.692 0.592,-3.012c0.129,2.35 -0.275,4.633 -1.059,8.375c0.063,-2.634 -1.079,1.195 -1.229,0.158c1.042,0.542 0.6,4.192 -0.721,8.729c-2.041,2.933 -1.695,8.721 -3.591,13.9c-0.45,-2.471 -0.517,-5.433 -0.009,-8.721c-1.537,3.1 -1.066,3.642 -2.608,6.742c0.342,1.829 1.25,3.358 0.442,7.817l-0.871,-0.042c-0.738,4.029 0.187,4.375 -1.871,9.15c-1.833,4.058 -3.592,8.208 -5.221,12.125c-1.858,3.812 -3.762,7.317 -5.316,10.333l-0.867,-0.158c-0.046,2.092 -1.321,4.983 -2.783,7.954c-1.617,2.892 -3.638,5.733 -4.634,8.113c-2.746,3.395 -4.841,7.645 -7.337,11.012c-2.484,3.363 -4.725,6.275 -6.663,7.567c-8.946,12.408 -18.558,22.046 -31.166,31.762l1.304,-2.683c-1.663,2.487 -1.779,0.704 -3.934,2.433c3.242,-0.979 -2.445,3.171 -3.67,4.892c-3.225,1.575 -6.563,3.829 -9.721,6.229c-3.271,2.208 -6.509,4.308 -9.084,6.196l-0.608,-0.633c-2.462,2.15 -5.504,3.95 -8.921,5.337c-3.491,1.229 -7.246,2.308 -10.95,3.675c-0.975,0.017 -2.579,-0.187 -4.712,0.779c-3.454,3.025 -5.746,3.254 -11.488,5.979c-4.421,1.296 -11.629,3.325 -16.358,3.517c-8.225,2.679 -16.758,4.85 -25.529,5.721c-4.371,0.579 -8.759,1.162 -13.171,1.746c-4.429,0.296 -8.875,0.654 -13.342,1.158l-1.333,-0.929c-17.321,3.208 -38.704,0.133 -53.513,-0.496l1.609,-1.533c-4.546,-0.934 -10.538,-0.867 -9.542,0.491c-2.275,-0.591 -5.187,-0.787 -7.879,-1.087c-2.675,-0.383 -5.129,-0.838 -6.458,-1.788c-4.642,-1.125 -5.896,-0.283 -9.83,-0.925c-4.629,-1.279 -7.795,-2.154 -10.895,-3.008c-3.105,-0.842 -6.209,-1.392 -10.567,-2.6l2.117,0.746c1.054,-0.075 1.329,-0.746 -0.792,-1.496c-3.358,-0.483 -11.688,-4.037 -9.113,-1.104c-8.783,-4.121 -21.645,-6.708 -29.579,-12.167c0.509,0.817 -1.733,-0.008 -2.787,-0.133c-7.725,-3.679 -15.088,-8.863 -21.379,-11.6c-1.017,-0.95 2.32,0.325 -0.605,-1.542c-1.858,-0.896 -0.416,0.592 -2.737,-0.471c-12.388,-6.458 -22.504,-16.858 -31.858,-25.208c-17.334,-14.371 -31.3,-34.008 -40.855,-53.379l0.48,0.037c-4.734,-5.845 -5.392,-16.087 -9.417,-20.745c-0.288,-1.717 -1.863,-6.275 -0.729,-5.296c-2.767,-5.225 -3.346,-15.729 -5.996,-23.638c0.083,0.759 0.233,1.175 0.55,2.013c-0.558,-8.375 -2.692,-15.554 -2.429,-24.425c0.221,0.883 0.396,2.491 0.846,2.721c0.6,-3.405 -2.067,-7.95 -0.192,-9.88c-0.1,-1.933 -1.042,-1.362 -0.933,-0.166c0.033,-19.254 1.712,-40.071 7.445,-59.625c6,-13.288 3.371,0.271 5.934,-10.934c0.708,-0.712 -0.425,-0.904 0.008,-0.895c1.308,-4.255 4.796,-5.342 5.108,-8.534c-1.637,0.6 0.263,-2.125 -0.304,-2.512c2.413,-3.725 4.059,-5.825 5.409,-7.821c1.466,-1.925 2.637,-3.738 4.062,-6.929l0.263,0.779c2.741,-7.9 9.233,-14.838 12.012,-21.467c14.392,-17.425 31.15,-32.104 49.308,-44.266c18.146,-12.192 37.671,-21.959 58.109,-29.555c20.337,-7.145 40.958,-12.687 62.025,-16.187c21.025,-3.621 42.537,-5.238 64.283,-4.533c5.083,0.791 7.8,1.395 10.65,1.562c2.85,0.179 5.833,0.088 11.433,0.133c-0.466,0.246 -1.17,0.259 -0.441,0.559c0.65,-1.338 7.866,0.354 9.037,-0.775c16.029,1.683 30.859,3.566 47.121,7.608c-2.608,-0.5 -4.15,0.263 -1.092,0.938l3.405,-0.046l0.42,0.496c2.134,0.291 4.567,0.362 2.546,-0.705c10.25,2.575 20.292,5.996 29.992,10.238c9.667,4.346 18.925,9.604 27.629,15.642c17.379,12.158 32.2,27.87 43.308,45.766c4.85,8.754 11.309,21.4 14.884,31.646c4.096,15.542 5.779,30.567 6.383,45.5c0.575,14.95 0.071,29.854 -0.983,45.633c-0,0 -0.784,-1.133 -1.529,-3.866c-0.83,-2.738 -1.275,-7.038 -1.48,-13.488" style="fill:#aca88e;fill-rule:nonzero;"/><path d="M483.405,221.216c-0.833,0.992 -1.712,4.454 -2.212,1.517c0.687,-0.254 1.662,-1.971 2.212,-1.517" style="fill:#aca88e;fill-rule:nonzero;"/><path d="M449.116,308.614c0.125,0.205 -0.838,1.042 -1.071,1.25c0.471,-1.041 0.446,-2.266 1.166,-2.904c-0.47,1.05 -0.112,1.046 -0.095,1.654" style="fill:#aca88e;fill-rule:nonzero;"/><path d="M436.423,328.51c-0.213,-0.588 2.008,-5.159 3.554,-7.679c-1.184,2.541 -2.284,5.162 -3.554,7.679" style="fill:#aca88e;fill-rule:nonzero;"/><path d="M420.697,343.787c-1.679,0.987 -1.525,0.425 0.234,-1.358c0.366,0.087 -0.092,0.791 -0.234,1.358" style="fill:#aca88e;fill-rule:nonzero;"/><path d="M420.64,345.829c-1.254,1.309 -2.138,1.705 -3,2.092c0.425,0.313 2.675,-3.221 3,-2.092" style="fill:#aca88e;fill-rule:nonzero;"/><path d="M383.248,374.156c-0.867,0.738 -2.763,2.342 -4.046,2.217c0.629,-0.084 1.779,-0.842 2.654,-1.546c0.85,-0.742 1.517,-1.292 1.392,-0.671" style="fill:#aca88e;fill-rule:nonzero;"/><path d="M364.374,385.211c-0.675,0.23 -0.991,0.238 -1.687,0.7c-1.317,0.238 -0.225,-0.687 0.766,-1.15l0.921,0.45Z" style="fill:#aca88e;fill-rule:nonzero;"/><path d="M26.281,261.023c0.258,0.763 0.542,1.513 0.875,2.25l-0.679,-0.192c-0.109,-0.675 -0.146,-1.366 -0.196,-2.058" style="fill:#aca88e;fill-rule:nonzero;"/><path d="M70.147,97.996c1.429,-1.97 1.584,-0.779 1.929,-0.991c-1.487,1.571 0.038,-1.1 -1.929,0.991" style="fill:#aca88e;fill-rule:nonzero;"/><path d="M149.013,43.166l-0.683,0.288l-0.242,-1.242l0.925,0.954Z" style="fill:#aca88e;fill-rule:nonzero;"/><path d="M305.393,249.443c-10.621,32.95 -29.246,55.783 -50.45,55.783c-21.205,0 -39.83,-22.833 -50.45,-55.783c-4.138,-12.829 -14.08,-22.579 -26.359,-26.729c3.488,-0.325 7.029,-0.605 10.567,-0.905c3.808,-0.195 7.608,-0.466 11.362,-0.65c3.763,-0.079 7.467,-0.275 11.063,-0.37c3.6,-0.013 7.087,-0.071 10.408,-0.142c14.263,-0.863 20.246,4.229 17.513,9.475c-5.175,7.921 -8.492,18.733 -8.492,25.858c0,1.871 0.229,3.684 0.658,5.421c1.221,4.933 2.046,9.954 2.263,15.033c0.358,8.305 1.171,15.121 2.446,5.796c0.362,-2.646 0.8,-4.833 1.287,-6.658c0.35,-1.321 1.888,-1.904 3.013,-1.129l0.029,0.021c0.471,0.325 0.779,0.833 0.85,1.4c1.546,12.237 4.229,28.337 4.229,14.041c0,-3.833 0.192,-6.921 0.504,-9.441c0.196,-1.58 1.663,-2.638 3.225,-2.363l0.05,0.008c1.154,0.205 2.034,1.134 2.167,2.296c1.417,12.259 4.629,33 4.629,17.363c0,-11.767 1.817,-16.521 3.321,-19.446c0.279,-0.542 0.758,-0.954 1.333,-1.158l0.034,-0.013c1.395,-0.496 2.929,0.3 3.291,1.738c0.634,2.5 1.196,5.641 1.621,9.67c1.492,14.188 2.558,-3.125 2.813,-15.125c0.012,-0.629 0.266,-1.225 0.708,-1.67l0.004,-0.009c1.267,-1.266 3.442,-0.704 3.908,1.025c0.38,1.409 0.75,2.988 1.109,4.754c2.791,13.796 2.241,-4.841 1.433,-16.07c-0.108,-1.48 -0.071,-2.963 0,-4.446c0.013,-0.342 0.025,-0.688 0.025,-1.038c0,-7.404 -3.583,-18.791 -9.112,-26.775c-1.292,-1.862 -2.463,-3.796 -3.509,-5.783c-2.804,-5.317 15.988,-12.575 37.879,-9.913c2.588,0.305 5.184,0.584 7.742,0.988c1.279,0.183 2.563,0.367 3.838,0.546c1.275,0.191 2.533,0.421 3.795,0.629c2.521,0.412 5.021,0.837 7.471,1.325c2.454,0.462 4.884,0.925 7.246,1.45c3.504,0.712 6.879,1.508 10.146,2.283c-16.396,1.604 -30.475,12.792 -35.608,28.713m61.887,-28.921c-6.8,-0 -13.546,-1.15 -19.95,-3.417c-0.037,-0.012 -0.067,-0.025 -0.104,-0.037c-4.283,-1.35 -8.804,-2.8 -13.65,-4.034c-2.388,-0.683 -4.888,-1.241 -7.417,-1.816c-1.266,-0.288 -2.537,-0.575 -3.816,-0.863c-1.3,-0.25 -2.605,-0.5 -3.917,-0.75c-2.613,-0.525 -5.279,-0.979 -7.979,-1.366c-2.684,-0.446 -5.417,-0.767 -8.146,-1.092c-2.725,-0.354 -5.496,-0.525 -8.233,-0.783c-2.746,-0.23 -5.505,-0.317 -8.23,-0.455c-5.462,-0.145 -10.854,-0.179 -16.05,0.113c-5.195,0.221 -10.195,0.704 -14.875,1.321c-4.687,0.583 -9.029,1.45 -12.983,2.287c-3.962,0.846 -7.483,1.842 -10.55,2.775c-3.067,0.938 -5.633,1.904 -7.712,2.729c-0.58,0.234 -1.113,0.455 -1.609,0.671c-0.025,-0.004 -0.041,-0.008 -0.062,-0.008c-3.404,-0.263 -7.009,-0.517 -10.746,-0.738c-3.742,-0.129 -7.625,-0.145 -11.571,-0.158c-3.946,0.042 -7.946,0.313 -11.95,0.488c-3.979,0.375 -7.971,0.704 -11.854,1.225c-1.938,0.275 -3.854,0.57 -5.742,0.866c-1.9,0.271 -3.746,0.629 -5.546,1.013c-1.804,0.375 -3.587,0.716 -5.308,1.108c-0.008,0.004 -0.021,0.008 -0.033,0.013c-2.363,0.604 -4.788,0.908 -7.225,0.908l-12.396,-0l-0,2.221c-0,11.571 5.708,22.462 15.362,28.841c8.984,5.934 16.28,14.4 20.73,24.692c13.237,30.638 43.725,52.079 79.225,52.079c35.495,0 65.987,-21.441 79.225,-52.079c4.758,-11.012 12.783,-19.937 22.641,-25.9c10.475,-6.337 16.954,-17.612 16.954,-29.854l-6.483,-0Z" style="fill:#4e6b5f;fill-rule:nonzero;"/><path d="M252.509,175.491c-0.788,1.983 -1.538,4.125 -2.217,6.425c-1.321,4.491 -2.429,12.891 -2.896,22.3c-0.025,0.508 -0.087,1.016 -0.125,1.529c2.434,-0.459 4.975,-0.888 7.642,-1.217c0.667,-0.087 1.354,-0.167 2.033,-0.246c-0.487,-4.371 -0.429,-8.808 0.246,-13.233c0.363,-2.346 0.792,-4.45 1.292,-6.204c0.833,-2.909 1.8,-5.529 2.804,-7.859l0.013,0.005c0.037,-0.105 0.075,-0.2 0.108,-0.313c0.346,-1.025 0.729,-2.192 1.092,-3.487c0.4,-1.288 0.716,-2.713 1.104,-4.217c0.183,-0.754 0.325,-1.538 0.496,-2.333c0.162,-0.8 0.354,-1.617 0.475,-2.455c0.266,-1.675 0.579,-3.412 0.741,-5.191c0.096,-0.892 0.217,-1.788 0.292,-2.692c0.058,-0.908 0.112,-1.817 0.167,-2.729c0.179,-2.046 0.087,-4.096 0.141,-6.121c-0.004,-0.229 -0.004,-0.462 -0.008,-0.696c-0.025,-0.441 -0.046,-0.883 -0.071,-1.321c-0.05,-0.883 -0.096,-1.758 -0.142,-2.62c-0.025,-0.43 -0.045,-0.859 -0.07,-1.284c-0.05,-0.416 -0.1,-0.837 -0.146,-1.25c-0.1,-0.825 -0.196,-1.633 -0.288,-2.421c-0.108,-0.783 -0.154,-1.562 -0.304,-2.295c-0.137,-0.734 -0.271,-1.446 -0.396,-2.13c-0.129,-0.683 -0.254,-1.337 -0.371,-1.958c-0.116,-0.625 -0.212,-1.225 -0.37,-1.767c-0.292,-1.095 -0.542,-2.05 -0.746,-2.837c-0.417,-1.579 -0.654,-2.488 -0.654,-2.488c-0,0 0.358,0.863 0.979,2.375c0.312,0.759 0.691,1.68 1.125,2.734c0.237,0.525 0.412,1.108 0.612,1.716c0.204,0.609 0.417,1.25 0.638,1.917c0.221,0.675 0.454,1.371 0.691,2.096c0.25,0.721 0.405,1.492 0.617,2.275c0.204,0.783 0.413,1.596 0.625,2.417c0.108,0.416 0.213,0.837 0.321,1.258c0.083,0.425 0.167,0.858 0.25,1.292c0.246,1.3 0.5,2.629 0.758,3.979c0,0.012 0.004,0.029 0.004,0.041c0.063,0.459 0.121,0.921 0.184,1.384l-0,0.008c0.016,-0.004 0.029,-0.008 0.046,-0.008c0.087,0.662 0.166,1.337 0.216,2.021c0.159,1.2 0.304,2.412 0.367,3.629c0.071,0.95 0.137,1.904 0.208,2.854c0.046,0.95 0.05,1.9 0.075,2.842c0.079,1.887 0,3.741 -0.046,5.545c-0.004,0.905 -0.091,1.784 -0.145,2.655c-0.067,0.862 -0.109,1.716 -0.192,2.537c-0.221,1.879 -0.371,3.654 -0.679,5.246c0.008,0.008 0.008,0.008 0.016,0.017c16.305,-4.167 27.734,-19.567 26.346,-36.913c0,0 -0.708,-40.075 -61.066,-59.017c-1.513,-0.475 -2.917,1.013 -2.33,2.488c1.871,4.712 4.688,13.387 4.53,22.625c-0.109,6.262 -2.317,12.262 -5.742,17.512c-4.65,7.13 -6.767,16 -5.183,25.255c2.466,14.395 13.241,25.316 26.933,28.325" style="fill:#4e6b5f;fill-rule:nonzero;"/><path d="M289.752,223.603c-1.608,-0 -2.908,1.3 -2.908,2.908c-0,1.608 1.3,2.908 2.908,2.908c1.604,0 2.909,-1.3 2.909,-2.908c-0,-1.608 -1.305,-2.908 -2.909,-2.908" style="fill:#4e6b5f;fill-rule:nonzero;"/><path d="M286.843,239.968c-2.412,0 -4.362,1.954 -4.362,4.367c-0,2.408 1.95,4.362 4.362,4.362c2.408,0 4.363,-1.954 4.363,-4.362c-0,-2.413 -1.955,-4.367 -4.363,-4.367" style="fill:#4e6b5f;fill-rule:nonzero;"/><path d="M214.832,236.332c-2.008,0 -3.637,1.629 -3.637,3.638c-0,2.008 1.629,3.637 3.637,3.637c2.009,0 3.638,-1.629 3.638,-3.637c-0,-2.009 -1.629,-3.638 -3.638,-3.638" style="fill:#4e6b5f;fill-rule:nonzero;"/><path d="M225.057,223.643c-3.191,0 -5.779,2.588 -5.779,5.779c0,3.192 2.588,5.775 5.779,5.775c3.192,0 5.779,-2.583 5.779,-5.775c0,-3.191 -2.587,-5.779 -5.779,-5.779" style="fill:#4e6b5f;fill-rule:nonzero;"/><path d="M222.834,264.362c-1.5,-0 -2.716,1.217 -2.716,2.712c-0,1.5 1.216,2.717 2.716,2.717c1.5,0 2.713,-1.217 2.713,-2.717c-0,-1.495 -1.213,-2.712 -2.713,-2.712" style="fill:#4e6b5f;fill-rule:nonzero;"/><path d="M285.388,273.428c-1.204,-0 -2.183,0.975 -2.183,2.183c0,1.204 0.979,2.179 2.183,2.179c1.205,0 2.184,-0.975 2.184,-2.179c-0,-1.208 -0.979,-2.183 -2.184,-2.183" style="fill:#4e6b5f;fill-rule:nonzero;"/></g></svg>