<?xml version="1.0" encoding="UTF-8" standalone="no"?><!DOCTYPE svg PUBLIC "-//W3C//DTD SVG 1.1//EN" "http://www.w3.org/Graphics/SVG/1.1/DTD/svg11.dtd"><svg width="100%" height="100%" viewBox="0 0 490 425" version="1.1" xmlns="http://www.w3.org/2000/svg" xmlns:xlink="http://www.w3.org/1999/xlink" xml:space="preserve" xmlns:serif="http://www.serif.com/" style="fill-rule:evenodd;clip-rule:evenodd;stroke-linejoin:round;stroke-miterlimit:2;"><g><path d="M54.657,79.492c88.087,-93.871 191.554,-105.612 295.625,-29.85c104.075,75.767 157.02,200.146 81.258,304.221c-75.767,104.071 -224.533,81.608 -328.604,5.842c-104.075,-75.767 -144.721,-177.434 -48.279,-280.213" style="fill:#fff;fill-rule:nonzero;"/><path d="M484.15,215.123c0.454,-5.075 -1.454,2.587 0.004,-3.35c0.388,0.737 0.621,1.754 -0.004,3.35" style="fill:#aca88e;fill-rule:nonzero;"/><path d="M485.247,194.875c-0.65,-4.141 -0.737,-8.546 -1.05,-13.141c-0.108,-2.296 -0.158,-4.638 -0.183,-7.009c-0.113,-2.371 -0.234,-4.766 -0.35,-7.179c-0.375,-9.633 -1.571,-19.517 -4.438,-28.029c-0.616,-2.004 1.829,0.154 0.313,-4.375c-3.238,-8.163 -6.775,-18.683 -11.646,-29.229c-4.75,-10.588 -10.758,-21.2 -16.983,-29.954l1.216,0.675c-1.196,-1.667 -2.891,-3.213 -4.658,-4.7c-1.846,-1.417 -3.713,-2.825 -5.129,-4.442c0.2,-0.258 1.287,0.658 0.904,-0.375c-1.354,-0.179 -6.004,-5.004 -7.846,-5.671c-1.025,-1.408 -0.342,-1.95 -1.821,-3.637l-2.646,-0.663c-6.812,-2.262 -13.316,-9.917 -22.137,-13.337c0.521,-0.017 1.429,0.237 0.904,-0.33c-13.775,-5.87 -30.871,-13.083 -47.1,-16.633c0.742,-0.221 1.525,-0.771 0.696,-1.437c-1.108,0.966 -6.125,-0.067 -10.492,-0.809c-1.721,-1.533 -7.637,-0.596 -12.633,-2.033l0.483,-0.196c-3.996,0.638 -5.504,-1.7 -8.812,-0.633l-2.279,-1.254c-1.9,1.495 -5.4,-1.638 -8.671,-1.105l0.066,0.363c-3.025,0.133 -4.491,-0.871 -7.283,-0.846l-0.246,-0.225c-6.512,-0.117 -10.237,-1.175 -10.154,0.125c-2.217,-1.204 6.321,-0.096 2.846,-1.871c-21.508,-0.037 -43.588,0.188 -65.042,2.534c-2.496,-0.309 -4.062,-0.196 -4.671,-0.646c-2.1,0.562 -8.041,1.262 -9.87,2.271c0.708,-0.146 -1.48,-0.446 -2.617,-0.325c-3.967,0.15 -3.992,2.141 -8.342,2.27c1.625,-0.645 2.129,-1.154 1.475,-1.55c-3.45,1.646 -8.283,2.525 -12.479,3.692c0.613,-0.354 1.617,-0.692 1.367,-1.067c-4.404,2.105 -8.517,1.717 -12.409,3.371l1.334,-1.108c-6.767,0.679 -1.529,2.033 -7.271,2.983c1.279,-0.6 0.729,-0.762 0.892,-1.133c-4.888,2.683 -13.355,4.812 -18.35,6.912c0.275,-0.195 0.129,-0.37 0.129,-0.37c-5.479,2.112 -11.471,3.629 -17.217,6.662c-2.308,0.546 0.025,-2.029 -5.671,0.529c0.796,1.321 -9.416,4.846 -5.358,4.963c-4.983,1.787 -12.704,5.112 -15.629,7.133c1.837,-1.646 -3.171,-0.479 0.696,-2.629c-1.155,0.196 -2.263,0.479 -3.396,0.729c0.137,-0.808 3.146,-1.446 1.837,-1.654c-1.95,1.117 -7.358,4.758 -9.229,5.483c-3.087,2.929 -5.462,6.3 -10.912,10.021c2.27,-2.229 -2.405,-0.454 -0.78,-1.85l-6.054,7.567c-1.725,1.354 -1.087,-0.717 -3.416,1.491c0.375,0.234 -0.592,1.255 -1.175,2.092c-0.384,0.171 -2.159,1.592 -4.05,2.883c-1.834,1.371 -3.767,2.642 -4.621,2.35c-1.129,0.142 2.587,-2.508 0.354,-1.395c-3.142,2.595 -3,3.05 -6.071,5.708l-0.192,-0.104c-2.154,1.629 -5.445,5.766 -2.716,4.441c1.416,-1.204 -1.134,-0.208 1.204,-1.716c-0.783,1.95 -4.204,5.141 -6.958,8.071c0.795,-1.146 0.395,-1.321 0.491,-2.021c-1.508,2.35 -3.196,4.596 -4.996,6.825c-1.725,2.291 -3.487,4.641 -5.3,7.05c0.484,0.55 0.505,-2.529 1.388,-2.942c-3.021,2.492 -5.275,5.833 -7.383,9.029c-2.23,3.117 -4.046,6.279 -6.505,8.484c0.5,-0.938 1.171,0.12 0.963,0.062c-2.175,2.988 -3.05,2.217 -3.971,4.504c-0.642,-0.129 -1.429,2.704 -2.567,4.909c-0.283,1.32 -0.595,0.4 0.484,-1.484c-1.65,3.117 -7.163,15.75 -11.034,22.75c0.35,-0.008 -0.329,5.134 -1.016,6.8l-0.65,-0.996c-1.109,1.371 -2.084,5.759 -2.854,5.83c-0.346,4.037 4.233,-14.538 3.245,-9.25c-1.225,1.016 -1.145,7.441 -1.966,5.933c-1.317,3.467 -1.079,7.25 -3.004,10.35c0.437,-0.933 -0.417,-3.238 -1.205,-0.346c-1.283,5.108 0.03,1.563 -0.654,5.779l-0.204,2.692c0.871,0.367 -1.142,4.537 0.3,2.85c-1.042,0.454 -0.8,7.546 -2.254,6.767l-1.083,-0.913c-0.259,2.279 0.695,3.883 0.958,5.704c-0.158,0.279 -0.492,0.838 -0.667,0.7c1.754,0.563 -0.625,5.384 0.559,8.175c-1.213,4.667 -0.409,12.004 -1.721,14.246c0.604,3.663 1.496,6.958 1.246,11.146c-0.209,-0.821 -0.309,-1.954 -0.717,-2.171c-0.425,2.654 0.029,3.288 0.6,5.638c-0.329,-0.513 -0.554,5.316 -0.917,8.333c1,3.562 1.884,2.167 2.521,2.45c-1.258,3.575 2.679,9.917 2.108,14.242c-0.52,-1.163 -2.037,-5 -1.825,-1.946c-0.966,3.654 2.588,6.329 3.334,11.658l1.1,-1.667c-0.242,2.546 3.012,7.28 1.383,7.217c1.05,1.533 1.625,6.108 2.804,5.063c0.754,4.375 3.092,9.191 5.034,13.683c2.125,4.408 3.987,8.462 4.116,11.483c0.85,0.971 2.217,3.825 2.55,2.884c-0.333,-2.213 -1.983,-2.234 -1.883,-3.184c0.608,0.954 1.087,0.971 1.321,0.971c1.075,2.517 2.066,4.446 -0.296,2.821c2.254,5.808 5.362,4.087 9.117,10.796c-0.671,0.046 -0.617,0.716 0.82,2.475l3.425,2.791c2.796,4.117 0.605,3.117 -0.141,3.855c1.725,2.066 3.937,4.525 5.279,4.975l1.129,3.345c-0.833,-2.441 1.879,1.3 3,1.988l-1.062,-0.742c0.02,0.654 2.37,2.729 3.545,3.775c0.209,-0.712 -1.783,-3.183 -2.837,-4.558c1.283,0.683 2.671,2.296 4.304,3.233c-1.129,0.25 2.425,3.717 3.971,5.179c1.629,1.838 2.633,1.221 3.125,1.734c-0.317,0.429 2.833,2.791 0.95,2.033c-0.721,-0.446 -1.033,-1.679 -2.354,-2.283c0.9,1.387 0.146,1.941 3.037,3.741c2.213,1.305 0.829,-1.9 4.029,1.663c-1.12,-0.617 -1.562,-0.458 -2.545,-0.808l3.079,3.291l0.741,-0.587c0.313,0.571 -0.058,0.362 0.075,0.637c0.821,0.059 2.171,1.1 3.5,2.104c1.38,0.938 2.742,1.838 3.48,1.709c1.85,1.275 3.366,3.391 5.05,4.75l-0.392,-0.167c1.858,1.925 4.975,3.621 7.137,4.342l-0.208,0.1c1.113,0.921 4.108,2.562 5.925,3.037c2.725,2.496 -0.775,3.634 3.275,4.754c3.25,1.825 5.921,1.342 4.9,0.117c5.471,3.838 12.871,5.821 17.867,9.65c1.025,0.046 0.571,-0.412 2.458,0.179c8.742,4.396 19.433,6.575 26.238,10.721c-2.825,-0.471 -0.467,0.833 -0.567,1.35c2.5,-0.121 2.454,1.633 3.683,0.517c0.017,-0.871 0.359,-1.196 -2.171,-2.304c2.855,0.608 6.384,1.583 9.584,2.541c3.221,0.875 6.096,1.817 7.566,2.604c-1.47,-0.783 -0.195,-0.716 1.092,-0.641c-0.742,1.229 3.413,2.416 6.704,2.621l0.625,-0.7l1.888,1.266c1.283,-0.008 1.683,-1.325 4.696,0.029c0.104,0.338 0.225,0.688 0.766,1.017c3.459,-0.1 8.263,-0.233 11.775,0.896l2.788,1.6c1.566,0.092 4.258,-0.246 1.587,-0.971c6.054,1.667 10.079,1.975 11.938,3.271c10.962,-1.371 26.408,-0.708 38.887,-0.721l-0.358,0.608c3.354,0.455 1.717,-1.141 4.054,-0.82c-1.071,0.633 2.583,1.137 -0.033,1.983c4.829,0.404 6.15,-1.363 9.241,-1.788c0.434,-0.825 -2.475,0.634 -1.92,-0.412c0.512,-0.313 6.645,0.304 7.308,-0.942c1.225,0.417 0.362,1.35 -0.254,1.871l2.887,-0.725c3.713,1.238 -8.004,2.917 -4.125,4.475l2.725,-0.321c2.704,1.138 -7.15,1.784 -0.241,1.879c2.958,-0.741 5.341,-2.616 2.654,-3.02c6.112,-0.867 2.579,-3.167 9.112,-3.83c1.863,0.488 -5.204,0.821 -3.85,1.659c3.192,0.587 6.129,-1.313 8.9,-1.309c-3.096,-0.079 -0.679,-1.612 1.242,-2.07c3.387,0.154 -1.996,1.4 2.717,0.941c0.679,-0.787 4.895,-1.837 1.104,-1.858c0.725,-0.888 1.954,-0.929 3.3,-0.938c1.329,-0.075 2.762,-0.204 3.9,-1.058c1.712,0.779 -4.304,3.529 0.879,3.021c-0.988,-0.896 5.987,-2.738 3.004,-3.746c2.033,-0.104 2.417,0.679 1.096,1.625c2.992,0.054 6.454,-3.337 7.862,-1.454l0.721,-1.271c0.975,0.104 2.296,0.246 3.892,0.417c2.462,-0.725 7.454,-3.8 7.692,-2.142c0.741,-0.4 6.333,-2.004 3.837,-2.454c-3.65,0.367 -3.729,2 -6.079,1.083c2.783,0.488 4.921,-1.65 6.767,-2.646l0.52,0.513c1.105,-0.592 3.875,-1.279 4.384,-2.154c-0.779,0.616 -0.171,0.891 0.825,0.754c0.312,-0.413 0.6,-0.896 0.887,-1.363c4.446,-2.341 1.675,1.167 6.1,-0.941l-3.175,2.112c0.696,-0.458 2.567,-0.237 4.642,-1.408c0.517,-1.175 1.692,-2.804 2.142,-3.733c2.379,-1.388 1.533,0.462 3.662,-1.388l-2.85,2.313c-0.387,0.47 2.796,0.454 6.221,-0.959c2.092,-1.133 4.646,-4.171 1.204,-2.833c1.613,-0.867 4.125,-1.579 3.121,-0.317c3.55,-2.221 -0.9,-0.608 2.012,-2.771c1.563,-0.154 6,-1.533 8.896,-2.079l-2.629,3.067l2.25,-1.171c-2.329,2.575 1.921,0.021 0.9,1.979c1.617,-0.683 3.363,-1.904 4.563,-3.162c-5.255,1.037 3.291,-5.479 1.054,-6.234c5.354,-4.17 6.066,1.334 10.383,-5c-1.254,0.259 0.713,-2.729 -2.55,0.075c3.65,-2.187 1.371,-2.979 5.625,-5.566c-2.379,2.971 4.208,-1.079 0.758,3.225c-0.116,-0.746 -2.533,1.629 -3.195,2.129c1.866,-0.446 0.883,1.817 4.283,-1.008c1.962,-1.863 4.779,-4.25 3.758,-4.646c-0.758,-0.742 -3.071,2.7 -2.425,0.775c3.834,-3.667 5.575,-3.029 6.034,-5.834c-2.484,2.246 -3.821,1.95 -4.242,1.359l2.671,-2.784l-0.113,1c5.029,-3.633 0.721,-1.92 5.013,-6.037l2.912,-1.021c-0.125,1.925 -6.475,5.838 -4.487,6.425c3.016,-2.533 3.071,-4.346 6.046,-6.583c-0.455,0.708 -1.205,1.546 -1.65,2.254c1.012,-0.95 3.837,-0.171 6.691,-5.263c1.596,-2.483 0.025,-1.02 -0.458,-1.562c1.058,-1.167 1.9,-2.154 2.608,-3.025c0.654,-0.917 1.125,-1.771 1.592,-2.525c0.912,-1.538 1.662,-2.833 2.862,-4.454c0.592,1.537 4.538,-5.546 2.913,-1.138c-0.971,0.563 -2.846,2.642 -4.517,4.913c-0.837,1.133 -1.625,2.321 -2.229,3.387c-0.696,0.988 -1.196,1.867 -1.337,2.5c2.854,-0.533 -3.642,3.4 -3.371,5.563c3.596,-3.646 4.646,-2.354 6.029,-2.225c1.058,-0.992 1.717,-2.279 2.154,-3.038c-0.358,-1.112 -1.604,0.284 -2.483,-0.354c3.933,-4.167 6.783,-9 7.966,-12.017c1.58,-1.191 2.03,-0.12 0.7,1.725c4.259,-5.35 7.855,-11.72 11.705,-16.975c-3.667,2.675 3.533,-6.295 0.808,-4.579c-2.179,2.734 -4.767,4.6 -4.396,2.621c1.238,-1.746 0.588,0.433 1.371,-0.137c0.679,-2.75 3.604,-2.83 3.5,-5.971c-2.333,5.762 1.208,2.062 1.85,3.721c1.396,-4.392 0.721,0.629 2.742,-3.375c1.408,-4.388 3.395,-9.563 5.387,-14.138c3.408,-5.371 5.992,-14.767 7.817,-20.046c1.475,-2.604 2.296,-0.221 3.466,-3.225c1.063,-3.616 -2.32,2.188 -0.062,-2.941l0.121,0.6c0.158,-1.7 3.925,-9.534 2.362,-11.659l1.042,2.063c0.442,-0.959 0.371,-1.984 0.454,-2.85c0.513,0.096 1.325,-0.954 1.163,0.762c1.987,-3.062 1.433,-7.141 2.233,-10.804l-1.433,2.154c0.587,-6.441 2.616,-10.408 3.35,-16.583l0.887,0.342l-0.017,-3.755c0.755,1.042 1.813,-2.237 1.355,-4.291l0.845,9.937c-0.991,2.55 -0.637,-3.096 -1.816,-1.591c-0.875,1.291 -2.017,6.925 -1.296,8.033c0.571,-2.142 0.396,-2.292 0.433,-4.021c1.421,-0.479 0.654,2.796 1.138,4.6c0.196,-1.146 0.937,-2.692 0.591,-3.012c0.13,2.35 -0.27,4.633 -1.058,8.375c0.063,-2.634 -1.079,1.195 -1.229,0.158c1.042,0.542 0.6,4.192 -0.721,8.729c-2.042,2.933 -1.696,8.721 -3.592,13.9c-0.45,-2.471 -0.516,-5.433 -0.008,-8.721c-1.537,3.1 -1.067,3.642 -2.608,6.742c0.341,1.829 1.25,3.358 0.441,7.817l-0.87,-0.042c-0.734,4.029 0.187,4.375 -1.871,9.15c-1.834,4.058 -3.592,8.208 -5.221,12.125c-1.858,3.812 -3.763,7.317 -5.317,10.333l-0.866,-0.158c-0.046,2.092 -1.321,4.983 -2.784,7.954c-1.616,2.892 -3.637,5.733 -4.633,8.113c-2.746,3.395 -4.842,7.645 -7.338,11.012c-2.483,3.363 -4.725,6.275 -6.662,7.567c-8.946,12.408 -18.558,22.046 -31.167,31.762l1.304,-2.683c-1.662,2.487 -1.779,0.704 -3.933,2.433c3.242,-0.979 -2.446,3.171 -3.671,4.892c-3.225,1.575 -6.562,3.829 -9.721,6.229c-3.27,2.208 -6.508,4.308 -9.083,6.196l-0.608,-0.633c-2.463,2.15 -5.504,3.95 -8.921,5.337c-3.492,1.229 -7.246,2.308 -10.95,3.675c-0.975,0.017 -2.579,-0.187 -4.713,0.779c-3.454,3.025 -5.745,3.254 -11.487,5.979c-4.421,1.296 -11.629,3.325 -16.358,3.517c-8.225,2.679 -16.759,4.85 -25.53,5.721c-4.37,0.579 -8.758,1.162 -13.17,1.746c-4.43,0.296 -8.875,0.654 -13.342,1.158l-1.333,-0.929c-17.321,3.208 -38.705,0.133 -53.513,-0.496l1.608,-1.533c-4.545,-0.934 -10.537,-0.867 -9.541,0.491c-2.275,-0.591 -5.188,-0.787 -7.879,-1.087c-2.675,-0.383 -5.13,-0.838 -6.459,-1.788c-4.641,-1.125 -5.896,-0.283 -9.829,-0.925c-4.629,-1.279 -7.796,-2.154 -10.896,-3.008c-3.1,-0.842 -6.208,-1.392 -10.566,-2.6l2.116,0.746c1.054,-0.075 1.329,-0.746 -0.791,-1.496c-3.359,-0.483 -11.688,-4.037 -9.113,-1.104c-8.783,-4.121 -21.646,-6.708 -29.579,-12.167c0.508,0.817 -1.733,-0.008 -2.788,-0.133c-7.72,-3.679 -15.087,-8.863 -21.379,-11.6c-1.016,-0.95 2.321,0.325 -0.604,-1.542c-1.858,-0.896 -0.412,0.592 -2.737,-0.471c-12.388,-6.458 -22.505,-16.858 -31.859,-25.208c-17.333,-14.371 -31.3,-34.008 -40.85,-53.379l0.475,0.037c-4.733,-5.845 -5.391,-16.087 -9.416,-20.745c-0.288,-1.717 -1.863,-6.275 -0.73,-5.296c-2.766,-5.225 -3.345,-15.729 -5.995,-23.638c0.083,0.759 0.233,1.175 0.55,2.013c-0.559,-8.375 -2.692,-15.554 -2.43,-24.425c0.221,0.883 0.396,2.491 0.846,2.721c0.6,-3.405 -2.066,-7.95 -0.191,-9.88c-0.1,-1.933 -1.042,-1.362 -0.934,-0.166c0.034,-19.254 1.713,-40.071 7.446,-59.625c6,-13.288 3.371,0.271 5.933,-10.934c0.709,-0.712 -0.425,-0.904 0.009,-0.895c1.308,-4.255 4.796,-5.342 5.108,-8.534c-1.637,0.6 0.263,-2.125 -0.304,-2.512c2.412,-3.725 4.058,-5.825 5.408,-7.821c1.467,-1.925 2.638,-3.738 4.063,-6.929l0.262,0.779c2.742,-7.9 9.234,-14.838 12.013,-21.467c14.391,-17.425 31.15,-32.104 49.308,-44.266c18.146,-12.192 37.671,-21.959 58.108,-29.555c20.338,-7.145 40.959,-12.687 62.025,-16.187c21.03,-3.621 42.538,-5.238 64.284,-4.533c5.083,0.791 7.8,1.395 10.65,1.562c2.85,0.179 5.833,0.088 11.433,0.133c-0.467,0.246 -1.171,0.259 -0.442,0.559c0.65,-1.338 7.867,0.354 9.038,-0.775c16.029,1.683 30.858,3.566 47.121,7.608c-2.609,-0.5 -4.15,0.263 -1.092,0.938l3.404,-0.046l0.421,0.496c2.138,0.291 4.567,0.362 2.546,-0.705c10.25,2.575 20.292,5.996 29.992,10.238c9.666,4.346 18.925,9.604 27.629,15.642c17.379,12.158 32.2,27.87 43.308,45.766c4.85,8.754 11.308,21.4 14.883,31.646c4.096,15.542 5.78,30.567 6.384,45.5c0.575,14.95 0.071,29.854 -0.984,45.633c0,0 -0.783,-1.133 -1.529,-3.866c-0.829,-2.738 -1.275,-7.038 -1.479,-13.488" style="fill:#aca88e;fill-rule:nonzero;"/><path d="M483.404,221.216c-0.834,0.992 -1.713,4.454 -2.213,1.517c0.688,-0.254 1.663,-1.971 2.213,-1.517" style="fill:#aca88e;fill-rule:nonzero;"/><path d="M449.114,308.614c0.125,0.205 -0.837,1.042 -1.071,1.25c0.471,-1.041 0.446,-2.266 1.167,-2.904c-0.471,1.05 -0.113,1.046 -0.096,1.654" style="fill:#aca88e;fill-rule:nonzero;"/><path d="M436.421,328.51c-0.212,-0.588 2.009,-5.159 3.554,-7.679c-1.183,2.541 -2.283,5.162 -3.554,7.679" style="fill:#aca88e;fill-rule:nonzero;"/><path d="M420.695,343.787c-1.679,0.987 -1.525,0.425 0.234,-1.358c0.366,0.087 -0.092,0.791 -0.234,1.358" style="fill:#aca88e;fill-rule:nonzero;"/><path d="M420.638,345.829c-1.254,1.309 -2.137,1.705 -3,2.092c0.425,0.313 2.675,-3.221 3,-2.092" style="fill:#aca88e;fill-rule:nonzero;"/><path d="M383.246,374.156c-0.866,0.738 -2.762,2.342 -4.046,2.217c0.63,-0.084 1.78,-0.842 2.655,-1.546c0.85,-0.742 1.516,-1.292 1.391,-0.671" style="fill:#aca88e;fill-rule:nonzero;"/><path d="M364.373,385.211c-0.675,0.23 -0.992,0.238 -1.688,0.7c-1.316,0.238 -0.225,-0.687 0.767,-1.15l0.921,0.45Z" style="fill:#aca88e;fill-rule:nonzero;"/><path d="M26.28,261.023c0.258,0.763 0.541,1.513 0.875,2.25l-0.68,-0.192c-0.108,-0.675 -0.145,-1.366 -0.195,-2.058" style="fill:#aca88e;fill-rule:nonzero;"/><path d="M70.146,97.996c1.429,-1.97 1.583,-0.779 1.929,-0.991c-1.488,1.571 0.037,-1.1 -1.929,0.991" style="fill:#aca88e;fill-rule:nonzero;"/><path d="M149.012,43.166l-0.684,0.288l-0.241,-1.242l0.925,0.954Z" style="fill:#aca88e;fill-rule:nonzero;"/><path d="M171.476,129.407c-1.346,0.321 -2.534,0.479 -3.563,0.479c-1.454,0 -2.625,-0.321 -3.512,-0.958c-1.521,-1.063 -2.284,-2.554 -2.284,-4.467c0,-1.879 0.638,-3.637 1.913,-5.267c0.108,-0.108 0.196,-0.212 0.267,-0.316c2.412,-3.159 5.12,-5.992 8.137,-8.513c1.667,-1.204 3.242,-1.804 4.733,-1.804c0.638,0 1.275,0.121 1.913,0.371c2.021,0.779 3.371,2.587 4.042,5.425c0.283,1.417 0.508,4.946 0.666,10.583c0.159,5.638 0.284,11.834 0.371,18.588c0.088,6.754 0.15,12.541 0.188,17.362c-0,2.659 0.016,4.592 0.054,5.796c-0.071,4.042 -0.817,6.554 -2.234,7.525c-1.42,0.979 -2.679,1.463 -3.779,1.463c-0.779,-0 -1.558,-0.159 -2.337,-0.475c-1.95,-0.78 -3.209,-2.163 -3.779,-4.15c-0.246,-1.171 -0.396,-3.884 -0.45,-8.138c-0.055,-4.254 -0.08,-9.004 -0.08,-14.25c0,-8.158 -0.087,-14.575 -0.266,-19.254" style="fill:#4e6b5f;fill-rule:nonzero;"/><path d="M213.671,126.056c-2.909,3.404 -4.946,7.292 -6.117,11.675c-1.171,4.379 -1.754,8.213 -1.754,11.513c-0,1.666 0.125,3.316 0.371,4.945c1.066,5.534 2.271,8.342 3.616,8.43c1.35,0.087 2.075,0.133 2.184,0.133c2.446,-0 4.891,-2.267 7.337,-6.808c1.984,-3.971 2.979,-7.8 2.979,-11.488c0,-1.383 -0.141,-2.767 -0.425,-4.146c-1.066,-4.966 -3.795,-9.716 -8.191,-14.254m-7.604,-10.583c2.8,-2.021 5.37,-3.034 7.712,-3.034c0.529,0 1.063,0.055 1.592,0.163c2.804,0.604 5.337,2.046 7.608,4.333c2.267,2.288 4.358,4.759 6.275,7.417c4.358,5.887 6.613,10.629 6.754,14.229c0.142,3.6 0.213,5.683 0.213,6.246c-0,5.996 -1.384,11.542 -4.15,16.646c-2.975,5.566 -7.179,9.754 -12.604,12.554c-2.763,1.275 -5.475,1.917 -8.138,1.917c-1.667,-0 -3.296,-0.25 -4.892,-0.746c-4.183,-1.313 -7.57,-4.025 -10.158,-8.138c-2.729,-4.787 -4.096,-10.512 -4.096,-17.179l0,-0.267c0,-6.733 1.217,-13.241 3.646,-19.516c2.429,-6.275 5.842,-11.15 10.238,-14.625" style="fill:#4e6b5f;fill-rule:nonzero;"/><path d="M264.429,126.056c-2.908,3.404 -4.946,7.292 -6.117,11.675c-1.17,4.379 -1.754,8.213 -1.754,11.513c0,1.666 0.125,3.316 0.371,4.945c1.067,5.534 2.271,8.342 3.617,8.43c1.35,0.087 2.075,0.133 2.183,0.133c2.446,-0 4.892,-2.267 7.338,-6.808c1.983,-3.971 2.979,-7.8 2.979,-11.488c-0,-1.383 -0.142,-2.767 -0.425,-4.146c-1.067,-4.966 -3.796,-9.716 -8.192,-14.254m-7.604,-10.583c2.8,-2.021 5.371,-3.034 7.712,-3.034c0.53,0 1.063,0.055 1.592,0.163c2.804,0.604 5.338,2.046 7.608,4.333c2.267,2.288 4.359,4.759 6.275,7.417c4.359,5.887 6.613,10.629 6.755,14.229c0.141,3.6 0.212,5.683 0.212,6.246c0,5.996 -1.383,11.542 -4.15,16.646c-2.975,5.566 -7.179,9.754 -12.604,12.554c-2.763,1.275 -5.475,1.917 -8.138,1.917c-1.666,-0 -3.295,-0.25 -4.891,-0.746c-4.184,-1.313 -7.571,-4.025 -10.159,-8.138c-2.729,-4.787 -4.095,-10.512 -4.095,-17.179l-0,-0.267c-0,-6.733 1.216,-13.241 3.645,-19.516c2.43,-6.275 5.842,-11.15 10.238,-14.625" style="fill:#4e6b5f;fill-rule:nonzero;"/><path d="M336.885,169.452c-1.313,0.534 -2.604,0.8 -3.883,0.8c-1.559,0 -3.121,-0.391 -4.68,-1.171c-2.837,-1.416 -4.77,-4.041 -5.795,-7.87c-0.25,-1.35 -0.375,-2.609 -0.375,-3.775c-0,-2.734 0.658,-5.125 1.97,-7.18c1.95,-3.016 3.838,-4.7 5.663,-5.054c1.825,-0.354 3.004,-0.533 3.537,-0.533c2.517,-0 4.892,1.225 7.125,3.671c2.021,2.412 3.263,4.521 3.725,6.329c0.459,1.808 0.692,3.192 0.692,4.146c0,1.6 -0.375,3.158 -1.121,4.683c-1.133,2.375 -3.421,4.358 -6.858,5.954m-38.4,-2.446c0.142,-0.425 0.287,-0.92 0.429,-1.487c0.317,-1.421 0.813,-2.942 1.488,-4.575c7.375,-16.238 14.854,-32.404 22.441,-48.504c0.638,-1.384 1.675,-2.942 3.113,-4.679c1.437,-1.738 2.746,-2.855 3.937,-3.35c1.188,-0.496 2.063,-0.746 2.629,-0.746c1.171,-0 2.325,0.512 3.459,1.546c0.991,1.029 1.487,2.108 1.487,3.241l0,0.213c-0.033,1.171 -0.404,2.412 -1.116,3.725l-20.634,42.121c-1.558,3.225 -3.121,6.433 -4.679,9.625c-0.425,0.887 -0.833,1.808 -1.225,2.766c-0.85,2.163 -1.762,3.9 -2.737,5.213c-0.975,1.308 -2.171,1.966 -3.592,1.966c-0.354,0 -0.742,-0.033 -1.171,-0.108c-2.517,-0.637 -3.792,-2.958 -3.829,-6.967m16.433,-51.375c-0.246,3.263 -1.4,5.525 -3.454,6.78c-2.058,1.262 -4.042,1.891 -5.958,1.891c-0.85,0 -1.738,-0.108 -2.659,-0.321c-2.908,-0.67 -5.245,-2.604 -7.02,-5.795c-0.709,-1.525 -1.063,-3.034 -1.063,-4.521c0,-0.921 0.142,-1.825 0.425,-2.713c0.746,-2.304 2.046,-4.15 3.908,-5.533c1.863,-1.379 3.909,-2.071 6.142,-2.071c0.288,0 0.571,0.017 0.854,0.05c3.084,0.354 5.325,1.696 6.725,4.017c1.4,2.321 2.1,4.866 2.1,7.633l0,0.583Z" style="fill:#4e6b5f;fill-rule:nonzero;"/><path d="M164.926,208.079l11.662,0l1.259,-10.445c0.42,-2.825 1.195,-4.559 2.329,-5.205c1.133,-0.641 2.062,-0.962 2.791,-0.962c0.755,-0 1.509,0.25 2.263,0.754c1.454,0.95 2.237,2.783 2.35,5.496l-0,1.175c-0,2.546 -0.071,6.15 -0.208,10.825c-0.167,5.479 -0.413,10.883 -0.734,16.212c-0.325,5.33 -0.721,9.03 -1.196,11.096c-0.533,1.738 -1.287,2.775 -2.266,3.125c-0.979,0.35 -1.763,0.525 -2.35,0.525c-0.725,0 -1.454,-0.166 -2.184,-0.5c-1.283,-0.616 -2.083,-1.708 -2.387,-3.275c-0.308,-2.012 -0.479,-4.341 -0.504,-6.983c-0.029,-2.646 -0.042,-4.946 -0.042,-6.904l0,-5.409c-2.408,0.167 -4.854,0.334 -7.342,0.5c-1.12,0.084 -2.279,0.171 -3.483,0.255c-0.029,0.641 -0.054,1.412 -0.083,2.308c-0.029,2.154 -0.104,4.437 -0.234,6.858c-0.125,2.421 -0.341,4.313 -0.65,5.684c-0.475,1.595 -1.175,2.558 -2.095,2.895c-0.925,0.334 -1.609,0.505 -2.055,0.505c-0.925,-0 -1.82,-0.35 -2.687,-1.05c-1.288,-1.009 -1.958,-2.996 -2.013,-5.959l0,-4.196c0,-3.245 0.009,-7.066 0.021,-11.475c0.013,-4.404 0.075,-8.454 0.188,-12.141c0.112,-3.692 0.296,-6.113 0.546,-7.259c0.533,-1.679 1.245,-2.687 2.141,-3.02c0.892,-0.338 1.609,-0.505 2.138,-0.505c0.729,0 1.441,0.184 2.141,0.546c1.175,0.617 1.9,1.721 2.18,3.313l0.504,13.216Z" style="fill:#4e6b5f;fill-rule:nonzero;"/><path d="M211.804,217.853c-0.475,-2.742 -1.117,-5.817 -1.929,-9.229c-0.45,1.258 -0.908,2.671 -1.383,4.237c-0.563,1.734 -1.109,3.4 -1.638,4.992l4.95,0Zm1.721,10.113l-10.029,0.041c-0.279,0.813 -0.559,1.65 -0.838,2.517c-0.671,2.404 -1.483,4.462 -2.433,6.167c-0.95,1.708 -2.225,2.558 -3.817,2.558c-0.196,-0 -0.408,-0.013 -0.629,-0.042c-1.317,-0.279 -2.267,-0.937 -2.854,-1.971c-0.588,-1.033 -0.879,-1.904 -0.879,-2.6l-0,-1.216c-0,-1.175 0.166,-2.254 0.5,-3.234c0.616,-1.787 1.216,-3.591 1.804,-5.408c2.296,-6.883 4.7,-13.733 7.217,-20.558c0.812,-2.125 2.091,-4.259 3.841,-6.4c1.746,-2.138 3.671,-3.475 5.767,-4.004c0.25,-0.03 0.504,-0.042 0.754,-0.042c1.429,-0 2.671,0.558 3.733,1.679c1.259,1.283 2.246,2.867 2.959,4.738c0.712,1.875 1.196,3.537 1.45,4.991c1.537,8.563 2.933,17.134 4.191,25.717c0.255,1.179 0.38,2.237 0.38,3.192c-0,1.425 -0.28,2.6 -0.838,3.525c-0.925,1.537 -2.125,2.304 -3.608,2.304c-1.484,-0 -2.771,-0.821 -3.863,-2.475c-0.279,-0.475 -0.608,-1.334 -0.983,-2.579c-0.379,-1.242 -0.733,-2.517 -1.071,-3.817c-0.337,-1.304 -0.587,-2.329 -0.754,-3.083" style="fill:#4e6b5f;fill-rule:nonzero;"/><path d="M242.951,208.751c0.337,0.279 0.658,0.558 0.966,0.837c2.992,2.463 5.767,5.083 8.325,7.867c2.559,2.783 4.359,5.966 5.392,9.546c0.279,1.229 0.421,2.375 0.421,3.441c-0,2.542 -0.758,4.684 -2.267,6.417c-2.154,2.517 -4.25,3.854 -6.291,4.008c-2.042,0.15 -3.217,0.229 -3.525,0.229c-3.442,0 -6.95,-1.204 -10.53,-3.608c-1.625,-1.204 -2.604,-2.321 -2.937,-3.358c-0.338,-1.034 -0.504,-1.817 -0.504,-2.35c-0,-0.725 0.196,-1.396 0.587,-2.013c0.671,-1.033 1.888,-1.55 3.65,-1.55l6.921,2.809c0.504,0.087 0.954,0.125 1.346,0.125c0.837,-0 1.496,-0.18 1.971,-0.542c0.308,-0.254 0.462,-0.629 0.462,-1.133c0,-0.7 -0.283,-1.625 -0.841,-2.771c-0.642,-1.175 -1.559,-2.321 -2.746,-3.442c-1.192,-1.117 -2.471,-2.221 -3.842,-3.312c-1.704,-1.342 -3.304,-2.746 -4.804,-4.217c-1.496,-1.467 -2.521,-2.875 -3.083,-4.213c-0.559,-1.345 -0.838,-2.562 -0.838,-3.65c0,-0.895 0.142,-1.85 0.421,-2.854c0.979,-2.966 2.65,-5.225 5.012,-6.775c2.363,-1.554 4.309,-2.387 5.834,-2.5c1.521,-0.108 2.508,-0.166 2.954,-0.166c2.042,-0 3.804,0.433 5.287,1.3c1.621,0.95 2.434,2.391 2.434,4.325c-0,0.191 -0.013,0.404 -0.042,0.625c-0.225,1.708 -1.012,2.833 -2.371,3.379c-1.358,0.546 -3.096,0.929 -5.225,1.154c-0.475,0.054 -0.975,0.125 -1.508,0.208c-0.979,0.171 -1.467,0.475 -1.467,0.925c0,0.334 0.279,0.754 0.838,1.259" style="fill:#4e6b5f;fill-rule:nonzero;"/><path d="M273.425,208.751c0.337,0.279 0.658,0.558 0.967,0.837c2.991,2.463 5.766,5.083 8.325,7.867c2.558,2.783 4.358,5.966 5.391,9.546c0.279,1.229 0.421,2.375 0.421,3.441c0,2.542 -0.754,4.684 -2.267,6.417c-2.154,2.517 -4.25,3.854 -6.291,4.008c-2.042,0.15 -3.217,0.229 -3.525,0.229c-3.442,0 -6.95,-1.204 -10.529,-3.608c-1.625,-1.204 -2.605,-2.321 -2.938,-3.358c-0.337,-1.034 -0.504,-1.817 -0.504,-2.35c-0,-0.725 0.196,-1.396 0.587,-2.013c0.671,-1.033 1.888,-1.55 3.65,-1.55l6.921,2.809c0.504,0.087 0.954,0.125 1.346,0.125c0.838,-0 1.496,-0.18 1.971,-0.542c0.308,-0.254 0.462,-0.629 0.462,-1.133c0,-0.7 -0.283,-1.625 -0.841,-2.771c-0.642,-1.175 -1.559,-2.321 -2.746,-3.442c-1.192,-1.117 -2.471,-2.221 -3.842,-3.312c-1.704,-1.342 -3.304,-2.746 -4.8,-4.217c-1.5,-1.467 -2.525,-2.875 -3.087,-4.213c-0.559,-1.345 -0.838,-2.562 -0.838,-3.65c0,-0.895 0.142,-1.85 0.421,-2.854c0.979,-2.966 2.65,-5.225 5.013,-6.775c2.362,-1.554 4.308,-2.387 5.833,-2.5c1.521,-0.108 2.508,-0.166 2.954,-0.166c2.042,-0 3.804,0.433 5.288,1.3c1.62,0.95 2.433,2.391 2.433,4.325c-0,0.191 -0.013,0.404 -0.042,0.625c-0.225,1.708 -1.012,2.833 -2.371,3.379c-1.354,0.546 -3.095,0.929 -5.22,1.154c-0.48,0.054 -0.98,0.125 -1.513,0.208c-0.979,0.171 -1.467,0.475 -1.467,0.925c0,0.334 0.28,0.754 0.838,1.259" style="fill:#4e6b5f;fill-rule:nonzero;"/><path d="M305.998,227.293l3.312,0c0.871,0 1.738,0.013 2.605,0.042c1.733,0.029 3.454,0.196 5.158,0.504c3.217,0.729 4.837,2.362 4.867,4.908c-0.03,2.517 -1.567,4.254 -4.613,5.204c-1.092,0.305 -2.183,0.459 -3.275,0.459l-1.133,-0c-1.342,0.029 -2.671,0.041 -3.984,0.041c-1.762,0 -3.525,-0.025 -5.287,-0.083c-5.983,-0.112 -8.979,-3.062 -8.979,-8.85l-0,-0.8c0.112,-3.354 0.283,-6.712 0.504,-10.067c0.112,-1.679 0.225,-3.37 0.337,-5.075c0.113,-2.433 0.238,-4.883 0.375,-7.345c0.059,-1.48 0.13,-2.963 0.213,-4.446c0.221,-4.642 1.787,-6.975 4.696,-7.004l0.087,-0c1.259,-0 2.404,0.558 3.438,1.679c1.091,1.146 1.637,2.825 1.637,5.033l0,7.425c0.029,1.317 0.042,2.617 0.042,3.9l-0,14.475Z" style="fill:#4e6b5f;fill-rule:nonzero;"/><path d="M338.486,233.041c0.754,0.112 1.567,0.183 2.434,0.208c1.287,0.029 2.445,0.183 3.483,0.462c1.479,0.588 2.221,1.567 2.221,2.938l-0,0.25c-0.084,1.737 -0.713,2.925 -1.888,3.567c-1.483,0.645 -2.95,0.966 -4.404,0.966l-2.433,0c-2.546,0 -4.921,-0.166 -7.134,-0.504c-0.866,-0.196 -1.516,-0.608 -1.95,-1.237c-0.433,-0.63 -0.679,-1.28 -0.733,-1.95l0.796,-37.8c0.083,-2.492 0.65,-4.23 1.7,-5.225c1.05,-0.992 2.579,-1.505 4.596,-1.53c0.808,-0.029 1.675,-0.041 2.6,-0.041c0.95,-0 1.971,0.012 3.062,0.041c2.209,0.055 4.25,0.125 6.125,0.209c2.35,0.225 3.763,0.762 4.238,1.616c0.475,0.855 0.712,1.517 0.712,1.992c0,0.729 -0.279,1.442 -0.837,2.138c-0.979,1.233 -2.729,1.987 -5.246,2.266c-0.979,0.059 -1.988,0.084 -3.021,0.084c-0.529,-0 -1.062,-0.013 -1.596,-0.042c-0.725,-0.025 -1.496,-0.042 -2.304,-0.042l0,12.084c1.371,-0 2.921,0.07 4.654,0.208c1.738,0.142 3.246,0.458 4.534,0.946c1.287,0.487 1.983,1.237 2.095,2.246l0,0.125c0,2.07 -0.879,3.425 -2.641,4.066c-1.792,0.646 -3.804,1.05 -6.042,1.217c-1.062,0.142 -2.071,0.283 -3.021,0.421l0,10.321Z" style="fill:#4e6b5f;fill-rule:nonzero;"/><path d="M188.096,273.289c0.141,1.88 0.212,3.725 0.212,5.534c0,1.879 0.071,3.808 0.213,5.796c0.566,0.07 1.241,0.141 2.021,0.212c1.916,0.179 4.033,0.471 6.354,0.875c2.325,0.408 4.221,1.067 5.691,1.971c1.471,0.904 2.209,2.067 2.209,3.483c-0,0.246 -0.017,0.513 -0.054,0.796c-0.567,2.413 -2.092,4.017 -4.575,4.813c-2.48,0.8 -5.23,1.304 -8.242,1.516c-1.063,0.104 -2.075,0.234 -3.033,0.371c-0.034,0.604 -0.05,1.333 -0.05,2.183l0.05,1.596c-0,1.667 -0.088,3.454 -0.263,5.371c-0.179,2.55 -0.683,4.688 -1.517,6.408c-0.833,1.721 -2.154,2.58 -3.962,2.58l-0.425,-0c-2.233,-0.321 -3.892,-1.225 -4.975,-2.713c-1.079,-1.487 -1.654,-3.317 -1.725,-5.479c-0.071,-1.308 -0.125,-2.642 -0.163,-3.988c-0.529,-12.054 -0.833,-24.125 -0.904,-36.216c0.071,-3.971 1.054,-6.542 2.954,-7.713c1.896,-1.171 4.05,-1.754 6.463,-1.754c0.6,0 1.221,0.033 1.858,0.104c3.192,0.284 6.488,0.817 9.892,1.596c1.421,0.321 2.783,0.604 4.096,0.854c0.675,0.104 1.5,0.496 2.475,1.167c0.975,0.675 1.716,1.454 2.233,2.342c0.513,0.887 0.771,1.737 0.771,2.554c-0,0.458 -0.071,0.937 -0.213,1.433c-0.566,1.917 -1.808,3.088 -3.725,3.513c-2.55,0.387 -5.495,0.583 -8.829,0.583c-1.771,0.037 -3.383,0.108 -4.837,0.212" style="fill:#4e6b5f;fill-rule:nonzero;"/><path d="M226.833,275.79c1.913,-1.525 2.888,-2.625 2.925,-3.3l0,-1.009c0,-1.312 -0.975,-2.358 -2.925,-3.137l0,7.446Zm0.109,22.654c-0,0.854 0.016,1.737 0.05,2.662c0.07,0.78 0.108,1.559 0.108,2.338c-0,2.058 -0.213,4.062 -0.638,6.012c-0.57,2.621 -2.325,4.446 -5.266,5.475c-0.463,0.105 -0.888,0.163 -1.275,0.163c-1.313,-0 -2.375,-0.533 -3.192,-1.6c-1.062,-1.379 -1.8,-3.071 -2.208,-5.075c-0.409,-2.004 -0.629,-3.7 -0.663,-5.083c-0.25,-11.413 -0.375,-22.85 -0.375,-34.3c0,-1.242 0.063,-2.6 0.188,-4.071c0.125,-1.471 0.433,-2.771 0.929,-3.909c0.496,-1.133 1.296,-1.879 2.396,-2.233c3.437,-0.85 6.541,-1.275 9.304,-1.275c2.625,0 4.967,0.392 7.021,1.171c4.183,1.525 6.729,3.529 7.633,6.008c0.904,2.479 1.354,4.484 1.354,6.009c0,2.27 -0.583,4.662 -1.754,7.179c-1.029,2.025 -2.271,4.041 -3.721,6.062c-0.675,0.996 -1.35,2.025 -2.021,3.088c6.663,5.85 12.905,12.146 18.717,18.879c1.667,2.092 2.5,4.096 2.5,6.008c0,0.425 -0.033,0.834 -0.104,1.225c-0.463,2.271 -1.304,3.546 -2.525,3.829c-1.225,0.284 -1.996,0.425 -2.317,0.425c-1.983,0 -4.287,-1.15 -6.912,-3.454c-1.525,-1.458 -2.979,-2.858 -4.363,-4.204c-3.829,-3.862 -8.116,-7.642 -12.866,-11.329" style="fill:#4e6b5f;fill-rule:nonzero;"/><path d="M277.007,309.294c0.958,0.142 1.988,0.233 3.083,0.267c1.634,0.033 3.105,0.233 4.417,0.583c1.879,0.746 2.817,1.987 2.817,3.725l-0,0.317c-0.104,2.2 -0.904,3.704 -2.392,4.52c-1.879,0.817 -3.742,1.225 -5.583,1.225l-3.088,0c-3.225,0 -6.237,-0.212 -9.041,-0.637c-1.096,-0.25 -1.921,-0.771 -2.471,-1.571c-0.55,-0.796 -0.859,-1.621 -0.929,-2.471l1.008,-47.921c0.108,-3.154 0.825,-5.358 2.154,-6.62c1.329,-1.255 3.271,-1.905 5.825,-1.938c1.025,-0.037 2.125,-0.054 3.296,-0.054c1.204,-0 2.5,0.017 3.883,0.054c2.8,0.071 5.388,0.158 7.763,0.263c2.979,0.283 4.771,0.966 5.371,2.05c0.604,1.079 0.904,1.92 0.904,2.525c-0,0.92 -0.354,1.825 -1.063,2.712c-1.241,1.563 -3.454,2.517 -6.646,2.871c-1.241,0.075 -2.516,0.108 -3.829,0.108c-0.675,0 -1.35,-0.021 -2.021,-0.054c-0.925,-0.037 -1.9,-0.054 -2.925,-0.054l0,15.317c1.738,-0 3.705,0.087 5.9,0.266c2.2,0.179 4.113,0.575 5.746,1.196c1.629,0.621 2.517,1.571 2.659,2.846l-0,0.162c-0,2.621 -1.117,4.342 -3.35,5.155c-2.271,0.816 -4.821,1.333 -7.659,1.541c-1.346,0.179 -2.625,0.359 -3.829,0.534l0,13.083Z" style="fill:#4e6b5f;fill-rule:nonzero;"/><path d="M315,309.294c0.959,0.142 1.988,0.233 3.084,0.267c1.633,0.033 3.104,0.233 4.416,0.583c1.88,0.746 2.817,1.987 2.817,3.725l0,0.317c-0.104,2.2 -0.904,3.704 -2.392,4.52c-1.879,0.817 -3.741,1.225 -5.583,1.225l-3.087,0c-3.225,0 -6.238,-0.212 -9.042,-0.637c-1.096,-0.25 -1.921,-0.771 -2.471,-1.571c-0.55,-0.796 -0.858,-1.621 -0.929,-2.471l1.008,-47.921c0.109,-3.154 0.825,-5.358 2.154,-6.62c1.33,-1.255 3.271,-1.905 5.825,-1.938c1.025,-0.037 2.125,-0.054 3.296,-0.054c1.204,-0 2.5,0.017 3.884,0.054c2.8,0.071 5.387,0.158 7.762,0.263c2.979,0.283 4.771,0.966 5.371,2.05c0.604,1.079 0.904,1.92 0.904,2.525c0,0.92 -0.354,1.825 -1.062,2.712c-1.242,1.563 -3.455,2.517 -6.646,2.871c-1.242,0.075 -2.517,0.108 -3.829,0.108c-0.675,0 -1.35,-0.021 -2.021,-0.054c-0.925,-0.037 -1.9,-0.054 -2.925,-0.054l-0,15.317c1.737,-0 3.704,0.087 5.9,0.266c2.2,0.179 4.112,0.575 5.746,1.196c1.629,0.621 2.516,1.571 2.658,2.846l-0,0.162c-0,2.621 -1.117,4.342 -3.35,5.155c-2.271,0.816 -4.821,1.333 -7.658,1.541c-1.346,0.179 -2.625,0.359 -3.83,0.534l0,13.083Z" style="fill:#4e6b5f;fill-rule:nonzero;"/></g></svg>