<?xml version="1.0" encoding="UTF-8" standalone="no"?><!DOCTYPE svg PUBLIC "-//W3C//DTD SVG 1.1//EN" "http://www.w3.org/Graphics/SVG/1.1/DTD/svg11.dtd"><svg width="100%" height="100%" viewBox="0 0 470 442" version="1.1" xmlns="http://www.w3.org/2000/svg" xmlns:xlink="http://www.w3.org/1999/xlink" xml:space="preserve" xmlns:serif="http://www.serif.com/" style="fill-rule:evenodd;clip-rule:evenodd;stroke-linejoin:round;stroke-miterlimit:2;"><g><path d="M467.706,223.769c-15.841,126.721 -91.966,196.546 -219.67,196.546c-127.709,-0 -242.796,-68.842 -242.796,-196.546c-0,-127.704 132.429,-196.546 260.137,-196.546c127.709,0 219.671,57.804 202.329,196.546" style="fill:#fff;fill-rule:nonzero;"/><path d="M441.939,131.531c-1.729,-4.754 -0.225,2.941 -1.408,-3.013c0.662,0.496 1.3,1.313 1.408,3.013" style="fill:#aca88e;fill-rule:nonzero;"/><path d="M434.403,112.878c-2.329,-3.446 -4.266,-7.366 -6.479,-11.362c-1.066,-2.017 -2.096,-4.096 -3.116,-6.221c-1.1,-2.079 -2.213,-4.183 -3.334,-6.3c-4.387,-8.5 -9.616,-16.879 -15.779,-23.317c-1.4,-1.537 1.717,-0.637 -1.554,-4.066c-6.346,-5.967 -13.95,-13.925 -22.763,-21.359c-8.716,-7.512 -18.579,-14.529 -27.85,-19.779l1.38,0.088c-1.78,-0.996 -3.95,-1.671 -6.167,-2.259c-2.254,-0.496 -4.525,-0.975 -6.479,-1.829c0.075,-0.321 1.437,0.046 0.658,-0.725c-1.296,0.417 -7.504,-1.967 -9.437,-1.787c-1.513,-0.838 -1.125,-1.617 -3.163,-2.517l-2.658,0.529c-7.079,0.854 -16.138,-3.308 -25.5,-2.662c0.458,-0.238 1.383,-0.392 0.671,-0.684c-14.846,0.534 -33.238,1.242 -49.313,4.884c0.571,-0.513 1.046,-1.342 0.017,-1.596c-0.588,1.341 -5.525,2.529 -9.763,3.7c-2.191,-0.663 -7.108,2.687 -12.204,3.491l0.35,-0.383c-3.321,2.267 -5.662,0.783 -8.179,3.146l-2.583,-0.179c-1.071,2.158 -5.538,0.796 -8.25,2.654l0.212,0.3c-2.658,1.396 -4.4,1.108 -6.896,2.304l-0.316,-0.096c-5.9,2.634 -9.696,3.242 -9.071,4.388c-2.504,-0.159 5.637,-2.75 1.762,-2.892c-19.333,9.021 -39.079,18.504 -57.366,29.638c-2.375,0.77 -3.734,1.525 -4.471,1.375c-1.65,1.395 -6.692,4.525 -7.913,6.2c0.579,-0.425 -1.516,0.216 -2.487,0.804c-3.509,1.804 -2.679,3.612 -6.538,5.554c1.188,-1.267 1.421,-1.933 0.667,-2.021c-2.404,2.942 -6.375,5.758 -9.654,8.575c0.4,-0.579 1.162,-1.304 0.775,-1.542c-3.067,3.75 -6.929,5.125 -9.729,8.255l0.729,-1.563c-5.8,3.45 -0.509,2.479 -5.271,5.746c0.896,-1.079 0.329,-0.996 0.321,-1.396c-3.254,4.475 -9.971,9.946 -13.571,13.933c0.162,-0.291 -0.042,-0.387 -0.042,-0.387c-4.037,4.2 -8.779,8.083 -12.662,13.229c-1.85,1.458 -0.846,-1.846 -4.884,2.85c1.275,0.863 -6.42,8.321 -2.712,6.725c-3.729,3.704 -9.271,9.933 -11.046,12.979c0.954,-2.25 -3.058,0.896 -0.492,-2.662c-0.954,0.658 -1.837,1.379 -2.75,2.079c-0.22,-0.788 2.221,-2.621 0.95,-2.263c-1.279,1.825 -4.604,7.375 -5.983,8.813c-1.537,3.933 -2.242,7.971 -5.571,13.608c1.1,-2.962 -2.358,0.596 -1.487,-1.346l-2.238,9.359c-0.979,1.941 -1.287,-0.192 -2.45,2.771c0.438,0.054 0,1.379 -0.171,2.379c-0.27,0.312 -1.266,2.337 -2.425,4.296c-1.07,1.995 -2.27,3.954 -3.166,4.045c-0.959,0.605 1.266,-3.345 -0.275,-1.404c-1.734,3.654 -1.413,4.004 -3.054,7.684l-0.213,-0.013c-1.254,2.371 -2.467,7.475 -0.562,5.138c0.766,-1.675 -1.117,0.287 0.358,-2.05c0.117,2.083 -1.608,6.387 -2.854,10.179c0.233,-1.363 -0.2,-1.354 -0.417,-2.025c-0.358,2.75 -0.929,5.475 -1.608,8.237c-0.579,2.784 -1.175,5.634 -1.784,8.567c0.667,0.287 -0.625,-2.492 0,-3.233c-1.67,3.508 -2.287,7.462 -2.837,11.22c-0.688,3.738 -0.988,7.342 -2.275,10.35c0.054,-1.05 1.108,-0.379 0.896,-0.345c-0.696,3.6 -1.817,3.275 -1.675,5.716c-0.638,0.154 -0.146,3.029 -0.238,5.488c0.3,1.308 -0.371,0.612 -0.196,-1.534c-0.166,3.492 0.2,17.159 -0.337,25.075c0.312,-0.154 1.875,4.746 1.954,6.534l-1.008,-0.621c-0.425,1.7 0.55,6.05 -0.117,6.437c1.396,3.771 -2.321,-14.837 -0.975,-9.675c-0.679,1.434 2.113,7.171 0.729,6.159c0.275,3.666 2.088,6.966 1.659,10.562c-0,-1.025 -1.746,-2.733 -1.238,0.196c0.996,5.129 0.683,1.388 1.846,5.463l0.954,2.504c0.942,-0.034 0.879,4.558 1.471,2.433c-0.746,0.85 2.462,7.117 0.817,7.029l-1.367,-0.358c0.725,2.154 2.267,3.187 3.271,4.712c-0.025,0.317 -0.092,0.959 -0.309,0.913c1.83,-0.233 1.7,5.096 3.955,7.104c0.866,4.704 4.679,10.958 4.433,13.525c2.087,3.033 4.279,5.617 5.812,9.488c-0.533,-0.655 -1.104,-1.63 -1.562,-1.646c0.733,2.562 1.408,2.937 2.912,4.812c-0.516,-0.325 1.73,5.009 2.667,7.871c2.404,2.783 2.617,1.154 3.313,1.133c0.358,3.75 6.583,7.775 7.879,11.913c-0.959,-0.829 -3.938,-3.633 -2.467,-0.975c0.654,3.696 4.996,4.592 7.9,9.067l0.296,-1.967c0.846,2.392 5.775,5.267 4.275,5.904c1.592,0.933 4.025,4.808 4.654,3.358c2.513,3.621 6.638,6.963 10.271,10.18c3.767,3.066 7.142,5.929 8.521,8.595c1.175,0.513 3.6,2.505 3.508,1.513c-1.225,-1.854 -2.725,-1.171 -3.033,-2.071c0.95,0.604 1.387,0.417 1.6,0.317c2.021,1.808 3.725,3.125 0.912,2.666c4.463,4.28 6.55,1.405 12.738,5.855c-0.588,0.325 -0.254,0.908 1.775,1.879l4.254,1.062c4.242,2.525 1.85,2.559 1.483,3.538c2.421,1.133 5.442,2.408 6.838,2.241l2.421,2.546c-1.775,-1.854 2.233,0.371 3.529,0.513l-1.267,-0.217c0.292,0.583 3.279,1.458 4.775,1.904c-0.108,-0.737 -2.937,-2.121 -4.462,-2.912c1.441,0.071 3.366,0.933 5.225,1.087c-0.909,0.704 3.741,2.325 5.745,2.988c2.238,0.966 2.88,-0.017 3.538,0.237c-0.104,0.525 3.717,1.317 1.708,1.434c-0.837,-0.1 -1.637,-1.08 -3.075,-1.063c1.392,0.871 0.942,1.692 4.3,2.088c2.538,0.237 -0.05,-2.071 4.321,-0.213c-1.267,-0.079 -1.6,0.254 -2.629,0.354l4.15,1.667l0.421,-0.846c0.521,0.383 0.1,0.354 0.337,0.546c0.763,-0.3 2.413,0.067 4.025,0.412c1.638,0.263 3.238,0.492 3.846,0.063c2.2,0.367 4.45,1.637 6.533,2.15l-0.42,0.012c2.479,0.959 5.987,1.167 8.237,0.9l-0.146,0.18c1.388,0.362 4.771,0.57 6.6,0.229c3.5,1.104 0.834,3.621 4.938,2.912c3.691,0.275 5.887,-1.296 4.454,-1.975c6.529,1.154 14.012,-0.191 20.108,1.163c0.942,-0.396 0.342,-0.617 2.284,-0.884c9.704,0.28 20.225,-2.27 28.079,-1.4c-2.738,0.775 -0.067,0.959 0.062,1.467c2.192,-1.162 2.892,0.442 3.521,-1.087c-0.35,-0.796 -0.179,-1.234 -2.921,-1.175c2.825,-0.655 6.404,-1.259 9.679,-1.746c3.263,-0.571 6.242,-0.929 7.896,-0.838c-1.654,-0.087 -0.479,-0.566 0.709,-1.046c-0.146,1.43 4.083,0.75 7.125,-0.454l0.266,-0.9l2.234,0.354c1.145,-0.55 0.945,-1.912 4.225,-1.958c0.233,0.263 0.491,0.525 1.12,0.6c3.063,-1.55 7.317,-3.7 10.95,-4.154l3.18,0.271c1.445,-0.575 3.72,-2.017 1.016,-1.55c6.142,-1.038 9.884,-2.459 12.104,-2.067c9.263,-5.862 23.417,-11.762 34.621,-17.021l-0.062,0.704c3.208,-1 1.058,-1.754 3.296,-2.445c-0.696,1.02 2.804,-0.059 0.812,1.804c4.508,-1.659 4.946,-3.817 7.546,-5.5c0.037,-0.925 -1.954,1.612 -1.904,0.437c0.329,-0.5 6.104,-2.521 6.166,-3.925c1.28,-0.141 0.9,1.067 0.571,1.8l2.284,-1.871c3.858,-0.441 -5.955,6.005 -1.805,5.788l2.309,-1.438c2.916,-0.108 -5.667,4.617 0.583,1.805c2.342,-1.917 3.688,-4.613 1.1,-3.855c5.125,-3.35 0.975,-3.95 6.563,-7.287c1.883,-0.342 -4.325,2.921 -2.755,3.112c3.117,-0.808 4.955,-3.758 7.446,-4.92c-2.821,1.233 -1.296,-1.171 0.234,-2.396c3.112,-1.279 -1.196,2.108 2.841,-0.284c0.275,-1 3.621,-3.716 0.204,-2.145c0.275,-1.109 1.363,-1.659 2.567,-2.234c1.163,-0.629 2.4,-1.341 3.058,-2.596c1.871,-0.008 -2.37,5 2.075,2.367c-1.27,-0.396 4.221,-4.987 1.109,-4.65c1.783,-0.946 2.462,-0.396 1.679,1.013c2.712,-1.205 4.379,-5.725 6.45,-4.609l0.104,-1.454c0.925,-0.317 2.171,-0.742 3.679,-1.254c1.909,-1.688 5.088,-6.558 6.013,-5.158c0.491,-0.675 4.846,-4.463 2.408,-3.825c-3.129,1.858 -2.508,3.37 -5.008,3.525c2.708,-0.725 3.721,-3.555 4.958,-5.225l0.688,0.245c0.741,-1 2.941,-2.779 3.029,-3.783c-0.442,0.888 0.221,0.879 1.062,0.338c0.104,-0.509 0.159,-1.063 0.217,-1.605c3.008,-3.975 2.004,0.355 5.092,-3.4l-1.959,3.234c0.429,-0.704 2.213,-1.292 3.579,-3.213c-0.033,-1.279 0.33,-3.241 0.338,-4.271c1.55,-2.245 1.579,-0.225 2.708,-2.783l-1.583,3.279c-0.146,0.592 2.712,-0.758 5.196,-3.466c1.4,-1.9 2.408,-5.713 -0.121,-3.063c1.079,-1.458 3.042,-3.154 2.675,-1.592c2.25,-3.487 -1.071,-0.17 0.633,-3.345c1.342,-0.788 4.75,-3.892 7.129,-5.596l-1.062,3.866l1.529,-1.995c-1,3.3 1.742,-0.784 1.654,1.412c1.167,-1.296 2.221,-3.129 2.771,-4.767c-4.3,3.134 0.629,-6.32 -1.708,-6.062c3.05,-6 6.041,-1.333 7.233,-8.85c-1.021,0.762 -0.521,-2.758 -2.267,1.133c2.359,-3.496 -0.037,-3.258 2.7,-7.362c-0.883,3.666 3.342,-2.738 2.059,2.583c-0.421,-0.625 -1.592,2.525 -1.975,3.258c1.491,-1.187 1.571,1.263 3.437,-2.7c0.979,-2.5 2.504,-5.829 1.413,-5.762c-1,-0.35 -1.621,3.721 -1.859,1.712c1.9,-4.904 3.746,-5.058 2.963,-7.775c-1.283,3.059 -2.621,3.355 -3.25,3l1.221,-3.629l0.325,0.946c2.991,-5.375 -0.171,-2.029 1.954,-7.529l2.2,-2.138c0.708,1.784 -3.363,7.963 -1.317,7.663c1.642,-3.542 0.925,-5.2 2.659,-8.458c-0.113,0.829 -0.43,1.895 -0.534,2.725c0.513,-1.284 3.396,-1.763 3.804,-7.546c0.388,-2.9 -0.408,-0.925 -1.075,-1.213c0.459,-1.491 0.796,-2.733 1.067,-3.812c0.204,-1.1 0.267,-2.063 0.363,-2.942c0.175,-1.758 0.3,-3.242 0.7,-5.204c1.187,1.137 1.741,-6.883 2.145,-2.238c-0.637,0.909 -1.445,3.563 -1.991,6.305c-0.275,1.375 -0.484,2.77 -0.575,3.983c-0.209,1.179 -0.288,2.183 -0.146,2.808c2.354,-1.675 -1.842,4.588 -0.675,6.421c1.696,-4.792 3.196,-4.067 4.504,-4.529c0.529,-1.338 0.579,-2.775 0.65,-3.633c-0.8,-0.855 -1.329,0.925 -2.396,0.72c1.784,-5.395 2.304,-10.941 2.092,-14.15c0.921,-1.733 1.787,-0.958 1.371,1.259c1.571,-6.596 2.121,-13.834 3.371,-20.167c-2.18,3.938 0.525,-7.15 -1.213,-4.458c-0.808,3.371 -2.358,6.133 -2.862,4.204c0.375,-2.092 0.716,0.137 1.183,-0.704c-0.558,-2.754 2.054,-4.054 0.629,-6.834c0.333,6.159 1.971,1.346 3.254,2.571c-0.596,-4.537 0.921,0.259 1.054,-4.191c-0.587,-4.534 -0.983,-10.017 -1.12,-14.963c0.812,-6.258 -0.83,-15.792 -1.409,-21.296c0.238,-2.962 1.988,-1.171 1.779,-4.358c-0.566,-3.696 -1.179,2.942 -1.304,-2.617l0.367,0.488c-0.579,-1.596 -0.475,-10.217 -2.796,-11.467l1.821,1.413c-0.008,-1.05 -0.504,-1.934 -0.796,-2.75c0.508,-0.13 0.796,-1.417 1.375,0.195c0.508,-3.591 -1.717,-7.02 -2.537,-10.645l-0.392,2.537c-2.188,-6.033 -2.025,-10.45 -3.967,-16.308l0.95,-0.067l-1.596,-3.367c1.121,0.621 0.696,-2.775 -0.583,-4.425l4.954,8.567c0.179,2.713 -1.883,-2.508 -2.316,-0.658c-0.25,1.529 1.1,7.071 2.216,7.758c-0.383,-2.167 -0.608,-2.225 -1.304,-3.796c1.088,-1.025 1.775,2.238 2.971,3.65c-0.304,-1.108 -0.288,-2.812 -0.733,-2.95c1.108,2.054 1.708,4.279 2.575,7.967c-1.055,-2.392 -0.471,1.529 -1.042,0.662c1.171,0.046 2.308,3.513 3.029,8.142c-0.608,3.5 2.154,8.55 2.625,14c-1.454,-2.025 -2.767,-4.662 -3.696,-7.829c-0.083,3.437 0.575,3.725 0.488,7.158c1.083,1.5 2.554,2.484 3.708,6.829l-0.808,0.334c1.037,3.929 2.021,3.85 2.179,9.004c0.058,4.421 0.221,8.887 0.408,13.092c-0.066,4.208 -0.304,8.162 -0.433,11.52l-0.85,0.225c0.846,1.896 0.912,5.034 0.85,8.321c-0.233,3.275 -0.854,6.684 -0.746,9.238c-1.042,4.204 -1.137,8.908 -1.958,12.979c-0.821,4.071 -1.604,7.629 -2.813,9.6c-2.812,14.917 -7.391,27.621 -14.637,41.654l0.037,-2.958c-0.441,2.937 -1.304,1.379 -2.512,3.837c2.504,-2.241 -0.859,3.884 -1.234,5.95c-2.233,2.767 -4.287,6.196 -6.112,9.684c-2.008,3.362 -4.033,6.612 -5.546,9.395l-0.821,-0.316c-1.304,2.971 -3.279,5.866 -5.766,8.55c-2.625,2.575 -5.542,5.121 -8.3,7.904c-0.867,0.425 -2.405,0.912 -3.913,2.679c-1.821,4.175 -3.787,5.346 -7.796,10.217c-3.429,3.025 -9.05,7.879 -13.221,10.033c-6.262,5.879 -13.016,11.417 -20.529,15.892c-3.683,2.358 -7.383,4.729 -11.1,7.108c-3.854,2.129 -7.7,4.321 -11.5,6.658l-1.596,-0.279c-14.204,10.179 -34.716,16.404 -48.287,22.075l0.796,-2.071c-4.479,1.071 -9.834,3.659 -8.363,4.471c-2.291,0.425 -4.996,1.475 -7.537,2.338c-2.567,0.779 -4.963,1.404 -6.559,1.108c-4.641,0.938 -5.412,2.229 -9.22,3.313c-4.696,0.795 -7.909,1.337 -11.055,1.87c-3.141,0.55 -6.166,1.363 -10.591,2.113l2.216,-0.221c0.917,-0.512 0.88,-1.237 -1.337,-1.017c-3.225,0.984 -12.208,1.284 -8.654,2.85c-9.625,-0.016 -22.275,3.088 -31.7,1.509c0.8,0.525 -1.559,0.725 -2.563,1.058c-8.487,-0.054 -17.283,-1.625 -24.091,-1.425c-1.313,-0.429 2.225,-0.696 -1.188,-1.142c-2.05,-0.02 -0.129,0.713 -2.658,0.738c-13.859,-0.588 -27.321,-5.692 -39.238,-9.258c-21.629,-5.617 -42.441,-17.396 -59.179,-30.784l0.446,-0.166c-6.721,-3.255 -11.608,-12.2 -17.192,-14.68c-0.979,-1.425 -4.316,-4.858 -2.879,-4.458c-4.692,-3.525 -9.621,-12.733 -15.337,-18.721c0.391,0.65 0.704,0.959 1.341,1.584c-4.016,-7.3 -8.966,-12.85 -12.454,-20.934c0.571,0.7 1.404,2.071 1.908,2.088c-0.887,-3.317 -5.216,-6.271 -4.325,-8.804c-0.904,-1.692 -1.516,-0.78 -0.916,0.25c-8.067,-17.321 -15.321,-36.734 -18.404,-56.721c-0.188,-14.463 3.166,-1.175 0.745,-12.321c0.342,-0.938 -0.766,-0.629 -0.37,-0.808c-0.617,-4.371 2.083,-6.817 1.008,-9.821c-1.225,1.229 -0.663,-2.017 -1.338,-2.125c0.605,-4.367 1.2,-6.946 1.575,-9.304c0.513,-2.35 0.805,-4.471 0.734,-7.938l0.571,0.592c-0.875,-8.254 2.05,-17.221 1.741,-24.35c5.6,-21.717 14.488,-41.963 25.684,-60.534c11.175,-18.591 24.612,-35.587 39.783,-51.008c15.267,-14.979 31.467,-28.633 48.925,-40.642c17.375,-12.1 36.025,-22.604 55.862,-31.112c4.905,-1.425 7.6,-2.021 10.234,-3.071c2.637,-1.037 5.275,-2.375 10.329,-4.692c-0.317,0.417 -0.942,0.73 -0.158,0.692c0.016,-1.487 7.212,-2.992 7.787,-4.512c15.117,-5.225 29.229,-9.775 45.546,-12.984c-2.554,0.646 -3.617,1.992 -0.583,1.313l3.037,-1.479l0.588,0.27c2.041,-0.641 4.258,-1.604 1.991,-1.716c10.292,-2.004 20.759,-3.154 31.263,-3.421c10.512,-0.163 21.05,0.671 31.412,2.437c20.738,3.617 40.671,11.513 58.188,22.921c8.037,5.834 19.166,14.475 26.696,22.179c10.216,12.255 18.041,25.05 24.866,38.217c6.804,13.192 12.617,26.804 18.317,41.417c-0,-0 -1.188,-0.684 -3.017,-2.821c-1.904,-2.113 -4.121,-5.783 -7.021,-11.492" style="fill:#aca88e;fill-rule:nonzero;"/><path d="M443.833,137.319c-0.337,1.242 0.325,4.725 -1.362,2.296c0.512,-0.517 0.67,-2.471 1.362,-2.296" style="fill:#aca88e;fill-rule:nonzero;"/><path d="M449.732,230.27c0.2,0.129 -0.317,1.291 -0.438,1.57c-0.016,-1.133 -0.562,-2.22 -0.179,-3.1c0.021,1.146 0.346,0.992 0.617,1.53" style="fill:#aca88e;fill-rule:nonzero;"/><path d="M446.693,253.479c-0.441,-0.442 -0.37,-5.479 -0.045,-8.396c0.008,2.779 0.125,5.6 0.045,8.396" style="fill:#aca88e;fill-rule:nonzero;"/><path d="M438.973,273.808c-1.096,1.596 -1.196,1.021 -0.367,-1.317c0.367,-0.075 0.254,0.746 0.367,1.317" style="fill:#aca88e;fill-rule:nonzero;"/><path d="M439.791,275.672c-0.575,1.704 -1.208,2.429 -1.82,3.137c0.516,0.1 1.045,-4.017 1.82,-3.137" style="fill:#aca88e;fill-rule:nonzero;"/><path d="M418.105,316.83c-0.467,1.029 -1.492,3.262 -2.704,3.691c0.533,-0.337 1.245,-1.504 1.733,-2.504c0.454,-1.025 0.821,-1.8 0.971,-1.187" style="fill:#aca88e;fill-rule:nonzero;"/><path d="M405.807,334.699c-0.508,0.491 -0.791,0.625 -1.221,1.341c-1.087,0.763 -0.495,-0.529 0.2,-1.362l1.021,0.021Z" style="fill:#aca88e;fill-rule:nonzero;"/><path d="M49.878,365.344c0.55,0.575 1.125,1.129 1.734,1.65l-0.692,0.117c-0.383,-0.559 -0.708,-1.167 -1.042,-1.767" style="fill:#aca88e;fill-rule:nonzero;"/><path d="M20.724,200.454c0.454,-2.371 1.1,-1.363 1.321,-1.7c-0.675,2.037 -0.434,-1.004 -1.321,1.7" style="fill:#aca88e;fill-rule:nonzero;"/><path d="M68.494,118.016l-0.492,0.546l-0.746,-1.021l1.238,0.475Z" style="fill:#aca88e;fill-rule:nonzero;"/><path d="M343.423,338.765c-1.629,-1.262 -3.666,-2.712 -6.07,-4.27c-1.2,-0.792 -2.475,-1.638 -3.817,-2.525c-1.388,-0.821 -2.85,-1.68 -4.371,-2.575c-3.025,-1.855 -6.462,-3.563 -10.083,-5.43c-3.696,-1.7 -7.596,-3.52 -11.775,-5.07c-2.063,-0.859 -4.221,-1.559 -6.4,-2.28c-1.092,-0.358 -2.188,-0.72 -3.292,-1.087c-1.121,-0.308 -2.246,-0.625 -3.379,-0.938c-2.254,-0.658 -4.554,-1.233 -6.883,-1.72c-2.313,-0.555 -4.671,-0.959 -7.03,-1.371c-2.35,-0.446 -4.737,-0.659 -7.1,-0.984c-2.37,-0.283 -4.75,-0.391 -7.095,-0.57c-4.717,-0.184 -9.367,-0.225 -13.85,0.141c-4.484,0.284 -8.792,0.888 -12.83,1.663c-4.045,0.729 -7.791,1.821 -11.204,2.875c-0.608,0.187 -1.191,0.387 -1.775,0.591c-5.933,-23.262 -6.137,-45.487 -0.437,-65.429c1.296,-4.537 2.804,-8.625 4.375,-12.258c0.008,0.004 0.012,0.008 0.021,0.008c0.054,-0.162 0.112,-0.321 0.166,-0.487c0.538,-1.604 1.138,-3.421 1.7,-5.446c0.625,-2.008 1.125,-4.229 1.725,-6.575c0.288,-1.179 0.509,-2.4 0.775,-3.642c0.25,-1.25 0.554,-2.521 0.738,-3.829c0.416,-2.617 0.904,-5.325 1.162,-8.104c0.146,-1.388 0.334,-2.788 0.454,-4.196c0.088,-1.417 0.175,-2.837 0.259,-4.254c0.246,-2.85 0.162,-5.696 0.2,-8.513c0.004,-0.708 0.008,-1.408 0.008,-2.108c-0.037,-0.696 -0.075,-1.387 -0.112,-2.079c-0.075,-1.379 -0.146,-2.746 -0.221,-4.088c-0.038,-0.675 -0.071,-1.341 -0.109,-2.004c-0.075,-0.654 -0.154,-1.304 -0.229,-1.95c-0.154,-1.287 -0.304,-2.55 -0.446,-3.779c-0.17,-1.225 -0.241,-2.437 -0.475,-3.579c-0.212,-1.15 -0.42,-2.254 -0.62,-3.321c-0.2,-1.067 -0.392,-2.087 -0.575,-3.062c-0.188,-0.971 -0.334,-1.905 -0.584,-2.755c-0.45,-1.708 -0.837,-3.2 -1.162,-4.429c-0.646,-2.462 -1.017,-3.875 -1.017,-3.875c0,0 0.554,1.35 1.525,3.704c0.488,1.184 1.079,2.617 1.758,4.267c0.367,0.817 0.638,1.725 0.959,2.675c0.312,0.95 0.641,1.95 0.987,2.996c0.346,1.046 0.709,2.133 1.084,3.262c0.387,1.13 0.625,2.334 0.962,3.555c0.317,1.225 0.642,2.483 0.971,3.77c0.167,0.65 0.333,1.3 0.504,1.959c0.125,0.671 0.254,1.341 0.388,2.021c0.258,1.362 0.52,2.75 0.787,4.15c0.138,0.7 0.271,1.408 0.404,2.12c0.096,0.717 0.192,1.434 0.284,2.159l0.004,0.012c0.021,-0.008 0.046,-0.008 0.066,-0.016c0.138,1.037 0.259,2.091 0.338,3.158c0.25,1.871 0.479,3.758 0.575,5.658c0.108,1.484 0.217,2.971 0.325,4.454c0.071,1.484 0.079,2.963 0.117,4.434c0.12,2.946 -0,5.837 -0.071,8.654c-0.009,1.408 -0.146,2.783 -0.229,4.137c-0.105,1.35 -0.167,2.68 -0.3,3.967c-0.3,2.571 -0.517,5.017 -0.892,7.258c-0.046,0.321 -0.096,0.634 -0.142,0.95c25.442,-6.5 43.275,-30.533 41.104,-57.591c0,-0 -1.1,-62.529 -95.27,-92.079c-2.363,-0.742 -4.555,1.583 -3.638,3.883c2.921,7.35 7.317,20.883 7.063,35.296c-0.167,9.775 -3.609,19.133 -8.95,27.325c-7.259,11.125 -10.559,24.966 -8.088,39.4c3.846,22.462 20.654,39.504 42.017,44.196c-1.229,3.091 -2.4,6.433 -3.459,10.025c-5.037,17.141 -8.133,42.829 0.646,75.52c-0.491,0.271 -0.958,0.538 -1.4,0.792c-0.5,0.296 -0.958,0.575 -1.391,0.842c-0.017,-0 -0.034,-0.004 -0.05,-0.009c-2.938,-0.325 -6.046,-0.65 -9.271,-0.925c-3.229,-0.162 -6.579,-0.183 -9.979,-0.195c-3.405,0.05 -6.855,0.391 -10.309,0.608c-3.433,0.471 -6.879,0.883 -10.225,1.542c-1.675,0.341 -3.329,0.712 -4.958,1.087c-1.633,0.338 -3.229,0.792 -4.783,1.271c-1.555,0.471 -3.092,0.9 -4.575,1.392c-1.467,0.55 -2.9,1.083 -4.296,1.604c-2.792,1.025 -5.329,2.296 -7.671,3.391c-2.304,1.209 -4.392,2.334 -6.167,3.484c-1.812,1.058 -3.283,2.187 -4.512,3.054c-2.409,1.829 -3.621,3.058 -3.621,3.058c-0,0 0.4,-0.154 1.15,-0.45c0.729,-0.312 1.862,-0.662 3.233,-1.196c1.413,-0.466 3.096,-1.058 5.05,-1.662c1.929,-0.654 4.175,-1.213 6.559,-1.925c1.204,-0.313 2.462,-0.633 3.766,-0.971c1.292,-0.342 2.625,-0.704 4.025,-0.975c1.384,-0.317 2.809,-0.646 4.259,-0.975c1.462,-0.283 2.958,-0.567 4.479,-0.858c3.012,-0.667 6.196,-1.013 9.379,-1.588c3.208,-0.446 6.479,-0.808 9.746,-1.216c3.283,-0.246 6.558,-0.588 9.8,-0.813c3.246,-0.1 6.441,-0.346 9.546,-0.475c3.1,-0.012 6.112,-0.083 8.979,-0.171c2.862,-0.05 25.046,0.163 25.046,0.163c-7.65,-2.825 -7.967,-9.717 4.595,-10.854c3.888,-0.334 7.996,-0.534 12.242,-0.517c4.242,-0.054 8.625,0.229 13.063,0.529c4.433,0.433 8.933,0.921 13.395,1.713c2.238,0.379 4.475,0.733 6.68,1.237c1.104,0.233 2.208,0.458 3.312,0.688c1.1,0.241 2.183,0.529 3.275,0.787c2.175,0.517 4.329,1.054 6.442,1.667c2.121,0.579 4.212,1.162 6.25,1.821c4.108,1.216 8.012,2.625 11.75,3.895c3.666,1.446 7.233,2.625 10.412,3.992c1.609,0.65 3.15,1.275 4.617,1.867c1.454,0.625 2.837,1.221 4.137,1.775c2.596,1.125 4.896,2.058 6.738,2.933c3.721,1.683 5.912,2.571 5.912,2.571c0,-0 -1.812,-1.483 -5.1,-3.963" style="fill:#4e6b5f;fill-rule:nonzero;"/></g></svg>