<?xml version="1.0" encoding="UTF-8" standalone="no"?><!DOCTYPE svg PUBLIC "-//W3C//DTD SVG 1.1//EN" "http://www.w3.org/Graphics/SVG/1.1/DTD/svg11.dtd"><svg width="100%" height="100%" viewBox="0 0 888 120" version="1.1" xmlns="http://www.w3.org/2000/svg" xmlns:xlink="http://www.w3.org/1999/xlink" xml:space="preserve" xmlns:serif="http://www.serif.com/" style="fill-rule:evenodd;clip-rule:evenodd;stroke-linejoin:round;stroke-miterlimit:2;"><g><g><path d="M533.943,11.492c0.896,1.425 -0.221,3.354 0.992,4.716c0.187,0.217 0.866,-0.15 0.933,0.338c0.125,0.708 -1.071,1.471 -0.158,2.096c0.375,0.229 0.966,-0.221 1.287,0.325c0.146,0.237 -0.058,0.404 -0.242,0.529c1.388,0.583 0.1,1.675 0.805,2.7l0.27,-0.279c0.813,2.45 -0.366,5.141 1.159,7.479c0.296,0.633 0.737,1.187 1.291,1.612c0.913,0.525 0.971,-0.045 1.684,-0.645c0.304,-0.25 0.833,-0.3 1.308,-0.575c0.283,-0.163 0.867,0.145 0.95,0.479c0.488,2.333 2.638,2.733 3.871,4.287c-0.421,0.113 -0.375,0.646 -0.404,0.821c-0.321,2.9 0.041,5.829 1.05,8.567c0.2,0.608 1.1,0.908 1.412,1.437c0.821,1.967 1.404,4.025 1.734,6.134c-0.43,0.108 -0.388,0.645 -0.405,0.829c-0.029,2.221 0.742,4.379 2.163,6.083c0.571,1.021 1.742,1.546 2.883,1.292c0.321,-0.109 0.409,0.646 0.779,0.95c0.646,0.479 1.75,0.054 2.005,0.608c0.291,0.617 0.708,1.188 1.025,1.788c0.079,0.17 0.341,-0.05 0.479,-0.242c0.704,1.487 2.196,2.046 3.516,2.967c0.017,-0.292 0,-0.83 0.192,-0.705c0.808,0.555 2.2,1.792 1.425,2.863c-0.137,-0.192 -0.287,-0.371 -0.521,-0.254c-0.233,0.116 -0.437,0.325 -0.254,0.483c0.613,0.613 0.967,1.342 1.796,1.763c0.596,0.245 0.946,0.858 0.854,1.495c-0.062,0.213 -0.287,0.338 -0.5,0.275c-0.004,0 -0.012,-0.004 -0.017,-0.004c0.163,0.134 -0.27,0.763 0.217,0.467c0.158,-0.079 0.104,-0.746 0.221,-0.646c0.696,0.775 1.192,1.704 1.442,2.717c0.45,1.721 0.737,3.483 0.858,5.258c0.058,0.408 0.475,0.246 0.767,0.271c-0.075,-0.2 0.025,-0.421 0.225,-0.492c0.016,-0.008 0.033,-0.012 0.054,-0.016c0.671,-0.213 0.396,0.645 0.8,0.779c-0.038,-0.717 -0.021,-1.438 0.046,-2.15c0.008,-0.179 0.162,-0.317 0.337,-0.304c0.054,0.004 0.104,0.016 0.146,0.045c1.033,0.609 1.196,2.034 2.437,2.405c0.071,-0.371 -0.187,-0.967 0.284,-0.988c0.421,0 0.683,0.646 0.708,0.996c0.279,2.904 -0.646,6.087 1.888,8.437c0.112,0.088 -0.48,0.059 -0.684,0.209c-0.208,0.146 0.054,0.366 0.246,0.504c0.108,-0.421 0.575,-0.258 0.863,-0.471c0.541,-0.379 0.358,0.717 0.754,0.675c1.612,-0.179 2.579,1.329 3.15,2.671c0.404,0.967 1.612,1.662 1.9,2.779c0.183,0.425 0.329,0.867 0.433,1.321c0.042,0.458 0.829,0.446 0.942,0.833c0.871,2.129 1.325,4.404 1.329,6.709c-0.467,1.912 -0.533,3.904 -0.2,5.85c0.483,1.433 2.546,4.287 0.25,4.754c-1.588,0.346 -3.229,-0.263 -4.808,0.471c-1.584,0.729 -1.88,2.7 -3.105,3.154c-1.004,0.354 -1.987,0.766 -2.945,1.237c-0.675,0.359 -0.646,-0.871 -0.796,-1.454c-0.3,-0.637 -0.888,-1.1 -1.584,-1.237c-2.125,-0.863 -4.441,-1.167 -6.72,-0.88c-1.492,0.517 -2.896,1.246 -4.175,2.167l-40.838,-1.012l0,-18.3l-15.546,-0l0,-55.03c1.842,0.855 3.821,1.33 5.609,2.288c1.316,0.712 1.662,2.537 3.091,2.946c1.434,0.412 2.667,1.479 4.284,1.196c1.737,-0.088 3.229,-1.263 3.716,-2.93c0.084,-0.525 0.246,-1.033 0.475,-1.508c1.967,-3.042 3.2,-6.5 3.604,-10.1c0.484,-2.883 -0.791,-5.854 -0.25,-8.783c0.25,-1.375 0.338,-2.709 0.692,-4.05c0.267,-0.796 0.683,-1.538 1.221,-2.179c-0.446,-0.096 -1.242,0.216 -1.204,-0.259c0.196,-1.321 0.625,-2.591 1.266,-3.758c0.075,-0.163 0.363,0.058 0.48,0.25c0.191,-1.908 0.591,-3.792 1.195,-5.613c0.45,-0.929 0.671,-2.6 1.488,-2.295c0.817,0.304 2.075,2.858 2.075,2.858" style="fill:#c2c2c2;fill-rule:nonzero;"/><path d="M138.316,38.228l-45.875,21.621l5.237,2.775l0,29.767l-4.866,3.766l34.762,18.392l35.859,-27.529l-0,-29.046l-25.117,-19.746m-0,61.675l-17.067,-11.554l0,-37.758l17.067,13.804l-0,35.508Z" style="fill:#c2c2c2;fill-rule:nonzero;"/><path d="M218.288,93.012l-5.505,4.738l-10.262,-6.634l-0,-36.266l-14.683,-15.413l-20.005,15.288l8.813,8.6l-0,28.691l-6.421,4.305l28.063,17.77l19.362,-16.604l21.454,17.488l17.425,-18.292l-2.287,-1.796l-3.121,2.959l-9.438,-6.367l0,-32.458l5.592,-4.567l-16.325,-15.188l-18.633,15.455l5.962,4.837l0,33.454" style="fill:#c2c2c2;fill-rule:nonzero;"/><path d="M252.776,56.694l4.221,-2.512l5.408,5.366l0,36.684l-4.867,4.754l22.938,12.729l22.383,-18.921l-2.662,-2.683l-6.609,5.367l-7.625,-4.459l0,-39.654c0,0 6.875,9.429 17.334,8.963c-0,-0 15.679,-0.171 20.546,-12.096c-0,-0 -17.242,9.316 -21.73,-12.638l-16.7,14.071l-11.541,-12.187l-23.113,14.441l2.017,2.775Z" style="fill:#c2c2c2;fill-rule:nonzero;"/><path d="M411.325,99.993l-19.729,-13.809l36.412,-16.321l-20.166,-32.008l-42.925,20.738l4.762,3.666l0,31.304l-4.587,3.409l25.958,18.296l35.958,-18.03l-1.937,-3.675l-13.758,6.455m-18.975,-47.817l14.766,22.954l-14.766,6.733l-0,-29.687Z" style="fill:#c2c2c2;fill-rule:nonzero;"/><path d="M423.746,56.694l4.217,-2.512l5.408,5.366l0,36.684l-4.862,4.754l22.912,12.733l22.388,-18.921l-2.659,-2.683l-6.604,5.367l-7.596,-4.463l0,-39.654c0,0 6.88,9.429 17.334,8.963c-0,-0 15.683,-0.171 20.546,-12.096c-0,-0 -17.242,9.316 -21.742,-12.638l-16.688,14.071l-11.566,-12.187l-23.113,14.441l2.029,2.775" style="fill:#c2c2c2;fill-rule:nonzero;"/><path d="M115.216,28.893c-2.371,-0.03 -4.629,-1.005 -6.275,-2.709c0.788,0.029 1.579,0.017 2.367,-0.041c5.858,-0.584 5.625,-4.03 5.625,-4.03l-0,-14.437c5.6,-0 8.167,-7.138 8.167,-7.138c-3.188,1.517 -6.85,1.705 -10.175,0.517c-0,0 -7.288,-2.817 -11.596,0.754c-2.792,2 -4.859,4.859 -5.884,8.138c3.33,-3.634 8.442,-5.054 13.171,-3.659l0,17.05c0,0 0.067,2.455 -2.779,1.525l0.029,0.063c-1.541,-2.146 -2.358,-4.725 -2.333,-7.363c-0.083,-3.7 1.562,-7.229 4.45,-9.545l-0.054,-0c-6.359,0.175 -11.367,5.466 -11.192,11.825c0,0.12 0.008,0.245 0.013,0.37c-0.338,6.659 4.783,12.33 11.437,12.671c0.375,0.021 0.746,0.021 1.117,0.004c6.375,0.055 11.829,-4.558 12.833,-10.854c-1.233,3.934 -4.796,6.671 -8.912,6.854" style="fill:#c2c2c2;fill-rule:nonzero;"/><path d="M162.452,27.576l-5.509,-4.43l10.196,-5.237l-5.654,-10.271l-12.021,6.642l1.338,1.187l-0,10.046l-1.292,1.079l7.271,5.859l10.071,-5.771l-0.538,-1.171l-3.871,2.062m-5.304,-15.316l4.163,7.341l-4.15,2.163l-0.013,-9.504Z" style="fill:#c2c2c2;fill-rule:nonzero;"/><path d="M135.693,13.209l-2.167,1.471l-0,10.771l3.441,2.637l-5.754,3.979l-6.012,-4.904l1.391,-1.092l0,-16.162c0,-4.992 -1.612,-6.013 -1.612,-6.013l8.546,-3.266l-0,12.112l6.291,-4.391l7.213,5.883l-1.725,1.054l-0,9.558l3.808,3.134l-5.525,4.137l-6.262,-4.958l1.358,-1.292l0,-10.229l-2.992,-2.429Z" style="fill:#c2c2c2;fill-rule:nonzero;"/><path d="M356.903,96.298l-0,-36.775l5.766,-3.575l-20.541,-16.092l-18.071,15.1l8.454,5.663l-0,34.612l-5.7,7.171l24.412,12.904l14.846,-13.812l-9.162,-5.2m3.225,-70.121l-14.559,-10.083l-8.858,12.704l14.542,10.083l8.875,-12.704Z" style="fill:#c2c2c2;fill-rule:nonzero;"/><path d="M836.922,96.298l0,-36.775l5.775,-3.575l-20.546,-16.092l-18.071,15.1l8.434,5.663l-0,34.612l-5.696,7.171l24.404,12.904l14.867,-13.812l-9.171,-5.2m3.233,-70.121l-14.562,-10.083l-8.867,12.704l14.563,10.083l8.866,-12.704Z" style="fill:#c2c2c2;fill-rule:nonzero;"/><path d="M878.013,95.949l0,-79.208l-29.087,9.287c3.075,1.654 5.137,4.721 5.508,8.192l0,60.8l-5.833,7.375l24.396,12.912l14.87,-13.816l-9.85,-5.546" style="fill:#c2c2c2;fill-rule:nonzero;"/><path d="M94.492,82.272c-7.096,7.125 -15.9,12.313 -25.575,15.059l-0,-60.775c2.654,1.604 5.787,2.225 8.854,1.758c5.687,-0 14.496,-6.733 16.054,-13.008c-12.583,9.862 -27.429,-9.325 -27.429,-9.325l-25.679,26.9l-0,46.262c-9.213,-8.904 -14.317,-21.237 -14.084,-34.05c0,-18.612 7.442,-32.271 19.788,-38.779c-24.267,0.721 -46.421,22.658 -46.421,49.608c0,28.788 21.021,49.634 47.663,49.634c18.737,-0 39.166,-13.896 46.904,-33.271l-0.075,-0.017m-53.079,7.5l19.208,-15.142l-0,-44.479c1.554,1.646 3.258,3.134 5.096,4.446l-0,63.346c-0.93,0.129 -1.867,0.2 -2.809,0.204c-7.95,-0.067 -15.596,-3.046 -21.496,-8.375" style="fill:#c2c2c2;fill-rule:nonzero;"/><path d="M791.681,91.047l-0,-28.509l4.466,-3.841l-27.716,-18.55c-15.813,3.196 -42.221,17.633 -47.059,37.566c-4.837,19.93 5.396,29.388 14.871,35.267c3.346,2.396 7.784,2.608 11.342,0.546l20.562,-12.879l17.859,13.612l18.7,-13.446l-13.025,-9.77m-29.396,6.945c-5.867,0 -23.067,-7.125 -22.879,-21.02c-0.309,-9.988 4.421,-19.459 12.587,-25.213l16.267,10.604l-0,31.254c-0,0 0.533,4.375 -5.975,4.375" style="fill:#c2c2c2;fill-rule:nonzero;"/><path d="M585.687,27.914l18.9,-12.787l17.879,12.412l24.237,-12.391l18.005,12.391l22.958,-12.079l20.812,13.063l-0.02,67.154l9.166,5.208l-14.846,13.808l-18.716,-9.962l0.054,-65.513l-14.667,-8.633l-2.983,2.317l-0.104,62.771l9.166,5.204l-14.862,13.808l-18.717,-9.962l0,-65.509l-15.354,-8.554l-3.129,2.258l-0.046,62.771l9.175,5.209l-14.871,13.808l-18.721,-9.963l0,-69.958l-13.341,-6.862" style="fill:#c2c2c2;fill-rule:nonzero;"/></g></g></svg>