<?xml version="1.0" encoding="UTF-8" standalone="no"?><!DOCTYPE svg PUBLIC "-//W3C//DTD SVG 1.1//EN" "http://www.w3.org/Graphics/SVG/1.1/DTD/svg11.dtd"><svg width="100%" height="100%" viewBox="0 0 400 107" version="1.1" xmlns="http://www.w3.org/2000/svg" xmlns:xlink="http://www.w3.org/1999/xlink" xml:space="preserve" xmlns:serif="http://www.serif.com/" style="fill-rule:evenodd;clip-rule:evenodd;stroke-linejoin:round;stroke-miterlimit:2;"><g><g><path d="M36.325,15.048c2.775,-2.646 4.954,-4.942 7.35,-6.979c12.742,-10.833 34.367,-10.5 45.979,0.542c8.325,7.92 11.346,17.895 11.384,28.979c0.079,21.45 -0,42.904 0.066,64.354c0.004,1.987 -0.554,2.571 -2.546,2.554c-10.325,-0.092 -20.654,-0.037 -30.979,-0.046c-2.679,-0.004 -2.991,-0.325 -2.996,-2.996c-0.004,-17.462 0.017,-34.929 -0.025,-52.391c-0.008,-1.942 -0.17,-3.925 -0.587,-5.817c-2.396,-10.846 -11.05,-12.208 -18.5,-9.454c-6.333,2.337 -8.396,7.767 -9.017,13.946c-0.125,1.271 -0.125,2.554 -0.125,3.833c-0.008,16.638 -0.033,33.271 0.034,49.908c0.008,1.884 -0.363,2.65 -2.459,2.63c-10.325,-0.1 -20.654,-0.088 -30.979,-0.009c-2.142,0.013 -2.921,-0.687 -2.917,-2.862c0.046,-32.142 0.046,-64.284 -0.008,-96.425c0,-2.009 0.65,-2.55 2.604,-2.534c10.404,0.084 20.804,0.088 31.209,-0.004c2.041,-0.016 2.616,0.704 2.545,2.629c-0.12,3.196 -0.033,6.405 -0.033,10.142" style="fill:#c2c2c2;fill-rule:nonzero;"/><path d="M345.259,83.234c12.7,-0.279 18.517,-7.725 18.471,-19.158c-0.004,-0.662 -0.846,-1.675 -1.521,-1.925c-5.029,-1.862 -10.317,-2.404 -15.537,-1.454c-2.925,0.533 -5.95,1.792 -8.38,3.5c-4.095,2.879 -4.625,7.404 -3.716,11.983c0.858,4.309 4.283,5.884 8.158,6.709c1.025,0.216 2.075,0.287 2.525,0.345m17.558,-37.362c1.325,-5.7 -1.55,-12.046 -6.42,-14.575c-3.78,-1.958 -7.867,-2.554 -12.038,-2.558c-10.146,-0 -19.871,2.154 -29.292,5.825c-0.716,0.275 -1.545,0.262 -2.32,0.387c0.1,-0.833 0.025,-1.733 0.329,-2.483c3.625,-9 7.341,-17.967 10.95,-26.971c0.591,-1.479 1.375,-2.267 3,-2.563c13.246,-2.437 26.516,-2.933 39.758,-0.212c18.796,3.867 30.333,17.012 31.971,36.158c0.196,2.321 0.296,4.659 0.3,6.988c0.021,18.662 -0.029,37.329 0.067,55.991c0.008,2.325 -0.667,2.905 -2.93,2.88c-9.945,-0.121 -19.895,-0.046 -29.845,-0.067c-0.909,-0 -1.813,-0.188 -2.705,-0.8c11.05,-0.567 22.084,-0.513 33.117,-0.733c-9.721,-0 -19.437,0.016 -29.154,-0.009c-5.263,-0.012 -4.575,0.575 -4.638,-4.512c-0.012,-0.946 -0.004,-1.888 -0.004,-3.471c-1.071,0.887 -1.629,1.321 -2.158,1.787c-12.633,11.188 -32.904,13.134 -47.242,4.205c-9.037,-5.63 -14.066,-13.934 -14.246,-24.696c-0.066,-4.092 0.192,-8.338 1.23,-12.267c2.475,-9.367 8.987,-15.267 17.908,-18.575c12.067,-4.475 24.379,-4.117 36.758,-1.558c2.55,0.529 5.075,1.216 7.604,1.829" style="fill:#c2c2c2;fill-rule:nonzero;"/><path d="M182.169,75.476c0,-7.679 0.013,-15.358 -0.004,-23.037c-0.029,-12.005 -7.396,-20.3 -19.3,-21.117c-7.925,-0.542 -15.554,2.971 -19.708,11.729c-3.604,7.604 -3.35,15.358 0.6,22.821c3.979,7.504 13.708,11.175 22.929,8.858c2.746,-0.687 3.154,-0.387 3.158,2.496c0.017,8.963 -0.046,17.921 0.05,26.875c0.021,1.892 -0.646,2.367 -2.421,2.521c-16.658,1.437 -31.708,-2.613 -44.158,-13.921c-15.233,-13.833 -21.542,-31.183 -16.796,-51.383c4.804,-20.45 18.2,-33.579 38.396,-38.959c20.196,-5.379 38.775,-1.65 55.038,12.109c18.337,15.512 21.908,40.283 14.02,58.916c-5.67,13.388 -15.47,22.767 -28.758,28.567c-2.454,1.075 -3.042,0.646 -3.042,-2.083c-0.008,-8.129 -0.004,-16.263 -0.004,-24.392" style="fill:#c2c2c2;fill-rule:nonzero;"/><path d="M263.296,58.91c0.271,-0.75 0.554,-1.5 0.808,-2.259c5.738,-17.275 11.504,-34.541 17.171,-51.841c0.613,-1.863 1.417,-2.567 3.463,-2.542c10.704,0.113 21.412,0.05 32.116,0.054c2.971,0.004 3.138,0.229 2.075,2.9c-12.775,32.088 -25.571,64.167 -38.275,96.279c-0.812,2.046 -1.875,2.634 -3.975,2.613c-9.2,-0.108 -18.396,-0.092 -27.596,-0.013c-1.8,0.017 -2.67,-0.625 -3.329,-2.275c-12.921,-32.354 -25.891,-64.683 -38.846,-97.025c-0.27,-0.675 -0.483,-1.375 -0.812,-2.329c0.946,-0.058 1.662,-0.146 2.383,-0.146c10.854,-0.008 21.713,0.038 32.567,-0.045c1.996,-0.017 2.929,0.637 3.558,2.55c5.625,17.15 11.35,34.275 17.05,51.404c0.304,0.904 0.663,1.791 0.996,2.691c0.213,-0.008 0.429,-0.012 0.646,-0.016" style="fill:#c2c2c2;fill-rule:nonzero;"/></g></g></svg>