<?xml version="1.0" encoding="UTF-8" standalone="no"?><!DOCTYPE svg PUBLIC "-//W3C//DTD SVG 1.1//EN" "http://www.w3.org/Graphics/SVG/1.1/DTD/svg11.dtd"><svg width="100%" height="100%" viewBox="0 0 2405 902" version="1.1" xmlns="http://www.w3.org/2000/svg" xmlns:xlink="http://www.w3.org/1999/xlink" xml:space="preserve" xmlns:serif="http://www.serif.com/" style="fill-rule:evenodd;clip-rule:evenodd;stroke-linejoin:round;stroke-miterlimit:2;"><g><g><path d="M2292.16,132.904c-10.171,0.338 -20.359,0.675 -30.438,1.013c-186.112,9.391 -369.517,34.771 -575.475,49.916c-144.575,8.15 -307.592,30.65 -450.85,46.509c340.821,-30.121 697.013,-73.759 1027.73,-83.854c-31.32,13.491 -69.408,25.75 -115.262,31.091c-110.971,9.104 -220.333,19.013 -328.667,29.579c-0.687,-4.104 -2.029,-12.125 -2.704,-16.162c-304.867,47.362 -596.825,46.804 -900.629,100.642c11.275,0.979 5.342,5.004 3.504,7.883c-0.754,0.092 -1.475,0.175 -2.175,0.258c0.7,-0.083 1.421,-0.166 2.175,-0.258c-1.667,2.533 -0.121,4.183 18.988,2.092c-19.109,2.091 -20.655,0.441 -18.988,-2.092c301.542,-36.908 584.608,-64.529 887.458,-91.138c-469.445,45.934 -919.82,103.684 -1400.41,154.48c-20.454,2.158 -61.45,6.491 -81.937,8.654c-83.934,-3.621 -166.58,0.896 -248.509,9.371c17.209,-22.492 -71.246,-54.705 94,-63.588c-0.65,-4.067 -1.95,-12.217 -2.604,-16.287c-167.2,-3.338 -237.696,-53.996 -76.425,-87.292c181.679,-35.421 429.988,-45.054 653.746,-77.542c163.1,-21.746 326.104,-43.775 491.033,-53.804c227.021,-12.775 471.742,-44.612 699.288,-54.333c82.496,-5.354 223.521,-34.246 266.471,-26.834c30.35,2.396 32.983,10.921 30.129,21.109c-134.629,14.316 -268.7,29.45 -401.529,42.862c-163.346,14.092 -326.813,27.479 -490.705,37.525c160.825,-6.575 324.78,-20.754 490.705,-37.525c132.837,-11.521 265.762,-23.05 398.633,-34.575c-3.425,8.875 -6.608,18.084 2.817,25.167c-0,-0 40.862,-4.804 61.304,-7.208c85.25,10.729 69.604,41.616 32.229,66.762c-9.725,5.354 -20.642,11.392 -32.908,17.579" style="fill:#2d3d36;fill-rule:nonzero;"/><path d="M105.577,398.713c10.159,-0.563 20.329,-1.13 30.392,-1.688c185.758,-13.517 368.312,-42.954 573.725,-62.658c144.275,-11.359 306.533,-37.463 449.25,-56.492c-339.767,37.667 -694.479,89.192 -1024.77,106.613c30.892,-14.18 68.583,-27.275 114.254,-33.638c110.654,-11.558 219.667,-23.887 327.634,-36.854c0.812,4.087 2.404,12.075 3.208,16.096c303.287,-54.104 595.158,-60.021 897.183,-120.575c-11.3,-0.729 -5.491,-4.884 -3.746,-7.804c0.75,-0.105 1.471,-0.209 2.167,-0.305c-0.696,0.096 -1.417,0.2 -2.167,0.305c1.588,-2.567 -0.008,-4.184 -19.05,-1.671c19.042,-2.513 20.638,-0.896 19.05,1.671c-300.287,43.583 -582.4,77.47 -884.312,110.787c467.854,-56.329 916.275,-124.046 1395.12,-185.483c20.379,-2.609 61.225,-7.85 81.637,-10.467c84.017,1.758 166.496,-4.592 248.133,-14.879c-16.504,22.867 72.921,53.108 -91.991,65.654c0.775,4.05 2.333,12.167 3.108,16.225c167.25,-0.375 239.296,48.704 79.121,85.567c-180.517,39.437 -428.442,54.571 -651.113,92.008c-162.362,25.354 -324.629,50.992 -489.187,64.671c-226.546,17.808 -470.188,55.062 -697.358,69.821c-82.3,7.183 -222.375,39.196 -265.542,32.737c-30.413,-1.725 -33.313,-10.187 -30.775,-20.433c134.137,-17.296 267.692,-35.4 400.058,-51.754c162.85,-17.709 325.842,-34.717 489.363,-48.392c-160.563,10.138 -324.017,27.946 -489.363,48.392c-132.433,14.462 -264.954,28.937 -397.425,43.404c3.154,-8.946 6.046,-18.221 -3.596,-25.096c0,0 -40.7,5.708 -61.058,8.563c-85.554,-8.834 -70.875,-40.059 -34.296,-66.021c9.554,-5.571 20.279,-11.846 32.35,-18.304" style="fill:#2d3d36;fill-rule:nonzero;"/><path d="M2303.61,388.663c-10.171,0.338 -20.358,0.675 -30.437,1.013c-186.113,9.391 -369.517,34.77 -575.475,49.916c-144.575,8.154 -307.592,30.65 -450.85,46.509c340.82,-30.117 697.012,-73.759 1027.73,-83.85c-31.321,13.487 -69.408,25.745 -115.263,31.091c-110.97,9.1 -220.333,19.009 -328.666,29.575c-0.688,-4.104 -2.029,-12.125 -2.704,-16.162c-304.867,47.362 -596.825,46.804 -900.63,100.641c11.275,0.98 5.342,5.005 3.505,7.884c-0.755,0.091 -1.475,0.175 -2.175,0.258c0.7,-0.083 1.42,-0.167 2.175,-0.258c-1.667,2.533 -0.121,4.183 18.987,2.091c-19.108,2.092 -20.654,0.442 -18.987,-2.091c301.541,-36.909 584.608,-64.529 887.458,-91.138c-469.446,45.934 -919.821,103.684 -1400.41,154.479c-20.455,2.163 -61.45,6.492 -81.938,8.655c-83.933,-3.621 -166.579,0.9 -248.508,9.37c17.204,-22.487 -71.246,-54.704 94,-63.587c-0.65,-4.067 -1.95,-12.217 -2.604,-16.288c-167.2,-3.333 -237.696,-53.995 -76.425,-87.291c181.679,-35.421 429.987,-45.054 653.745,-77.542c163.1,-21.746 326.105,-43.775 491.034,-53.8c227.021,-12.779 471.741,-44.617 699.287,-54.337c82.496,-5.355 223.521,-34.246 266.471,-26.834c30.35,2.396 32.983,10.921 30.129,21.109c-134.629,14.316 -268.7,29.45 -401.529,42.862c-163.346,14.092 -326.812,27.479 -490.704,37.525c160.825,-6.575 324.775,-20.754 490.704,-37.525c132.833,-11.521 265.763,-23.05 398.633,-34.575c-3.429,8.875 -6.608,18.083 2.817,25.167c0,-0 40.863,-4.804 61.304,-7.204c85.25,10.725 69.6,41.616 32.229,66.758c-9.725,5.354 -20.641,11.392 -32.908,17.579" style="fill:#2d3d36;fill-rule:nonzero;"/><path d="M117.03,654.471c10.158,-0.562 20.329,-1.125 30.391,-1.687c185.759,-13.513 368.313,-42.954 573.725,-62.658c144.275,-11.355 306.534,-37.463 449.25,-56.488c-339.766,37.663 -694.479,89.188 -1024.77,106.608c30.891,-14.179 68.583,-27.275 114.254,-33.637c110.654,-11.558 219.666,-23.888 327.633,-36.854c0.813,4.087 2.404,12.079 3.208,16.096c303.288,-54.105 595.159,-60.017 897.184,-120.575c-11.3,-0.73 -5.492,-4.884 -3.746,-7.805c0.75,-0.104 1.471,-0.208 2.167,-0.304c-0.696,0.096 -1.417,0.2 -2.167,0.304c1.587,-2.566 -0.008,-4.183 -19.046,-1.67c19.038,-2.513 20.633,-0.896 19.046,1.67c-300.288,43.584 -582.4,77.471 -884.313,110.788c467.855,-56.325 916.275,-124.046 1395.12,-185.479c20.379,-2.613 61.225,-7.854 81.638,-10.471c84.016,1.762 166.495,-4.588 248.133,-14.875c-16.504,22.862 72.921,53.104 -91.992,65.65c0.775,4.05 2.334,12.167 3.109,16.225c167.25,-0.375 239.295,48.704 79.116,85.567c-180.512,39.437 -428.437,54.57 -651.108,92.008c-162.363,25.354 -324.629,50.996 -489.188,64.671c-226.545,17.808 -470.187,55.062 -697.358,69.821c-82.3,7.183 -222.375,39.195 -265.542,32.737c-30.412,-1.725 -33.312,-10.187 -30.775,-20.433c134.138,-17.296 267.692,-35.4 400.059,-51.75c162.85,-17.713 325.841,-34.717 489.362,-48.396c-160.562,10.137 -324.016,27.946 -489.362,48.396c-132.434,14.458 -264.954,28.933 -397.425,43.4c3.154,-8.946 6.046,-18.221 -3.596,-25.096c-0,-0 -40.7,5.708 -61.058,8.562c-85.555,-8.833 -70.875,-40.058 -34.296,-66.02c9.554,-5.571 20.279,-11.846 32.35,-18.305" style="fill:#2d3d36;fill-rule:nonzero;"/><path d="M2268.98,655.738c-9.787,-0.4 -19.587,-0.796 -29.287,-1.192c-179.429,-4.079 -357.942,7.962 -557,8.179c-139.471,-2.317 -298.133,8.325 -437.154,13.779c329.937,-5.396 676.033,-23.154 994.179,-9.329c-31.45,11.175 -69.254,20.633 -113.779,22.646c-107.359,1.054 -213.25,3.029 -318.229,5.733c-0.225,-4.137 -0.667,-12.221 -0.892,-16.291c-297.279,25.166 -577.138,3.533 -874.083,35.229c10.708,1.787 4.595,5.366 2.529,8.104c-0.729,0.033 -1.434,0.067 -2.109,0.1c0.675,-0.033 1.38,-0.067 2.109,-0.1c-1.867,2.4 -0.554,4.154 17.987,3.454c-18.541,0.7 -19.854,-1.054 -17.987,-3.454c292.991,-14.996 567.296,-22.075 860.454,-26.717c-454.921,11.867 -892.8,36.875 -1358.92,52.779c-19.841,0.675 -59.6,2.03 -79.471,2.705c-80.091,-9.667 -159.804,-11.13 -239.25,-8.605c18.867,-21.162 -62.545,-59.633 96.821,-56.554c-0.196,-4.096 -0.587,-12.308 -0.783,-16.408c-159.954,-15.392 -222.213,-70.942 -64.088,-92.467c177.917,-22.162 417,-13.833 634.95,-30.037c158.663,-9.888 317.267,-20.067 476.446,-18.146c219.004,3.662 456.984,-10.383 676.171,-3.638c79.658,0.621 217.908,-17.979 258.308,-7.491c28.846,4.575 30.475,13.258 26.663,23.2c-130.583,4.537 -260.717,9.933 -389.483,13.704c-158.092,2.25 -316.225,3.779 -474.413,1.954c154.883,5.063 313.567,2.775 474.413,-1.954c128.575,-1.883 257.233,-3.771 385.837,-5.658c-4.221,8.591 -8.237,17.533 0.05,25.27c0,0 39.688,-1.833 59.533,-2.754c80.609,16.842 62.355,46.479 23.875,68.821c-9.887,4.633 -20.987,9.858 -33.4,15.138" style="fill:#2d3d36;fill-rule:nonzero;"/><path d="M144.583,762.648c9.8,0.171 19.608,0.346 29.317,0.517c179.521,-0.054 357.646,-16.2 556.662,-21c139.521,-0.896 297.834,-15.184 436.671,-23.834c-329.721,12.988 -675.229,38.705 -993.737,32.213c31.108,-11.892 68.629,-22.221 113.083,-25.254c107.308,-3.529 213.125,-7.938 318.004,-13.059c0.35,4.13 1.033,12.2 1.379,16.263c296.475,-31.996 576.938,-16.817 872.879,-55.333c-10.758,-1.538 -4.75,-5.259 -2.77,-8.042c0.733,-0.05 1.433,-0.1 2.108,-0.15c-0.675,0.05 -1.375,0.1 -2.108,0.15c1.795,-2.442 0.433,-4.167 -18.088,-3.038c18.521,-1.129 19.883,0.596 18.088,3.038c-292.492,21.733 -566.538,35.121 -859.509,46.512c454.492,-22.333 891.546,-57.412 1357.11,-84.037c19.816,-1.129 59.529,-3.4 79.375,-4.533c80.366,7.816 160.112,7.445 239.466,3.091c-18.229,21.584 64.325,58.163 -95.108,58.754c0.321,4.092 0.954,12.288 1.275,16.384c160.392,11.7 224.304,65.787 66.85,90.941c-177.221,26.25 -416.517,23.425 -633.946,44.642c-158.337,13.533 -316.608,27.358 -475.821,29.104c-219.079,1.379 -456.596,20.9 -675.95,19.2c-79.662,1.217 -217.333,22.988 -258.041,13.438c-28.975,-3.913 -30.863,-12.55 -27.35,-22.575c130.425,-7.542 260.375,-15.934 389.004,-22.667c158,-5.883 316.062,-11.058 474.279,-12.875c-155.008,-1.492 -313.596,4.446 -474.279,12.875c-128.492,4.846 -257.075,9.696 -385.6,14.542c3.962,-8.684 7.712,-17.713 -0.809,-25.254c0,-0 -39.625,2.745 -59.441,4.12c-81.096,-14.975 -63.738,-45.016 -25.934,-68.237c9.746,-4.858 20.688,-10.338 32.942,-15.896" style="fill:#2d3d36;fill-rule:nonzero;"/></g><g><path d="M720.056,362.182c-1.475,1.879 -2.863,3.666 -4.18,5.358c-2.462,3.458 -4.991,6.508 -7.587,9.138c-4.213,3.754 -8.542,5.783 -12.988,6.095c-1.012,0.071 -2.066,0.059 -3.17,-0.029c-5.617,-0.704 -10.321,-4.008 -14.109,-9.904c-4.708,-8.187 -7.341,-15.958 -7.887,-23.304c-0.559,-7.346 -0.867,-11.475 -0.934,-12.404c-0.891,-12.759 -0.666,-25.221 0.68,-37.384c1.537,-13.016 3.954,-22.466 7.258,-28.35c2.583,-4.062 4.929,-6.208 7.021,-6.441c2.091,-0.225 3.221,-0.35 3.391,-0.363c3.859,-0.266 7.271,0.888 10.238,3.459c2.425,2.112 3.771,5.012 4.029,8.708c0.071,1.008 0.058,2.067 -0.033,3.167c-0.579,5.02 -1.35,10.304 -2.309,15.854c-1.216,6.754 -2.129,13.021 -2.741,18.796c-0.604,5.783 -0.754,10.895 -0.446,15.35c0.112,1.595 0.258,3.141 0.45,4.65c0.55,3.083 1.108,4.666 1.662,4.758c0.559,0.083 0.875,0.125 0.959,0.121c0.837,-0.063 1.762,-0.713 2.771,-1.967c1.162,-1.517 2.387,-3.292 3.683,-5.317c0.608,-0.887 1.179,-1.766 1.708,-2.65c4.05,-6.108 7.175,-9.408 9.371,-9.891c2.204,-0.496 3.471,-0.759 3.808,-0.775c3.78,-0.267 7.471,2.433 11.071,8.083c2.479,4.05 5.067,7.35 7.784,9.896c2.704,2.558 5.025,3.767 6.958,3.633c0.412,-0.029 0.787,-0.096 1.121,-0.208c2.221,-0.833 3.479,-4.583 3.766,-11.275c0.017,-2.188 -0.054,-4.425 -0.212,-6.688c-0.317,-4.537 -0.975,-9.133 -1.971,-13.791c-0.946,-4.992 -1.575,-9.838 -1.904,-14.542l-0.121,-1.762c-0.371,-5.292 0.417,-10.288 2.371,-14.984c2.225,-4.366 5.521,-6.708 9.887,-7.012c4.367,-0.304 7.58,1.579 9.634,5.65c4.741,11.15 7.579,20.358 8.516,27.637c0.921,7.271 1.471,12.084 1.634,14.438c0.658,9.404 0.062,18.391 -1.788,26.958c-2.287,10.708 -6.779,19.546 -13.458,26.504c-4.596,4.371 -9.154,6.713 -13.688,7.029c-0.67,0.05 -1.387,0.055 -2.15,0.025c-5.258,-0.308 -10.275,-2.129 -15.062,-5.462c-4.788,-3.338 -9.133,-6.938 -13.033,-10.804" style="fill:#f9eed2;fill-rule:nonzero;"/><path d="M839.88,397.993c-5.259,-0.4 -9.259,-2.391 -12,-5.995c-2.738,-3.613 -4.263,-7.68 -4.579,-12.217l-11.459,-138.671c0.909,-7.487 3.021,-12.258 6.338,-14.304c3.321,-2.042 6.066,-3.146 8.25,-3.3c2.354,-0.163 4.75,0.35 7.2,1.525c4.625,2.292 7.621,7.104 8.975,14.433c1.087,8.275 2.154,18.709 3.204,31.292c0.671,7.296 1.275,13.537 1.808,18.733c6.092,-2.196 10.954,-3.566 14.584,-4.121c3.633,-0.545 5.958,-0.854 6.962,-0.929c5.038,-0.35 9.821,0.496 14.354,2.542c5.409,2.492 10.084,7.904 14.042,16.237c3.112,7.117 5.421,15.375 6.917,24.763c1.5,9.387 2.65,18.571 3.445,27.542c0.388,3.175 0.73,6.233 1.021,9.17l0.079,1.13c0.642,9.237 -1.004,15.895 -4.937,19.962c-3.054,3.333 -6.475,5.138 -10.254,5.4c-1.175,0.083 -2.409,0 -3.688,-0.246c-5.291,-0.816 -9.391,-4.025 -12.321,-9.65c-1.191,-2.612 -2.15,-6.658 -2.87,-12.141c-0.717,-5.471 -1.38,-11.35 -1.992,-17.642c-0.604,-7.463 -1.338,-14.017 -2.196,-19.654c-0.854,-5.638 -2.071,-8.817 -3.637,-9.55c-0.6,-0.129 -1.15,-0.171 -1.659,-0.138c-2.6,0.184 -4.366,2.704 -5.291,7.584c-1.117,5.729 -1.834,12.995 -2.15,21.791c-0.242,7.354 -0.813,14.613 -1.705,21.763c-0.895,7.15 -2.533,12.958 -4.92,17.429c-2.392,4.471 -5.892,6.867 -10.509,7.187l-1.012,0.075Z" style="fill:#f9eed2;fill-rule:nonzero;"/><path d="M984.273,303.486c1.404,-2.879 2.637,-5.795 3.695,-8.737c1.53,-4.663 3.409,-8.508 5.646,-11.529c2.238,-3.025 5.542,-4.692 9.909,-4.996c0.587,-0.042 1.212,-0.046 1.895,-0.004c6.03,0.591 10.192,3.379 12.484,8.366c2.283,4.992 3.612,10 3.958,15.038l0.092,1.258c1.054,18.829 1.791,35.942 2.187,51.359c0.379,16.258 1.171,34.804 2.375,55.65c-0.125,8.02 -1.654,13.529 -4.612,16.52c-2.954,2.996 -5.859,4.592 -8.713,4.788l-1.008,0.071c-6.75,0.046 -11.55,-7.759 -14.421,-23.425c-1.696,-8.571 -2.808,-16.767 -3.354,-24.571l-0.117,-1.638c-0.416,-8.408 -0.658,-15.983 -0.704,-22.729c0.021,-5.737 -0.112,-10.671 -0.396,-14.783c-5.521,4.354 -10.466,6.979 -14.833,7.871c-4.363,0.896 -7.138,1.387 -8.308,1.466c-6.3,0.442 -12.13,-1.47 -17.488,-5.741c-4.529,-4.4 -7.742,-9.854 -9.625,-16.354c-1.887,-6.484 -3.029,-12.584 -3.429,-18.296c-0.125,-1.85 -0.217,-3.7 -0.267,-5.55c-0.108,-7.671 0.667,-14.138 2.321,-19.4c1.671,-5.092 3.746,-8.554 6.238,-10.375c2.491,-1.813 4.82,-2.804 7.012,-2.959c1.842,-0.129 3.883,0.155 6.125,0.838c4.504,1.625 7,3.5 7.483,5.617c0.488,2.125 0.771,3.729 0.842,4.816c0.171,2.438 0.021,5.146 -0.446,8.134c-0.65,3.925 -0.812,8.237 -0.487,12.945l0.15,2.138c1.058,6.675 2.041,10.237 2.962,10.679c0.917,0.442 1.542,0.646 1.879,0.629c1.171,-0.087 2.446,-1.229 3.809,-3.437c1.75,-2.734 3.504,-6.021 5.262,-9.854c0.667,-1.309 1.292,-2.58 1.884,-3.805" style="fill:#f9eed2;fill-rule:nonzero;"/><path d="M1171.55,252.062c5.066,0.071 10.087,0.621 15.054,1.663c4.962,1.05 8.862,2.825 11.696,5.329c2.837,2.504 4.383,5.642 4.646,9.421c0.066,0.921 0.05,1.937 -0.042,3.037c-0.658,5.113 -2.492,8.363 -5.517,9.75c-3.029,1.4 -6.512,2.229 -10.462,2.504l-0.754,0.055c-4.2,0.291 -8.421,1.2 -12.659,2.716c-4.237,1.525 -7.908,4.842 -11.012,9.946c-2.675,5.083 -3.909,9.217 -3.688,12.413c0.1,1.425 0.484,2.662 1.142,3.712c2.183,3.479 5.867,5.729 11.042,6.758c5.179,1.034 10.308,1.667 15.387,1.9c3.129,0.125 5.721,0.363 7.767,0.725c5.391,1.059 8.45,2.596 9.183,4.613c0.733,2.021 1.121,3.446 1.183,4.287c0.163,2.346 -0.466,4.759 -1.895,7.217c-1.875,3.338 -4.642,6.021 -8.3,8.046c-6.934,3.437 -14.05,5.408 -21.355,5.921c-3.7,0.254 -7.458,0.137 -11.291,-0.35c-11.154,-1.417 -19.892,-5.717 -26.213,-12.917c-6.329,-7.192 -9.833,-15.746 -10.529,-25.654c-0.237,-3.442 -0.192,-7.071 0.133,-10.892c0.909,-8.671 3.609,-16.804 8.1,-24.421c4.488,-7.616 9.884,-13.683 16.192,-18.22c6.304,-4.53 12.904,-7.038 19.792,-7.517c0.754,-0.054 1.554,-0.067 2.4,-0.042" style="fill:#f9eed2;fill-rule:nonzero;"/><path d="M1264.96,368.31c-5.262,-0.4 -9.262,-2.392 -12,-5.996c-2.742,-3.612 -4.267,-7.679 -4.583,-12.216l-11.459,-138.671c0.909,-7.488 3.025,-12.259 6.342,-14.304c3.317,-2.042 6.067,-3.146 8.25,-3.3c2.35,-0.163 4.75,0.35 7.196,1.525c4.629,2.291 7.621,7.104 8.979,14.433c1.083,8.275 2.15,18.708 3.2,31.292c0.675,7.295 1.279,13.537 1.813,18.733c6.087,-2.196 10.95,-3.567 14.583,-4.121c3.633,-0.546 5.954,-0.854 6.962,-0.929c5.038,-0.35 9.821,0.496 14.35,2.542c5.409,2.491 10.088,7.904 14.046,16.237c3.109,7.117 5.417,15.375 6.917,24.763c1.496,9.387 2.65,18.57 3.446,27.541c0.387,3.175 0.725,6.234 1.016,9.171l0.08,1.129c0.641,9.238 -1,15.896 -4.938,19.963c-3.054,3.333 -6.475,5.137 -10.25,5.4c-1.179,0.083 -2.408,-0 -3.687,-0.246c-5.292,-0.817 -9.396,-4.025 -12.321,-9.65c-1.196,-2.613 -2.15,-6.658 -2.871,-12.142c-0.721,-5.471 -1.383,-11.35 -1.996,-17.641c-0.604,-7.463 -1.337,-14.017 -2.192,-19.655c-0.858,-5.637 -2.07,-8.816 -3.637,-9.55c-0.6,-0.129 -1.154,-0.17 -1.658,-0.137c-2.605,0.183 -4.371,2.704 -5.292,7.583c-1.117,5.729 -1.833,12.996 -2.154,21.792c-0.238,7.354 -0.813,14.612 -1.704,21.762c-0.892,7.15 -2.534,12.959 -4.917,17.43c-2.396,4.47 -5.892,6.866 -10.513,7.187l-1.008,0.075Z" style="fill:#f9eed2;fill-rule:nonzero;"/><path d="M1397.17,293.131l0.096,1.387c0.538,7.73 2.246,12.792 5.113,15.209c1.52,1.246 2.954,1.825 4.295,1.729c1.517,-0.104 2.921,-1.008 4.246,-2.704c2.334,-2.775 3.259,-7.65 2.771,-14.621c-0.075,-1.092 -0.192,-2.179 -0.354,-3.267c-1.313,-7.925 -2.85,-12.396 -4.604,-13.412c-1.759,-1.013 -3.059,-1.488 -3.896,-1.429c-1.596,0.108 -3.079,1.183 -4.458,3.216c-2.142,3.188 -3.209,7.821 -3.209,13.892m15.496,-40.946c10.513,1.967 18.238,6.846 23.167,14.646c4.933,7.8 7.721,16.271 8.358,25.425c0.071,1.004 0.1,2.012 0.088,3.033c0.212,10.363 -1.913,19.75 -6.392,28.159c-4.125,7.379 -8.792,12.429 -14,15.154c-5.213,2.729 -9.996,4.246 -14.363,4.55c-2.437,0.171 -4.887,0.05 -7.366,-0.375c-9.659,-1.771 -17.375,-6.184 -23.142,-13.254c-5.762,-7.063 -9.187,-13.488 -10.262,-19.284c-1.084,-5.779 -1.705,-9.771 -1.855,-11.958c-0.491,-7.054 0.259,-13.85 2.246,-20.404c2.596,-8.704 6.859,-15.113 12.771,-19.242c5.913,-4.129 12.225,-6.421 18.946,-6.892c3.608,-0.25 7.542,-0.104 11.804,0.442" style="fill:#f9eed2;fill-rule:nonzero;"/><path d="M1509.77,285.27l0.092,1.387c0.541,7.729 2.25,12.792 5.112,15.209c1.521,1.241 2.958,1.825 4.3,1.725c1.517,-0.105 2.921,-1.009 4.242,-2.7c2.337,-2.775 3.262,-7.65 2.775,-14.621c-0.075,-1.092 -0.192,-2.179 -0.354,-3.267c-1.317,-7.925 -2.85,-12.396 -4.609,-13.412c-1.758,-1.013 -3.054,-1.492 -3.896,-1.43c-1.595,0.109 -3.079,1.184 -4.458,3.217c-2.137,3.188 -3.208,7.821 -3.204,13.892m15.496,-40.946c10.512,1.962 18.233,6.842 23.171,14.642c4.929,7.8 7.716,16.275 8.354,25.429c0.071,1.004 0.1,2.012 0.087,3.033c0.213,10.363 -1.912,19.746 -6.391,28.158c-4.13,7.38 -8.796,12.43 -14,15.155c-5.213,2.725 -9.996,4.245 -14.367,4.55c-2.433,0.166 -4.888,0.045 -7.367,-0.375c-9.658,-1.771 -17.371,-6.188 -23.133,-13.259c-5.771,-7.062 -9.192,-13.487 -10.271,-19.279c-1.079,-5.783 -1.7,-9.771 -1.85,-11.958c-0.496,-7.054 0.254,-13.854 2.246,-20.409c2.596,-8.7 6.858,-15.112 12.767,-19.241c5.916,-4.129 12.229,-6.417 18.95,-6.888c3.608,-0.25 7.537,-0.104 11.804,0.442" style="fill:#f9eed2;fill-rule:nonzero;"/><path d="M1600.33,282.616c-8.229,-9.041 -12.637,-17.887 -13.246,-26.537c-0.066,-1.004 -0.096,-1.979 -0.071,-2.908c0.167,-9.63 3.355,-17.805 9.55,-24.525c6.196,-6.717 11.738,-10.459 16.617,-11.221c4.883,-0.763 7.746,-1.175 8.588,-1.229c7.975,-0.559 15.712,2.108 23.212,7.995c5.758,5.167 8.813,10.23 9.158,15.18c0.05,0.675 0.05,1.308 0.005,1.9c-0.371,5.595 -1.975,9.162 -4.817,10.712c-2.846,1.55 -5.025,2.375 -6.542,2.479c-3.104,0.221 -6.387,-0.9 -9.85,-3.358c-1.787,-1.475 -3.575,-2.554 -5.354,-3.238c-1.775,-0.67 -3.25,-0.97 -4.425,-0.891c-1.179,0.083 -2.329,0.462 -3.467,1.133c-2.412,1.688 -3.533,3.746 -3.362,6.179c0.104,1.509 0.725,3.159 1.862,4.934c3.096,4.512 7.45,9.433 13.055,14.787c5.7,5.417 10.416,10.783 14.158,16.096c3.05,5.017 4.742,9.875 5.071,14.579c0.283,4.029 -0.459,7.963 -2.213,11.8c-3.808,8.279 -11.037,13.513 -21.687,15.688c-1.171,0.166 -2.346,0.287 -3.517,0.37c-6.55,0.459 -12.4,-0.525 -17.546,-2.95c-6.108,-2.862 -10.125,-6.02 -12.05,-9.475c-1.933,-3.45 -2.966,-6.225 -3.112,-8.325c-0.184,-2.604 0.433,-5.216 1.854,-7.854c2.071,-2.925 4.533,-4.487 7.396,-4.687c0.416,-0.034 0.879,-0.021 1.391,0.029c3.475,0.262 6.825,1.037 10.034,2.337c1.904,0.709 3.325,1.159 4.275,1.346c0.937,0.188 1.579,0.267 1.912,0.242c0.754,-0.05 1.325,-0.346 1.709,-0.879c0.07,-0.171 0.1,-0.379 0.079,-0.634c-0.05,-0.758 -0.625,-1.808 -1.738,-3.17c-1.562,-1.83 -3.512,-3.83 -5.858,-5.984c-2.346,-2.158 -4.588,-4.129 -6.742,-5.921c-2.15,-1.791 -3.596,-3.12 -4.329,-4" style="fill:#f9eed2;fill-rule:nonzero;"/><path d="M1717.31,259.517c0.092,0.079 0.221,0.108 0.392,0.096c0.412,-0.025 0.987,-0.321 1.708,-0.875c0.879,-0.659 1.771,-1.563 2.658,-2.721c0.888,-1.159 1.434,-2.125 1.634,-2.9c0.2,-0.771 0.287,-1.325 0.266,-1.663c-0.041,-0.579 -0.329,-1.071 -0.862,-1.454c-0.35,-0.15 -0.696,-0.208 -1.025,-0.183c-0.846,0.058 -1.65,0.537 -2.434,1.437c-1.17,1.346 -1.991,2.646 -2.445,3.9c-0.467,1.259 -0.675,2.184 -0.638,2.767c0.05,0.671 0.3,1.204 0.746,1.596m36.879,35.137c4.55,1.034 7.058,2.588 7.542,4.667c0.479,2.075 0.746,3.404 0.787,3.996c0.217,3.104 -1.033,6.312 -3.762,9.625c-3.271,3.854 -8.85,6.737 -16.729,8.637c-2.755,0.525 -5.384,0.879 -7.905,1.054c-12.929,0.905 -24.041,-2.366 -33.337,-9.816c-10.554,-8.55 -16.367,-20.459 -17.429,-35.742l-0.188,-2.646c-0.016,-7.508 1.413,-15.075 4.3,-22.7c2.884,-7.629 6.875,-14.254 11.963,-19.887c5.091,-5.629 9.587,-8.871 13.496,-9.738c3.908,-0.862 6.366,-1.329 7.375,-1.396c5.787,-0.408 11.866,1.442 18.233,5.559c7.896,5.604 12.033,10.466 12.408,14.571c0.367,4.112 0.563,6.287 0.584,6.545c0.537,7.721 -1.546,15.338 -6.255,22.834c-4.945,7.775 -11.787,14.237 -20.541,19.408c-2.679,1.542 -3.971,2.975 -3.871,4.321c0.012,0.25 0.071,0.462 0.167,0.621c0.45,1.658 2.087,2.683 4.895,3.075c1.525,0.062 3.046,0.041 4.555,-0.063c2.77,-0.191 5.558,-0.679 8.379,-1.471c2.716,-0.87 5.508,-1.4 8.371,-1.6c2.262,-0.158 4.583,-0.108 6.962,0.146" style="fill:#f9eed2;fill-rule:nonzero;"/><path d="M600.349,609.871c0.338,0.062 0.717,0.079 1.138,0.05c1.425,-0.104 3.187,-0.854 5.283,-2.267c2.742,-1.796 5.096,-4.15 7.038,-7.075c1.945,-2.925 2.825,-5.85 2.616,-8.787l-0.212,-1.254c-1.267,-4.805 -3.317,-7.317 -6.163,-7.542c-2.841,-0.221 -5.062,-0.279 -6.658,-0.167c-2.767,0.192 -5.646,0.734 -8.617,1.613c0.134,0.75 0.304,2.004 0.517,3.766c0.342,2.5 0.779,5.384 1.3,8.638c0.521,3.254 1.1,6.15 1.746,8.671c0.637,2.537 1.308,3.987 2.012,4.354m3.996,37.312c0.2,1.675 0.421,3.642 0.663,5.905c0.716,5.433 1.25,9.995 1.591,13.679c0.338,3.696 0.546,6.083 0.621,7.175c0.321,4.533 0.329,8.241 0.021,11.133c-0.942,4.546 -2.85,7.521 -5.704,8.942c-2.854,1.429 -5.117,2.196 -6.796,2.312c-2.521,0.175 -5.008,-0.366 -7.458,-1.637c-4.284,-2.142 -7.213,-7.254 -8.792,-15.329c-0.471,-3.167 -1.3,-8.005 -2.463,-14.509c-1.175,-6.496 -2.458,-13.704 -3.854,-21.625c-1.687,-9.666 -3.266,-18.65 -4.729,-26.946c-1.467,-8.291 -2.425,-13.9 -2.887,-16.82c-0.555,-3.167 -0.946,-6.305 -1.163,-9.409c-0.304,-4.371 -0.258,-8.55 0.138,-12.546c0.616,-6.875 3.25,-12.037 7.908,-15.483c5.721,-3.858 11.058,-6.233 16.012,-7.129c4.959,-0.896 8.446,-1.413 10.463,-1.554c5.875,-0.413 11.733,0.112 17.579,1.558c7.896,1.975 14.633,6.063 20.213,12.254c5.533,6.7 8.554,13.667 9.058,20.892c0.108,1.508 0.087,3.025 -0.058,4.554c-0.738,8.829 -3.755,17.246 -9.063,25.25c-5.308,8.008 -11.554,14.838 -18.758,20.488c-2.488,1.858 -5.175,3.775 -8.079,5.75c-1.367,0.941 -2.859,1.975 -4.463,3.095" style="fill:#f9eed2;fill-rule:nonzero;"/><path d="M680.912,532.865c-0.225,-12.809 3.904,-19.513 12.387,-20.104l0.754,-0.055c9.321,-0.65 14.667,5.767 16.03,19.259c1.929,20.371 3.712,38.6 5.333,54.683c1.762,16.754 3.642,35.775 5.633,57.067l0.059,0.883c0.358,5.125 1.404,9.821 3.137,14.079c1.913,4.429 5.933,7.646 12.063,9.667c3.729,1.429 5.816,3.2 6.262,5.321c0.446,2.121 0.683,3.433 0.721,3.937c0.221,3.192 -0.788,6.342 -3.013,9.454c-2.629,3.475 -6.995,5.63 -13.091,6.48c-6.55,0.454 -12.846,-1.125 -18.875,-4.759c-6.034,-3.629 -10.45,-8.591 -13.25,-14.896c-3.717,-9.695 -6.359,-21.512 -7.921,-35.454c-1.563,-13.941 -2.721,-26.283 -3.475,-37.033c-0.504,-7.221 -0.925,-14.483 -1.271,-21.804c-0.775,-18.425 -1.275,-34 -1.483,-46.725" style="fill:#f9eed2;fill-rule:nonzero;"/><path d="M805.281,606.571c-0.45,-0.388 -0.971,-0.567 -1.554,-0.525c-0.929,0.067 -1.984,0.692 -3.163,1.871c-1.904,1.733 -3.725,4.054 -5.462,6.958c-1.738,2.908 -2.825,5.179 -3.263,6.813c-0.429,1.637 -0.625,2.745 -0.583,3.333c0.067,1.008 0.529,1.571 1.379,1.671l0.504,-0.034c2.517,-0.179 4.917,-1.525 7.188,-4.041c2.429,-2.704 4.058,-5.284 4.896,-7.75c0.837,-2.467 1.22,-4.284 1.141,-5.459c-0.087,-1.175 -0.446,-2.12 -1.083,-2.837m12.108,32.062l-1.908,1.65c-4.829,4.563 -9.438,8.005 -13.829,10.334c-4.4,2.337 -8.359,3.621 -11.884,3.866c-3.195,0.225 -6.629,-0.12 -10.329,-1.045c-9.312,-2.813 -14.775,-6.517 -16.408,-11.134c-1.629,-4.608 -2.533,-8.216 -2.713,-10.821c-0.341,-4.866 0.43,-10.108 2.317,-15.729c2.946,-8.562 7.663,-16.816 14.15,-24.787c6.492,-7.959 13.908,-14.384 22.263,-19.271c2.991,-1.808 5.8,-2.933 8.433,-3.371c2.625,-0.433 4.233,-0.675 4.825,-0.717c4.025,-0.279 7.833,0.467 11.421,2.242c4.016,1.996 6.629,6.204 7.841,12.613l16.967,67.158c0.142,0.837 0.238,1.629 0.292,2.387c0.246,3.525 -0.659,6.334 -2.7,8.413c-2.054,2.092 -4.463,3.221 -7.234,3.417c-0.587,0.041 -1.22,0.045 -1.895,0.004c-3.642,-0.163 -6.775,-2.1 -9.396,-5.796c-2.559,-4.042 -4.884,-8.346 -6.975,-12.929c-1.075,-2.117 -2.154,-4.279 -3.238,-6.484" style="fill:#f9eed2;fill-rule:nonzero;"/><path d="M928.1,620.019c-2.946,6.196 -5.267,12.812 -6.967,19.854c-1.617,7.117 -3.725,13.088 -6.342,17.908c-2.62,4.825 -6.695,7.43 -12.241,7.817l-1.259,0.088c-3.637,-0.088 -6.912,-1.35 -9.82,-3.813c-2.913,-2.454 -4.83,-5.967 -5.734,-10.542c-3.033,-16.75 -5.637,-33.57 -7.829,-50.466c-0.642,-4.338 -1.279,-8.642 -1.917,-12.896l-0.033,-0.504c-0.129,-1.85 0.146,-4.017 0.813,-6.513c0.816,-2.754 2.27,-5.225 4.354,-7.391c2.087,-2.167 4.933,-3.388 8.546,-3.638l0.504,-0.033c5.654,0.029 9.537,2.183 11.65,6.466c2.112,4.28 3.662,9.296 4.658,15.055c0.4,2.079 0.833,4.07 1.304,5.979c2.4,-1.854 4.679,-3.696 6.829,-5.538c4.534,-3.941 9.138,-7.475 13.817,-10.583c5.825,-3.613 11.208,-5.596 16.158,-5.942c2.859,-0.196 5.538,0.125 8.046,0.963c7.079,2.287 12.063,8.437 14.959,18.441c3.52,15.455 5.887,31.188 7.091,47.221c0.363,3.942 0.763,7.921 1.213,11.942c0.241,4.708 -1.013,8.217 -3.759,10.512c-2.75,2.3 -5.558,3.555 -8.408,3.755c-1.175,0.079 -2.362,0.037 -3.554,-0.138c-4.263,-0.629 -7.717,-3.592 -10.363,-8.887c-2.608,-5.9 -4.525,-12.492 -5.75,-19.788c-1.225,-7.296 -2.22,-14.592 -2.983,-21.879l-0.058,-0.883c-0.692,-5.013 -1.438,-7.555 -2.246,-7.625c-0.804,-0.071 -1.296,-0.105 -1.463,-0.092c-1.341,0.096 -2.779,1.204 -4.32,3.342c-1.775,2.4 -3.409,5.004 -4.896,7.808" style="fill:#f9eed2;fill-rule:nonzero;"/><path d="M1059.89,633.219l1.263,-0.088c6.975,-0.487 11.587,0.963 13.846,4.346c1.22,1.771 1.908,3.754 2.058,5.934c0.15,2.183 -0.233,4.529 -1.15,7.045c-1.75,5.1 -4.679,9.142 -8.775,12.125c-4.088,2.992 -8.325,4.63 -12.688,4.934c-1.933,0.137 -3.92,0.066 -5.966,-0.209c-8.975,-1.654 -15.917,-5.033 -20.829,-10.129c-4.913,-5.1 -8.5,-11.179 -10.767,-18.233c-2.263,-7.054 -3.908,-14.3 -4.933,-21.742l-0.588,-8.437c-0.187,-2.688 -0.546,-5.359 -1.067,-8.029c-0.645,-3.159 -2.212,-6.209 -4.691,-9.163c-0.842,-1.125 -1.325,-2.562 -1.446,-4.329c-0.05,-0.667 -0.05,-1.346 -0.017,-2.025c0.138,-2.875 0.792,-5.121 1.942,-6.717c2.625,-3.475 4.058,-7.137 4.292,-10.996c0.241,-3.85 0.233,-7.545 -0.017,-11.075c-0.104,-1.508 -0.254,-3.058 -0.446,-4.65l-0.221,-3.15c-0.216,-3.104 -0.358,-6.295 -0.416,-9.587c-0.063,-4.467 0.429,-8.971 1.462,-13.517c1.492,-5.25 3.704,-8.562 6.65,-9.954c2.933,-1.387 5.367,-2.154 7.3,-2.287c2.183,-0.15 4.4,0.204 6.654,1.058c4.071,1.483 6.996,4.7 8.775,9.633c1.417,4.55 2.354,9.271 2.829,14.175c0.467,4.9 0.834,9.242 1.092,13.021l0.804,11.463c1.284,0.333 2.534,0.666 3.742,1c2.571,0.583 5.025,1.295 7.367,2.145c5.387,2.242 8.233,4.384 8.545,6.43c0.313,2.045 0.48,3.191 0.496,3.445c0.259,3.692 -1.725,7.334 -5.946,10.921c-2.483,1.942 -5.179,3.779 -8.095,5.5c-1.384,0.775 -2.8,1.629 -4.255,2.575c0.105,1.509 0.155,3.45 0.159,5.817c-0.009,3.537 0.129,7.325 0.412,11.354l0.217,3.15c0.454,5.288 1.604,9.717 3.458,13.3c1.854,3.592 4.842,5.233 8.95,4.946" style="fill:#f9eed2;fill-rule:nonzero;"/><path d="M1178.88,564.664l0.763,-0.054c4.191,-0.292 7.675,0.733 10.458,3.071c2.333,1.942 3.617,4.554 3.842,7.829c0.066,0.925 0.045,1.896 -0.05,2.917c-0.817,4.025 -3.263,7.421 -7.325,10.191c-4.075,2.771 -8.034,4.342 -11.888,4.688c-16.962,1.183 -33.929,1.654 -50.912,1.408c-5.505,-0.291 -9.034,-1.879 -10.58,-4.771c-1.554,-2.883 -2.395,-5.291 -2.529,-7.225c-0.141,-2.012 0.175,-4.1 0.954,-6.27c1.567,-4.075 5.146,-6.684 10.717,-7.838c8.688,-1.192 17.442,-2.1 26.254,-2.712c8.238,-0.575 16.488,-0.9 24.746,-0.975c1.763,-0.121 3.613,-0.209 5.55,-0.259" style="fill:#f9eed2;fill-rule:nonzero;"/><path d="M1288.61,586.238c-2.667,-1.921 -5.004,-2.812 -7.021,-2.671c-1.679,0.117 -3.092,1.021 -4.237,2.696c-2.459,3.546 -4.005,8.321 -4.634,14.308c-0.641,5.996 -0.825,10.884 -0.562,14.659c6.483,-3.825 12.166,-8.188 17.058,-13.088c2.683,-2.629 4.088,-4.608 4.204,-5.921c0.121,-1.316 0.159,-2.233 0.129,-2.737c-0.104,-1.425 -0.57,-2.654 -1.395,-3.692c-1.113,-1.441 -2.296,-2.625 -3.542,-3.554m-25.9,-31.983c4.862,-1.609 9.437,-2.559 13.721,-2.859c5.454,-0.379 10.483,0.284 15.071,1.984c8.304,2.883 15.741,7.85 22.304,14.9c6.646,6.958 10.225,14.091 10.733,21.396l0.096,1.387c0.2,7.667 -1.921,15.029 -6.367,22.088c-4.441,7.062 -10.062,13.295 -16.858,18.708c-6.792,5.408 -13.583,9.575 -20.383,12.5c-4.6,1.837 -8.871,2.896 -12.817,3.167c-5.121,0.358 -9.704,-0.588 -13.742,-2.834c-7.208,-4.137 -11.941,-11.487 -14.196,-22.046c-2.516,-13.066 -4.533,-26.258 -6.054,-39.57c-1.516,-13.309 -2.866,-26.63 -4.054,-39.963c-0.629,-6.537 -1.246,-13.037 -1.871,-19.487c-0.333,-7.238 1.246,-12.046 4.754,-14.446c3.505,-2.396 6.596,-3.688 9.284,-3.875c2.096,-0.146 4.321,0.204 6.65,1.05c5.125,2.012 8.466,7.008 10.033,15c1,6.933 1.842,14.254 2.554,21.971c0.321,3.437 0.7,7.075 1.142,10.929" style="fill:#f9eed2;fill-rule:nonzero;"/><path d="M1402.42,564.876c-0.45,-0.392 -0.966,-0.567 -1.554,-0.525c-0.925,0.066 -1.983,0.687 -3.162,1.866c-1.904,1.734 -3.725,4.054 -5.459,6.959c-1.737,2.912 -2.82,5.179 -3.262,6.812c-0.433,1.642 -0.629,2.746 -0.588,3.333c0.067,1.009 0.53,1.571 1.384,1.675l0.5,-0.037c2.521,-0.175 4.916,-1.525 7.191,-4.042c2.425,-2.704 4.055,-5.283 4.896,-7.746c0.838,-2.47 1.221,-4.283 1.138,-5.458c-0.084,-1.175 -0.442,-2.121 -1.084,-2.837m12.109,32.058l-1.904,1.654c-4.83,4.563 -9.442,8 -13.834,10.329c-4.396,2.338 -8.358,3.621 -11.883,3.871c-3.196,0.225 -6.629,-0.125 -10.325,-1.05c-9.313,-2.808 -14.779,-6.517 -16.408,-11.133c-1.63,-4.609 -2.538,-8.217 -2.717,-10.821c-0.342,-4.867 0.429,-10.108 2.321,-15.729c2.946,-8.563 7.662,-16.817 14.15,-24.784c6.487,-7.962 13.908,-14.387 22.258,-19.27c2.996,-1.813 5.808,-2.938 8.433,-3.371c2.63,-0.438 4.238,-0.679 4.825,-0.721c4.03,-0.279 7.838,0.467 11.425,2.242c4.013,2 6.63,6.204 7.842,12.612l16.963,67.158c0.141,0.838 0.237,1.63 0.291,2.388c0.246,3.525 -0.654,6.333 -2.7,8.412c-2.054,2.092 -4.458,3.221 -7.229,3.417c-0.587,0.042 -1.225,0.046 -1.896,0.004c-3.646,-0.162 -6.775,-2.096 -9.4,-5.791c-2.558,-4.042 -4.879,-8.35 -6.971,-12.93c-1.079,-2.12 -2.154,-4.283 -3.241,-6.487" style="fill:#f9eed2;fill-rule:nonzero;"/><path d="M1493.81,579.5c-8.229,-9.042 -12.637,-17.884 -13.241,-26.534c-0.071,-1.008 -0.096,-1.979 -0.075,-2.908c0.171,-9.633 3.35,-17.804 9.546,-24.525c6.195,-6.717 11.741,-10.462 16.62,-11.225c4.884,-0.758 7.742,-1.171 8.588,-1.229c7.975,-0.558 15.717,2.108 23.208,7.996c5.763,5.171 8.817,10.233 9.163,15.183c0.05,0.675 0.054,1.308 0.008,1.9c-0.371,5.592 -1.979,9.163 -4.821,10.713c-2.846,1.55 -5.025,2.375 -6.541,2.479c-3.105,0.216 -6.388,-0.9 -9.85,-3.359c-1.788,-1.475 -3.575,-2.558 -5.35,-3.233c-1.78,-0.679 -3.255,-0.975 -4.43,-0.896c-1.179,0.084 -2.329,0.463 -3.466,1.134c-2.413,1.683 -3.534,3.745 -3.363,6.183c0.104,1.508 0.725,3.154 1.863,4.933c3.096,4.509 7.45,9.434 13.054,14.779c5.696,5.421 10.417,10.784 14.158,16.1c3.054,5.017 4.742,9.875 5.067,14.575c0.283,4.034 -0.45,7.967 -2.208,11.8c-3.809,8.28 -11.038,13.517 -21.688,15.692c-1.167,0.171 -2.346,0.292 -3.517,0.371c-6.55,0.458 -12.395,-0.525 -17.545,-2.954c-6.109,-2.863 -10.125,-6.017 -12.05,-9.471c-1.93,-3.454 -2.967,-6.225 -3.113,-8.325c-0.183,-2.6 0.433,-5.217 1.854,-7.85c2.075,-2.929 4.538,-4.492 7.396,-4.692c0.417,-0.029 0.879,-0.021 1.392,0.025c3.475,0.263 6.825,1.046 10.033,2.342c1.904,0.708 3.329,1.158 4.271,1.346c0.942,0.187 1.579,0.262 1.917,0.241c0.754,-0.05 1.32,-0.341 1.708,-0.879c0.075,-0.171 0.1,-0.383 0.083,-0.637c-0.05,-0.754 -0.633,-1.809 -1.741,-3.171c-1.563,-1.825 -3.513,-3.821 -5.859,-5.979c-2.341,-2.159 -4.587,-4.125 -6.741,-5.921c-2.15,-1.788 -3.596,-3.121 -4.33,-4.004" style="fill:#f9eed2;fill-rule:nonzero;"/><path d="M1610.79,556.4c0.087,0.083 0.22,0.108 0.391,0.1c0.413,-0.029 0.984,-0.325 1.704,-0.879c0.884,-0.654 1.767,-1.558 2.659,-2.717c0.887,-1.158 1.433,-2.125 1.633,-2.9c0.2,-0.775 0.288,-1.325 0.263,-1.662c-0.042,-0.584 -0.325,-1.075 -0.859,-1.454c-0.35,-0.146 -0.691,-0.209 -1.025,-0.184c-0.841,0.059 -1.654,0.538 -2.433,1.434c-1.171,1.345 -1.992,2.65 -2.446,3.904c-0.467,1.254 -0.675,2.183 -0.637,2.762c0.05,0.675 0.3,1.209 0.75,1.596m36.879,35.142c4.546,1.037 7.054,2.591 7.537,4.666c0.479,2.071 0.746,3.405 0.788,3.992c0.216,3.104 -1.034,6.317 -3.763,9.629c-3.275,3.854 -8.85,6.734 -16.729,8.634c-2.75,0.529 -5.379,0.883 -7.904,1.058c-12.925,0.904 -24.042,-2.371 -33.338,-9.821c-10.554,-8.546 -16.366,-20.458 -17.429,-35.742l-0.187,-2.641c-0.021,-7.513 1.416,-15.075 4.3,-22.704c2.883,-7.625 6.871,-14.255 11.966,-19.884c5.092,-5.625 9.588,-8.875 13.492,-9.741c3.904,-0.859 6.367,-1.33 7.371,-1.396c5.792,-0.409 11.867,1.446 18.237,5.558c7.896,5.613 12.034,10.467 12.409,14.575c0.366,4.113 0.566,6.283 0.583,6.542c0.542,7.721 -1.55,15.341 -6.25,22.837c-4.95,7.771 -11.792,14.242 -20.542,19.409c-2.679,1.537 -3.97,2.975 -3.875,4.325c0.013,0.245 0.071,0.454 0.171,0.612c0.446,1.663 2.084,2.688 4.892,3.075c1.525,0.067 3.042,0.046 4.55,-0.058c2.775,-0.196 5.562,-0.684 8.379,-1.471c2.725,-0.871 5.513,-1.404 8.371,-1.604c2.267,-0.159 4.587,-0.109 6.971,0.15" style="fill:#f9eed2;fill-rule:nonzero;"/><path d="M1724.74,555.277l-0.904,1.583c-1.654,2.821 -3.021,5.629 -4.088,8.446c-1.07,2.821 -1.504,5.696 -1.295,8.633l0.079,1.138c0.521,3.846 1.1,5.846 1.75,6.016c0.641,0.167 1.087,0.238 1.341,0.221c1.175,-0.083 2.967,-1.008 5.371,-2.779c7.238,-5.146 11.95,-11.975 14.142,-20.479c0.679,-2.413 0.958,-4.375 0.854,-5.883c-0.133,-1.846 -0.808,-3.063 -2.029,-3.65c-1.05,-0.605 -2.25,-0.859 -3.592,-0.767c-1.346,0.096 -2.837,0.537 -4.466,1.329c-3.188,1.483 -5.571,3.55 -7.163,6.192m23.192,-35.792c0.058,-2.792 0.137,-6.546 0.225,-11.279c0.15,-11.15 0.5,-23.408 1.041,-36.779c0.546,-13.367 1.48,-22.584 2.813,-27.659c1.579,-3.991 3.6,-6.412 6.079,-7.258c2.471,-0.85 4.333,-1.317 5.596,-1.408c2.267,-0.159 4.571,0.275 6.929,1.291c3.479,1.53 5.829,4.488 7.071,8.875c0.408,2.246 0.762,5.559 1.067,9.921c0.258,3.696 0.487,8.067 0.666,13.117c0.279,11.287 0.517,23.129 0.713,35.512c0.229,14.163 0.525,25.113 0.896,32.846c1.32,23.704 2.225,45.113 2.716,64.234c-0.062,6.416 -1.446,10.795 -4.146,13.137c-2.704,2.342 -5.191,3.592 -7.462,3.75c-1.342,0.092 -2.746,-0.108 -4.217,-0.596c-3.875,-1.162 -6.7,-4.675 -8.454,-10.546c-1.008,-3.554 -1.942,-7.204 -2.792,-10.945c-0.562,-1.98 -1.087,-4.055 -1.57,-6.213c-4.913,4.642 -10.009,8.963 -15.296,12.963c-5.288,3.995 -9.717,6.458 -13.279,7.383c-3.567,0.921 -6.021,1.433 -7.367,1.525c-4.617,0.321 -9.417,-0.775 -14.4,-3.296c-7.992,-4.421 -12.808,-9.425 -14.467,-15.004c-1.65,-5.575 -2.608,-10.133 -2.85,-13.663c-0.333,-4.783 0.038,-9.745 1.113,-14.879c1.821,-8.983 5.075,-17.316 9.775,-24.983c4.746,-8.183 9.862,-13.704 15.358,-16.579c5.496,-2.871 10.592,-4.471 15.296,-4.8c3.854,-0.271 8.058,0.066 12.6,1.016c1.029,0.267 2.258,0.35 3.687,0.25c0.838,-0.058 1.725,-0.033 2.659,0.067" style="fill:#f9eed2;fill-rule:nonzero;"/><path d="M1866.71,576.371c3.95,-0.188 7.279,0.908 9.975,3.291c2.7,2.388 4.179,5.509 4.45,9.375c0.133,4.375 -1.3,8.338 -4.296,11.884c-3,3.537 -6.596,5.579 -10.771,6.129c-4.042,0.196 -7.537,-1.021 -10.508,-3.638c-2.967,-2.621 -4.584,-5.858 -4.859,-9.725l-0.025,-0.379c-0.037,-4.208 1.513,-7.992 4.655,-11.329c3.137,-3.338 6.933,-5.208 11.379,-5.608m25.775,-85.838c-5.55,12.371 -9.259,22.079 -11.129,29.133c-1.875,7.046 -3.013,12.525 -3.413,16.43c-0.412,3.745 -1.192,7.091 -2.333,10.037c-2.363,4.892 -4.717,7.654 -7.079,8.279c-2.359,0.629 -4.042,0.979 -5.05,1.05c-2.605,0.179 -5.092,-0.358 -7.455,-1.629c-3.25,-1.712 -5.37,-4.354 -6.383,-7.912c-0.525,-2.746 -0.887,-5.459 -1.075,-8.15c-0.5,-7.138 0.2,-14.142 2.079,-21.03c2.713,-9.47 5.938,-18.3 9.667,-26.491c3.575,-8.013 5.779,-13.929 6.612,-17.738c0.825,-3.812 1.192,-6.475 1.084,-7.987c-0.254,-3.692 -1.938,-6.654 -5.05,-8.888c-2.55,-1.508 -4.963,-2.187 -7.229,-2.029c-1.18,0.088 -2.334,0.421 -3.471,1.004c-3.171,1.742 -6.25,4.154 -9.246,7.229c-2.817,3.063 -5.35,5.23 -7.583,6.475c-2.23,1.255 -4.059,1.925 -5.488,2.03c-2.017,0.137 -4.208,-0.421 -6.575,-1.692c-3.979,-2.675 -6.112,-5.983 -6.392,-9.929c-0.125,-1.85 0.159,-3.896 0.842,-6.134c2.213,-6.904 6.992,-12.829 14.325,-17.77c7.329,-4.942 15.325,-7.717 23.975,-8.325c2.183,-0.15 4.375,-0.175 6.571,-0.075c10.629,1.112 18.796,5.095 24.508,11.958c5.709,6.858 8.796,12.758 9.271,17.704c0.471,4.942 0.717,7.588 0.742,7.917c0.641,9.158 -0.934,18.004 -4.725,26.533" style="fill:#f9eed2;fill-rule:nonzero;"/></g></g></svg>