<?xml version="1.0" encoding="UTF-8" standalone="no"?><!DOCTYPE svg PUBLIC "-//W3C//DTD SVG 1.1//EN" "http://www.w3.org/Graphics/SVG/1.1/DTD/svg11.dtd"><svg width="100%" height="100%" viewBox="0 0 2405 902" version="1.1" xmlns="http://www.w3.org/2000/svg" xmlns:xlink="http://www.w3.org/1999/xlink" xml:space="preserve" xmlns:serif="http://www.serif.com/" style="fill-rule:evenodd;clip-rule:evenodd;stroke-linejoin:round;stroke-miterlimit:2;"><g><g><path d="M2292.16,132.904c-10.171,0.338 -20.359,0.675 -30.438,1.013c-186.112,9.391 -369.517,34.775 -575.475,49.916c-144.575,8.155 -307.592,30.65 -450.85,46.509c340.821,-30.117 697.013,-73.759 1027.73,-83.85c-31.32,13.487 -69.408,25.746 -115.262,31.091c-110.971,9.1 -220.333,19.009 -328.667,29.575c-0.687,-4.104 -2.029,-12.125 -2.704,-16.162c-304.867,47.362 -596.825,46.804 -900.629,100.642c11.275,0.979 5.342,5.004 3.504,7.883c-0.754,0.092 -1.475,0.175 -2.175,0.258c0.7,-0.083 1.421,-0.166 2.175,-0.258c-1.667,2.533 -0.121,4.183 18.988,2.092c-19.109,2.091 -20.655,0.441 -18.988,-2.092c301.542,-36.908 584.608,-64.529 887.458,-91.138c-469.445,45.934 -919.82,103.684 -1400.41,154.48c-20.454,2.162 -61.45,6.491 -81.937,8.654c-83.934,-3.621 -166.58,0.9 -248.509,9.371c17.209,-22.488 -71.246,-54.705 94,-63.588c-0.65,-4.067 -1.95,-12.217 -2.604,-16.287c-167.2,-3.334 -237.696,-53.996 -76.425,-87.292c181.679,-35.421 429.988,-45.054 653.746,-77.542c163.1,-21.746 326.104,-43.775 491.033,-53.804c227.021,-12.775 471.742,-44.612 699.288,-54.333c82.496,-5.354 223.521,-34.246 266.471,-26.834c30.35,2.396 32.983,10.921 30.129,21.109c-134.629,14.316 -268.7,29.45 -401.529,42.862c-163.346,14.092 -326.813,27.479 -490.705,37.525c160.825,-6.575 324.78,-20.754 490.705,-37.525c132.837,-11.521 265.762,-23.05 398.633,-34.575c-3.425,8.875 -6.608,18.084 2.817,25.167c-0,-0 40.862,-4.804 61.304,-7.208c85.25,10.729 69.604,41.616 32.229,66.762c-9.725,5.354 -20.642,11.392 -32.908,17.579" style="fill:#a09b7e;fill-rule:nonzero;"/><path d="M105.577,398.713c10.159,-0.563 20.329,-1.125 30.392,-1.688c185.758,-13.512 368.312,-42.954 573.725,-62.658c144.275,-11.359 306.533,-37.463 449.25,-56.488c-339.767,37.663 -694.479,89.188 -1024.77,106.609c30.892,-14.18 68.583,-27.275 114.254,-33.638c110.654,-11.558 219.667,-23.887 327.634,-36.854c0.812,4.087 2.404,12.079 3.208,16.096c303.287,-54.104 595.158,-60.017 897.183,-120.575c-11.3,-0.729 -5.491,-4.884 -3.746,-7.804c0.75,-0.105 1.471,-0.209 2.167,-0.305c-0.696,0.096 -1.417,0.2 -2.167,0.305c1.588,-2.567 -0.008,-4.184 -19.05,-1.671c19.042,-2.513 20.638,-0.896 19.05,1.671c-300.287,43.583 -582.4,77.47 -884.312,110.787c467.854,-56.329 916.275,-124.046 1395.12,-185.479c20.379,-2.613 61.225,-7.854 81.637,-10.471c84.017,1.758 166.496,-4.587 248.133,-14.875c-16.504,22.863 72.921,53.104 -91.991,65.65c0.775,4.05 2.333,12.167 3.108,16.225c167.25,-0.375 239.296,48.704 79.121,85.567c-180.517,39.437 -428.442,54.571 -651.113,92.008c-162.362,25.354 -324.629,50.992 -489.187,64.671c-226.546,17.808 -470.188,55.062 -697.358,69.821c-82.3,7.183 -222.375,39.196 -265.542,32.737c-30.413,-1.725 -33.313,-10.187 -30.775,-20.433c134.137,-17.296 267.692,-35.4 400.058,-51.754c162.85,-17.709 325.842,-34.717 489.363,-48.392c-160.563,10.138 -324.017,27.946 -489.363,48.392c-132.433,14.462 -264.954,28.937 -397.425,43.404c3.154,-8.946 6.046,-18.221 -3.596,-25.096c0,0 -40.7,5.708 -61.058,8.563c-85.554,-8.834 -70.875,-40.059 -34.296,-66.021c9.554,-5.571 20.279,-11.846 32.35,-18.304" style="fill:#a09b7e;fill-rule:nonzero;"/><path d="M2303.61,388.663c-10.171,0.338 -20.358,0.675 -30.437,1.013c-186.113,9.392 -369.517,34.775 -575.475,49.917c-144.575,8.154 -307.592,30.65 -450.85,46.508c340.82,-30.117 697.012,-73.758 1027.73,-83.85c-31.321,13.487 -69.408,25.746 -115.263,31.092c-110.97,9.1 -220.333,19.008 -328.666,29.575c-0.688,-4.105 -2.029,-12.125 -2.704,-16.163c-304.867,47.363 -596.825,46.804 -900.63,100.642c11.275,0.979 5.342,5.004 3.505,7.883c-0.755,0.092 -1.475,0.175 -2.175,0.258c0.7,-0.083 1.42,-0.166 2.175,-0.258c-1.667,2.533 -0.121,4.183 18.987,2.092c-19.108,2.091 -20.654,0.441 -18.987,-2.092c301.541,-36.908 584.608,-64.529 887.458,-91.137c-469.446,45.933 -919.821,103.683 -1400.41,154.479c-20.455,2.162 -61.45,6.491 -81.938,8.654c-83.933,-3.621 -166.579,0.9 -248.508,9.371c17.204,-22.488 -71.246,-54.704 94,-63.588c-0.65,-4.066 -1.95,-12.216 -2.604,-16.287c-167.2,-3.334 -237.696,-53.996 -76.425,-87.292c181.679,-35.421 429.987,-45.054 653.745,-77.542c163.1,-21.745 326.105,-43.775 491.034,-53.804c227.021,-12.775 471.741,-44.612 699.287,-54.333c82.496,-5.354 223.521,-34.246 266.471,-26.833c30.35,2.395 32.983,10.92 30.129,21.108c-134.629,14.317 -268.7,29.45 -401.529,42.862c-163.346,14.092 -326.812,27.48 -490.704,37.525c160.825,-6.575 324.775,-20.754 490.704,-37.525c132.833,-11.52 265.763,-23.05 398.633,-34.575c-3.429,8.875 -6.608,18.084 2.817,25.167c0,0 40.863,-4.804 61.304,-7.208c85.25,10.729 69.6,41.621 32.229,66.762c-9.725,5.359 -20.641,11.392 -32.908,17.579" style="fill:#a09b7e;fill-rule:nonzero;"/><path d="M117.03,654.472c10.158,-0.562 20.329,-1.129 30.391,-1.687c185.759,-13.517 368.313,-42.954 573.725,-62.659c144.275,-11.358 306.534,-37.462 449.25,-56.491c-339.766,37.666 -694.479,89.191 -1024.77,106.612c30.891,-14.179 68.583,-27.279 114.254,-33.637c110.654,-11.559 219.666,-23.888 327.633,-36.854c0.813,4.087 2.404,12.075 3.208,16.095c303.288,-54.104 595.159,-60.02 897.184,-120.575c-11.3,-0.729 -5.492,-4.883 -3.746,-7.804c0.75,-0.104 1.471,-0.208 2.167,-0.304c-0.696,0.096 -1.417,0.2 -2.167,0.304c1.587,-2.566 -0.008,-4.183 -19.046,-1.671c19.038,-2.512 20.633,-0.895 19.046,1.671c-300.288,43.584 -582.4,77.471 -884.313,110.788c467.855,-56.329 916.275,-124.046 1395.12,-185.484c20.379,-2.612 61.225,-7.85 81.638,-10.466c84.016,1.758 166.495,-4.592 248.133,-14.879c-16.504,22.866 72.921,53.108 -91.992,65.654c0.775,4.05 2.334,12.166 3.109,16.225c167.25,-0.375 239.295,48.704 79.116,85.566c-180.512,39.438 -428.437,54.571 -651.108,92.009c-162.363,25.354 -324.629,50.991 -489.188,64.671c-226.545,17.808 -470.187,55.062 -697.358,69.82c-82.3,7.184 -222.375,39.196 -265.542,32.738c-30.412,-1.725 -33.312,-10.188 -30.775,-20.433c134.138,-17.296 267.692,-35.4 400.059,-51.755c162.85,-17.708 325.841,-34.716 489.362,-48.391c-160.562,10.137 -324.016,27.946 -489.362,48.391c-132.434,14.463 -264.954,28.938 -397.425,43.405c3.154,-8.946 6.046,-18.221 -3.596,-25.096c-0,-0 -40.7,5.708 -61.058,8.562c-85.555,-8.833 -70.875,-40.058 -34.296,-66.021c9.554,-5.57 20.279,-11.845 32.35,-18.304" style="fill:#a09b7e;fill-rule:nonzero;"/><path d="M2268.98,655.738c-9.787,-0.396 -19.587,-0.796 -29.287,-1.192c-179.429,-4.079 -357.942,7.962 -557,8.179c-139.471,-2.317 -298.133,8.325 -437.154,13.779c329.937,-5.396 676.033,-23.154 994.179,-9.329c-31.45,11.175 -69.254,20.633 -113.779,22.646c-107.359,1.054 -213.25,3.029 -318.229,5.733c-0.225,-4.137 -0.667,-12.221 -0.892,-16.291c-297.279,25.166 -577.138,3.533 -874.083,35.229c10.708,1.787 4.595,5.366 2.529,8.104c-0.729,0.033 -1.434,0.067 -2.109,0.1c0.675,-0.033 1.38,-0.067 2.109,-0.1c-1.867,2.404 -0.554,4.158 17.987,3.454c-18.541,0.704 -19.854,-1.05 -17.987,-3.454c292.991,-14.996 567.296,-22.071 860.454,-26.717c-454.921,11.867 -892.8,36.875 -1358.92,52.779c-19.841,0.675 -59.6,2.03 -79.471,2.705c-80.091,-9.667 -159.804,-11.13 -239.25,-8.605c18.867,-21.158 -62.545,-59.633 96.821,-56.554c-0.196,-4.096 -0.587,-12.308 -0.783,-16.408c-159.954,-15.392 -222.213,-70.942 -64.088,-92.467c177.917,-22.162 417,-13.833 634.95,-30.037c158.663,-9.888 317.267,-20.063 476.446,-18.146c219.004,3.662 456.984,-10.383 676.171,-3.638c79.658,0.621 217.908,-17.975 258.308,-7.491c28.846,4.579 30.475,13.258 26.663,23.2c-130.583,4.541 -260.717,9.937 -389.483,13.708c-158.092,2.246 -316.225,3.779 -474.413,1.95c154.883,5.063 313.567,2.775 474.413,-1.95c128.575,-1.887 257.233,-3.775 385.837,-5.662c-4.221,8.591 -8.237,17.533 0.05,25.27c0,0 39.688,-1.833 59.533,-2.754c80.609,16.842 62.355,46.479 23.875,68.821c-9.887,4.638 -20.987,9.858 -33.4,15.138" style="fill:#a09b7e;fill-rule:nonzero;"/><path d="M144.583,762.648c9.8,0.171 19.608,0.346 29.317,0.517c179.521,-0.054 357.646,-16.2 556.662,-21c139.521,-0.896 297.834,-15.183 436.671,-23.833c-329.721,12.987 -675.229,38.704 -993.737,32.212c31.108,-11.891 68.629,-22.221 113.083,-25.254c107.308,-3.529 213.125,-7.937 318.004,-13.058c0.35,4.129 1.033,12.2 1.379,16.262c296.475,-31.996 576.938,-16.816 872.879,-55.333c-10.758,-1.538 -4.75,-5.258 -2.77,-8.042c0.733,-0.05 1.433,-0.1 2.108,-0.15c-0.675,0.05 -1.375,0.1 -2.108,0.15c1.795,-2.446 0.433,-4.166 -18.088,-3.037c18.521,-1.129 19.883,0.591 18.088,3.037c-292.492,21.734 -566.538,35.121 -859.509,46.513c454.492,-22.334 891.546,-57.413 1357.11,-84.038c19.816,-1.129 59.529,-3.4 79.375,-4.533c80.366,7.817 160.112,7.446 239.466,3.092c-18.229,21.583 64.325,58.162 -95.108,58.754c0.321,4.091 0.954,12.287 1.275,16.383c160.392,11.7 224.304,65.788 66.85,90.942c-177.221,26.25 -416.517,23.425 -633.946,44.641c-158.337,13.534 -316.608,27.359 -475.821,29.105c-219.079,1.379 -456.596,20.9 -675.95,19.2c-79.662,1.216 -217.333,22.987 -258.041,13.437c-28.975,-3.912 -30.863,-12.55 -27.35,-22.575c130.425,-7.542 260.375,-15.933 389.004,-22.667c158,-5.883 316.062,-11.058 474.279,-12.875c-155.008,-1.491 -313.596,4.446 -474.279,12.875c-128.492,4.846 -257.075,9.696 -385.6,14.542c3.962,-8.683 7.712,-17.712 -0.809,-25.254c0,-0 -39.625,2.746 -59.441,4.121c-81.096,-14.975 -63.738,-45.017 -25.934,-68.238c9.746,-4.858 20.688,-10.337 32.942,-15.896" style="fill:#a09b7e;fill-rule:nonzero;"/></g><g><path d="M720.054,362.185c-1.475,1.875 -2.862,3.662 -4.179,5.358c-2.462,3.458 -4.992,6.508 -7.587,9.138c-4.213,3.754 -8.542,5.783 -12.988,6.091c-1.012,0.075 -2.067,0.063 -3.171,-0.029c-5.616,-0.7 -10.321,-4.004 -14.108,-9.9c-4.708,-8.192 -7.342,-15.958 -7.888,-23.304c-0.558,-7.35 -0.866,-11.475 -0.933,-12.404c-0.892,-12.759 -0.667,-25.221 0.679,-37.388c1.538,-13.012 3.954,-22.462 7.259,-28.346c2.583,-4.062 4.929,-6.212 7.02,-6.445c2.092,-0.225 3.221,-0.346 3.392,-0.359c3.858,-0.271 7.271,0.888 10.238,3.459c2.425,2.112 3.77,5.012 4.029,8.708c0.071,1.008 0.058,2.062 -0.034,3.167c-0.579,5.02 -1.35,10.3 -2.308,15.85c-1.217,6.754 -2.129,13.02 -2.742,18.795c-0.604,5.788 -0.754,10.896 -0.445,15.35c0.112,1.596 0.258,3.146 0.45,4.65c0.55,3.088 1.108,4.671 1.662,4.763c0.558,0.079 0.875,0.125 0.958,0.117c0.838,-0.059 1.763,-0.713 2.771,-1.963c1.163,-1.517 2.388,-3.292 3.684,-5.321c0.608,-0.883 1.179,-1.766 1.708,-2.65c4.05,-6.104 7.175,-9.408 9.371,-9.891c2.204,-0.492 3.471,-0.755 3.808,-0.775c3.779,-0.267 7.471,2.437 11.071,8.087c2.479,4.046 5.067,7.346 7.783,9.896c2.704,2.558 5.025,3.762 6.959,3.629c0.412,-0.029 0.787,-0.092 1.12,-0.204c2.221,-0.833 3.48,-4.583 3.767,-11.275c0.017,-2.192 -0.054,-4.425 -0.212,-6.688c-0.317,-4.537 -0.975,-9.137 -1.971,-13.791c-0.946,-4.996 -1.575,-9.842 -1.904,-14.546l-0.121,-1.763c-0.371,-5.291 0.416,-10.283 2.371,-14.979c2.225,-4.366 5.52,-6.712 9.887,-7.012c4.367,-0.304 7.579,1.579 9.633,5.65c4.742,11.15 7.58,20.358 8.517,27.633c0.921,7.271 1.471,12.088 1.633,14.442c0.659,9.404 0.063,18.387 -1.787,26.954c-2.288,10.708 -6.779,19.546 -13.458,26.508c-4.596,4.367 -9.155,6.713 -13.688,7.029c-0.671,0.046 -1.387,0.055 -2.15,0.025c-5.258,-0.308 -10.275,-2.133 -15.062,-5.466c-4.788,-3.338 -9.134,-6.934 -13.034,-10.8" style="fill:#2d3d36;fill-rule:nonzero;"/><path d="M839.878,397.992c-5.258,-0.396 -9.258,-2.388 -12,-5.996c-2.737,-3.608 -4.262,-7.675 -4.579,-12.213l-11.458,-138.675c0.908,-7.483 3.021,-12.254 6.337,-14.3c3.321,-2.041 6.067,-3.15 8.25,-3.3c2.355,-0.162 4.75,0.346 7.2,1.525c4.625,2.288 7.621,7.1 8.975,14.434c1.088,8.275 2.155,18.704 3.205,31.287c0.67,7.3 1.275,13.542 1.808,18.738c6.092,-2.2 10.954,-3.571 14.583,-4.121c3.634,-0.55 5.959,-0.858 6.963,-0.929c5.037,-0.354 9.821,0.496 14.354,2.541c5.408,2.488 10.083,7.905 14.042,16.234c3.112,7.121 5.42,15.375 6.916,24.766c1.5,9.384 2.65,18.571 3.446,27.542c0.388,3.175 0.729,6.233 1.021,9.167l0.079,1.129c0.642,9.237 -1.004,15.896 -4.937,19.962c-3.055,3.334 -6.475,5.142 -10.255,5.405c-1.175,0.083 -2.408,-0 -3.687,-0.246c-5.292,-0.817 -9.392,-4.029 -12.321,-9.654c-1.192,-2.609 -2.15,-6.659 -2.871,-12.138c-0.716,-5.471 -1.379,-11.354 -1.991,-17.642c-0.605,-7.466 -1.338,-14.02 -2.196,-19.654c-0.854,-5.637 -2.071,-8.816 -3.638,-9.55c-0.6,-0.129 -1.15,-0.175 -1.658,-0.137c-2.6,0.183 -4.367,2.704 -5.292,7.579c-1.116,5.729 -1.833,12.996 -2.15,21.796c-0.241,7.354 -0.812,14.608 -1.704,21.758c-0.896,7.154 -2.533,12.963 -4.921,17.433c-2.391,4.467 -5.891,6.867 -10.508,7.188l-1.013,0.071Z" style="fill:#2d3d36;fill-rule:nonzero;"/><path d="M984.271,303.489c1.405,-2.883 2.638,-5.796 3.696,-8.742c1.529,-4.662 3.409,-8.504 5.646,-11.525c2.238,-3.029 5.542,-4.691 9.908,-4.996c0.588,-0.041 1.213,-0.045 1.896,-0.008c6.029,0.592 10.192,3.379 12.484,8.367c2.283,4.991 3.612,10 3.958,15.037l0.092,1.259c1.054,18.833 1.791,35.945 2.187,51.358c0.379,16.258 1.171,34.808 2.375,55.65c-0.125,8.025 -1.654,13.533 -4.612,16.525c-2.955,2.996 -5.859,4.587 -8.713,4.783l-1.008,0.071c-6.75,0.05 -11.55,-7.758 -14.421,-23.421c-1.696,-8.575 -2.808,-16.766 -3.354,-24.571l-0.117,-1.637c-0.417,-8.408 -0.658,-15.983 -0.704,-22.729c0.021,-5.738 -0.113,-10.671 -0.396,-14.784c-5.521,4.35 -10.467,6.98 -14.833,7.871c-4.363,0.892 -7.138,1.384 -8.309,1.463c-6.3,0.441 -12.129,-1.467 -17.487,-5.738c-4.529,-4.404 -7.742,-9.858 -9.625,-16.354c-1.888,-6.487 -3.029,-12.583 -3.429,-18.296c-0.125,-1.85 -0.217,-3.7 -0.267,-5.554c-0.108,-7.671 0.667,-14.137 2.321,-19.396c1.671,-5.096 3.746,-8.554 6.237,-10.375c2.492,-1.816 4.821,-2.808 7.013,-2.958c1.842,-0.129 3.883,0.15 6.125,0.837c4.504,1.625 7,3.5 7.483,5.617c0.488,2.121 0.771,3.725 0.842,4.813c0.171,2.437 0.021,5.15 -0.446,8.137c-0.65,3.921 -0.812,8.233 -0.487,12.942l0.15,2.137c1.058,6.675 2.041,10.242 2.962,10.684c0.917,0.437 1.542,0.645 1.879,0.625c1.171,-0.084 2.446,-1.225 3.809,-3.434c1.75,-2.733 3.504,-6.021 5.262,-9.858c0.667,-1.308 1.292,-2.579 1.883,-3.8" style="fill:#2d3d36;fill-rule:nonzero;"/><path d="M1171.54,252.061c5.067,0.075 10.088,0.625 15.055,1.667c4.962,1.045 8.862,2.825 11.695,5.329c2.838,2.5 4.384,5.641 4.646,9.421c0.067,0.92 0.05,1.937 -0.041,3.037c-0.659,5.108 -2.492,8.358 -5.517,9.75c-3.029,1.396 -6.513,2.229 -10.463,2.5l-0.754,0.054c-4.2,0.292 -8.421,1.2 -12.658,2.721c-4.238,1.525 -7.908,4.842 -11.013,9.946c-2.675,5.079 -3.908,9.212 -3.687,12.408c0.1,1.425 0.483,2.663 1.142,3.713c2.183,3.479 5.866,5.733 11.041,6.762c5.179,1.034 10.309,1.667 15.388,1.896c3.129,0.125 5.721,0.367 7.766,0.729c5.392,1.059 8.45,2.592 9.184,4.609c0.733,2.02 1.121,3.445 1.183,4.287c0.163,2.346 -0.467,4.763 -1.896,7.217c-1.875,3.337 -4.641,6.025 -8.3,8.046c-6.933,3.441 -14.05,5.412 -21.354,5.92c-3.7,0.259 -7.458,0.142 -11.292,-0.345c-11.154,-1.421 -19.891,-5.721 -26.212,-12.917c-6.329,-7.196 -9.833,-15.746 -10.529,-25.654c-0.238,-3.442 -0.192,-7.071 0.133,-10.892c0.908,-8.671 3.608,-16.808 8.1,-24.425c4.488,-7.612 9.883,-13.683 16.192,-18.221c6.304,-4.525 12.904,-7.037 19.791,-7.516c0.755,-0.055 1.555,-0.063 2.4,-0.042" style="fill:#2d3d36;fill-rule:nonzero;"/><path d="M1264.96,368.308c-5.263,-0.395 -9.263,-2.387 -12,-5.995c-2.742,-3.609 -4.267,-7.675 -4.583,-12.213l-11.459,-138.675c0.909,-7.483 3.025,-12.254 6.342,-14.3c3.317,-2.042 6.067,-3.15 8.25,-3.3c2.35,-0.162 4.75,0.346 7.196,1.525c4.629,2.288 7.621,7.1 8.979,14.433c1.083,8.275 2.15,18.705 3.2,31.288c0.675,7.3 1.279,13.542 1.812,18.737c6.088,-2.2 10.95,-3.57 14.584,-4.12c3.633,-0.55 5.954,-0.859 6.962,-0.93c5.038,-0.354 9.821,0.496 14.35,2.542c5.409,2.488 10.088,7.904 14.046,16.233c3.108,7.121 5.417,15.375 6.917,24.767c1.496,9.383 2.65,18.571 3.446,27.542c0.387,3.175 0.725,6.233 1.016,9.166l0.079,1.13c0.642,9.237 -1,15.895 -4.937,19.962c-3.054,3.333 -6.475,5.142 -10.25,5.404c-1.179,0.084 -2.408,0 -3.688,-0.246c-5.291,-0.816 -9.395,-4.029 -12.32,-9.654c-1.196,-2.608 -2.15,-6.658 -2.871,-12.137c-0.721,-5.471 -1.384,-11.354 -1.996,-17.642c-0.604,-7.467 -1.338,-14.021 -2.192,-19.654c-0.858,-5.638 -2.071,-8.817 -3.637,-9.55c-0.6,-0.129 -1.154,-0.175 -1.659,-0.138c-2.604,0.184 -4.37,2.705 -5.291,7.58c-1.117,5.729 -1.834,12.995 -2.154,21.795c-0.238,7.355 -0.813,14.609 -1.705,21.759c-0.891,7.154 -2.533,12.962 -4.916,17.433c-2.396,4.467 -5.892,6.867 -10.513,7.188l-1.008,0.07Z" style="fill:#2d3d36;fill-rule:nonzero;"/><path d="M1397.17,293.133l0.096,1.388c0.537,7.729 2.246,12.792 5.112,15.208c1.521,1.242 2.954,1.821 4.296,1.725c1.517,-0.104 2.921,-1.008 4.246,-2.7c2.333,-2.779 3.258,-7.65 2.771,-14.621c-0.075,-1.091 -0.192,-2.179 -0.354,-3.266c-1.313,-7.925 -2.85,-12.396 -4.605,-13.413c-1.758,-1.012 -3.058,-1.491 -3.895,-1.429c-1.596,0.108 -3.08,1.183 -4.459,3.217c-2.141,3.187 -3.208,7.821 -3.208,13.891m15.496,-40.95c10.512,1.967 18.237,6.846 23.166,14.646c4.934,7.8 7.721,16.275 8.359,25.429c0.071,1.005 0.1,2.013 0.087,3.034c0.213,10.362 -1.912,19.746 -6.391,28.158c-4.125,7.379 -8.792,12.429 -14,15.154c-5.213,2.725 -9.996,4.246 -14.363,4.55c-2.437,0.167 -4.887,0.046 -7.367,-0.375c-9.658,-1.771 -17.375,-6.187 -23.141,-13.258c-5.763,-7.063 -9.188,-13.488 -10.263,-19.279c-1.083,-5.784 -1.704,-9.771 -1.854,-11.959c-0.492,-7.054 0.258,-13.854 2.246,-20.408c2.596,-8.7 6.858,-15.112 12.771,-19.242c5.912,-4.129 12.225,-6.416 18.946,-6.891c3.608,-0.246 7.541,-0.1 11.804,0.441" style="fill:#2d3d36;fill-rule:nonzero;"/><path d="M1509.77,285.272l0.091,1.388c0.542,7.729 2.25,12.787 5.113,15.204c1.521,1.246 2.958,1.825 4.3,1.729c1.516,-0.104 2.921,-1.008 4.241,-2.704c2.338,-2.775 3.263,-7.646 2.775,-14.617c-0.075,-1.091 -0.191,-2.183 -0.354,-3.266c-1.316,-7.925 -2.85,-12.396 -4.608,-13.417c-1.758,-1.013 -3.054,-1.488 -3.896,-1.429c-1.596,0.112 -3.079,1.183 -4.458,3.216c-2.138,3.192 -3.209,7.821 -3.204,13.896m15.495,-40.95c10.513,1.967 18.234,6.846 23.171,14.646c4.929,7.8 7.717,16.271 8.354,25.425c0.071,1.004 0.1,2.013 0.088,3.038c0.212,10.358 -1.913,19.745 -6.392,28.154c-4.129,7.383 -8.796,12.429 -14,15.154c-5.212,2.729 -9.996,4.246 -14.366,4.55c-2.434,0.171 -4.888,0.05 -7.367,-0.371c-9.658,-1.775 -17.371,-6.187 -23.133,-13.258c-5.771,-7.063 -9.192,-13.488 -10.271,-19.284c-1.079,-5.779 -1.7,-9.766 -1.85,-11.954c-0.496,-7.054 0.254,-13.854 2.246,-20.408c2.595,-8.704 6.858,-15.113 12.766,-19.242c5.917,-4.129 12.229,-6.421 18.95,-6.891c3.609,-0.25 7.538,-0.105 11.804,0.441" style="fill:#2d3d36;fill-rule:nonzero;"/><path d="M1600.33,282.619c-8.229,-9.046 -12.638,-17.891 -13.246,-26.541c-0.067,-1.005 -0.096,-1.98 -0.071,-2.905c0.167,-9.629 3.354,-17.804 9.55,-24.525c6.196,-6.716 11.738,-10.458 16.617,-11.225c4.883,-0.762 7.746,-1.17 8.587,-1.229c7.975,-0.554 15.713,2.113 23.213,8c5.758,5.163 8.812,10.225 9.158,15.175c0.05,0.675 0.05,1.313 0.004,1.9c-0.371,5.596 -1.975,9.167 -4.816,10.713c-2.846,1.554 -5.025,2.379 -6.542,2.483c-3.104,0.217 -6.388,-0.9 -9.85,-3.362c-1.788,-1.475 -3.575,-2.555 -5.354,-3.234c-1.775,-0.675 -3.25,-0.975 -4.425,-0.896c-1.179,0.088 -2.329,0.467 -3.467,1.138c-2.412,1.683 -3.533,3.746 -3.362,6.179c0.104,1.508 0.725,3.154 1.862,4.933c3.096,4.509 7.45,9.434 13.054,14.784c5.7,5.421 10.417,10.783 14.159,16.1c3.05,5.016 4.741,9.875 5.07,14.579c0.284,4.029 -0.458,7.962 -2.212,11.8c-3.808,8.275 -11.038,13.508 -21.688,15.687c-1.17,0.167 -2.345,0.288 -3.516,0.367c-6.55,0.463 -12.4,-0.525 -17.546,-2.95c-6.108,-2.862 -10.125,-6.017 -12.05,-9.471c-1.933,-3.45 -2.967,-6.225 -3.113,-8.325c-0.183,-2.604 0.434,-5.221 1.855,-7.854c2.07,-2.929 4.533,-4.492 7.395,-4.692c0.417,-0.029 0.88,-0.016 1.392,0.03c3.475,0.266 6.825,1.041 10.033,2.341c1.905,0.709 3.325,1.154 4.275,1.342c0.938,0.192 1.58,0.271 1.913,0.246c0.754,-0.05 1.325,-0.346 1.708,-0.879c0.071,-0.175 0.1,-0.38 0.079,-0.634c-0.05,-0.758 -0.625,-1.812 -1.737,-3.175c-1.563,-1.825 -3.513,-3.825 -5.858,-5.983c-2.346,-2.154 -4.588,-4.125 -6.742,-5.917c-2.15,-1.791 -3.596,-3.125 -4.329,-4" style="fill:#2d3d36;fill-rule:nonzero;"/><path d="M1717.31,259.515c0.091,0.083 0.22,0.113 0.391,0.1c0.413,-0.025 0.988,-0.321 1.709,-0.879c0.879,-0.654 1.77,-1.558 2.658,-2.717c0.887,-1.162 1.433,-2.125 1.633,-2.9c0.2,-0.775 0.288,-1.329 0.267,-1.666c-0.042,-0.58 -0.329,-1.071 -0.863,-1.455c-0.35,-0.145 -0.695,-0.204 -1.025,-0.183c-0.845,0.063 -1.65,0.538 -2.433,1.442c-1.171,1.341 -1.992,2.646 -2.446,3.896c-0.466,1.262 -0.675,2.183 -0.637,2.766c0.05,0.671 0.3,1.209 0.746,1.596m36.879,35.138c4.55,1.037 7.058,2.591 7.541,4.666c0.48,2.079 0.746,3.409 0.788,4c0.217,3.104 -1.033,6.313 -3.763,9.621c-3.27,3.858 -8.85,6.738 -16.729,8.638c-2.754,0.529 -5.383,0.879 -7.904,1.058c-12.929,0.9 -24.042,-2.371 -33.337,-9.821c-10.555,-8.55 -16.367,-20.458 -17.43,-35.742l-0.187,-2.645c-0.017,-7.505 1.412,-15.075 4.3,-22.696c2.883,-7.634 6.875,-14.259 11.962,-19.888c5.092,-5.629 9.588,-8.875 13.496,-9.741c3.909,-0.859 6.367,-1.33 7.375,-1.396c5.788,-0.404 11.867,1.441 18.234,5.558c7.895,5.608 12.033,10.467 12.408,14.575c0.367,4.108 0.562,6.288 0.583,6.546c0.538,7.721 -1.546,15.333 -6.254,22.833c-4.946,7.771 -11.787,14.238 -20.542,19.409c-2.679,1.537 -3.97,2.975 -3.87,4.32c0.012,0.25 0.07,0.459 0.166,0.621c0.45,1.659 2.088,2.679 4.896,3.075c1.525,0.063 3.046,0.042 4.554,-0.062c2.771,-0.196 5.559,-0.684 8.379,-1.475c2.717,-0.867 5.509,-1.4 8.371,-1.6c2.263,-0.159 4.584,-0.104 6.963,0.146" style="fill:#2d3d36;fill-rule:nonzero;"/><path d="M856.643,585.52c-3.442,-11.904 -8.738,-17.617 -15.875,-17.117c-1.255,0.088 -2.584,0.392 -3.988,0.913c-3.529,1.342 -5.646,3.112 -6.333,5.317c-0.688,2.195 -0.988,3.975 -0.896,5.316c0.096,1.342 0.525,2.663 1.296,3.954c1.437,2.521 3.971,3.78 7.6,3.78l2.141,-0.155c3.446,-0.237 6.917,-0.654 10.417,-1.233c1.833,-0.3 3.713,-0.554 5.638,-0.775m1.858,32.021c-7.429,-0.071 -14.4,-0.175 -20.9,-0.317c-7.1,-0.175 -14.371,-0.3 -21.796,-0.375c0.4,0.904 0.892,1.963 1.488,3.188c1.437,3.779 3.454,7.816 6.033,12.108c2.579,4.292 5.033,6.863 7.371,7.713c2.341,0.85 4.054,1.237 5.146,1.158c3.016,-0.208 6.391,-2.133 10.104,-5.763c3.05,-3.425 5.862,-7.25 8.433,-11.475c1.296,-2.033 2.667,-4.116 4.121,-6.237m-72.404,7.079c-0.896,-4.408 -1.496,-8.671 -1.779,-12.787c-0.813,-11.584 0.683,-22.234 4.475,-31.95c5.066,-13.267 12.3,-23.513 21.712,-30.755c9.408,-7.237 19.063,-11.204 28.971,-11.895c1.596,-0.109 3.162,-0.134 4.683,-0.071c11.571,0.2 22.204,5.621 31.884,16.25c9.383,11.075 14.541,20.525 15.462,28.35c0.929,7.821 1.433,12.325 1.513,13.496c0.916,13.095 -1.155,25.775 -6.205,38.025c-5.483,13.291 -14.266,24.029 -26.354,32.216c-7.362,4.563 -14.608,7.092 -21.741,7.592c-3.192,0.221 -6.417,0.025 -9.663,-0.588c-10.262,-1.904 -19.233,-7.12 -26.908,-15.658c-7.688,-8.525 -13.038,-19.275 -16.05,-32.225" style="fill:#2d3d36;fill-rule:nonzero;"/><path d="M959.869,577.553c2.559,-3.296 6.317,-6.554 11.284,-9.775c4.962,-3.212 8.954,-4.946 11.975,-5.2c3.025,-0.254 4.654,-0.392 4.908,-0.404c5.712,-0.4 11.204,1.617 16.5,6.058c3.442,3.388 5.279,6.763 5.517,10.117l0.07,1.012c0,3.63 -1.12,6.388 -3.345,8.271c-2.234,1.888 -4.525,2.909 -6.88,3.071c-1.004,0.075 -2.066,0.021 -3.17,-0.154c-2.905,-0.475 -5.575,-0.621 -8.005,-0.454c-4.958,0.35 -8.837,2.133 -11.65,5.371c-4.129,4.925 -6.77,11.25 -7.916,18.966c-1.15,7.717 -1.825,15 -2.021,21.846c-0.038,1.858 -0.083,3.55 -0.146,5.075c-0.379,5.513 -1.646,10.033 -3.8,13.554c-2.162,3.529 -4.833,5.4 -8.025,5.625l-0.25,0.017c-9.433,0.321 -15.392,-6.479 -17.879,-20.4c-0.717,-4.167 -1.75,-11.121 -3.104,-20.85c-1.354,-9.733 -2.267,-17.333 -2.734,-22.783c-0.462,-5.45 -0.741,-8.805 -0.829,-10.063c-0.533,-7.642 -0.491,-13.133 0.121,-16.462c2.017,-6.138 4.533,-9.35 7.558,-9.646c3.009,-0.288 4.646,-0.45 4.896,-0.467c5.375,-0.375 9.634,1.979 12.775,7.083c1.084,2.2 2.042,4.538 2.892,7.009c0.417,1.154 0.837,2.35 1.258,3.583" style="fill:#2d3d36;fill-rule:nonzero;"/><path d="M1086.83,575.779c-7.859,2.4 -11.4,8.979 -10.65,19.721l0.158,2.271c0.325,3.442 0.696,5.204 1.129,5.3c0.425,0.096 0.684,0.146 0.767,0.137c0.921,-0.062 2.696,-1.287 5.317,-3.662c4.479,-3.521 7.037,-10.317 7.683,-20.404c0.05,-0.509 0.104,-0.938 0.171,-1.284c0.112,-0.762 0.154,-1.4 0.116,-1.904c-0.041,-0.587 -0.191,-0.954 -0.454,-1.104c-0.179,-0.075 -0.391,-0.1 -0.646,-0.083c-0.75,0.054 -1.95,0.391 -3.591,1.012m13.746,48.271c-7.088,4.888 -12.955,7.846 -17.609,8.888c-4.654,1.041 -7.858,1.62 -9.625,1.75c-5.371,0.375 -10.383,-0.709 -15.033,-3.259c-5.967,-3.296 -10.154,-10.129 -12.567,-20.508c-0.516,-2.583 -0.866,-5.133 -1.041,-7.65c-0.575,-8.229 0.541,-16.45 3.341,-24.658c3.55,-10.796 8.788,-18.546 15.721,-23.242c6.917,-4.704 13.613,-7.288 20.079,-7.742c4.871,-0.337 10.225,0.175 16.063,1.542c8.346,2.371 14.521,6.262 18.529,11.675c4.008,5.421 6.458,12.15 7.362,20.187c1.855,13.284 3.584,24.763 5.188,34.438c1.5,9.35 3.112,20.412 4.854,33.2c0.233,2.267 0.433,4.483 0.588,6.671c0.962,13.766 -0.509,25.35 -4.409,34.737c-4.641,10.863 -10.979,18.904 -19.012,24.104c-8.034,5.2 -16.246,8.096 -24.646,8.684l-1.383,0.096c-9.005,0.375 -16.834,-1.53 -23.496,-5.705c-6.663,-4.175 -10.704,-10.387 -12.125,-18.641l-0.084,-1.259c-0.337,-4.791 0.78,-8.116 3.355,-9.983c1.208,-0.842 2.566,-1.312 4.075,-1.421c2.1,-0.146 4.491,0.359 7.195,1.525c6.705,2.988 12.7,4.3 17.992,3.929c3.025,-0.212 5.842,-0.958 8.45,-2.233c7.096,-3.533 11.179,-10.904 12.254,-22.121c0.284,-4.404 0.313,-8.125 0.1,-11.146l-0.075,-1.133c-0.391,-3.179 -0.9,-6.262 -1.533,-9.258c-0.954,-3.984 -1.679,-9.625 -2.192,-16.929l-0.316,-4.538Z" style="fill:#2d3d36;fill-rule:nonzero;"/><path d="M1214.43,578.001c-0.45,-0.388 -0.971,-0.567 -1.554,-0.525c-0.929,0.067 -1.984,0.692 -3.163,1.871c-1.904,1.733 -3.725,4.054 -5.462,6.958c-1.738,2.908 -2.821,5.179 -3.263,6.813c-0.429,1.637 -0.625,2.745 -0.583,3.333c0.067,1.008 0.529,1.571 1.379,1.671l0.504,-0.034c2.517,-0.179 4.917,-1.525 7.188,-4.041c2.429,-2.709 4.058,-5.288 4.896,-7.75c0.841,-2.467 1.22,-4.284 1.137,-5.459c-0.083,-1.175 -0.442,-2.12 -1.079,-2.837m12.108,32.062l-1.908,1.65c-4.829,4.563 -9.438,8.005 -13.829,10.334c-4.4,2.337 -8.354,3.621 -11.888,3.866c-3.187,0.225 -6.629,-0.12 -10.325,-1.045c-9.308,-2.813 -14.775,-6.517 -16.408,-11.134c-1.629,-4.608 -2.533,-8.216 -2.717,-10.821c-0.337,-4.866 0.434,-10.108 2.325,-15.729c2.942,-8.562 7.659,-16.816 14.146,-24.787c6.492,-7.959 13.908,-14.384 22.263,-19.271c2.991,-1.808 5.804,-2.933 8.433,-3.371c2.625,-0.433 4.233,-0.675 4.825,-0.717c4.029,-0.279 7.833,0.467 11.421,2.242c4.021,1.996 6.633,6.204 7.841,12.613l16.967,67.158c0.142,0.837 0.238,1.629 0.292,2.387c0.246,3.525 -0.659,6.334 -2.7,8.413c-2.054,2.092 -4.463,3.221 -7.234,3.417c-0.587,0.041 -1.22,0.045 -1.895,0.004c-3.646,-0.163 -6.775,-2.1 -9.396,-5.796c-2.559,-4.042 -4.884,-8.346 -6.975,-12.929c-1.075,-2.117 -2.154,-4.279 -3.238,-6.484" style="fill:#2d3d36;fill-rule:nonzero;"/><path d="M1337.25,591.449c-2.946,6.196 -5.267,12.812 -6.967,19.854c-1.617,7.117 -3.725,13.088 -6.342,17.908c-2.62,4.825 -6.695,7.43 -12.241,7.817l-1.259,0.088c-3.637,-0.088 -6.912,-1.35 -9.82,-3.813c-2.913,-2.454 -4.83,-5.967 -5.734,-10.542c-3.033,-16.754 -5.637,-33.57 -7.829,-50.466c-0.642,-4.338 -1.279,-8.642 -1.917,-12.896l-0.033,-0.504c-0.129,-1.85 0.146,-4.017 0.813,-6.513c0.816,-2.754 2.275,-5.225 4.354,-7.391c2.087,-2.167 4.929,-3.388 8.541,-3.638l0.505,-0.033c5.658,0.029 9.541,2.183 11.654,6.466c2.112,4.28 3.662,9.296 4.658,15.055c0.396,2.079 0.838,4.07 1.304,5.979c2.4,-1.854 4.679,-3.7 6.829,-5.538c4.534,-3.946 9.138,-7.475 13.813,-10.583c5.829,-3.613 11.212,-5.596 16.162,-5.942c2.859,-0.196 5.538,0.125 8.046,0.963c7.079,2.287 12.063,8.437 14.959,18.441c3.52,15.45 5.887,31.188 7.091,47.221c0.363,3.942 0.763,7.921 1.213,11.942c0.241,4.708 -1.013,8.217 -3.759,10.512c-2.754,2.3 -5.558,3.555 -8.408,3.755c-1.175,0.079 -2.362,0.037 -3.554,-0.138c-4.258,-0.629 -7.717,-3.592 -10.363,-8.887c-2.608,-5.9 -4.525,-12.492 -5.75,-19.788c-1.225,-7.3 -2.22,-14.592 -2.983,-21.879l-0.058,-0.883c-0.688,-5.013 -1.438,-7.555 -2.246,-7.625c-0.804,-0.071 -1.296,-0.105 -1.463,-0.092c-1.341,0.096 -2.779,1.204 -4.32,3.342c-1.775,2.4 -3.409,5.004 -4.896,7.808" style="fill:#2d3d36;fill-rule:nonzero;"/><path d="M1450.26,611.147c-1.308,5.408 -3.412,8.846 -6.304,10.312c-2.896,1.471 -5.35,2.275 -7.366,2.417c-1.763,0.121 -3.55,-0.133 -5.367,-0.767c-3.792,-1.166 -6.421,-3.766 -7.888,-7.804c-2.762,-9.337 -4.433,-16.733 -5.029,-22.175c-0.591,-5.442 -1.004,-9.929 -1.254,-13.458c-0.375,-5.371 -0.612,-11.175 -0.708,-17.413l-0.254,-3.654c0.07,-8.525 1.937,-14.167 5.591,-16.904c3.642,-2.746 6.934,-4.225 9.879,-4.425c1.842,-0.133 3.717,0.121 5.617,0.746c5.008,1.675 8.129,5.762 9.338,12.262c0.279,2.842 0.72,7.667 1.325,14.454c0.6,6.796 1.058,12.421 1.366,16.867l0.796,13.233c0.533,8.825 0.617,14.263 0.258,16.309m-6.445,-104.975c0.041,10.291 -1.8,16.533 -5.53,18.737c-3.729,2.2 -6.808,3.384 -9.241,3.554c-2.85,0.2 -5.775,-0.483 -8.75,-2.045c-5.346,-2.834 -8.363,-8.025 -9.059,-15.567c0.213,-7.867 2.375,-13.367 6.5,-16.529c4.13,-3.159 7.825,-4.85 11.1,-5.079c2.017,-0.142 4.013,0.104 6,0.72c5.267,1.742 8.259,7.146 8.98,16.209" style="fill:#2d3d36;fill-rule:nonzero;"/><path d="M1533.36,516.241c5.071,0.075 10.087,0.625 15.054,1.671c4.967,1.046 8.867,2.825 11.704,5.321c2.829,2.508 4.375,5.646 4.638,9.421c0.066,0.925 0.05,1.942 -0.042,3.046c-0.654,5.108 -2.492,8.358 -5.517,9.75c-3.025,1.391 -6.512,2.225 -10.462,2.5l-0.75,0.054c-4.204,0.292 -8.417,1.2 -12.659,2.721c-4.241,1.521 -7.912,4.833 -11.016,9.941c-2.675,5.08 -3.909,9.217 -3.688,12.409c0.1,1.425 0.484,2.666 1.15,3.716c2.179,3.48 5.859,5.73 11.034,6.759c5.179,1.037 10.308,1.671 15.387,1.9c3.129,0.121 5.725,0.362 7.775,0.725c5.383,1.062 8.446,2.596 9.175,4.612c0.738,2.017 1.129,3.446 1.188,4.284c0.162,2.35 -0.467,4.762 -1.9,7.22c-1.871,3.338 -4.642,6.017 -8.296,8.042c-6.934,3.446 -14.054,5.417 -21.354,5.925c-3.7,0.258 -7.459,0.142 -11.292,-0.354c-11.154,-1.413 -19.892,-5.713 -26.217,-12.913c-6.325,-7.191 -9.833,-15.741 -10.529,-25.65c-0.237,-3.441 -0.192,-7.075 0.133,-10.895c0.909,-8.667 3.613,-16.809 8.1,-24.425c4.488,-7.609 9.888,-13.684 16.196,-18.217c6.304,-4.529 12.9,-7.038 19.792,-7.517c0.75,-0.054 1.554,-0.071 2.396,-0.046" style="fill:#2d3d36;fill-rule:nonzero;"/><path d="M1648.36,591.62c3.946,-0.192 7.28,0.908 9.975,3.291c2.7,2.384 4.18,5.509 4.45,9.375c0.134,4.375 -1.3,8.338 -4.295,11.88c-3,3.541 -6.592,5.583 -10.775,6.133c-4.038,0.196 -7.534,-1.021 -10.505,-3.638c-2.97,-2.62 -4.583,-5.858 -4.858,-9.725l-0.025,-0.379c-0.037,-4.208 1.513,-7.991 4.654,-11.329c3.138,-3.342 6.929,-5.212 11.379,-5.608m25.775,-85.842c-5.55,12.375 -9.262,22.083 -11.129,29.133c-1.875,7.05 -3.012,12.53 -3.416,16.434c-0.409,3.746 -1.192,7.091 -2.334,10.037c-2.358,4.892 -4.716,7.654 -7.075,8.279c-2.362,0.63 -4.046,0.98 -5.05,1.046c-2.608,0.184 -5.091,-0.354 -7.458,-1.625c-3.246,-1.712 -5.371,-4.354 -6.379,-7.912c-0.525,-2.746 -0.888,-5.459 -1.075,-8.15c-0.5,-7.138 0.196,-14.142 2.079,-21.029c2.712,-9.471 5.937,-18.3 9.667,-26.496c3.575,-8.009 5.779,-13.925 6.608,-17.738c0.829,-3.808 1.192,-6.475 1.087,-7.987c-0.258,-3.688 -1.941,-6.65 -5.05,-8.884c-2.554,-1.508 -4.962,-2.187 -7.233,-2.029c-1.175,0.084 -2.325,0.417 -3.471,1.004c-3.166,1.742 -6.25,4.15 -9.241,7.23c-2.817,3.062 -5.35,5.229 -7.584,6.47c-2.233,1.259 -4.062,1.93 -5.491,2.03c-2.013,0.141 -4.205,-0.417 -6.567,-1.688c-3.988,-2.675 -6.117,-5.983 -6.396,-9.929c-0.125,-1.85 0.154,-3.896 0.846,-6.138c2.208,-6.904 6.987,-12.825 14.321,-17.766c7.329,-4.946 15.325,-7.717 23.975,-8.325c2.183,-0.15 4.371,-0.179 6.571,-0.075c10.629,1.112 18.795,5.096 24.508,11.958c5.704,6.854 8.796,12.754 9.271,17.7c0.471,4.946 0.716,7.592 0.741,7.921c0.642,9.158 -0.937,18.004 -4.725,26.529" style="fill:#2d3d36;fill-rule:nonzero;"/></g></g></svg>