<?xml version="1.0" encoding="UTF-8"?>
<svg width="20" height="20" viewBox="0 0 126 125" fill="none" xmlns="http://www.w3.org/2000/svg">
    <path d="M0.849892 66.2443C0.849892 63.8141 0.849892 61.384 0.849892 58.9538C0.922592 58.5657 1.03579 58.1802 1.06189 57.789C1.43569 52.1821 2.60979 46.7382 4.52339 41.4666C15.4027 11.4959 47.0099 -5.3921 78.0024 2.1802C109.975 9.9921 130.469 41.9742 124.201 74.2672C121.797 86.6494 116.184 97.3598 107.316 106.31C98.0187 115.695 86.8469 121.604 73.7958 123.853C71.4511 124.257 69.078 124.496 66.718 124.811H59.4263C57.7846 124.615 56.1387 124.449 54.502 124.218C42.233 122.485 31.3857 117.585 22.1003 109.386C11.1639 99.7294 4.32279 87.7132 1.80629 73.3041C1.39809 70.9665 1.16429 68.5983 0.849892 66.2443ZM21.5695 98.3779C25.6339 84.0271 34.5945 74.2311 48.3014 68.6713C33.8715 58.3112 34.214 39.6989 43.6545 29.4371C53.3592 18.8881 69.7517 17.8665 80.2795 27.2912C85.9755 32.3904 89.0948 38.7691 89.2095 46.3997C89.3492 55.6973 85.3652 63.0632 77.7786 68.6832C84.4951 71.2311 90.1389 75.0439 94.8231 80.247C99.525 85.4697 102.709 91.521 104.531 98.3791C121.022 80.1035 124.341 47.9035 103.32 25.3336C81.9472 2.3852 46.8052 1.6195 24.5359 23.5543C2.42359 45.3345 3.96029 78.4939 21.5695 98.3779ZM64.0326 117.524C65.2742 117.422 67.5403 117.306 69.7884 117.04C80.2253 115.8 89.4852 111.76 97.6411 105.169C97.9527 104.917 98.1632 104.296 98.1156 103.882C97.7151 100.399 96.689 97.0849 95.2062 93.914C89.3534 81.3976 76.9521 73.356 62.9092 73.4116C55.3695 73.4415 48.4658 75.6779 42.3812 80.149C34.2606 86.1161 29.4174 94.1163 27.9811 104.119C27.9341 104.447 28.2097 104.95 28.4916 105.177C38.5666 113.281 50.0925 117.349 64.0326 117.524ZM63.0983 65.8611C73.4984 65.8273 81.9432 57.4016 81.9815 47.0206C82.0197 36.6513 73.4416 28.0772 63.0465 28.0947C52.6411 28.1121 44.0593 36.7371 44.1637 47.0725C44.2689 57.4897 52.7393 65.8948 63.0983 65.8611Z" fill="#F8EDD2"/>
</svg>

