<svg width="182" height="181" viewBox="0 0 182 181" fill="none" xmlns="http://www.w3.org/2000/svg">
    <path d="M179.796 90.5984C179.796 139.557 140.107 179.247 91.1473 179.247C42.1885 179.247 2.49947 139.557 2.49947 90.5984C2.49947 41.64 42.1885 1.95067 91.1473 1.95067C140.107 1.95067 179.796 41.64 179.796 90.5984Z" fill="#2D3E37"/>
    <path d="M91.1473 3.48269C43.1125 3.48269 4.03281 42.564 4.03281 90.5989C4.03281 138.633 43.1125 177.714 91.1473 177.714C139.183 177.714 178.263 138.633 178.263 90.5989C178.263 42.564 139.183 3.48269 91.1473 3.48269ZM91.1473 180.78C41.4213 180.78 0.966675 140.325 0.966675 90.5989C0.966675 40.872 41.4213 0.417358 91.1473 0.417358C140.873 0.417358 181.328 40.872 181.328 90.5989C181.328 140.325 140.873 180.78 91.1473 180.78Z" fill="#9B9974"/>
    <path d="M123.693 84.248C116.941 83.756 110.66 81.6253 104.948 77.8893C97.644 73.112 93.2391 66.9707 91.5921 59.2667C91.0973 56.9533 91.1303 53.7693 91.6697 51.7173C92.6464 48.0027 95.0347 44.54 98.0187 42.516C101.821 39.936 107.444 38.7067 111.256 39.62C115.859 40.724 119.493 44.5107 120.849 49.6133C121.279 51.2293 121.217 53.4707 120.701 55.06C120.48 55.7413 120.277 56.3 120.251 56.3C120.224 56.3 120.235 55.5387 120.276 54.6093C120.36 52.6933 120.156 51.62 119.404 50.0053C118.084 47.1733 115.713 45.056 112.725 44.0387C111.167 43.5067 108.387 43.3707 106.64 43.74C103.579 44.3867 100.319 46.7587 98.6667 49.5373C97.3373 51.776 96.7867 54.1853 96.9173 57.2013C97.2333 64.48 101.947 71.432 110.309 76.9547C115.588 80.44 121.517 82.636 128.335 83.632C129.481 83.8 130.448 83.964 130.481 83.9973C130.719 84.2347 125.927 84.4107 123.693 84.248Z" fill="#F8EDD2"/>
    <path d="M116.363 55.1734C116.56 50.7147 114.607 47.5867 110.341 45.5307L109.269 45.0147L110.353 45.0987C113.997 45.3813 117.593 48.3734 118.215 51.6414C118.513 53.216 118.041 54.7947 116.861 56.1627L116.289 56.8253L116.363 55.1734Z" fill="#F8EDD2"/>
    <path d="M71.4823 53.084C75.4959 51.94 77.2287 50.9427 83.8027 45.996C89.1255 41.9893 91.5156 40.5453 94.9213 39.2787C97.8747 38.1813 102.596 37.48 105.217 37.752L106.415 37.876L105.287 37.9867C102.068 38.3053 98.9133 39.2613 95.4467 40.9667C92.5084 42.412 89.8011 44.184 86.4203 46.8733C85.0093 47.996 83.2855 49.2973 82.5891 49.7653C79.3516 51.9387 75.5527 53.2013 71.7073 53.3787L70.2052 53.448L71.4823 53.084Z" fill="#F8EDD2"/>
    <path d="M57.4303 51.7213C52.2391 50.928 45.1557 48.1973 38.7281 44.5133C35.6443 42.7453 35.4839 42.448 38.2844 43.6907C43.7235 46.1053 49.4697 47.3853 55.5563 47.5387C61.5063 47.6893 65.8255 46.872 70.3552 44.74C72.5052 43.7267 74.2213 42.6213 77.2839 40.2733C83.7579 35.312 86.5421 33.636 90.714 32.1867C97.7253 29.752 105.571 30.1667 112.124 33.3187C116.164 35.26 119.36 38.3507 121.211 42.1013C122.317 44.3453 122.843 46.176 123.1 48.696C123.227 49.9253 122.996 49.9573 122.711 48.7493C122.213 46.6387 120.997 43.8493 119.819 42.1133C118.932 40.8067 117.155 39.0107 115.871 38.1227C112.791 35.9933 109.52 35.1147 104.687 35.1187C98.424 35.1213 93.416 36.256 88.0844 38.8747C85.5177 40.136 84.0484 41.0813 80.2224 43.9333C74.914 47.8893 72.3803 49.3747 68.888 50.5733C66.1959 51.4987 64.3401 51.8187 61.3407 51.8787C59.6781 51.9107 58.3131 51.856 57.4303 51.7213Z" fill="#F8EDD2"/>
    <path d="M125.033 46.3827C125.145 43.0453 126.119 40.5853 128.125 38.568C130.533 36.1453 133.385 35.268 138.864 35.2627C141.079 35.26 141.32 35.2333 141.867 34.924C142.548 34.5373 143.255 33.6053 143.389 32.9147C143.557 32.052 143.024 31.7547 140.628 31.3787C139.208 31.156 138.073 30.6693 136.159 29.46C133.413 27.7267 130.943 27.1813 129.445 27.9787C129.057 28.184 128.593 28.3533 128.415 28.3533C128.235 28.3533 127.684 28.084 127.191 27.7533C126.069 27.0053 124.965 26.6613 124.103 26.7907C123.379 26.8987 122.517 27.4147 122.447 27.78C122.421 27.9133 122.739 28.3613 123.152 28.7747C124.063 29.6853 125.1 30.092 126.155 29.9507C126.536 29.8987 126.984 29.84 127.149 29.8187C127.643 29.756 127.515 31.3067 126.928 32.4987C125.376 35.6493 121.313 36.392 117.157 34.2827C116.62 34.0093 116.045 33.6787 115.88 33.5453C115.595 33.3173 115.611 33.3093 116.181 33.3987C116.511 33.4507 117.052 33.5547 117.383 33.6293C117.713 33.704 118.761 33.8053 119.712 33.8547C122.3 33.9907 124.035 33.504 125.32 32.2813C125.825 31.8027 126.323 31.0867 126.323 30.84C126.323 30.7947 125.932 30.7573 125.453 30.7573C123.545 30.7573 122.103 30.048 121.352 28.736C120.737 27.6653 120.772 27.256 121.525 26.7107C123.371 25.3733 126.115 25.404 127.919 26.7813C128.529 27.2453 128.569 27.244 129.395 26.7213C131.448 25.4187 133.98 25.7747 137.144 27.8107C138.009 28.3667 139.221 29.0627 139.837 29.356C140.92 29.872 143.441 30.6067 144.124 30.6067C144.307 30.6067 144.671 30.6813 144.931 30.772C145.335 30.9133 145.404 31.0107 145.404 31.4413C145.404 33.0373 144.615 34.9 143.616 35.6627C142.731 36.3387 142.027 36.52 138.151 37.0653C133.751 37.6853 132.079 38.2253 130.004 39.696C127.745 41.2987 126.455 43.2973 125.396 46.8347L124.969 48.2613L125.033 46.3827Z" fill="#F8EDD2"/>
    <path d="M42.4781 78.2267C38.814 77.852 36.5229 76.5267 36.3172 74.6627C36.2188 73.768 36.4364 73.228 37.25 72.7747C38.112 72.2947 39.0312 72.276 39.9995 72.56L40.7036 72.768L39.7973 72.7147C39.0511 72.6693 38.7755 72.7027 38.2355 72.9C37.9167 73.016 37.6125 73.1667 37.412 73.4187C37.214 73.6667 37.1172 74.0133 37.2073 74.524C37.2979 75.0387 37.4417 75.3213 37.6151 75.512C37.7964 75.7093 38.0104 75.9293 38.2328 76.0867C39.4161 76.9253 40.9469 77.248 44.4604 77.2573C46.2959 77.2613 47.8745 76.7467 48.7145 76.528C50.8875 75.8227 51.7672 74.6787 51.7547 73.3947C51.7437 72.2187 51.1031 71.468 48.4307 69.496C45.664 67.4547 44.4489 66.1667 43.924 64.7187C43.3115 63.028 43.9568 61.3413 45.7208 60.02C47.8973 58.3893 50.3584 57.696 53.9724 57.696C56.714 57.696 58.2172 57.9973 59.5755 58.816C60.5541 59.4053 61.0333 60.396 60.5667 60.8653C60.45 60.9827 60.4099 60.9267 60.4084 60.6453C60.4036 60.024 59.8417 59.612 58.3115 59.1107C57.6807 58.904 57.3344 58.828 56.9396 58.76C56.5557 58.6947 56.124 58.636 55.45 58.6133C53.5401 58.548 52.1568 58.748 50.7421 59.2947C48.3349 60.224 47.6448 61.4027 48.5193 63.092C48.9448 63.9133 49.7869 64.6813 52.0573 66.3147C55.3084 68.6547 56.5625 70.236 56.5697 72.0053C56.576 73.3707 55.9489 74.5227 54.6547 75.5267C53.0557 76.768 50.9797 77.6213 48.5697 78.0267C47.0979 78.2747 43.9563 78.3787 42.4781 78.2267Z" fill="#F8EDD2"/>
    <path d="M62.3203 78.28C60.3412 77.9973 59.2541 76.776 59.9568 75.624L60.2131 75.2027L60.1245 75.712C59.9588 76.664 61.0084 77.3067 62.7251 77.308C63.9943 77.3093 64.6229 77.1013 65.9421 76.244C67.3031 75.36 70.7437 72 72.7317 69.6147L73.3787 68.8387L71.7849 65.764C69.6912 61.7267 69.1197 60.8853 67.9953 60.1787C66.9568 59.5267 65.9937 59.2933 63.8765 59.1787L62.4068 59.1L63.6989 58.8187C68.5677 57.7587 70.6125 57.5787 71.6573 58.12C72.2948 58.4507 73.2224 59.46 73.6604 60.3013C74.9265 62.732 76.1271 64.964 76.2516 65.1187C76.3579 65.2507 76.7667 64.84 77.788 63.5733C79.924 60.9253 81.2568 59.692 83.0547 58.7013C84.9369 57.664 86.7989 57.424 88.4645 58.004C88.9495 58.172 89.4693 58.4413 89.6197 58.6027L89.8937 58.8933L89.2724 58.6C88.3984 58.1853 87.6615 58.116 86.6401 58.3533C85.1323 58.7027 83.5557 59.6133 82.1473 60.9453C81.4271 61.6267 79.0355 64.524 79.0355 64.7147C79.0355 64.752 78.6427 65.2867 78.1625 65.9027C77.5021 66.7493 77.3125 67.1027 77.3839 67.3574C77.5516 67.9507 79.6849 71.584 80.7812 73.1413C82.024 74.9067 82.8349 75.5507 84.5921 76.164C86.2631 76.748 86.964 76.7933 88.6167 76.4267C89.3651 76.2613 90.1136 76.088 90.2792 76.0427C90.4864 75.9853 90.5807 76.0173 90.5807 76.1427C90.5807 76.3933 87.062 77.5947 85.4193 77.9053C80.2797 78.88 78.5959 77.9453 75.2631 72.2667L74.2677 70.5707L72.8453 72.2027C70.9875 74.332 69.7339 75.48 68.0079 76.632C65.9984 77.972 64.0719 78.5307 62.3203 78.28Z" fill="#F8EDD2"/>
    <path d="M47.4672 152.211C46.676 151.376 46.2807 150.19 46.2807 148.651C46.2807 147.641 46.4536 146.773 46.8016 146.049C47.1469 145.323 47.636 144.775 48.2631 144.402C48.8921 144.025 49.6183 143.84 50.4459 143.84C50.9464 143.84 51.4521 143.985 51.9615 144.275C52.1541 144.381 52.3473 144.52 52.5407 144.697C52.6912 144.469 52.8437 144.29 53.0021 144.156C53.1599 144.043 53.2484 143.98 53.2667 143.972H53.5959V146.476H53.0683C52.9541 146.055 52.7833 145.672 52.5552 145.329C52.3437 144.995 52.0823 144.719 51.7697 144.498C51.4573 144.28 51.1005 144.169 50.6959 144.169C50.0891 144.169 49.5855 144.52 49.1864 145.225C48.7875 145.928 48.5869 147.069 48.5869 148.651C48.5869 150.26 48.8036 151.409 49.2396 152.098C49.6735 152.788 50.2693 153.132 51.0251 153.132C51.4391 153.132 51.8307 153.016 52.2057 152.783C52.5792 152.551 52.8807 152.24 53.114 151.855C53.3479 151.468 53.4636 151.06 53.4636 150.628H53.7927C53.7927 151.129 53.6584 151.596 53.3917 152.032C53.1235 152.467 52.7593 152.814 52.2979 153.073C51.836 153.332 51.3229 153.463 50.7625 153.463C49.3557 153.463 48.2579 153.045 47.4672 152.211Z" fill="#F8EDD2"/>
    <path d="M58.0645 149.903C58.2136 149.893 58.3713 149.872 58.5391 149.837C58.5479 149.793 58.5683 149.697 58.6052 149.548C58.6473 149.328 58.6693 149.096 58.6693 148.849C58.6693 148.119 58.574 147.586 58.3807 147.248C58.1875 146.909 57.9541 146.74 57.6817 146.74C57.0219 146.74 56.6927 147.816 56.6927 149.969C57.2552 149.969 57.7131 149.947 58.0645 149.903ZM55.3891 152.532C54.7636 151.914 54.4531 151.06 54.4531 149.969C54.4531 149.257 54.5891 148.637 54.8615 148.111C55.1333 147.584 55.514 147.18 56.0011 146.898C56.4885 146.617 57.0495 146.476 57.6817 146.476C58.3145 146.476 58.8697 146.595 59.35 146.832C59.8281 147.069 60.1973 147.388 60.4568 147.788C60.7161 148.188 60.8448 148.629 60.8448 149.112C60.8448 149.333 60.8229 149.52 60.7787 149.679L60.714 149.903C60.3355 149.983 59.9271 150.048 59.4875 150.102C58.5645 150.232 57.6344 150.298 56.6927 150.298C56.6927 151.319 56.8344 152.045 57.1156 152.481C57.3969 152.915 57.7833 153.132 58.274 153.132C58.6183 153.132 58.936 153.051 59.2303 152.89C59.5245 152.725 59.7584 152.51 59.9292 152.243C60.1 151.976 60.1864 151.7 60.1864 151.419H60.5156C60.5156 151.772 60.4109 152.104 60.1995 152.42C59.988 152.737 59.6937 152.991 59.3167 153.179C58.938 153.368 58.5041 153.463 58.0115 153.463C56.886 153.463 56.0125 153.152 55.3891 152.532Z" fill="#F8EDD2"/>
    <path d="M61.5052 153.065L62.2959 152.869V147.069L61.5052 146.872V146.673H62.6912C63.2099 146.673 63.6177 146.841 63.9156 147.175C64.0317 147.307 64.1271 147.471 64.2063 147.663C64.3385 147.471 64.5005 147.293 64.6937 147.136C65.1333 146.784 65.626 146.608 66.1703 146.608C66.6355 146.608 66.9849 146.716 67.2183 146.932C67.4521 147.147 67.5677 147.456 67.5677 147.86C67.5677 148.16 67.4776 148.398 67.2973 148.579C67.1172 148.759 66.8781 148.849 66.5787 148.849C66.4552 148.849 66.3339 148.84 66.2109 148.821L66.0527 148.783V146.937C65.6036 146.937 65.1959 147.114 64.826 147.465C64.6495 147.641 64.5099 147.816 64.4047 147.992V152.869L65.1959 153.065V153.264H61.5052V153.065Z" fill="#F8EDD2"/>
    <path d="M69.7489 153.145C69.3224 152.936 68.9948 152.645 68.7667 152.275C68.5369 151.908 68.4229 151.49 68.4229 151.023V147.003H67.5016V146.673H68.4229V146.016C68.4229 145.225 68.8183 144.828 69.6088 144.828H70.5323V146.673H72.3787V147.003H70.5323V151.023C70.5323 151.832 70.6167 152.385 70.7823 152.685C70.9495 152.983 71.1959 153.132 71.5213 153.132C71.8375 153.132 72.1136 152.98 72.3511 152.671C72.588 152.364 72.7079 151.947 72.7079 151.419H73.0364C73.0364 152.069 72.8751 152.573 72.5495 152.928C72.224 153.285 71.7937 153.463 71.2568 153.463C70.6776 153.463 70.1735 153.356 69.7489 153.145Z" fill="#F8EDD2"/>
    <path d="M78.114 146.279V152.671L79.1677 153.065V153.264H76.6631V153.065L77.7167 152.671V144.498L76.7953 144.236V144.037H78.1781C78.6453 144.037 79.0093 144.121 79.2724 144.29C79.5369 144.455 79.7869 144.679 80.0245 144.96L84.2427 149.903V144.631L83.1875 144.236V144.037H85.6921V144.236L84.638 144.631V153.463H84.2427L78.114 146.279Z" fill="#F8EDD2"/>
    <path d="M90.6016 152.461C90.8427 151.968 90.964 151.139 90.964 149.969C90.964 148.802 90.8427 147.971 90.6016 147.477C90.3609 146.986 90.0631 146.74 89.712 146.74C89.3604 146.74 89.0645 146.986 88.8219 147.477C88.5807 147.971 88.4593 148.802 88.4593 149.969C88.4593 151.139 88.5807 151.968 88.8219 152.461C89.0645 152.952 89.3604 153.198 89.712 153.198C90.0631 153.198 90.3609 152.952 90.6016 152.461ZM87.1484 152.532C86.5287 151.914 86.2197 151.06 86.2197 149.969C86.2197 148.88 86.5287 148.025 87.1484 147.405C87.7683 146.786 88.6229 146.476 89.712 146.476C90.8021 146.476 91.6573 146.786 92.2751 147.405C92.8948 148.025 93.2057 148.88 93.2057 149.969C93.2057 151.06 92.8948 151.914 92.2751 152.532C91.6573 153.152 90.8021 153.463 89.712 153.463C88.6229 153.463 87.7683 153.152 87.1484 152.532Z" fill="#F8EDD2"/>
    <path d="M94.292 153.098C94.0933 152.903 93.996 152.671 93.996 152.408C93.996 152.144 94.0933 151.914 94.292 151.716C94.4893 151.517 94.7213 151.419 94.984 151.419C95.248 151.419 95.4787 151.517 95.6747 151.716C95.8733 151.914 95.9733 152.144 95.9733 152.408C95.9733 152.671 95.8733 152.903 95.6747 153.098C95.4787 153.297 95.248 153.397 94.984 153.397C94.7213 153.397 94.4893 153.297 94.292 153.098Z" fill="#F8EDD2"/>
    <path d="M99.9907 152.671C99.9907 152.153 100.095 151.681 100.3 151.255C100.508 150.828 100.76 150.456 101.06 150.14C101.357 149.824 101.749 149.451 102.233 149.02C102.68 148.625 103.031 148.293 103.287 148.025C103.543 147.757 103.757 147.453 103.932 147.115C104.108 146.778 104.197 146.41 104.197 146.016C104.197 145.435 104.055 144.983 103.773 144.657C103.492 144.333 103.128 144.169 102.68 144.169C102.425 144.169 102.167 144.204 101.901 144.275L101.625 144.368V146.476L101.455 146.516C101.313 146.535 101.196 146.541 101.099 146.541C100.8 146.541 100.56 146.452 100.379 146.271C100.199 146.091 100.111 145.852 100.111 145.555C100.111 145.273 100.217 145 100.432 144.736C100.648 144.473 100.969 144.257 101.395 144.091C101.821 143.923 102.337 143.84 102.944 143.84C104.131 143.84 105.009 144.077 105.58 144.552C106.152 145.027 106.436 145.691 106.436 146.541C106.436 147.079 106.299 147.54 106.021 147.927C105.745 148.312 105.407 148.635 105.005 148.888C104.607 149.144 104.073 149.435 103.405 149.757C102.843 150.029 102.387 150.271 102.041 150.477C101.693 150.683 101.372 150.931 101.077 151.221C100.784 151.512 100.576 151.841 100.453 152.211H105.329C105.391 151.736 105.541 151.339 105.779 151.023C105.873 150.873 105.988 150.744 106.12 150.628H106.516V153.264H99.9907V152.671Z" fill="#F8EDD2"/>
    <path d="M108.461 153.211C108.035 153.045 107.715 152.829 107.499 152.565C107.284 152.303 107.176 152.031 107.176 151.749C107.176 151.449 107.265 151.211 107.445 151.031C107.627 150.851 107.865 150.76 108.165 150.76C108.235 150.76 108.305 150.767 108.375 150.78C108.447 150.793 108.495 150.8 108.52 150.8L108.693 150.827V152.936C108.7 152.936 108.792 152.971 108.968 153.04C109.196 153.103 109.456 153.132 109.747 153.132C110.36 153.132 110.833 152.947 111.164 152.573C111.493 152.2 111.657 151.639 111.657 150.892C111.657 150.128 111.497 149.552 111.177 149.165C110.855 148.78 110.423 148.584 109.879 148.584H109.219V148.256H109.879C110.275 148.256 110.604 148.081 110.867 147.728C111.131 147.376 111.261 146.872 111.261 146.212C111.261 145.555 111.125 145.048 110.853 144.697C110.581 144.345 110.233 144.169 109.812 144.169C109.583 144.169 109.364 144.204 109.152 144.275C109.127 144.284 109.039 144.315 108.889 144.368V146.476L108.719 146.516C108.577 146.535 108.459 146.541 108.361 146.541C108.064 146.541 107.825 146.452 107.644 146.271C107.464 146.091 107.375 145.852 107.375 145.555C107.375 145.281 107.479 145.014 107.691 144.748C107.9 144.485 108.211 144.269 108.619 144.097C109.028 143.925 109.513 143.84 110.076 143.84C110.815 143.84 111.44 143.947 111.955 144.163C112.468 144.379 112.855 144.665 113.113 145.027C113.373 145.386 113.503 145.783 113.503 146.212C113.503 146.715 113.376 147.112 113.121 147.405C112.865 147.7 112.532 147.936 112.119 148.111C111.715 148.268 111.252 148.363 110.736 148.388V148.453C111.315 148.48 111.843 148.581 112.317 148.757C113.371 149.179 113.899 149.891 113.899 150.892C113.899 151.665 113.58 152.286 112.943 152.757C112.307 153.228 111.328 153.463 110.009 153.463C109.404 153.463 108.888 153.379 108.461 153.211Z" fill="#F8EDD2"/>
    <path d="M120.16 148.651C120.16 145.62 119.655 144.103 118.643 144.103C117.633 144.103 117.128 145.62 117.128 148.651C117.128 151.683 117.633 153.198 118.643 153.198C119.655 153.198 120.16 151.683 120.16 148.651ZM116.707 152.895C116.125 152.517 115.665 151.967 115.329 151.241C114.991 150.516 114.821 149.653 114.821 148.651C114.821 147.648 114.991 146.786 115.329 146.061C115.665 145.335 116.125 144.785 116.707 144.407C117.285 144.029 117.931 143.84 118.643 143.84C119.355 143.84 120.001 144.029 120.581 144.407C121.16 144.785 121.62 145.335 121.959 146.061C122.297 146.786 122.467 147.648 122.467 148.651C122.467 149.653 122.297 150.516 121.959 151.241C121.62 151.967 121.16 152.517 120.581 152.895C120.001 153.273 119.355 153.463 118.643 153.463C117.931 153.463 117.285 153.273 116.707 152.895Z" fill="#F8EDD2"/>
    <path d="M127.615 148.849C127.831 148.498 127.937 147.948 127.937 147.202C127.937 146.085 127.817 145.29 127.575 144.815C127.333 144.34 127.036 144.103 126.684 144.103C126.509 144.103 126.335 144.192 126.164 144.368C125.993 144.543 125.849 144.828 125.736 145.225C125.621 145.62 125.564 146.124 125.564 146.74C125.564 147.355 125.624 147.86 125.743 148.256C125.86 148.651 126.012 148.937 126.192 149.112C126.369 149.29 126.557 149.375 126.751 149.375C127.111 149.375 127.4 149.2 127.615 148.849ZM124.991 153.205C124.601 153.035 124.301 152.816 124.095 152.553C123.889 152.29 123.784 152.021 123.784 151.749C123.784 151.449 123.875 151.211 124.055 151.031C124.235 150.851 124.476 150.76 124.773 150.76C124.844 150.76 124.913 150.767 124.985 150.78C125.055 150.793 125.103 150.8 125.131 150.8L125.301 150.827V152.936L125.552 153.04C125.709 153.103 125.891 153.132 126.092 153.132C126.523 153.132 126.873 153.019 127.145 152.791C127.419 152.563 127.629 152.139 127.779 151.525C127.929 150.909 128.003 150.039 128.003 148.916C127.924 149.047 127.8 149.179 127.633 149.31C127.3 149.573 126.917 149.707 126.488 149.707C125.845 149.707 125.285 149.585 124.807 149.344C124.327 149.102 123.961 148.765 123.705 148.335C123.452 147.904 123.325 147.417 123.325 146.872C123.325 145.931 123.615 145.192 124.2 144.651C124.785 144.111 125.612 143.84 126.684 143.84C127.793 143.84 128.663 144.236 129.296 145.027C129.928 145.817 130.244 147.025 130.244 148.651C130.244 150.232 129.899 151.431 129.209 152.243C128.52 153.057 127.569 153.463 126.355 153.463C125.837 153.463 125.383 153.378 124.991 153.205Z" fill="#F8EDD2"/>
    <path d="M135.456 148.849C135.671 148.498 135.777 147.948 135.777 147.202C135.777 146.085 135.659 145.29 135.416 144.815C135.175 144.34 134.877 144.103 134.525 144.103C134.351 144.103 134.176 144.192 134.005 144.368C133.835 144.543 133.691 144.828 133.576 145.225C133.463 145.62 133.405 146.124 133.405 146.74C133.405 147.355 133.464 147.86 133.584 148.256C133.701 148.651 133.852 148.937 134.032 149.112C134.211 149.29 134.399 149.375 134.592 149.375C134.952 149.375 135.241 149.2 135.456 148.849ZM132.832 153.205C132.441 153.035 132.143 152.816 131.936 152.553C131.731 152.29 131.625 152.021 131.625 151.749C131.625 151.449 131.716 151.211 131.896 151.031C132.076 150.851 132.317 150.76 132.615 150.76C132.685 150.76 132.755 150.767 132.827 150.78C132.896 150.793 132.944 150.8 132.972 150.8L133.143 150.827V152.936L133.393 153.04C133.551 153.103 133.731 153.132 133.933 153.132C134.364 153.132 134.715 153.019 134.987 152.791C135.259 152.563 135.471 152.139 135.62 151.525C135.771 150.909 135.844 150.039 135.844 148.916C135.765 149.047 135.641 149.179 135.475 149.31C135.141 149.573 134.759 149.707 134.329 149.707C133.687 149.707 133.127 149.585 132.648 149.344C132.168 149.102 131.803 148.765 131.547 148.335C131.293 147.904 131.165 147.417 131.165 146.872C131.165 145.931 131.456 145.192 132.041 144.651C132.625 144.111 133.453 143.84 134.525 143.84C135.635 143.84 136.504 144.236 137.137 145.027C137.769 145.817 138.085 147.025 138.085 148.651C138.085 150.232 137.74 151.431 137.051 152.243C136.361 153.057 135.409 153.463 134.196 153.463C133.677 153.463 133.224 153.378 132.832 153.205Z" fill="#F8EDD2"/>
    <path d="M53.0312 104.732C51.9011 103.539 51.3364 101.844 51.3364 99.6479C51.3364 98.2041 51.5839 96.964 52.0797 95.9292C52.576 94.8932 53.2724 94.1079 54.1697 93.5745C55.0677 93.0416 56.1068 92.7745 57.2864 92.7745C58.0016 92.7745 58.724 92.9817 59.4516 93.3959C59.7276 93.5469 60.0041 93.7469 60.2803 93.9984C60.4937 93.6719 60.7136 93.4145 60.9391 93.2265C61.1651 93.0636 61.2907 92.9755 61.3161 92.9625H61.7869V96.5412H61.0339C60.8703 95.9375 60.6255 95.3921 60.2989 94.9027C59.9979 94.4255 59.624 94.0292 59.1787 93.7161C58.7328 93.4027 58.2208 93.2453 57.6443 93.2453C56.7776 93.2453 56.0588 93.7469 55.488 94.7521C54.9167 95.7563 54.6312 97.388 54.6312 99.6479C54.6312 101.945 54.9417 103.586 55.5636 104.572C56.1849 105.557 57.0349 106.049 58.1151 106.049C58.7047 106.049 59.2667 105.883 59.8005 105.551C60.3339 105.219 60.7667 104.776 61.0995 104.223C61.4317 103.671 61.5984 103.086 61.5984 102.472H62.0693C62.0693 103.186 61.8781 103.856 61.4953 104.477C61.112 105.098 60.5912 105.595 59.9317 105.965C59.2735 106.335 58.5417 106.52 57.738 106.52C55.7297 106.52 54.1604 105.924 53.0312 104.732Z" fill="#F8EDD2"/>
    <path d="M68.1703 101.436C68.3839 101.424 68.6099 101.392 68.8479 101.343C68.8604 101.28 68.8917 101.141 68.9427 100.928C69.0047 100.615 69.0364 100.281 69.0364 99.9307C69.0364 98.888 68.8979 98.1255 68.6224 97.6427C68.3464 97.1588 68.0136 96.9172 67.624 96.9172C66.6828 96.9172 66.212 98.4547 66.212 101.531C67.0151 101.531 67.6677 101.498 68.1703 101.436ZM64.3473 105.193C63.4563 104.308 63.0109 103.086 63.0109 101.531C63.0109 100.514 63.2057 99.6292 63.5948 98.876C63.9833 98.1229 64.5265 97.5453 65.2229 97.1427C65.9203 96.7412 66.7203 96.5412 67.624 96.5412C68.5276 96.5412 69.3219 96.7109 70.0063 97.0479C70.6907 97.388 71.2172 97.8427 71.5875 98.4136C71.9584 98.9855 72.1437 99.6161 72.1437 100.307C72.1437 100.62 72.112 100.891 72.0489 101.116L71.9547 101.436C71.4151 101.549 70.8317 101.644 70.2041 101.719C68.886 101.908 67.5552 102.002 66.212 102.002C66.212 103.457 66.4125 104.496 66.814 105.117C67.2156 105.74 67.7688 106.049 68.4719 106.049C68.9615 106.049 69.4156 105.935 69.8369 105.702C70.2568 105.469 70.5901 105.161 70.8349 104.779C71.0797 104.396 71.2021 104.004 71.2021 103.603H71.6729C71.6729 104.104 71.5219 104.581 71.2203 105.033C70.9197 105.485 70.4984 105.847 69.9593 106.116C69.4193 106.385 68.7979 106.52 68.0948 106.52C66.488 106.52 65.2385 106.077 64.3473 105.193Z" fill="#F8EDD2"/>
    <path d="M73.0849 105.956L74.2145 105.673V97.388L73.0849 97.1052V96.8229H74.7797C75.5203 96.8229 76.1036 97.0615 76.5312 97.5385C76.6937 97.7265 76.8323 97.9599 76.9453 98.236C77.1333 97.9599 77.3656 97.7079 77.6417 97.4828C78.2693 96.9803 78.9724 96.7292 79.7511 96.7292C80.4167 96.7292 80.9151 96.8828 81.2479 97.1896C81.5807 97.4973 81.7473 97.9401 81.7473 98.5172C81.7473 98.9437 81.6183 99.2864 81.3609 99.5443C81.1031 99.8016 80.7615 99.9307 80.3344 99.9307C80.1588 99.9307 79.9828 99.9172 79.8079 99.8921L79.5812 99.836V97.2C78.9412 97.2 78.3573 97.4505 77.8307 97.9531C77.5792 98.2041 77.3781 98.4547 77.2276 98.7068V105.673L78.3573 105.956V106.239H73.0849V105.956Z" fill="#F8EDD2"/>
    <path d="M84.8625 106.069C84.2536 105.768 83.7864 105.353 83.4593 104.825C83.1333 104.298 82.9697 103.703 82.9697 103.037V97.2932H81.6521V96.8229H82.9697V95.8812C82.9697 94.7521 83.5349 94.1864 84.6651 94.1864H85.9828V96.8229H88.6188V97.2932H85.9828V103.037C85.9828 104.192 86.1021 104.983 86.3412 105.409C86.5792 105.836 86.9307 106.049 87.3948 106.049C87.8473 106.049 88.2427 105.831 88.5817 105.391C88.9203 104.952 89.0901 104.355 89.0901 103.603H89.5609C89.5609 104.531 89.3287 105.249 88.8636 105.757C88.3995 106.267 87.7844 106.52 87.0188 106.52C86.1901 106.52 85.4708 106.369 84.8625 106.069Z" fill="#F8EDD2"/>
    <path d="M91.6323 95.3172C91.3812 95.0651 91.2557 94.7521 91.2557 94.3745C91.2557 93.9984 91.3812 93.6855 91.6323 93.4333C91.8833 93.1828 92.1969 93.0573 92.574 93.0573C92.9505 93.0573 93.264 93.1828 93.516 93.4333C93.7667 93.6855 93.892 93.9984 93.892 94.3745C93.892 94.7521 93.7667 95.0651 93.516 95.3172C93.264 95.5683 92.9505 95.6932 92.574 95.6932C92.1969 95.6932 91.8833 95.5683 91.6323 95.3172ZM90.126 105.956L91.2557 105.673V97.388L90.126 97.1052V96.8229H92.574C93.704 96.8229 94.268 97.388 94.268 98.5172V105.673L95.3987 105.956V106.239H90.126V105.956Z" fill="#F8EDD2"/>
    <path d="M95.9627 105.956L97.0933 105.673V97.6708H95.7747V97.2H97.0933V96.2588C97.0933 95.5932 97.2533 94.9959 97.5733 94.4693C97.8933 93.9412 98.3507 93.5281 98.948 93.2265C99.544 92.9249 100.243 92.7745 101.047 92.7745C101.7 92.7745 102.261 92.8713 102.732 93.0661C103.203 93.2609 103.557 93.5188 103.796 93.8385C104.035 94.1588 104.155 94.4948 104.155 94.8453C104.155 95.2719 104.025 95.6145 103.768 95.8719C103.511 96.1292 103.168 96.2588 102.741 96.2588C102.565 96.2588 102.391 96.2453 102.215 96.2197L101.989 96.164V93.2453L101.819 93.2073C101.768 93.1953 101.712 93.1828 101.649 93.1697C101.587 93.1573 101.512 93.1511 101.424 93.1511C100.996 93.1511 100.671 93.3745 100.444 93.8197C100.219 94.2651 100.105 95.0771 100.105 96.2588V97.2H103.119V97.6708H100.105V105.673L101.236 105.956V106.239H95.9627V105.956Z" fill="#F8EDD2"/>
    <path d="M105.096 95.3172C104.844 95.0651 104.719 94.7521 104.719 94.3745C104.719 93.9984 104.844 93.6855 105.096 93.4333C105.347 93.1828 105.66 93.0573 106.037 93.0573C106.413 93.0573 106.727 93.1828 106.979 93.4333C107.229 93.6855 107.355 93.9984 107.355 94.3745C107.355 94.7521 107.229 95.0651 106.979 95.3172C106.727 95.5683 106.413 95.6932 106.037 95.6932C105.66 95.6932 105.347 95.5683 105.096 95.3172ZM103.589 105.956L104.719 105.673V97.388L103.589 97.1052V96.8229H106.037C107.167 96.8229 107.732 97.388 107.732 98.5172V105.673L108.861 105.956V106.239H103.589V105.956Z" fill="#F8EDD2"/>
    <path d="M114.68 101.436C114.893 101.424 115.12 101.392 115.357 101.343C115.371 101.28 115.401 101.141 115.452 100.928C115.515 100.615 115.545 100.281 115.545 99.9307C115.545 98.888 115.408 98.1255 115.132 97.6427C114.856 97.1588 114.523 96.9172 114.133 96.9172C113.192 96.9172 112.721 98.4547 112.721 101.531C113.525 101.531 114.177 101.498 114.68 101.436ZM110.857 105.193C109.965 104.308 109.52 103.086 109.52 101.531C109.52 100.514 109.715 99.6292 110.104 98.876C110.493 98.1229 111.036 97.5453 111.733 97.1427C112.431 96.7412 113.231 96.5412 114.133 96.5412C115.037 96.5412 115.832 96.7109 116.516 97.0479C117.2 97.388 117.727 97.8427 118.097 98.4136C118.468 98.9855 118.653 99.6161 118.653 100.307C118.653 100.62 118.621 100.891 118.559 101.116L118.464 101.436C117.925 101.549 117.341 101.644 116.713 101.719C115.396 101.908 114.065 102.002 112.721 102.002C112.721 103.457 112.923 104.496 113.324 105.117C113.725 105.74 114.279 106.049 114.981 106.049C115.471 106.049 115.925 105.935 116.347 105.702C116.767 105.469 117.1 105.161 117.345 104.779C117.589 104.396 117.712 104.004 117.712 103.603H118.183C118.183 104.104 118.032 104.581 117.731 105.033C117.429 105.485 117.008 105.847 116.469 106.116C115.929 106.385 115.308 106.52 114.604 106.52C112.997 106.52 111.748 106.077 110.857 105.193Z" fill="#F8EDD2"/>
    <path d="M125.469 105.108C125.608 104.92 125.752 104.669 125.903 104.355V97.8588C125.765 97.7197 125.62 97.5948 125.469 97.4828C125.131 97.2307 124.804 97.1052 124.491 97.1052C123.951 97.1052 123.533 97.4188 123.239 98.0469C122.943 98.6745 122.796 99.836 122.796 101.531C122.796 103.151 122.931 104.276 123.201 104.91C123.471 105.545 123.807 105.861 124.208 105.861C124.672 105.861 125.093 105.61 125.469 105.108ZM121.477 105.947C120.9 105.564 120.441 104.998 120.103 104.252C119.764 103.505 119.595 102.597 119.595 101.531C119.595 99.924 119.968 98.6907 120.715 97.8307C121.463 96.9708 122.469 96.5412 123.737 96.5412C124.34 96.5412 124.867 96.6667 125.32 96.9172C125.508 97.0052 125.703 97.1307 125.903 97.2932V93.6213L124.773 93.3401V93.0573H127.221C128.351 93.0573 128.916 93.6213 128.916 94.7521V105.673L130.045 105.956V106.239H128.351C127.597 106.239 127.015 106.005 126.6 105.541C126.424 105.353 126.285 105.115 126.185 104.825C126.021 105.14 125.815 105.423 125.564 105.673C124.999 106.239 124.296 106.52 123.455 106.52C122.713 106.52 122.055 106.329 121.477 105.947Z" fill="#F8EDD2"/>
    <path d="M41.912 128.629C42.6251 127.927 43.2151 126.757 43.6839 125.117C44.1516 123.48 44.386 121.329 44.386 118.669C44.386 116.009 44.1516 113.86 43.6839 112.221C43.2151 110.583 42.6251 109.412 41.912 108.711C41.1989 108.008 40.4276 107.657 39.5979 107.657C38.7683 107.657 37.9964 108.008 37.2839 108.711C36.5703 109.412 35.9797 110.583 35.512 112.221C35.0432 113.86 34.8093 116.009 34.8093 118.669C34.8093 121.329 35.0432 123.48 35.512 125.117C35.9797 126.757 36.5703 127.927 37.2839 128.629C37.9964 129.332 38.7683 129.683 39.5979 129.683C40.4276 129.683 41.1989 129.332 41.912 128.629ZM34.1235 128.964C32.5588 128.06 31.3516 126.736 30.5005 124.991C29.6489 123.245 29.2229 121.139 29.2229 118.669C29.2229 116.202 29.6489 114.095 30.5005 112.349C31.3516 110.604 32.5588 109.28 34.1235 108.375C35.6869 107.471 37.512 107.019 39.5979 107.019C41.6833 107.019 43.5084 107.471 45.0729 108.375C46.6364 109.28 47.8443 110.604 48.6959 112.349C49.5469 114.095 49.9724 116.202 49.9724 118.669C49.9724 121.139 49.5469 123.245 48.6959 124.991C47.8443 126.736 46.6364 128.06 45.0729 128.964C43.5084 129.868 41.6833 130.321 39.5979 130.321C37.512 130.321 35.6869 129.868 34.1235 128.964Z" fill="#F8EDD2"/>
    <path d="M52.6855 129.363L54.6005 128.885V114.839L52.6855 114.36V113.881H55.5584C56.8136 113.881 57.8031 114.286 58.5271 115.095C58.8031 115.414 59.038 115.808 59.2297 116.276C59.5484 115.808 59.9417 115.381 60.4104 114.998C61.4745 114.148 62.6656 113.721 63.9855 113.721C65.1136 113.721 65.9593 113.983 66.5235 114.504C67.0869 115.025 67.3697 115.776 67.3697 116.755C67.3697 117.479 67.1511 118.059 66.7151 118.493C66.2787 118.931 65.6984 119.148 64.9751 119.148C64.6765 119.148 64.3792 119.128 64.0817 119.084L63.6984 118.99V114.52C62.6131 114.52 61.6235 114.945 60.7297 115.797C60.3036 116.223 59.9636 116.648 59.7084 117.073V128.885L61.6235 129.363V129.843H52.6855V129.363Z" fill="#F8EDD2"/>
    <path d="M78.1104 122.596C78.5036 121.915 78.7011 120.714 78.7011 118.99C78.7011 117.265 78.5036 116.063 78.1104 115.381C77.7167 114.702 77.1693 114.36 76.4667 114.36C75.764 114.36 75.2156 114.702 74.8229 115.381C74.4281 116.063 74.2323 117.265 74.2323 118.99C74.2323 120.714 74.4281 121.915 74.8229 122.596C75.2156 123.277 75.764 123.617 76.4667 123.617C77.1693 123.617 77.7167 123.277 78.1104 122.596ZM71.6781 136.195C70.486 135.853 69.6303 135.417 69.1084 134.885C68.5869 134.353 68.3265 133.791 68.3265 133.193C68.3265 132.469 68.5448 131.891 68.9807 131.455C69.4172 131.019 69.9973 130.798 70.7203 130.798C70.8907 130.798 71.1995 130.832 71.6464 130.896L71.9973 130.96V135.428C72.2531 135.514 72.6568 135.62 73.2104 135.747C74.1891 135.961 75.1151 136.068 75.9875 136.068C78.5839 136.068 80.4828 135.7 81.6855 134.965C82.8875 134.232 83.4896 133.321 83.4896 132.237C83.4896 130.852 82.212 130.161 79.6588 130.161H73.5932C71.9973 130.161 70.7735 129.832 69.9224 129.172C69.0713 128.514 68.6459 127.672 68.6459 126.651C68.6459 125.629 69.1459 124.724 70.1464 123.936C70.55 123.639 71.0609 123.373 71.6781 123.139C70.8907 122.649 70.3213 122.069 69.9703 121.398C69.6197 120.729 69.4437 119.925 69.4437 118.99C69.4437 117.415 70.0396 116.143 71.2312 115.175C72.4229 114.207 74.1683 113.721 76.4667 113.721C77.4667 113.721 78.3864 113.824 79.2276 114.025C80.0683 114.228 80.7437 114.498 81.2547 114.839C81.4251 114.477 81.6479 114.159 81.9251 113.881C82.5636 113.243 83.3505 112.924 84.2875 112.924C85.0099 112.924 85.6172 113.175 86.1068 113.675C86.5964 114.175 86.8412 114.828 86.8412 115.637C86.8412 116.255 86.6755 116.755 86.3464 117.137C86.0161 117.52 85.5964 117.712 85.0849 117.712C84.8505 117.712 84.5849 117.691 84.2875 117.648L83.9677 117.552V113.721C83.4145 113.721 82.8927 113.988 82.4041 114.52C82.212 114.712 82.0417 114.977 81.8927 115.319C82.9568 116.255 83.4896 117.479 83.4896 118.99C83.4896 120.564 82.8927 121.836 81.7016 122.804C80.5093 123.772 78.7645 124.256 76.4667 124.256C74.9339 124.256 73.5505 123.991 72.3167 123.459L71.6781 123.777C71.4651 123.905 71.3057 124.028 71.1995 124.144C71.0927 124.261 71.0396 124.405 71.0396 124.575C71.0396 124.937 71.2255 125.214 71.5984 125.405C71.9703 125.597 72.636 125.692 73.5932 125.692H79.6588C81.2547 125.692 82.5041 126.156 83.4093 127.08C84.3136 128.007 84.7661 129.298 84.7661 130.96C84.7661 132.661 84.0584 134.045 82.6427 135.109C81.2276 136.173 79.1156 136.705 76.3073 136.705C74.4125 136.705 72.8697 136.535 71.6781 136.195Z" fill="#F8EDD2"/>
    <path d="M97.7587 127.927C97.992 127.608 98.2373 127.183 98.492 126.651V122.021C97.5133 122.021 96.5773 122.075 95.684 122.181C95.0227 122.267 94.576 122.32 94.3427 122.341C94.236 122.575 94.1293 122.895 94.0227 123.298C93.8107 124.107 93.704 124.905 93.704 125.692C93.704 126.885 93.884 127.767 94.2467 128.343C94.608 128.916 95.0653 129.204 95.62 129.204C96.4067 129.204 97.12 128.779 97.7587 127.927ZM89.9693 129.108C88.9479 128.298 88.4369 127.268 88.4369 126.012C88.4369 125.181 88.6177 124.363 88.9797 123.553C89.1281 123.171 89.3203 122.82 89.5541 122.5C90.4265 122.288 91.3735 122.096 92.3948 121.925C94.6933 121.543 96.7253 121.309 98.492 121.223V120.267C98.492 117.904 98.2053 116.276 97.6307 115.381C97.056 114.488 96.172 114.041 94.9813 114.041C94.5347 114.041 94.1507 114.095 93.832 114.202L93.384 114.36V119.148L92.9697 119.244C92.6292 119.286 92.3421 119.308 92.1079 119.308C91.3844 119.308 90.8041 119.091 90.3683 118.653C89.9317 118.217 89.714 117.637 89.714 116.914C89.714 115.936 90.2088 115.105 91.1984 114.424C92.188 113.743 93.6613 113.403 95.62 113.403C97.2787 113.403 98.7107 113.695 99.912 114.28C101.115 114.867 102.031 115.675 102.657 116.707C103.285 117.739 103.6 118.925 103.6 120.267V128.885L105.515 129.363V129.843H102.643C101.365 129.843 100.376 129.449 99.6733 128.661C99.376 128.343 99.1413 127.937 98.9707 127.448C98.6733 127.98 98.3213 128.46 97.9173 128.885C96.96 129.843 95.768 130.321 94.3427 130.321C92.4484 130.321 90.9907 129.916 89.9693 129.108Z" fill="#F8EDD2"/>
    <path d="M107.431 129.363L109.345 128.885V114.839L107.431 114.36V113.881H110.303C111.559 113.881 112.548 114.286 113.272 115.095C113.548 115.414 113.783 115.808 113.975 116.276C114.272 115.723 114.623 115.244 115.028 114.839C115.985 113.881 117.177 113.403 118.603 113.403C119.795 113.403 120.864 113.653 121.811 114.153C122.757 114.653 123.497 115.308 124.029 116.116C124.561 116.925 124.827 117.776 124.827 118.669V128.885L126.743 129.363V129.843H122.593C120.677 129.843 119.72 128.885 119.72 126.968V118.669C119.72 117.329 119.481 116.303 119.001 115.59C118.523 114.878 117.964 114.52 117.325 114.52C116.517 114.52 115.795 114.945 115.156 115.797C114.879 116.159 114.644 116.584 114.453 117.073V128.885L116.368 129.363V129.843H107.431V129.363Z" fill="#F8EDD2"/>
    <path d="M131.212 111.328C130.785 110.903 130.573 110.371 130.573 109.732C130.573 109.093 130.785 108.561 131.212 108.136C131.636 107.711 132.169 107.497 132.807 107.497C133.445 107.497 133.977 107.711 134.404 108.136C134.828 108.561 135.043 109.093 135.043 109.732C135.043 110.371 134.828 110.903 134.404 111.328C133.977 111.753 133.445 111.965 132.807 111.965C132.169 111.965 131.636 111.753 131.212 111.328ZM128.657 129.363L130.573 128.885V114.839L128.657 114.36V113.881H132.807C134.723 113.881 135.68 114.839 135.68 116.755V128.885L137.596 129.363V129.843H128.657V129.363Z" fill="#F8EDD2"/>
    <path d="M141.777 128.071C140.267 126.571 139.511 124.502 139.511 121.861C139.511 119.223 140.267 117.153 141.777 115.653C143.288 114.153 145.405 113.403 148.129 113.403C150.088 113.403 151.561 113.743 152.551 114.424C153.541 115.105 154.036 115.936 154.036 116.914C154.036 117.637 153.817 118.217 153.38 118.653C152.944 119.091 152.364 119.308 151.641 119.308C151.343 119.308 151.045 119.286 150.747 119.244L150.364 119.148V114.36L149.917 114.202C149.599 114.095 149.215 114.041 148.768 114.041C147.555 114.041 146.613 114.616 145.943 115.765C145.272 116.914 144.937 118.947 144.937 121.861C144.937 124.692 145.272 126.677 145.943 127.815C146.613 128.955 147.555 129.523 148.768 129.523C149.599 129.523 150.369 129.327 151.083 128.932C151.796 128.539 152.359 128.019 152.775 127.368C153.189 126.719 153.397 126.055 153.397 125.373H154.195C154.195 126.224 153.939 127.033 153.429 127.798C152.917 128.565 152.205 129.177 151.291 129.635C150.375 130.092 149.321 130.321 148.129 130.321C145.405 130.321 143.288 129.572 141.777 128.071Z" fill="#F8EDD2"/>
</svg>
