<?xml version="1.0" encoding="UTF-8"?>
<svg viewBox="0 0 137 102" fill="none" xmlns="http://www.w3.org/2000/svg">
    <path d="M136.722 83.5133C136.375 84.8287 136.103 86.1697 135.667 87.4553C132.804 95.9068 125.431 101.238 116.192 101.254C84.3956 101.308 52.5987 101.317 20.802 101.25C10.7159 101.229 2.8755 94.8557 0.762401 85.2517C0.459801 83.8763 0.317801 82.438 0.315301 81.0285C0.285301 64.0643 0.295502 47.1001 0.297002 30.1359C0.297002 29.8773 0.320602 29.6187 0.342302 29.1729C0.896302 29.4923 1.3448 29.7378 1.7807 30.0039C22.3432 42.5582 42.9195 55.09 63.4515 67.694C66.8602 69.7865 69.9902 69.7883 73.3994 67.7014C94.0605 55.0537 114.764 42.4759 135.455 29.8767C135.87 29.6241 136.299 29.3955 136.722 29.1557L136.722 83.5133Z" fill="#F8EDD2"/>
    <path d="M68.5925 0.735124C84.3551 0.735124 100.118 0.713523 115.88 0.744123C123.978 0.759823 130.117 4.26722 134.125 11.3402C134.774 12.4863 135.14 13.7903 135.679 15.0023C136.16 16.0824 135.881 16.6957 134.83 17.3331C122.54 24.7852 110.284 32.2937 98.0193 39.7876C88.5936 45.5469 79.1617 51.2962 69.754 57.0847C68.9399 57.5856 68.3658 57.6599 67.5054 57.134C45.7038 43.8076 23.885 30.5094 2.0514 17.2357C1.1699 16.6998 0.976002 16.224 1.264 15.2232C3.7761 6.49343 11.5914 0.752726 21.1715 0.740526C36.9785 0.720526 52.7855 0.735124 68.5925 0.735124Z" fill="#F8EDD2"/>
</svg>

