<?xml version="1.0" encoding="UTF-8" standalone="no"?><!DOCTYPE svg PUBLIC "-//W3C//DTD SVG 1.1//EN" "http://www.w3.org/Graphics/SVG/1.1/DTD/svg11.dtd"><svg width="100%" height="100%" viewBox="0 0 337 337" version="1.1" xmlns="http://www.w3.org/2000/svg" xmlns:xlink="http://www.w3.org/1999/xlink" xml:space="preserve" xmlns:serif="http://www.serif.com/" style="fill-rule:evenodd;clip-rule:evenodd;stroke-linejoin:round;stroke-miterlimit:2;"><path d="M215.216,172.105c0.009,-5.042 -3.854,-9.738 -9.483,-9.746c-5.279,-0.008 -9.504,4.208 -9.513,9.717c-0.008,5.746 4.792,9.504 9.484,9.512c5.629,0.009 9.504,-4.091 9.512,-9.483" style="fill:#a09b7e;fill-rule:nonzero;"/><path d="M161.514,162.642c-4.692,-0.004 -8.087,-5.525 -8.071,-14.437c0.013,-7.971 3.534,-11.488 7.171,-11.479c4.221,0.004 7.617,4.471 7.604,13.962c-0.012,8.567 -3.066,11.959 -6.704,11.954m-9.183,25.313c1.054,-0.817 3.404,-1.517 6.566,-1.513l7.859,0.013c6.45,0.012 11.487,2.717 11.475,9.512c-0.009,5.634 -4.938,9.259 -12.325,9.246c-9.263,-0.012 -15.238,-5.183 -15.229,-13.15c0.004,-1.529 0.479,-3.05 1.654,-4.108m26.225,-52.258c-4.334,-2.355 -10.546,-4.355 -17.467,-4.363c-15.242,-0.025 -22.879,9.108 -22.892,18.846c-0.012,7.15 4.084,12.783 9.946,15.142c0.584,1.054 0.113,1.754 -0.946,2.575c-0.704,0.708 -4.225,3.4 -7.512,5.5c-0.588,0.587 -0.821,1.52 -0.821,2.458c-0.004,4.104 2.917,7.983 7.254,9.392c0.938,0.237 1.288,0.825 -0.121,1.645c-1.291,0.7 -3.404,2.225 -5.75,3.625c-1.995,1.175 -3.754,3.042 -3.758,5.863c-0.012,7.267 6.071,15.017 22.958,15.042c6.8,0.008 14.425,-1.505 20.53,-5.13c6.1,-3.741 10.566,-10.308 10.579,-17.695c0.016,-11.838 -9.359,-14.196 -18.154,-14.209c-5.513,-0.012 -10.321,0.217 -14.309,0.209c-3.512,-0.005 -5.975,-1.65 -5.975,-4.23c0.004,-1.404 0.825,-2.341 2,-2.812c1.288,0.121 2.934,0.354 4.809,0.358c18.525,0.025 24.058,-11.216 24.07,-20.483c0.005,-1.996 -0.116,-3.046 -0.345,-4.104l8.675,0.012c1.175,-0.7 1.762,-2.816 1.766,-4.683c0.004,-1.296 -0.233,-2.229 -1.05,-2.938l-13.487,-0.02Z" style="fill:#a09b7e;fill-rule:nonzero;"/><path d="M276.018,275.991c-0.108,0.233 -0.196,0.475 -0.267,0.733c-0.054,-0.275 -0.112,-0.55 -0.166,-0.821c0.145,0.029 0.287,0.059 0.433,0.088m-3.288,-6.075l-3.966,-0.85l0.841,3.971c0.646,3.062 1.271,6.125 1.88,9.183l0.441,2.217l2.263,-0.1c2.216,-0.1 4.55,-0.292 6.933,-0.563l2.071,-0.237l0.246,-2.075c0.283,-2.417 0.479,-4.75 0.583,-6.93l0.108,-2.258l-2.216,-0.45c-3.054,-0.617 -6.117,-1.254 -9.184,-1.908" style="fill:#a09b7e;fill-rule:nonzero;"/><path d="M194.847,25.755c1.812,5.504 3.437,10.658 4.966,15.725l1.221,4.058l3.1,-2.891c3.896,-3.638 7.892,-7.28 12.196,-11.1c3.817,8.895 4.592,16.97 2.362,24.641c-9.129,5.979 -17.808,12.592 -25.825,19.663c-3.362,-10.1 -7.55,-20.184 -12.454,-29.979c1.934,-7.759 6.663,-14.346 14.434,-20.117m-5.759,55.554l1.238,3.963l3.058,-2.805c8.863,-8.12 18.617,-15.654 28.983,-22.387l0.788,-0.508l0.287,-0.892c3.225,-10.033 1.93,-21.013 -3.854,-32.625l-1.525,-3.067l-2.575,2.263c-4.2,3.7 -8.091,7.204 -11.862,10.679c-1.504,-4.871 -3.109,-9.854 -4.888,-15.192l-1.087,-3.25l-2.863,1.884c-10.833,7.125 -17.471,15.962 -19.729,26.266l-0.2,0.917l0.421,0.833c5.6,11.079 10.246,22.488 13.808,33.921" style="fill:#a09b7e;fill-rule:nonzero;"/><path d="M239.529,267.812c-0.621,-10.933 -2.004,-21.762 -4.117,-32.204c10.454,2.146 21.279,3.558 32.192,4.212c5.746,5.55 9.091,12.942 10.2,22.555c-5.692,-1.188 -10.967,-2.355 -16.096,-3.563l-4.129,-0.971l0.958,4.134c1.171,5.037 2.321,10.312 3.513,16.108c-9.609,-1.142 -16.988,-4.504 -22.521,-10.271m25.079,-2.921c4.962,1.129 10.079,2.234 15.596,3.359l3.358,0.687l-0.2,-3.421c-0.754,-12.941 -5.087,-23.108 -12.879,-30.216l-0.696,-0.634l-0.933,-0.054c-12.35,-0.683 -24.559,-2.367 -36.284,-5.004l-4.05,-0.908l0.9,4.05c2.6,11.695 4.246,23.908 4.9,36.295l0.046,0.938l0.634,0.696c7.079,7.812 17.233,12.179 30.175,12.971l3.42,0.208l-0.675,-3.358c-1.125,-5.588 -2.212,-10.705 -3.312,-15.609" style="fill:#a09b7e;fill-rule:nonzero;"/><path d="M203.912,26.377l1.241,3.867l3.025,-2.712c2.329,-2.096 4.671,-4.167 7.017,-6.225l1.7,-1.496l-1.221,-1.904c-1.204,-1.884 -2.537,-3.809 -3.958,-5.721l-1.242,-1.679l-1.917,0.829c-2.2,0.95 -4.316,1.941 -6.287,2.954l-2.017,1.037l0.721,2.146c0.992,2.959 1.975,5.921 2.938,8.904" style="fill:#a09b7e;fill-rule:nonzero;"/><path d="M309.655,203.905l-3.866,1.241l2.716,3.025c2.092,2.329 4.163,4.671 6.221,7.017l1.492,1.7l1.908,-1.217c1.879,-1.2 3.804,-2.533 5.721,-3.958l1.675,-1.242l-0.825,-1.916c-0.937,-2.184 -1.933,-4.305 -2.954,-6.292l-1.033,-2.013l-2.15,0.717c-2.955,0.992 -5.921,1.979 -8.905,2.938" style="fill:#a09b7e;fill-rule:nonzero;"/><path d="M305.905,131.287l3.858,1.262c2.979,0.975 5.942,1.963 8.9,2.963l2.142,0.725l1.042,-2.009c1.025,-1.983 2.025,-4.095 2.975,-6.283l0.829,-1.917l-1.671,-1.245c-1.9,-1.413 -3.821,-2.75 -5.704,-3.971l-1.904,-1.229l-1.505,1.7c-2.062,2.337 -4.141,4.67 -6.241,6.995l-2.721,3.009Z" style="fill:#a09b7e;fill-rule:nonzero;"/><path d="M279.844,218.687c-5.984,-9.129 -12.592,-17.812 -19.663,-25.829c10.109,-3.363 20.188,-7.546 29.984,-12.45c7.75,1.933 14.341,6.662 20.112,14.433c-5.521,1.817 -10.675,3.446 -15.725,4.967l-4.058,1.221l2.896,3.1c3.579,3.829 7.22,7.825 11.1,12.191c-8.896,3.821 -16.971,4.596 -24.646,2.367m20.262,-15.067c4.904,-1.516 9.888,-3.12 15.188,-4.891l3.254,-1.084l-1.888,-2.858c-7.125,-10.837 -15.962,-17.479 -26.262,-19.733l-0.917,-0.2l-0.837,0.425c-11.067,5.591 -22.479,10.237 -33.921,13.804l-3.967,1.229l2.809,3.063c8.125,8.87 15.658,18.625 22.387,28.987l0.508,0.788l0.896,0.287c3.546,1.138 7.263,1.721 11.038,1.725l0.062,0c6.846,0 14.088,-1.879 21.521,-5.583l3.071,-1.529l-2.267,-2.571c-3.758,-4.263 -7.258,-8.154 -10.675,-11.859" style="fill:#a09b7e;fill-rule:nonzero;"/><path d="M304.635,120.117c-3.904,4.363 -7.554,8.35 -11.137,12.159l-2.905,3.091l4.055,1.238c5.066,1.542 10.216,3.183 15.712,5.008c-5.796,7.759 -12.4,12.463 -20.158,14.375c-9.763,-4.925 -19.829,-9.141 -29.946,-12.541c7.092,-7.988 13.729,-16.65 19.742,-25.771c7.683,-2.2 15.754,-1.4 24.637,2.441m-28.008,-6.912l-0.513,0.783c-6.766,10.354 -14.325,20.084 -22.475,28.917l-2.812,3.054l3.958,1.246c11.446,3.604 22.842,8.287 33.883,13.912l0.834,0.425l0.916,-0.195c10.309,-2.23 19.163,-8.842 26.325,-19.655l1.888,-2.854l-3.246,-1.1c-5.325,-1.791 -10.3,-3.408 -15.175,-4.933c3.4,-3.663 6.917,-7.546 10.713,-11.825l2.275,-2.567l-3.063,-1.537c-11.587,-5.817 -22.562,-7.146 -32.612,-3.954l-0.896,0.283Z" style="fill:#a09b7e;fill-rule:nonzero;"/><path d="M239.83,68.431c5.55,-5.746 12.937,-9.092 22.55,-10.204c-1.205,5.779 -2.375,11.054 -3.559,16.104l-0.971,4.125l4.13,-0.959c5.125,-1.187 10.404,-2.341 16.108,-3.512c-1.138,9.608 -4.504,16.992 -10.271,22.525c-10.912,0.617 -21.737,2 -32.2,4.112c2.142,-10.437 3.558,-21.258 4.213,-32.191m-7.075,38.183c11.729,-2.604 23.941,-4.25 36.3,-4.896l0.933,-0.05l0.696,-0.629c7.816,-7.087 12.179,-17.242 12.971,-30.179l0.208,-3.417l-3.358,0.671c-5.55,1.117 -10.671,2.204 -15.609,3.313c1.121,-4.917 2.221,-10.034 3.363,-15.596l0.683,-3.359l-3.421,0.2c-12.941,0.75 -23.108,5.084 -30.212,12.88l-0.634,0.691l-0.05,0.938c-0.691,12.379 -2.375,24.587 -5.008,36.279l-0.912,4.05l4.05,-0.896Z" style="fill:#a09b7e;fill-rule:nonzero;"/><path d="M282.226,64.547l2.217,-0.442l-0.1,-2.258c-0.1,-2.221 -0.292,-4.554 -0.563,-6.933l-0.237,-2.075l-2.075,-0.242c-2.413,-0.287 -4.742,-0.479 -6.929,-0.583l-2.259,-0.113l-0.45,2.217c-0.62,3.058 -1.258,6.121 -1.908,9.187l-0.846,3.967l3.967,-0.842c3.062,-0.65 6.125,-1.27 9.183,-1.883" style="fill:#a09b7e;fill-rule:nonzero;"/><path d="M306.525,228.212l-0.8,0.467c-5.25,3.129 -10.5,5.933 -15.617,8.325l-1.666,0.775l0.158,1.833c1.254,14.875 0.467,30.675 -2.342,46.971l-1.3,0.217c-15.841,2.587 -31.212,3.258 -45.691,1.996l-1.83,-0.167l-0.783,1.667c-5.154,10.95 -11.779,21.779 -19.687,32.179c-1.942,2.537 -3.909,5.008 -5.855,7.354c-15.475,-5.746 -29.533,-13.008 -41.787,-21.592l-1.504,-1.054l-1.509,1.05c-5.745,3.988 -11.966,7.738 -18.5,11.15c-4.75,2.471 -9.216,4.584 -13.658,6.467c-3.171,1.354 -6.429,2.646 -9.692,3.842c-0.166,-0.205 -0.333,-0.405 -0.495,-0.596c-10.342,-12.584 -18.73,-25.709 -24.93,-39.004l-0.775,-1.671l-1.833,0.158c-14.754,1.25 -30.446,0.479 -46.658,-2.292l-0.329,-0.058c-1.9,-11.142 -2.855,-22.125 -2.838,-32.654c0.004,-4.875 0.217,-9.692 0.621,-14.325l0.167,-1.833l-1.663,-0.78c-2.883,-1.358 -5.846,-2.875 -9.062,-4.637c-10.38,-5.675 -20.621,-12.7 -30.455,-20.883c4.559,-12.275 10.092,-23.696 16.438,-33.942c1.812,-2.929 3.496,-5.5 5.158,-7.879l1.167,-1.729l-1.254,-1.392c-8.504,-12.238 -15.696,-26.279 -21.384,-41.742c1.05,-0.871 2.113,-1.729 3.18,-2.579c11.783,-9.375 24.033,-17.054 36.42,-22.817l1.659,-0.8l-0.154,-1.829c-1.259,-14.883 -0.467,-30.687 2.358,-46.979c15.117,-2.562 29.908,-3.379 43.967,-2.412l1.037,0.066c0.663,0.046 1.329,0.088 1.983,0.142l1.838,0.167l0.783,-1.667c4.613,-9.821 10.459,-19.604 17.375,-29.067c2.638,-3.616 5.375,-7.129 8.142,-10.45c13.921,5.163 26.762,11.604 38.183,19.154l0.479,0.313c1.055,0.696 2.117,1.392 3.155,2.108l1.504,1.05l1.5,-1.05c12.25,-8.516 26.329,-15.733 41.858,-21.446c5.779,6.959 11.071,14.288 15.733,21.788c3.692,5.954 6.95,11.942 9.684,17.804l0.787,1.696l1.863,-0.188c0.771,-0.075 1.546,-0.12 2.321,-0.162l0.8,-0.05c13.979,-0.896 28.72,-0.042 43.82,2.562c2.763,16.305 3.5,32.117 2.2,47.005l-0.158,1.833l1.667,0.783c13.241,6.209 26.333,14.625 38.904,25.009l0.604,0.504c-4.742,12.8 -10.6,24.737 -17.408,35.496c-1.279,2.012 -2.671,4.166 -4.175,6.287l-1.067,1.508l1.058,1.517c3.784,5.438 7.359,11.325 10.63,17.496c4.062,7.654 7.704,15.854 10.833,24.379c-7.604,6.288 -15.4,11.879 -23.175,16.608m16.996,-43.454c-3.063,-5.783 -6.4,-11.341 -9.921,-16.525c1.2,-1.762 2.321,-3.5 3.267,-4.987c7.325,-11.567 13.562,-24.438 18.55,-38.254l0.608,-1.692l-1.35,-1.188c-0.438,-0.379 -0.875,-0.745 -1.313,-1.104l-0.762,-0.637c-12.404,-10.242 -25.317,-18.634 -38.388,-24.946c1.167,-15.371 0.25,-31.642 -2.725,-48.375l-0.32,-1.804l-1.809,-0.325c-16.141,-2.921 -31.921,-3.921 -46.896,-2.954l-1.445,0.087c-2.659,-5.529 -5.755,-11.146 -9.2,-16.708c-5.121,-8.234 -10.963,-16.246 -17.363,-23.817l-1.179,-1.396l-1.725,0.617c-16.017,5.737 -30.588,13.033 -43.313,21.683c-0.579,-0.387 -1.162,-0.771 -1.741,-1.15l-0.488,-0.321c-12.246,-8.095 -26.046,-14.937 -41.016,-20.345l-1.721,-0.617l-1.184,1.392c-3.25,3.829 -6.466,7.92 -9.558,12.154c-6.725,9.204 -12.479,18.725 -17.108,28.296l-1.292,-0.084c-15.05,-1.033 -30.883,-0.091 -47.062,2.796l-1.805,0.325l-0.325,1.8c-3.054,16.775 -4.025,33.046 -2.883,48.367c-12.187,5.837 -24.237,13.466 -35.821,22.683c-1.583,1.267 -3.154,2.546 -4.704,3.863l-1.392,1.179l0.617,1.716c5.725,15.992 13.021,30.559 21.688,43.309c-1.388,2.041 -2.788,4.208 -4.271,6.6c-6.834,11.033 -12.738,23.366 -17.55,36.654l-0.621,1.721l1.396,1.187c10.541,8.921 21.558,16.546 32.741,22.663c2.709,1.483 5.23,2.791 7.692,3.987c-0.321,4.213 -0.487,8.571 -0.496,12.959c-0.016,11.416 1.075,23.333 3.238,35.408l0.316,1.767l1.759,0.35c0.471,0.095 0.937,0.17 1.521,0.266l0.716,0.125c15.988,2.729 31.513,3.571 46.163,2.488c6.3,13.133 14.666,26.079 24.871,38.496c0.362,0.425 0.712,0.862 1.108,1.345l1.708,2.1l1.754,-0.625c3.963,-1.412 7.909,-2.958 11.73,-4.587c4.562,-1.933 9.154,-4.108 14.029,-6.646c6.166,-3.221 12.071,-6.737 17.562,-10.458c12.729,8.708 27.275,16.05 43.242,21.821l1.725,0.625l1.183,-1.405c2.421,-2.866 4.846,-5.887 7.196,-8.966c7.742,-10.175 14.292,-20.763 19.479,-31.479c14.379,1.087 29.575,0.358 45.184,-2.196l1.075,-0.175c0.704,-0.117 1.4,-0.229 2.108,-0.359l1.796,-0.325l0.325,-1.795c3.029,-16.725 3.996,-32.988 2.871,-48.35c4.741,-2.284 9.595,-4.9 14.433,-7.788l0.683,-0.392c8.554,-5.2 17.1,-11.37 25.392,-18.354l1.404,-1.179l-0.617,-1.725c-3.354,-9.387 -7.312,-18.404 -11.766,-26.796" style="fill:#a09b7e;fill-rule:nonzero;"/><path d="M53.815,271.48l-2.217,0.442l0.1,2.258c0.1,2.213 0.283,4.484 0.562,6.934l0.238,2.075l2.075,0.241c2.375,0.284 4.708,0.48 6.929,0.588l2.258,0.108l0.45,-2.216c0.621,-3.059 1.255,-6.121 1.913,-9.184l0.846,-3.966l-3.967,0.837c-3.062,0.646 -6.129,1.271 -9.187,1.883" style="fill:#a09b7e;fill-rule:nonzero;"/><path d="M96.215,267.597c-5.554,5.745 -12.942,9.091 -22.554,10.204c1.204,-5.763 2.371,-11.038 3.558,-16.104l0.971,-4.125l-4.129,0.958c-5.075,1.175 -10.354,2.329 -16.109,3.512c1.138,-9.608 4.505,-16.987 10.271,-22.52c10.904,-0.621 21.734,-2 32.2,-4.117c-2.146,10.462 -3.562,21.283 -4.208,32.192m7.071,-38.184c-11.734,2.6 -23.946,4.25 -36.3,4.896l-0.934,0.05l-0.7,0.629c-7.812,7.088 -12.179,17.242 -12.966,30.179l-0.209,3.421l3.359,-0.675c5.583,-1.125 10.704,-2.212 15.604,-3.312c-1.125,4.95 -2.225,10.066 -3.358,15.596l-0.684,3.358l3.421,-0.2c12.938,-0.75 23.104,-5.083 30.217,-12.879l0.633,-0.692l0.05,-0.937c0.683,-12.363 2.371,-24.567 5.008,-36.284l0.913,-4.046l-4.054,0.896Z" style="fill:#a09b7e;fill-rule:nonzero;"/><path d="M132.13,309.65l-1.245,-3.867l-3.021,2.717c-2.329,2.092 -4.671,4.162 -7.017,6.221l-1.704,1.491l1.225,1.909c1.204,1.883 2.533,3.812 3.954,5.721l1.242,1.679l1.916,-0.829c2.205,-0.95 4.321,-1.942 6.292,-2.955l2.017,-1.037l-0.721,-2.146c-0.992,-2.958 -1.975,-5.925 -2.938,-8.904" style="fill:#a09b7e;fill-rule:nonzero;"/><path d="M31.409,215.91c3.9,-4.363 7.55,-8.346 11.137,-12.158l2.9,-3.092l-4.054,-1.238c-5.012,-1.525 -10.162,-3.166 -15.712,-5.008c5.795,-7.758 12.4,-12.462 20.158,-14.371c9.787,4.934 19.858,9.146 29.95,12.534c-7.088,7.983 -13.725,16.65 -19.746,25.775c-7.679,2.204 -15.75,1.404 -24.633,-2.442m28.004,6.912l0.512,-0.787c6.788,-10.375 14.35,-20.104 22.48,-28.917l2.812,-3.054l-3.958,-1.246c-11.417,-3.591 -22.817,-8.271 -33.888,-13.904l-0.833,-0.425l-0.917,0.196c-10.308,2.225 -19.162,8.837 -26.321,19.65l-1.895,2.858l3.25,1.096c5.354,1.804 10.333,3.421 15.175,4.933c-3.434,3.705 -6.946,7.58 -10.709,11.825l-2.275,2.567l3.063,1.538c7.446,3.737 14.7,5.637 21.566,5.645l0.055,0c3.762,0 7.458,-0.566 10.987,-1.691l0.896,-0.284Z" style="fill:#a09b7e;fill-rule:nonzero;"/><path d="M141.195,310.272c-1.8,-5.466 -3.429,-10.62 -4.97,-15.729l-1.225,-4.058l-3.096,2.896c-3.892,3.641 -7.888,7.279 -12.192,11.1c-3.817,-8.892 -4.592,-16.963 -2.367,-24.642c9.155,-5.996 17.838,-12.608 25.834,-19.662c3.362,10.116 7.55,20.195 12.45,29.979c-1.938,7.758 -6.667,14.346 -14.434,20.116m5.759,-55.558l-1.238,-3.967l-3.058,2.809c-8.846,8.112 -18.6,15.646 -28.988,22.391l-0.787,0.509l-0.288,0.896c-3.22,10.041 -1.925,21.016 3.859,32.616l1.529,3.067l2.571,-2.263c4.183,-3.683 8.075,-7.183 11.862,-10.67c1.517,4.908 3.121,9.891 4.892,15.187l1.083,3.25l2.863,-1.883c10.833,-7.129 17.471,-15.967 19.729,-26.263l0.2,-0.916l-0.421,-0.838c-5.592,-11.054 -10.237,-22.467 -13.808,-33.925" style="fill:#a09b7e;fill-rule:nonzero;"/><path d="M215.917,304.627c-4.329,-3.871 -8.312,-7.521 -12.158,-11.138l-3.088,-2.904l-1.237,4.058c-1.554,5.092 -3.2,10.242 -5.017,15.709c-7.754,-5.792 -12.462,-12.396 -14.371,-20.154c4.929,-9.775 9.146,-19.846 12.542,-29.95c7.992,7.095 16.654,13.733 25.771,19.745c2.2,7.68 1.404,15.746 -2.442,24.634m6.913,-28.004l-0.788,-0.517c-10.354,-6.767 -20.083,-14.329 -28.917,-22.475l-3.05,-2.813l-1.245,3.959c-3.605,11.433 -8.284,22.833 -13.913,33.883l-0.425,0.838l0.2,0.912c2.225,10.308 8.838,19.163 19.65,26.325l2.858,1.888l1.092,-3.242c1.796,-5.321 3.413,-10.3 4.938,-15.175c3.741,3.471 7.62,6.983 11.833,10.708l2.562,2.271l1.538,-3.062c5.817,-11.592 7.146,-22.563 3.95,-32.609l-0.283,-0.891Z" style="fill:#a09b7e;fill-rule:nonzero;"/><path d="M207.753,308.616l-3.013,-2.721l-1.254,3.859c-0.971,2.979 -1.962,5.946 -2.966,8.896l-0.73,2.145l2.013,1.042c1.962,1.017 4.079,2.017 6.283,2.975l1.913,0.829l1.25,-1.666c1.454,-1.95 2.787,-3.871 3.975,-5.717l1.221,-1.904l-1.696,-1.496c-2.338,-2.058 -4.671,-4.146 -6.996,-6.242" style="fill:#a09b7e;fill-rule:nonzero;"/><path d="M30.135,204.739l-3.858,-1.263c-2.975,-0.971 -5.937,-1.958 -8.892,-2.962l-2.15,-0.729l-1.041,2.012c-1.029,1.996 -2.029,4.113 -2.975,6.288l-0.829,1.912l1.67,1.246c1.909,1.425 3.83,2.762 5.709,3.975l1.904,1.229l1.5,-1.7c2.062,-2.342 4.142,-4.675 6.242,-7l2.72,-3.008Z" style="fill:#a09b7e;fill-rule:nonzero;"/><path d="M96.516,68.215c0.612,10.908 1.996,21.733 4.112,32.204c-10.462,-2.146 -21.283,-3.562 -32.191,-4.212c-5.75,-5.555 -9.092,-12.942 -10.2,-22.555c5.687,1.188 10.966,2.355 16.095,3.563l4.13,0.971l-0.959,-4.129c-1.179,-5.08 -2.329,-10.363 -3.512,-16.113c9.608,1.142 16.987,4.504 22.525,10.271m-25.084,2.921c-4.904,-1.117 -10.02,-2.217 -15.595,-3.359l-3.359,-0.687l0.2,3.421c0.75,12.941 5.084,23.108 12.879,30.221l0.692,0.633l0.938,0.05c12.345,0.683 24.554,2.367 36.283,5l4.05,0.912l-0.896,-4.05c-2.604,-11.72 -4.254,-23.933 -4.9,-36.295l-0.046,-0.938l-0.633,-0.696c-7.088,-7.812 -17.242,-12.179 -30.179,-12.971l-3.421,-0.208l0.675,3.358c1.121,5.567 2.208,10.684 3.312,15.609" style="fill:#a09b7e;fill-rule:nonzero;"/><path d="M128.287,27.411l3.013,2.721l1.258,-3.858c0.967,-2.979 1.959,-5.942 2.963,-8.896l0.725,-2.146l-2.009,-1.042c-1.983,-1.025 -4.1,-2.025 -6.287,-2.975l-1.917,-0.829l-1.246,1.671c-1.475,1.979 -2.775,3.846 -3.97,5.713l-1.221,1.9l1.696,1.495c2.337,2.067 4.666,4.146 6.995,6.246" style="fill:#a09b7e;fill-rule:nonzero;"/><path d="M189.577,232.17c8.43,-2.838 16.367,-7.405 23.067,-13.284c4.888,14.129 8.296,29.025 10.15,44.329c-12.296,-9.287 -23.458,-19.725 -33.217,-31.045m-5.283,-3.905l-0.929,0.255c-10.104,2.545 -20.767,2.533 -30.842,-0.042l-0.958,-0.263c-10.388,-2.829 -19.925,-8.362 -27.588,-15.987l-0.304,-0.304c-7.604,-7.688 -13.104,-17.242 -15.904,-27.634l-0.279,-1.054c-1.258,-5 -1.888,-10.154 -1.879,-15.312c0.008,-5.221 0.671,-10.429 1.966,-15.475l0.242,-0.888c2.833,-10.391 8.363,-19.933 15.988,-27.579l0.308,-0.308c7.671,-7.6 17.225,-13.1 27.633,-15.909l0.763,-0.208c10.15,-2.596 20.879,-2.596 31.021,0.004l0.941,0.254c10.392,2.834 19.934,8.363 27.588,15.992l0.3,0.3c7.604,7.675 13.104,17.229 15.908,27.633l0.254,0.946c1.271,5.034 1.913,10.221 1.904,15.421c-0.008,5.254 -0.675,10.483 -1.983,15.538l-0.225,0.825c-2.833,10.391 -8.358,19.929 -15.983,27.579l-0.309,0.308c-7.683,7.608 -17.237,13.108 -27.633,15.908m-16.442,49.584c-6,-14.184 -10.45,-28.8 -13.241,-43.492c8.729,1.75 17.879,1.767 26.616,0.042c-2.837,14.683 -7.329,29.287 -13.375,43.45m-54.891,-14.8c1.9,-15.304 5.358,-30.192 10.279,-44.296c6.692,5.896 14.612,10.492 23.029,13.35c-9.792,11.296 -20.987,21.696 -33.308,30.946m-40.142,-40.263c9.292,-12.296 19.725,-23.458 31.05,-33.216c2.833,8.425 7.4,16.362 13.275,23.07c-14.125,4.884 -29.025,8.292 -44.325,10.146m-14.633,-54.937c14.183,-5.996 28.8,-10.45 43.496,-13.246c-0.884,4.375 -1.334,8.846 -1.342,13.312c-0.004,4.463 0.429,8.934 1.3,13.305c-14.679,-2.834 -29.283,-7.33 -43.454,-13.371m14.8,-54.892c15.304,1.896 30.191,5.35 44.296,10.279c-5.896,6.688 -10.488,14.609 -13.35,23.025c-11.284,-9.783 -21.684,-20.975 -30.946,-33.304m40.262,-40.146c12.3,9.3 23.467,19.734 33.217,31.05c-8.433,2.842 -16.367,7.409 -23.067,13.284c-4.887,-14.121 -8.296,-29.021 -10.15,-44.334m54.938,-14.629c6,14.179 10.45,28.8 13.241,43.496c-4.37,-0.883 -8.841,-1.329 -13.304,-1.338l-0.1,0c-4.429,0 -8.866,0.438 -13.212,1.296c2.837,-14.683 7.333,-29.287 13.375,-43.454m54.891,14.796c-1.891,15.287 -5.35,30.179 -10.279,44.304c-6.683,-5.9 -14.608,-10.492 -23.029,-13.354c9.796,-11.3 20.992,-21.7 33.308,-30.95m40.142,40.262c-9.292,12.296 -19.725,23.459 -31.05,33.217c-2.833,-8.433 -7.4,-16.367 -13.275,-23.067c14.125,-4.887 29.021,-8.3 44.325,-10.15m14.633,54.942c-14.195,6 -28.812,10.45 -43.491,13.238c0.879,-4.367 1.329,-8.834 1.333,-13.3c0.008,-4.463 -0.429,-8.938 -1.296,-13.313c14.675,2.829 29.279,7.325 43.454,13.375m-14.795,54.888c-15.284,-1.892 -30.175,-5.346 -44.296,-10.28c5.896,-6.683 10.487,-14.604 13.346,-23.025c11.291,9.788 21.691,20.98 30.95,33.305m-45.117,-4.988c16.075,5.529 33.058,9.192 50.517,10.888l5.745,0.558l-3.345,-4.708c-10.167,-14.305 -21.792,-27.217 -34.571,-38.405c16.666,-3.241 33.208,-8.566 49.191,-15.825l5.259,-2.391l-5.25,-2.4c-15.954,-7.313 -32.479,-12.688 -49.146,-15.984c12.817,-11.141 24.479,-24.025 34.687,-38.3l3.359,-4.7l-5.75,0.542c-17.475,1.65 -34.471,5.263 -50.542,10.738c5.525,-16.071 9.188,-33.059 10.883,-50.513l0.559,-5.746l-4.704,3.342c-14.3,10.154 -27.217,21.779 -38.409,34.571c-3.25,-16.688 -8.575,-33.229 -15.829,-49.192l-2.387,-5.254l-2.405,5.25c-7.308,15.942 -12.679,32.467 -15.979,49.137c-11.137,-12.804 -24.016,-24.47 -38.3,-34.683l-4.7,-3.358l0.542,5.75c1.65,17.475 5.258,34.475 10.737,50.546c-16.058,-5.525 -33.045,-9.188 -50.516,-10.888l-5.75,-0.562l3.35,4.712c10.167,14.308 21.792,27.225 34.567,38.404c-16.688,3.25 -33.23,8.575 -49.188,15.829l-5.258,2.388l5.25,2.404c15.946,7.308 32.471,12.679 49.141,15.979c-12.808,11.142 -24.475,24.017 -34.687,38.3l-3.354,4.7l5.746,-0.541c17.47,-1.65 34.47,-5.259 50.545,-10.738c-5.52,16.058 -9.183,33.046 -10.887,50.517l-0.558,5.746l4.708,-3.346c14.308,-10.159 27.221,-21.784 38.408,-34.567c3.246,16.683 8.571,33.225 15.829,49.188l2.388,5.258l2.404,-5.25c7.308,-15.954 12.679,-32.475 15.975,-49.142c11.15,12.817 24.029,24.479 38.304,34.688l4.696,3.354l-0.542,-5.75c-1.645,-17.475 -5.258,-34.475 -10.733,-50.546" style="fill:#a09b7e;fill-rule:nonzero;"/><path d="M25.762,141.187c5.538,-1.821 10.692,-3.446 15.725,-4.967l4.058,-1.221l-2.891,-3.1c-3.609,-3.858 -7.246,-7.854 -11.1,-12.191c8.891,-3.821 16.966,-4.592 24.641,-2.367c6.005,9.154 12.613,17.837 19.667,25.829c-10.121,3.367 -20.204,7.554 -29.987,12.45c-7.755,-1.933 -14.342,-6.662 -20.113,-14.433m20.796,19.991l0.837,-0.425c11.063,-5.591 22.475,-10.241 33.925,-13.808l3.967,-1.237l-2.808,-3.059c-8.104,-8.841 -15.638,-18.591 -22.392,-28.983l-0.508,-0.788l-0.896,-0.287c-10.038,-3.225 -21.013,-1.925 -32.621,3.858l-3.062,1.529l2.262,2.571c3.767,4.271 7.267,8.159 10.675,11.859c-4.842,1.495 -9.821,3.1 -15.192,4.887l-3.25,1.088l1.884,2.862c7.125,10.833 15.962,17.471 26.262,19.733l0.917,0.2Z" style="fill:#a09b7e;fill-rule:nonzero;"/><path d="M120.124,31.399c4.216,3.771 8.304,7.516 12.158,11.137l3.088,2.904l1.237,-4.054c1.563,-5.125 3.208,-10.275 5.017,-15.712c7.754,5.796 12.458,12.4 14.371,20.158c-4.925,9.771 -9.142,19.838 -12.542,29.946c-7.979,-7.083 -16.642,-13.721 -25.771,-19.742c-2.2,-7.683 -1.4,-15.754 2.442,-24.637m-6.913,28.008l0.788,0.513c10.362,6.77 20.091,14.333 28.916,22.475l3.055,2.812l1.245,-3.958c3.6,-11.438 8.284,-22.838 13.909,-33.879l0.429,-0.838l-0.2,-0.917c-2.229,-10.308 -8.842,-19.162 -19.65,-26.32l-2.854,-1.896l-1.096,3.246c-1.779,5.27 -3.4,10.25 -4.942,15.179c-3.746,-3.471 -7.716,-7.071 -11.829,-10.713l-2.562,-2.271l-1.538,3.059c-5.821,11.591 -7.15,22.562 -3.954,32.612l0.283,0.896Z" style="fill:#a09b7e;fill-rule:nonzero;"/><path d="M63.308,66.113l3.971,0.85l-0.842,-3.975c-0.65,-3.058 -1.275,-6.12 -1.883,-9.179l-0.438,-2.221l-2.262,0.105c-2.192,0.095 -4.521,0.287 -6.934,0.562l-2.075,0.233l-0.241,2.075c-0.284,2.405 -0.479,4.738 -0.584,6.938l-0.108,2.258l2.217,0.446c3.058,0.617 6.116,1.254 9.179,1.908" style="fill:#a09b7e;fill-rule:nonzero;"/><path d="M30.253,130.878l-2.716,-3.021c-2.092,-2.329 -4.163,-4.671 -6.221,-7.017l-1.492,-1.7l-1.908,1.221c-1.888,1.204 -3.813,2.538 -5.725,3.954l-1.675,1.242l0.825,1.921c0.954,2.204 1.946,4.321 2.958,6.287l1.029,2.017l2.15,-0.721c2.954,-0.991 5.925,-1.975 8.909,-2.937l3.866,-1.246Z" style="fill:#a09b7e;fill-rule:nonzero;"/></svg>