<?xml version="1.0" encoding="UTF-8" standalone="no"?><!DOCTYPE svg PUBLIC "-//W3C//DTD SVG 1.1//EN" "http://www.w3.org/Graphics/SVG/1.1/DTD/svg11.dtd"><svg width="100%" height="100%" viewBox="0 0 377 377" version="1.1" xmlns="http://www.w3.org/2000/svg" xmlns:xlink="http://www.w3.org/1999/xlink" xml:space="preserve" xmlns:serif="http://www.serif.com/" style="fill-rule:evenodd;clip-rule:evenodd;stroke-linejoin:round;stroke-miterlimit:2;"><g><path d="M240.894,192.637c0.008,-5.642 -4.313,-10.9 -10.613,-10.909c-5.908,-0.012 -10.637,4.709 -10.65,10.875c-0.008,6.43 5.363,10.642 10.617,10.646c6.3,0.013 10.637,-4.575 10.646,-10.612" style="fill:#f9eed2;fill-rule:nonzero;"/><path d="M180.785,182.046c-5.25,-0.008 -9.05,-6.183 -9.033,-16.158c0.013,-8.925 3.954,-12.859 8.025,-12.85c4.725,0.004 8.529,5.004 8.513,15.629c-0.017,9.587 -3.434,13.383 -7.505,13.379m-10.279,28.333c1.179,-0.916 3.809,-1.696 7.35,-1.691l8.796,0.012c7.221,0.013 12.858,3.038 12.846,10.646c-0.008,6.304 -5.529,10.362 -13.796,10.35c-10.371,-0.013 -17.058,-5.8 -17.046,-14.721c0.004,-1.712 0.534,-3.412 1.85,-4.596m29.354,-58.496c-4.85,-2.633 -11.804,-4.87 -19.55,-4.883c-17.058,-0.025 -25.608,10.196 -25.625,21.096c-0.012,8.004 4.571,14.308 11.134,16.946c0.654,1.183 0.125,1.971 -1.059,2.883c-0.787,0.792 -4.729,3.804 -8.408,6.158c-0.658,0.659 -0.917,1.705 -0.921,2.75c-0.004,4.596 3.267,8.938 8.121,10.517c1.05,0.263 1.442,0.921 -0.137,1.838c-1.442,0.783 -3.805,2.491 -6.434,4.058c-2.233,1.312 -4.204,3.404 -4.208,6.562c-0.013,8.134 6.8,16.805 25.696,16.834c7.616,0.012 16.15,-1.679 22.979,-5.738c6.829,-4.191 11.829,-11.537 11.842,-19.804c0.02,-13.254 -10.471,-15.896 -20.321,-15.908c-6.167,-0.009 -11.546,0.241 -16.013,0.233c-3.933,-0.004 -6.691,-1.85 -6.687,-4.733c0.004,-1.571 0.925,-2.625 2.237,-3.15c1.442,0.137 3.284,0.4 5.384,0.404c20.737,0.029 26.925,-12.558 26.941,-22.929c0.004,-2.234 -0.129,-3.413 -0.387,-4.592l9.712,0.013c1.313,-0.784 1.975,-3.15 1.975,-5.246c0.004,-1.446 -0.258,-2.492 -1.175,-3.288l-15.096,-0.021Z" style="fill:#f9eed2;fill-rule:nonzero;"/><path d="M308.949,308.916c-0.121,0.258 -0.217,0.533 -0.3,0.821c-0.062,-0.305 -0.121,-0.613 -0.187,-0.921c0.162,0.033 0.325,0.066 0.487,0.1m-3.679,-6.8l-4.442,-0.95l0.942,4.441c0.725,3.43 1.425,6.859 2.104,10.28l0.496,2.483l2.529,-0.113c2.483,-0.112 5.092,-0.325 7.763,-0.629l2.32,-0.266l0.271,-2.321c0.317,-2.704 0.538,-5.317 0.654,-7.759l0.125,-2.525l-2.483,-0.504c-3.421,-0.696 -6.85,-1.404 -10.279,-2.137" style="fill:#f9eed2;fill-rule:nonzero;"/><path d="M218.094,28.827c2.025,6.159 3.85,11.93 5.558,17.605l1.367,4.537l3.471,-3.233c4.358,-4.075 8.833,-8.15 13.65,-12.429c4.275,9.962 5.137,19 2.646,27.587c-10.217,6.688 -19.934,14.088 -28.909,22.004c-3.762,-11.304 -8.445,-22.587 -13.937,-33.558c2.162,-8.679 7.454,-16.054 16.154,-22.513m-6.446,62.184l1.384,4.433l3.425,-3.137c9.92,-9.092 20.837,-17.525 32.441,-25.059l0.884,-0.571l0.316,-1c3.613,-11.229 2.163,-23.516 -4.308,-36.512l-1.713,-3.433l-2.879,2.533c-4.7,4.142 -9.054,8.058 -13.275,11.95c-1.687,-5.45 -3.483,-11.029 -5.475,-17l-1.212,-3.638l-3.204,2.105c-12.13,7.975 -19.559,17.866 -22.088,29.4l-0.221,1.025l0.471,0.937c6.271,12.396 11.471,25.171 15.454,37.967" style="fill:#f9eed2;fill-rule:nonzero;"/><path d="M268.107,299.761c-0.695,-12.237 -2.245,-24.354 -4.608,-36.041c11.704,2.4 23.817,3.983 36.029,4.708c6.438,6.217 10.179,14.487 11.421,25.25c-6.371,-1.333 -12.275,-2.638 -18.017,-3.988l-4.62,-1.087l1.07,4.621c1.309,5.641 2.6,11.55 3.934,18.033c-10.754,-1.275 -19.013,-5.042 -25.209,-11.496m28.071,-3.266c5.554,1.262 11.279,2.495 17.459,3.758l3.754,0.767l-0.221,-3.83c-0.842,-14.483 -5.692,-25.862 -14.417,-33.82l-0.779,-0.709l-1.046,-0.058c-13.821,-0.767 -27.483,-2.65 -40.612,-5.6l-4.529,-1.021l1.008,4.538c2.908,13.087 4.75,26.754 5.483,40.625l0.054,1.045l0.705,0.78c7.925,8.745 19.291,13.633 33.779,14.516l3.825,0.238l-0.759,-3.763c-1.258,-6.254 -2.475,-11.983 -3.704,-17.466" style="fill:#f9eed2;fill-rule:nonzero;"/><path d="M228.241,29.523l1.391,4.329l3.384,-3.037c2.608,-2.342 5.225,-4.663 7.854,-6.967l1.904,-1.671l-1.371,-2.133c-1.346,-2.112 -2.837,-4.267 -4.425,-6.408l-1.391,-1.875l-2.146,0.925c-2.463,1.062 -4.834,2.175 -7.038,3.308l-2.254,1.158l0.804,2.405c1.113,3.312 2.213,6.629 3.288,9.966" style="fill:#f9eed2;fill-rule:nonzero;"/><path d="M346.6,228.229l-4.329,1.392l3.041,3.383c2.342,2.608 4.659,5.229 6.963,7.854l1.671,1.904l2.133,-1.362c2.104,-1.346 4.258,-2.838 6.408,-4.433l1.871,-1.388l-0.921,-2.142c-1.05,-2.445 -2.166,-4.816 -3.308,-7.045l-1.158,-2.255l-2.404,0.805c-3.309,1.112 -6.63,2.212 -9.967,3.287" style="fill:#f9eed2;fill-rule:nonzero;"/><path d="M342.402,146.949l4.317,1.412c3.333,1.088 6.654,2.196 9.962,3.317l2.4,0.812l1.167,-2.25c1.146,-2.22 2.267,-4.587 3.329,-7.033l0.929,-2.142l-1.875,-1.395c-2.125,-1.584 -4.271,-3.08 -6.383,-4.446l-2.133,-1.375l-1.68,1.9c-2.312,2.621 -4.637,5.233 -6.987,7.833l-3.046,3.367Z" style="fill:#f9eed2;fill-rule:nonzero;"/><path d="M313.231,244.777c-6.696,-10.221 -14.091,-19.942 -22.008,-28.912c11.317,-3.763 22.596,-8.446 33.562,-13.934c8.675,2.163 16.05,7.454 22.513,16.154c-6.183,2.034 -11.954,3.855 -17.604,5.559l-4.542,1.366l3.242,3.471c4.008,4.288 8.079,8.759 12.421,13.646c-9.955,4.275 -18.992,5.146 -27.584,2.65m22.679,-16.867c5.492,-1.695 11.067,-3.491 17,-5.47l3.642,-1.217l-2.108,-3.2c-7.979,-12.133 -17.871,-19.558 -29.4,-22.083l-1.025,-0.225l-0.938,0.47c-12.383,6.263 -25.158,11.463 -37.966,15.45l-4.438,1.384l3.138,3.425c9.1,9.929 17.529,20.846 25.058,32.446l0.575,0.879l0.996,0.325c3.971,1.275 8.129,1.925 12.358,1.929l0.071,-0c7.662,-0 15.767,-2.104 24.087,-6.25l3.438,-1.713l-2.538,-2.875c-4.208,-4.77 -8.125,-9.125 -11.95,-13.275" style="fill:#f9eed2;fill-rule:nonzero;"/><path d="M340.98,134.447c-4.37,4.887 -8.454,9.345 -12.466,13.612l-3.25,3.458l4.537,1.38c5.671,1.729 11.434,3.566 17.584,5.612c-6.484,8.679 -13.875,13.95 -22.559,16.088c-10.929,-5.513 -22.196,-10.234 -33.516,-14.038c7.937,-8.942 15.366,-18.637 22.091,-28.846c8.6,-2.462 17.638,-1.566 27.579,2.734m-31.35,-7.738l-0.575,0.879c-7.57,11.588 -16.033,22.479 -25.154,32.367l-3.15,3.412l4.434,1.4c12.808,4.034 25.566,9.275 37.925,15.571l0.933,0.475l1.025,-0.221c11.537,-2.495 21.45,-9.895 29.467,-22l2.112,-3.191l-3.633,-1.229c-5.959,-2.009 -11.529,-3.821 -16.984,-5.525c3.805,-4.1 7.738,-8.442 11.988,-13.234l2.546,-2.875l-3.425,-1.721c-12.971,-6.508 -25.254,-7.995 -36.509,-4.425l-1,0.317Z" style="fill:#f9eed2;fill-rule:nonzero;"/><path d="M268.444,76.593c6.213,-6.433 14.479,-10.175 25.242,-11.416c-1.35,6.462 -2.659,12.37 -3.988,18.016l-1.083,4.621l4.621,-1.071c5.733,-1.333 11.646,-2.621 18.029,-3.933c-1.275,10.754 -5.042,19.017 -11.496,25.208c-12.217,0.692 -24.333,2.242 -36.037,4.604c2.395,-11.679 3.979,-23.791 4.712,-36.029m-7.917,42.738c13.13,-2.913 26.796,-4.754 40.625,-5.479l1.046,-0.055l0.784,-0.704c8.745,-7.933 13.633,-19.3 14.516,-33.783l0.234,-3.825l-3.759,0.754c-6.216,1.25 -11.946,2.467 -17.471,3.708c1.255,-5.508 2.488,-11.233 3.759,-17.458l0.771,-3.758l-3.83,0.225c-14.487,0.841 -25.866,5.691 -33.82,14.412l-0.709,0.779l-0.054,1.046c-0.775,13.859 -2.658,27.521 -5.608,40.609l-1.021,4.533l4.537,-1.004Z" style="fill:#f9eed2;fill-rule:nonzero;"/><path d="M315.898,72.248l2.484,-0.496l-0.117,-2.529c-0.108,-2.483 -0.321,-5.092 -0.629,-7.758l-0.263,-2.325l-2.321,-0.271c-2.7,-0.317 -5.312,-0.534 -7.758,-0.65l-2.529,-0.125l-0.504,2.479c-0.692,3.425 -1.404,6.85 -2.138,10.283l-0.946,4.442l4.442,-0.946c3.425,-0.725 6.858,-1.421 10.279,-2.104" style="fill:#f9eed2;fill-rule:nonzero;"/><path d="M343.096,255.437l-0.896,0.521c-5.875,3.504 -11.754,6.642 -17.479,9.321l-1.867,0.871l0.179,2.046c1.4,16.65 0.521,34.333 -2.621,52.575l-1.458,0.241c-17.729,2.896 -34.933,3.651 -51.137,2.234l-2.05,-0.184l-0.88,1.863c-5.766,12.262 -13.179,24.379 -22.037,36.021c-2.167,2.841 -4.371,5.604 -6.55,8.229c-17.321,-6.429 -33.054,-14.558 -46.771,-24.162l-1.683,-1.184l-1.692,1.175c-6.429,4.463 -13.396,8.663 -20.704,12.479c-5.317,2.767 -10.317,5.134 -15.288,7.242c-3.55,1.517 -7.195,2.958 -10.85,4.3c-0.187,-0.229 -0.37,-0.454 -0.554,-0.671c-11.575,-14.083 -20.962,-28.771 -27.9,-43.654l-0.871,-1.871l-2.05,0.175c-16.516,1.4 -34.083,0.538 -52.225,-2.562l-0.37,-0.063c-2.13,-12.475 -3.196,-24.771 -3.18,-36.554c0.009,-5.454 0.246,-10.85 0.7,-16.033l0.184,-2.05l-1.859,-0.875c-3.229,-1.521 -6.545,-3.221 -10.145,-5.188c-11.617,-6.354 -23.084,-14.216 -34.088,-23.375c5.104,-13.741 11.296,-26.525 18.4,-37.991c2.029,-3.28 3.913,-6.159 5.775,-8.821l1.304,-1.934l-1.404,-1.558c-9.517,-13.696 -17.567,-29.417 -23.933,-46.721c1.179,-0.975 2.362,-1.937 3.558,-2.887c13.192,-10.496 26.904,-19.088 40.767,-25.542l1.858,-0.896l-0.175,-2.041c-1.408,-16.663 -0.521,-34.35 2.638,-52.588c16.925,-2.871 33.475,-3.783 49.212,-2.704l1.163,0.079c0.741,0.05 1.487,0.096 2.22,0.163l2.055,0.183l0.875,-1.867c5.166,-10.996 11.712,-21.941 19.454,-32.537c2.95,-4.046 6.016,-7.979 9.112,-11.696c15.579,5.779 29.95,12.987 42.738,21.442l0.533,0.35c1.183,0.775 2.371,1.558 3.533,2.362l1.68,1.171l1.683,-1.171c13.708,-9.537 29.471,-17.617 46.854,-24.008c6.467,7.791 12.388,15.996 17.608,24.387c4.134,6.663 7.78,13.367 10.838,19.929l0.883,1.9l2.084,-0.212c0.862,-0.083 1.729,-0.133 2.595,-0.183l0.896,-0.055c15.65,-1.004 32.15,-0.045 49.05,2.867c3.092,18.25 3.917,35.95 2.463,52.617l-0.179,2.05l1.866,0.875c14.821,6.95 29.475,16.371 43.546,27.996l0.679,0.562c-5.308,14.325 -11.866,27.688 -19.487,39.733c-1.434,2.246 -2.992,4.654 -4.675,7.034l-1.192,1.687l1.183,1.7c4.234,6.083 8.238,12.675 11.9,19.583c4.542,8.563 8.621,17.742 12.125,27.284c-8.512,7.041 -17.241,13.296 -25.941,18.591m19.025,-48.637c-3.429,-6.475 -7.167,-12.696 -11.104,-18.5c1.341,-1.971 2.595,-3.917 3.658,-5.579c8.192,-12.946 15.179,-27.354 20.758,-42.821l0.684,-1.892l-1.513,-1.325c-0.487,-0.429 -0.983,-0.837 -1.471,-1.241l-0.85,-0.713c-13.883,-11.466 -28.337,-20.854 -42.971,-27.921c1.309,-17.204 0.284,-35.416 -3.05,-54.146l-0.358,-2.016l-2.021,-0.367c-18.071,-3.271 -35.733,-4.387 -52.496,-3.304l-1.616,0.096c-2.971,-6.188 -6.438,-12.475 -10.3,-18.7c-5.729,-9.217 -12.267,-18.188 -19.434,-26.663l-1.316,-1.558l-1.929,0.688c-17.93,6.424 -34.238,14.587 -48.484,24.27c-0.646,-0.433 -1.296,-0.858 -1.946,-1.287l-0.55,-0.358c-13.704,-9.059 -29.15,-16.721 -45.908,-22.771l-1.925,-0.692l-1.321,1.558c-3.641,4.284 -7.241,8.863 -10.7,13.605c-7.529,10.304 -13.971,20.958 -19.154,31.67l-1.446,-0.091c-16.841,-1.159 -34.562,-0.105 -52.675,3.129l-2.021,0.358l-0.362,2.017c-3.417,18.775 -4.504,36.987 -3.225,54.137c-13.646,6.538 -27.129,15.075 -40.092,25.392c-1.779,1.417 -3.533,2.85 -5.271,4.321l-1.554,1.321l0.688,1.921c6.408,17.9 14.575,34.204 24.275,48.479c-1.554,2.283 -3.121,4.708 -4.779,7.387c-7.65,12.35 -14.259,26.15 -19.642,41.021l-0.7,1.933l1.567,1.321c11.795,9.988 24.125,18.525 36.645,25.371c3.03,1.658 5.855,3.125 8.609,4.462c-0.359,4.717 -0.546,9.592 -0.554,14.505c-0.021,12.779 1.2,26.116 3.625,39.633l0.354,1.975l1.966,0.392c0.525,0.108 1.05,0.191 1.705,0.304l0.8,0.133c17.891,3.058 35.275,3.996 51.67,2.788c7.055,14.7 16.417,29.187 27.838,43.087c0.404,0.475 0.8,0.963 1.237,1.504l1.917,2.35l1.958,-0.696c4.438,-1.583 8.855,-3.312 13.134,-5.137c5.104,-2.162 10.241,-4.596 15.704,-7.437c6.9,-3.605 13.508,-7.542 19.654,-11.709c14.25,9.75 30.533,17.967 48.4,24.429l1.929,0.696l1.325,-1.567c2.713,-3.216 5.425,-6.591 8.059,-10.041c8.662,-11.388 15.995,-23.238 21.8,-35.233c16.095,1.22 33.104,0.404 50.575,-2.459l1.204,-0.196c0.787,-0.129 1.566,-0.254 2.358,-0.4l2.008,-0.362l0.367,-2.013c3.392,-18.716 4.471,-36.92 3.213,-54.116c5.304,-2.554 10.741,-5.488 16.154,-8.717l0.762,-0.442c9.579,-5.812 19.142,-12.729 28.425,-20.541l1.571,-1.317l-0.692,-1.933c-3.75,-10.509 -8.183,-20.6 -13.166,-29.992" style="fill:#f9eed2;fill-rule:nonzero;"/><path d="M60.237,303.867l-2.484,0.496l0.113,2.529c0.112,2.475 0.316,5.013 0.633,7.758l0.263,2.321l2.32,0.271c2.663,0.317 5.271,0.538 7.759,0.658l2.529,0.121l0.504,-2.479c0.692,-3.425 1.404,-6.85 2.138,-10.279l0.945,-4.442l-4.437,0.938c-3.429,0.725 -6.858,1.425 -10.283,2.108" style="fill:#f9eed2;fill-rule:nonzero;"/><path d="M107.696,299.52c-6.217,6.434 -14.488,10.18 -25.246,11.421c1.346,-6.446 2.654,-12.354 3.987,-18.021l1.084,-4.62l-4.621,1.07c-5.683,1.321 -11.592,2.609 -18.033,3.934c1.275,-10.754 5.041,-19.013 11.495,-25.209c12.209,-0.691 24.33,-2.237 36.046,-4.604c-2.404,11.704 -3.987,23.821 -4.712,36.029m7.916,-42.737c-13.133,2.912 -26.804,4.758 -40.633,5.479l-1.046,0.054l-0.779,0.704c-8.75,7.934 -13.633,19.3 -14.517,33.784l-0.233,3.825l3.758,-0.759c6.25,-1.254 11.98,-2.47 17.467,-3.704c-1.258,5.542 -2.492,11.267 -3.758,17.459l-0.767,3.758l3.829,-0.225c14.484,-0.842 25.863,-5.688 33.825,-14.413l0.709,-0.779l0.054,-1.046c0.766,-13.837 2.65,-27.5 5.608,-40.612l1.017,-4.529l-4.534,1.004Z" style="fill:#f9eed2;fill-rule:nonzero;"/><path d="M147.896,346.59l-1.396,-4.33l-3.379,3.042c-2.609,2.342 -5.225,4.658 -7.854,6.963l-1.905,1.67l1.367,2.134c1.346,2.112 2.838,4.271 4.429,6.408l1.388,1.875l2.146,-0.925c2.466,-1.062 4.837,-2.175 7.041,-3.308l2.259,-1.159l-0.809,-2.4c-1.112,-3.312 -2.212,-6.633 -3.287,-9.97" style="fill:#f9eed2;fill-rule:nonzero;"/><path d="M35.158,241.668c4.367,-4.883 8.45,-9.341 12.462,-13.612l3.25,-3.459l-4.537,-1.379c-5.608,-1.712 -11.375,-3.55 -17.588,-5.612c6.488,-8.679 13.88,-13.95 22.563,-16.084c10.958,5.521 22.229,10.238 33.521,14.03c-7.929,8.937 -15.359,18.637 -22.1,28.85c-8.596,2.466 -17.629,1.57 -27.571,-2.734m31.346,7.738l0.575,-0.879c7.596,-11.617 16.062,-22.509 25.158,-32.371l3.15,-3.417l-4.433,-1.396c-12.779,-4.016 -25.538,-9.254 -37.929,-15.562l-0.934,-0.475l-1.025,0.221c-11.537,2.491 -21.45,9.891 -29.462,21.991l-2.121,3.196l3.637,1.229c5.996,2.017 11.567,3.829 16.984,5.521c-3.842,4.146 -7.771,8.488 -11.984,13.238l-2.545,2.875l3.429,1.72c8.333,4.184 16.454,6.309 24.137,6.321l0.063,0c4.208,0 8.346,-0.637 12.3,-1.896l1,-0.316Z" style="fill:#f9eed2;fill-rule:nonzero;"/><path d="M158.042,347.287c-2.016,-6.12 -3.837,-11.891 -5.562,-17.604l-1.371,-4.541l-3.467,3.241c-4.354,4.075 -8.829,8.146 -13.645,12.425c-4.275,-9.954 -5.142,-18.991 -2.65,-27.587c10.245,-6.709 19.966,-14.113 28.916,-22.009c3.763,11.325 8.45,22.609 13.934,33.563c-2.167,8.679 -7.459,16.054 -16.155,22.512m6.446,-62.187l-1.383,-4.438l-3.425,3.142c-9.9,9.079 -20.817,17.513 -32.446,25.063l-0.879,0.57l-0.321,1c-3.608,11.242 -2.158,23.525 4.317,36.513l1.712,3.429l2.875,-2.533c4.684,-4.121 9.038,-8.038 13.275,-11.946c1.7,5.496 3.496,11.075 5.479,17l1.213,3.637l3.204,-2.104c12.125,-7.979 19.554,-17.871 22.083,-29.396l0.225,-1.029l-0.475,-0.937c-6.258,-12.371 -11.458,-25.146 -15.454,-37.971" style="fill:#f9eed2;fill-rule:nonzero;"/><path d="M241.678,340.967c-4.846,-4.329 -9.308,-8.417 -13.612,-12.462l-3.454,-3.25l-1.388,4.537c-1.737,5.7 -3.575,11.467 -5.608,17.583c-8.684,-6.483 -13.95,-13.875 -16.088,-22.558c5.517,-10.942 10.238,-22.212 14.038,-33.521c8.946,7.942 18.641,15.371 28.846,22.1c2.462,8.592 1.57,17.625 -2.734,27.571m7.738,-31.346l-0.879,-0.575c-11.592,-7.575 -22.484,-16.037 -32.367,-25.158l-3.417,-3.15l-1.396,4.433c-4.029,12.8 -9.27,25.559 -15.57,37.925l-0.475,0.938l0.22,1.021c2.492,11.537 9.892,21.454 21.996,29.466l3.2,2.113l1.221,-3.629c2.008,-5.959 3.821,-11.53 5.525,-16.984c4.192,3.884 8.533,7.813 13.246,11.984l2.871,2.541l1.721,-3.425c6.508,-12.975 7.995,-25.254 4.42,-36.5l-0.316,-1Z" style="fill:#f9eed2;fill-rule:nonzero;"/><path d="M232.54,345.434l-3.37,-3.042l-1.409,4.317c-1.083,3.333 -2.191,6.654 -3.316,9.954l-0.817,2.404l2.254,1.167c2.196,1.133 4.563,2.258 7.033,3.329l2.142,0.929l1.396,-1.87c1.625,-2.18 3.121,-4.33 4.45,-6.392l1.367,-2.133l-1.9,-1.675c-2.617,-2.305 -5.225,-4.642 -7.83,-6.988" style="fill:#f9eed2;fill-rule:nonzero;"/><path d="M33.733,229.163l-4.316,-1.413c-3.334,-1.087 -6.65,-2.191 -9.959,-3.316l-2.404,-0.817l-1.162,2.254c-1.155,2.234 -2.275,4.6 -3.334,7.038l-0.925,2.137l1.871,1.4c2.133,1.596 4.283,3.092 6.388,4.446l2.129,1.375l1.679,-1.9c2.312,-2.621 4.637,-5.233 6.987,-7.833l3.046,-3.371Z" style="fill:#f9eed2;fill-rule:nonzero;"/><path d="M108.032,76.353c0.688,12.209 2.234,24.33 4.605,36.042c-11.713,-2.4 -23.825,-3.983 -36.034,-4.708c-6.433,-6.217 -10.179,-14.488 -11.421,-25.25c6.371,1.333 12.275,2.637 18.021,3.987l4.621,1.088l-1.071,-4.621c-1.321,-5.688 -2.608,-11.6 -3.933,-18.033c10.754,1.275 19.017,5.041 25.212,11.495m-28.075,3.267c-5.491,-1.246 -11.216,-2.479 -17.458,-3.758l-3.758,-0.767l0.225,3.829c0.841,14.484 5.691,25.863 14.416,33.821l0.775,0.708l1.046,0.059c13.821,0.766 27.484,2.65 40.617,5.6l4.533,1.021l-1.008,-4.538c-2.917,-13.117 -4.758,-26.783 -5.483,-40.625l-0.055,-1.046l-0.704,-0.783c-7.933,-8.746 -19.3,-13.629 -33.783,-14.513l-3.825,-0.237l0.754,3.762c1.254,6.225 2.471,11.955 3.708,17.467" style="fill:#f9eed2;fill-rule:nonzero;"/><path d="M143.595,30.682l3.375,3.045l1.404,-4.32c1.083,-3.334 2.191,-6.65 3.316,-9.959l0.813,-2.4l-2.25,-1.166c-2.217,-1.146 -4.588,-2.267 -7.038,-3.33l-2.141,-0.929l-1.396,1.871c-1.654,2.217 -3.104,4.308 -4.446,6.396l-1.367,2.125l1.896,1.675c2.621,2.312 5.229,4.642 7.834,6.992" style="fill:#f9eed2;fill-rule:nonzero;"/><path d="M212.196,259.866c9.438,-3.171 18.317,-8.288 25.821,-14.867c5.467,15.813 9.283,32.488 11.358,49.617c-13.762,-10.396 -26.258,-22.075 -37.179,-34.75m-5.912,-4.367l-1.042,0.283c-11.308,2.85 -23.246,2.838 -34.521,-0.045l-1.075,-0.296c-11.625,-3.167 -22.3,-9.359 -30.875,-17.896l-0.341,-0.342c-8.513,-8.6 -14.667,-19.296 -17.8,-30.929l-0.317,-1.175c-1.404,-5.604 -2.108,-11.367 -2.1,-17.142c0.008,-5.841 0.75,-11.675 2.2,-17.325l0.271,-0.991c3.175,-11.634 9.362,-22.309 17.896,-30.871l0.345,-0.342c8.588,-8.508 19.28,-14.666 30.93,-17.808l0.85,-0.229c11.362,-2.909 23.375,-2.909 34.725,-0l1.054,0.287c11.629,3.171 22.308,9.363 30.879,17.9l0.337,0.338c8.509,8.587 14.667,19.283 17.805,30.925l0.283,1.058c1.425,5.638 2.142,11.446 2.133,17.267c-0.008,5.875 -0.758,11.729 -2.221,17.383l-0.25,0.929c-3.175,11.629 -9.358,22.309 -17.891,30.871l-0.346,0.342c-8.6,8.516 -19.292,14.671 -30.929,17.808m-18.404,55.496c-6.713,-15.875 -11.696,-32.238 -14.821,-48.679c9.766,1.958 20.012,1.975 29.791,0.046c-3.175,16.433 -8.204,32.779 -14.97,48.633m-61.442,-16.563c2.129,-17.133 5.996,-33.795 11.508,-49.583c7.488,6.6 16.354,11.742 25.771,14.946c-10.954,12.642 -23.483,24.283 -37.279,34.637m-44.929,-45.07c10.4,-13.763 22.079,-26.259 34.754,-37.175c3.171,9.429 8.283,18.312 14.858,25.82c-15.812,5.467 -32.487,9.284 -49.612,11.355m-16.375,-61.488c15.871,-6.717 32.229,-11.696 48.679,-14.825c-0.988,4.896 -1.492,9.9 -1.5,14.9c-0.008,4.992 0.483,9.996 1.454,14.892c-16.429,-3.175 -32.779,-8.209 -48.633,-14.967m16.562,-61.446c17.125,2.129 33.792,5.996 49.579,11.513c-6.6,7.483 -11.741,16.346 -14.941,25.771c-12.634,-10.95 -24.271,-23.484 -34.638,-37.284m45.063,-44.929c13.771,10.404 26.266,22.083 37.183,34.754c-9.442,3.175 -18.321,8.288 -25.821,14.863c-5.471,-15.804 -9.287,-32.479 -11.362,-49.617m61.491,-16.375c6.717,15.871 11.7,32.233 14.825,48.683c-4.895,-0.987 -9.9,-1.487 -14.891,-1.495l-0.117,-0c-4.954,-0 -9.921,0.487 -14.783,1.45c3.175,-16.434 8.204,-32.784 14.966,-48.638m61.446,16.563c-2.121,17.108 -5.991,33.775 -11.508,49.583c-7.483,-6.6 -16.35,-11.738 -25.779,-14.942c10.966,-12.65 23.5,-24.291 37.287,-34.641m44.929,45.062c-10.4,13.763 -22.079,26.258 -34.754,37.179c-3.175,-9.437 -8.287,-18.316 -14.862,-25.816c15.812,-5.471 32.487,-9.288 49.616,-11.363m16.38,61.496c-15.892,6.717 -32.25,11.7 -48.684,14.821c0.988,-4.888 1.488,-9.892 1.496,-14.892c0.008,-4.996 -0.483,-10 -1.45,-14.9c16.421,3.171 32.767,8.2 48.638,14.971m-16.563,61.437c-17.108,-2.12 -33.775,-5.987 -49.579,-11.504c6.6,-7.483 11.737,-16.35 14.937,-25.775c12.638,10.954 24.28,23.484 34.642,37.279m-50.5,-5.583c17.992,6.188 37.004,10.288 56.542,12.188l6.433,0.625l-3.742,-5.271c-11.379,-16.013 -24.391,-30.467 -38.695,-42.988c18.65,-3.629 37.166,-9.587 55.058,-17.712l5.883,-2.675l-5.875,-2.688c-17.854,-8.183 -36.354,-14.2 -55.008,-17.891c14.346,-12.471 27.4,-26.888 38.825,-42.867l3.758,-5.263l-6.433,0.609c-19.558,1.846 -38.583,5.887 -56.575,12.016c6.187,-17.987 10.283,-37 12.183,-56.541l0.625,-6.429l-5.266,3.741c-16.005,11.367 -30.459,24.379 -42.988,38.692c-3.637,-18.675 -9.596,-37.192 -17.721,-55.054l-2.671,-5.884l-2.691,5.875c-8.179,17.846 -14.188,36.338 -17.884,55c-12.466,-14.333 -26.883,-27.387 -42.87,-38.82l-5.259,-3.759l0.604,6.434c1.846,19.562 5.888,38.587 12.017,56.579c-17.975,-6.188 -36.987,-10.284 -56.542,-12.188l-6.433,-0.629l3.746,5.271c11.383,16.021 24.396,30.479 38.692,42.992c-18.675,3.637 -37.192,9.591 -55.059,17.716l-5.879,2.675l5.875,2.688c17.846,8.179 36.342,14.191 55.004,17.887c-14.337,12.467 -27.396,26.884 -38.829,42.867l-3.754,5.258l6.433,-0.604c19.559,-1.846 38.579,-5.887 56.575,-12.017c-6.179,17.971 -10.279,36.984 -12.187,56.538l-0.621,6.433l5.267,-3.741c16.012,-11.371 30.47,-24.384 42.991,-38.692c3.634,18.671 9.592,37.187 17.717,55.058l2.671,5.884l2.691,-5.875c8.184,-17.859 14.196,-36.355 17.884,-55.009c12.479,14.346 26.896,27.404 42.875,38.825l5.254,3.759l-0.604,-6.434c-1.846,-19.562 -5.888,-38.591 -12.017,-56.579" style="fill:#f9eed2;fill-rule:nonzero;"/><path d="M28.838,158.03c6.196,-2.038 11.967,-3.859 17.604,-5.559l4.542,-1.366l-3.242,-3.471c-4.037,-4.321 -8.108,-8.792 -12.421,-13.646c9.954,-4.275 18.992,-5.142 27.579,-2.65c6.721,10.246 14.121,19.967 22.013,28.912c-11.329,3.767 -22.613,8.455 -33.563,13.938c-8.679,-2.167 -16.054,-7.458 -22.512,-16.158m23.279,22.375l0.933,-0.475c12.384,-6.259 25.159,-11.463 37.975,-15.459l4.438,-1.379l-3.142,-3.425c-9.075,-9.896 -17.504,-20.812 -25.062,-32.442l-0.571,-0.879l-1,-0.321c-11.238,-3.612 -23.521,-2.158 -36.513,4.317l-3.433,1.713l2.538,2.875c4.216,4.783 8.133,9.133 11.945,13.275c-5.416,1.67 -10.991,3.466 -17.004,5.47l-3.637,1.217l2.108,3.2c7.975,12.129 17.867,19.558 29.396,22.088l1.029,0.225Z" style="fill:#f9eed2;fill-rule:nonzero;"/><path d="M134.457,35.143c4.72,4.221 9.295,8.413 13.612,12.467l3.454,3.25l1.384,-4.538c1.75,-5.737 3.591,-11.5 5.616,-17.587c8.675,6.487 13.946,13.879 16.084,22.567c-5.513,10.933 -10.234,22.2 -14.038,33.512c-8.929,-7.925 -18.625,-15.354 -28.846,-22.096c-2.462,-8.596 -1.566,-17.633 2.734,-27.575m-7.738,31.35l0.879,0.575c11.6,7.575 22.488,16.042 32.371,25.154l3.417,3.15l1.391,-4.433c4.034,-12.8 9.271,-25.558 15.571,-37.921l0.479,-0.937l-0.225,-1.025c-2.495,-11.538 -9.895,-21.45 -21.991,-29.463l-3.196,-2.116l-1.225,3.633c-1.996,5.896 -3.808,11.471 -5.533,16.987c-4.192,-3.887 -8.638,-7.916 -13.238,-11.991l-2.871,-2.542l-1.721,3.425c-6.512,12.971 -8,25.25 -4.425,36.5l0.317,1.004Z" style="fill:#f9eed2;fill-rule:nonzero;"/><path d="M70.863,74.002l4.442,0.95l-0.938,-4.446c-0.729,-3.425 -1.429,-6.854 -2.108,-10.275l-0.492,-2.488l-2.533,0.113c-2.45,0.112 -5.059,0.325 -7.759,0.633l-2.325,0.263l-0.266,2.32c-0.317,2.688 -0.538,5.3 -0.654,7.763l-0.121,2.529l2.479,0.504c3.421,0.688 6.846,1.4 10.275,2.134" style="fill:#f9eed2;fill-rule:nonzero;"/><path d="M33.865,146.491l-3.042,-3.384c-2.341,-2.604 -4.662,-5.225 -6.962,-7.85l-1.671,-1.904l-2.138,1.367c-2.108,1.35 -4.266,2.837 -6.404,4.425l-1.875,1.392l0.925,2.145c1.063,2.471 2.179,4.842 3.309,7.038l1.154,2.262l2.408,-0.808c3.304,-1.112 6.629,-2.212 9.967,-3.287l4.329,-1.396Z" style="fill:#f9eed2;fill-rule:nonzero;"/></g></svg>