<?xml version="1.0" encoding="UTF-8" standalone="no"?><!DOCTYPE svg PUBLIC "-//W3C//DTD SVG 1.1//EN" "http://www.w3.org/Graphics/SVG/1.1/DTD/svg11.dtd"><svg width="100%" height="100%" viewBox="0 0 377 377" version="1.1" xmlns="http://www.w3.org/2000/svg" xmlns:xlink="http://www.w3.org/1999/xlink" xml:space="preserve" xmlns:serif="http://www.serif.com/" style="fill-rule:evenodd;clip-rule:evenodd;stroke-linejoin:round;stroke-miterlimit:2;"><g><path d="M240.894,192.637c0.008,-5.642 -4.313,-10.9 -10.613,-10.913c-5.908,-0.008 -10.637,4.717 -10.65,10.879c-0.008,6.429 5.363,10.642 10.617,10.646c6.3,0.013 10.637,-4.575 10.646,-10.612" style="fill:#4e6b5f;fill-rule:nonzero;"/><path d="M180.785,182.045c-5.25,-0.008 -9.05,-6.183 -9.033,-16.158c0.013,-8.925 3.954,-12.858 8.025,-12.85c4.725,0.004 8.529,5.004 8.513,15.629c-0.017,9.588 -3.434,13.384 -7.505,13.379m-10.279,28.334c1.179,-0.917 3.809,-1.696 7.35,-1.692l8.796,0.013c7.221,0.012 12.858,3.037 12.846,10.645c-0.008,6.305 -5.529,10.363 -13.796,10.35c-10.371,-0.012 -17.058,-5.8 -17.046,-14.72c0.004,-1.713 0.534,-3.413 1.85,-4.596m29.354,-58.496c-4.85,-2.633 -11.804,-4.871 -19.55,-4.883c-17.058,-0.025 -25.608,10.195 -25.625,21.095c-0.012,8.005 4.571,14.313 11.134,16.946c0.654,1.184 0.125,1.971 -1.059,2.884c-0.787,0.791 -4.729,3.804 -8.408,6.158c-0.658,0.658 -0.917,1.704 -0.921,2.75c-0.004,4.596 3.267,8.937 8.121,10.517c1.05,0.262 1.442,0.92 -0.137,1.837c-1.442,0.783 -3.805,2.492 -6.434,4.058c-2.233,1.313 -4.204,3.405 -4.208,6.563c-0.013,8.133 6.8,16.804 25.696,16.833c7.616,0.013 16.15,-1.679 22.979,-5.737c6.829,-4.192 11.829,-11.538 11.842,-19.804c0.02,-13.255 -10.471,-15.896 -20.321,-15.909c-6.167,-0.008 -11.546,0.242 -16.013,0.234c-3.933,-0.005 -6.691,-1.85 -6.687,-4.734c0.004,-1.571 0.925,-2.625 2.237,-3.15c1.442,0.138 3.284,0.4 5.384,0.404c20.737,0.03 26.925,-12.558 26.941,-22.929c0.004,-2.233 -0.129,-3.408 -0.387,-4.591l9.712,0.012c1.313,-0.783 1.975,-3.15 1.975,-5.242c0.004,-1.45 -0.258,-2.495 -1.175,-3.287l-15.096,-0.025Z" style="fill:#4e6b5f;fill-rule:nonzero;"/><path d="M308.949,308.916c-0.121,0.259 -0.216,0.534 -0.3,0.821c-0.062,-0.304 -0.121,-0.612 -0.187,-0.921c0.162,0.034 0.325,0.067 0.487,0.1m-3.679,-6.804l-4.442,-0.946l0.942,4.442c0.725,3.429 1.425,6.858 2.104,10.279l0.496,2.483l2.529,-0.112c2.484,-0.113 5.092,-0.325 7.763,-0.629l2.321,-0.267l0.27,-2.321c0.317,-2.704 0.538,-5.316 0.655,-7.758l0.125,-2.525l-2.484,-0.508c-3.421,-0.692 -6.85,-1.4 -10.279,-2.138" style="fill:#4e6b5f;fill-rule:nonzero;"/><path d="M218.094,28.828c2.025,6.158 3.85,11.925 5.559,17.6l1.366,4.542l3.471,-3.238c4.358,-4.071 8.833,-8.146 13.65,-12.425c4.275,9.963 5.138,19 2.646,27.583c-10.217,6.692 -19.933,14.092 -28.908,22.009c-3.763,-11.304 -8.446,-22.588 -13.938,-33.559c2.163,-8.679 7.454,-16.054 16.154,-22.512m-6.446,62.183l1.384,4.434l3.425,-3.138c9.921,-9.092 20.837,-17.525 32.441,-25.058l0.884,-0.571l0.316,-1c3.613,-11.229 2.163,-23.517 -4.308,-36.513l-1.712,-3.433l-2.88,2.533c-4.7,4.138 -9.054,8.059 -13.275,11.95c-1.687,-5.45 -3.483,-11.029 -5.475,-17.004l-1.212,-3.637l-3.204,2.108c-12.129,7.975 -19.559,17.867 -22.088,29.4l-0.221,1.025l0.471,0.938c6.271,12.395 11.471,25.17 15.454,37.966" style="fill:#4e6b5f;fill-rule:nonzero;"/><path d="M268.108,299.761c-0.696,-12.237 -2.246,-24.354 -4.609,-36.041c11.704,2.4 23.817,3.983 36.029,4.708c6.438,6.217 10.18,14.487 11.421,25.25c-6.371,-1.333 -12.275,-2.638 -18.016,-3.988l-4.621,-1.087l1.071,4.621c1.308,5.641 2.6,11.55 3.933,18.033c-10.754,-1.275 -19.013,-5.042 -25.208,-11.496m28.07,-3.271c5.555,1.267 11.28,2.5 17.459,3.763l3.754,0.767l-0.221,-3.83c-0.842,-14.483 -5.692,-25.862 -14.417,-33.82l-0.779,-0.709l-1.046,-0.058c-13.82,-0.767 -27.483,-2.65 -40.612,-5.604l-4.529,-1.013l1.008,4.529c2.908,13.092 4.75,26.759 5.483,40.63l0.055,1.045l0.704,0.78c7.925,8.745 19.291,13.633 33.779,14.516l3.825,0.238l-0.758,-3.763c-1.259,-6.25 -2.475,-11.979 -3.705,-17.471" style="fill:#4e6b5f;fill-rule:nonzero;"/><path d="M228.241,29.523l1.391,4.33l3.384,-3.038c2.608,-2.342 5.225,-4.662 7.854,-6.967l1.904,-1.67l-1.371,-2.134c-1.346,-2.112 -2.837,-4.266 -4.425,-6.404l-1.391,-1.879l-2.146,0.925c-2.463,1.062 -4.834,2.175 -7.038,3.308l-2.254,1.163l0.804,2.4c1.113,3.312 2.213,6.629 3.288,9.966" style="fill:#4e6b5f;fill-rule:nonzero;"/><path d="M346.6,228.229l-4.329,1.392l3.042,3.383c2.341,2.609 4.658,5.229 6.962,7.854l1.671,1.905l2.133,-1.363c2.104,-1.346 4.259,-2.837 6.409,-4.433l1.87,-1.388l-0.92,-2.141c-1.05,-2.45 -2.167,-4.817 -3.309,-7.046l-1.158,-2.254l-2.404,0.804c-3.309,1.112 -6.629,2.212 -9.967,3.287" style="fill:#4e6b5f;fill-rule:nonzero;"/><path d="M342.402,146.949l4.317,1.412c3.333,1.088 6.654,2.196 9.962,3.317l2.4,0.812l1.167,-2.25c1.146,-2.22 2.267,-4.587 3.329,-7.033l0.929,-2.142l-1.875,-1.395c-2.125,-1.584 -4.271,-3.08 -6.383,-4.446l-2.133,-1.375l-1.68,1.9c-2.312,2.621 -4.637,5.233 -6.987,7.833l-3.046,3.367Z" style="fill:#4e6b5f;fill-rule:nonzero;"/><path d="M313.231,244.777c-6.696,-10.221 -14.091,-19.942 -22.008,-28.913c11.317,-3.762 22.596,-8.446 33.562,-13.933c8.675,2.162 16.05,7.454 22.513,16.154c-6.183,2.033 -11.954,3.854 -17.604,5.558l-4.542,1.367l3.242,3.471c4.008,4.287 8.079,8.762 12.421,13.646c-9.955,4.275 -18.992,5.145 -27.584,2.65m22.679,-16.867c5.492,-1.696 11.067,-3.492 17,-5.471l3.642,-1.217l-2.108,-3.2c-7.979,-12.129 -17.871,-19.558 -29.4,-22.083l-1.025,-0.225l-0.938,0.471c-12.383,6.262 -25.158,11.462 -37.966,15.45l-4.438,1.383l3.138,3.425c9.1,9.929 17.529,20.846 25.058,32.446l0.575,0.879l0.996,0.325c3.971,1.275 8.129,1.925 12.358,1.929l0.071,0c7.662,0 15.767,-2.104 24.087,-6.25l3.438,-1.712l-2.538,-2.875c-4.208,-4.771 -8.125,-9.125 -11.95,-13.275" style="fill:#4e6b5f;fill-rule:nonzero;"/><path d="M340.98,134.447c-4.37,4.887 -8.454,9.346 -12.466,13.612l-3.25,3.459l4.537,1.379c5.671,1.729 11.434,3.566 17.584,5.612c-6.484,8.679 -13.875,13.95 -22.559,16.088c-10.929,-5.513 -22.196,-10.234 -33.516,-14.038c7.937,-8.941 15.366,-18.637 22.091,-28.846c8.6,-2.462 17.638,-1.566 27.579,2.734m-31.35,-7.738l-0.575,0.879c-7.57,11.588 -16.033,22.48 -25.154,32.367l-3.15,3.413l4.434,1.395c12.808,4.038 25.566,9.28 37.925,15.575l0.933,0.475l1.025,-0.22c11.537,-2.496 21.45,-9.896 29.467,-21.996l2.112,-3.196l-3.633,-1.229c-5.959,-2.009 -11.529,-3.821 -16.984,-5.525c3.805,-4.1 7.738,-8.446 11.988,-13.234l2.546,-2.875l-3.425,-1.72c-12.971,-6.509 -25.254,-7.996 -36.509,-4.425l-1,0.316Z" style="fill:#4e6b5f;fill-rule:nonzero;"/><path d="M268.444,76.593c6.213,-6.433 14.479,-10.179 25.242,-11.42c-1.35,6.466 -2.659,12.375 -3.988,18.02l-1.083,4.621l4.621,-1.071c5.733,-1.333 11.646,-2.62 18.029,-3.933c-1.275,10.758 -5.042,19.017 -11.496,25.213c-12.217,0.687 -24.333,2.237 -36.037,4.6c2.395,-11.68 3.979,-23.792 4.712,-36.03m-7.917,42.738c13.13,-2.913 26.796,-4.754 40.625,-5.479l1.046,-0.054l0.784,-0.705c8.745,-7.933 13.633,-19.3 14.516,-33.783l0.234,-3.825l-3.759,0.754c-6.216,1.25 -11.946,2.467 -17.471,3.709c1.255,-5.509 2.488,-11.234 3.759,-17.459l0.771,-3.758l-3.83,0.225c-14.487,0.842 -25.866,5.692 -33.82,14.412l-0.709,0.775l-0.054,1.05c-0.775,13.859 -2.658,27.521 -5.608,40.613l-1.021,4.529l4.537,-1.004Z" style="fill:#4e6b5f;fill-rule:nonzero;"/><path d="M315.898,72.247l2.484,-0.496l-0.117,-2.529c-0.108,-2.483 -0.321,-5.092 -0.629,-7.758l-0.263,-2.325l-2.32,-0.267c-2.7,-0.321 -5.313,-0.537 -7.759,-0.654l-2.529,-0.125l-0.504,2.479c-0.692,3.425 -1.404,6.85 -2.138,10.283l-0.945,4.442l4.441,-0.946c3.425,-0.725 6.859,-1.421 10.279,-2.104" style="fill:#4e6b5f;fill-rule:nonzero;"/><path d="M343.096,255.438l-0.896,0.52c-5.875,3.505 -11.754,6.642 -17.479,9.321l-1.867,0.871l0.179,2.046c1.4,16.65 0.521,34.333 -2.62,52.575l-1.459,0.242c-17.729,2.895 -34.933,3.65 -51.137,2.233l-2.05,-0.183l-0.879,1.866c-5.767,12.259 -13.18,24.375 -22.038,36.017c-2.167,2.842 -4.371,5.608 -6.55,8.229c-17.321,-6.429 -33.054,-14.558 -46.771,-24.162l-1.683,-1.184l-1.692,1.175c-6.429,4.463 -13.396,8.663 -20.704,12.479c-5.317,2.767 -10.317,5.134 -15.287,7.238c-3.55,1.521 -7.196,2.962 -10.85,4.304c-0.188,-0.229 -0.371,-0.454 -0.555,-0.671c-11.575,-14.083 -20.962,-28.771 -27.9,-43.654l-0.87,-1.871l-2.05,0.175c-16.517,1.4 -34.084,0.538 -52.225,-2.562l-0.371,-0.063c-2.129,-12.475 -3.196,-24.771 -3.179,-36.554c0.008,-5.454 0.245,-10.85 0.7,-16.033l0.183,-2.05l-1.858,-0.875c-3.23,-1.521 -6.546,-3.217 -10.146,-5.192c-11.617,-6.35 -23.084,-14.212 -34.088,-23.371c5.104,-13.741 11.296,-26.521 18.4,-37.996c2.029,-3.275 3.913,-6.154 5.775,-8.816l1.304,-1.934l-1.404,-1.558c-9.516,-13.696 -17.566,-29.417 -23.933,-46.721c1.179,-0.975 2.362,-1.937 3.558,-2.887c13.192,-10.496 26.904,-19.088 40.767,-25.542l1.858,-0.896l-0.175,-2.041c-1.408,-16.663 -0.521,-34.35 2.638,-52.588c16.925,-2.871 33.475,-3.783 49.212,-2.704l1.163,0.079c0.741,0.05 1.487,0.096 2.221,0.163l2.054,0.183l0.875,-1.867c5.166,-10.996 11.712,-21.941 19.454,-32.537c2.95,-4.046 6.017,-7.975 9.112,-11.696c15.58,5.779 29.95,12.992 42.738,21.442l0.533,0.35c1.184,0.775 2.371,1.554 3.534,2.362l1.679,1.171l1.683,-1.171c13.708,-9.537 29.471,-17.612 46.854,-24.008c6.467,7.791 12.388,15.991 17.609,24.391c4.133,6.659 7.779,13.363 10.837,19.925l0.883,1.9l2.084,-0.212c0.862,-0.083 1.729,-0.133 2.596,-0.183l0.895,-0.055c15.65,-1.004 32.15,-0.045 49.05,2.867c3.092,18.25 3.917,35.95 2.463,52.617l-0.179,2.05l1.866,0.875c14.821,6.95 29.475,16.371 43.546,27.996l0.679,0.562c-5.308,14.325 -11.866,27.692 -19.487,39.729c-1.433,2.25 -2.992,4.663 -4.675,7.038l-1.192,1.687l1.184,1.7c4.233,6.084 8.237,12.675 11.9,19.584c4.541,8.562 8.62,17.741 12.125,27.283c-8.513,7.042 -17.242,13.296 -25.942,18.592m19.025,-48.638c-3.429,-6.475 -7.167,-12.696 -11.104,-18.5c1.341,-1.971 2.596,-3.917 3.658,-5.583c8.192,-12.942 15.179,-27.35 20.758,-42.817l0.684,-1.892l-1.513,-1.325c-0.487,-0.429 -0.983,-0.837 -1.471,-1.241l-0.85,-0.713c-13.883,-11.466 -28.337,-20.854 -42.97,-27.921c1.308,-17.204 0.283,-35.416 -3.05,-54.145l-0.359,-2.017l-2.021,-0.367c-18.07,-3.271 -35.733,-4.387 -52.495,-3.304l-1.617,0.096c-2.971,-6.188 -6.438,-12.475 -10.3,-18.7c-5.729,-9.217 -12.267,-18.188 -19.433,-26.658l-1.317,-1.563l-1.929,0.688c-17.929,6.425 -34.238,14.587 -48.484,24.27c-0.645,-0.433 -1.295,-0.858 -1.945,-1.287l-0.55,-0.358c-13.705,-9.059 -29.15,-16.721 -45.909,-22.771l-1.925,-0.692l-1.321,1.558c-3.641,4.288 -7.241,8.863 -10.7,13.605c-7.529,10.304 -13.97,20.958 -19.154,31.67l-1.446,-0.095c-16.841,-1.155 -34.562,-0.1 -52.675,3.133l-2.02,0.358l-0.363,2.017c-3.417,18.775 -4.504,36.987 -3.225,54.137c-13.646,6.538 -27.129,15.075 -40.092,25.392c-1.779,1.417 -3.533,2.85 -5.27,4.321l-1.555,1.321l0.688,1.921c6.408,17.9 14.575,34.204 24.275,48.475c-1.554,2.287 -3.121,4.712 -4.779,7.391c-7.65,12.35 -14.259,26.15 -19.642,41.021l-0.7,1.933l1.567,1.321c11.796,9.992 24.125,18.525 36.646,25.371c3.029,1.658 5.854,3.125 8.608,4.463c-0.358,4.716 -0.546,9.591 -0.554,14.504c-0.021,12.779 1.2,26.116 3.625,39.633l0.354,1.975l1.967,0.392c0.525,0.108 1.05,0.196 1.704,0.304l0.8,0.133c17.891,3.059 35.275,3.996 51.671,2.788c7.054,14.7 16.416,29.187 27.837,43.087c0.404,0.475 0.8,0.963 1.238,1.504l1.916,2.35l1.959,-0.695c4.437,-1.584 8.854,-3.313 13.133,-5.138c5.104,-2.162 10.242,-4.596 15.704,-7.437c6.9,-3.605 13.508,-7.542 19.654,-11.709c14.25,9.75 30.534,17.967 48.4,24.429l1.929,0.696l1.325,-1.566c2.713,-3.217 5.425,-6.592 8.059,-10.042c8.662,-11.388 15.996,-23.238 21.8,-35.233c16.096,1.22 33.104,0.4 50.575,-2.459l1.204,-0.196c0.787,-0.125 1.567,-0.254 2.358,-0.4l2.009,-0.362l0.366,-2.013c3.392,-18.716 4.471,-36.92 3.213,-54.116c5.304,-2.554 10.741,-5.488 16.154,-8.717l0.762,-0.442c9.58,-5.812 19.142,-12.725 28.425,-20.541l1.571,-1.317l-0.691,-1.933c-3.75,-10.509 -8.184,-20.6 -13.167,-29.992" style="fill:#4e6b5f;fill-rule:nonzero;"/><path d="M60.237,303.867l-2.484,0.496l0.113,2.529c0.112,2.475 0.317,5.013 0.633,7.759l0.263,2.321l2.321,0.27c2.662,0.317 5.27,0.538 7.758,0.659l2.529,0.116l0.504,-2.475c0.692,-3.425 1.404,-6.85 2.138,-10.279l0.946,-4.441l-4.438,0.937c-3.429,0.725 -6.858,1.425 -10.283,2.108" style="fill:#4e6b5f;fill-rule:nonzero;"/><path d="M107.696,299.52c-6.217,6.433 -14.488,10.179 -25.246,11.42c1.346,-6.445 2.654,-12.354 3.987,-18.02l1.084,-4.621l-4.621,1.071c-5.683,1.32 -11.592,2.608 -18.033,3.933c1.275,-10.754 5.041,-19.013 11.495,-25.208c12.209,-0.692 24.33,-2.238 36.046,-4.605c-2.404,11.709 -3.987,23.821 -4.712,36.03m7.916,-42.738c-13.133,2.913 -26.804,4.758 -40.633,5.479l-1.046,0.054l-0.779,0.709c-8.75,7.929 -13.633,19.296 -14.517,33.779l-0.233,3.825l3.758,-0.754c6.25,-1.259 11.98,-2.475 17.467,-3.709c-1.258,5.542 -2.492,11.271 -3.758,17.463l-0.767,3.754l3.829,-0.225c14.484,-0.837 25.863,-5.687 33.825,-14.412l0.709,-0.775l0.054,-1.05c0.766,-13.834 2.65,-27.5 5.608,-40.613l1.017,-4.529l-4.534,1.004Z" style="fill:#4e6b5f;fill-rule:nonzero;"/><path d="M147.896,346.59l-1.396,-4.329l-3.379,3.042c-2.609,2.341 -5.225,4.658 -7.854,6.962l-1.905,1.671l1.367,2.133c1.346,2.113 2.838,4.267 4.429,6.409l1.388,1.875l2.146,-0.925c2.466,-1.063 4.837,-2.175 7.041,-3.309l2.259,-1.158l-0.809,-2.404c-1.112,-3.309 -2.212,-6.629 -3.287,-9.967" style="fill:#4e6b5f;fill-rule:nonzero;"/><path d="M35.158,241.668c4.367,-4.883 8.45,-9.342 12.462,-13.613l3.25,-3.458l-4.537,-1.379c-5.608,-1.713 -11.375,-3.55 -17.588,-5.613c6.488,-8.679 13.88,-13.95 22.563,-16.083c10.958,5.521 22.229,10.238 33.521,14.029c-7.929,8.938 -15.359,18.634 -22.1,28.85c-8.596,2.467 -17.629,1.571 -27.571,-2.733m31.346,7.737l0.575,-0.879c7.596,-11.616 16.062,-22.508 25.158,-32.371l3.15,-3.416l-4.433,-1.396c-12.779,-4.021 -25.538,-9.254 -37.929,-15.563l-0.934,-0.475l-1.025,0.221c-11.537,2.492 -21.45,9.892 -29.462,21.992l-2.121,3.196l3.637,1.229c5.996,2.017 11.567,3.829 16.984,5.521c-3.842,4.146 -7.771,8.487 -11.984,13.237l-2.545,2.875l3.429,1.721c8.333,4.183 16.454,6.308 24.137,6.321l0.063,-0c4.208,-0 8.346,-0.638 12.3,-1.896l1,-0.317Z" style="fill:#4e6b5f;fill-rule:nonzero;"/><path d="M158.042,347.287c-2.016,-6.121 -3.837,-11.887 -5.562,-17.604l-1.371,-4.542l-3.467,3.242c-4.354,4.075 -8.829,8.146 -13.645,12.425c-4.275,-9.954 -5.142,-18.992 -2.65,-27.583c10.245,-6.713 19.966,-14.113 28.916,-22.013c3.763,11.325 8.45,22.608 13.934,33.563c-2.167,8.679 -7.459,16.054 -16.155,22.512m6.446,-62.187l-1.383,-4.438l-3.425,3.142c-9.9,9.079 -20.817,17.512 -32.446,25.062l-0.879,0.571l-0.321,1c-3.608,11.242 -2.158,23.525 4.317,36.513l1.712,3.429l2.875,-2.534c4.684,-4.12 9.038,-8.037 13.275,-11.941c1.7,5.491 3.496,11.071 5.479,17l1.213,3.637l3.204,-2.108c12.125,-7.979 19.554,-17.871 22.083,-29.396l0.225,-1.029l-0.475,-0.938c-6.258,-12.37 -11.458,-25.145 -15.454,-37.97" style="fill:#4e6b5f;fill-rule:nonzero;"/><path d="M241.678,340.967c-4.846,-4.329 -9.308,-8.417 -13.612,-12.462l-3.454,-3.25l-1.388,4.537c-1.737,5.7 -3.575,11.467 -5.608,17.583c-8.684,-6.483 -13.95,-13.875 -16.088,-22.562c5.517,-10.938 10.238,-22.208 14.038,-33.517c8.946,7.942 18.641,15.371 28.846,22.1c2.462,8.592 1.57,17.625 -2.734,27.571m7.738,-31.346l-0.879,-0.575c-11.592,-7.575 -22.484,-16.037 -32.367,-25.158l-3.417,-3.15l-1.396,4.433c-4.029,12.8 -9.27,25.559 -15.57,37.925l-0.475,0.938l0.22,1.021c2.492,11.537 9.892,21.454 21.996,29.466l3.2,2.117l1.221,-3.633c2.008,-5.959 3.821,-11.53 5.525,-16.984c4.192,3.884 8.533,7.813 13.246,11.984l2.871,2.541l1.721,-3.425c6.508,-12.975 7.995,-25.254 4.42,-36.5l-0.316,-1Z" style="fill:#4e6b5f;fill-rule:nonzero;"/><path d="M232.54,345.433l-3.37,-3.041l-1.409,4.316c-1.083,3.334 -2.191,6.655 -3.316,9.959l-0.817,2.4l2.254,1.166c2.196,1.138 4.563,2.259 7.033,3.33l2.142,0.929l1.396,-1.871c1.625,-2.179 3.121,-4.329 4.45,-6.392l1.367,-2.133l-1.9,-1.675c-2.617,-2.304 -5.225,-4.642 -7.83,-6.988" style="fill:#4e6b5f;fill-rule:nonzero;"/><path d="M33.733,229.163l-4.316,-1.413c-3.334,-1.087 -6.65,-2.191 -9.959,-3.316l-2.404,-0.817l-1.162,2.254c-1.154,2.234 -2.275,4.6 -3.334,7.038l-0.925,2.137l1.871,1.396c2.134,1.6 4.284,3.096 6.388,4.45l2.129,1.375l1.679,-1.9c2.313,-2.621 4.638,-5.233 6.988,-7.837l3.045,-3.367Z" style="fill:#4e6b5f;fill-rule:nonzero;"/><path d="M108.033,76.353c0.687,12.209 2.233,24.33 4.604,36.042c-11.713,-2.4 -23.825,-3.983 -36.034,-4.708c-6.433,-6.217 -10.179,-14.488 -11.42,-25.25c6.37,1.333 12.275,2.637 18.02,3.987l4.621,1.088l-1.071,-4.621c-1.32,-5.688 -2.608,-11.596 -3.933,-18.033c10.754,1.275 19.017,5.041 25.213,11.495m-28.075,3.271c-5.492,-1.254 -11.217,-2.483 -17.459,-3.762l-3.758,-0.767l0.225,3.829c0.842,14.484 5.692,25.863 14.417,33.821l0.775,0.708l1.045,0.059c13.821,0.766 27.484,2.65 40.617,5.6l4.533,1.021l-1.008,-4.538c-2.917,-13.117 -4.758,-26.783 -5.483,-40.625l-0.054,-1.046l-0.705,-0.779c-7.933,-8.75 -19.3,-13.633 -33.783,-14.517l-3.825,-0.237l0.754,3.762c1.254,6.225 2.471,11.955 3.709,17.471" style="fill:#4e6b5f;fill-rule:nonzero;"/><path d="M143.595,30.681l3.375,3.046l1.404,-4.321c1.083,-3.333 2.191,-6.65 3.316,-9.958l0.813,-2.4l-2.25,-1.167c-2.217,-1.146 -4.588,-2.266 -7.038,-3.329l-2.141,-0.929l-1.396,1.871c-1.654,2.216 -3.104,4.308 -4.446,6.396l-1.367,2.129l1.896,1.671c2.621,2.312 5.229,4.641 7.834,6.991" style="fill:#4e6b5f;fill-rule:nonzero;"/><path d="M212.196,259.866c9.438,-3.175 18.317,-8.287 25.821,-14.866c5.467,15.812 9.283,32.487 11.358,49.616c-13.762,-10.396 -26.258,-22.075 -37.179,-34.75m-5.912,-4.366l-1.042,0.283c-11.308,2.85 -23.246,2.837 -34.521,-0.046l-1.075,-0.296c-11.625,-3.166 -22.3,-9.358 -30.875,-17.896l-0.341,-0.341c-8.513,-8.6 -14.667,-19.296 -17.8,-30.929l-0.317,-1.18c-1.404,-5.6 -2.108,-11.362 -2.1,-17.137c0.008,-5.846 0.75,-11.675 2.2,-17.325l0.271,-0.992c3.175,-11.633 9.362,-22.308 17.896,-30.871l0.345,-0.341c8.588,-8.509 19.28,-14.667 30.93,-17.809l0.85,-0.229c11.362,-2.908 23.375,-2.908 34.725,0l1.054,0.288c11.629,3.171 22.308,9.358 30.879,17.896l0.337,0.341c8.509,8.588 14.667,19.284 17.805,30.925l0.283,1.059c1.425,5.637 2.142,11.445 2.133,17.262c-0.008,5.879 -0.758,11.733 -2.221,17.388l-0.25,0.925c-3.175,11.633 -9.358,22.312 -17.891,30.875l-0.346,0.341c-8.6,8.517 -19.292,14.671 -30.929,17.809m-18.404,55.495c-6.713,-15.875 -11.696,-32.237 -14.821,-48.679c9.766,1.959 20.012,1.975 29.791,0.046c-3.175,16.433 -8.204,32.779 -14.97,48.633m-61.442,-16.562c2.129,-17.133 5.996,-33.796 11.508,-49.583c7.488,6.6 16.354,11.741 25.771,14.945c-10.954,12.638 -23.483,24.28 -37.279,34.638m-44.929,-45.071c10.4,-13.762 22.079,-26.258 34.754,-37.175c3.171,9.429 8.283,18.313 14.858,25.821c-15.812,5.467 -32.487,9.283 -49.612,11.354m-16.375,-61.487c15.871,-6.717 32.229,-11.7 48.679,-14.825c-0.988,4.895 -1.492,9.9 -1.5,14.9c-0.008,4.991 0.483,9.995 1.454,14.891c-16.429,-3.175 -32.779,-8.208 -48.633,-14.966m16.562,-61.446c17.125,2.125 33.792,5.996 49.579,11.512c-6.6,7.484 -11.741,16.346 -14.941,25.771c-12.634,-10.95 -24.271,-23.483 -34.638,-37.283m45.063,-44.929c13.771,10.404 26.266,22.083 37.183,34.75c-9.442,3.179 -18.321,8.291 -25.821,14.866c-5.471,-15.804 -9.287,-32.479 -11.362,-49.616m61.491,-16.375c6.717,15.87 11.7,32.233 14.825,48.679c-4.895,-0.984 -9.9,-1.484 -14.891,-1.492l-0.117,0c-4.954,0 -9.921,0.488 -14.783,1.45c3.175,-16.433 8.204,-32.783 14.966,-48.637m61.446,16.562c-2.121,17.108 -5.991,33.775 -11.508,49.583c-7.483,-6.6 -16.35,-11.741 -25.779,-14.945c10.966,-12.646 23.5,-24.288 37.287,-34.638m44.929,45.063c-10.4,13.762 -22.079,26.258 -34.754,37.179c-3.175,-9.438 -8.287,-18.317 -14.862,-25.821c15.812,-5.467 32.487,-9.288 49.616,-11.358m16.38,61.491c-15.892,6.721 -32.25,11.704 -48.684,14.825c0.988,-4.887 1.488,-9.891 1.496,-14.891c0.008,-4.996 -0.483,-10 -1.45,-14.9c16.421,3.17 32.767,8.2 48.638,14.966m-16.563,61.442c-17.108,-2.121 -33.775,-5.988 -49.579,-11.504c6.6,-7.488 11.737,-16.35 14.937,-25.775c12.638,10.954 24.28,23.483 34.642,37.279m-50.5,-5.583c17.992,6.187 37.004,10.287 56.542,12.187l6.433,0.625l-3.742,-5.271c-11.379,-16.012 -24.391,-30.466 -38.695,-42.987c18.65,-3.629 37.166,-9.588 55.058,-17.713l5.883,-2.675l-5.875,-2.691c-17.854,-8.18 -36.354,-14.196 -55.008,-17.888c14.346,-12.471 27.4,-26.887 38.825,-42.871l3.758,-5.258l-6.433,0.608c-19.558,1.846 -38.583,5.888 -56.575,12.017c6.187,-17.992 10.283,-37 12.183,-56.542l0.625,-6.429l-5.266,3.742c-16.005,11.366 -30.459,24.379 -42.988,38.691c-3.637,-18.675 -9.596,-37.191 -17.721,-55.054l-2.671,-5.883l-2.691,5.875c-8.179,17.846 -14.188,36.337 -17.884,55c-12.466,-14.333 -26.883,-27.388 -42.87,-38.821l-5.259,-3.758l0.604,6.433c1.846,19.563 5.888,38.588 12.017,56.579c-17.975,-6.187 -36.987,-10.283 -56.542,-12.187l-6.433,-0.629l3.746,5.27c11.383,16.021 24.396,30.48 38.692,42.988c-18.675,3.642 -37.192,9.596 -55.059,17.721l-5.879,2.671l5.875,2.691c17.846,8.179 36.342,14.192 55.004,17.888c-14.337,12.466 -27.396,26.879 -38.829,42.866l-3.754,5.259l6.433,-0.604c19.559,-1.846 38.579,-5.888 56.575,-12.017c-6.179,17.971 -10.279,36.983 -12.187,56.537l-0.621,6.434l5.267,-3.742c16.012,-11.375 30.47,-24.383 42.991,-38.692c3.634,18.671 9.592,37.188 17.717,55.059l2.671,5.883l2.691,-5.875c8.184,-17.858 14.196,-36.354 17.884,-55.008c12.479,14.346 26.896,27.4 42.875,38.825l5.254,3.758l-0.604,-6.433c-1.846,-19.563 -5.888,-38.592 -12.017,-56.579" style="fill:#4e6b5f;fill-rule:nonzero;"/><path d="M28.838,158.029c6.196,-2.037 11.967,-3.858 17.604,-5.558l4.542,-1.367l-3.242,-3.471c-4.037,-4.316 -8.108,-8.791 -12.421,-13.645c9.954,-4.275 18.992,-5.142 27.579,-2.65c6.721,10.245 14.121,19.966 22.013,28.912c-11.329,3.767 -22.613,8.454 -33.563,13.938c-8.679,-2.167 -16.054,-7.459 -22.512,-16.159m23.279,22.375l0.933,-0.475c12.384,-6.258 25.159,-11.462 37.975,-15.454l4.438,-1.383l-3.142,-3.425c-9.075,-9.896 -17.504,-20.813 -25.062,-32.442l-0.571,-0.879l-1,-0.321c-11.238,-3.608 -23.521,-2.158 -36.513,4.317l-3.433,1.712l2.538,2.875c4.216,4.784 8.133,9.134 11.945,13.275c-5.416,1.671 -10.991,3.467 -17.004,5.471l-3.637,1.217l2.108,3.2c7.975,12.129 17.867,19.558 29.396,22.087l1.029,0.225Z" style="fill:#4e6b5f;fill-rule:nonzero;"/><path d="M134.457,35.143c4.721,4.225 9.296,8.412 13.612,12.471l3.454,3.246l1.384,-4.538c1.75,-5.737 3.591,-11.5 5.616,-17.583c8.675,6.483 13.946,13.875 16.084,22.562c-5.513,10.934 -10.234,22.2 -14.038,33.517c-8.929,-7.929 -18.625,-15.358 -28.846,-22.096c-2.462,-8.6 -1.566,-17.637 2.734,-27.579m-7.738,31.35l0.879,0.575c11.6,7.579 22.488,16.042 32.371,25.154l3.417,3.15l1.392,-4.433c4.033,-12.8 9.27,-25.559 15.57,-37.921l0.48,-0.933l-0.225,-1.03c-2.496,-11.537 -9.896,-21.45 -21.992,-29.462l-3.196,-2.117l-1.225,3.634c-1.996,5.895 -3.808,11.47 -5.533,16.987c-4.192,-3.883 -8.638,-7.917 -13.238,-11.992l-2.871,-2.541l-1.72,3.425c-6.513,12.975 -8,25.254 -4.425,36.5l0.316,1.004Z" style="fill:#4e6b5f;fill-rule:nonzero;"/><path d="M70.863,74.001l4.442,0.95l-0.938,-4.446c-0.729,-3.425 -1.429,-6.854 -2.108,-10.275l-0.492,-2.487l-2.533,0.112c-2.45,0.113 -5.059,0.325 -7.759,0.633l-2.325,0.263l-0.266,2.321c-0.317,2.687 -0.538,5.3 -0.654,7.762l-0.121,2.534l2.479,0.5c3.421,0.687 6.846,1.4 10.275,2.133" style="fill:#4e6b5f;fill-rule:nonzero;"/><path d="M33.865,146.491l-3.042,-3.383c-2.341,-2.608 -4.662,-5.225 -6.962,-7.85l-1.671,-1.904l-2.138,1.362c-2.108,1.35 -4.266,2.842 -6.404,4.429l-1.875,1.392l0.925,2.146c1.063,2.471 2.179,4.837 3.309,7.037l1.154,2.259l2.408,-0.809c3.304,-1.108 6.629,-2.208 9.967,-3.283l4.329,-1.396Z" style="fill:#4e6b5f;fill-rule:nonzero;"/></g></svg>