<svg width="360" height="95" viewBox="0 0 360 95" fill="none" xmlns="http://www.w3.org/2000/svg">
    <path d="M356.362 40.1602C356.197 33.8194 356.019 24.1379 355.357 15.7974C354.452 4.3961 341.786 7.56359 336.056 6.92949C335.768 6.89779 335.278 6.88929 334.618 6.89989C325.828 4.87309 308.264 9.85069 297.502 8.70259C262.981 2.62969 225.47 6.16229 190.974 1.55449C165.9 -1.44341 140.899 1.29719 115.889 3.89989C81.5302 8.71849 43.8778 1.6349 15.8168 9.8021C6.55603 12.8179 2.08303 18.4565 1.39723 24.8332C0.400734 29.9603 0.417834 50.7394 0.700934 62.0355C1.00253 74.0703 3.41513 82.3047 10.0499 85.4716C10.3227 85.6021 10.6194 85.7331 10.9263 85.8652C10.8484 86.5272 10.7253 87.1618 10.5416 87.7599C12.5738 87.7345 14.6075 87.7821 16.6418 87.865C23.4511 89.8722 32.2948 91.4758 36.8927 90.9427C40.6644 91.9851 44.4394 93.287 48.2192 94.9756C51.3505 94.9159 57.6163 94.7965 60.7428 94.7373C134.197 93.3171 203.216 87.2125 274.901 87.5602C228.71 85.9133 185.487 85.6682 139.308 88.9286C139.637 87.6595 140.606 86.0427 138.921 85.0553C153.495 85.2719 232.916 85.4716 260.36 84.8381C265.976 84.7087 271.461 84.5258 276.742 84.3282C276.76 85.5508 276.778 86.728 276.791 87.5633C293.332 87.6595 310.017 88.1123 326.931 89.0216C332.351 88.7363 337.138 86.2842 341.33 82.9382C346.147 82.0622 349.98 80.6769 351.738 79.1378C353.152 77.9004 354.242 73.1796 355.03 67.6261C359.927 59.3368 362.604 48.6551 356.362 40.1602Z" fill="#2D3E37"/>
    <path d="M36.2679 59.7174C35.5763 57.4286 35.6163 55.1527 36.3876 52.8888C37.1599 50.626 38.5302 48.8029 40.5006 47.4186C43.3755 48.6957 45.9833 50.4267 48.3268 52.6094C47.5285 53.515 46.7957 54.6198 46.1306 55.924C45.4644 57.2293 44.9851 58.5865 44.6932 59.9969C44.4002 61.4083 44.6136 62.6594 45.3323 63.7502C46.051 64.8421 47.2886 65.4942 49.0456 65.7065C50.3238 65.8668 51.6274 65.7206 52.9593 65.2678C54.2895 64.8161 55.4751 64.1629 56.5133 63.3104C57.5516 62.4601 58.43 61.6617 59.1488 60.9154C59.8675 60.1701 60.4665 59.4509 60.9453 58.7587C61.9039 57.3213 62.6227 55.9239 63.102 54.5656C63.5808 53.2083 63.8608 52.0905 63.9404 51.212C64.02 50.3335 63.9664 49.4821 63.7806 48.6556C63.5937 47.8313 63.4475 47.2864 63.3414 47.0189C63.2342 46.7535 63.102 46.513 62.9422 46.2996C62.1433 45.0225 60.9718 44.0519 59.4283 43.3847C57.8831 42.7196 56.3931 42.3611 54.9557 42.3069C53.5183 42.2549 51.881 42.2148 50.0444 42.1867C48.2073 42.1607 46.8619 42.0415 46.011 41.8282C44.6261 41.5617 43.5754 40.9768 42.8567 40.0712C42.138 39.1656 41.7383 38.2211 41.6587 37.2353C41.5785 36.2507 41.6587 35.1588 41.8981 33.9607C42.138 32.7637 42.3899 31.8322 42.6569 31.166C42.9228 30.5009 43.1622 29.9279 43.3756 29.4491C44.0672 28.0648 44.8656 26.6815 45.7717 25.2961C46.6762 23.8056 47.6608 22.3812 48.7267 21.0239C49.791 19.6655 50.9625 18.4274 52.2406 17.3096C53.411 16.2459 54.6887 15.3663 56.0741 14.6741C57.2981 13.983 58.6023 13.6364 59.9872 13.6364C62.3833 13.7436 64.4858 14.542 66.2964 16.0325C67.6802 16.2459 68.8647 16.6705 69.8504 17.3096C70.835 17.9487 71.4736 18.6409 71.7671 19.3861C72.059 20.1324 72.2724 20.8636 72.4057 21.5829C72.5384 22.3011 72.4983 22.8481 72.286 23.2196C70.529 26.6816 69.3835 30.3017 68.8522 34.081C68.8522 34.2402 68.2792 34.2402 67.1348 34.081C65.9893 33.9218 64.7913 33.4419 63.5412 32.6436C62.2895 31.8453 61.5844 30.8065 61.4246 29.5294C61.371 29.1037 61.7306 27.7053 62.5029 25.3363C63.2741 22.9673 63.6332 21.7563 63.5807 21.7021C62.4628 21.5959 60.9317 22.3813 58.989 24.0581C57.0446 25.7349 55.3012 27.7454 53.7576 30.0884C52.2129 32.4314 51.4417 34.4007 51.4417 35.9984C51.6015 36.0515 52.6262 36.1847 54.5164 36.397C56.4055 36.6104 57.4579 36.7436 57.6713 36.7967C60.2791 37.1693 62.529 37.7824 64.4197 38.6338C66.3088 39.4852 67.7739 40.4439 68.8121 41.5087C69.8504 42.5746 70.6611 43.7845 71.2477 45.1418C71.8332 46.5002 72.1923 47.7383 72.326 48.8561C72.4582 49.974 72.4717 51.172 72.3661 52.4491C72.2583 53.7273 72.1386 54.6599 72.0065 55.2449C71.8733 55.8309 71.727 56.3899 71.5673 56.9217C70.4494 61.1289 68.1059 64.5085 64.5394 67.0649C60.8657 69.6202 56.7928 70.8182 52.3202 70.6579C48.7526 70.7641 45.4922 69.8065 42.5371 67.783C39.5821 65.7606 37.493 63.071 36.2679 59.7174Z" fill="#F8EDD2"/>
    <path d="M76.9978 63.9495C75.2408 62.6724 74.3623 60.9425 74.3623 58.7587C74.3623 58.4933 75.0274 55.0584 76.3587 48.4562C77.6889 41.8551 79.1139 34.9073 80.6314 27.6119C82.149 20.3186 83.0134 16.0323 83.2268 14.7541C83.333 14.063 83.7321 13.6232 84.4248 13.4358C85.1164 13.2506 85.8351 13.3166 86.5815 13.6362C87.9653 14.115 89.0832 14.9415 89.9357 16.1113C90.8402 17.3375 91.3195 18.6948 91.3731 20.1842C91.3731 20.5037 90.467 25.1637 88.6575 34.1609C86.8469 43.1592 85.9684 47.765 86.022 47.9773C86.2343 47.6047 87.1128 46.4597 88.6575 44.5424C90.2011 42.6262 92.0918 40.6569 94.3281 38.6335C96.5644 36.6101 98.2412 35.6514 99.3591 35.7576C99.8384 35.7576 100.424 36.0912 101.116 36.7563C101.808 37.4225 102.434 38.1536 102.993 38.952C103.552 39.7514 103.884 40.4176 103.992 40.9494C104.576 42.4399 104.683 43.9835 104.311 45.5812C102.606 52.9286 101.276 60.3292 100.318 67.7828C100.264 68.1565 100.318 68.5021 100.478 68.8216C100.637 69.3004 100.61 69.6199 100.397 69.7792C100.13 69.9915 99.8113 70.0717 99.4392 70.0197C98.4806 70.0197 97.575 69.8063 96.7236 69.3806C95.8717 68.9549 95.0993 68.396 94.4077 67.7038C93.715 66.9585 93.156 66.1602 92.7309 65.3077C92.2516 64.4563 91.958 63.5507 91.8524 62.5921C91.4792 60.6228 91.4792 58.6265 91.8524 56.6019C92.3837 52.9818 93.2362 49.4419 94.4077 45.981C92.4373 47.6849 90.734 50.2272 89.2966 53.6079C87.8592 56.9886 86.8469 59.9306 86.262 62.4318L86.1022 63.2312C85.9424 64.2971 85.4095 65.1073 84.505 65.6663C83.5989 66.2263 82.6402 66.3195 81.6296 65.9469C79.9252 65.6804 78.3816 65.0153 76.9978 63.9495Z" fill="#F8EDD2"/>
    <path d="M106.227 52.37C106.279 50.9857 106.519 49.6544 106.946 48.3762C109.128 41.5617 113.175 36.1575 119.085 32.1648C119.616 31.8453 120.175 31.5257 120.762 31.2062C121.347 30.8867 121.986 30.7263 122.679 30.7263C123.477 30.7263 124.248 30.9397 124.995 31.3654C125.739 31.7922 126.404 32.324 126.991 32.9631C127.63 33.6022 128.215 34.2944 128.748 35.0396C129.174 35.7318 129.547 36.477 129.866 37.2754C130.185 37.9145 130.132 38.5005 129.707 39.0324C129.387 39.5123 128.96 40.0181 128.428 40.55C131.783 42.9461 134.125 46.0885 135.457 49.974C136.255 52.317 136.547 54.7391 136.335 57.2413C136.068 59.4251 135.323 61.4485 134.099 63.3106C132.821 65.1759 131.196 66.6393 129.227 67.7041C127.097 68.9292 124.781 69.6203 122.279 69.7795C121.64 69.8326 121.014 69.7925 120.402 69.6603C119.79 69.5281 119.191 69.3548 118.605 69.1414C115.783 67.9704 113.307 66.2936 111.178 64.1099C109.101 61.9272 107.636 59.3979 106.786 56.5231C106.306 55.1388 106.12 53.7543 106.227 52.37ZM125.953 45.4212C124.781 44.3575 124.116 43.8776 123.956 43.9838C123.21 44.5167 122.385 45.1959 121.481 46.0202C120.575 46.8467 119.616 47.8844 118.605 49.1355C117.594 50.3866 116.781 51.6648 116.17 52.969C115.557 54.2743 115.144 55.6716 114.932 57.161C114.718 58.6526 115.012 60.064 115.81 61.3942C117.194 62.5662 119.177 62.4601 121.76 61.0747C124.342 59.6914 126.179 57.6279 127.27 54.8852C128.361 52.1436 127.922 48.9893 125.953 45.4212Z" fill="#F8EDD2"/>
    <path d="M136.415 80.5617C136.095 79.9226 135.855 79.1904 135.696 78.3649C135.536 77.5394 135.484 76.5949 135.536 75.5301C135.59 74.4642 135.656 73.4937 135.736 72.6152C135.816 71.7367 135.976 70.6578 136.215 69.3807C136.454 68.1025 136.654 67.1179 136.814 66.4257C136.974 65.7346 137.213 64.776 137.533 63.5508C137.852 62.3268 138.039 61.5815 138.092 61.314C139.156 56.7894 140.248 52.1305 141.366 47.3384C141.791 45.7948 142.217 44.2231 142.644 42.6264C142.696 42.2549 142.989 41.0167 143.522 38.9131C144.054 36.8095 144.401 35.4381 144.561 34.8001C144.933 33.6291 145.492 33.0431 146.238 33.0431C147.622 32.8308 148.913 33.0821 150.111 33.8014C151.309 34.5207 152.148 35.5454 152.627 36.8766C152.573 38.952 152.307 41.0026 151.829 43.026C152.627 41.0567 153.438 39.3918 154.264 38.0345C155.089 36.6761 155.782 35.6785 156.341 35.0394C156.9 34.4003 157.485 33.9215 158.098 33.602C158.709 33.2825 159.108 33.1102 159.296 33.0821C159.482 33.0561 159.735 33.0431 160.054 33.0431C160.799 33.0431 161.492 33.2294 162.131 33.602C162.929 34.0288 163.674 34.5076 164.367 35.0394C167.029 37.2752 168.999 39.5391 170.277 41.8279C171.555 44.1178 172.22 46.4738 172.273 48.8959C172.326 51.3191 171.98 53.9404 171.235 56.7622C170.648 59.7963 169.251 62.4057 167.042 64.5884C164.833 66.7722 162.211 68.1565 159.176 68.7414C157.046 69.1682 155.009 68.9147 153.066 67.9831C151.122 67.0515 149.672 65.6 148.714 63.6297C146.903 69.7 145.599 75.8754 144.8 82.1581C144.853 82.4246 144.867 82.704 144.84 82.9965C144.813 83.289 144.747 83.5955 144.64 83.9151C144.533 84.5011 144.241 85.0341 143.762 85.5128C143.443 85.7251 142.856 85.672 142.005 85.3525C141.366 85.086 140.727 84.7665 140.088 84.3949C139.342 83.915 138.677 83.3561 138.092 82.717C137.453 82.079 136.894 81.36 136.415 80.5617ZM152.547 62.432C154.197 63.2314 155.794 62.992 157.339 61.7138C158.882 60.4356 160.106 58.5866 161.013 56.1634C161.917 53.7413 162.636 51.212 163.169 48.5766C163.701 45.9411 163.887 43.5721 163.728 41.4685C163.568 39.366 163.089 38.1279 162.29 37.7552C161.652 37.8083 160.919 38.3011 160.094 39.2316C159.268 40.1642 158.43 41.4154 157.578 42.986C156.726 44.5567 155.941 46.0602 155.222 47.4976C154.503 48.935 153.771 50.5728 153.026 52.41C152.28 54.246 151.774 55.4982 151.509 56.1633C151.242 56.8295 150.976 57.5606 150.71 58.359C150.443 59.1584 150.483 59.9437 150.83 60.715C151.176 61.4873 151.748 62.0605 152.547 62.432Z" fill="#F8EDD2"/>
    <path d="M231.29 14.1152C233.047 14.1152 235.004 14.7283 237.16 15.9523C239.317 17.1774 240.315 18.3213 240.155 19.3861C240.102 19.5995 239.249 23.0333 237.6 29.6886C235.949 36.345 234.138 43.3447 232.169 50.6921C230.199 58.0395 228.947 62.2727 228.416 63.3906C227.777 64.3492 226.352 64.5226 224.143 63.9095C221.933 63.2986 220.429 62.2728 219.631 60.8353C218.405 58.7068 217.195 55.9641 215.997 52.6094C214.799 49.2547 213.693 45.9682 212.683 42.7467C211.671 39.5252 211.006 37.5148 210.686 36.7164C209.354 42.0946 208.011 48.0176 206.653 54.4865C205.295 60.9555 204.616 64.5366 204.616 65.2277C204.616 65.4942 204.657 65.7466 204.736 65.986C204.816 66.2265 204.896 66.4258 204.976 66.585C205.056 66.7453 205.188 66.9717 205.375 67.2642C205.561 67.5578 205.707 67.7831 205.814 67.9434C205.974 68.2629 205.96 68.5695 205.774 68.862C205.587 69.1545 205.335 69.2487 205.016 69.1415C202.141 68.6096 199.877 66.8256 198.228 63.7904C196.578 60.7552 196.045 57.3214 196.63 53.4879C196.79 52.5293 198 47.2063 200.264 37.5148C202.526 27.8254 203.898 22.1819 204.377 20.5842C204.483 20.1585 204.749 19.9451 205.175 19.9451C207.092 19.8931 208.849 20.3448 210.446 21.3035C212.043 22.2611 213.268 23.5663 214.12 25.2161C216.569 32.7239 218.499 38.6209 219.91 42.9061C221.32 47.1924 222.186 49.8138 222.506 50.7724C222.772 49.5484 223.117 47.9376 223.544 45.9413C223.97 43.9439 224.343 42.227 224.662 40.7895C224.981 39.3521 225.287 38.0078 225.58 36.7567C225.872 35.5067 226.072 34.7203 226.179 34.4007C226.286 33.9219 226.631 32.2581 227.218 29.4092C227.803 26.5614 228.416 23.6465 229.055 20.6644C229.693 17.6834 230.145 15.713 230.412 14.7544C230.518 14.3287 230.812 14.1152 231.29 14.1152Z" fill="#F8EDD2"/>
    <path d="M235.684 52.37C235.736 50.9857 235.976 49.6544 236.403 48.3762C238.585 41.5617 242.632 36.1575 248.542 32.1648C249.074 31.8453 249.632 31.5257 250.219 31.2062C250.804 30.8867 251.443 30.7263 252.136 30.7263C252.934 30.7263 253.705 30.9397 254.452 31.3654C255.196 31.7922 255.861 32.324 256.448 32.9631C257.087 33.6022 257.672 34.2944 258.205 35.0396C258.631 35.7318 259.004 36.477 259.323 37.2754C259.642 37.9145 259.589 38.5005 259.164 39.0324C258.844 39.5123 258.417 40.0181 257.885 40.55C261.24 42.9461 263.582 46.0885 264.914 49.974C265.712 52.317 266.004 54.7391 265.792 57.2413C265.525 59.4251 264.78 61.4485 263.556 63.3106C262.278 65.1759 260.654 66.6393 258.684 67.7041C256.554 68.9292 254.238 69.6203 251.736 69.7795C251.097 69.8326 250.471 69.7925 249.859 69.6603C249.247 69.5281 248.648 69.3548 248.062 69.1414C245.24 67.9704 242.764 66.2936 240.635 64.1099C238.559 61.9272 237.093 59.3979 236.243 56.5231C235.763 55.1388 235.577 53.7543 235.684 52.37ZM255.41 45.4212C254.238 44.3575 253.573 43.8776 253.413 43.9838C252.667 44.5167 251.842 45.1959 250.938 46.0202C250.032 46.8467 249.074 47.8844 248.062 49.1355C247.051 50.3866 246.238 51.6648 245.627 52.969C245.014 54.2743 244.601 55.6716 244.389 57.161C244.175 58.6526 244.469 60.064 245.267 61.3942C246.651 62.5662 248.634 62.4601 251.217 61.0747C253.799 59.6914 255.636 57.6279 256.728 54.8852C257.818 52.1436 257.379 48.9893 255.41 45.4212Z" fill="#F8EDD2"/>
    <path d="M274.178 67.4635C272.048 66.2936 270.437 64.6287 269.346 62.472C268.254 60.3164 267.868 58.0135 268.188 55.5643C268.348 53.9666 268.64 52.3699 269.066 50.7722C269.438 49.2286 269.891 47.711 270.424 46.2205C271.115 44.0909 271.968 42.0144 272.98 39.9909C273.99 37.9685 274.896 35.892 275.695 33.7613C276.014 32.963 276.466 32.5633 277.052 32.5633C277.478 32.6175 277.904 32.7507 278.331 32.963C279.395 33.4418 280.299 34.135 281.046 35.0395C281.737 35.9451 282.164 36.9839 282.323 38.1537C282.589 39.9648 282.456 41.7749 281.924 43.5849C281.286 46.0882 280.619 48.5363 279.928 50.9323C279.022 54.4462 278.331 57.9873 277.851 61.5532C280.619 58.7325 283.122 55.6713 285.359 52.3697C287.381 49.1753 288.979 45.7946 290.15 42.2265C290.47 41.5874 290.709 40.9494 290.869 40.3103C291.081 39.6192 291.694 39.3787 292.706 39.591C293.664 39.8044 294.489 40.2843 295.182 41.0284C296.033 41.6675 296.539 42.494 296.699 43.5046C296.911 44.0375 297.005 44.5824 296.979 45.1413C296.951 45.7002 296.911 46.2473 296.859 46.7791C296.805 47.0986 296.645 47.8569 296.38 49.0549C296.113 50.2529 295.873 51.425 295.661 52.5688C295.448 53.7148 295.342 55.005 295.342 56.4424C295.342 57.8798 295.553 59.1049 295.98 60.1156C296.939 60.3832 299.028 57.4281 302.25 51.2517C305.47 45.0752 307.561 40.3903 308.519 37.1948C308.679 36.664 309.011 36.3044 309.517 36.117C310.022 35.9307 310.515 35.9978 310.995 36.3163C313.603 38.0733 315.067 40.5495 315.387 43.7439C314.908 45.9807 312.832 49.9876 309.158 55.7633C305.484 61.5412 302.741 64.9349 300.932 65.9466C299.76 66.6388 298.508 67.0114 297.178 67.0645C295.9 67.1176 294.702 66.798 293.585 66.1059C292.678 65.521 291.96 64.6956 291.428 63.6297C290.895 62.566 290.576 61.4611 290.47 60.3161C290.363 59.1711 290.322 58.0793 290.35 57.0415C290.376 56.0027 290.43 55.1383 290.51 54.4461C290.589 53.7539 290.602 53.4073 290.549 53.4073C288.314 57.4542 286.397 60.6486 284.8 62.9916C283.202 65.3346 281.817 66.9323 280.647 67.7827C279.848 68.4218 278.942 68.7684 277.931 68.8215C276.6 68.7153 275.348 68.263 274.178 67.4635Z" fill="#F8EDD2"/>
    <path d="M318.422 58.28C320.39 58.28 321.987 59.0783 323.213 60.675C324.118 62.2727 324.571 64.0037 324.571 65.8668C324.623 66.5059 324.411 67.0388 323.932 67.4635C323.399 67.8372 322.84 67.8632 322.254 67.5437C320.763 67.0649 319.406 66.2937 318.182 65.2278C317.01 64.0568 316.238 62.6996 315.866 61.1549C315.333 59.2376 316.185 58.28 318.422 58.28ZM327.366 18.4274C328.271 19.6536 328.59 21.0109 328.324 22.5003C328.324 22.7679 328.017 25.3362 327.406 30.2074C326.793 35.0797 326.221 39.8848 325.689 44.6228C325.156 49.3619 324.863 52.1836 324.81 53.0881C324.81 53.3015 324.783 53.5149 324.731 53.7272C324.677 53.9406 324.677 54.154 324.731 54.3663C324.783 55.2188 324.464 55.911 323.772 56.4428C322.974 57.0288 322.095 57.161 321.137 56.8425C320.284 56.6302 319.486 56.3106 318.741 55.8839C317.942 55.404 317.303 54.766 316.824 53.9666C316.505 53.4878 316.291 52.982 316.185 52.449C316.132 51.9182 316.132 51.3853 316.185 50.8523C316.238 50.054 316.624 47.1661 317.343 42.1866C318.062 37.2092 318.821 32.0585 319.619 26.7335C320.418 21.4106 320.844 18.4556 320.897 17.8685C320.949 17.1774 321.216 16.6185 321.696 16.1917C322.387 15.8202 323.079 15.792 323.772 16.1115C325.209 16.431 326.408 17.2034 327.366 18.4274Z" fill="#F8EDD2"/>
</svg>
