<?xml version="1.0" encoding="UTF-8" standalone="no"?><!DOCTYPE svg PUBLIC "-//W3C//DTD SVG 1.1//EN" "http://www.w3.org/Graphics/SVG/1.1/DTD/svg11.dtd"><svg width="100%" height="100%" viewBox="0 0 166 152" version="1.1" xmlns="http://www.w3.org/2000/svg" xmlns:xlink="http://www.w3.org/1999/xlink" xml:space="preserve" xmlns:serif="http://www.serif.com/" style="fill-rule:evenodd;clip-rule:evenodd;stroke-linejoin:round;stroke-miterlimit:2;"><path d="M144.301,23.134c-34.283,-31.837 -84.05,-30.908 -115.888,3.375c-31.837,34.283 -39.575,60.804 -9.504,96.646c15.075,17.971 31.188,25.671 48.059,26.496c2.491,0.654 5.029,1.229 7.654,1.633l-0,-51.883c-5.4,-0 -10.575,-0.109 -15.746,0.046c-2.363,0.075 -3.108,-0.759 -2.967,-3.034c0.159,-2.537 0.038,-5.087 0.038,-7.633l-0,-10.763c5.65,0 10.829,-0.129 16,0.055c2.425,0.087 2.954,-0.813 2.941,-3.034c-0.037,-6.066 -0.183,-12.162 0.305,-18.196c1.058,-13.12 9.795,-22.408 22.808,-23.575c6.458,-0.575 13.062,0.38 19.587,0.846c0.675,0.046 1.767,1.454 1.796,2.263c0.171,4.591 0.017,9.2 0.109,13.8c0.037,1.871 -0.784,2.354 -2.471,2.296c-2.542,-0.088 -5.092,-0.071 -7.638,-0.005c-7.196,0.184 -11.221,4.221 -11.4,11.413c-0.05,2.154 -0.012,4.308 -0.008,6.462c0.008,7.696 0.012,7.692 7.629,7.675c4.175,-0.008 8.346,0 12.95,0c-1.083,6.984 -2.029,13.442 -3.179,19.867c-0.113,0.625 -1.496,1.417 -2.313,1.45c-3.912,0.154 -7.837,0.204 -11.745,0.025c-2.467,-0.117 -3.421,0.463 -3.396,3.196c0.125,13.962 0.075,27.929 0.066,41.896c10.355,-3.65 20.913,-8.959 31.63,-15.292c11.762,-6.95 20.804,-16.179 26.895,-26.542c14.767,-25.116 12.059,-56.945 -12.212,-79.483" style="fill:#a09b7e;fill-rule:nonzero;"/></svg>