<?xml version="1.0" encoding="UTF-8" standalone="no"?><!DOCTYPE svg PUBLIC "-//W3C//DTD SVG 1.1//EN" "http://www.w3.org/Graphics/SVG/1.1/DTD/svg11.dtd"><svg width="100%" height="100%" viewBox="0 0 163 149" version="1.1" xmlns="http://www.w3.org/2000/svg" xmlns:xlink="http://www.w3.org/1999/xlink" xml:space="preserve" xmlns:serif="http://www.serif.com/" style="fill-rule:evenodd;clip-rule:evenodd;stroke-linejoin:round;stroke-miterlimit:2;"><g><path d="M100.93,117.688c-5.692,0.033 -11.384,0.004 -17.08,0.004l0,-0.013c-5.595,0 -11.191,0.009 -16.787,0c-14.492,-0.016 -25.925,-11.37 -25.979,-25.866c-0.042,-11.288 -0.071,-22.575 0.016,-33.863c0.113,-14.737 11.442,-25.962 26.171,-26.004c11.096,-0.029 22.192,-0.029 33.288,0.004c14.612,0.038 25.825,10.704 26.183,25.338c0.288,11.762 0.279,23.546 0,35.308c-0.337,14.292 -11.562,25.008 -25.812,25.092m59.641,-52.084c-9.862,-45.733 -51.191,-73.483 -96.925,-63.616c-45.733,9.866 -67.266,27.175 -63.15,73.779c2.838,32.112 18.367,49.467 41.017,58.804c11.937,8.542 26.542,13.55 42.379,13.521c10.421,-0.021 20.333,-2.221 29.317,-6.142c33.354,-8.579 55.337,-39.383 47.362,-76.346" style="fill:#a09b7e;fill-rule:nonzero;"/><path d="M106.729,57.245c-2.671,0.033 -4.979,-2.209 -5.029,-4.884c-0.05,-2.608 2.258,-4.958 4.925,-5.016c2.658,-0.063 4.967,2.204 4.983,4.887c0.017,2.717 -2.187,4.979 -4.879,5.013m-22.496,38.637c-11.816,-0.141 -21.083,-9.533 -20.979,-21.271c0.104,-11.604 9.838,-21.083 21.438,-20.879c11.425,0.204 20.883,9.929 20.758,21.342c-0.129,11.483 -9.775,20.942 -21.217,20.808m16.163,-55.908c-11.092,-0.071 -22.188,-0.071 -33.279,-0c-10.479,0.071 -17.988,7.675 -18.025,18.192c-0.038,11.191 -0.038,22.379 -0,33.57c0.033,10.28 7.646,17.855 17.971,17.917c5.691,0.038 11.383,0.008 17.075,0.008l-0,-0.012c5.404,-0 10.804,0.004 16.208,-0c10.904,-0.004 18.412,-7.413 18.45,-18.288c0.033,-10.995 0.033,-21.995 -0.004,-32.991c-0.034,-10.904 -7.429,-18.329 -18.396,-18.396" style="fill:#a09b7e;fill-rule:nonzero;"/><path d="M84.455,61.272c-7.42,-0.104 -13.554,5.813 -13.691,13.204c-0.142,7.717 5.6,13.725 13.246,13.867c7.654,0.138 13.737,-5.679 13.883,-13.283c0.142,-7.509 -5.875,-13.684 -13.438,-13.788" style="fill:#a09b7e;fill-rule:nonzero;"/></g></svg>