<svg viewBox="0 0 226 199" fill="none" xmlns="http://www.w3.org/2000/svg">
    <path d="M162.696 136.516C156.181 136.516 149.905 136.516 143.457 136.516C143.457 135.892 143.457 135.341 143.457 134.788C143.449 124.621 143.467 114.455 143.407 104.288C143.397 102.76 143.152 101.203 142.793 99.7136C141.941 96.1708 140.013 93.4907 136.253 92.6413C132.071 91.6987 128.505 92.8293 125.693 96.1197C123.676 98.4803 123.051 101.286 123.056 104.316C123.073 114.38 123.063 124.444 123.061 134.508C123.061 135.125 123.061 135.743 123.061 136.475C116.672 136.475 110.355 136.475 103.934 136.475C103.934 117.26 103.934 98.0385 103.934 78.684C110.257 78.684 116.563 78.684 123.033 78.684C123.033 81.2 123.033 83.6987 123.033 86.6933C123.628 85.9547 123.943 85.6013 124.217 85.22C128.761 78.9187 135.1 76.6533 142.591 77.2493C155.947 78.3133 161.191 87.988 162.331 97.5896C162.609 99.9375 162.672 102.321 162.68 104.688C162.717 114.649 162.696 124.609 162.696 134.571C162.696 135.18 162.696 135.791 162.696 136.516ZM83.4017 70.548C77.1574 70.5133 72.7689 66.3653 72.7746 60.5053C72.7807 54.6333 77.2626 50.4907 83.6137 50.488C89.8766 50.4867 94.3912 54.7427 94.3636 60.6227C94.336 66.4253 89.7449 70.5813 83.4017 70.548ZM92.9569 136.508C86.6418 136.508 80.3673 136.508 73.9709 136.508C73.9709 117.251 73.9709 97.9984 73.9709 78.648C80.2985 78.648 86.5657 78.648 92.9569 78.648C92.9569 97.9281 92.9569 117.176 92.9569 136.508ZM223.377 85.8493C209.741 23.4827 152.331 -12.1307 88.7271 4.33734C25.1235 20.8053 -4.84474 46.0053 0.798991 109.931C6.97712 179.924 57.749 196.607 122.068 198.553C186.921 200.515 237.013 148.223 223.377 85.8493Z" fill="#A09B7E"/>
</svg>
