<svg viewBox="0 0 226 199" fill="none" xmlns="http://www.w3.org/2000/svg">
    <path d="M166.005 87.952C154.425 88.0693 144.22 84.2627 134.559 77.308C134.559 78.476 134.556 79.212 134.559 79.948C134.603 93.956 134.691 107.963 134.683 121.971C134.673 140.652 123.021 155.568 104.915 160.196C82.9839 165.803 60.3803 150.785 57.1364 128.455C54.026 107.041 68.8646 87.32 90.3479 84.5653C93.9527 84.104 97.6667 84.5 101.449 84.5C101.449 91.412 101.449 98.0683 101.449 104.491C98.7084 104.491 95.9703 104.249 93.2886 104.536C84.6927 105.449 77.7479 112.991 77.2662 121.3C76.664 131.696 83.9615 139.119 91.714 140.76C103.733 143.303 114.303 134.569 114.324 121.998C114.369 94.4812 114.349 66.9627 114.356 39.4453C114.356 38.604 114.356 37.7627 114.356 36.7813C121.084 36.7813 127.661 36.7813 134.412 36.7813C135.535 55.4893 149.563 67.5053 166.005 67.972C166.005 74.5373 166.005 81.108 166.005 87.952ZM109.967 0.61734C45.3766 -5.54799 -8.00211 43.3853 1.55842 106.512C11.1198 169.631 66.0984 208.895 130.637 196.586C195.175 184.28 226.715 161.08 225.231 96.9213C223.605 26.6747 174.024 6.73334 109.967 0.61734Z" fill="#A09B7E"/>
</svg>
