<svg viewBox="0 0 227 199" fill="none" xmlns="http://www.w3.org/2000/svg">
    <path d="M81.174 49.1413C77.6 49.4413 73.9828 49.212 70.112 49.212C70.6125 49.9933 70.8973 50.476 71.2177 50.9333C84.3792 69.7547 97.5448 88.572 110.708 107.391C120.289 121.088 129.859 134.791 139.469 148.465C139.896 149.073 140.665 149.828 141.292 149.843C145.939 149.96 150.588 149.907 155.652 149.907C155.084 149.033 154.76 148.497 154.401 147.984C132.179 116.195 109.92 84.4293 87.7926 52.5733C86.0297 50.036 84.286 48.88 81.174 49.1413Z" fill="#A09B7E"/>
    <path d="M167.18 156.968C157.279 156.968 147.377 156.944 137.476 156.996C136.191 157.003 135.424 156.619 134.685 155.537C125.295 141.784 115.849 128.069 106.418 114.345C105.986 113.717 105.542 113.097 104.969 112.281C102.355 115.307 99.815 118.233 97.2874 121.171C87.4161 132.64 77.536 144.104 67.6978 155.603C66.8286 156.617 65.9437 157.057 64.5978 156.998C62.114 156.89 59.6218 156.968 56.5636 156.968C71.3713 139.752 85.8969 122.863 100.553 105.824C85.9541 84.576 71.3786 63.3626 56.5745 41.816C57.5254 41.7733 58.1265 41.7253 58.7265 41.724C68.5645 41.72 78.4021 41.7466 88.2391 41.692C89.6104 41.684 90.4125 42.128 91.189 43.2653C100.039 56.228 108.947 69.1507 117.841 82.084C118.273 82.712 118.715 83.332 119.244 84.088C122.765 80.0066 126.221 76.0107 129.665 72.0067C137.911 62.42 146.164 52.844 154.369 43.224C155.329 42.1 156.331 41.6213 157.809 41.6907C160.271 41.804 162.741 41.7213 165.645 41.7213C151.476 58.1933 137.623 74.2973 123.648 90.5413C138.772 112.549 153.896 134.56 169.293 156.968C168.304 156.968 167.741 156.968 167.18 156.968ZM225.465 89.0026C219.287 19.0093 168.515 2.32664 104.196 0.378638C39.3427 -1.5827 -10.749 50.7093 2.88638 113.083C16.5229 175.449 73.9338 211.063 137.537 194.595C201.141 178.127 231.109 152.928 225.465 89.0026Z" fill="#A09B7E"/>
</svg>
