<?xml version="1.0" encoding="UTF-8" standalone="no"?><!DOCTYPE svg PUBLIC "-//W3C//DTD SVG 1.1//EN" "http://www.w3.org/Graphics/SVG/1.1/DTD/svg11.dtd"><svg width="100%" height="100%" viewBox="0 0 164 153" version="1.1" xmlns="http://www.w3.org/2000/svg" xmlns:xlink="http://www.w3.org/1999/xlink" xml:space="preserve" xmlns:serif="http://www.serif.com/" style="fill-rule:evenodd;clip-rule:evenodd;stroke-linejoin:round;stroke-miterlimit:2;"><g><path d="M54.78,105.252c-7.896,-0.612 -11.088,-3.462 -12.188,-11.258c-1.612,-11.446 -1.516,-22.929 0.192,-34.363c0.833,-5.57 4.033,-8.875 9.592,-9.345c10.045,-0.85 20.12,-1.292 27.995,-1.767c11.371,0.475 20.521,0.758 29.659,1.271c8.1,0.458 11.696,3.683 12.675,11.471c1.404,11.17 1.483,22.37 -0.175,33.533c-0.95,6.408 -3.892,9.796 -10.375,10.133c-13.888,0.725 -27.804,0.938 -41.709,1.129c-5.22,0.071 -10.454,-0.4 -15.666,-0.804m83.175,-85.791c-38.334,-33.98 -74.35,-18.892 -110.388,10.333c-36.337,29.467 -37.529,80.583 1.063,107.033c38.587,26.45 87.679,18.217 114.133,-20.375c26.45,-38.591 30.204,-65.962 -4.808,-96.991" style="fill:#a09b7e;fill-rule:nonzero;"/><path d="M74.59,89.857c7.216,-4.179 14.021,-8.121 21.246,-12.308c-7.271,-4.2 -14.042,-8.109 -21.246,-12.271l-0,24.579Z" style="fill:#a09b7e;fill-rule:nonzero;"/></g></svg>