<?xml version="1.0" encoding="UTF-8" standalone="no"?>
<!DOCTYPE svg PUBLIC "-//W3C//DTD SVG 1.1//EN" "http://www.w3.org/Graphics/SVG/1.1/DTD/svg11.dtd">
<svg width="100%" height="100%" viewBox="0 0 1123 704" version="1.1" xmlns="http://www.w3.org/2000/svg" xmlns:xlink="http://www.w3.org/1999/xlink" xml:space="preserve" xmlns:serif="http://www.serif.com/" style="fill-rule:evenodd;clip-rule:evenodd;stroke-linejoin:round;stroke-miterlimit:2;">
    <g transform="matrix(1,0,0,1,-3542.35,-19765.6)">
        <g transform="matrix(5.55556,0,0,5.55556,0,0)">
            <g transform="matrix(1,0,0,1,743.847,3659.95)">
                <path d="M0,-21.464C1.873,-21.464 3.747,-21.489 5.62,-21.457C7.604,-21.424 8.194,-22.218 7.618,-24.18C6.242,-28.87 0.982,-31.227 -4.745,-29.32C-6.399,-28.769 -8.839,-28.39 -8.401,-25.531C-7.99,-22.849 -7.194,-20.738 -3.739,-21.428C-2.538,-21.668 -1.249,-21.466 0,-21.464M39.695,-21.187C41.339,-21.682 43.237,-21.811 44.577,-22.743C48.492,-25.464 49.566,-29.721 49.875,-34.2C49.917,-34.8 49.243,-36.008 49.118,-35.979C46.328,-35.344 43.02,-35.255 40.979,-33.612C39.405,-32.345 39.062,-32.334 37.343,-32.957C35.823,-33.508 32.679,-33.247 32.196,-32.326C30.51,-29.109 29.667,-25.45 28.368,-21.556C35.895,-21.798 39.974,-26.76 44.224,-31.645C45.749,-26.707 40.879,-25.191 39.695,-21.187M13.998,-22.111C23.052,-19.999 25.036,-21.003 27.895,-28.553C28.332,-29.707 28.661,-30.931 28.831,-32.151C29.787,-38.989 29.636,-39.097 23.033,-37.577C17.981,-36.413 13.991,-33.587 10.502,-29.87C8.691,-27.941 9.768,-26.202 10.787,-24.555C10.875,-24.414 13.012,-25.209 13.876,-25.946C16.245,-27.964 18.392,-30.242 20.745,-32.28C21.305,-32.764 22.328,-32.713 23.138,-32.908C22.94,-31.997 22.861,-31.034 22.498,-30.194C22.273,-29.674 21.606,-29.351 21.154,-28.922C18.916,-26.798 16.683,-24.668 13.998,-22.111M-10.765,-29.926C-10.389,-29.943 -10.014,-29.845 -9.799,-29.987C-4.778,-33.327 0.337,-33.47 5.905,-31.189C6.868,-30.794 8.962,-32.907 10.322,-34.103C10.467,-34.231 9.393,-36.544 8.516,-36.878C6.279,-37.729 5.632,-39.076 5.545,-41.342C5.501,-42.472 4.586,-43.876 3.639,-44.602C1.41,-46.313 -0.869,-45.264 -2.583,-41.708C-3.677,-39.438 -4.694,-38.298 -7.204,-40.163C-7.984,-40.742 -9.961,-40.885 -10.504,-40.342C-11.381,-39.466 -11.921,-37.844 -11.886,-36.557C-11.827,-34.42 -11.198,-32.298 -10.765,-29.926M-19.387,-31.529L-18.191,-30.886C-18.456,-29.927 -18.549,-28.87 -19.027,-28.033C-19.745,-26.777 -20.743,-25.684 -21.604,-24.508C-22.891,-22.748 -22.192,-21.716 -20.267,-21.548C-18.198,-21.367 -16.097,-21.386 -14.023,-21.518C-12.971,-21.586 -11.183,-21.932 -11.073,-22.442C-10.854,-23.457 -11.211,-25.09 -11.96,-25.726C-14.047,-27.499 -14.419,-29.39 -14.059,-32.038C-13.597,-35.441 -16.361,-37.561 -19.156,-35.882C-22.464,-33.894 -24.046,-34.783 -25.206,-37.996C-25.377,-38.47 -25.674,-38.995 -26.069,-39.273C-27.038,-39.953 -28.389,-41.217 -29.057,-40.946C-30.214,-40.475 -31.378,-39.159 -31.794,-37.943C-32.309,-36.432 -32.168,-34.66 -32.131,-33.004C-32.057,-29.597 -32.33,-29.485 -35.584,-30.176C-36.684,-30.41 -38.516,-29.887 -39.151,-29.053C-40.4,-27.414 -38.14,-21.879 -36.118,-21.683C-32.702,-21.352 -29.23,-21.592 -25.173,-21.592C-26.558,-24.442 -27.659,-26.542 -28.578,-28.719C-28.791,-29.223 -28.385,-29.989 -28.263,-30.634C-27.629,-30.461 -26.894,-30.429 -26.388,-30.073C-25.916,-29.741 -25.604,-29.099 -25.364,-28.534C-24.549,-26.615 -23.613,-26.8 -22.427,-28.223C-21.469,-29.371 -20.404,-30.431 -19.387,-31.529M-39.456,-6.449C-34.536,9.091 -14.779,22.289 7.923,20.201C28.638,18.295 43.476,3.895 45.201,-6.282C44.158,-6.336 43.15,-6.43 42.142,-6.434C36.724,-6.454 31.305,-6.407 25.889,-6.484C24.359,-6.506 22.033,-5.852 22.013,-8.36C21.992,-11.039 24.396,-10.436 26.05,-10.451C32.093,-10.504 38.136,-10.452 44.179,-10.47C47.391,-10.479 48.165,-11.448 48.167,-15.259C48.168,-18.241 45.89,-17.43 44.327,-17.434C26.511,-17.486 8.694,-17.469 -9.122,-17.471C-19.02,-17.473 -28.918,-17.493 -38.816,-17.46C-40.188,-17.456 -41.895,-17.839 -42.064,-15.573C-42.343,-11.852 -41.137,-10.484 -37.432,-10.482C-23.262,-10.473 -9.092,-10.474 5.077,-10.464C6.013,-10.464 7.061,-10.647 7.852,-10.29C8.564,-9.969 9.442,-9.01 9.421,-8.358C9.401,-7.73 8.422,-6.882 7.685,-6.595C6.863,-6.276 5.838,-6.46 4.901,-6.459C-8.539,-6.452 -21.98,-6.452 -35.42,-6.449L-39.456,-6.449M-40.889,-21.945C-41.3,-23.225 -41.63,-24.293 -41.986,-25.353C-43.436,-29.668 -41.602,-32.659 -37.207,-33.529C-36.407,-33.687 -35.533,-34.738 -35.18,-35.58C-34.711,-36.699 -35.107,-38.313 -34.441,-39.189C-33.067,-40.996 -31.453,-43.282 -29.521,-43.792C-28,-44.193 -25.494,-42.596 -24.082,-41.215C-22.495,-39.662 -21.638,-37.842 -18.808,-38.905C-16.981,-39.591 -14.853,-38.958 -13.612,-41.406C-12.435,-43.729 -10.167,-44.469 -7.436,-43.727C-6.609,-43.502 -5.141,-43.91 -4.629,-44.555C-2.589,-47.125 -0.188,-48.809 3.149,-48.011C6.39,-47.237 8.134,-45.066 8.601,-41.6C9.001,-38.631 13.566,-37.012 16.422,-38.09C20.193,-39.513 24.118,-40.547 28.015,-41.607C30.386,-42.253 31.891,-41.372 31.901,-38.7C31.909,-36.576 32.914,-36.037 34.922,-36.491C39.59,-37.546 44.314,-38.359 48.966,-39.476C51.543,-40.096 52.806,-38.932 52.588,-36.724C52.227,-33.053 51.426,-29.413 50.608,-25.805C50.324,-24.55 49.439,-23.43 48.677,-21.954C53.065,-21.356 52.676,-18.387 52.286,-15.4C49.758,3.966 37.938,15.7 20.275,21.542C2.729,27.345 -14.14,24.797 -29.242,13.736C-39.336,6.343 -45.037,-3.752 -46.26,-16.275C-46.663,-20.398 -46.219,-20.888 -40.889,-21.945" style="fill:rgb(45,61,54);fill-rule:nonzero;"/>
            </g>
            <g transform="matrix(1,0,0,1,704.39,3670.45)">
                <path d="M0,-16.947L4.036,-16.947C17.476,-16.949 30.917,-16.95 44.357,-16.957C45.294,-16.957 46.319,-16.773 47.141,-17.093C47.879,-17.38 48.857,-18.228 48.877,-18.855C48.898,-19.507 48.02,-20.467 47.308,-20.788C46.517,-21.145 45.47,-20.961 44.534,-20.962C30.364,-20.972 16.194,-20.97 2.024,-20.979C-1.681,-20.982 -2.886,-22.35 -2.608,-26.07C-2.438,-28.337 -0.732,-27.954 0.64,-27.958C10.538,-27.99 20.436,-27.97 30.334,-27.969C48.15,-27.967 65.967,-27.984 83.783,-27.932C85.346,-27.927 87.625,-28.739 87.623,-25.756C87.622,-21.945 86.847,-20.977 83.635,-20.968C77.592,-20.95 71.549,-21.001 65.507,-20.948C63.852,-20.934 61.448,-21.537 61.469,-18.857C61.49,-16.35 63.815,-17.003 65.345,-16.981C70.762,-16.905 76.18,-16.951 81.598,-16.931C82.607,-16.927 83.615,-16.833 84.657,-16.779C82.932,-6.603 68.094,7.797 47.379,9.703C24.677,11.792 4.92,-1.406 0,-16.947" style="fill:rgb(249,238,210);fill-rule:nonzero;"/>
            </g>
            <g transform="matrix(1,0,0,1,724.46,3628.91)">
                <path d="M0,-0.489C-1.017,0.61 -2.083,1.669 -3.04,2.818C-4.226,4.24 -5.162,4.426 -5.977,2.506C-6.217,1.941 -6.529,1.3 -7.001,0.968C-7.508,0.612 -8.242,0.58 -8.877,0.407C-8.998,1.052 -9.404,1.817 -9.191,2.322C-8.272,4.498 -7.172,6.598 -5.786,9.448C-9.844,9.448 -13.315,9.688 -16.732,9.357C-18.753,9.162 -21.013,3.627 -19.765,1.988C-19.129,1.154 -17.297,0.63 -16.197,0.864C-12.943,1.555 -12.67,1.443 -12.745,-1.964C-12.781,-3.619 -12.923,-5.391 -12.407,-6.903C-11.992,-8.119 -10.828,-9.435 -9.67,-9.905C-9.002,-10.177 -7.651,-8.912 -6.682,-8.232C-6.287,-7.954 -5.99,-7.43 -5.819,-6.956C-4.66,-3.742 -3.077,-2.854 0.231,-4.842C3.026,-6.521 5.79,-4.401 5.328,-0.998C4.968,1.651 5.34,3.542 7.427,5.314C8.176,5.95 8.532,7.583 8.313,8.598C8.203,9.109 6.415,9.454 5.364,9.522C3.289,9.655 1.188,9.674 -0.88,9.492C-2.805,9.324 -3.504,8.293 -2.217,6.532C-1.357,5.356 -0.358,4.263 0.36,3.008C0.838,2.17 0.931,1.113 1.196,0.154L0,-0.489Z" style="fill:rgb(249,238,210);fill-rule:nonzero;"/>
            </g>
            <g transform="matrix(1,0,0,1,733.082,3613.72)">
                <path d="M0,16.305C-0.433,13.934 -1.062,11.812 -1.121,9.674C-1.156,8.387 -0.616,6.765 0.261,5.889C0.804,5.347 2.781,5.489 3.561,6.069C6.071,7.933 7.088,6.793 8.182,4.523C9.896,0.968 12.175,-0.082 14.404,1.63C15.351,2.356 16.266,3.759 16.31,4.889C16.397,7.155 17.044,8.502 19.281,9.354C20.158,9.687 21.232,12 21.087,12.128C19.727,13.325 17.633,15.437 16.67,15.043C11.102,12.761 5.987,12.905 0.966,16.244C0.751,16.387 0.376,16.288 0,16.305" style="fill:rgb(249,238,210);fill-rule:nonzero;"/>
            </g>
            <g transform="matrix(1,0,0,1,757.845,3622.96)">
                <path d="M0,14.874C2.685,12.317 4.918,10.187 7.156,8.063C7.608,7.634 8.275,7.311 8.5,6.791C8.863,5.951 8.942,4.988 9.14,4.077C8.33,4.272 7.307,4.221 6.747,4.705C4.394,6.743 2.247,9.021 -0.122,11.039C-0.987,11.776 -3.123,12.571 -3.211,12.43C-4.23,10.783 -5.307,9.044 -3.496,7.115C-0.007,3.398 3.983,0.572 9.035,-0.592C15.638,-2.112 15.789,-2.004 14.833,4.834C14.663,6.054 14.334,7.278 13.897,8.432C11.038,15.982 9.054,16.986 0,14.874" style="fill:rgb(249,238,210);fill-rule:nonzero;"/>
            </g>
            <g transform="matrix(1,0,0,1,783.542,3623.94)">
                <path d="M0,14.821C1.183,10.817 6.053,9.3 4.529,4.363C0.278,9.248 -3.8,14.209 -11.327,14.452C-10.029,10.557 -9.185,6.899 -7.5,3.682C-7.017,2.761 -3.872,2.5 -2.353,3.051C-0.634,3.674 -0.291,3.663 1.283,2.396C3.325,0.752 6.632,0.663 9.423,0.028C9.548,0 10.221,1.208 10.18,1.808C9.87,6.286 8.796,10.544 4.881,13.265C3.541,14.196 1.643,14.325 0,14.821" style="fill:rgb(249,238,210);fill-rule:nonzero;"/>
            </g>
            <g transform="matrix(1,0,0,1,743.847,3629.45)">
                <path d="M0,9.035C-1.249,9.034 -2.538,8.832 -3.739,9.072C-7.194,9.762 -7.99,7.651 -8.401,4.969C-8.839,2.11 -6.399,1.731 -4.745,1.18C0.982,-0.727 6.242,1.63 7.618,6.321C8.194,8.283 7.604,9.076 5.62,9.043C3.747,9.012 1.873,9.036 0,9.035" style="fill:rgb(249,238,210);fill-rule:nonzero;"/>
            </g>
            <g transform="matrix(1,0,0,1,641.744,3607.97)">
                <path d="M0,-2.059C-0.489,-2.35 -1.06,-2.657 -1.71,-2.977C-1.602,-2.734 -1.472,-2.464 -1.321,-2.173C-1.16,-1.845 -1.006,-1.53 -0.86,-1.227C-0.574,-1.506 -0.288,-1.782 0,-2.059M1.791,-0.968C1.216,-0.418 0.647,0.137 0.081,0.697C0.153,0.854 0.232,1.015 0.314,1.175C0.559,1.609 0.729,2.017 0.826,2.404C0.921,2.79 0.837,3.114 0.573,3.378C0.54,3.409 0.504,3.444 0.463,3.477C0.203,3.657 -0.053,3.729 -0.307,3.692C-0.56,3.654 -0.739,3.588 -0.844,3.498C-0.95,3.405 -1.012,3.355 -1.028,3.337C-1.206,3.185 -1.341,3.014 -1.434,2.829C-1.603,2.492 -1.775,2.152 -1.951,1.813C-2.608,0.519 -3.234,-0.796 -3.828,-2.132C-4.009,-2.554 -4.108,-3.059 -4.121,-3.645C-4.135,-4.235 -3.994,-4.748 -3.698,-5.183C-3.655,-5.232 -3.613,-5.277 -3.567,-5.321C-3.312,-5.567 -3.004,-5.71 -2.645,-5.742C-2.227,-5.788 -1.815,-5.742 -1.409,-5.606C-1.004,-5.475 -0.671,-5.328 -0.413,-5.172C1.125,-4.259 2.621,-3.304 4.081,-2.305C4.294,-2.182 4.47,-2.054 4.606,-1.92C4.812,-1.72 4.932,-1.509 4.969,-1.291C5.031,-0.93 4.935,-0.631 4.681,-0.396C4.427,-0.159 4.088,-0.069 3.661,-0.122C3.543,-0.142 3.363,-0.209 3.115,-0.32C2.87,-0.426 2.621,-0.548 2.374,-0.67C2.124,-0.794 1.93,-0.892 1.791,-0.968" style="fill:rgb(249,238,210);fill-rule:nonzero;"/>
            </g>
            <g transform="matrix(1,0,0,1,650.181,3597.55)">
                <path d="M0,4.209C0.244,3.449 0.352,2.719 0.321,2.02C0.289,1.322 0.183,0.834 -0.005,0.563C-0.194,0.291 -0.318,0.121 -0.379,0.055C-0.695,-0.283 -1.118,-0.478 -1.651,-0.526C-2.287,-0.582 -3.081,-0.343 -4.023,0.197C-3.927,0.465 -3.716,0.769 -3.394,1.12C-3.072,1.47 -2.83,1.728 -2.669,1.894C-2.312,2.261 -1.926,2.63 -1.512,3.003C-0.921,3.537 -0.417,3.945 0,4.209M1.336,5.81C1.046,6.327 0.775,6.698 0.519,6.919C0.43,6.994 0.342,7.054 0.254,7.094C-0.067,7.238 -0.357,7.224 -0.614,7.055C-1.315,6.607 -2.187,5.906 -3.239,4.957C-4.29,4.007 -5.19,3.187 -5.931,2.484C-6.056,2.364 -6.17,2.255 -6.271,2.166C-6.696,1.74 -6.804,1.238 -6.588,0.656C-6.373,0.073 -5.948,-0.493 -5.314,-1.041C-5.301,-1.052 -5.288,-1.063 -5.275,-1.075C-4.073,-2.087 -2.956,-2.677 -1.951,-2.855C-0.946,-3.029 -0.202,-2.956 0.279,-2.645C0.761,-2.332 1.106,-2.06 1.314,-1.831C1.657,-1.449 1.927,-0.986 2.125,-0.443C2.446,0.428 2.541,1.407 2.423,2.494C2.306,3.583 1.941,4.685 1.336,5.81" style="fill:rgb(249,238,210);fill-rule:nonzero;"/>
            </g>
            <g transform="matrix(1,0,0,1,654.851,3594.36)">
                <path d="M0,-4.339C-0.171,-4.198 -0.342,-4.053 -0.514,-3.906C-0.757,-3.689 -0.991,-3.497 -1.218,-3.326C-1.449,-3.151 -1.674,-3 -1.891,-2.871C-2.323,-2.613 -2.716,-2.615 -3.072,-2.884C-3.11,-2.918 -3.146,-2.951 -3.175,-2.986C-3.325,-3.155 -3.392,-3.353 -3.377,-3.58C-3.36,-3.857 -3.202,-4.14 -2.901,-4.434C-2.06,-5.203 -1.172,-5.926 -0.243,-6.601C-0.149,-6.669 -0.055,-6.737 0.038,-6.805C0.297,-6.985 0.562,-7.062 0.834,-7.033C1.105,-7.006 1.339,-6.885 1.534,-6.676C1.813,-6.352 2.125,-6.006 2.47,-5.633C3.11,-4.935 3.584,-4.387 3.897,-4C4.211,-3.61 4.38,-3.399 4.403,-3.369C4.977,-2.643 5.4,-1.966 5.676,-1.344C6.002,-0.508 6.036,0.162 5.782,0.664C5.526,1.168 5.208,1.552 4.828,1.833C4.621,1.982 4.388,2.116 4.127,2.23C3.392,2.561 2.552,2.723 1.598,2.717C1.117,2.692 0.756,2.538 0.513,2.256C0.504,2.245 0.495,2.235 0.486,2.225C0.242,1.921 0.157,1.652 0.233,1.424C0.31,1.194 0.412,1.034 0.54,0.935C0.711,0.806 0.956,0.716 1.273,0.666C2.228,0.575 2.829,0.445 3.082,0.261C3.092,0.254 3.103,0.246 3.113,0.238C3.345,0.04 3.332,-0.262 3.071,-0.667C2.743,-1.241 2.412,-1.728 2.082,-2.13C2.062,-2.155 2.042,-2.179 2.022,-2.203C1.666,-2.616 1.279,-3.035 0.858,-3.454C0.601,-3.719 0.315,-4.016 0,-4.339" style="fill:rgb(249,238,210);fill-rule:nonzero;"/>
            </g>
            <g transform="matrix(1,0,0,1,665.996,3586.49)">
                <path d="M0,1.714C-0.217,1.115 -0.567,0.366 -1.053,-0.536C-1.306,-1.021 -1.528,-1.465 -1.716,-1.863C-1.905,-2.264 -2.008,-2.548 -2.024,-2.728C-2.029,-3.066 -1.964,-3.293 -1.83,-3.401C-1.693,-3.507 -1.608,-3.574 -1.572,-3.597C-1.367,-3.725 -1.128,-3.78 -0.86,-3.759C-0.545,-3.733 -0.278,-3.578 -0.055,-3.293C0.112,-3.066 0.268,-2.847 0.417,-2.631C1.078,-1.674 1.592,-0.759 1.962,0.118C2.41,1.189 2.555,2.136 2.405,2.952C2.183,3.889 1.749,4.559 1.093,4.981C1.066,4.998 1.038,5.016 1.01,5.033C0.309,5.457 -0.49,5.494 -1.402,5.153C-2.198,4.802 -2.859,4.336 -3.379,3.749C-3.898,3.164 -4.34,2.632 -4.701,2.158C-4.9,1.895 -5.09,1.632 -5.273,1.373C-5.428,1.157 -5.577,0.949 -5.721,0.752C-6.072,0.247 -6.181,-0.145 -6.047,-0.431C-5.913,-0.712 -5.756,-0.921 -5.577,-1.038C-5.455,-1.118 -5.316,-1.178 -5.161,-1.212C-4.782,-1.309 -4.441,-1.221 -4.142,-0.957C-3.229,0.131 -2.324,1.226 -1.426,2.326C-0.858,2.94 -0.498,3.212 -0.339,3.134C-0.181,3.06 -0.092,3.016 -0.077,3.006C0.175,2.844 0.2,2.416 0,1.714" style="fill:rgb(249,238,210);fill-rule:nonzero;"/>
            </g>
            <g transform="matrix(1,0,0,1,671.946,3584.14)">
                <path d="M0,-2.89C0.102,-2.881 0.202,-2.871 0.298,-2.86C1.204,-2.79 2.079,-2.659 2.919,-2.465C3.758,-2.271 4.473,-1.914 5.062,-1.397C5.248,-1.213 5.396,-1.025 5.506,-0.837C5.768,-0.389 5.829,0.078 5.693,0.548C5.503,1.23 5.21,1.695 4.805,1.951C4.4,2.204 4.166,2.355 4.104,2.386C3.397,2.774 2.553,2.963 1.561,2.963C1.099,2.944 0.777,2.868 0.594,2.728C0.412,2.591 0.291,2.476 0.232,2.384C0.153,2.26 0.119,2.119 0.131,1.968C0.156,1.71 0.35,1.474 0.715,1.268C1.295,1.157 1.874,1.051 2.453,0.948C2.566,0.904 2.665,0.862 2.746,0.816C2.921,0.721 3.037,0.612 3.097,0.495C3.136,0.416 3.126,0.333 3.074,0.244C2.999,0.122 2.843,-0.008 2.604,-0.142C2.344,-0.273 2.028,-0.367 1.659,-0.423C1.29,-0.479 0.901,-0.519 0.494,-0.545C-0.011,-0.575 -0.5,-0.626 -0.977,-0.696C-1.453,-0.765 -1.827,-0.883 -2.094,-1.04C-2.363,-1.202 -2.559,-1.372 -2.681,-1.559C-2.783,-1.709 -2.859,-1.892 -2.913,-2.097C-3.041,-2.72 -2.938,-3.316 -2.603,-3.874C-2.268,-4.433 -1.94,-4.817 -1.622,-5.021C-1.304,-5.228 -1.095,-5.358 -0.998,-5.412C-0.555,-5.659 -0.121,-5.798 0.295,-5.824C0.753,-5.853 1.084,-5.698 1.291,-5.361C1.312,-5.326 1.332,-5.288 1.349,-5.246C1.482,-4.922 1.431,-4.634 1.198,-4.379C0.963,-4.125 0.63,-3.853 0.198,-3.559C0.102,-3.493 0.001,-3.42 -0.102,-3.342C-0.294,-3.196 -0.365,-3.081 -0.316,-3.005C-0.279,-2.948 -0.173,-2.91 0,-2.89" style="fill:rgb(249,238,210);fill-rule:nonzero;"/>
            </g>
            <g transform="matrix(1,0,0,1,681.268,3579.51)">
                <path d="M0,-4.608C1.016,-2.765 2.017,-0.914 3.003,0.944C3.025,0.988 3.047,1.031 3.07,1.075C3.213,1.35 3.305,1.648 3.353,1.969C3.399,2.332 3.213,2.634 2.797,2.874C2.379,3.051 2.021,3.034 1.722,2.819C1.421,2.602 1.189,2.342 1.026,2.041C0.012,0.239 -1.017,-1.555 -2.062,-3.341C-2.219,-3.239 -2.377,-3.131 -2.536,-3.022C-2.929,-2.733 -3.314,-2.491 -3.696,-2.298C-3.795,-2.248 -3.895,-2.201 -3.996,-2.156C-4.478,-1.946 -4.896,-2.002 -5.25,-2.335C-5.297,-2.389 -5.338,-2.442 -5.369,-2.496C-5.532,-2.772 -5.516,-3.059 -5.321,-3.361C-5.092,-3.714 -4.8,-4.007 -4.445,-4.23C-2.726,-5.324 -0.98,-6.388 0.791,-7.422C1.325,-7.616 1.719,-7.659 1.973,-7.557C2.228,-7.454 2.392,-7.33 2.465,-7.187C2.516,-7.089 2.538,-6.981 2.538,-6.86C2.53,-6.555 2.31,-6.228 1.879,-5.882C1.474,-5.593 1.052,-5.307 0.612,-5.027C0.411,-4.889 0.207,-4.75 0,-4.608" style="fill:rgb(249,238,210);fill-rule:nonzero;"/>
            </g>
            <g transform="matrix(1,0,0,1,697.744,3570.59)">
                <path d="M0,0.077C-0.079,0.152 -0.156,0.227 -0.225,0.291C-0.344,0.402 -0.456,0.501 -0.559,0.591C-1.037,1.005 -1.49,1.289 -1.922,1.443C-2.18,1.535 -2.43,1.583 -2.673,1.587C-3.329,1.6 -3.936,1.41 -4.497,1.017C-4.871,0.757 -5.156,0.466 -5.349,0.137C-5.543,-0.19 -5.68,-0.444 -5.76,-0.624C-5.893,-0.924 -5.985,-1.225 -6.035,-1.528C-6.117,-2.009 -6.047,-2.374 -5.82,-2.629C-5.65,-2.819 -5.475,-2.953 -5.296,-3.02C-5.144,-3.077 -4.987,-3.09 -4.826,-3.057C-4.481,-2.989 -4.206,-2.763 -4.005,-2.381C-3.971,-2.31 -3.938,-2.24 -3.904,-2.169C-3.875,-2.094 -3.846,-2.018 -3.818,-1.943C-3.792,-1.867 -3.763,-1.788 -3.731,-1.715C-3.648,-1.519 -3.546,-1.333 -3.426,-1.154C-3.158,-0.809 -2.938,-0.648 -2.768,-0.67C-2.596,-0.692 -2.485,-0.711 -2.433,-0.731C-2.196,-0.814 -1.975,-1.024 -1.766,-1.355C-1.506,-1.822 -1.321,-2.276 -1.212,-2.717C-1.149,-2.935 -1.089,-3.105 -1.034,-3.228C-0.818,-3.652 -0.618,-3.898 -0.436,-3.965C-0.255,-4.034 -0.16,-4.067 -0.154,-4.07C0.187,-4.184 0.545,-4.127 0.915,-3.897C1.295,-3.657 1.631,-3.198 1.92,-2.518C2.044,-2.192 2.212,-1.661 2.421,-0.927C2.629,-0.189 2.823,0.54 3.002,1.259C3.181,1.98 3.293,2.49 3.338,2.785C3.382,3.271 3.303,3.612 3.104,3.812C2.904,4.014 2.718,4.142 2.547,4.198C2.408,4.243 2.262,4.261 2.108,4.254C1.758,4.236 1.466,4.055 1.231,3.708C0.825,2.496 0.414,1.286 0,0.077" style="fill:rgb(249,238,210);fill-rule:nonzero;"/>
            </g>
            <g transform="matrix(1,0,0,1,708.954,3569.74)">
                <path d="M0,-3.118C-0.46,-3.863 -0.982,-4.16 -1.557,-4.002C-1.659,-3.974 -1.762,-3.932 -1.869,-3.871C-2.136,-3.722 -2.279,-3.566 -2.301,-3.404C-2.322,-3.243 -2.316,-3.122 -2.288,-3.033C-2.258,-2.943 -2.202,-2.863 -2.12,-2.79C-1.963,-2.645 -1.737,-2.603 -1.444,-2.669C-1.387,-2.684 -1.33,-2.7 -1.272,-2.715C-0.998,-2.791 -0.722,-2.874 -0.447,-2.973C-0.303,-3.025 -0.154,-3.073 0,-3.118M0.629,-0.991C0.031,-0.877 -0.529,-0.772 -1.05,-0.671C-1.621,-0.564 -2.204,-0.446 -2.797,-0.319C-2.751,-0.267 -2.694,-0.204 -2.626,-0.132C-2.45,0.095 -2.226,0.331 -1.953,0.574C-1.679,0.816 -1.443,0.949 -1.246,0.965C-1.048,0.982 -0.906,0.98 -0.821,0.956C-0.584,0.894 -0.35,0.708 -0.11,0.403C0.081,0.119 0.248,-0.178 0.39,-0.506C0.463,-0.665 0.543,-0.825 0.629,-0.991M-5.027,0.742C-5.173,0.465 -5.295,0.193 -5.39,-0.074C-5.655,-0.828 -5.725,-1.566 -5.589,-2.286C-5.411,-3.265 -5,-4.089 -4.35,-4.748C-3.7,-5.409 -2.966,-5.849 -2.157,-6.07C-2.027,-6.105 -1.898,-6.133 -1.771,-6.157C-0.809,-6.343 0.159,-6.159 1.113,-5.594C2.05,-4.997 2.603,-4.431 2.787,-3.919C2.972,-3.402 3.073,-3.106 3.096,-3.026C3.351,-2.152 3.353,-1.264 3.119,-0.361C2.862,0.618 2.315,1.474 1.485,2.211C0.974,2.631 0.445,2.916 -0.104,3.066C-0.349,3.132 -0.603,3.171 -0.866,3.183C-1.696,3.225 -2.475,3.032 -3.219,2.597C-3.961,2.165 -4.564,1.548 -5.027,0.742" style="fill:rgb(249,238,210);fill-rule:nonzero;"/>
            </g>
            <g transform="matrix(1,0,0,1,719.534,3564.97)">
                <path d="M0,2.025C0.021,1.37 -0.025,0.52 -0.141,-0.528C-0.196,-1.09 -0.238,-1.597 -0.265,-2.049C-0.292,-2.502 -0.278,-2.819 -0.226,-2.995C-0.102,-3.323 0.046,-3.51 0.218,-3.565C0.388,-3.617 0.495,-3.65 0.536,-3.655C0.782,-3.701 1.031,-3.662 1.278,-3.542C1.568,-3.4 1.765,-3.15 1.867,-2.792C1.939,-2.513 2.004,-2.243 2.064,-1.98C2.329,-0.814 2.466,0.258 2.483,1.235C2.5,2.431 2.276,3.394 1.82,4.118C1.249,4.929 0.575,5.414 -0.211,5.567C-0.244,5.573 -0.277,5.579 -0.31,5.586C-1.142,5.726 -1.918,5.462 -2.655,4.79C-3.279,4.152 -3.728,3.459 -3.998,2.698C-4.267,1.94 -4.482,1.267 -4.644,0.673C-4.732,0.347 -4.813,0.025 -4.885,-0.294C-4.951,-0.56 -5.013,-0.817 -5.073,-1.059C-5.214,-1.672 -5.167,-2.093 -4.93,-2.315C-4.694,-2.536 -4.467,-2.672 -4.251,-2.719C-4.106,-2.751 -3.951,-2.753 -3.79,-2.728C-3.393,-2.676 -3.102,-2.465 -2.919,-2.098C-2.468,-0.711 -2.027,0.68 -1.595,2.073C-1.289,2.875 -1.049,3.27 -0.868,3.257C-0.69,3.247 -0.589,3.237 -0.569,3.234C-0.267,3.176 -0.078,2.771 0,2.025" style="fill:rgb(249,238,210);fill-rule:nonzero;"/>
            </g>
            <g transform="matrix(1,0,0,1,727.398,3565.78)">
                <path d="M0,-3.595C0.332,-3.895 0.493,-4.102 0.48,-4.213C0.47,-4.268 0.46,-4.322 0.449,-4.377C0.409,-4.588 0.182,-4.734 -0.231,-4.807C-0.153,-4.403 -0.076,-3.999 0,-3.595M0.704,0.092C0.729,0.231 0.757,0.378 0.792,0.525C0.828,0.649 0.858,0.777 0.88,0.903C0.941,1.239 0.957,1.571 0.932,1.9C0.898,2.342 0.616,2.685 0.088,2.933C0.002,2.967 -0.076,2.983 -0.151,2.994C-0.399,3.029 -0.617,2.972 -0.804,2.823C-1.049,2.626 -1.241,2.374 -1.381,2.059C-1.522,1.749 -1.617,1.479 -1.668,1.255C-2.078,-0.59 -2.478,-2.441 -2.865,-4.298C-2.907,-4.5 -2.941,-4.719 -2.966,-4.962C-2.992,-5.201 -2.973,-5.426 -2.914,-5.625C-2.853,-5.824 -2.718,-5.97 -2.51,-6.061C-1.848,-6.305 -1.237,-6.468 -0.68,-6.548C-0.151,-6.623 0.334,-6.624 0.774,-6.554C1.664,-6.42 2.235,-6.154 2.49,-5.772C2.742,-5.389 2.889,-5.073 2.932,-4.822C2.995,-4.451 2.946,-4.047 2.783,-3.605C2.636,-3.251 2.446,-2.891 2.218,-2.522C2.112,-2.345 2.01,-2.16 1.907,-1.968C3.384,-1.185 4.766,-0.288 6.052,0.702C6.425,1.011 6.63,1.326 6.675,1.641C6.683,1.71 6.687,1.776 6.683,1.844C6.645,2.224 6.513,2.454 6.285,2.523C6.057,2.596 5.913,2.634 5.852,2.638C5.473,2.677 5.005,2.536 4.444,2.216C4.116,2.011 3.802,1.813 3.5,1.624C2.664,1.079 1.731,0.568 0.704,0.092" style="fill:rgb(249,238,210);fill-rule:nonzero;"/>
            </g>
            <g transform="matrix(1,0,0,1,745.004,3565.16)">
                <path d="M0,-4.021C0.091,-3.964 0.178,-3.906 0.261,-3.851C1.068,-3.355 1.816,-2.814 2.501,-2.235C3.188,-1.655 3.678,-0.983 3.974,-0.228C4.056,0.034 4.103,0.277 4.113,0.5C4.138,1.04 3.969,1.495 3.611,1.863C3.102,2.399 2.598,2.687 2.097,2.728C1.597,2.769 1.308,2.794 1.232,2.793C0.385,2.813 -0.492,2.58 -1.415,2.108C-1.834,1.869 -2.096,1.646 -2.197,1.43C-2.298,1.216 -2.353,1.052 -2.363,0.94C-2.376,0.788 -2.34,0.646 -2.253,0.51C-2.105,0.283 -1.812,0.163 -1.371,0.145C-0.779,0.321 -0.188,0.5 0.401,0.683C0.527,0.697 0.638,0.703 0.736,0.7C0.945,0.695 1.107,0.652 1.22,0.573C1.295,0.519 1.328,0.438 1.322,0.331C1.312,0.185 1.23,-0.009 1.073,-0.249C0.896,-0.493 0.648,-0.73 0.332,-0.959C0.016,-1.185 -0.324,-1.41 -0.689,-1.628C-1.142,-1.896 -1.572,-2.175 -1.979,-2.47C-2.385,-2.761 -2.674,-3.047 -2.844,-3.321C-3.013,-3.596 -3.11,-3.849 -3.132,-4.079C-3.15,-4.268 -3.135,-4.471 -3.084,-4.685C-2.895,-5.321 -2.511,-5.818 -1.929,-6.171C-1.347,-6.526 -0.857,-6.72 -0.461,-6.756C-0.067,-6.795 0.19,-6.813 0.306,-6.818C0.839,-6.834 1.307,-6.753 1.706,-6.578C2.144,-6.386 2.376,-6.085 2.404,-5.676C2.407,-5.634 2.406,-5.59 2.402,-5.542C2.369,-5.181 2.18,-4.939 1.837,-4.817C1.495,-4.698 1.053,-4.605 0.509,-4.541C0.389,-4.528 0.26,-4.507 0.125,-4.485C-0.125,-4.444 -0.245,-4.373 -0.237,-4.278C-0.231,-4.207 -0.152,-4.123 0,-4.021" style="fill:rgb(249,238,210);fill-rule:nonzero;"/>
            </g>
            <g transform="matrix(1,0,0,1,754.895,3559.61)">
                <path d="M0,6.685C0.189,6.715 0.393,6.735 0.61,6.749C0.933,6.768 1.225,6.812 1.484,6.883C1.856,7.025 2.042,7.239 2.039,7.533C2.04,7.55 2.04,7.568 2.04,7.586C2.016,7.955 1.857,8.201 1.565,8.324C1.195,8.445 0.832,8.501 0.471,8.485C0.109,8.474 -0.092,8.465 -0.133,8.464C-0.765,8.443 -1.354,8.39 -1.903,8.308C-2.118,8.26 -2.282,8.17 -2.392,8.036C-2.502,7.9 -2.566,7.762 -2.583,7.618C-2.578,4.944 -2.593,2.269 -2.63,-0.406C-2.63,-0.933 -2.496,-1.302 -2.228,-1.509C-1.961,-1.715 -1.561,-1.816 -1.031,-1.813C-0.817,-1.81 -0.59,-1.812 -0.345,-1.805C-0.094,-1.798 0.174,-1.788 0.464,-1.774C1.047,-1.743 1.586,-1.71 2.081,-1.673C2.703,-1.6 3.078,-1.468 3.204,-1.281C3.331,-1.092 3.394,-0.95 3.394,-0.846C3.395,-0.693 3.323,-0.545 3.178,-0.402C2.922,-0.153 2.465,-0.013 1.808,0.022C1.552,0.023 1.288,0.022 1.018,0.011C0.879,0.003 0.74,-0.002 0.601,-0.012C0.411,-0.025 0.211,-0.034 -0.001,-0.039C0.018,0.817 0.036,1.673 0.05,2.53C0.403,2.541 0.804,2.569 1.25,2.615C1.697,2.661 2.086,2.746 2.417,2.864C2.749,2.987 2.929,3.153 2.957,3.368C2.957,3.377 2.956,3.385 2.957,3.395C2.956,3.837 2.729,4.111 2.281,4.23C1.824,4.347 1.311,4.41 0.742,4.426C0.472,4.445 0.217,4.468 -0.026,4.49C-0.015,5.221 -0.007,5.954 0,6.685" style="fill:rgb(249,238,210);fill-rule:nonzero;"/>
            </g>
            <g transform="matrix(1,0,0,1,763.816,3561.1)">
                <path d="M0,4.509C0.281,4.534 0.561,4.559 0.842,4.585C1.062,4.605 1.284,4.63 1.503,4.657C1.945,4.705 2.38,4.786 2.81,4.898C3.62,5.142 4.007,5.537 3.977,6.082C3.932,6.617 3.517,6.944 2.739,7.063C2.461,7.1 2.185,7.102 1.912,7.076C1.817,7.065 1.723,7.056 1.628,7.047C1.291,7.019 0.958,6.989 0.628,6.957C0.187,6.917 -0.254,6.872 -0.696,6.821C-2.191,6.669 -2.92,5.992 -2.89,4.757C-2.888,4.7 -2.887,4.643 -2.886,4.587C-2.838,3.873 -2.779,3.159 -2.706,2.448C-2.67,2.092 -2.632,1.733 -2.597,1.372C-2.558,0.854 -2.516,0.335 -2.471,-0.188C-2.45,-0.505 -2.428,-0.819 -2.4,-1.133C-2.327,-2.12 -1.908,-2.593 -1.137,-2.541C-1.13,-2.541 -1.123,-2.541 -1.116,-2.54C-0.782,-2.515 -0.48,-2.37 -0.213,-2.111C0.069,-1.843 0.203,-1.47 0.188,-1C0.172,-0.471 0.156,0.058 0.138,0.585C0.137,0.868 0.129,1.146 0.12,1.42C0.084,2.45 0.044,3.479 0,4.509" style="fill:rgb(249,238,210);fill-rule:nonzero;"/>
            </g>
            <g transform="matrix(1,0,0,1,773.604,3561.23)">
                <path d="M0,6.792C0.189,6.845 0.393,6.892 0.612,6.931C0.937,6.986 1.227,7.065 1.482,7.169C1.843,7.354 2.005,7.593 1.97,7.887C1.968,7.905 1.965,7.923 1.963,7.94C1.899,8.309 1.711,8.535 1.399,8.624C1.01,8.7 0.635,8.711 0.271,8.653C-0.093,8.597 -0.297,8.565 -0.339,8.56C-0.977,8.462 -1.567,8.339 -2.114,8.191C-2.326,8.12 -2.481,8.01 -2.577,7.86C-2.674,7.709 -2.723,7.563 -2.724,7.418C-2.412,4.737 -2.12,2.055 -1.85,-0.631C-1.788,-1.159 -1.611,-1.516 -1.317,-1.688C-1.022,-1.863 -0.606,-1.919 -0.069,-1.851C0.147,-1.825 0.378,-1.796 0.624,-1.761C0.877,-1.725 1.149,-1.681 1.439,-1.633C2.026,-1.534 2.569,-1.435 3.066,-1.337C3.687,-1.188 4.051,-1.014 4.157,-0.81C4.264,-0.605 4.312,-0.453 4.302,-0.351C4.285,-0.198 4.193,-0.056 4.03,0.069C3.742,0.286 3.264,0.375 2.593,0.328C2.335,0.299 2.068,0.265 1.796,0.223C1.656,0.201 1.516,0.176 1.376,0.15C1.185,0.115 0.983,0.082 0.769,0.051C0.691,0.912 0.611,1.773 0.528,2.633C0.883,2.686 1.286,2.763 1.733,2.862C2.179,2.962 2.565,3.093 2.886,3.251C3.21,3.416 3.372,3.602 3.375,3.822C3.374,3.83 3.373,3.84 3.372,3.849C3.321,4.29 3.061,4.542 2.592,4.605C2.116,4.666 1.589,4.669 1.011,4.617C0.735,4.604 0.474,4.596 0.226,4.589C0.153,5.323 0.077,6.058 0,6.792" style="fill:rgb(249,238,210);fill-rule:nonzero;"/>
            </g>
            <g transform="matrix(1,0,0,1,784.781,3563.83)">
                <path d="M0,5.149C0.053,5.16 0.107,5.173 0.16,5.185C0.403,5.24 0.634,5.314 0.855,5.407C1.115,5.523 1.251,5.705 1.258,5.954C1.253,6.021 1.246,6.084 1.235,6.145C1.196,6.363 1.102,6.555 0.954,6.72C0.77,6.925 0.496,7.055 0.135,7.107C-0.42,7.173 -1.009,7.139 -1.636,7.003C-1.769,6.973 -1.903,6.943 -2.035,6.907C-2.815,6.691 -3.487,6.32 -4.055,5.787C-4.623,5.253 -4.923,4.547 -4.955,3.659C-4.951,3.366 -4.93,3.08 -4.892,2.799C-4.619,0.785 -3.404,-0.724 -1.166,-1.668C-0.504,-1.927 -0.01,-2.024 0.311,-1.965C0.632,-1.909 0.807,-1.873 0.837,-1.867C1.409,-1.744 1.901,-1.524 2.311,-1.21C2.736,-0.886 2.986,-0.594 3.065,-0.337C3.146,-0.081 3.174,0.11 3.152,0.235C3.118,0.438 2.995,0.614 2.787,0.764C2.495,0.956 2.25,1.03 2.053,0.986C1.848,0.94 1.654,0.849 1.471,0.715C1.274,0.566 1.037,0.462 0.759,0.4C0.744,0.397 0.729,0.394 0.714,0.391C0.42,0.333 0.029,0.447 -0.452,0.733C-1.342,1.307 -1.93,2.065 -2.234,2.991C-2.288,3.158 -2.327,3.311 -2.348,3.455C-2.394,3.762 -2.362,4.007 -2.251,4.194C-2.081,4.475 -1.834,4.671 -1.508,4.78C-1.182,4.89 -0.855,4.98 -0.527,5.051C-0.406,5.078 -0.281,5.103 -0.151,5.126C-0.102,5.134 -0.052,5.144 0,5.149" style="fill:rgb(249,238,210);fill-rule:nonzero;"/>
            </g>
            <g transform="matrix(1,0,0,1,797.325,3571.49)">
                <path d="M0,-5.042C-0.467,-2.867 -0.95,-0.697 -1.451,1.469C-1.463,1.52 -1.475,1.569 -1.488,1.619C-1.565,1.935 -1.699,2.239 -1.89,2.524C-2.111,2.842 -2.482,2.946 -3.001,2.838C-3.479,2.681 -3.766,2.408 -3.865,2.025C-3.963,1.642 -3.971,1.272 -3.891,0.917C-3.451,-1.223 -3.028,-3.368 -2.622,-5.517C-2.824,-5.55 -3.033,-5.576 -3.244,-5.604C-3.776,-5.654 -4.27,-5.739 -4.724,-5.859C-4.843,-5.891 -4.959,-5.924 -5.074,-5.96C-5.626,-6.137 -5.929,-6.479 -5.987,-6.991C-5.988,-7.065 -5.982,-7.137 -5.969,-7.202C-5.907,-7.537 -5.688,-7.75 -5.312,-7.848C-4.869,-7.965 -4.42,-7.988 -3.967,-7.91C-1.76,-7.549 0.452,-7.143 2.667,-6.689C3.251,-6.459 3.612,-6.209 3.753,-5.948C3.891,-5.683 3.941,-5.469 3.9,-5.306C3.872,-5.192 3.814,-5.091 3.729,-4.997C3.504,-4.761 3.086,-4.663 2.48,-4.7C1.934,-4.762 1.379,-4.84 0.81,-4.934C0.543,-4.968 0.273,-5.003 0,-5.042" style="fill:rgb(249,238,210);fill-rule:nonzero;"/>
            </g>
            <g transform="matrix(1,0,0,1,804.631,3567.39)">
                <path d="M0,8.841C-0.23,9.114 -0.461,9.23 -0.693,9.191C-0.924,9.152 -1.086,9.116 -1.176,9.084C-1.42,8.996 -1.637,8.845 -1.828,8.621C-2.078,8.321 -2.155,7.93 -2.057,7.449C-1.802,6.475 -1.499,5.32 -1.151,3.976C-0.803,2.632 -0.504,1.473 -0.253,0.5C-0.106,0.043 0.134,-0.228 0.47,-0.307C0.807,-0.389 1.116,-0.38 1.397,-0.283C1.477,-0.255 1.558,-0.221 1.636,-0.18C1.995,0.011 2.215,0.291 2.289,0.661C2.31,1.018 2.197,1.706 1.945,2.738C1.694,3.766 1.444,4.699 1.198,5.536C1.092,5.89 0.983,6.247 0.87,6.601C0.492,7.791 0.2,8.537 0,8.841" style="fill:rgb(249,238,210);fill-rule:nonzero;"/>
            </g>
            <g transform="matrix(1,0,0,1,815.881,3576.04)">
                <path d="M0,-1.033C0.072,-1.959 -0.202,-2.56 -0.817,-2.815C-0.924,-2.862 -1.046,-2.895 -1.178,-2.918C-1.514,-2.971 -1.743,-2.939 -1.865,-2.821C-1.986,-2.703 -2.062,-2.597 -2.094,-2.505C-2.125,-2.413 -2.127,-2.308 -2.102,-2.19C-2.055,-1.967 -1.88,-1.78 -1.578,-1.636C-1.518,-1.61 -1.457,-1.585 -1.396,-1.559C-1.101,-1.435 -0.801,-1.321 -0.493,-1.214C-0.332,-1.158 -0.167,-1.097 0,-1.033M-0.815,1.153C-1.422,0.842 -1.991,0.556 -2.52,0.286C-3.099,-0.009 -3.693,-0.307 -4.304,-0.6C-4.298,-0.527 -4.287,-0.435 -4.274,-0.331C-4.264,-0.024 -4.215,0.321 -4.13,0.708C-4.044,1.092 -3.92,1.359 -3.754,1.508C-3.588,1.655 -3.461,1.75 -3.37,1.788C-3.118,1.891 -2.786,1.9 -2.375,1.81C-2.024,1.708 -1.68,1.568 -1.342,1.395C-1.174,1.313 -0.997,1.235 -0.815,1.153M-6.977,-1.217C-6.928,-1.545 -6.858,-1.853 -6.769,-2.137C-6.516,-2.939 -6.099,-3.599 -5.512,-4.101C-4.719,-4.795 -3.821,-5.202 -2.817,-5.31C-1.812,-5.42 -0.874,-5.294 -0.012,-4.933C0.126,-4.876 0.259,-4.812 0.387,-4.744C1.364,-4.253 2.106,-3.443 2.593,-2.331C3.042,-1.201 3.172,-0.36 3.005,0.193C2.837,0.744 2.736,1.061 2.706,1.142C2.37,2.038 1.798,2.774 1.004,3.363C0.142,4.001 -0.9,4.338 -2.12,4.385C-2.85,4.387 -3.507,4.265 -4.094,4.018C-4.356,3.908 -4.608,3.767 -4.852,3.601C-5.619,3.079 -6.19,2.389 -6.57,1.531C-6.951,0.674 -7.087,-0.239 -6.977,-1.217" style="fill:rgb(249,238,210);fill-rule:nonzero;"/>
            </g>
            <g transform="matrix(1,0,0,1,823.71,3580.69)">
                <path d="M0,0.716C-0.062,0.926 -0.125,1.145 -0.188,1.375C-0.3,1.819 -0.402,2.153 -0.494,2.377C-0.583,2.598 -0.636,2.727 -0.65,2.762C-0.803,3.118 -0.991,3.394 -1.217,3.59C-1.474,3.802 -1.801,3.838 -2.195,3.695C-2.246,3.675 -2.29,3.656 -2.331,3.636C-2.939,3.333 -3.171,2.767 -3.032,1.925C-2.772,0.489 -2.386,-0.892 -1.862,-2.211C-1.603,-2.863 -1.311,-3.498 -0.983,-4.116C-0.578,-4.873 0.062,-5.044 0.933,-4.618C1.005,-4.579 1.076,-4.546 1.145,-4.503C1.49,-4.315 1.72,-4.091 1.832,-3.839C1.945,-3.588 2.021,-3.318 2.058,-3.033C2.068,-3.014 2.074,-2.995 2.076,-2.982C2.337,-1.544 2.62,-0.107 2.926,1.329C3.074,2.047 3.217,2.469 3.358,2.591C3.5,2.716 3.584,2.785 3.612,2.8C3.861,2.932 4.174,2.713 4.552,2.142C4.676,1.924 4.794,1.688 4.905,1.44C5.012,1.2 5.114,0.941 5.208,0.672C5.309,0.406 5.414,0.15 5.52,-0.093C5.6,-0.275 5.683,-0.449 5.766,-0.62C5.971,-1.003 6.234,-1.278 6.557,-1.432C6.928,-1.577 7.257,-1.569 7.542,-1.414C7.56,-1.406 7.578,-1.395 7.595,-1.386C7.896,-1.206 8.119,-0.962 8.266,-0.646C8.411,-0.33 8.443,-0.045 8.364,0.206C8.22,0.623 8.088,1.02 7.97,1.414C7.789,2.054 7.572,2.645 7.319,3.188C7.23,3.379 7.135,3.56 7.034,3.738C6.669,4.43 6.089,4.975 5.307,5.376C4.677,5.675 4.163,5.76 3.763,5.626C3.363,5.495 3.089,5.388 2.939,5.309C2.49,5.066 2.082,4.696 1.71,4.202C1.353,3.694 1.038,3.138 0.762,2.538C0.487,1.937 0.233,1.328 0,0.716" style="fill:rgb(249,238,210);fill-rule:nonzero;"/>
            </g>
            <g transform="matrix(1,0,0,1,834.59,3580.06)">
                <path d="M0,10.987C-0.093,11.149 -0.238,11.324 -0.433,11.514C-0.63,11.703 -0.847,11.829 -1.081,11.884C-1.316,11.941 -1.552,11.894 -1.791,11.748C-1.845,11.713 -1.898,11.68 -1.956,11.637C-2.11,11.498 -2.257,11.335 -2.393,11.14C-2.529,10.945 -2.597,10.783 -2.598,10.646C-2.555,10.305 -2.494,10.016 -2.414,9.779C-2.335,9.544 -2.275,9.387 -2.237,9.308C-2.108,9.053 -1.934,8.862 -1.71,8.729C-1.421,8.554 -1.023,8.613 -0.518,8.902C0.006,9.249 0.268,9.6 0.27,9.955C0.272,10.313 0.21,10.61 0.087,10.845C0.062,10.894 0.033,10.942 0,10.987M2.114,7.12C1.726,7.793 1.363,8.12 1.031,8.098C0.699,8.077 0.447,8.015 0.277,7.911C0.093,7.8 -0.068,7.636 -0.205,7.416C-0.458,7.001 -0.492,6.534 -0.309,6.018C0.59,3.959 1.472,1.892 2.336,-0.184C2.711,-0.709 3.088,-0.954 3.466,-0.919C3.843,-0.882 4.134,-0.807 4.335,-0.686C4.544,-0.565 4.726,-0.387 4.884,-0.156C5.179,0.284 5.19,0.826 4.923,1.465C4.783,1.75 4.646,2.035 4.513,2.323C4.051,3.293 3.579,4.255 3.096,5.212C2.773,5.854 2.445,6.489 2.114,7.12" style="fill:rgb(249,238,210);fill-rule:nonzero;"/>
            </g>
            <g transform="matrix(1,0,0,1,665.207,3621.42)">
                <path d="M0,32.393C-0.058,32.437 -0.068,32.482 -0.045,32.526C-0.343,32.651 -0.246,32.132 0,32.393M1.418,33.347C1.491,33.41 1.573,33.017 1.743,33.054C1.811,33.303 1.925,33.567 2.22,33.783C1.922,34.226 1.543,33.51 1.235,33.847C1.039,33.631 0.946,33.524 0.694,33.623C0.355,33.109 0.028,33.28 -0.177,32.836C0.107,32.702 -0.08,32.614 0.171,32.393C0.55,32.728 1.286,32.937 1.418,33.347M27.353,44.455C27.523,44.412 27.884,44.314 28.081,44.226C28.739,43.95 29.533,43.522 30.319,43.239C30.707,43.09 31.092,42.972 31.433,42.886C31.768,42.79 32.071,42.742 32.315,42.768C32.561,42.664 32.474,42.538 32.718,42.435C33.017,42.592 33.99,42.61 34.547,42.196C34.732,42.046 34.81,41.471 35.16,41.094C35.674,40.53 36.593,40.486 37.049,39.951C37.253,39.702 37.245,39.206 37.419,38.919C37.647,38.542 38.088,38.077 38.542,37.645C38.982,37.201 39.416,36.769 39.696,36.536C40.131,36.164 40.498,36.18 40.722,35.805C40.929,35.47 40.83,35.033 40.422,34.781C40.312,34.021 40.8,33.205 41.376,32.348C41.918,31.475 42.513,30.527 42.693,29.698C43.132,29.238 43.3,28.653 43.44,28.077C43.567,27.493 43.686,26.923 43.889,26.384C43.975,26.17 44.182,25.947 44.251,25.717C44.366,25.336 44.33,24.772 44.402,24.269C44.528,23.409 44.673,22.665 44.665,21.944C45.515,20.979 44.878,20.057 44.999,19.167C45.044,18.829 45.274,18.51 45.308,18.125C45.346,17.8 45.153,17.482 45.177,17.129C45.194,16.779 45.394,16.414 45.391,16.071C45.388,15.816 45.265,15.618 45.277,15.411C45.29,15.139 45.446,14.96 45.401,14.672C45.348,14.369 45.085,14.082 45.03,13.782C44.93,13.233 44.91,12.655 44.84,12.09C44.779,11.525 44.589,10.979 44.271,10.512C44.278,9.548 44.045,8.685 43.698,7.819C43.37,6.945 43.059,6.036 42.792,4.932C42.459,4.461 42.218,4.125 42.096,3.539C42,3.44 41.875,3.501 41.793,3.316C41.607,2.763 41.25,2.274 40.894,1.79C40.716,1.548 40.538,1.307 40.38,1.054C40.215,0.806 40.053,0.557 39.938,0.278C39.854,0.283 39.771,0.279 39.692,0.239C39.079,-1.306 37.758,-2.962 36.637,-3.658C36.406,-4.118 36.017,-4.495 35.579,-4.855C35.358,-5.03 35.13,-5.211 34.898,-5.395C34.659,-5.569 34.411,-5.74 34.177,-5.934C33.737,-6.296 33.406,-6.787 32.945,-7.071C32.497,-7.349 31.987,-7.678 31.5,-8.033C31.004,-8.372 30.533,-8.746 30.064,-8.948C29.788,-9.074 29.445,-9.061 29.175,-9.176C28.685,-9.381 28.268,-9.816 27.72,-9.987C27.183,-10.128 26.645,-10.305 26.11,-10.5C25.575,-10.697 25.046,-10.918 24.503,-11.085C23.429,-11.443 22.397,-11.848 21.455,-12.014C20.876,-12.136 20.345,-12.038 19.693,-12.09C18.611,-12.104 17.523,-12.573 16.427,-12.543C16.153,-12.526 15.884,-12.406 15.634,-12.381C14.988,-12.315 14.369,-12.446 13.685,-12.406C12.852,-12.322 12.026,-12.147 11.219,-12.004C10.412,-11.844 9.627,-11.646 8.823,-11.636C8.589,-11.533 8.338,-11.441 8.079,-11.34C7.823,-11.228 7.555,-11.118 7.278,-11.011C6.725,-10.795 6.138,-10.586 5.541,-10.378C4.958,-10.131 4.366,-9.879 3.786,-9.633C3.498,-9.506 3.214,-9.38 2.935,-9.256C2.668,-9.108 2.407,-8.964 2.154,-8.824C1.856,-8.279 1.288,-8.301 0.84,-8.003C0.163,-7.53 -0.528,-6.878 -1.257,-6.288C-1.967,-5.671 -2.655,-5.029 -3.398,-4.583C-5.87,-1.976 -8.013,0.987 -9.502,4.273C-10.994,7.543 -11.795,11.142 -11.647,14.586C-11.94,15.106 -11.764,15.955 -11.593,16.419C-11.755,16.521 -11.745,16.836 -11.793,17.077C-11.599,17.501 -11.518,17.974 -11.494,18.484C-11.465,18.991 -11.468,19.535 -11.359,20.063C-10.934,20.274 -11.095,20.955 -10.72,21.296C-10.904,21.508 -10.953,21.103 -11.014,21.417C-10.8,21.553 -10.632,21.799 -10.492,22.107C-10.353,22.415 -10.248,22.786 -10.108,23.16C-9.85,23.912 -9.631,24.726 -9.377,25.184C-9.398,25.115 -9.3,25.064 -9.258,25.145C-9.335,25.439 -8.949,25.422 -8.854,25.681C-8.088,27.395 -6.807,28.22 -5.805,29.369C-5.788,29.58 -5.761,30.182 -5.437,30.179C-5.556,29.925 -5.768,29.646 -5.5,29.502C-5.331,29.933 -4.881,30.355 -4.517,30.46C-4.195,30.907 -4.108,31.203 -3.629,31.453C-3.557,31.549 -3.458,31.164 -3.302,31.367C-2.932,32.057 -2.507,32.194 -2.128,32.77C-1.78,32.715 -1.163,33.212 -1.094,33.496C-0.853,33.559 -1.101,33.151 -0.919,33.229C-0.44,33.609 0.096,33.838 0.394,34.351C0.587,34.335 0.771,34.25 0.971,34.358C1.101,34.438 0.764,34.553 0.996,34.626C1.26,34.631 1.043,34.295 1.216,34.159C1.506,34.265 1.553,34.108 1.769,34.063C1.995,34.437 2.434,34.304 2.789,34.422C3.157,34.541 3.443,34.861 3.789,34.983C4.099,35.066 4.322,34.941 4.621,35.111C4.864,35.247 4.965,35.556 5.25,35.69C5.418,35.723 5.259,35.431 5.471,35.531C5.714,35.651 5.969,35.746 6.226,35.824C6.48,35.907 6.732,35.984 6.979,36.046C7.471,36.174 7.941,36.251 8.382,36.169C7.722,36.24 7.251,35.983 6.788,35.785C6.327,35.575 5.889,35.38 5.326,35.304C5.315,34.98 4.821,35.226 4.862,34.818C4.72,34.924 4.883,35.141 4.684,35.003C4.625,34.946 4.633,34.87 4.514,34.831C4.811,34.615 4.614,34.507 4.656,34.266C4.253,34.077 3.921,33.863 3.576,33.693C3.236,33.515 2.907,33.341 2.585,33.126C2.423,33.103 2.551,33.339 2.387,33.285C2.122,33.14 1.976,32.957 1.646,32.804C1.72,32.545 1.619,32.305 1.921,32.137C2.312,32.469 2.837,32.784 3.438,33.011C4.032,33.248 4.61,33.529 5.159,33.768C5.481,33.925 5.697,34.329 6.06,34.078C5.534,33.93 5.37,33.345 4.997,33.097C4.538,32.737 3.8,32.703 3.364,32.308C3.241,32.2 3.259,32.063 3.145,31.971C3.057,31.899 2.793,31.919 2.699,31.828C2.598,31.727 2.676,31.619 2.574,31.553C2.367,31.418 2.086,31.453 1.876,31.27C1.52,30.969 1.387,30.456 0.97,30.164C0.977,30.095 1.034,30.021 1.104,29.969C4.9,33.853 10.274,36.16 16.125,35.88C16.185,35.877 16.244,35.87 16.304,35.867C16.382,36.56 16.446,37.208 16.408,37.836C16.872,38.501 16.84,39.328 17.248,39.96C17.504,40.352 17.989,40.698 18.337,41.062C18.734,41.482 19.154,41.786 19.523,42.174C19.595,42.636 20.07,42.633 20.234,42.999C20.856,43.17 21.381,43.47 22.046,43.613C22.141,43.754 22.306,43.809 22.367,43.987C23.805,44.377 25.472,44.966 27.353,44.455" style="fill:rgb(45,61,54);fill-rule:nonzero;"/>
            </g>
            <text x="667.276px" y="3651.74px" style="font-family:'LucidaGrande', 'Lucida Grande', sans-serif;font-weight:500;font-size:60px;fill:rgb(160,155,126);">2<tspan x="697.396px " y="3651.74px ">.</tspan></text>
        </g>
    </g>
</svg>
