<?xml version="1.0" encoding="UTF-8" standalone="no"?><!DOCTYPE svg PUBLIC "-//W3C//DTD SVG 1.1//EN" "http://www.w3.org/Graphics/SVG/1.1/DTD/svg11.dtd"><svg width="100%" height="100%" viewBox="0 0 3334 2500" version="1.1" xmlns="http://www.w3.org/2000/svg" xmlns:xlink="http://www.w3.org/1999/xlink" xml:space="preserve" xmlns:serif="http://www.serif.com/" style="fill-rule:evenodd;clip-rule:evenodd;stroke-linejoin:round;stroke-miterlimit:2;"><g><path d="M2562.11,1586.5c-0,398.733 -323.23,721.962 -721.962,721.962c-398.733,0 -721.979,-323.229 -721.979,-721.962c-0,-398.732 323.246,-721.961 721.979,-721.961c398.732,-0 721.962,323.229 721.962,721.961" style="fill:#2d3d36;fill-rule:nonzero;"/><path d="M2120.44,1258.48c-3.646,12.466 -8.212,24.757 -10.799,37.431c-15.99,78.021 -31.91,156.059 -47.031,234.253c-6.337,32.726 -11.615,65.729 -15.608,98.802c-4.253,35.105 3.75,68.421 26.215,95.782c23.282,28.402 27.327,58.507 20.747,93.576c-10.694,57.014 -16.337,115.035 -27.986,171.84c-13.368,65.243 -30.764,129.688 -46.806,194.393c-5.052,20.33 -11.736,40.243 -16.979,60.521c-4.965,19.236 -12.673,32.968 -35.92,35.642c-39.08,4.496 -40.521,5.955 -42.76,-33.82c-6.302,-111.354 -16.823,-222.864 -15.4,-334.166c2.934,-230.816 12.778,-461.528 19.115,-692.292c0.903,-33.212 0.017,-66.736 -3.733,-99.705c-2.76,-24.427 -17.587,-28.507 -38.142,-14.271c-27.136,18.82 -40.642,46.98 -47.396,77.257c-12.378,55.4 -26.181,111.094 -31.215,167.379c-11.65,130.434 -18.577,261.285 -27.049,391.996c-1.719,26.511 -1.441,53.143 -2.882,79.67c-0.694,12.882 4.722,20.608 15.469,26.806c51.701,29.792 63.924,61.198 50.278,119.01c-5.052,21.424 -8.872,44.341 -6.893,65.99c4.809,52.205 -10.382,101.649 -16.371,152.309c-3.403,28.802 -8.629,57.413 -12.136,86.233c-1.614,13.35 -7.586,18.455 -20.746,16.354c-21.337,-3.403 -43.021,-5.243 -63.941,-10.295c-6.597,-1.597 -14.167,-10.452 -16.337,-17.5c-18.976,-61.65 -39.01,-123.091 -54.392,-185.66c-15.903,-64.687 -27.084,-130.521 -40.052,-195.92c-4.792,-24.219 -8.021,-48.785 -13.299,-72.899c-6.771,-31.025 2.743,-57.57 25.243,-77.171c48.507,-42.257 59.861,-96.562 53.021,-156.111c-9.288,-80.85 -38.212,-154.409 -91.892,-216.597c-11.927,-13.802 -26.615,-26.076 -42.101,-35.781c-38.351,-24.045 -76.858,-13.889 -103.75,26.111c-26.58,39.496 -37.813,84.323 -41.632,130.972c-5.556,67.934 -1.736,134.722 30.417,196.979c17.361,33.646 42.899,58.299 78.368,72.57c28.628,11.51 48.055,30.798 54.01,62.76c7.465,40.018 18.993,79.375 24.549,119.601c9.097,65.833 15.017,132.118 21.875,198.229c3.298,31.945 5.816,63.958 8.472,95.972c0.521,6.441 0.069,12.969 0.069,23.368c-17.152,-7.691 -30.902,-12.743 -43.576,-19.739c-36.024,-19.913 -75.017,-36.406 -106.563,-61.979c-45.677,-36.997 -91.684,-76.337 -127.135,-122.639c-67.118,-87.639 -116.545,-185.4 -140.365,-295.104c-22.222,-102.379 -26.753,-204.879 -5.798,-307.257c43.906,-214.566 157.239,-381.007 352.864,-484.08c141.233,-74.427 291.771,-88.907 446.112,-47.101c175.416,47.535 306.875,153.906 400.26,308.281c84.444,139.549 118.108,292.344 100.712,453.264c-25.573,236.719 -138.125,421.354 -346.268,543.212c-13.645,7.986 -28.541,13.906 -45.607,22.101c-1.077,-9.948 -2.622,-17.57 -2.622,-25.174c0,-117.674 8.525,-234.618 29.566,-350.521c3.75,-20.659 6.684,-41.475 9.236,-62.326c2.848,-23.247 15.035,-39.653 34.306,-52.153c35.868,-23.246 57.118,-56.979 61.736,-98.889c12.552,-113.576 23.455,-227.326 34.722,-341.041c0.834,-8.525 -0.712,-17.31 -1.146,-25.99c-2.013,-0.278 -4.027,-0.573 -6.059,-0.868c-1.788,3.889 -4.566,7.639 -5.225,11.701c-10.712,66.476 -21.094,133.004 -31.684,199.497c-2.414,15.26 -4.618,30.607 -8.316,45.555c-1.146,4.584 -6.997,8.004 -10.677,11.945c-2.327,-4.809 -6.997,-9.827 -6.615,-14.445c2.899,-35.711 6.58,-71.371 10.382,-107.014c4.566,-43.003 9.67,-85.954 14.132,-128.958c0.764,-7.43 -0.521,-15.069 -0.851,-22.621c-2.17,-0.591 -4.34,-1.198 -6.51,-1.806c-3.455,7.535 -8.768,14.757 -10.104,22.656c-12.153,71.858 -23.438,143.872 -35.434,215.747c-1.719,10.243 -5.955,20.052 -9.011,30.052c-2.448,-0.104 -4.878,-0.208 -7.309,-0.313c-1.441,-5.642 -4.67,-11.51 -4.028,-16.909c9.167,-77.917 18.872,-155.782 28.455,-233.664c0.226,-1.822 1.406,-3.802 0.99,-5.416c-1.476,-5.799 -3.455,-11.476 -5.226,-17.188c-3.871,4.584 -9.809,8.629 -11.233,13.872c-4.149,15.451 -6.597,31.389 -9.583,47.135c-11.597,61.302 -23.003,122.622 -34.948,183.837c-1.528,7.83 -5.85,15.104 -8.889,22.622c-2.395,-0.191 -4.809,-0.382 -7.205,-0.573c-1.197,-6.997 -4.236,-14.254 -3.315,-20.973c9.409,-69.166 19.687,-138.211 29.149,-207.361c2.135,-15.711 2.101,-31.718 3.073,-47.586c-3.004,-0.469 -5.99,-0.938 -8.993,-1.407" style="fill:#f9eed2;fill-rule:nonzero;"/><path d="M1143.5,1372.31c-50.191,389.635 80.348,701.667 394.636,934.896c-30.017,1.527 -157.743,-100.139 -217.448,-159.914c-67.014,-67.065 -111.51,-146.84 -149.028,-230.659c-38.021,-84.931 -54.01,-176.563 -59.861,-269.74c-5.833,-93.229 4.41,-184.462 31.701,-274.583" style="fill:#2d3d36;fill-rule:nonzero;"/><path d="M2563.62,1728.42c-0.764,-393.837 -160.503,-693.35 -518.281,-879.08c14.791,4.514 30.017,7.969 44.323,13.698c171.146,68.507 299.774,184.966 388.177,346.285c47.673,86.997 78.055,179.792 90.469,278.264c3.559,28.177 8.003,56.562 7.795,84.809c-0.382,52.187 -3.924,104.358 -6.146,156.528c-2.118,-0.174 -4.219,-0.33 -6.337,-0.504" style="fill:#2d3d36;fill-rule:nonzero;"/><path d="M402.777,903.79c0.625,-0.591 1.267,-1.198 1.892,-1.789c2.865,-2.656 5.903,-4.982 9.098,-7.048c3.854,-2.379 7.482,-2.483 10.868,-0.278c0.868,0.694 1.649,1.337 2.343,2.031c2.587,2.518 4.323,5.504 5.226,8.906c1.111,4.219 0.417,9.028 -2.031,14.167c-3.993,7.795 -9.636,15.191 -16.945,22.118c-1.562,1.459 -3.159,2.969 -4.774,4.358c-9.757,8.246 -20.66,13.698 -32.812,16.371c-12.205,2.691 -24.427,0.4 -36.719,-7.1c-3.941,-2.639 -7.622,-5.469 -11.094,-8.455c-24.896,-21.406 -34.635,-50.972 -27.309,-89.045c2.448,-11.077 5.573,-18.49 9.254,-22.275c3.663,-3.732 5.694,-5.764 6.041,-6.093c6.806,-6.528 14.219,-11.042 22.136,-13.646c8.159,-2.674 14.34,-3.368 18.489,-2.084c4.184,1.303 6.979,2.587 8.455,4.046c2.413,2.257 3.681,5.451 3.82,9.583c-0.018,5.625 -1.198,9.444 -3.577,11.667c-2.465,2.257 -5.399,3.958 -8.837,5.225c-3.75,1.25 -7.291,3.403 -10.59,6.563c-0.191,0.156 -0.365,0.33 -0.538,0.486c-3.42,3.351 -5.382,9.514 -5.816,18.472c-0.174,16.858 4.792,31.441 14.618,43.698c1.771,2.24 3.524,4.115 5.26,5.677c3.698,3.368 7.309,5.104 10.834,5.347c5.277,0.295 10.121,-1.267 14.427,-4.514c4.357,-3.298 8.455,-6.753 12.326,-10.382c1.424,-1.336 2.847,-2.743 4.288,-4.253c0.591,-0.538 1.129,-1.094 1.667,-1.753" style="fill:#f9eed2;fill-rule:nonzero;"/><path d="M451.308,768.659c12.709,-10.642 25.556,-21.111 38.49,-31.441c-6.806,-10.156 -13.611,-20.33 -20.434,-30.503c-5.243,-8.438 -6.719,-15.087 -4.358,-19.809c2.379,-4.722 4.809,-8.108 7.327,-10.052c2.586,-2.049 5.798,-3.42 9.6,-4.132c7.24,-1.441 14.219,1.354 20.886,8.212c0.902,1.041 1.805,2.083 2.708,3.107c5.885,6.771 13.993,16.441 24.236,29.254c12.014,14.982 23.542,30.052 34.601,45.139c11.041,15.034 18.107,25.989 21.25,32.708c2.205,5.937 2.135,10.608 -0.209,13.941c-2.326,3.333 -4.427,5.729 -6.302,7.17c-2.309,1.788 -5.017,3.195 -8.09,4.063c-5.486,1.562 -10.521,0.642 -15.139,-2.709c-5.625,-4.531 -11.528,-10.225 -17.76,-17.118c-6.215,-6.857 -11.632,-12.899 -16.198,-18.003c-4.219,-4.723 -8.438,-9.445 -12.674,-14.15c-7.465,6.737 -15.052,13.577 -22.708,20.677c-3.42,3.195 -6.979,6.459 -10.642,9.931c1.441,1.701 3.211,3.785 5.26,6.111c5.052,5.556 10.278,11.684 15.66,18.195c5.347,6.545 9.166,11.961 11.458,16.302c2.292,5.33 2.396,9.618 0.313,12.882c-2.066,3.264 -3.785,5.486 -5.174,6.666c-2.882,2.361 -6.476,3.889 -10.851,4.375c-6.389,0.816 -13.264,-2.396 -20.642,-9.705c-3.386,-3.524 -6.788,-7.048 -10.191,-10.555c-7.882,-8.125 -17.205,-17.778 -27.951,-28.785c-10.782,-11.024 -20.521,-21.267 -29.306,-30.712c-8.733,-9.444 -14.167,-15.955 -16.181,-19.496c-2.413,-5.66 -2.552,-10.191 -0.416,-13.611c2.135,-3.42 4.097,-5.851 5.85,-7.361c2.448,-2.118 5.261,-3.646 8.49,-4.757c5.434,-1.806 10.556,-1.077 15.382,2.152c11.302,10.608 22.535,21.285 33.715,32.014" style="fill:#f9eed2;fill-rule:nonzero;"/><path d="M660.077,622.507c-11.51,-9.41 -21.614,-11.268 -30.104,-5.591c-1.493,0.99 -2.934,2.275 -4.305,3.802c-3.525,3.924 -4.983,7.205 -4.445,9.844c0.556,2.691 1.302,4.583 2.257,5.886c0.972,1.267 2.327,2.187 4.08,2.951c3.333,1.458 7.188,0.799 11.615,-1.788c0.833,-0.556 1.666,-1.129 2.5,-1.702c4.045,-2.743 8.038,-5.555 11.979,-8.628c2.048,-1.632 4.201,-3.177 6.423,-4.774m21.823,30.642c-9.01,5.017 -17.465,9.826 -25.347,14.271c-8.611,4.809 -17.378,9.93 -26.25,15.208c1.059,0.556 2.309,1.25 3.785,2.049c4.114,2.656 9.062,5.173 14.809,7.569c5.746,2.379 10.243,3.195 13.541,2.396c3.282,-0.799 5.573,-1.615 6.806,-2.448c3.438,-2.361 6.233,-6.545 8.438,-12.726c1.51,-5.503 2.534,-11.284 3.038,-17.257c0.312,-2.899 0.712,-5.954 1.18,-9.062m-81.649,58.819c-3.941,-3.541 -7.431,-7.274 -10.451,-10.989c-8.559,-10.573 -13.82,-21.893 -15.66,-34.15c-2.622,-16.649 -0.556,-32.083 6.354,-46.284c6.892,-14.202 16.389,-25.382 28.333,-33.403c1.927,-1.319 3.872,-2.448 5.834,-3.524c14.618,-8.316 31.389,-10.73 49.982,-6.858c18.473,4.444 30.486,10.573 36.233,17.847c5.781,7.292 9.062,11.511 9.826,12.656c8.855,12.639 13.698,26.928 14.775,42.622c1.198,17.066 -2.969,33.698 -12.257,49.913c-5.92,9.497 -12.83,16.823 -20.816,22.205c-3.559,2.361 -7.431,4.427 -11.58,6.024c-13.073,5.157 -26.667,6.355 -41.059,3.473c-14.323,-2.761 -27.5,-9.289 -39.514,-19.532" style="fill:#f9eed2;fill-rule:nonzero;"/><path d="M839.659,516.77c-10.59,-10.555 -20.504,-13.437 -29.497,-8.541c-1.597,0.833 -3.142,1.979 -4.687,3.368c-3.872,3.576 -5.642,6.753 -5.347,9.462c0.277,2.708 0.85,4.774 1.666,6.111c0.851,1.319 2.118,2.465 3.785,3.368c3.195,1.736 7.101,1.493 11.771,-0.677c0.885,-0.469 1.771,-0.955 2.656,-1.441c4.306,-2.361 8.559,-4.775 12.778,-7.5c2.187,-1.389 4.514,-2.778 6.875,-4.15m18.819,32.848c-9.479,4.184 -18.35,8.142 -26.649,11.84c-9.062,3.958 -18.281,8.229 -27.639,12.691c0.99,0.66 2.17,1.476 3.577,2.413c3.836,3.09 8.541,6.059 14.027,9.045c5.521,2.934 9.931,4.202 13.282,3.716c3.368,-0.469 5.729,-1.042 7.031,-1.771c3.663,-1.962 6.858,-5.99 9.618,-11.962c2.066,-5.365 3.628,-11.059 4.722,-16.997c0.59,-2.882 1.268,-5.868 2.031,-8.975m-87.083,51.007c-3.576,-4.011 -6.719,-8.021 -9.375,-12.066c-7.535,-11.355 -11.684,-23.299 -12.326,-35.782c-1.025,-16.944 2.517,-32.204 10.764,-45.764c8.246,-13.559 18.767,-23.854 31.475,-30.729c2.032,-1.093 4.08,-2.1 6.129,-2.968c15.382,-6.962 32.361,-7.639 50.538,-1.98c18.003,6.302 29.427,13.577 34.462,21.407c5.069,7.899 7.934,12.43 8.611,13.645c7.604,13.56 11.076,28.282 10.66,44.202c-0.469,17.205 -6.216,33.507 -17.049,48.871c-6.823,8.959 -14.427,15.677 -22.917,20.261c-3.784,2.014 -7.864,3.698 -12.135,4.896c-13.542,3.906 -27.222,3.732 -41.302,-0.521c-14.028,-4.219 -26.545,-11.997 -37.535,-23.472" style="fill:#f9eed2;fill-rule:nonzero;"/><path d="M973.312,446.894c1.771,0.347 3.489,0.659 5.139,1.007c15.659,2.76 30.677,6.441 44.93,11.25c14.271,4.791 26.059,12.274 35.382,22.291c2.917,3.559 5.139,7.084 6.702,10.556c3.767,8.333 4.027,16.423 0.85,24.427c-4.444,11.562 -10.33,19.149 -17.76,22.865c-7.396,3.68 -11.684,5.85 -12.83,6.336c-12.865,5.504 -27.743,7.292 -44.913,5.747c-7.934,-1.094 -13.403,-2.917 -16.337,-5.677c-2.917,-2.691 -4.844,-4.879 -5.712,-6.58c-1.163,-2.309 -1.545,-4.757 -1.094,-7.413c0.834,-4.41 4.584,-8.16 11.233,-11.216c10.226,-0.972 20.451,-1.875 30.66,-2.691c2.031,-0.538 3.784,-1.18 5.26,-1.805c3.195,-1.389 5.417,-3.056 6.632,-4.983c0.799,-1.319 0.799,-2.795 0.017,-4.392c-1.076,-2.274 -3.559,-4.774 -7.5,-7.552c-4.288,-2.691 -9.6,-4.844 -15.92,-6.458c-6.336,-1.632 -13.003,-2.952 -20.017,-4.046c-8.733,-1.354 -17.17,-3.003 -25.347,-5.017c-8.16,-1.997 -14.462,-4.549 -18.889,-7.76c-4.41,-3.247 -7.535,-6.528 -9.375,-9.966c-1.528,-2.795 -2.587,-6.041 -3.177,-9.739c-1.216,-11.094 1.51,-21.285 8.281,-30.486c6.753,-9.219 13.125,-15.4 19.045,-18.438c5.903,-3.09 9.757,-5.017 11.545,-5.816c8.195,-3.594 15.99,-5.33 23.316,-5.069c8.038,0.225 13.559,3.507 16.58,9.705c0.33,0.659 0.59,1.302 0.833,2.1c1.771,5.816 0.382,10.816 -4.149,14.844c-4.514,4.08 -10.798,8.247 -18.837,12.656c-1.77,1.025 -3.628,2.084 -5.59,3.299c-3.594,2.239 -5.017,4.097 -4.271,5.503c0.538,1.077 2.309,1.927 5.313,2.518" style="fill:#f9eed2;fill-rule:nonzero;"/><path d="M1158.23,466.862c3.107,-0.677 6.354,-1.545 9.791,-2.656c5.07,-1.649 9.809,-2.691 14.236,-3.125c6.563,0.018 10.73,2.292 12.466,6.91c0.104,0.278 0.208,0.555 0.312,0.851c1.893,5.92 0.92,10.746 -2.812,14.461c-4.914,4.063 -10.191,7.136 -15.782,9.063c-5.625,1.962 -8.75,3.09 -9.392,3.299c-9.809,3.454 -19.149,6.145 -28.073,8.194c-3.576,0.538 -6.649,0.156 -9.167,-1.319c-2.534,-1.494 -4.357,-3.247 -5.52,-5.417c-16.424,-42.031 -33.282,-83.924 -50.539,-125.642c-3.263,-8.299 -3.506,-14.827 -0.642,-19.775c2.882,-4.861 8.472,-8.941 16.771,-12.118c3.316,-1.337 6.892,-2.691 10.729,-4.097c3.958,-1.424 8.229,-2.917 12.795,-4.445c9.271,-3.09 17.9,-5.85 25.851,-8.263c10.139,-2.605 16.788,-2.813 19.896,-0.625c3.142,2.187 5,4.114 5.625,5.694c0.955,2.413 0.729,5.191 -0.66,8.299c-2.465,5.503 -8.715,10.468 -18.733,14.965c-3.958,1.545 -8.073,3.108 -12.326,4.601c-2.205,0.781 -4.41,1.493 -6.632,2.187c-3.038,0.972 -6.233,1.997 -9.566,3.229c5.608,13.351 11.163,26.702 16.667,40.087c5.538,-1.962 11.909,-3.993 19.097,-5.937c7.205,-1.945 13.75,-3.004 19.583,-3.091c5.868,-0.121 9.688,1.424 11.407,4.67c0.069,0.139 0.121,0.296 0.173,0.434c2.674,6.945 0.834,12.691 -5.399,17.205c-6.337,4.566 -13.854,8.664 -22.552,12.361c-4.028,1.91 -7.847,3.855 -11.441,5.625c4.653,11.459 9.253,22.9 13.837,34.375" style="fill:#f9eed2;fill-rule:nonzero;"/><path d="M1411.34,320.319c-1.58,1.181 -3.038,2.292 -4.375,3.281c-2.327,1.632 -4.462,3.16 -6.459,4.532c-9.218,6.197 -17.725,10.208 -25.555,12.1c-4.688,1.094 -9.167,1.424 -13.42,1.007c-11.476,-1.041 -21.667,-5.538 -30.695,-13.472c-6.041,-5.243 -10.486,-10.868 -13.194,-16.927c-2.761,-6.094 -4.636,-10.729 -5.695,-14.028c-1.736,-5.469 -2.76,-10.92 -3.055,-16.25c-0.504,-8.542 1.476,-14.792 5.989,-18.785c3.351,-3.055 6.684,-4.982 9.966,-5.816c2.795,-0.746 5.555,-0.642 8.333,0.278c5.938,1.875 10.295,6.302 13.056,13.334c0.451,1.284 0.902,2.586 1.371,3.888c0.33,1.372 0.677,2.743 1.024,4.115c0.296,1.406 0.643,2.76 1.059,4.115c1.042,3.611 2.466,7.031 4.237,10.364c3.975,6.545 7.482,9.774 10.52,9.722c3.056,-0.017 5.053,-0.156 6.025,-0.399c4.271,-0.972 8.593,-4.219 12.934,-9.549c5.538,-7.604 9.705,-15.086 12.517,-22.586c1.563,-3.629 2.969,-6.493 4.219,-8.559c4.687,-6.91 8.715,-10.799 12.048,-11.598c3.334,-0.833 5.053,-1.198 5.191,-1.25c6.233,-1.354 12.396,0.434 18.386,5.191c6.18,4.983 11.076,13.681 14.687,26.094c1.493,5.903 3.282,15.504 5.33,28.715c2.084,13.282 3.889,26.355 5.486,39.254c1.563,12.917 2.414,21.979 2.57,27.239c-0.278,8.525 -2.361,14.341 -6.268,17.379c-3.906,3.055 -7.395,4.861 -10.486,5.555c-2.517,0.504 -5.104,0.521 -7.76,0.053c-6.024,-1.059 -10.712,-4.775 -14.097,-11.32c-4.532,-21.91 -9.167,-43.802 -13.889,-65.677" style="fill:#f9eed2;fill-rule:nonzero;"/><path d="M1616.61,274.267c-6.284,-14.01 -14.774,-20.365 -25.243,-18.941c-1.857,0.208 -3.75,0.781 -5.764,1.562c-5.052,2.032 -7.916,4.41 -8.68,7.119c-0.729,2.76 -0.938,4.895 -0.625,6.51c0.312,1.58 1.094,3.142 2.378,4.601c2.414,2.847 6.285,4.08 11.563,3.645c1.041,-0.138 2.083,-0.295 3.125,-0.434c4.982,-0.659 10.017,-1.527 15.052,-2.569c2.674,-0.538 5.382,-1.059 8.194,-1.493m5.955,38.437c-10.712,0.539 -20.746,1.198 -30.104,1.702c-10.226,0.555 -20.677,1.267 -31.337,2.135c0.695,1.025 1.545,2.222 2.552,3.646c2.57,4.323 5.955,8.924 10.157,13.785c4.201,4.878 8.003,7.691 11.423,8.42c3.403,0.781 5.886,1.042 7.413,0.833c4.289,-0.555 8.837,-3.246 13.733,-8.003c3.976,-4.375 7.604,-9.323 10.851,-14.636c1.666,-2.569 3.42,-5.208 5.312,-7.882m-102.76,17.362c-1.962,-5.105 -3.472,-10.139 -4.531,-15c-2.987,-13.733 -2.553,-26.702 1.441,-38.907c5.312,-16.666 14.375,-30.069 27.309,-40.104c12.934,-10.017 26.857,-16.094 41.631,-18.073c2.379,-0.347 4.723,-0.521 6.997,-0.607c17.396,-1.077 33.993,4.427 49.41,16.458c15.034,12.587 23.368,23.767 25.347,33.108c1.979,9.461 3.038,14.826 3.246,16.232c2.327,15.834 0.209,31.215 -6.093,46.372c-6.858,16.406 -18.438,29.913 -34.653,40.816c-9.896,6.111 -19.74,9.826 -29.635,11.163c-4.445,0.608 -8.941,0.642 -13.542,0.295c-14.514,-1.128 -27.639,-6.319 -39.601,-15.503c-11.91,-9.184 -21.059,-21.25 -27.326,-36.25" style="fill:#f9eed2;fill-rule:nonzero;"/><path d="M1801,306.882c2.066,-11.303 3.507,-26.164 4.219,-44.705c0.469,-9.896 1.059,-18.785 1.788,-26.736c0.712,-7.987 1.754,-13.351 3.143,-16.303c3.055,-5.381 6.163,-8.298 9.305,-8.75c3.177,-0.486 5.122,-0.711 5.868,-0.746c4.462,-0.139 8.733,1.163 12.778,3.924c4.74,3.246 7.518,8.142 8.386,14.583c0.538,5.035 0.954,9.861 1.302,14.618c1.545,20.937 1.093,39.913 -1.198,56.927c-2.917,20.816 -9.41,36.892 -19.306,48.281c-12.118,12.552 -25.087,19.184 -39.184,19.844c-0.607,0.035 -1.198,0.052 -1.788,0.087c-14.844,0.33 -27.674,-6.302 -38.837,-19.792c-9.253,-12.656 -15.347,-25.851 -18.142,-39.705c-2.813,-13.854 -4.896,-26.111 -6.25,-36.771c-0.712,-5.937 -1.337,-11.718 -1.806,-17.413c-0.486,-4.826 -0.955,-9.357 -1.389,-13.75c-0.937,-11.024 0.955,-18.177 5.677,-21.475c4.723,-3.264 9.046,-5.087 12.969,-5.33c2.674,-0.174 5.382,0.121 8.143,0.972c6.857,1.944 11.458,6.337 13.75,13.16c4.375,25.243 8.559,50.521 12.534,75.816c3.282,14.687 6.476,22.222 9.653,22.43c3.177,0.278 4.931,0.382 5.295,0.347c5.434,-0.243 9.774,-6.753 13.09,-19.513" style="fill:#f9eed2;fill-rule:nonzero;"/><path d="M1952.07,244.677c6.684,-4.289 10.105,-7.414 10.191,-9.358c-0.034,-0.99 -0.052,-1.962 -0.086,-2.951c-0.105,-3.802 -3.698,-6.962 -10.782,-9.375c0.243,7.222 0.469,14.461 0.677,21.684m2.032,65.955c0.052,2.482 0.139,5.069 0.33,7.743c0.277,2.257 0.451,4.513 0.486,6.805c0.104,5.99 -0.539,11.823 -1.91,17.465c-1.84,7.622 -7.726,12.709 -17.656,15.521c-1.563,0.33 -2.986,0.417 -4.323,0.4c-4.445,-0.07 -8.073,-1.684 -10.938,-4.792c-3.732,-4.132 -6.389,-8.958 -7.968,-14.844c-1.598,-5.868 -2.518,-10.729 -2.796,-14.757c-2.083,-33.194 -4.027,-66.371 -5.781,-99.635c-0.191,-3.594 -0.173,-7.535 0.017,-11.806c0.209,-4.253 1.112,-8.038 2.744,-11.354c1.614,-3.351 4.375,-5.451 8.316,-6.476c12.361,-2.43 23.593,-3.507 33.68,-3.35c9.566,0.173 18.16,1.527 25.712,3.993c15.347,4.861 24.705,11.111 28.09,18.472c3.386,7.396 5.035,13.264 5.104,17.743c0.052,6.563 -1.979,13.559 -6.093,20.694c-3.612,5.712 -7.969,11.407 -13.039,17.136c-2.361,2.83 -4.687,5.694 -7.014,8.733c23.698,17.934 45.382,37.343 64.983,58.402c5.625,6.441 8.316,12.535 8.142,18.125c-0.034,1.233 -0.19,2.431 -0.486,3.525c-1.753,6.562 -4.739,10.069 -8.941,10.59c-4.184,0.573 -6.805,0.764 -7.899,0.729c-6.753,-0.469 -14.496,-4.288 -23.351,-11.476c-5.138,-4.514 -10.069,-8.889 -14.791,-12.986c-13.073,-11.909 -27.952,-23.437 -44.618,-34.6" style="fill:#f9eed2;fill-rule:nonzero;"/><path d="M2376.93,300.456c-14.219,8.368 -24.566,17.275 -31.25,26.736c-6.719,9.358 -11.719,18.056 -15.139,26.007c-3.351,7.587 -6.927,13.368 -10.764,17.57c-3.802,4.149 -9.514,5.642 -17.17,4.427c-0.121,-0.018 -0.226,-0.035 -0.347,-0.052c-10.938,-1.979 -17.326,-9.219 -19.34,-21.702c-0.573,-5.711 -1.268,-13.559 -2.136,-23.541c-0.816,-10.486 -1.805,-20.851 -2.934,-31.059c-1.128,-10.278 -2.482,-17.639 -3.923,-22.309c-9.809,13.524 -16.407,26.111 -19.896,37.656c-3.49,11.597 -5.799,21.701 -6.979,30.382c-1.164,8.663 -2.952,15.434 -5.365,20.191c-2.378,4.791 -7.24,7.239 -14.566,7.257c-1.128,-0.018 -2.205,-0.191 -3.333,-0.33c-4.775,-0.677 -8.559,-2.448 -11.407,-5.139c-3.385,-3.385 -5.642,-7.413 -6.788,-11.91c-1.128,-4.531 -1.545,-8.663 -1.215,-12.344c1.094,-12.135 3.576,-25.52 7.535,-40.225c3.975,-14.688 9.583,-28.594 16.979,-41.858c7.361,-13.194 16.649,-23.698 27.847,-31.528c9.583,-5.989 19.097,-8.368 28.351,-6.892c1.302,0.226 2.691,0.521 4.097,0.972c10.694,3.125 18.455,10.538 23.073,22.24c3.003,8.576 5.174,17.639 6.51,27.205c0.782,4.479 1.667,9.166 2.622,13.975c16.059,-12.882 32.344,-25.642 48.819,-38.264c8.82,-4.982 17.24,-6.631 25.209,-4.982c1.562,0.312 3.055,0.764 4.444,1.232c9.34,3.351 16.094,10.521 20.139,21.494c3.125,9.166 4.479,18.177 4.097,27.118c-3.038,35.711 -7.048,71.198 -11.944,106.51c-0.052,0.26 -0.104,0.521 -0.156,0.781c-2.257,12.344 -6.858,19.948 -13.664,22.622c-3.281,1.302 -6.406,1.58 -9.427,0.903c-3.524,-0.816 -6.875,-2.796 -10.087,-6.129c-6.111,-6.163 -9.062,-16.441 -8.871,-30.851c2.587,-28.68 4.913,-57.395 6.979,-86.163" style="fill:#f9eed2;fill-rule:nonzero;"/><path d="M2512.38,427.312c3.212,1.337 6.701,2.57 10.451,3.767c5.591,1.737 10.556,3.768 14.809,6.146c5.955,4.045 8.316,8.594 7.066,13.629c-0.069,0.312 -0.139,0.607 -0.208,0.92c-1.944,6.233 -5.747,9.774 -11.389,10.608c-6.979,0.416 -13.576,-0.226 -19.844,-2.032c-6.284,-1.788 -9.774,-2.795 -10.503,-3.003c-10.972,-3.108 -21.077,-6.528 -30.365,-10.347c-3.593,-1.702 -6.076,-3.976 -7.448,-6.754c-1.389,-2.847 -1.961,-5.486 -1.684,-8.021c10.903,-46.024 21.355,-92.135 31.355,-138.368c2.118,-9.045 5.937,-14.826 11.51,-17.274c5.555,-2.361 13.038,-2.465 22.43,-0.07c3.785,0.869 7.848,1.928 12.119,3.108c4.427,1.198 9.149,2.552 14.218,4.063c10.209,3.107 19.636,6.041 28.264,8.889c10.729,4.027 16.823,8.003 18.299,11.753c1.475,3.802 2.014,6.615 1.614,8.333c-0.607,2.691 -2.517,4.896 -5.677,6.684c-5.555,3.125 -14.201,3.542 -25.972,1.198c-4.531,-1.093 -9.184,-2.326 -13.924,-3.663c-2.447,-0.746 -4.878,-1.441 -7.291,-2.24c-3.316,-1.076 -6.823,-2.1 -10.556,-3.107c-3.107,14.844 -6.267,29.67 -9.479,44.479c6.181,1.736 13.142,3.924 20.816,6.719c7.691,2.795 14.236,5.937 19.583,9.444c5.348,3.611 7.83,7.24 7.448,11.077c-0.052,0.156 -0.087,0.312 -0.121,0.468c-1.823,7.622 -6.962,11.355 -15.347,11.372c-8.542,-0.07 -17.83,-1.181 -27.917,-3.42c-4.809,-0.834 -9.41,-1.545 -13.767,-2.257c-2.796,12.639 -5.625,25.278 -8.49,37.899" style="fill:#f9eed2;fill-rule:nonzero;"/><path d="M2706.48,430.288c0.868,-10.729 1.336,-22.969 1.25,-36.702c-3.351,3.837 -6.893,8.247 -10.677,13.177c-4.323,5.417 -8.525,10.556 -12.553,15.539c7.327,2.621 14.653,5.277 21.98,7.986m-3.559,39.462c-14.618,-5.434 -29.237,-10.695 -43.889,-15.816c-2.066,2.482 -4.184,5.139 -6.32,7.847c-5.451,7.726 -11.128,13.958 -17.014,18.715c-5.902,4.774 -12.257,6.007 -19.114,3.646c-0.834,-0.26 -1.736,-0.642 -2.691,-1.059c-5.347,-2.899 -8.785,-6.684 -10.313,-11.32c-1.51,-4.565 -1.944,-8.194 -1.232,-10.711c0.677,-2.552 1.076,-4.045 1.18,-4.427c1.163,-4.237 2.934,-7.969 5.365,-11.077c4.444,-5.66 8.854,-11.302 13.212,-17.1c16.875,-21.754 34.357,-43.108 52.517,-64.15c5.799,-6.475 13.75,-12.291 23.889,-17.274c10.156,-5.017 20.382,-6.719 30.59,-5.191c1.181,0.33 2.344,0.712 3.507,1.094c6.58,2.396 11.719,6.527 15.399,12.43c4.41,6.788 7.223,14.254 8.403,22.292c1.181,8.003 1.528,14.948 1.042,20.625c-2.604,33.646 -6.389,67.101 -11.198,100.174c-0.347,4.67 -1.076,8.75 -2.222,12.118c-1.736,5.138 -4.358,8.871 -7.882,11.25c-5.816,3.923 -11.875,4.6 -18.212,2.152c-6.337,-2.517 -10.851,-7.639 -13.629,-15.364c-0.659,-2.188 -1.076,-5.781 -1.267,-10.938c-0.208,-5.139 -0.312,-10.312 -0.312,-15.538c0.034,-5.278 0.086,-9.41 0.191,-12.378" style="fill:#f9eed2;fill-rule:nonzero;"/><path d="M2855.94,530.602c4.774,2.188 9.549,4.392 14.306,6.615c3.75,1.718 7.465,3.524 11.163,5.399c7.448,3.68 14.6,7.778 21.493,12.396c12.76,9.288 17.291,18.559 13.646,27.569c-3.855,8.785 -12.952,11.563 -27.205,8.663c-5.07,-1.215 -9.913,-2.847 -14.497,-5.069c-1.597,-0.781 -3.194,-1.528 -4.791,-2.292c-5.73,-2.639 -11.355,-5.243 -16.945,-7.847c-7.448,-3.49 -14.896,-6.996 -22.309,-10.642c-25.226,-11.91 -34.149,-27.848 -26.753,-48.594c0.347,-0.938 0.694,-1.892 1.024,-2.847c4.826,-11.788 9.826,-23.507 15.052,-35.122c2.622,-5.764 5.243,-11.736 7.899,-17.587c3.559,-8.559 7.153,-17.083 10.868,-25.642c2.101,-5.243 4.236,-10.399 6.476,-15.573c6.736,-16.285 16.719,-21.684 30,-16.024c0.139,0.052 0.26,0.121 0.399,0.173c5.73,2.5 10.243,6.806 13.507,12.917c3.455,6.302 3.75,13.438 0.868,21.372c-3.229,8.854 -6.493,17.691 -9.757,26.545c-1.614,4.739 -3.281,9.444 -5,14.01c-6.406,17.222 -12.882,34.41 -19.444,51.58" style="fill:#f9eed2;fill-rule:nonzero;"/><path d="M3096.25,694.663c-1.597,2.795 -4.097,5.85 -7.5,9.149c-3.42,3.316 -7.17,5.486 -11.25,6.441c-4.045,0.938 -8.125,0.191 -12.257,-2.326c-0.903,-0.486 -1.858,-1.216 -2.83,-1.893c-2.691,-2.378 -5.208,-5.26 -7.552,-8.576c-2.344,-3.351 -3.524,-6.181 -3.524,-8.576c0.746,-5.903 1.77,-10.938 3.159,-15.018c1.389,-4.08 2.396,-6.805 3.073,-8.16c2.205,-4.461 5.226,-7.777 9.097,-10.086c4.983,-3.039 11.875,-2.066 20.66,2.916c9.063,5.955 13.611,12.084 13.646,18.229c0.017,6.198 -1.059,11.337 -3.194,15.452c-0.452,0.851 -0.955,1.649 -1.528,2.448m36.701,-67.136c-6.736,11.702 -13.021,17.379 -18.802,16.98c-5.746,-0.33 -10.104,-1.424 -13.055,-3.195c-3.195,-1.91 -6.007,-4.792 -8.403,-8.594c-4.41,-7.205 -5.035,-15.295 -1.893,-24.253c15.469,-35.816 30.539,-71.788 45.243,-107.969c6.441,-9.114 12.987,-13.42 19.584,-12.812c6.614,0.642 11.701,1.944 15.225,4.045c3.664,2.153 6.893,5.225 9.671,9.219c5.208,7.673 5.52,17.17 0.92,28.263c-2.413,4.966 -4.757,9.914 -7.066,14.914c-7.969,16.805 -16.094,33.645 -24.445,50.243c-5.573,11.145 -11.25,22.187 -16.979,33.159" style="fill:#f9eed2;fill-rule:nonzero;"/><path d="M353.593,1889.7c-1.007,0.764 -1.181,1.545 -0.781,2.309c-5.174,2.17 -3.49,-6.841 0.781,-2.309m24.618,16.562c1.267,1.094 2.691,-5.729 5.642,-5.087c1.181,4.323 3.16,8.907 8.282,12.657c-5.174,7.691 -11.754,-4.74 -17.101,1.111c-3.42,-3.75 -5.017,-5.608 -9.392,-3.889c-5.886,-8.924 -11.563,-5.955 -15.122,-13.663c4.931,-2.327 1.684,-3.854 6.042,-7.691c6.58,5.816 19.357,9.444 21.649,16.562m450.26,192.847c2.952,-0.746 9.219,-2.447 12.622,-3.975c11.441,-4.775 25.226,-12.222 38.872,-17.136c6.736,-2.586 13.42,-4.635 19.34,-6.128c5.833,-1.667 11.076,-2.5 15.312,-2.049c4.271,-1.805 2.761,-3.975 6.997,-5.781c5.191,2.726 22.083,3.038 31.753,-4.149c3.212,-2.604 4.566,-12.587 10.643,-19.132c8.923,-9.792 24.878,-10.556 32.795,-19.844c3.541,-4.323 3.403,-12.934 6.423,-17.917c3.959,-6.545 11.615,-14.618 19.497,-22.118c7.639,-7.708 15.174,-15.208 20.035,-19.253c7.552,-6.459 13.923,-6.181 17.812,-12.691c3.594,-5.816 1.875,-13.403 -5.208,-17.778c-1.91,-13.177 6.562,-27.361 16.562,-42.222c9.41,-15.174 19.74,-31.615 22.865,-46.024c7.621,-7.987 10.538,-18.143 12.969,-28.143c2.205,-10.139 4.27,-20.035 7.795,-29.392c1.493,-3.715 5.087,-7.587 6.285,-11.58c1.996,-6.615 1.371,-16.406 2.621,-25.139c2.188,-14.93 4.705,-27.847 4.566,-40.365c14.757,-16.753 3.698,-32.76 5.799,-48.211c0.781,-5.868 4.774,-11.407 5.364,-18.091c0.66,-5.642 -2.691,-11.163 -2.274,-17.291c0.295,-6.077 3.767,-12.413 3.715,-18.368c-0.052,-4.41 -2.187,-7.865 -1.979,-11.459c0.226,-4.722 2.934,-7.83 2.153,-12.83c-0.92,-5.26 -5.486,-10.243 -6.441,-15.451c-1.754,-9.531 -2.084,-19.566 -3.299,-29.375c-1.059,-9.809 -4.357,-19.288 -9.896,-27.396c0.139,-16.736 -3.906,-31.718 -9.93,-46.753c-5.695,-15.174 -11.094,-30.955 -15.729,-50.122c-5.782,-8.177 -9.966,-14.01 -12.084,-24.184c-1.666,-1.719 -3.836,-0.659 -5.26,-3.871c-3.229,-9.601 -9.427,-18.091 -15.608,-26.476c-3.09,-4.219 -6.18,-8.403 -8.923,-12.795c-2.865,-4.306 -5.677,-8.629 -7.674,-13.472c-1.458,0.086 -2.899,0.017 -4.271,-0.677c-10.642,-26.823 -33.576,-55.573 -53.038,-67.657c-4.01,-7.986 -10.764,-14.531 -18.368,-20.781c-3.837,-3.038 -7.795,-6.18 -11.823,-9.358c-4.149,-3.038 -8.455,-6.007 -12.517,-9.375c-7.639,-6.284 -13.386,-14.809 -21.389,-19.739c-7.778,-4.827 -16.632,-10.538 -25.087,-16.702c-8.611,-5.885 -16.788,-12.378 -24.931,-15.885c-4.791,-2.187 -10.746,-1.962 -15.434,-3.958c-8.507,-3.559 -15.746,-11.111 -25.26,-14.08c-9.323,-2.448 -18.663,-5.521 -27.951,-8.906c-9.289,-3.421 -18.473,-7.257 -27.9,-10.157c-18.646,-6.215 -36.562,-13.246 -52.916,-16.128c-10.052,-2.118 -19.271,-0.417 -30.591,-1.32c-18.784,-0.243 -37.673,-8.385 -56.701,-7.864c-4.757,0.295 -9.427,2.378 -13.767,2.812c-11.216,1.146 -21.962,-1.111 -33.837,-0.434c-14.462,1.459 -28.802,4.497 -42.813,6.979c-14.01,2.778 -27.639,6.216 -41.597,6.389c-4.062,1.789 -8.42,3.386 -12.917,5.139c-4.444,1.945 -9.097,3.854 -13.906,5.712c-9.601,3.75 -19.792,7.379 -30.173,10.99c-10.105,4.288 -20.382,8.663 -30.452,12.934c-5,2.205 -9.93,4.392 -14.774,6.545c-4.636,2.569 -9.167,5.069 -13.559,7.5c-5.174,9.462 -15.035,9.08 -22.813,14.253c-11.753,8.212 -23.75,19.532 -36.406,29.775c-12.326,10.711 -24.271,21.857 -37.17,29.6c-42.917,45.261 -80.122,96.702 -105.972,153.75c-25.903,56.771 -39.809,119.254 -37.24,179.045c-5.087,9.028 -2.031,23.768 0.938,31.823c-2.813,1.789 -2.639,7.24 -3.473,11.424c3.368,7.361 4.775,15.573 5.191,24.427c0.504,8.819 0.452,18.247 2.344,27.413c7.379,3.663 4.583,15.486 11.094,21.406c-3.195,3.681 -4.045,-3.35 -5.104,2.119c3.715,2.343 6.632,6.614 9.062,11.961c2.396,5.348 4.236,11.789 6.667,18.282c4.479,13.055 8.281,27.187 12.691,35.138c-0.365,-1.197 1.337,-2.083 2.066,-0.677c-1.337,5.122 5.364,4.809 7.014,9.306c13.298,29.757 35.538,44.08 52.934,64.028c0.295,3.663 0.764,14.114 6.389,14.062c-2.066,-4.409 -5.747,-9.253 -1.094,-11.753c2.934,7.482 10.746,14.809 17.066,16.632c5.59,7.76 7.101,12.916 15.417,17.239c1.25,1.667 2.968,-5 5.677,-1.493c6.423,11.979 13.802,14.358 20.382,24.358c6.041,-0.955 16.753,7.673 17.951,12.604c4.184,1.094 -0.122,-5.99 3.038,-4.635c8.316,6.597 17.622,10.573 22.795,19.496c3.351,-0.295 6.545,-1.771 10.018,0.104c2.257,1.389 -3.594,3.386 0.434,4.653c4.583,0.087 0.816,-5.746 3.819,-8.108c5.035,1.841 5.851,-0.885 9.601,-1.666c3.923,6.493 11.545,4.201 17.708,6.232c6.389,2.066 11.354,7.622 17.361,9.74c5.382,1.441 9.254,-0.729 14.445,2.222c4.218,2.361 5.972,7.726 10.92,10.052c2.916,0.573 0.156,-4.496 3.837,-2.76c4.218,2.083 8.645,3.733 13.107,5.087c4.41,1.441 8.785,2.777 13.073,3.854c8.542,2.222 16.702,3.559 24.358,2.135c-11.459,1.233 -19.636,-3.229 -27.674,-6.666c-8.003,-3.646 -15.607,-7.032 -25.382,-8.351c-0.191,-5.625 -8.767,-1.354 -8.055,-8.438c-2.466,1.841 0.364,5.608 -3.091,3.212c-1.024,-0.989 -0.885,-2.309 -2.951,-2.986c5.156,-3.75 1.736,-5.625 2.465,-9.809c-6.996,-3.281 -12.777,-6.996 -18.75,-9.948c-5.902,-3.09 -11.614,-6.111 -17.205,-9.844c-2.812,-0.399 -0.59,3.698 -3.437,2.761c-4.601,-2.518 -7.135,-5.695 -12.865,-8.351c1.285,-4.479 -0.468,-8.663 4.775,-11.58c6.788,5.764 15.902,11.233 26.336,15.174c10.313,4.114 20.348,8.993 29.879,13.142c5.59,2.726 9.34,9.74 15.642,5.382c-9.132,-2.569 -11.979,-12.725 -18.455,-17.031c-7.968,-6.25 -20.781,-6.84 -28.35,-13.698c-2.136,-1.875 -1.823,-4.253 -3.802,-5.851c-1.528,-1.25 -6.111,-0.902 -7.743,-2.482c-1.754,-1.754 -0.4,-3.629 -2.171,-4.775c-3.593,-2.343 -8.472,-1.736 -12.118,-4.913c-6.18,-5.208 -8.489,-14.132 -15.729,-19.184c0.122,-1.215 1.111,-2.5 2.327,-3.403c65.902,67.431 159.201,107.483 260.781,102.622c1.042,-0.052 2.066,-0.174 3.108,-0.226c1.354,12.031 2.465,23.281 1.805,34.184c8.056,11.563 7.5,25.903 14.583,36.875c4.428,6.806 12.848,12.813 18.907,19.132c6.892,7.292 14.184,12.57 20.59,19.306c1.25,8.021 9.496,7.969 12.344,14.323c10.798,2.968 19.913,8.177 31.458,10.659c1.649,2.448 4.514,3.421 5.573,6.493c24.965,6.771 53.906,16.997 86.562,8.125" style="fill:#2d3d36;fill-rule:nonzero;"/><text x="366.069px" y="1843.91px" style="font-family:'LucidaGrande', 'Lucida Grande', sans-serif;font-weight:500;font-size:1041.67px;fill:#a09b7e;">1<tspan x="731.694px " y="1843.91px ">.</tspan></text></g></svg>