<?xml version="1.0" encoding="UTF-8" standalone="no"?><!DOCTYPE svg PUBLIC "-//W3C//DTD SVG 1.1//EN" "http://www.w3.org/Graphics/SVG/1.1/DTD/svg11.dtd"><svg width="100%" height="100%" viewBox="0 0 3334 2500" version="1.1" xmlns="http://www.w3.org/2000/svg" xmlns:xlink="http://www.w3.org/1999/xlink" xml:space="preserve" xmlns:serif="http://www.serif.com/" style="fill-rule:evenodd;clip-rule:evenodd;stroke-linejoin:round;stroke-miterlimit:2;"><g><path d="M1130.76,1614.8l1373.91,0c-9.757,-179.705 -88.906,-344.948 -223.316,-465.625c-126.84,-113.871 -288.576,-175.416 -458.923,-175.416c-12.604,-0 -25.226,0.329 -37.917,1.024c-352.726,18.802 -631.319,298.802 -653.75,640.017" style="fill:#f9eed2;fill-rule:nonzero;"/><path d="M1134.08,1238.17l-322.674,0c-13.698,0 -24.826,-11.111 -24.826,-24.809c-0,-13.715 11.128,-24.826 24.826,-24.826l322.674,0c13.698,0 24.809,11.111 24.809,24.826c-0,13.698 -11.111,24.809 -24.809,24.809" style="fill:#2d3d36;fill-rule:nonzero;"/><path d="M1053.42,1338.61l-515.92,0c-13.698,0 -24.809,-11.111 -24.809,-24.809c-0,-13.715 11.111,-24.826 24.809,-24.826l515.92,0c13.698,0 24.809,11.111 24.809,24.826c-0,13.698 -11.111,24.809 -24.809,24.809" style="fill:#2d3d36;fill-rule:nonzero;"/><path d="M1021.95,1441.38l-699.757,-0c-13.697,-0 -24.809,-11.111 -24.809,-24.809c0,-13.715 11.112,-24.827 24.809,-24.827l699.757,0c13.698,0 24.809,11.112 24.809,24.827c0,13.698 -11.111,24.809 -24.809,24.809" style="fill:#2d3d36;fill-rule:nonzero;"/><path d="M1231.64,1135.4l-720.399,0c-13.698,0 -24.809,-11.111 -24.809,-24.809c-0,-13.715 11.111,-24.826 24.809,-24.826l720.399,-0c13.698,-0 24.809,11.111 24.809,24.826c0,13.698 -11.111,24.809 -24.809,24.809" style="fill:#2d3d36;fill-rule:nonzero;"/><path d="M2458.2,1458.74c-103.663,-285.729 -318.924,-453.871 -674.236,-478.246c13.854,-1.302 27.812,-3.49 41.58,-3.75c164.653,-3.108 305.382,41.736 423.351,131.562c63.628,48.455 113.941,106.441 150.347,174.115c10.416,19.358 21.649,38.594 28.854,59.184c13.316,38.004 23.924,76.979 35.66,115.538c-1.841,0.538 -3.698,1.059 -5.556,1.597" style="fill:#2d3d36;fill-rule:nonzero;"/><path d="M1848.48,982.085c2.639,-0.052 5.295,-0.121 7.951,-0.208c-2.656,-0.052 -5.295,0 -7.951,-0.035l0,0.243" style="fill:#2d3d36;fill-rule:nonzero;"/><path d="M2362.71,1570.13l-23.438,6.51c-352.622,18.073 -561.58,12.518 -668.056,5.92c-300.069,13.368 -410.104,-10.347 -410.104,-10.347l15.018,-2.083l-64.427,-0c1.944,-28.854 5.954,-57.222 11.84,-84.983c-1.458,4.011 -2.969,7.934 -4.393,11.997c2.431,-13.542 4.028,-27.413 7.414,-40.573c40.451,-157.518 119.878,-279.497 235.798,-367.813c62.518,-47.621 130.556,-80.052 204.063,-96.649c16.163,-3.646 32.396,-7.743 48.732,-10.087c42.743,-10.555 85.799,-16.371 129.098,-17.726c-5.07,-0.434 -10.105,-0.972 -15.209,-1.302c1.806,-1.041 3.438,-2.326 5.157,-3.489c1.979,-0.104 3.993,-0.382 5.972,-0.434c164.653,-3.09 305.382,41.753 423.35,131.58c63.629,48.437 113.941,106.441 150.348,174.097c10.416,19.375 21.649,38.611 28.854,59.184c7.17,20.469 13.542,41.215 19.739,62.014c22.379,58.333 35.834,120.243 39.375,184.184l-139.131,-0Zm-62.657,258.437l-0.017,0c-25.851,25.868 -57.274,42.5 -88.455,46.858c-27.344,3.767 -50.816,-2.552 -66.198,-17.934c-34.062,-34.063 -20.816,-104.896 28.941,-154.653c14.08,-14.097 29.844,-25.33 46.302,-33.437l102.709,-0c1.892,1.475 3.94,2.795 5.642,4.496c34.08,34.08 20.833,104.896 -28.924,154.67m-840.781,0c-25.851,25.868 -57.274,42.5 -88.455,46.858c-27.344,3.767 -50.833,-2.552 -66.198,-17.934c-34.08,-34.063 -20.816,-104.896 28.924,-154.653c14.097,-14.097 29.861,-25.33 46.319,-33.437l102.709,-0c1.892,1.475 3.941,2.795 5.642,4.496c34.08,34.08 20.833,104.896 -28.941,154.67m1164.43,-258.437l-24.201,-0c-0.018,-0.469 -0.018,-0.938 -0.035,-1.406c-2.066,-41.684 -7.813,-82.605 -16.84,-122.483c1.319,33.698 1.267,67.5 1.771,101.267l-4.792,0c-0.087,-7.621 -0.087,-15.225 -0.417,-22.882c-3.524,-78.75 -20.677,-153.628 -48.871,-222.395c-12.361,-27.518 -25.782,-53.907 -40.504,-78.941c-36.51,-57.396 -81.423,-110.139 -134.323,-156.563c-61.666,-54.115 -130.937,-96.944 -205.156,-127.708c-79.201,-29.705 -168.733,-48.75 -270.035,-55.695c11.875,-1.111 23.785,-2.673 35.608,-3.316c28.125,-18.854 46.806,-50.677 46.806,-87.066c-0,-58.055 -47.066,-105.104 -105.105,-105.104c-58.055,0 -105.121,47.049 -105.121,105.104c-0,38.924 21.215,72.813 52.656,90.99c-50.486,3.646 -99.427,12.326 -146.51,25.243c-76.945,25.903 -149.254,66.007 -213.23,119.74c-1.215,1.024 -2.395,2.1 -3.576,3.159c-2.083,1.65 -4.08,3.403 -6.128,5.07c-0.973,-1.146 -1.962,-2.309 -2.952,-3.455c-29.687,26.094 -60.208,51.337 -88.75,78.628c-3.576,3.403 -6.962,7.014 -10.278,10.712c33.056,-45.33 71.285,-85.191 114.619,-119.67c-191.841,124.34 -320.938,332.153 -334.393,566.771l-36.458,-0c-27.413,-0 -49.636,22.222 -49.636,49.635c0,27.396 22.223,49.636 49.636,49.636l186.267,-0c-63.889,78.246 -70.538,181.979 -11.771,240.746c26.736,26.736 62.795,40.834 103.386,40.834c8.403,-0 16.996,-0.591 25.729,-1.823c47.135,-6.58 93.594,-30.712 130.816,-67.952l0.017,0c37.24,-37.239 61.372,-83.715 67.952,-130.816c4.08,-29.253 1.041,-56.719 -8.212,-80.989l532.847,-0c-63.889,78.246 -70.538,181.979 -11.771,240.746c26.736,26.736 62.795,40.834 103.386,40.834c8.402,-0 16.996,-0.591 25.729,-1.823c47.135,-6.58 93.594,-30.712 130.833,-67.952c37.24,-37.239 61.372,-83.715 67.952,-130.816c4.079,-29.253 1.041,-56.719 -8.195,-80.989l211.25,-0c27.413,-0 49.636,-22.24 49.636,-49.636c-0,-27.413 -22.223,-49.635 -49.636,-49.635" style="fill:#2d3d36;fill-rule:nonzero;"/><path d="M764.235,1815.21c-3.507,3.854 -7.1,7.448 -10.833,10.799c-3.819,3.454 -7.639,7.187 -11.389,11.215c1.181,1.371 2.622,2.986 4.358,4.844c4.166,4.566 8.593,9.722 13.35,15.52c4.723,5.851 7.987,11.181 9.757,16.094c1.719,4.913 1.198,8.733 -1.684,11.424c-0.486,0.451 -1.076,0.972 -1.736,1.389c-6.232,3.385 -13.264,3.073 -20.989,-0.903c-7.691,-4.011 -15.417,-9.201 -23.177,-15.556c-2.796,-2.205 -5.469,-4.253 -8.073,-6.128c-1.355,1.024 -2.917,2.309 -4.688,3.854c-1.059,1.007 -2.135,2.031 -3.194,3.038c-3.49,3.056 -7.414,6.059 -11.893,9.167c-5.781,4.236 -11.527,6.91 -17.205,8.073c-5.659,1.128 -10.711,-0.417 -15.138,-4.653c-0.348,-0.33 -0.695,-0.677 -1.025,-1.007c-4.774,-5.851 -6.857,-11.354 -6.267,-16.528c0.573,-5.139 3.108,-9.739 7.552,-13.715c2.656,-2.5 5.365,-4.913 8.125,-7.413c24.462,-22.604 49.149,-44.879 74.08,-67.153c8.385,-7.118 15.903,-9.687 22.587,-7.76c6.632,1.909 12.691,5.451 18.177,10.52c1.354,1.285 2.708,2.639 4.01,4.132c6.702,7.24 13.195,15.243 19.514,23.837c2.656,3.525 5.278,6.945 7.847,10.156c1.354,1.58 2.5,4.046 3.49,7.396c0.937,3.334 1.163,6.354 0.642,9.167c-0.555,2.795 -1.632,4.983 -3.229,6.58c-0.92,0.937 -2.049,1.632 -3.351,2.309c-5.139,2.587 -10.434,2.239 -15.85,-1.007c-6.841,-4.618 -14.184,-10.538 -22.014,-17.656c-4.236,-3.768 -8.143,-7.118 -11.754,-10.035" style="fill:#f9eed2;fill-rule:nonzero;"/><path d="M872.867,1917.69c7.709,0.729 12.222,0.399 13.577,-0.937c0.642,-0.695 1.267,-1.355 1.909,-2.066c2.466,-2.709 1.962,-6.771 -1.406,-12.205c-4.67,5.069 -9.375,10.139 -14.08,15.208m-43.159,46.059c-1.65,1.702 -3.299,3.455 -5,5.434c-1.337,1.667 -2.778,3.368 -4.271,4.896c-4.011,4.115 -8.473,7.639 -13.403,10.625c-6.597,4.028 -14.844,3.872 -24.583,-0.469c-1.407,-0.781 -2.639,-1.597 -3.646,-2.43c-3.438,-2.83 -5.157,-6.233 -5.139,-10.052c-0,-5.018 1.458,-9.844 4.427,-14.653c2.917,-4.827 5.746,-8.577 8.403,-11.337c22.048,-22.812 44.132,-45.642 66.232,-68.542c2.396,-2.5 5.157,-5.104 8.282,-7.743c3.107,-2.725 6.388,-4.705 9.757,-6.024c3.35,-1.319 6.701,-1.267 10.034,0.226c9.948,5.069 18.299,10.208 25.087,15.573c6.424,5.086 11.458,10.399 15.122,15.937c7.569,11.198 10.312,20.226 8.038,27.118c-2.222,7.014 -4.757,11.962 -7.552,15.243c-4.167,4.74 -10.07,8.698 -17.761,11.615c-6.371,2.222 -13.35,3.923 -20.868,5.243c-3.628,0.712 -7.291,1.493 -11.041,2.309c6.128,25.312 10.868,50.885 14.097,76.528c0.642,7.725 -0.816,13.507 -4.358,17.552c-0.816,0.833 -1.667,1.666 -2.587,2.344c-5.486,3.802 -10.208,4.791 -14.114,2.847c-3.906,-1.927 -6.268,-3.195 -7.153,-3.82c-5.451,-4.114 -9.549,-11.232 -12.257,-21.319c-1.337,-6.094 -2.587,-11.945 -3.681,-17.57c-2.847,-15.798 -6.909,-32.309 -12.065,-49.531" style="fill:#f9eed2;fill-rule:nonzero;"/><path d="M967.713,2101.55c2.482,2.153 5.225,4.288 8.316,6.354c4.583,3.073 8.455,6.25 11.597,9.462c4.115,5.104 4.67,9.531 1.649,13.438c-0.173,0.243 -0.347,0.451 -0.538,0.694c-4.115,4.653 -9.045,6.563 -14.792,5.573c-6.875,-1.736 -12.986,-4.34 -18.298,-7.83c-5.313,-3.524 -8.281,-5.451 -8.889,-5.868c-9.271,-6.18 -17.483,-12.43 -24.688,-18.802c-2.656,-2.691 -4.062,-5.417 -4.132,-8.16c-0.121,-2.795 0.504,-5.139 1.875,-7.135c29.948,-33.507 59.132,-67.604 87.535,-102.222c5.747,-6.789 11.372,-10.417 17.031,-10.834c5.643,-0.486 11.875,1.389 18.681,5.764c2.76,1.736 5.694,3.559 8.819,5.556c3.212,2.048 6.615,4.305 10.261,6.736c7.361,4.878 14.149,9.462 20.399,13.646c7.57,5.625 11.32,10.139 11.233,13.611c-0.104,3.42 -0.643,5.92 -1.597,7.309c-1.494,2.153 -3.907,3.646 -7.309,4.462c-5.921,1.545 -13.594,-0.052 -22.865,-4.618c-3.507,-1.98 -7.049,-4.08 -10.608,-6.32c-1.823,-1.163 -3.628,-2.413 -5.399,-3.594c-2.413,-1.701 -5.035,-3.368 -7.795,-5.191c-8.594,11.459 -17.257,22.865 -25.99,34.237c4.757,3.107 10.07,6.805 15.851,11.076c5.799,4.253 10.469,8.49 14.01,12.743c3.507,4.184 4.427,7.969 2.709,11.076c-0.087,0.122 -0.174,0.243 -0.278,0.365c-4.358,5.92 -10.417,7.847 -18.108,5.764c-7.795,-2.188 -15.868,-5.677 -24.184,-10.278c-4.08,-2.049 -7.968,-3.976 -11.649,-5.781c-7.552,9.635 -15.174,19.219 -22.847,28.767" style="fill:#f9eed2;fill-rule:nonzero;"/><path d="M1143.28,2106.63c0.695,1.528 1.303,3.038 1.875,4.445c6.146,13.385 11.355,26.823 15.573,40.312c4.219,13.455 5,26.65 2.084,39.549c-1.32,4.288 -2.969,8.073 -5.018,11.267c-4.913,7.709 -12.031,12.604 -21.284,14.792c-13.316,3.16 -24.167,2.743 -32.396,-1.094c-8.195,-3.785 -12.9,-6.18 -14.08,-6.823c-13.264,-7.309 -24.254,-18.541 -32.726,-33.385c-3.628,-7.066 -4.965,-12.518 -4.045,-16.233c0.903,-3.767 1.945,-6.406 3.038,-7.917c1.528,-2.048 3.663,-3.611 6.424,-4.565c4.635,-1.528 10.208,-0.33 16.771,3.385c6.666,7.691 13.42,15.365 20.243,23.003c1.719,1.32 3.35,2.362 4.844,3.212c3.177,1.736 6.024,2.587 8.559,2.5c1.666,-0.104 3.02,-0.937 4.027,-2.396c1.389,-2.1 2.17,-5.416 2.327,-10c-0.087,-4.791 -1.25,-10.121 -3.438,-15.92c-2.222,-5.798 -4.739,-11.736 -7.639,-17.795c-3.576,-7.604 -6.632,-15.069 -9.08,-22.5c-2.517,-7.465 -3.35,-13.75 -2.656,-18.889c0.729,-5.121 2.188,-9.305 4.393,-12.465c1.805,-2.639 4.236,-5.174 7.274,-7.535c9.444,-6.684 19.861,-9.982 31.302,-9.844c11.424,0 19.896,1.407 25.573,4.028c5.625,2.639 9.271,4.41 10.885,5.243c7.292,3.872 12.813,8.646 16.545,14.063c4.08,6.041 4.358,11.927 0.747,17.83c-0.382,0.59 -0.816,1.198 -1.319,1.857c-4.028,4.757 -9.08,6.667 -15.07,5.712c-5.99,-1.024 -13.108,-3.194 -21.285,-6.736c-1.823,-0.816 -3.819,-1.615 -5.902,-2.378c-3.889,-1.494 -6.268,-1.476 -7.136,-0.174c-0.66,1.007 -0.451,2.83 0.59,5.451" style="fill:#f9eed2;fill-rule:nonzero;"/><path d="M1284.96,2174.78c14.895,6.719 29.895,13.298 45,19.67c7.378,-10.503 14.652,-21.024 21.857,-31.597c6.111,-8.472 11.84,-12.865 17.118,-13.195c5.347,-0.33 9.375,0.018 12.136,1.181c2.882,1.146 5.364,3.108 7.482,5.903c4.115,5.312 4.288,12.5 0.591,21.51c-0.608,1.285 -1.216,2.57 -1.823,3.854c-3.959,8.299 -9.827,20.018 -17.778,34.931c-9.34,17.604 -19.028,34.583 -29.08,51.319c-10.052,16.684 -17.899,27.865 -23.333,33.681c-5.122,4.67 -10.018,6.649 -14.636,6.128c-4.653,-0.607 -8.159,-1.371 -10.59,-2.413c-2.986,-1.267 -5.677,-3.073 -8.073,-5.399c-4.219,-4.202 -5.556,-9.097 -4.062,-14.584c2.256,-6.892 5.607,-14.6 10.069,-23.038c4.427,-8.42 8.316,-15.746 11.632,-21.996c3.073,-5.747 6.128,-11.511 9.167,-17.257c-9.757,-3.559 -19.653,-7.222 -29.688,-11.025c-4.549,-1.684 -9.201,-3.454 -14.028,-5.329c-1.25,1.979 -2.725,4.323 -4.375,7.118c-3.923,6.718 -8.281,13.767 -13.107,21.111c-4.775,7.344 -9.08,12.847 -12.778,16.562c-4.792,4.098 -9.34,5.764 -13.629,5.104c-4.305,-0.659 -7.343,-1.493 -9.149,-2.309c-3.663,-1.753 -6.562,-4.566 -8.715,-8.333c-3.229,-5.59 -2.153,-12.969 3.125,-22.239c2.587,-4.306 5.173,-8.629 7.743,-12.952c5.972,-10.052 12.969,-21.858 20.955,-35.555c8.003,-13.646 15.451,-26.198 22.361,-37.57c6.944,-11.389 11.805,-18.646 14.722,-21.823c4.896,-4.305 9.236,-6.337 13.125,-5.833c3.854,0.434 6.823,1.198 8.785,2.066c2.673,1.215 5,3.003 6.996,5.347c3.299,3.924 4.184,8.646 2.552,14.201c-6.788,14.289 -13.645,28.559 -20.572,42.761" style="fill:#f9eed2;fill-rule:nonzero;"/><path d="M1531.18,2352.98c15.538,-3.368 29.15,-8.768 40.799,-15.972c11.632,-7.24 18.819,-13.681 21.667,-19.063c2.829,-5.417 4.513,-8.871 5.052,-10.417c2.777,-7.951 2.222,-15.937 -1.563,-23.975c-4.531,-9.653 -15.017,-18.594 -31.302,-27.049c-3.594,3.958 -7.014,9.896 -10.26,17.917c-3.264,7.986 -5.643,13.906 -7.136,17.847c-3.298,8.698 -6.406,17.847 -9.323,27.274c-4.253,13.733 -6.927,24.809 -7.934,33.438m-16.51,34.375c-12.049,0.364 -21.233,-0.59 -27.552,-2.518c-2.188,-0.642 -4.028,-1.527 -5.538,-2.552c-5.452,-3.698 -7.691,-8.142 -6.737,-13.489c2.223,-14.427 7.761,-33.577 16.285,-57.5c8.507,-23.941 15.938,-44.531 22.396,-61.771c1.163,-2.917 2.135,-5.538 2.917,-7.865c4.114,-10.086 11.666,-16.076 22.708,-18.298c11.024,-2.188 23.247,-1.302 36.806,2.569c0.277,0.087 0.555,0.156 0.833,0.226c25.312,7.517 43.698,17.101 55.121,29.323c11.389,12.222 16.997,23.35 16.493,33.298c-0.503,10 -1.614,17.622 -3.368,23.039c-2.916,8.854 -7.812,17.552 -14.843,25.989c-11.25,13.559 -26.789,25.139 -46.702,34.184c-19.913,9.184 -42.934,14.254 -68.819,15.365" style="fill:#f9eed2;fill-rule:nonzero;"/><path d="M1721.89,2408.54c3.264,1.094 6.84,1.979 10.694,2.864c5.729,1.233 10.799,2.761 15.174,4.584c6.076,3.316 8.455,7.396 7.083,12.239c-0.087,0.295 -0.173,0.591 -0.243,0.886c-2.153,6.093 -6.215,9.843 -12.257,11.076c-7.396,0.972 -14.41,0.833 -21.007,-0.434c-6.614,-1.285 -10.295,-2.066 -11.041,-2.187c-11.546,-2.292 -22.118,-5.243 -31.684,-8.49c-3.664,-1.58 -6.164,-3.628 -7.344,-6.233c-1.25,-2.673 -1.597,-5.034 -1.059,-7.552c15.555,-43.75 30.225,-87.743 43.993,-131.909c2.882,-8.664 6.944,-14.375 12.326,-16.98c5.33,-2.604 12.24,-3.159 20.677,-1.632c3.438,0.608 7.066,1.25 10.938,1.928c3.993,0.729 8.264,1.527 12.83,2.5c9.236,1.892 17.795,3.611 25.659,5.225c9.74,2.448 15.278,5.347 16.598,8.681c1.319,3.403 1.788,5.972 1.389,7.656c-0.608,2.604 -2.396,4.983 -5.4,7.101c-5.208,3.784 -13.385,5.26 -24.41,4.375c-4.236,-0.538 -8.559,-1.163 -12.986,-1.945c-2.257,-0.434 -4.531,-0.885 -6.753,-1.389c-3.09,-0.694 -6.354,-1.336 -9.809,-1.961c-3.785,14.305 -7.656,28.593 -11.615,42.882c5.955,1.128 12.639,2.656 20.07,4.479c7.413,1.875 13.732,4.149 18.906,6.805c5.191,2.709 7.587,5.886 7.135,9.601c-0.034,0.156 -0.069,0.295 -0.104,0.451c-1.892,7.396 -7.066,11.58 -15.451,12.518c-8.524,0.885 -17.83,0.729 -27.865,-0.521c-4.826,-0.382 -9.409,-0.712 -13.75,-1.042c-3.507,12.153 -7.066,24.288 -10.694,36.424" style="fill:#f9eed2;fill-rule:nonzero;"/><path d="M1886.36,2413.16c5.035,0.591 10.07,1.181 15.104,1.771c3.959,0.399 7.9,0.955 11.823,1.441c7.917,0.955 15.66,2.344 23.282,4.236c14.253,4.045 20.659,10.712 19.027,19.965c-1.823,9.185 -10.26,14.862 -25.191,16.962c-5.312,0.643 -10.52,0.591 -15.59,0.122c-1.771,-0.191 -3.524,-0.382 -5.278,-0.573c-6.267,-0.608 -12.465,-1.25 -18.559,-1.945c-8.177,-0.954 -16.319,-2.048 -24.409,-3.281c-27.622,-3.993 -38.646,-16.719 -33.525,-37.465c0.226,-0.955 0.469,-1.927 0.695,-2.865c3.42,-11.996 7.031,-23.889 10.833,-35.885c1.875,-5.972 3.785,-11.962 5.66,-18.073c2.448,-8.646 4.965,-17.413 7.5,-26.25c1.423,-5.33 2.847,-10.677 4.357,-15.92c4.532,-16.667 12.934,-24.149 25.469,-22.761c0.122,0 0.226,0.035 0.347,0.035c5.434,0.643 9.983,3.247 13.716,7.865c3.906,4.67 5.139,11.024 3.628,19.062c-1.719,8.976 -3.489,17.969 -5.278,26.962c-0.798,4.74 -1.666,9.462 -2.638,14.167c-3.525,17.5 -7.188,34.965 -10.973,52.43" style="fill:#f9eed2;fill-rule:nonzero;"/><path d="M2049.08,2452.68c-3.35,5.556 -7.205,8.594 -11.423,9.115c-4.306,0.556 -7.292,0.642 -8.993,0.625c-4.618,-0.278 -8.907,-1.736 -12.83,-4.479c-5.226,-3.733 -7.483,-9.722 -6.754,-18.004c2.414,-16.979 5.226,-37.239 8.316,-60.625c3.108,-23.437 5.66,-43.663 7.795,-60.659c1.441,-8.108 4.775,-13.594 9.966,-16.528c5.156,-2.952 10.069,-4.271 14.739,-4.097c1.354,0.034 2.674,0.191 4.028,0.468c6.146,1.302 10.278,4.653 12.361,10.295c1.25,5.643 1.198,17.448 -0.243,35.348c-1.441,17.899 -3.125,34.218 -5.087,49.045c-0.816,6.319 -1.718,12.604 -2.725,18.889c-3.282,21.128 -6.424,34.705 -9.15,40.607" style="fill:#f9eed2;fill-rule:nonzero;"/><path d="M2237.56,2328.47c4.201,-6.667 8.264,-10.434 12.291,-11.285c3.976,-0.816 6.684,-1.354 8.073,-1.389c4.566,-0.295 8.629,0.816 12.275,3.195c4.236,2.726 6.302,7.014 6.18,12.656c-0.017,0.851 -0.121,1.736 -0.26,2.709c-3.368,17.413 -10.747,36.944 -22.483,58.454c-11.753,21.441 -24.74,39.48 -38.785,54.167c-10.972,11.163 -21.354,16.84 -30.85,16.962c-0.695,0.017 -1.407,-0 -2.205,-0.139c-10.07,-0.903 -18.872,-7.743 -26.337,-20.417c-5.694,-10.295 -10.469,-22.621 -14.323,-36.875c-3.854,-14.305 -7.292,-28.385 -10.295,-42.361c-1.979,-8.958 -3.889,-17.239 -5.695,-24.705c-0.364,-1.788 -0.434,-3.507 -0.295,-5.156c0.4,-4.496 2.657,-8.038 6.789,-10.885c4.93,-3.334 10.364,-5.174 16.406,-5.157c0.746,-0.017 1.545,0.087 2.43,0.139c6.841,0.538 11.736,3.594 14.74,9.549c2.413,6.441 5.66,16.354 9.757,29.653c4.01,13.368 7.292,24.132 9.774,32.326c0.556,1.875 1.25,4.132 2.327,6.823c0.989,2.691 2.239,5.104 3.628,7.292c1.389,2.118 2.865,3.298 4.427,3.489c1.875,-0.347 5.208,-4.705 10.052,-13.021c4.792,-8.333 9.844,-17.916 15.052,-28.767c5.261,-10.833 9.618,-20.208 13.125,-27.951c2.084,-4.532 3.49,-7.622 4.202,-9.306" style="fill:#f9eed2;fill-rule:nonzero;"/><path d="M2374.43,2438.83c3.663,0.087 7.552,-0.069 11.753,-0.417c6.215,-0.573 11.823,-0.573 16.84,-0.069c7.171,1.371 10.782,4.67 10.782,9.878l-0,0.938c-0.4,6.632 -3.455,11.476 -9.236,14.566c-7.275,3.264 -14.462,5.173 -21.563,5.92c-7.118,0.694 -11.094,1.128 -11.91,1.181c-12.465,1.197 -24.045,1.597 -34.791,1.197c-4.184,-0.364 -7.344,-1.701 -9.323,-3.906c-2.049,-2.239 -3.125,-4.583 -3.299,-7.1c3.021,-47.622 5.104,-95.226 6.25,-142.796c0.4,-9.427 2.917,-16.232 7.656,-20.382c4.688,-4.236 11.598,-6.77 20.695,-7.899c3.68,-0.486 7.604,-0.937 11.771,-1.406c4.323,-0.521 8.941,-0.955 13.906,-1.458c10,-0.99 19.288,-1.893 27.83,-2.691c10.694,-0.556 17.222,0.555 19.548,3.489c2.327,2.899 3.542,5.243 3.629,7.066c0.156,2.761 -0.99,5.608 -3.455,8.629c-4.271,5.26 -12.205,9.305 -23.75,11.753c-4.496,0.781 -9.132,1.476 -13.889,2.049c-2.448,0.312 -4.913,0.486 -7.326,0.677c-3.351,0.295 -6.875,0.659 -10.608,1.076c0.295,15.191 0.504,30.417 0.625,45.625c6.406,-0.712 13.698,-1.267 21.84,-1.667c8.143,-0.416 15.226,-0.121 21.337,0.955c6.111,1.059 9.479,3.49 10.104,7.223c0,0.156 0.018,0.312 0.018,0.468c0.225,7.848 -3.854,13.525 -12.17,16.997c-8.473,3.472 -18.021,6.128 -28.646,7.969c-5.052,1.041 -9.827,2.1 -14.358,3.125c-0.017,12.986 -0.104,25.989 -0.26,39.01" style="fill:#f9eed2;fill-rule:nonzero;"/><path d="M2538.42,2314.71c6.667,-5.868 9.931,-9.826 9.879,-11.892c-0.087,-1.007 -0.174,-2.014 -0.261,-3.004c-0.364,-3.941 -4.218,-6.354 -11.527,-7.361c0.659,7.431 1.302,14.827 1.909,22.257m5.486,67.743c0.157,2.587 0.417,5.191 0.73,7.934c0.416,2.292 0.694,4.618 0.85,6.962c0.382,6.129 -0.052,12.309 -1.371,18.455c-1.719,8.246 -8.177,14.878 -19.427,19.896c-1.754,0.659 -3.403,1.041 -4.896,1.284c-5.052,0.851 -9.254,-0.121 -12.518,-2.795c-4.253,-3.489 -7.274,-8.159 -9.079,-13.871c-1.806,-5.781 -2.848,-10.677 -3.16,-14.827c-2.396,-34.062 -4.722,-68.159 -7.031,-102.343c-0.261,-3.646 -0.313,-7.865 -0.174,-12.275c0.139,-4.514 0.972,-8.472 2.517,-12.222c1.528,-3.733 4.219,-6.389 8.091,-8.142c12.187,-4.618 23.211,-8.056 33.159,-9.896c9.427,-1.806 17.934,-2.292 25.608,-1.493c15.573,1.441 25.504,5.451 29.601,12.153c4.149,6.736 6.458,12.326 6.979,16.892c0.746,6.753 -0.608,14.462 -4.167,22.865c-3.159,6.857 -7.17,13.819 -12.014,20.972c-2.239,3.507 -4.479,7.083 -6.701,10.764c26.441,12.587 51.875,26.389 76.233,41.58c7.013,4.774 10.85,10.086 11.458,15.833c0.121,1.337 0.087,2.517 -0.035,3.785c-1.094,7.239 -3.993,11.823 -8.698,13.732c-4.652,1.875 -7.604,2.986 -8.837,3.229c-7.725,1.737 -16.996,0.139 -27.708,-4.67c-6.25,-3.09 -12.187,-6.18 -17.812,-9.201c-15.643,-8.681 -32.848,-16.788 -51.598,-24.601" style="fill:#f9eed2;fill-rule:nonzero;"/><path d="M2753.35,2288.94c-1.84,1.389 -3.593,2.83 -5.156,3.976c-2.76,2.014 -5.295,3.802 -7.674,5.503c-10.85,7.483 -20.781,12.344 -29.67,14.723c-5.347,1.423 -10.295,1.927 -14.895,1.58c-12.362,-0.851 -22.657,-5.73 -30.886,-14.41c-5.538,-5.747 -9.167,-11.979 -10.937,-18.681c-1.789,-6.614 -2.917,-11.788 -3.421,-15.399c-0.833,-6.007 -0.937,-11.997 -0.312,-17.847c0.92,-9.323 3.941,-16.059 9.115,-20.382c3.871,-3.334 7.534,-5.434 10.989,-6.302c2.917,-0.782 5.712,-0.66 8.403,0.243c5.781,1.996 9.653,6.84 11.562,14.462c0.296,1.406 0.591,2.829 0.886,4.218c0.173,1.511 0.364,3.004 0.538,4.497c0.069,1.51 0.26,3.021 0.503,4.496c0.625,3.907 1.58,7.674 2.969,11.268c3.281,7.014 6.528,10.503 9.775,10.382c3.246,-0.122 5.381,-0.382 6.423,-0.677c4.705,-1.233 9.722,-5.018 14.965,-11.111c6.754,-8.646 11.945,-17.205 15.591,-25.643c1.979,-4.08 3.663,-7.361 5.156,-9.687c5.451,-7.969 9.878,-12.552 13.403,-13.75c3.455,-1.077 5.312,-1.841 5.434,-1.823c6.545,-2.049 12.795,-0.712 18.802,3.854c6.146,4.809 10.868,13.785 14.045,26.996c1.267,6.355 2.639,16.702 4.045,31.042c1.372,14.41 2.448,28.594 3.16,42.691c0.712,14.08 0.868,24.01 0.555,29.826c-1.128,9.48 -4.166,16.198 -9.045,20.105c-4.93,3.958 -9.201,6.336 -12.899,7.448c-3.038,0.85 -6.076,1.197 -9.115,0.937c-6.909,-0.417 -11.875,-4.167 -14.878,-11.076c-2.24,-23.889 -4.722,-47.709 -7.431,-71.459" style="fill:#f9eed2;fill-rule:nonzero;"/><path d="M3017.07,2205.37c3.004,13.454 2.24,22.639 -2.187,27.413c-4.427,4.791 -8.299,7.795 -11.65,9.184c-3.611,1.441 -7.534,1.996 -11.788,1.51c-7.969,-1.076 -13.611,-5.989 -17.014,-14.757c-11.493,-37.326 -23.437,-74.461 -35.833,-111.458c-1.337,-11.51 0.243,-19.826 4.809,-24.722c4.549,-4.966 8.559,-8.177 12.049,-9.67c3.611,-1.546 7.534,-2.136 11.753,-1.702c8.021,0.851 14.201,6.875 18.368,18.108c1.632,5.26 3.299,10.625 5.035,15.833c5.712,17.847 11.18,35.816 16.371,53.906c3.49,12.119 6.841,24.254 10.087,36.355m18.212,75.659c0.677,3.247 0.833,7.396 0.503,12.587c-0.347,5.174 -1.805,9.896 -4.323,14.115c-2.517,4.201 -6.25,7.326 -11.197,9.305c-1.112,0.434 -2.309,0.851 -3.542,1.233c-3.733,0.816 -7.656,1.128 -11.754,0.92c-4.114,-0.139 -6.944,-1.094 -8.524,-2.621c-3.316,-4.584 -5.746,-8.837 -7.396,-12.796c-1.58,-3.993 -2.569,-6.666 -2.916,-8.142c-1.146,-4.913 -0.973,-9.705 0.486,-14.601c1.909,-6.284 7.795,-11.527 17.708,-15.746c10.764,-3.854 18.212,-3.941 22.413,0.052c4.184,4.01 6.858,8.229 8.021,12.778c0.243,0.955 0.434,1.927 0.521,2.916" style="fill:#f9eed2;fill-rule:nonzero;"/><path d="M1020.37,861.481c-1.007,0.764 -1.18,1.545 -0.781,2.309c-5.174,2.153 -3.49,-6.84 0.781,-2.309m24.618,16.563c1.268,1.094 2.691,-5.729 5.643,-5.087c1.18,4.323 3.159,8.906 8.281,12.639c-5.174,7.708 -11.754,-4.722 -17.101,1.128c-3.403,-3.767 -5.017,-5.607 -9.392,-3.889c-5.886,-8.923 -11.563,-5.972 -15.122,-13.663c4.931,-2.326 1.684,-3.854 6.042,-7.691c6.58,5.816 19.358,9.445 21.649,16.563m450.261,192.847c2.951,-0.747 9.218,-2.448 12.639,-3.976c11.423,-4.791 25.208,-12.222 38.854,-17.135c6.736,-2.587 13.42,-4.636 19.34,-6.146c5.833,-1.649 11.076,-2.483 15.312,-2.049c4.271,-1.805 2.761,-3.975 6.997,-5.763c5.191,2.725 22.083,3.038 31.753,-4.15c3.212,-2.604 4.566,-12.587 10.643,-19.132c8.923,-9.791 24.878,-10.555 32.795,-19.843c3.542,-4.323 3.403,-12.934 6.424,-17.917c3.958,-6.545 11.614,-14.618 19.496,-22.118c7.639,-7.709 15.174,-15.209 20.035,-19.254c7.552,-6.458 13.923,-6.18 17.812,-12.691c3.594,-5.816 1.875,-13.402 -5.208,-17.777c-1.91,-13.195 6.563,-27.362 16.563,-42.24c9.409,-15.156 19.739,-31.615 22.864,-46.007c7.622,-7.986 10.538,-18.142 12.969,-28.142c2.205,-10.139 4.271,-20.035 7.795,-29.393c1.493,-3.715 5.087,-7.586 6.285,-11.58c1.996,-6.614 1.371,-16.406 2.621,-25.138c2.188,-14.948 4.705,-27.865 4.566,-40.382c14.757,-16.736 3.698,-32.743 5.799,-48.195c0.781,-5.868 4.774,-11.406 5.364,-18.09c0.66,-5.642 -2.691,-11.163 -2.274,-17.292c0.295,-6.076 3.767,-12.413 3.715,-18.368c-0.052,-4.427 -2.187,-7.864 -1.979,-11.458c0.226,-4.722 2.934,-7.83 2.153,-12.83c-0.92,-5.26 -5.486,-10.243 -6.441,-15.451c-1.736,-9.532 -2.083,-19.566 -3.299,-29.375c-1.059,-9.809 -4.357,-19.289 -9.878,-27.396c0.121,-16.736 -3.924,-31.719 -9.948,-46.754c-5.694,-15.191 -11.094,-30.955 -15.729,-50.139c-5.781,-8.159 -9.965,-13.993 -12.083,-24.166c-1.667,-1.719 -3.837,-0.66 -5.261,-3.872c-3.229,-9.6 -9.427,-18.09 -15.608,-26.493c-3.09,-4.201 -6.18,-8.385 -8.923,-12.778c-2.865,-4.305 -5.677,-8.628 -7.674,-13.472c-1.458,0.087 -2.899,0.018 -4.271,-0.677c-10.642,-26.823 -33.576,-55.573 -53.038,-67.674c-4.01,-7.968 -10.764,-14.513 -18.368,-20.763c-3.837,-3.039 -7.795,-6.181 -11.823,-9.375c-4.149,-3.021 -8.455,-5.99 -12.517,-9.358c-7.639,-6.302 -13.386,-14.809 -21.389,-19.74c-7.778,-4.826 -16.632,-10.538 -25.087,-16.701c-8.611,-5.903 -16.788,-12.378 -24.93,-15.885c-4.792,-2.188 -10.747,-1.962 -15.434,-3.959c-8.507,-3.559 -15.747,-11.111 -25.261,-14.08c-9.323,-2.448 -18.663,-5.52 -27.951,-8.906c-9.288,-3.42 -18.472,-7.257 -27.9,-10.156c-18.645,-6.215 -36.562,-13.247 -52.916,-16.129c-10.052,-2.118 -19.271,-0.416 -30.59,-1.319c-18.785,-0.243 -37.674,-8.385 -56.702,-7.865c-4.757,0.296 -9.427,2.379 -13.767,2.813c-11.215,1.146 -21.962,-1.129 -33.837,-0.452c-14.462,1.476 -28.802,4.497 -42.813,6.997c-14.01,2.76 -27.638,6.215 -41.597,6.389c-4.062,1.788 -8.42,3.385 -12.916,5.139c-4.445,1.944 -9.098,3.837 -13.907,5.712c-9.6,3.75 -19.791,7.378 -30.156,10.989c-10.121,4.288 -20.399,8.663 -30.469,12.934c-5,2.205 -9.93,4.393 -14.774,6.545c-4.635,2.57 -9.167,5.07 -13.559,7.5c-5.174,9.462 -15.035,9.08 -22.812,14.254c-11.754,8.212 -23.75,19.531 -36.407,29.774c-12.326,10.712 -24.271,21.858 -37.17,29.583c-42.917,45.278 -80.121,96.719 -105.972,153.768c-25.903,56.771 -39.809,119.253 -37.24,179.045c-5.086,9.028 -2.031,23.767 0.938,31.823c-2.813,1.771 -2.639,7.239 -3.472,11.423c3.368,7.362 4.774,15.573 5.191,24.41c0.503,8.82 0.451,18.264 2.343,27.431c7.379,3.663 4.584,15.486 11.094,21.406c-3.194,3.681 -4.045,-3.351 -5.104,2.101c3.715,2.361 6.632,6.632 9.062,11.979c2.414,5.347 4.237,11.788 6.667,18.281c4.479,13.056 8.281,27.188 12.691,35.139c-0.365,-1.198 1.337,-2.083 2.066,-0.694c-1.337,5.121 5.365,4.809 7.031,9.305c13.282,29.774 35.521,44.097 52.917,64.045c0.295,3.663 0.764,14.097 6.389,14.063c-2.066,-4.41 -5.747,-9.254 -1.094,-11.754c2.934,7.483 10.747,14.809 17.066,16.615c5.59,7.778 7.101,12.917 15.417,17.257c1.267,1.666 2.968,-5.018 5.677,-1.493c6.423,11.962 13.802,14.357 20.382,24.357c6.041,-0.954 16.753,7.674 17.951,12.605c4.184,1.093 -0.121,-6.007 3.038,-4.636c8.316,6.597 17.622,10.573 22.795,19.479c3.351,-0.277 6.546,-1.753 10.018,0.122c2.257,1.389 -3.594,3.385 0.434,4.653c4.583,0.086 0.816,-5.747 3.819,-8.108c5.035,1.84 5.851,-0.885 9.601,-1.667c3.924,6.493 11.545,4.184 17.708,6.233c6.389,2.066 11.354,7.621 17.361,9.74c5.382,1.441 9.254,-0.73 14.445,2.204c4.219,2.379 5.972,7.743 10.92,10.07c2.917,0.573 0.156,-4.497 3.837,-2.761c4.219,2.084 8.646,3.733 13.107,5.087c4.41,1.441 8.785,2.761 13.073,3.854c8.542,2.223 16.702,3.542 24.358,2.118c-11.458,1.25 -19.635,-3.211 -27.674,-6.649c-8.003,-3.646 -15.607,-7.031 -25.382,-8.368c-0.191,-5.608 -8.767,-1.337 -8.055,-8.42c-2.465,1.84 0.364,5.59 -3.09,3.212c-1.025,-0.99 -0.886,-2.309 -2.952,-2.986c5.156,-3.75 1.736,-5.625 2.466,-9.809c-6.997,-3.282 -12.761,-6.997 -18.75,-9.948c-5.903,-3.108 -11.615,-6.111 -17.205,-9.844c-2.813,-0.399 -0.591,3.698 -3.438,2.743c-4.601,-2.5 -7.135,-5.677 -12.864,-8.333c1.284,-4.497 -0.469,-8.664 4.774,-11.598c6.788,5.782 15.903,11.25 26.337,15.191c10.312,4.098 20.347,8.993 29.878,13.143c5.59,2.725 9.34,9.739 15.643,5.382c-9.132,-2.57 -11.98,-12.726 -18.455,-17.032c-7.969,-6.25 -20.782,-6.84 -28.351,-13.697c-2.135,-1.893 -1.823,-4.254 -3.802,-5.851c-1.528,-1.25 -6.111,-0.903 -7.743,-2.5c-1.754,-1.736 -0.399,-3.629 -2.17,-4.757c-3.594,-2.344 -8.473,-1.736 -12.118,-4.913c-6.181,-5.226 -8.473,-14.15 -15.73,-19.202c0.122,-1.198 1.112,-2.482 2.327,-3.385c65.903,67.43 159.201,107.483 260.781,102.621c1.042,-0.052 2.066,-0.173 3.108,-0.225c1.354,12.031 2.465,23.264 1.805,34.184c8.056,11.545 7.5,25.903 14.584,36.875c4.444,6.805 12.864,12.812 18.906,19.132c6.892,7.274 14.184,12.569 20.59,19.305c1.25,8.021 9.497,7.969 12.344,14.323c10.799,2.969 19.913,8.16 31.458,10.66c1.65,2.448 4.514,3.403 5.573,6.493c24.965,6.771 53.906,16.997 86.563,8.125" style="fill:#2d3d36;fill-rule:nonzero;"/><text x="1002.06px" y="830.952px" style="font-family:'LucidaGrande', 'Lucida Grande', sans-serif;font-weight:500;font-size:1041.67px;fill:#a09b7e;">4<tspan x="1522.89px " y="830.952px ">.</tspan></text></g></svg>