<?xml version="1.0" encoding="UTF-8" standalone="no"?><!DOCTYPE svg PUBLIC "-//W3C//DTD SVG 1.1//EN" "http://www.w3.org/Graphics/SVG/1.1/DTD/svg11.dtd"><svg width="100%" height="100%" viewBox="0 0 3334 2500" version="1.1" xmlns="http://www.w3.org/2000/svg" xmlns:xlink="http://www.w3.org/1999/xlink" xml:space="preserve" xmlns:serif="http://www.serif.com/" style="fill-rule:evenodd;clip-rule:evenodd;stroke-linejoin:round;stroke-miterlimit:2;"><g><path d="M1627.94,1020.75c23.056,0 46.111,-0.174 69.167,0.052c19.861,0.191 29.097,9.184 29.514,28.959c0.729,34.739 1.302,69.479 1.528,104.236c0.121,20.798 -10.886,32.448 -31.459,32.395c-46.493,-0.138 -93.003,-0.677 -139.496,-1.736c-20.66,-0.468 -29.514,-10.139 -29.636,-30.59c-0.191,-32.083 -0.208,-64.167 0.157,-96.25c0.329,-28.125 9.843,-37.118 37.847,-37.066c20.781,0.035 41.58,0 62.378,0" style="fill:#2d3d36;fill-rule:nonzero;"/><path d="M1905.46,1236.51c23.056,-0 46.111,-0.174 69.167,0.052c18.229,0.191 28.576,10.33 28.715,28.507c0.26,35.712 0.295,71.406 0.052,107.118c-0.121,17.934 -10.816,28.455 -28.837,28.524c-46.562,0.191 -93.125,0.191 -139.687,0c-18.698,-0.087 -29.74,-10.712 -29.896,-29.288c-0.33,-35.243 -0.295,-70.503 0.122,-105.747c0.225,-18.906 10.833,-28.975 29.843,-29.149c23.507,-0.226 47.014,-0.052 70.521,-0.052l0,0.035Z" style="fill:#2d3d36;fill-rule:nonzero;"/><path d="M1075.46,1236.49c23.056,-0.017 46.111,-0.191 69.15,0.035c19.097,0.208 29.722,10.243 29.93,29.08c0.417,35.243 0.469,70.486 0.104,105.729c-0.191,18.628 -11.232,29.34 -29.878,29.409c-46.545,0.226 -93.108,0.191 -139.67,-0.052c-18.073,-0.086 -28.768,-10.59 -28.907,-28.507c-0.277,-36.145 -0.26,-72.291 0.07,-108.437c0.156,-16.424 10.799,-26.91 27.344,-27.153c23.941,-0.347 47.899,-0.087 71.857,-0.104" style="fill:#2d3d36;fill-rule:nonzero;"/><path d="M1904.74,1020.7c22.187,-0 44.358,-0.139 66.545,0.034c23.368,0.191 32.135,8.907 32.153,31.962c0.052,33.472 -0.07,66.962 -0.243,100.434c-0.122,23.247 -9.913,33.472 -32.969,33.334c-40.208,-0.243 -80.417,-1.077 -120.625,-1.546c-4.444,-0.052 -8.924,0.4 -13.333,0.99c-16.893,2.274 -31.233,-10.382 -31.389,-27.274c-0.313,-33.438 -0.764,-66.875 -1.493,-100.313c-0.591,-25.903 10.208,-37.448 36.18,-37.552c21.719,-0.087 43.455,-0.017 65.174,-0.017l-0,-0.052Z" style="fill:#2d3d36;fill-rule:nonzero;"/><path d="M1352.02,1452.1c22.187,-0 44.375,-0.139 66.545,0.034c21.84,0.174 31.823,9.705 31.997,31.146c0.277,34.844 0.295,69.705 0.017,104.549c-0.122,17.83 -9.757,28.35 -27.465,28.541c-47.518,0.486 -95.07,0.521 -142.587,-0.017c-18.177,-0.208 -28.299,-11.146 -28.472,-29.375c-0.348,-34.844 -0.382,-69.705 -0.052,-104.549c0.19,-19.323 11.18,-29.982 30.746,-30.243c23.09,-0.33 46.181,-0.086 69.271,-0.086" style="fill:#2d3d36;fill-rule:nonzero;"/><path d="M1628.21,1616.64c-22.604,-0.017 -45.208,0.278 -67.795,-0.104c-22.274,-0.382 -31.371,-9.584 -31.493,-31.441c-0.191,-33.889 -0.226,-67.778 -0.017,-101.667c0.139,-21.285 10.278,-31.232 31.857,-31.319c44.74,-0.174 89.497,-0.174 134.237,-0.018c22.187,0.07 32.43,10.243 32.586,32.379c0.243,33.437 0.226,66.875 0.052,100.312c-0.104,21.198 -10.086,31.389 -31.631,31.771c-22.587,0.417 -45.191,0.104 -67.796,0.087" style="fill:#2d3d36;fill-rule:nonzero;"/><path d="M1074.49,1616.62c-22.604,0 -45.208,0.243 -67.795,-0.087c-21.059,-0.312 -30.486,-9.982 -30.556,-30.972c-0.139,-34.34 -0.139,-68.68 0.052,-103.003c0.104,-19.775 10.139,-30.295 29.896,-30.417c46.094,-0.295 92.205,-0.278 138.299,0.035c19.514,0.121 30.104,10.902 30.277,30.486c0.313,34.34 0.313,68.68 0.035,103.003c-0.173,20.625 -10.295,30.625 -31.059,30.903c-23.038,0.295 -46.094,0.07 -69.149,0.052" style="fill:#2d3d36;fill-rule:nonzero;"/><path d="M1905.48,1452.06c22.136,0 44.289,-0.173 66.424,0.052c21.528,0.209 31.51,10.226 31.58,31.528c0.087,33.889 0.104,67.761 -0.035,101.65c-0.104,21.545 -9.757,31.25 -31.632,31.336c-44.739,0.174 -89.479,0.122 -134.218,-0.104c-23.108,-0.104 -32.674,-10 -32.744,-33.298c-0.104,-32.535 -0.104,-65.053 0.035,-97.57c0.087,-23.542 10.174,-33.42 34.167,-33.559c22.135,-0.139 44.288,-0.035 66.423,-0.035" style="fill:#2d3d36;fill-rule:nonzero;"/><path d="M558.008,2136.57c1.563,1.753 3.021,3.42 4.428,5.034c13.802,15.053 26.614,30.087 38.506,45.348c11.858,15.225 19.948,30.312 24.254,45.555c1.076,5.104 1.51,9.636 1.25,13.594c-0.625,9.444 -4.965,16.024 -13.125,19.653c-11.597,5.33 -22.726,6.319 -33.247,2.882c-10.52,-3.351 -16.579,-5.486 -18.142,-6.077c-17.639,-6.875 -35.347,-18.593 -52.726,-35.139c-7.829,-7.899 -12.378,-14.184 -13.68,-18.732c-1.32,-4.549 -1.858,-7.847 -1.649,-9.792c0.312,-2.743 1.545,-4.792 3.819,-6.232c3.767,-2.344 10.121,-1.685 19.01,2.031c11.268,8.333 22.605,16.545 33.993,24.687c2.5,1.337 4.775,2.361 6.771,3.195c4.254,1.666 7.639,2.309 10.174,1.909c1.632,-0.329 2.535,-1.458 2.708,-3.298c0.209,-2.57 -0.92,-6.563 -3.368,-11.945c-2.847,-5.625 -7.066,-11.753 -12.604,-18.246c-5.59,-6.597 -11.58,-13.281 -18.003,-20.104c-8.004,-8.455 -15.417,-17.032 -22.171,-25.591c-6.805,-8.593 -11.232,-15.937 -13.35,-22.1c-2.136,-6.111 -2.917,-11.146 -2.379,-15.191c0.434,-3.264 1.597,-6.511 3.455,-9.601c6.302,-8.75 15.608,-13.42 27.882,-14.201c12.257,-0.799 22.083,0.139 29.549,2.812c7.448,2.587 12.274,4.41 14.461,5.295c9.931,4.028 18.299,9.045 25.157,15.052c7.5,6.598 10.92,13.455 10.156,20.539c-0.07,0.746 -0.226,1.475 -0.451,2.204c-1.737,5.851 -6.077,8.49 -12.934,7.917c-6.91,-0.625 -15.625,-2.552 -26.181,-6.007c-2.344,-0.712 -4.879,-1.441 -7.517,-2.222c-4.896,-1.354 -7.431,-1.198 -7.639,0.451c-0.122,1.216 1.076,3.316 3.593,6.32" style="fill:#f9eed2;fill-rule:nonzero;"/><path d="M743.036,2295.36c3.837,1.632 7.969,3.178 12.396,4.601c6.58,2.101 12.483,4.445 17.76,7.101c7.535,4.427 11.268,9.201 11.216,14.34c-0,0.295 -0.018,0.625 -0.018,0.938c-0.503,6.354 -3.75,9.861 -9.843,10.468c-7.657,0.139 -15.243,-0.868 -22.709,-3.177c-7.517,-2.274 -11.684,-3.646 -12.569,-3.871c-13.09,-4.045 -25.347,-8.577 -36.684,-13.559c-4.427,-2.222 -7.743,-4.844 -9.879,-7.917c-2.152,-3.125 -3.281,-5.972 -3.489,-8.576c3.212,-46.632 7.239,-92.934 12.083,-138.924c1.129,-8.993 4.41,-14.496 9.809,-16.371c5.382,-1.98 12.986,-1.25 22.795,1.857c3.941,1.215 8.177,2.552 12.674,4.011c4.635,1.527 9.583,3.125 14.896,4.965c10.746,3.646 20.677,6.892 29.774,10.069c11.424,4.289 18.177,8.316 20.365,12.136c2.17,3.819 3.229,6.614 3.159,8.385c-0.121,2.656 -1.58,4.913 -4.409,6.702c-5.018,3.142 -13.733,3.368 -26.164,0.659c-4.826,-1.267 -9.774,-2.708 -14.861,-4.271c-2.586,-0.816 -5.225,-1.666 -7.83,-2.621c-3.576,-1.215 -7.361,-2.465 -11.336,-3.75c-0.868,14.861 -1.65,29.774 -2.344,44.687c6.858,2.171 14.583,4.827 23.212,8.039c8.628,3.125 16.111,6.614 22.5,10.295c6.337,3.715 9.791,7.534 10.26,11.423c-0.017,0.157 -0.017,0.313 -0.017,0.469c-0.191,7.656 -4.705,11.424 -13.646,11.25c-9.063,-0.243 -19.254,-1.805 -30.59,-4.653c-5.348,-1.145 -10.469,-2.152 -15.278,-3.159c-0.469,12.795 -0.886,25.607 -1.233,38.454" style="fill:#f9eed2;fill-rule:nonzero;"/><path d="M922.349,2323c5.607,1.302 11.215,2.621 16.823,3.906c4.375,1.024 8.784,2.031 13.159,3.142c8.802,2.084 17.535,4.584 26.233,7.587c16.389,6.215 24.913,13.872 25.59,23.42c0.365,9.392 -7.1,14.358 -22.552,14.618c-5.503,-0.017 -11.094,-0.642 -16.701,-1.875c-1.945,-0.416 -3.872,-0.816 -5.799,-1.232c-6.875,-1.389 -13.715,-2.865 -20.434,-4.428c-9.08,-2.031 -18.107,-4.305 -27.17,-6.631c-30.746,-7.744 -46.354,-22.917 -46.493,-44.514c-0.017,-0.99 -0.017,-1.962 -0.035,-2.952c0.469,-12.378 1.32,-24.687 2.466,-36.875c0.59,-6.059 1.197,-12.239 1.805,-18.437c0.59,-8.872 1.354,-17.778 2.153,-26.736c0.347,-5.417 0.798,-10.851 1.302,-16.181c1.441,-16.962 9.323,-23.437 23.472,-19.913c0.139,0.052 0.278,0.087 0.417,0.139c6.128,1.545 11.684,5.052 16.684,10.416c5.295,5.539 7.934,12.379 7.899,20.608c-0.017,9.167 -0.017,18.316 0.018,27.517c0.191,4.862 0.295,9.74 0.312,14.532c0.156,17.934 0.434,35.885 0.851,53.889" style="fill:#f9eed2;fill-rule:nonzero;"/><path d="M1121.1,2382.91c3.871,1.007 8.021,1.84 12.43,2.656c6.528,1.111 12.483,2.413 17.848,4.271c7.708,3.281 11.875,7.396 12.413,12.517c0.035,0.313 0.069,0.608 0.104,0.92c0.278,6.372 -2.448,10.417 -8.177,11.98c-7.309,1.354 -14.705,1.493 -22.17,0.347c-7.431,-1.077 -11.597,-1.702 -12.465,-1.858c-13.056,-1.979 -25.296,-4.514 -36.737,-7.726c-4.531,-1.51 -8.003,-3.611 -10.399,-6.319c-2.43,-2.743 -3.871,-5.382 -4.34,-7.934c-2.379,-46.823 -3.906,-93.42 -4.583,-139.809c0.017,-9.219 2.517,-15.104 7.482,-17.813c4.931,-2.795 12.274,-3.333 22.031,-1.753c3.907,0.59 8.108,1.215 12.587,1.944c4.584,0.799 9.514,1.615 14.809,2.553c10.695,1.892 20.556,3.663 29.636,5.295c11.406,2.534 18.35,5.347 20.885,8.836c2.552,3.507 3.889,6.059 4.011,7.848c0.19,2.725 -0.938,5.156 -3.455,7.361c-4.427,3.854 -12.691,5.521 -24.914,4.757c-4.756,-0.469 -9.687,-1.129 -14.739,-1.875c-2.587,-0.417 -5.174,-0.834 -7.795,-1.389c-3.559,-0.66 -7.309,-1.302 -11.285,-1.927c0.903,14.896 1.892,29.826 2.969,44.774c6.805,1.024 14.514,2.517 23.142,4.306c8.629,1.823 16.198,4.045 22.743,6.701c6.545,2.708 10.261,5.92 11.181,9.774c0.017,0.157 0.017,0.295 0.034,0.434c0.712,7.691 -3.177,12.153 -11.736,13.334c-8.732,1.163 -18.663,1.215 -29.826,0.139c-5.26,-0.296 -10.26,-0.504 -14.983,-0.747c1.042,12.795 2.136,25.573 3.299,38.403" style="fill:#f9eed2;fill-rule:nonzero;"/><path d="M1336.98,2387.88c1.059,0.069 2.101,0.138 3.16,0.208c4.722,0.347 9.375,0.955 13.958,1.962c5.434,1.267 8.993,3.975 10.677,8.142c0.313,1.181 0.573,2.257 0.729,3.264c0.66,3.802 0.139,7.309 -1.527,10.521c-2.118,3.958 -6.32,6.875 -12.691,8.75c-9.879,2.569 -21.146,3.385 -33.716,2.465c-2.691,-0.226 -5.382,-0.417 -8.072,-0.764c-15.973,-2.066 -30.799,-7.326 -44.358,-15.607c-13.524,-8.334 -22.726,-20.174 -27.517,-35.452c-1.303,-5.035 -2.205,-10.035 -2.796,-14.878c-4.114,-35.087 12.084,-61.91 46.65,-81.927c10.312,-5.573 18.298,-8.316 24.062,-7.934c5.729,0.277 8.872,0.451 9.41,0.486c10.33,0.816 19.722,3.316 28.264,7.517c8.802,4.358 14.566,8.524 17.274,12.622c2.691,4.079 4.219,7.187 4.531,9.357c0.504,3.49 -0.59,6.823 -3.402,9.913c-3.959,4.028 -7.778,5.973 -11.424,5.747c-3.819,-0.26 -7.639,-1.215 -11.528,-3.073c-4.166,-2.014 -8.854,-3.125 -13.993,-3.576c-0.278,-0.018 -0.555,-0.018 -0.833,-0.035c-5.417,-0.313 -11.615,2.535 -18.681,8.333c-12.812,11.719 -19.757,25.538 -20.625,41.962c-0.139,2.986 -0.052,5.625 0.278,8.16c0.712,5.243 2.569,9.479 5.642,12.448c4.618,4.444 10.261,7.309 16.806,8.541c6.632,1.198 13.125,2.014 19.531,2.431c2.361,0.174 4.809,0.312 7.309,0.364c0.972,0.053 1.927,0.087 2.882,0.053" style="fill:#f9eed2;fill-rule:nonzero;"/><path d="M1535.27,2298.7c8.021,37.309 16.684,74.687 25.972,112.066c0.191,0.868 0.4,1.736 0.591,2.604c1.319,5.538 1.545,11.024 0.625,16.649c-1.112,6.268 -6.667,9.913 -16.684,10.799c-9.653,-0.174 -16.91,-3.247 -21.719,-8.941c-4.792,-5.712 -7.847,-11.719 -9.202,-17.882c-9.027,-36.927 -17.43,-73.785 -25.208,-110.59c-3.507,0.382 -7.118,0.798 -10.746,1.302c-9.08,1.423 -17.778,2.118 -26.077,1.944c-2.153,-0.069 -4.323,-0.156 -6.476,-0.295c-10.295,-0.747 -17.482,-5.295 -21.493,-13.576c-0.468,-1.233 -0.781,-2.396 -0.972,-3.542c-0.92,-5.729 1.424,-10.104 7.031,-13.125c6.58,-3.576 13.733,-5.642 21.58,-6.215c37.969,-2.9 75.573,-6.719 112.813,-11.441c10.573,0.521 17.882,2.43 21.944,5.764c4.097,3.385 6.441,6.475 7.066,9.323c0.417,1.909 0.313,3.923 -0.295,5.902c-1.701,4.931 -7.361,8.924 -17.118,11.667c-8.976,2.014 -18.299,3.785 -27.969,5.208c-4.479,0.834 -9.028,1.632 -13.663,2.379" style="fill:#f9eed2;fill-rule:nonzero;"/><path d="M1807.9,2288.51c2.118,5.26 3.975,10.312 5.555,15.486c1.649,5.312 3.594,10.66 5.868,16.198c2.153,-0.035 4.67,-0.156 7.587,-0.365c7.153,-0.451 15.174,-0.677 24.028,-0.833c8.837,-0.139 16.354,0.694 22.604,2.396c6.215,1.718 10,4.531 11.354,8.472c0.26,0.642 0.434,1.476 0.573,2.274c0.243,7.136 -3.785,12.431 -12.17,16.094c-8.386,3.594 -18.056,6.615 -29.011,8.733c-3.854,0.902 -7.5,1.701 -10.92,2.621c0.417,1.702 1.025,3.75 1.806,6.146c0.573,1.493 1.128,2.986 1.701,4.479c1.528,4.67 2.865,9.757 4.011,15.243c1.753,7.275 1.875,13.542 0.382,18.82c-1.528,5.277 -5.695,8.368 -12.552,9.253c-0.539,0.07 -1.06,0.122 -1.598,0.208c-8.784,0.174 -15.92,-1.545 -21.389,-5.312c-5.468,-3.733 -9.305,-8.594 -11.493,-14.67c-1.458,-3.733 -2.847,-7.413 -4.166,-11.25c-12.726,-33.802 -23.993,-67.934 -33.872,-102.101c-2.899,-11.319 -1.354,-18.906 4.583,-23.021c5.869,-4.01 13.16,-6.718 21.789,-7.691c2.152,-0.277 4.392,-0.451 6.736,-0.52c11.632,-0.712 23.854,-0.747 36.649,-0.226c5.313,0.156 10.434,0.312 15.313,0.226c2.5,-0 5.746,0.572 9.826,1.979c4.045,1.371 7.378,3.142 10.017,5.347c2.605,2.17 4.306,4.444 5.035,6.701c0.434,1.337 0.625,2.674 0.556,4.167c-0.278,5.677 -3.664,9.67 -10.174,11.875c-8.802,2.517 -19.253,4.635 -31.285,6.302c-6.389,0.972 -12.152,1.944 -17.343,2.969" style="fill:#f9eed2;fill-rule:nonzero;"/><path d="M1978.2,2267.23c5.191,-5.608 7.483,-9.393 6.927,-11.268c-0.365,-0.937 -0.712,-1.875 -1.059,-2.812c-1.354,-3.646 -5.833,-5.799 -13.472,-6.528c2.517,6.858 5.052,13.733 7.604,20.608m24.323,62.569c0.92,2.344 1.944,4.792 3.073,7.309c1.111,2.118 2.083,4.202 2.951,6.389c2.274,5.677 3.698,11.389 4.323,17.101c0.833,7.639 -3.559,14.114 -13.264,19.097c-1.597,0.608 -3.09,1.076 -4.514,1.389c-4.861,0.955 -9.375,0.295 -13.524,-2.101c-5.434,-3.073 -9.983,-7.257 -13.611,-12.5c-3.629,-5.295 -6.215,-9.809 -7.795,-13.663c-12.9,-31.51 -24.861,-63.264 -35.92,-95.156c-1.181,-3.455 -2.275,-7.275 -3.212,-11.424c-1.007,-4.132 -1.146,-8.073 -0.486,-11.493c0.677,-3.489 2.76,-6.094 6.25,-7.778c11.232,-4.618 21.58,-7.986 31.198,-9.878c9.097,-1.927 17.569,-2.5 25.486,-1.84c16.007,1.111 26.857,4.583 32.586,10.729c5.747,6.111 9.445,11.215 11.077,15.468c2.448,6.216 2.969,13.264 1.632,21.146c-1.441,6.372 -3.594,12.952 -6.563,19.636c-1.319,3.281 -2.569,6.649 -3.836,10.087c30.052,10.868 59.427,22.899 88.298,35.937c8.455,4.167 13.889,8.872 16.198,14.097c0.521,1.163 0.903,2.257 1.111,3.403c1.146,6.615 -0.312,10.868 -4.444,12.76c-4.045,1.928 -6.667,3.021 -7.813,3.282c-7.205,1.805 -16.962,0.642 -29.201,-3.282c-7.257,-2.691 -14.167,-5.277 -20.747,-7.777c-18.35,-7.448 -38.09,-14.358 -59.253,-20.938" style="fill:#f9eed2;fill-rule:nonzero;"/><path d="M2222.91,2305.91c3.541,-0.642 7.257,-1.493 11.163,-2.604c5.746,-1.684 11.128,-2.795 16.198,-3.298c7.552,-0.157 12.5,2.1 14.878,6.736c0.139,0.26 0.278,0.538 0.417,0.816c2.639,6.024 1.892,10.902 -2.222,14.757c-5.486,4.218 -11.511,7.482 -18.038,9.496c-6.511,2.049 -10.157,3.247 -10.903,3.385c-11.441,3.403 -22.431,6.181 -32.986,7.9c-4.236,0.521 -7.882,-0.052 -10.834,-1.667c-3.038,-1.632 -5.191,-3.455 -6.527,-5.694c-19.306,-43.403 -37.726,-86.945 -55.296,-130.591c-3.316,-8.68 -3.454,-15.329 -0.416,-20.017c2.986,-4.705 8.75,-8.229 17.239,-10.885c3.403,-1.059 7.049,-2.257 10.955,-3.386c4.011,-1.215 8.334,-2.482 12.969,-3.785c9.392,-2.656 18.073,-5.086 26.059,-7.309c10.174,-2.395 16.927,-2.482 20.26,-0.277c3.351,2.257 5.4,4.132 6.164,5.764c1.163,2.534 1.111,5.26 -0.105,8.42c-2.135,5.573 -8.281,10.486 -18.507,14.843c-4.062,1.494 -8.281,2.969 -12.673,4.341c-2.257,0.677 -4.566,1.319 -6.875,1.927c-3.125,0.833 -6.406,1.805 -9.879,2.864c6.216,13.768 12.535,27.518 18.941,41.233c5.955,-1.806 12.778,-3.681 20.486,-5.521c7.709,-1.892 14.723,-2.899 21.042,-3.055c6.354,-0.122 10.59,1.493 12.743,4.652c0.07,0.157 0.139,0.296 0.209,0.434c3.472,6.997 1.961,12.83 -4.619,17.466c-6.684,4.722 -14.791,8.819 -24.288,12.534c-4.392,1.91 -8.593,3.681 -12.552,5.452c5.608,11.701 11.268,23.403 16.997,35.069" style="fill:#f9eed2;fill-rule:nonzero;"/><path d="M2331.56,2160.76c-0.417,11.805 0.417,21.285 2.552,28.455c2.153,7.205 4.375,12.916 6.667,17.187c2.812,5.191 6.406,10.243 10.833,15.174c6.059,6.857 10.955,10.191 14.67,9.861c3.733,-0.295 6.476,-0.851 8.264,-1.493c4.514,-1.702 9.427,-5.469 14.722,-11.181c-6.423,-2.205 -11.284,-4.462 -14.583,-6.718c-3.281,-2.327 -5.469,-4.358 -6.493,-6.268c-1.597,-2.847 -2.118,-6.285 -1.632,-10.312c1.406,-6.684 3.976,-11.042 7.813,-13.039c3.784,-1.961 6.562,-3.316 8.298,-3.975c4.41,-1.823 9.063,-3.056 13.976,-3.993c-1.962,-7.466 -4.497,-13.924 -7.587,-19.462c-7.517,-13.386 -18.142,-20.833 -31.927,-22.257c-5.26,-0.226 -9.583,0.278 -13.004,1.632c-3.194,1.267 -5.625,3.177 -7.326,5.729c-3.524,5.504 -5.295,12.396 -5.243,20.66m114.306,24.93c2.152,0.747 4.513,1.511 7.013,2.275c8.994,2.378 16.233,5.017 21.667,7.882c5.434,2.864 8.941,5.538 10.434,7.986c1.893,3.09 2.292,6.632 1.181,10.868c-1.91,4.826 -5.139,8.246 -9.705,10.278c-0.226,0.121 -0.469,0.208 -0.712,0.329c-4.913,1.893 -10.365,2.882 -16.406,2.848c-5.972,-0.052 -11.58,-0.278 -16.788,-0.868c-1.858,-0.105 -3.542,-0.33 -5.122,-0.434c-0.903,1.371 -1.858,2.76 -2.847,4.114c-2.083,2.882 -4.254,5.781 -6.458,8.438c-9.323,11.25 -19.792,19.062 -31.337,23.576c-5.538,2.17 -11.198,3.594 -16.979,4.201c-18.351,2.101 -34.584,-1.562 -48.525,-10.833c-13.941,-9.219 -24.392,-20.729 -31.423,-34.305c-2.448,-4.653 -4.601,-9.74 -6.563,-15.139c-7.257,-20.834 -7.118,-45.921 -0.312,-74.948c2.378,-8.907 6.666,-15.764 12.934,-20.417c6.18,-4.67 12.257,-8.142 18.211,-10.503c3.16,-1.233 6.389,-2.292 9.74,-3.16c9.879,-2.379 19.757,-3.177 29.74,-2.413c16.527,1.562 30.434,6.684 41.701,15.538c11.285,8.906 20.226,18.889 26.771,30.087c0.937,1.649 1.857,3.281 2.691,5c6.823,13.402 10.59,26.527 11.094,39.6" style="fill:#f9eed2;fill-rule:nonzero;"/><path d="M2572.58,2125.25c-3.629,-10.972 -9.67,-25.035 -17.986,-41.996c-4.34,-9.098 -8.09,-17.379 -11.215,-24.879c-3.195,-7.431 -4.862,-12.778 -5.035,-15.99c0.087,-6.041 1.371,-9.895 3.819,-11.614c2.466,-1.649 4.011,-2.726 4.636,-3.038c3.732,-1.927 7.968,-2.483 12.76,-1.684c5.608,0.972 10.399,4.027 14.392,9.479c2.934,4.253 5.764,8.455 8.455,12.43c11.962,17.934 21.476,34.844 28.351,50.938c8.351,19.687 10.937,36.84 7.517,51.406c-4.826,16.736 -14.132,28.594 -27.725,35.278c-0.556,0.278 -1.111,0.538 -1.667,0.816c-14.531,6.788 -30.642,6.128 -47.986,-1.84c-15.035,-7.9 -26.892,-17.778 -35.66,-29.584c-8.802,-11.788 -16.042,-22.482 -21.823,-31.927c-3.194,-5.295 -6.198,-10.399 -9.045,-15.573c-2.448,-4.236 -4.792,-8.368 -6.996,-12.343c-5.417,-9.931 -6.615,-17.292 -3.75,-21.91c2.934,-4.705 6.024,-7.795 9.409,-9.375c2.292,-1.042 4.827,-1.719 7.674,-1.893c6.892,-0.625 12.882,1.806 17.934,7.257c15.052,21.65 30.399,43.177 46.076,64.601c10.052,12.083 16.754,17.552 19.914,16.441c3.125,-1.076 4.895,-1.719 5.243,-1.892c5.052,-2.518 5.937,-10.174 2.708,-23.108" style="fill:#f9eed2;fill-rule:nonzero;"/><path d="M2729.95,2081.54c3.142,-1.406 6.441,-3.004 9.809,-4.931c4.982,-2.847 9.774,-5.087 14.375,-6.666c6.979,-1.65 12.1,-0.573 15.364,3.593c0.209,0.243 0.4,0.469 0.591,0.729c3.784,5.417 4.236,10.365 1.284,15.105c-4.184,5.382 -9.062,9.826 -14.687,13.211c-5.625,3.438 -8.768,5.296 -9.41,5.643c-9.896,5.903 -19.549,10.85 -28.993,14.757c-3.854,1.406 -7.344,1.562 -10.469,0.625c-3.194,-0.903 -5.607,-2.396 -7.343,-4.306c-27.709,-39.062 -54.584,-78.472 -80.608,-118.177c-5.035,-7.882 -6.632,-14.549 -4.879,-19.792c1.719,-5.295 6.25,-10.052 13.525,-14.444c2.899,-1.788 6.041,-3.715 9.409,-5.677c3.455,-2.014 7.188,-4.236 11.164,-6.493c8.125,-4.583 15.607,-8.785 22.517,-12.691c8.906,-4.531 15.139,-6.059 18.733,-4.479c3.628,1.475 5.954,2.986 7.014,4.444c1.649,2.222 2.274,5 1.84,8.368c-0.747,5.92 -5.33,12.188 -13.854,18.611c-3.438,2.344 -7.032,4.636 -10.816,6.962c-1.927,1.198 -3.907,2.309 -5.92,3.351c-2.726,1.545 -5.539,3.16 -8.525,4.913c8.872,12.361 17.83,24.688 26.875,36.997c5.104,-3.039 11.025,-6.303 17.778,-9.757c6.736,-3.455 13.021,-5.973 18.889,-7.414c5.868,-1.423 10.173,-0.798 12.934,1.945c0.087,0.121 0.174,0.243 0.278,0.347c4.791,6.198 4.705,12.396 -0.348,18.368c-5.173,6.163 -11.77,11.858 -19.826,17.483c-3.663,2.812 -7.118,5.538 -10.399,8.073c7.83,10.486 15.729,20.885 23.698,31.302" style="fill:#f9eed2;fill-rule:nonzero;"/><path d="M2828.43,1965.89c2.674,2.674 5.538,5.451 8.559,8.229c5.903,5.295 10.243,9.497 13.004,12.674c2.76,3.107 4.375,4.896 4.774,5.382c4.375,5.121 7.292,10.104 8.698,14.93c1.458,5.486 -0.382,10.469 -5.452,14.965c-0.659,0.556 -1.284,1.042 -1.909,1.459c-9.167,6.25 -19.723,4.826 -31.354,-4.393c-19.792,-16.041 -37.24,-33.715 -52.535,-52.881c-7.535,-9.462 -14.497,-19.254 -20.938,-29.445c-7.812,-12.569 -5.729,-22.726 6.042,-30.694c0.972,-0.677 1.996,-1.285 3.003,-1.875c4.966,-2.952 9.584,-4.115 13.889,-3.438c4.306,0.695 8.664,2.049 13.004,4.045c0.295,0.052 0.607,0.122 0.816,0.191c22.291,8.976 45.156,17.153 68.594,24.254c11.684,3.559 18.94,4.791 21.666,3.715c2.761,-1.128 4.306,-1.771 4.705,-2.049c3.507,-2.534 2.031,-8.836 -4.427,-18.68c-2.587,-3.524 -5.434,-7.031 -8.507,-10.521c-3.003,-3.438 -6.25,-6.892 -9.74,-10.382c-3.402,-3.524 -6.579,-7.031 -9.566,-10.538c-2.204,-2.587 -4.34,-5.104 -6.388,-7.743c-4.497,-5.938 -6.997,-11.893 -7.5,-17.743c-0.07,-6.372 1.753,-10.99 5.468,-13.768c0.243,-0.173 0.469,-0.364 0.695,-0.538c4.166,-2.882 8.889,-4.062 14.236,-3.715c5.33,0.382 9.653,2.118 12.951,5.174c5.365,5.208 10.677,10.173 15.92,14.826c8.646,7.413 16.441,14.93 23.386,22.552c2.413,2.691 4.722,5.434 6.927,8.142c8.628,10.295 13.993,22.743 15.937,37.205c1.164,11.476 -0.486,19.636 -4.93,24.636c-4.393,4.965 -7.691,8.264 -9.879,9.861c-6.527,4.913 -14.843,8.038 -24.878,9.705c-10.139,1.284 -20.729,1.562 -31.684,0.625c-11.024,-0.921 -21.875,-2.327 -32.587,-4.167" style="fill:#f9eed2;fill-rule:nonzero;"/><path d="M3049.54,1824.44c0.677,-0.59 1.354,-1.18 2.031,-1.788c3.108,-2.743 6.337,-5.139 9.74,-7.187c4.132,-2.396 8.038,-2.414 11.806,-0.052c0.937,0.729 1.805,1.493 2.586,2.204c2.9,2.691 4.879,5.921 5.938,9.566c1.302,4.532 0.642,9.618 -2.014,15.105c-4.323,8.35 -10.642,16.093 -18.906,23.246c-1.736,1.545 -3.542,3.038 -5.4,4.462c-11.041,8.351 -23.437,13.455 -37.013,15.26c-13.577,1.736 -26.754,-2.1 -39.428,-11.545c-4.027,-3.298 -7.795,-6.805 -11.25,-10.399c-25,-26.163 -32.43,-58.403 -24.67,-96.58c2.552,-11.076 5.573,-18.299 9.202,-21.684c3.628,-3.368 5.607,-5.243 5.937,-5.538c6.667,-5.851 13.872,-9.688 21.702,-11.597c8.09,-1.945 14.236,-2.118 18.524,-0.504c4.253,1.615 7.187,3.229 8.785,4.826c2.569,2.57 4.027,5.886 4.409,10.226c0.243,5.764 -0.798,9.809 -3.159,11.875c-2.431,2.17 -5.417,3.75 -8.872,4.722c-3.819,0.99 -7.396,2.934 -10.729,5.868c-0.174,0.157 -0.347,0.33 -0.521,0.487c-3.437,3.159 -5.364,9.288 -5.799,18.611c-0.173,17.569 4.601,33.385 14.688,47.309c1.806,2.482 3.611,4.687 5.417,6.493c3.854,3.923 7.673,6.094 11.441,6.632c5.711,0.729 10.937,-0.469 15.711,-3.629c4.757,-3.246 9.219,-6.632 13.421,-10.278c1.527,-1.406 3.072,-2.847 4.618,-4.322c0.642,-0.573 1.232,-1.164 1.805,-1.789" style="fill:#f9eed2;fill-rule:nonzero;"/><path d="M3135.21,1664.01c-0.555,1.857 -1.111,3.576 -1.597,5.156c-0.886,2.639 -1.754,5.069 -2.587,7.292c-3.889,10.121 -8.698,17.986 -14.236,23.559c-3.351,3.42 -6.944,5.92 -10.816,7.673c-10.434,4.67 -21.701,5.677 -33.75,2.795c-8.038,-1.892 -14.844,-4.947 -20.417,-9.184c-5.59,-4.218 -9.652,-7.604 -12.291,-10.086c-4.393,-4.184 -8.125,-8.646 -11.198,-13.351c-4.983,-7.448 -6.667,-13.941 -5.157,-19.41c1.094,-4.201 2.744,-7.257 4.914,-9.427c1.857,-1.805 4.132,-2.934 6.805,-3.385c5.799,-0.868 11.736,1.093 17.9,6.076c1.093,0.938 2.187,1.875 3.298,2.813c1.042,1.059 2.083,2.1 3.125,3.159c1.007,1.077 2.066,2.136 3.16,3.16c2.899,2.691 6.024,5.087 9.305,7.17c6.962,3.906 11.702,5.087 14.167,3.577c2.5,-1.563 4.045,-2.605 4.705,-3.264c2.934,-2.934 4.601,-7.917 4.983,-14.653c-0,-9.288 -1.146,-17.847 -3.368,-25.66c-0.938,-3.923 -1.58,-7.048 -1.806,-9.427c-0.503,-8.264 0.226,-13.559 2.309,-15.903c2.049,-2.291 3.125,-3.507 3.194,-3.593c3.959,-4.219 9.688,-5.851 17.205,-4.862c7.778,0.99 16.945,5.73 27.587,14.167c4.896,4.097 12.344,11.163 22.431,21.042c10.086,9.896 19.965,19.722 29.6,29.514c9.601,9.791 16.233,16.771 19.74,21.007c5.347,7.205 7.326,13.211 6.007,18.159c-1.354,4.896 -3.142,8.49 -5.417,10.886c-1.823,1.927 -4.028,3.524 -6.597,4.635c-5.851,2.778 -12.274,2.344 -19.219,-1.302c-17.5,-15.989 -34.826,-32.101 -51.979,-48.333" style="fill:#f9eed2;fill-rule:nonzero;"/><path d="M3298.01,1611.31c2.535,2.014 5.278,4.948 8.16,8.629c2.882,3.697 4.618,7.569 5.173,11.545c0.573,3.906 -0.573,7.604 -3.437,10.902c-0.608,0.747 -1.337,1.476 -2.153,2.257c-2.552,2.014 -5.608,3.855 -9.097,5.278c-3.49,1.493 -6.389,1.997 -8.663,1.493c-5.608,-1.909 -10.278,-3.941 -14.028,-6.111c-3.75,-2.135 -6.233,-3.68 -7.431,-4.618c-3.941,-2.969 -6.771,-6.545 -8.559,-10.573c-2.274,-5.208 -0.607,-11.232 4.931,-18.055c6.493,-6.893 12.604,-9.757 18.455,-8.542c5.868,1.233 10.642,3.212 14.409,5.92c0.782,0.59 1.528,1.181 2.24,1.875m-60.382,-47.118c10.382,8.594 15.208,15.503 14.427,20.59c-0.781,5.087 -2.153,8.768 -4.045,11.025c-2.066,2.413 -5.017,4.27 -8.785,5.538c-7.153,2.274 -14.739,0.85 -22.656,-4.236c-31.476,-22.83 -62.396,-46.111 -92.743,-69.844c-7.431,-8.351 -10.573,-15.26 -9.583,-20.59c0.989,-5.452 2.482,-9.289 4.496,-11.615c2.083,-2.448 4.931,-4.253 8.524,-5.417c6.945,-2.1 15.139,0.417 24.671,7.379c4.218,3.385 8.472,6.858 12.795,10.121c14.479,11.424 29.045,22.83 43.628,34.237c9.792,7.586 19.549,15.208 29.271,22.812" style="fill:#f9eed2;fill-rule:nonzero;"/><path d="M226.774,877.683c-1.007,0.764 -1.18,1.545 -0.781,2.309c-5.174,2.153 -3.49,-6.84 0.781,-2.309m24.618,16.562c1.267,1.094 2.691,-5.729 5.642,-5.086c1.181,4.322 3.16,8.906 8.282,12.638c-5.174,7.691 -11.754,-4.722 -17.101,1.129c-3.42,-3.767 -5.017,-5.608 -9.392,-3.889c-5.886,-8.924 -11.563,-5.972 -15.122,-13.663c4.931,-2.327 1.684,-3.854 6.042,-7.691c6.58,5.816 19.357,9.444 21.649,16.562m450.261,192.848c2.951,-0.747 9.218,-2.448 12.621,-3.976c11.441,-4.792 25.226,-12.222 38.872,-17.136c6.736,-2.586 13.42,-4.635 19.34,-6.145c5.833,-1.65 11.076,-2.483 15.312,-2.049c4.271,-1.806 2.761,-3.976 6.997,-5.764c5.191,2.726 22.083,3.038 31.753,-4.149c3.212,-2.604 4.566,-12.587 10.643,-19.132c8.923,-9.792 24.878,-10.556 32.795,-19.844c3.542,-4.323 3.403,-12.934 6.423,-17.917c3.959,-6.545 11.615,-14.618 19.497,-22.118c7.639,-7.708 15.174,-15.208 20.035,-19.253c7.552,-6.458 13.923,-6.181 17.812,-12.691c3.594,-5.816 1.875,-13.403 -5.208,-17.778c-1.91,-13.194 6.562,-27.361 16.562,-42.239c9.41,-15.157 19.74,-31.615 22.865,-46.025c7.622,-7.968 10.538,-18.125 12.969,-28.125c2.205,-10.139 4.271,-20.034 7.795,-29.392c1.493,-3.715 5.087,-7.587 6.285,-11.58c1.996,-6.614 1.371,-16.406 2.621,-25.156c2.188,-14.931 4.705,-27.847 4.566,-40.365c14.757,-16.736 3.698,-32.743 5.799,-48.194c0.781,-5.868 4.774,-11.406 5.364,-18.09c0.66,-5.643 -2.691,-11.181 -2.274,-17.292c0.295,-6.077 3.767,-12.413 3.715,-18.368c-0.052,-4.427 -2.187,-7.865 -1.979,-11.459c0.226,-4.722 2.934,-7.829 2.153,-12.829c-0.92,-5.261 -5.486,-10.243 -6.441,-15.452c-1.754,-9.531 -2.083,-19.566 -3.299,-29.375c-1.059,-9.809 -4.357,-19.288 -9.896,-27.396c0.139,-16.736 -3.906,-31.718 -9.93,-46.753c-5.695,-15.191 -11.094,-30.955 -15.729,-50.139c-5.782,-8.16 -9.966,-13.993 -12.084,-24.167c-1.666,-1.718 -3.836,-0.659 -5.26,-3.871c-3.229,-9.601 -9.427,-18.09 -15.608,-26.493c-3.09,-4.202 -6.18,-8.403 -8.923,-12.778c-2.865,-4.306 -5.677,-8.628 -7.674,-13.472c-1.458,0.087 -2.899,0.017 -4.271,-0.677c-10.642,-26.823 -33.576,-55.573 -53.038,-67.674c-4.01,-7.969 -10.764,-14.514 -18.368,-20.764c-3.837,-3.038 -7.795,-6.18 -11.823,-9.375c-4.149,-3.021 -8.455,-5.989 -12.517,-9.357c-7.639,-6.303 -13.386,-14.809 -21.389,-19.74c-7.778,-4.826 -16.632,-10.538 -25.087,-16.701c-8.611,-5.903 -16.788,-12.379 -24.93,-15.886c-4.792,-2.187 -10.747,-1.962 -15.435,-3.958c-8.506,-3.559 -15.746,-11.111 -25.26,-14.08c-9.323,-2.448 -18.663,-5.521 -27.951,-8.906c-9.289,-3.42 -18.473,-7.257 -27.9,-10.157c-18.645,-6.215 -36.562,-13.246 -52.916,-16.128c-10.052,-2.118 -19.271,-0.417 -30.591,-1.319c-18.784,-0.243 -37.673,-8.386 -56.701,-7.865c-4.757,0.295 -9.427,2.378 -13.767,2.812c-11.216,1.146 -21.962,-1.128 -33.837,-0.451c-14.462,1.476 -28.802,4.497 -42.813,6.997c-14.01,2.76 -27.639,6.215 -41.597,6.389c-4.062,1.788 -8.42,3.385 -12.917,5.138c-4.444,1.945 -9.097,3.837 -13.906,5.712c-9.6,3.75 -19.791,7.379 -30.173,10.99c-10.105,4.288 -20.382,8.646 -30.452,12.916c-5,2.223 -9.93,4.41 -14.774,6.563c-4.635,2.569 -9.167,5.069 -13.559,7.5c-5.174,9.462 -15.035,9.08 -22.813,14.253c-11.753,8.212 -23.75,19.532 -36.406,29.775c-12.326,10.712 -24.271,21.857 -37.17,29.583c-42.917,45.278 -80.122,96.719 -105.972,153.767c-25.903,56.771 -39.809,119.254 -37.24,179.046c-5.087,9.027 -2.031,23.767 0.938,31.822c-2.813,1.771 -2.639,7.24 -3.473,11.424c3.369,7.361 4.775,15.573 5.191,24.41c0.504,8.819 0.452,18.264 2.344,27.43c7.379,3.664 4.584,15.486 11.094,21.407c-3.194,3.68 -4.045,-3.351 -5.104,2.1c3.715,2.361 6.632,6.632 9.062,11.979c2.396,5.33 4.236,11.771 6.667,18.282c4.479,13.055 8.281,27.187 12.691,35.139c-0.365,-1.198 1.337,-2.084 2.066,-0.695c-1.337,5.122 5.364,4.809 7.014,9.306c13.298,29.774 35.538,44.097 52.934,64.045c0.295,3.663 0.764,14.097 6.389,14.062c-2.066,-4.409 -5.747,-9.253 -1.094,-11.753c2.934,7.483 10.746,14.809 17.066,16.614c5.59,7.778 7.101,12.917 15.417,17.257c1.25,1.667 2.968,-5.017 5.677,-1.493c6.423,11.962 13.802,14.358 20.382,24.341c6.041,-0.938 16.753,7.673 17.951,12.621c4.184,1.094 -0.122,-6.007 3.038,-4.635c8.316,6.597 17.622,10.573 22.795,19.479c3.351,-0.278 6.545,-1.754 10.018,0.121c2.257,1.389 -3.594,3.386 0.434,4.636c4.583,0.104 0.816,-5.729 3.819,-8.09c5.035,1.84 5.851,-0.886 9.601,-1.684c3.923,6.51 11.545,4.201 17.708,6.25c6.389,2.066 11.354,7.621 17.361,9.739c5.382,1.441 9.254,-0.729 14.445,2.205c4.219,2.378 5.972,7.743 10.92,10.069c2.917,0.573 0.156,-4.496 3.837,-2.76c4.218,2.083 8.646,3.733 13.107,5.087c4.41,1.441 8.785,2.76 13.073,3.854c8.542,2.222 16.702,3.542 24.358,2.118c-11.458,1.25 -19.636,-3.229 -27.674,-6.649c-8.003,-3.646 -15.607,-7.031 -25.382,-8.368c-0.191,-5.608 -8.767,-1.337 -8.055,-8.42c-2.465,1.84 0.364,5.59 -3.09,3.211c-1.025,-0.989 -0.886,-2.309 -2.952,-2.986c5.156,-3.75 1.736,-5.625 2.465,-9.809c-6.996,-3.281 -12.777,-6.996 -18.75,-9.948c-5.902,-3.107 -11.614,-6.111 -17.204,-9.843c-2.813,-0.4 -0.591,3.697 -3.438,2.743c-4.601,-2.5 -7.135,-5.677 -12.865,-8.334c1.285,-4.496 -0.468,-8.663 4.775,-11.597c6.788,5.781 15.903,11.25 26.337,15.191c10.312,4.097 20.347,8.993 29.878,13.125c5.59,2.743 9.34,9.757 15.642,5.399c-9.132,-2.569 -11.979,-12.725 -18.454,-17.031c-7.969,-6.25 -20.782,-6.84 -28.351,-13.698c-2.136,-1.892 -1.823,-4.253 -3.802,-5.851c-1.528,-1.25 -6.111,-0.902 -7.743,-2.5c-1.754,-1.736 -0.4,-3.628 -2.17,-4.756c-3.594,-2.344 -8.473,-1.737 -12.118,-4.914c-6.181,-5.225 -8.49,-14.149 -15.73,-19.201c0.122,-1.198 1.111,-2.483 2.327,-3.385c65.903,67.43 159.201,107.482 260.781,102.621c1.042,-0.052 2.066,-0.174 3.108,-0.226c1.354,12.032 2.465,23.264 1.805,34.184c8.056,11.546 7.5,25.903 14.584,36.875c4.427,6.806 12.847,12.813 18.906,19.132c6.892,7.275 14.184,12.57 20.59,19.306c1.25,8.021 9.497,7.969 12.344,14.323c10.798,2.969 19.913,8.16 31.458,10.642c1.649,2.465 4.514,3.42 5.573,6.511c24.965,6.77 53.906,16.996 86.563,8.125" style="fill:#2d3d36;fill-rule:nonzero;"/><text x="288.472px" y="862.306px" style="font-family:'LucidaGrande', 'Lucida Grande', sans-serif;font-weight:500;font-size:1041.67px;fill:#a09b7e;">3<tspan x="781.18px " y="862.306px ">.</tspan></text><path d="M1954.95,1485.17c-23.559,-0 -47.101,-0.104 -70.642,0.017c-25.521,0.157 -36.25,10.66 -36.355,35.695c-0.138,34.6 -0.138,69.184 -0.034,103.785c0.087,24.791 10.26,35.312 34.843,35.434c47.57,0.225 95.157,0.277 142.744,0.104c23.263,-0.087 33.541,-10.434 33.628,-33.351c0.156,-36.024 0.156,-72.066 0.052,-108.09c-0.069,-22.657 -10.694,-33.316 -33.594,-33.542c-23.541,-0.226 -47.083,-0.052 -70.642,-0.052m-883.837,175.035c24.514,-0 49.028,0.243 73.542,-0.087c22.083,-0.295 32.847,-10.92 33.038,-32.847c0.295,-36.528 0.278,-73.039 -0.035,-109.566c-0.191,-20.834 -11.458,-32.292 -32.205,-32.413c-49.027,-0.33 -98.072,-0.365 -147.1,-0.053c-21.007,0.139 -31.684,11.32 -31.788,32.344c-0.209,36.528 -0.209,73.038 -0.07,109.566c0.087,22.327 10.104,32.604 32.517,32.952c24.028,0.347 48.056,0.069 72.101,0.104m588.924,0.017c24.045,0 48.09,0.347 72.118,-0.104c22.916,-0.417 33.541,-11.25 33.646,-33.802c0.173,-35.556 0.191,-71.129 -0.052,-106.684c-0.174,-23.559 -11.059,-34.358 -34.671,-34.445c-47.586,-0.173 -95.191,-0.156 -142.777,0.018c-22.934,0.104 -33.733,10.694 -33.872,33.316c-0.226,36.041 -0.191,72.083 0.017,108.125c0.122,23.264 9.792,33.055 33.49,33.455c24.028,0.416 48.073,0.086 72.101,0.121m-293.75,-175.017c-24.549,-0 -49.115,-0.243 -73.663,0.087c-20.816,0.277 -32.518,11.614 -32.709,32.17c-0.364,37.066 -0.312,74.132 0.052,111.198c0.191,19.392 10.955,31.024 30.278,31.25c50.556,0.572 101.111,0.538 151.667,0.017c18.837,-0.208 29.062,-11.389 29.219,-30.365c0.277,-37.066 0.26,-74.132 -0.035,-111.18c-0.174,-22.83 -10.781,-32.952 -34.028,-33.143c-23.594,-0.191 -47.187,-0.034 -70.781,-0.034m587.882,-458.837l-0,0.069c-23.108,0 -46.216,-0.069 -69.323,0.018c-27.622,0.104 -39.097,12.378 -38.49,39.93c0.799,35.573 1.268,71.129 1.58,106.702c0.174,17.968 15.434,31.423 33.385,29.01c4.705,-0.625 9.48,-1.111 14.202,-1.059c42.76,0.504 85.521,1.389 128.298,1.649c24.514,0.139 34.931,-10.746 35.053,-35.468c0.191,-35.608 0.312,-71.198 0.26,-106.806c-0.017,-24.531 -9.34,-33.802 -34.201,-33.993c-23.594,-0.208 -47.188,-0.052 -70.764,-0.052m-882.014,229.531c-25.486,0 -50.972,-0.278 -76.441,0.087c-17.587,0.26 -28.906,11.424 -29.08,28.889c-0.347,38.437 -0.365,76.892 -0.069,115.33c0.138,19.045 11.527,30.225 30.746,30.33c49.514,0.243 99.028,0.277 148.559,0.052c19.826,-0.087 31.563,-11.476 31.771,-31.302c0.399,-37.466 0.33,-74.966 -0.104,-112.448c-0.226,-20.018 -11.528,-30.695 -31.841,-30.92c-24.513,-0.244 -49.027,-0.053 -73.541,-0.018m882.778,0l-0,-0.035c-25,0 -50.018,-0.191 -75.018,0.053c-20.208,0.19 -31.493,10.902 -31.736,31.006c-0.451,37.483 -0.469,74.983 -0.139,112.466c0.191,19.774 11.91,31.059 31.806,31.146c49.531,0.208 99.062,0.208 148.576,0.017c19.167,-0.07 30.538,-11.267 30.66,-30.347c0.26,-37.986 0.226,-75.955 -0.052,-113.924c-0.139,-19.34 -11.146,-30.121 -30.538,-30.312c-24.514,-0.261 -49.046,-0.07 -73.559,-0.07m-295.174,-229.479c-22.118,-0 -44.236,0.035 -66.354,-0c-29.757,-0.052 -39.879,9.514 -40.226,39.41c-0.417,34.132 -0.382,68.264 -0.191,102.378c0.139,21.754 9.566,32.049 31.545,32.552c49.445,1.129 98.907,1.684 148.351,1.823c21.892,0.07 33.594,-12.326 33.455,-34.444c-0.226,-36.962 -0.833,-73.924 -1.615,-110.868c-0.434,-21.025 -10.278,-30.591 -31.389,-30.799c-24.531,-0.243 -49.045,-0.052 -73.576,-0.052m-295.747,404.219c25.487,-0 50.973,0.208 76.441,-0.07c19.219,-0.191 30.469,-11.215 30.643,-30.468c0.33,-37.969 0.416,-75.955 0.052,-113.924c-0.174,-19.531 -11.094,-30.122 -30.695,-30.208c-49.531,-0.226 -99.062,-0.209 -148.593,-0.035c-20.278,0.087 -31.407,10.59 -31.702,31.007c-0.555,37.482 -0.59,75 -0.156,112.482c0.226,19.931 11.962,30.938 31.875,31.129c24.045,0.243 48.09,0.069 72.135,0.087m297.379,-174.792l-0,0.122c-25,-0 -50.017,-0.157 -75.017,0.052c-21.164,0.173 -31.754,10.625 -31.91,31.979c-0.261,37.014 -0.278,74.028 0.017,111.059c0.174,20.781 11.32,31.423 32.587,31.493c48.559,0.174 97.135,0.191 145.712,0.017c21.545,-0.052 32.847,-11.198 33.038,-32.968c0.33,-36.546 0.26,-73.073 0,-109.619c-0.156,-20.711 -11.58,-31.909 -32.292,-32.083c-24.045,-0.208 -48.09,-0.052 -72.135,-0.052m-402.882,-142.726l0.851,0c-0,18.785 -0.33,37.552 0.086,56.32c0.487,21.25 12.24,33.09 33.455,33.177c18.681,0.069 37.396,-1.649 56.094,-1.58c30.261,0.139 60.538,1.476 90.799,1.528c17.222,0.035 31.232,-10.677 31.493,-23.768c0.798,-40.347 1.475,-80.694 1.146,-121.041c-0.157,-19.514 -12.882,-31.077 -32.292,-31.215c-33.229,-0.278 -66.458,-0.07 -99.688,-0.07c-14.427,0 -28.975,1.111 -43.281,-0.312c-24.878,-2.466 -38.42,8.507 -38.628,33.559c-0.157,17.795 -0.035,35.607 -0.035,53.402m255.226,-183.871c217.656,-0.018 435.312,-0.018 652.968,-0.018c22.709,0 22.83,0 22.587,23.386c-0.434,43.264 -1.562,86.545 -1.493,129.826c0.313,183.733 0.99,367.466 1.424,551.216c0.104,39.982 -15.087,73.038 -46.441,98.125c-24.896,19.93 -54.202,25.659 -85.33,25.642c-274.479,-0.087 -548.958,-0.052 -823.42,-0.052c-90.052,-0 -180.104,0.173 -270.156,-0.07c-59.115,-0.156 -103.542,-30.104 -120.799,-82.638c-4.705,-14.323 -6.285,-30.226 -6.354,-45.417c-0.521,-111.684 -0.243,-223.368 -0.313,-335.035c-0.052,-55.833 -0.451,-111.649 -0.451,-167.483c0.017,-59.062 0.347,-118.142 0.521,-177.204c0.052,-20.209 0.052,-20.261 19.965,-20.261c219.097,0 438.194,0 657.292,-0.017" style="fill:#f9eed2;fill-rule:nonzero;"/><path d="M1443.11,908.791c-243.212,-23.733 -339.74,7.899 -545.747,7.916c-18.715,0 -43.437,12.761 -43.489,31.754c-0.157,55.538 9.878,167.951 -0.469,166.597c-0.018,52.5 8.333,170.33 8.368,222.812c0.087,105 -8.143,144.653 -7.656,249.653c0.069,14.288 1.545,29.236 5.972,42.708c16.215,49.41 57.986,77.535 113.576,77.691c84.67,0.244 206.823,-8.211 291.493,-8.194c258.056,0 413.247,27.674 736.684,8.316c29.271,0.017 56.823,-5.365 80.226,-24.115c29.479,-23.576 43.767,-54.67 43.681,-92.257c-0.417,-172.743 -4.132,-241.215 -4.428,-413.958c-0.052,-40.694 4.08,-185.677 4.48,-226.354c0.225,-21.997 -62.223,-38.611 -83.559,-38.611c-204.653,-0 -355.921,-21.754 -599.132,-3.958m45.937,853.125c-170.226,-0 -289.149,-10.782 -510.694,0.052c-35.018,0.034 -68.611,-5.243 -98.646,-24.532c-53.386,-34.27 -79.792,-83.402 -79.809,-146.753c-0.018,-101.84 0.017,-203.663 0.017,-305.504c-11.302,-204.357 -7.413,-375 -7.344,-558.298c0.035,-77.656 49.098,-130.278 120.573,-154.67c16.771,-5.73 35.417,-5.938 53.23,-8.525c9.131,-1.336 11.649,3.438 11.562,11.875c-0.312,27.153 -1.545,62.865 -1.476,90.018c0.139,49.392 32.223,78.975 80.382,89.652c55.417,12.275 112.761,-31.406 114.827,-88.333c1.093,-29.826 -0.834,-26.823 -1.424,-56.684c-0.226,-10.972 5.382,-46.84 15.712,-46.788c63.837,0.33 127.673,0.434 191.51,-0.052c11.684,-0.104 14.688,4.201 14.462,15.035c-0.555,26.684 -18.177,70.364 -18.021,97.066c0.295,50.746 52.587,73.038 103.629,81.059c44.34,6.961 89.93,-22.587 104.34,-68.525c2.917,-9.288 19.236,-30.364 19.41,-40.225c0.521,-26.684 -15.052,-42.605 -15.625,-69.289c-0.226,-10.902 2.968,-15.225 14.531,-15.139c63.837,0.435 127.674,0.417 191.51,0.053c10.677,-0.07 14.098,3.489 14.132,14.079c0.139,33.438 -14.652,86.667 -10.764,119.723c5.4,45.972 62.657,61.145 108.941,60.312c47.362,-0.868 102.153,-23.785 106.58,-70.191c2.969,-30.972 -10.92,-75.416 -10.59,-106.632c0.174,-17.031 0.174,-17.153 17.639,-17.118c86.371,0.174 155.104,46.823 157.083,135.608c1.771,79.618 -4.01,211.024 -3.958,290.677c0.035,48.403 9.062,69.236 9.08,117.639c0.069,161.111 10.694,334.219 10.694,495.33c0,99.635 -83.403,158.993 -185.364,159.062c-172.032,0.122 -285.243,26.806 -516.129,0.018" style="fill:#2d3d36;fill-rule:nonzero;"/><path d="M1031.51,590.448c-0,-22.586 -5.799,-28.836 -5.608,-51.423c0.226,-26.58 23.959,-62.188 48.611,-62.5c25.33,-0.33 43.976,18.871 44.167,46.302c0.278,45.174 10.347,63.958 10.052,109.132c-0.191,26.753 -28.559,71.788 -53.628,71.719c-24.896,-0.052 -43.334,-19.15 -43.559,-45.469c-0.191,-22.587 -0.035,-45.174 -0.035,-67.761" style="fill:#2d3d36;fill-rule:nonzero;"/><path d="M1945.35,570.672c-0.017,22.587 1.667,64.879 1.372,87.466c-0.33,26.475 -18.82,45.521 -43.646,45.486c-25.104,-0.035 -50.504,-27.518 -50.66,-53.854c-0.278,-45.643 6.493,-82.57 6.736,-128.212c0.139,-25.243 18.889,-44.67 42.882,-45.174c24.375,-0.538 43.941,18.959 44.705,44.844c0.33,11.736 -7.326,47.587 -7.326,59.323c0.017,11.302 5.955,-21.181 5.937,-9.879" style="fill:#2d3d36;fill-rule:nonzero;"/><path d="M1445.37,589.784c0,-22.605 -4.427,-30.139 -4.236,-52.726c0.226,-26.042 23.611,-60.903 47.934,-60.66c24.827,0.243 43.577,19.34 43.768,45.66c0.312,45.173 3.507,60.764 3.211,105.955c-0.173,27.222 -22.239,75.955 -47.708,75.712c-24.653,-0.209 -42.743,-19.514 -42.934,-46.164c-0.174,-22.586 -0.035,-45.191 -0.035,-67.777" style="fill:#2d3d36;fill-rule:nonzero;"/><path d="M1250.68,1102.27c-0,-16.736 -0.122,-33.472 0.035,-50.225c0.191,-23.542 12.934,-33.872 36.336,-31.528c13.438,1.319 27.118,0.278 40.677,0.278c31.25,-0 62.483,-0.191 93.716,0.052c18.246,0.156 30.225,11.024 30.364,29.357c0.313,37.934 -0.312,75.886 -1.076,113.803c-0.243,12.326 -13.42,22.378 -29.601,22.361c-28.455,-0.052 -56.909,-1.32 -85.382,-1.441c-17.569,-0.07 -35.156,1.545 -52.743,1.475c-19.93,-0.069 -30.989,-11.198 -31.441,-31.18c-0.399,-17.639 -0.087,-35.295 -0.087,-52.952l-0.798,0Z" style="fill:#2d3d36;fill-rule:nonzero;"/><path d="M1629.47,1236.45c22.604,0 45.209,-0.156 67.83,0.053c19.462,0.156 30.208,10.694 30.347,30.156c0.243,34.357 0.313,68.715 0,103.055c-0.173,20.469 -10.798,30.955 -31.059,31.025c-45.659,0.139 -91.336,0.121 -136.996,-0.018c-20,-0.069 -30.486,-10.087 -30.643,-29.635c-0.277,-34.792 -0.26,-69.601 -0.017,-104.41c0.139,-20.069 10.104,-29.896 30,-30.069c23.507,-0.191 47.031,-0.035 70.538,-0.035l0,-0.122Z" style="fill:#2d3d36;fill-rule:nonzero;"/><path d="M1349.87,1400.78c-22.605,-0.018 -45.209,0.156 -67.813,-0.07c-18.733,-0.173 -29.757,-10.538 -29.965,-29.271c-0.4,-35.243 -0.382,-70.503 0.139,-105.746c0.277,-19.202 10.746,-29.08 29.809,-29.15c46.58,-0.173 93.142,-0.191 139.705,0.035c18.437,0.07 28.697,10.035 28.871,28.386c0.33,35.711 0.261,71.423 -0.069,107.118c-0.157,18.107 -10.73,28.455 -28.802,28.645c-23.959,0.261 -47.917,0.07 -71.875,0.053" style="fill:#2d3d36;fill-rule:nonzero;"/></g></svg>